G04 #@! TF.GenerationSoftware,KiCad,Pcbnew,6.0.10+dfsg-1~bpo11+1*
G04 #@! TF.ProjectId,project,70726f6a-6563-4742-9e6b-696361645f70,rev?*
G04 #@! TF.SameCoordinates,Original*
G04 #@! TF.FileFunction,Legend,Top*
G04 #@! TF.FilePolarity,Positive*
%FSLAX46Y46*%
G04 Gerber Fmt 4.6, Leading zero omitted, Abs format (unit mm)*
%MOMM*%
%LPD*%
G01*
G04 APERTURE LIST*
G04 #@! TA.AperFunction,Profile*
%ADD10C,0.100000*%
G04 #@! TD*
%ADD11C,0.150000*%
%ADD12C,0.120000*%
%ADD13C,0.010000*%
%ADD14C,5.600000*%
%ADD15C,1.700000*%
%ADD16R,1.300000X1.550000*%
%ADD17R,1.000000X1.500000*%
%ADD18C,2.200000*%
G04 APERTURE END LIST*
D10*
X167262500Y-129537500D02*
X167262500Y-69537500D01*
X164762500Y-67037500D02*
X129762500Y-67037500D01*
X164762500Y-132037500D02*
G75*
G03*
X167262500Y-129537500I0J2500000D01*
G01*
X127262500Y-129537500D02*
G75*
G03*
X129762500Y-132037500I2500000J0D01*
G01*
X167262500Y-69537500D02*
G75*
G03*
X164762500Y-67037500I-2500000J0D01*
G01*
X164762500Y-132037500D02*
X129762500Y-132037500D01*
X127262500Y-69537500D02*
X127262500Y-129537500D01*
X129762500Y-67037500D02*
G75*
G03*
X127262500Y-69537500I0J-2500000D01*
G01*
D11*
X147536404Y-79527976D02*
X147536404Y-79032738D01*
X147841166Y-79299404D01*
X147841166Y-79185119D01*
X147879261Y-79108928D01*
X147917357Y-79070833D01*
X147993547Y-79032738D01*
X148184023Y-79032738D01*
X148260214Y-79070833D01*
X148298309Y-79108928D01*
X148336404Y-79185119D01*
X148336404Y-79413690D01*
X148298309Y-79489880D01*
X148260214Y-79527976D01*
X147536404Y-78804166D02*
X148336404Y-78537500D01*
X147536404Y-78270833D01*
X147536404Y-78080357D02*
X147536404Y-77585119D01*
X147841166Y-77851785D01*
X147841166Y-77737500D01*
X147879261Y-77661309D01*
X147917357Y-77623214D01*
X147993547Y-77585119D01*
X148184023Y-77585119D01*
X148260214Y-77623214D01*
X148298309Y-77661309D01*
X148336404Y-77737500D01*
X148336404Y-77966071D01*
X148298309Y-78042261D01*
X148260214Y-78080357D01*
X149319642Y-79832738D02*
X149319642Y-79223214D01*
X149319642Y-78842261D02*
X149319642Y-78232738D01*
X149319642Y-77851785D02*
X149319642Y-77242261D01*
X150150500Y-79147023D02*
X150112404Y-79223214D01*
X150112404Y-79337500D01*
X150150500Y-79451785D01*
X150226690Y-79527976D01*
X150302880Y-79566071D01*
X150455261Y-79604166D01*
X150569547Y-79604166D01*
X150721928Y-79566071D01*
X150798119Y-79527976D01*
X150874309Y-79451785D01*
X150912404Y-79337500D01*
X150912404Y-79261309D01*
X150874309Y-79147023D01*
X150836214Y-79108928D01*
X150569547Y-79108928D01*
X150569547Y-79261309D01*
X150912404Y-78766071D02*
X150112404Y-78766071D01*
X150912404Y-78308928D01*
X150112404Y-78308928D01*
X150912404Y-77927976D02*
X150112404Y-77927976D01*
X150112404Y-77737500D01*
X150150500Y-77623214D01*
X150226690Y-77547023D01*
X150302880Y-77508928D01*
X150455261Y-77470833D01*
X150569547Y-77470833D01*
X150721928Y-77508928D01*
X150798119Y-77547023D01*
X150874309Y-77623214D01*
X150912404Y-77737500D01*
X150912404Y-77927976D01*
X142536404Y-79527976D02*
X142536404Y-79032738D01*
X142841166Y-79299404D01*
X142841166Y-79185119D01*
X142879261Y-79108928D01*
X142917357Y-79070833D01*
X142993547Y-79032738D01*
X143184023Y-79032738D01*
X143260214Y-79070833D01*
X143298309Y-79108928D01*
X143336404Y-79185119D01*
X143336404Y-79413690D01*
X143298309Y-79489880D01*
X143260214Y-79527976D01*
X142536404Y-78804166D02*
X143336404Y-78537500D01*
X142536404Y-78270833D01*
X142536404Y-78080357D02*
X142536404Y-77585119D01*
X142841166Y-77851785D01*
X142841166Y-77737500D01*
X142879261Y-77661309D01*
X142917357Y-77623214D01*
X142993547Y-77585119D01*
X143184023Y-77585119D01*
X143260214Y-77623214D01*
X143298309Y-77661309D01*
X143336404Y-77737500D01*
X143336404Y-77966071D01*
X143298309Y-78042261D01*
X143260214Y-78080357D01*
X144319642Y-79832738D02*
X144319642Y-79223214D01*
X144319642Y-78842261D02*
X144319642Y-78232738D01*
X144319642Y-77851785D02*
X144319642Y-77242261D01*
X145150500Y-79147023D02*
X145112404Y-79223214D01*
X145112404Y-79337500D01*
X145150500Y-79451785D01*
X145226690Y-79527976D01*
X145302880Y-79566071D01*
X145455261Y-79604166D01*
X145569547Y-79604166D01*
X145721928Y-79566071D01*
X145798119Y-79527976D01*
X145874309Y-79451785D01*
X145912404Y-79337500D01*
X145912404Y-79261309D01*
X145874309Y-79147023D01*
X145836214Y-79108928D01*
X145569547Y-79108928D01*
X145569547Y-79261309D01*
X145912404Y-78766071D02*
X145112404Y-78766071D01*
X145912404Y-78308928D01*
X145112404Y-78308928D01*
X145912404Y-77927976D02*
X145112404Y-77927976D01*
X145112404Y-77737500D01*
X145150500Y-77623214D01*
X145226690Y-77547023D01*
X145302880Y-77508928D01*
X145455261Y-77470833D01*
X145569547Y-77470833D01*
X145721928Y-77508928D01*
X145798119Y-77547023D01*
X145874309Y-77623214D01*
X145912404Y-77737500D01*
X145912404Y-77927976D01*
X140800595Y-68399404D02*
X140800595Y-67599404D01*
X141105357Y-67599404D01*
X141181547Y-67637500D01*
X141219642Y-67675595D01*
X141257738Y-67751785D01*
X141257738Y-67866071D01*
X141219642Y-67942261D01*
X141181547Y-67980357D01*
X141105357Y-68018452D01*
X140800595Y-68018452D01*
X141600595Y-68399404D02*
X141600595Y-67599404D01*
X141981547Y-68399404D02*
X141981547Y-67599404D01*
X142438690Y-68399404D01*
X142438690Y-67599404D01*
X143238690Y-68399404D02*
X142781547Y-68399404D01*
X143010119Y-68399404D02*
X143010119Y-67599404D01*
X142933928Y-67713690D01*
X142857738Y-67789880D01*
X142781547Y-67827976D01*
X143772023Y-68666071D02*
X143772023Y-67523214D01*
X144343452Y-68399404D02*
X144343452Y-67599404D01*
X144648214Y-67599404D01*
X144724404Y-67637500D01*
X144762500Y-67675595D01*
X144800595Y-67751785D01*
X144800595Y-67866071D01*
X144762500Y-67942261D01*
X144724404Y-67980357D01*
X144648214Y-68018452D01*
X144343452Y-68018452D01*
X145143452Y-68399404D02*
X145143452Y-67599404D01*
X145524404Y-68399404D02*
X145524404Y-67599404D01*
X145981547Y-68399404D01*
X145981547Y-67599404D01*
X146324404Y-67675595D02*
X146362500Y-67637500D01*
X146438690Y-67599404D01*
X146629166Y-67599404D01*
X146705357Y-67637500D01*
X146743452Y-67675595D01*
X146781547Y-67751785D01*
X146781547Y-67827976D01*
X146743452Y-67942261D01*
X146286309Y-68399404D01*
X146781547Y-68399404D01*
X147314880Y-68666071D02*
X147314880Y-67523214D01*
X147848214Y-68361309D02*
X147962500Y-68399404D01*
X148152976Y-68399404D01*
X148229166Y-68361309D01*
X148267261Y-68323214D01*
X148305357Y-68247023D01*
X148305357Y-68170833D01*
X148267261Y-68094642D01*
X148229166Y-68056547D01*
X148152976Y-68018452D01*
X148000595Y-67980357D01*
X147924404Y-67942261D01*
X147886309Y-67904166D01*
X147848214Y-67827976D01*
X147848214Y-67751785D01*
X147886309Y-67675595D01*
X147924404Y-67637500D01*
X148000595Y-67599404D01*
X148191071Y-67599404D01*
X148305357Y-67637500D01*
X149105357Y-68323214D02*
X149067261Y-68361309D01*
X148952976Y-68399404D01*
X148876785Y-68399404D01*
X148762500Y-68361309D01*
X148686309Y-68285119D01*
X148648214Y-68208928D01*
X148610119Y-68056547D01*
X148610119Y-67942261D01*
X148648214Y-67789880D01*
X148686309Y-67713690D01*
X148762500Y-67637500D01*
X148876785Y-67599404D01*
X148952976Y-67599404D01*
X149067261Y-67637500D01*
X149105357Y-67675595D01*
X149829166Y-68399404D02*
X149448214Y-68399404D01*
X149448214Y-67599404D01*
X150286309Y-68666071D02*
X150286309Y-67523214D01*
X150819642Y-68361309D02*
X150933928Y-68399404D01*
X151124404Y-68399404D01*
X151200595Y-68361309D01*
X151238690Y-68323214D01*
X151276785Y-68247023D01*
X151276785Y-68170833D01*
X151238690Y-68094642D01*
X151200595Y-68056547D01*
X151124404Y-68018452D01*
X150972023Y-67980357D01*
X150895833Y-67942261D01*
X150857738Y-67904166D01*
X150819642Y-67827976D01*
X150819642Y-67751785D01*
X150857738Y-67675595D01*
X150895833Y-67637500D01*
X150972023Y-67599404D01*
X151162500Y-67599404D01*
X151276785Y-67637500D01*
X151619642Y-68399404D02*
X151619642Y-67599404D01*
X151810119Y-67599404D01*
X151924404Y-67637500D01*
X152000595Y-67713690D01*
X152038690Y-67789880D01*
X152076785Y-67942261D01*
X152076785Y-68056547D01*
X152038690Y-68208928D01*
X152000595Y-68285119D01*
X151924404Y-68361309D01*
X151810119Y-68399404D01*
X151619642Y-68399404D01*
X152381547Y-68170833D02*
X152762500Y-68170833D01*
X152305357Y-68399404D02*
X152572023Y-67599404D01*
X152838690Y-68399404D01*
X151329166Y-103323214D02*
X151291071Y-103361309D01*
X151176785Y-103399404D01*
X151100595Y-103399404D01*
X150986309Y-103361309D01*
X150910119Y-103285119D01*
X150872023Y-103208928D01*
X150833928Y-103056547D01*
X150833928Y-102942261D01*
X150872023Y-102789880D01*
X150910119Y-102713690D01*
X150986309Y-102637500D01*
X151100595Y-102599404D01*
X151176785Y-102599404D01*
X151291071Y-102637500D01*
X151329166Y-102675595D01*
X151786309Y-102942261D02*
X151710119Y-102904166D01*
X151672023Y-102866071D01*
X151633928Y-102789880D01*
X151633928Y-102751785D01*
X151672023Y-102675595D01*
X151710119Y-102637500D01*
X151786309Y-102599404D01*
X151938690Y-102599404D01*
X152014880Y-102637500D01*
X152052976Y-102675595D01*
X152091071Y-102751785D01*
X152091071Y-102789880D01*
X152052976Y-102866071D01*
X152014880Y-102904166D01*
X151938690Y-102942261D01*
X151786309Y-102942261D01*
X151710119Y-102980357D01*
X151672023Y-103018452D01*
X151633928Y-103094642D01*
X151633928Y-103247023D01*
X151672023Y-103323214D01*
X151710119Y-103361309D01*
X151786309Y-103399404D01*
X151938690Y-103399404D01*
X152014880Y-103361309D01*
X152052976Y-103323214D01*
X152091071Y-103247023D01*
X152091071Y-103094642D01*
X152052976Y-103018452D01*
X152014880Y-102980357D01*
X151938690Y-102942261D01*
X129624404Y-110551785D02*
X129243452Y-110818452D01*
X129624404Y-111008928D02*
X128824404Y-111008928D01*
X128824404Y-110704166D01*
X128862500Y-110627976D01*
X128900595Y-110589880D01*
X128976785Y-110551785D01*
X129091071Y-110551785D01*
X129167261Y-110589880D01*
X129205357Y-110627976D01*
X129243452Y-110704166D01*
X129243452Y-111008928D01*
X129624404Y-109789880D02*
X129624404Y-110247023D01*
X129624404Y-110018452D02*
X128824404Y-110018452D01*
X128938690Y-110094642D01*
X129014880Y-110170833D01*
X129052976Y-110247023D01*
X129624404Y-109408928D02*
X129624404Y-109256547D01*
X129586309Y-109180357D01*
X129548214Y-109142261D01*
X129433928Y-109066071D01*
X129281547Y-109027976D01*
X128976785Y-109027976D01*
X128900595Y-109066071D01*
X128862500Y-109104166D01*
X128824404Y-109180357D01*
X128824404Y-109332738D01*
X128862500Y-109408928D01*
X128900595Y-109447023D01*
X128976785Y-109485119D01*
X129167261Y-109485119D01*
X129243452Y-109447023D01*
X129281547Y-109408928D01*
X129319642Y-109332738D01*
X129319642Y-109180357D01*
X129281547Y-109104166D01*
X129243452Y-109066071D01*
X129167261Y-109027976D01*
X134748214Y-130323214D02*
X134710119Y-130361309D01*
X134595833Y-130399404D01*
X134519642Y-130399404D01*
X134405357Y-130361309D01*
X134329166Y-130285119D01*
X134291071Y-130208928D01*
X134252976Y-130056547D01*
X134252976Y-129942261D01*
X134291071Y-129789880D01*
X134329166Y-129713690D01*
X134405357Y-129637500D01*
X134519642Y-129599404D01*
X134595833Y-129599404D01*
X134710119Y-129637500D01*
X134748214Y-129675595D01*
X135510119Y-130399404D02*
X135052976Y-130399404D01*
X135281547Y-130399404D02*
X135281547Y-129599404D01*
X135205357Y-129713690D01*
X135129166Y-129789880D01*
X135052976Y-129827976D01*
X136005357Y-129599404D02*
X136081547Y-129599404D01*
X136157738Y-129637500D01*
X136195833Y-129675595D01*
X136233928Y-129751785D01*
X136272023Y-129904166D01*
X136272023Y-130094642D01*
X136233928Y-130247023D01*
X136195833Y-130323214D01*
X136157738Y-130361309D01*
X136081547Y-130399404D01*
X136005357Y-130399404D01*
X135929166Y-130361309D01*
X135891071Y-130323214D01*
X135852976Y-130247023D01*
X135814880Y-130094642D01*
X135814880Y-129904166D01*
X135852976Y-129751785D01*
X135891071Y-129675595D01*
X135929166Y-129637500D01*
X136005357Y-129599404D01*
X142329166Y-93399404D02*
X142062500Y-93018452D01*
X141872023Y-93399404D02*
X141872023Y-92599404D01*
X142176785Y-92599404D01*
X142252976Y-92637500D01*
X142291071Y-92675595D01*
X142329166Y-92751785D01*
X142329166Y-92866071D01*
X142291071Y-92942261D01*
X142252976Y-92980357D01*
X142176785Y-93018452D01*
X141872023Y-93018452D01*
X143052976Y-92599404D02*
X142672023Y-92599404D01*
X142633928Y-92980357D01*
X142672023Y-92942261D01*
X142748214Y-92904166D01*
X142938690Y-92904166D01*
X143014880Y-92942261D01*
X143052976Y-92980357D01*
X143091071Y-93056547D01*
X143091071Y-93247023D01*
X143052976Y-93323214D01*
X143014880Y-93361309D01*
X142938690Y-93399404D01*
X142748214Y-93399404D01*
X142672023Y-93361309D01*
X142633928Y-93323214D01*
X151148214Y-101399404D02*
X150881547Y-101018452D01*
X150691071Y-101399404D02*
X150691071Y-100599404D01*
X150995833Y-100599404D01*
X151072023Y-100637500D01*
X151110119Y-100675595D01*
X151148214Y-100751785D01*
X151148214Y-100866071D01*
X151110119Y-100942261D01*
X151072023Y-100980357D01*
X150995833Y-101018452D01*
X150691071Y-101018452D01*
X151910119Y-101399404D02*
X151452976Y-101399404D01*
X151681547Y-101399404D02*
X151681547Y-100599404D01*
X151605357Y-100713690D01*
X151529166Y-100789880D01*
X151452976Y-100827976D01*
X152633928Y-100599404D02*
X152252976Y-100599404D01*
X152214880Y-100980357D01*
X152252976Y-100942261D01*
X152329166Y-100904166D01*
X152519642Y-100904166D01*
X152595833Y-100942261D01*
X152633928Y-100980357D01*
X152672023Y-101056547D01*
X152672023Y-101247023D01*
X152633928Y-101323214D01*
X152595833Y-101361309D01*
X152519642Y-101399404D01*
X152329166Y-101399404D01*
X152252976Y-101361309D01*
X152214880Y-101323214D01*
X142329166Y-95399404D02*
X142062500Y-95018452D01*
X141872023Y-95399404D02*
X141872023Y-94599404D01*
X142176785Y-94599404D01*
X142252976Y-94637500D01*
X142291071Y-94675595D01*
X142329166Y-94751785D01*
X142329166Y-94866071D01*
X142291071Y-94942261D01*
X142252976Y-94980357D01*
X142176785Y-95018452D01*
X141872023Y-95018452D01*
X143014880Y-94599404D02*
X142862500Y-94599404D01*
X142786309Y-94637500D01*
X142748214Y-94675595D01*
X142672023Y-94789880D01*
X142633928Y-94942261D01*
X142633928Y-95247023D01*
X142672023Y-95323214D01*
X142710119Y-95361309D01*
X142786309Y-95399404D01*
X142938690Y-95399404D01*
X143014880Y-95361309D01*
X143052976Y-95323214D01*
X143091071Y-95247023D01*
X143091071Y-95056547D01*
X143052976Y-94980357D01*
X143014880Y-94942261D01*
X142938690Y-94904166D01*
X142786309Y-94904166D01*
X142710119Y-94942261D01*
X142672023Y-94980357D01*
X142633928Y-95056547D01*
X152879166Y-72799404D02*
X152612500Y-72418452D01*
X152422023Y-72799404D02*
X152422023Y-71999404D01*
X152726785Y-71999404D01*
X152802976Y-72037500D01*
X152841071Y-72075595D01*
X152879166Y-72151785D01*
X152879166Y-72266071D01*
X152841071Y-72342261D01*
X152802976Y-72380357D01*
X152726785Y-72418452D01*
X152422023Y-72418452D01*
X153260119Y-72799404D02*
X153412500Y-72799404D01*
X153488690Y-72761309D01*
X153526785Y-72723214D01*
X153602976Y-72608928D01*
X153641071Y-72456547D01*
X153641071Y-72151785D01*
X153602976Y-72075595D01*
X153564880Y-72037500D01*
X153488690Y-71999404D01*
X153336309Y-71999404D01*
X153260119Y-72037500D01*
X153222023Y-72075595D01*
X153183928Y-72151785D01*
X153183928Y-72342261D01*
X153222023Y-72418452D01*
X153260119Y-72456547D01*
X153336309Y-72494642D01*
X153488690Y-72494642D01*
X153564880Y-72456547D01*
X153602976Y-72418452D01*
X153641071Y-72342261D01*
X153748214Y-84570833D02*
X153786309Y-84608928D01*
X153824404Y-84723214D01*
X153824404Y-84799404D01*
X153786309Y-84913690D01*
X153710119Y-84989880D01*
X153633928Y-85027976D01*
X153481547Y-85066071D01*
X153367261Y-85066071D01*
X153214880Y-85027976D01*
X153138690Y-84989880D01*
X153062500Y-84913690D01*
X153024404Y-84799404D01*
X153024404Y-84723214D01*
X153062500Y-84608928D01*
X153100595Y-84570833D01*
X153024404Y-83885119D02*
X153024404Y-84037500D01*
X153062500Y-84113690D01*
X153100595Y-84151785D01*
X153214880Y-84227976D01*
X153367261Y-84266071D01*
X153672023Y-84266071D01*
X153748214Y-84227976D01*
X153786309Y-84189880D01*
X153824404Y-84113690D01*
X153824404Y-83961309D01*
X153786309Y-83885119D01*
X153748214Y-83847023D01*
X153672023Y-83808928D01*
X153481547Y-83808928D01*
X153405357Y-83847023D01*
X153367261Y-83885119D01*
X153329166Y-83961309D01*
X153329166Y-84113690D01*
X153367261Y-84189880D01*
X153405357Y-84227976D01*
X153481547Y-84266071D01*
X142329166Y-85399404D02*
X142062500Y-85018452D01*
X141872023Y-85399404D02*
X141872023Y-84599404D01*
X142176785Y-84599404D01*
X142252976Y-84637500D01*
X142291071Y-84675595D01*
X142329166Y-84751785D01*
X142329166Y-84866071D01*
X142291071Y-84942261D01*
X142252976Y-84980357D01*
X142176785Y-85018452D01*
X141872023Y-85018452D01*
X143014880Y-84866071D02*
X143014880Y-85399404D01*
X142824404Y-84561309D02*
X142633928Y-85132738D01*
X143129166Y-85132738D01*
X146897976Y-107099404D02*
X146897976Y-107747023D01*
X146936071Y-107823214D01*
X146974166Y-107861309D01*
X147050357Y-107899404D01*
X147202738Y-107899404D01*
X147278928Y-107861309D01*
X147317023Y-107823214D01*
X147355119Y-107747023D01*
X147355119Y-107099404D01*
X148155119Y-107899404D02*
X147697976Y-107899404D01*
X147926547Y-107899404D02*
X147926547Y-107099404D01*
X147850357Y-107213690D01*
X147774166Y-107289880D01*
X147697976Y-107327976D01*
X151148214Y-89399404D02*
X150881547Y-89018452D01*
X150691071Y-89399404D02*
X150691071Y-88599404D01*
X150995833Y-88599404D01*
X151072023Y-88637500D01*
X151110119Y-88675595D01*
X151148214Y-88751785D01*
X151148214Y-88866071D01*
X151110119Y-88942261D01*
X151072023Y-88980357D01*
X150995833Y-89018452D01*
X150691071Y-89018452D01*
X151910119Y-89399404D02*
X151452976Y-89399404D01*
X151681547Y-89399404D02*
X151681547Y-88599404D01*
X151605357Y-88713690D01*
X151529166Y-88789880D01*
X151452976Y-88827976D01*
X152595833Y-88866071D02*
X152595833Y-89399404D01*
X152405357Y-88561309D02*
X152214880Y-89132738D01*
X152710119Y-89132738D01*
X142329166Y-101399404D02*
X142062500Y-101018452D01*
X141872023Y-101399404D02*
X141872023Y-100599404D01*
X142176785Y-100599404D01*
X142252976Y-100637500D01*
X142291071Y-100675595D01*
X142329166Y-100751785D01*
X142329166Y-100866071D01*
X142291071Y-100942261D01*
X142252976Y-100980357D01*
X142176785Y-101018452D01*
X141872023Y-101018452D01*
X142595833Y-100599404D02*
X143129166Y-100599404D01*
X142786309Y-101399404D01*
X152148214Y-82999404D02*
X151881547Y-82618452D01*
X151691071Y-82999404D02*
X151691071Y-82199404D01*
X151995833Y-82199404D01*
X152072023Y-82237500D01*
X152110119Y-82275595D01*
X152148214Y-82351785D01*
X152148214Y-82466071D01*
X152110119Y-82542261D01*
X152072023Y-82580357D01*
X151995833Y-82618452D01*
X151691071Y-82618452D01*
X152910119Y-82999404D02*
X152452976Y-82999404D01*
X152681547Y-82999404D02*
X152681547Y-82199404D01*
X152605357Y-82313690D01*
X152529166Y-82389880D01*
X152452976Y-82427976D01*
X153672023Y-82999404D02*
X153214880Y-82999404D01*
X153443452Y-82999404D02*
X153443452Y-82199404D01*
X153367261Y-82313690D01*
X153291071Y-82389880D01*
X153214880Y-82427976D01*
X163152976Y-95099404D02*
X163610119Y-95099404D01*
X163381547Y-95899404D02*
X163381547Y-95099404D01*
X163800595Y-95099404D02*
X164333928Y-95099404D01*
X163991071Y-95899404D01*
X130152976Y-85099404D02*
X130610119Y-85099404D01*
X130381547Y-85899404D02*
X130381547Y-85099404D01*
X130838690Y-85175595D02*
X130876785Y-85137500D01*
X130952976Y-85099404D01*
X131143452Y-85099404D01*
X131219642Y-85137500D01*
X131257738Y-85175595D01*
X131295833Y-85251785D01*
X131295833Y-85327976D01*
X131257738Y-85442261D01*
X130800595Y-85899404D01*
X131295833Y-85899404D01*
X163152976Y-75099404D02*
X163610119Y-75099404D01*
X163381547Y-75899404D02*
X163381547Y-75099404D01*
X164257738Y-75099404D02*
X163876785Y-75099404D01*
X163838690Y-75480357D01*
X163876785Y-75442261D01*
X163952976Y-75404166D01*
X164143452Y-75404166D01*
X164219642Y-75442261D01*
X164257738Y-75480357D01*
X164295833Y-75556547D01*
X164295833Y-75747023D01*
X164257738Y-75823214D01*
X164219642Y-75861309D01*
X164143452Y-75899404D01*
X163952976Y-75899404D01*
X163876785Y-75861309D01*
X163838690Y-75823214D01*
X160348214Y-114399404D02*
X160081547Y-114018452D01*
X159891071Y-114399404D02*
X159891071Y-113599404D01*
X160195833Y-113599404D01*
X160272023Y-113637500D01*
X160310119Y-113675595D01*
X160348214Y-113751785D01*
X160348214Y-113866071D01*
X160310119Y-113942261D01*
X160272023Y-113980357D01*
X160195833Y-114018452D01*
X159891071Y-114018452D01*
X160652976Y-113675595D02*
X160691071Y-113637500D01*
X160767261Y-113599404D01*
X160957738Y-113599404D01*
X161033928Y-113637500D01*
X161072023Y-113675595D01*
X161110119Y-113751785D01*
X161110119Y-113827976D01*
X161072023Y-113942261D01*
X160614880Y-114399404D01*
X161110119Y-114399404D01*
X161605357Y-113599404D02*
X161681547Y-113599404D01*
X161757738Y-113637500D01*
X161795833Y-113675595D01*
X161833928Y-113751785D01*
X161872023Y-113904166D01*
X161872023Y-114094642D01*
X161833928Y-114247023D01*
X161795833Y-114323214D01*
X161757738Y-114361309D01*
X161681547Y-114399404D01*
X161605357Y-114399404D01*
X161529166Y-114361309D01*
X161491071Y-114323214D01*
X161452976Y-114247023D01*
X161414880Y-114094642D01*
X161414880Y-113904166D01*
X161452976Y-113751785D01*
X161491071Y-113675595D01*
X161529166Y-113637500D01*
X161605357Y-113599404D01*
X153748214Y-77899404D02*
X153481547Y-77518452D01*
X153291071Y-77899404D02*
X153291071Y-77099404D01*
X153595833Y-77099404D01*
X153672023Y-77137500D01*
X153710119Y-77175595D01*
X153748214Y-77251785D01*
X153748214Y-77366071D01*
X153710119Y-77442261D01*
X153672023Y-77480357D01*
X153595833Y-77518452D01*
X153291071Y-77518452D01*
X154510119Y-77899404D02*
X154052976Y-77899404D01*
X154281547Y-77899404D02*
X154281547Y-77099404D01*
X154205357Y-77213690D01*
X154129166Y-77289880D01*
X154052976Y-77327976D01*
X154814880Y-77175595D02*
X154852976Y-77137500D01*
X154929166Y-77099404D01*
X155119642Y-77099404D01*
X155195833Y-77137500D01*
X155233928Y-77175595D01*
X155272023Y-77251785D01*
X155272023Y-77327976D01*
X155233928Y-77442261D01*
X154776785Y-77899404D01*
X155272023Y-77899404D01*
X141348214Y-89970833D02*
X141386309Y-90008928D01*
X141424404Y-90123214D01*
X141424404Y-90199404D01*
X141386309Y-90313690D01*
X141310119Y-90389880D01*
X141233928Y-90427976D01*
X141081547Y-90466071D01*
X140967261Y-90466071D01*
X140814880Y-90427976D01*
X140738690Y-90389880D01*
X140662500Y-90313690D01*
X140624404Y-90199404D01*
X140624404Y-90123214D01*
X140662500Y-90008928D01*
X140700595Y-89970833D01*
X140624404Y-89704166D02*
X140624404Y-89208928D01*
X140929166Y-89475595D01*
X140929166Y-89361309D01*
X140967261Y-89285119D01*
X141005357Y-89247023D01*
X141081547Y-89208928D01*
X141272023Y-89208928D01*
X141348214Y-89247023D01*
X141386309Y-89285119D01*
X141424404Y-89361309D01*
X141424404Y-89589880D01*
X141386309Y-89666071D01*
X141348214Y-89704166D01*
X141548214Y-79909581D02*
X141586309Y-79947676D01*
X141624404Y-80061962D01*
X141624404Y-80138152D01*
X141586309Y-80252438D01*
X141510119Y-80328628D01*
X141433928Y-80366724D01*
X141281547Y-80404819D01*
X141167261Y-80404819D01*
X141014880Y-80366724D01*
X140938690Y-80328628D01*
X140862500Y-80252438D01*
X140824404Y-80138152D01*
X140824404Y-80061962D01*
X140862500Y-79947676D01*
X140900595Y-79909581D01*
X140900595Y-79604819D02*
X140862500Y-79566724D01*
X140824404Y-79490533D01*
X140824404Y-79300057D01*
X140862500Y-79223867D01*
X140900595Y-79185771D01*
X140976785Y-79147676D01*
X141052976Y-79147676D01*
X141167261Y-79185771D01*
X141624404Y-79642914D01*
X141624404Y-79147676D01*
X131195833Y-116361309D02*
X131310119Y-116399404D01*
X131500595Y-116399404D01*
X131576785Y-116361309D01*
X131614880Y-116323214D01*
X131652976Y-116247023D01*
X131652976Y-116170833D01*
X131614880Y-116094642D01*
X131576785Y-116056547D01*
X131500595Y-116018452D01*
X131348214Y-115980357D01*
X131272023Y-115942261D01*
X131233928Y-115904166D01*
X131195833Y-115827976D01*
X131195833Y-115751785D01*
X131233928Y-115675595D01*
X131272023Y-115637500D01*
X131348214Y-115599404D01*
X131538690Y-115599404D01*
X131652976Y-115637500D01*
X131919642Y-115599404D02*
X132110119Y-116399404D01*
X132262500Y-115827976D01*
X132414880Y-116399404D01*
X132605357Y-115599404D01*
X133329166Y-116399404D02*
X132872023Y-116399404D01*
X133100595Y-116399404D02*
X133100595Y-115599404D01*
X133024404Y-115713690D01*
X132948214Y-115789880D01*
X132872023Y-115827976D01*
X153548214Y-94370833D02*
X153586309Y-94408928D01*
X153624404Y-94523214D01*
X153624404Y-94599404D01*
X153586309Y-94713690D01*
X153510119Y-94789880D01*
X153433928Y-94827976D01*
X153281547Y-94866071D01*
X153167261Y-94866071D01*
X153014880Y-94827976D01*
X152938690Y-94789880D01*
X152862500Y-94713690D01*
X152824404Y-94599404D01*
X152824404Y-94523214D01*
X152862500Y-94408928D01*
X152900595Y-94370833D01*
X152824404Y-94104166D02*
X152824404Y-93570833D01*
X153624404Y-93913690D01*
X161195833Y-116361309D02*
X161310119Y-116399404D01*
X161500595Y-116399404D01*
X161576785Y-116361309D01*
X161614880Y-116323214D01*
X161652976Y-116247023D01*
X161652976Y-116170833D01*
X161614880Y-116094642D01*
X161576785Y-116056547D01*
X161500595Y-116018452D01*
X161348214Y-115980357D01*
X161272023Y-115942261D01*
X161233928Y-115904166D01*
X161195833Y-115827976D01*
X161195833Y-115751785D01*
X161233928Y-115675595D01*
X161272023Y-115637500D01*
X161348214Y-115599404D01*
X161538690Y-115599404D01*
X161652976Y-115637500D01*
X161919642Y-115599404D02*
X162110119Y-116399404D01*
X162262500Y-115827976D01*
X162414880Y-116399404D01*
X162605357Y-115599404D01*
X162872023Y-115675595D02*
X162910119Y-115637500D01*
X162986309Y-115599404D01*
X163176785Y-115599404D01*
X163252976Y-115637500D01*
X163291071Y-115675595D01*
X163329166Y-115751785D01*
X163329166Y-115827976D01*
X163291071Y-115942261D01*
X162833928Y-116399404D01*
X163329166Y-116399404D01*
X139129166Y-68723214D02*
X139091071Y-68761309D01*
X138976785Y-68799404D01*
X138900595Y-68799404D01*
X138786309Y-68761309D01*
X138710119Y-68685119D01*
X138672023Y-68608928D01*
X138633928Y-68456547D01*
X138633928Y-68342261D01*
X138672023Y-68189880D01*
X138710119Y-68113690D01*
X138786309Y-68037500D01*
X138900595Y-67999404D01*
X138976785Y-67999404D01*
X139091071Y-68037500D01*
X139129166Y-68075595D01*
X139891071Y-68799404D02*
X139433928Y-68799404D01*
X139662500Y-68799404D02*
X139662500Y-67999404D01*
X139586309Y-68113690D01*
X139510119Y-68189880D01*
X139433928Y-68227976D01*
X163152976Y-105099404D02*
X163610119Y-105099404D01*
X163381547Y-105899404D02*
X163381547Y-105099404D01*
X163991071Y-105442261D02*
X163914880Y-105404166D01*
X163876785Y-105366071D01*
X163838690Y-105289880D01*
X163838690Y-105251785D01*
X163876785Y-105175595D01*
X163914880Y-105137500D01*
X163991071Y-105099404D01*
X164143452Y-105099404D01*
X164219642Y-105137500D01*
X164257738Y-105175595D01*
X164295833Y-105251785D01*
X164295833Y-105289880D01*
X164257738Y-105366071D01*
X164219642Y-105404166D01*
X164143452Y-105442261D01*
X163991071Y-105442261D01*
X163914880Y-105480357D01*
X163876785Y-105518452D01*
X163838690Y-105594642D01*
X163838690Y-105747023D01*
X163876785Y-105823214D01*
X163914880Y-105861309D01*
X163991071Y-105899404D01*
X164143452Y-105899404D01*
X164219642Y-105861309D01*
X164257738Y-105823214D01*
X164295833Y-105747023D01*
X164295833Y-105594642D01*
X164257738Y-105518452D01*
X164219642Y-105480357D01*
X164143452Y-105442261D01*
X145386309Y-95075595D02*
X145310119Y-95037500D01*
X145233928Y-94961309D01*
X145119642Y-94847023D01*
X145043452Y-94808928D01*
X144967261Y-94808928D01*
X145005357Y-94999404D02*
X144929166Y-94961309D01*
X144852976Y-94885119D01*
X144814880Y-94732738D01*
X144814880Y-94466071D01*
X144852976Y-94313690D01*
X144929166Y-94237500D01*
X145005357Y-94199404D01*
X145157738Y-94199404D01*
X145233928Y-94237500D01*
X145310119Y-94313690D01*
X145348214Y-94466071D01*
X145348214Y-94732738D01*
X145310119Y-94885119D01*
X145233928Y-94961309D01*
X145157738Y-94999404D01*
X145005357Y-94999404D01*
X146110119Y-94999404D02*
X145652976Y-94999404D01*
X145881547Y-94999404D02*
X145881547Y-94199404D01*
X145805357Y-94313690D01*
X145729166Y-94389880D01*
X145652976Y-94427976D01*
X148748214Y-82899404D02*
X148481547Y-82518452D01*
X148291071Y-82899404D02*
X148291071Y-82099404D01*
X148595833Y-82099404D01*
X148672023Y-82137500D01*
X148710119Y-82175595D01*
X148748214Y-82251785D01*
X148748214Y-82366071D01*
X148710119Y-82442261D01*
X148672023Y-82480357D01*
X148595833Y-82518452D01*
X148291071Y-82518452D01*
X149510119Y-82899404D02*
X149052976Y-82899404D01*
X149281547Y-82899404D02*
X149281547Y-82099404D01*
X149205357Y-82213690D01*
X149129166Y-82289880D01*
X149052976Y-82327976D01*
X149776785Y-82099404D02*
X150310119Y-82099404D01*
X149967261Y-82899404D01*
X151148214Y-99599404D02*
X150881547Y-99218452D01*
X150691071Y-99599404D02*
X150691071Y-98799404D01*
X150995833Y-98799404D01*
X151072023Y-98837500D01*
X151110119Y-98875595D01*
X151148214Y-98951785D01*
X151148214Y-99066071D01*
X151110119Y-99142261D01*
X151072023Y-99180357D01*
X150995833Y-99218452D01*
X150691071Y-99218452D01*
X151910119Y-99599404D02*
X151452976Y-99599404D01*
X151681547Y-99599404D02*
X151681547Y-98799404D01*
X151605357Y-98913690D01*
X151529166Y-98989880D01*
X151452976Y-99027976D01*
X152595833Y-98799404D02*
X152443452Y-98799404D01*
X152367261Y-98837500D01*
X152329166Y-98875595D01*
X152252976Y-98989880D01*
X152214880Y-99142261D01*
X152214880Y-99447023D01*
X152252976Y-99523214D01*
X152291071Y-99561309D01*
X152367261Y-99599404D01*
X152519642Y-99599404D01*
X152595833Y-99561309D01*
X152633928Y-99523214D01*
X152672023Y-99447023D01*
X152672023Y-99256547D01*
X152633928Y-99180357D01*
X152595833Y-99142261D01*
X152519642Y-99104166D01*
X152367261Y-99104166D01*
X152291071Y-99142261D01*
X152252976Y-99180357D01*
X152214880Y-99256547D01*
X130152976Y-105099404D02*
X130610119Y-105099404D01*
X130381547Y-105899404D02*
X130381547Y-105099404D01*
X131219642Y-105366071D02*
X131219642Y-105899404D01*
X131029166Y-105061309D02*
X130838690Y-105632738D01*
X131333928Y-105632738D01*
X163152976Y-85099404D02*
X163610119Y-85099404D01*
X163381547Y-85899404D02*
X163381547Y-85099404D01*
X164219642Y-85099404D02*
X164067261Y-85099404D01*
X163991071Y-85137500D01*
X163952976Y-85175595D01*
X163876785Y-85289880D01*
X163838690Y-85442261D01*
X163838690Y-85747023D01*
X163876785Y-85823214D01*
X163914880Y-85861309D01*
X163991071Y-85899404D01*
X164143452Y-85899404D01*
X164219642Y-85861309D01*
X164257738Y-85823214D01*
X164295833Y-85747023D01*
X164295833Y-85556547D01*
X164257738Y-85480357D01*
X164219642Y-85442261D01*
X164143452Y-85404166D01*
X163991071Y-85404166D01*
X163914880Y-85442261D01*
X163876785Y-85480357D01*
X163838690Y-85556547D01*
X151148214Y-91599404D02*
X150881547Y-91218452D01*
X150691071Y-91599404D02*
X150691071Y-90799404D01*
X150995833Y-90799404D01*
X151072023Y-90837500D01*
X151110119Y-90875595D01*
X151148214Y-90951785D01*
X151148214Y-91066071D01*
X151110119Y-91142261D01*
X151072023Y-91180357D01*
X150995833Y-91218452D01*
X150691071Y-91218452D01*
X151910119Y-91599404D02*
X151452976Y-91599404D01*
X151681547Y-91599404D02*
X151681547Y-90799404D01*
X151605357Y-90913690D01*
X151529166Y-90989880D01*
X151452976Y-91027976D01*
X152176785Y-90799404D02*
X152672023Y-90799404D01*
X152405357Y-91104166D01*
X152519642Y-91104166D01*
X152595833Y-91142261D01*
X152633928Y-91180357D01*
X152672023Y-91256547D01*
X152672023Y-91447023D01*
X152633928Y-91523214D01*
X152595833Y-91561309D01*
X152519642Y-91599404D01*
X152291071Y-91599404D01*
X152214880Y-91561309D01*
X152176785Y-91523214D01*
X140129166Y-77699404D02*
X139862500Y-77318452D01*
X139672023Y-77699404D02*
X139672023Y-76899404D01*
X139976785Y-76899404D01*
X140052976Y-76937500D01*
X140091071Y-76975595D01*
X140129166Y-77051785D01*
X140129166Y-77166071D01*
X140091071Y-77242261D01*
X140052976Y-77280357D01*
X139976785Y-77318452D01*
X139672023Y-77318452D01*
X140433928Y-76975595D02*
X140472023Y-76937500D01*
X140548214Y-76899404D01*
X140738690Y-76899404D01*
X140814880Y-76937500D01*
X140852976Y-76975595D01*
X140891071Y-77051785D01*
X140891071Y-77127976D01*
X140852976Y-77242261D01*
X140395833Y-77699404D01*
X140891071Y-77699404D01*
X147762500Y-74289880D02*
X147762500Y-73289880D01*
X148143452Y-73289880D01*
X148238690Y-73337500D01*
X148286309Y-73385119D01*
X148333928Y-73480357D01*
X148333928Y-73623214D01*
X148286309Y-73718452D01*
X148238690Y-73766071D01*
X148143452Y-73813690D01*
X147762500Y-73813690D01*
X148762500Y-74289880D02*
X148762500Y-73289880D01*
X149238690Y-74289880D02*
X149238690Y-73289880D01*
X149810119Y-74289880D01*
X149810119Y-73289880D01*
X150238690Y-73385119D02*
X150286309Y-73337500D01*
X150381547Y-73289880D01*
X150619642Y-73289880D01*
X150714880Y-73337500D01*
X150762500Y-73385119D01*
X150810119Y-73480357D01*
X150810119Y-73575595D01*
X150762500Y-73718452D01*
X150191071Y-74289880D01*
X150810119Y-74289880D01*
X130152976Y-95099404D02*
X130610119Y-95099404D01*
X130381547Y-95899404D02*
X130381547Y-95099404D01*
X130800595Y-95099404D02*
X131295833Y-95099404D01*
X131029166Y-95404166D01*
X131143452Y-95404166D01*
X131219642Y-95442261D01*
X131257738Y-95480357D01*
X131295833Y-95556547D01*
X131295833Y-95747023D01*
X131257738Y-95823214D01*
X131219642Y-95861309D01*
X131143452Y-95899404D01*
X130914880Y-95899404D01*
X130838690Y-95861309D01*
X130800595Y-95823214D01*
X153898214Y-74570833D02*
X153936309Y-74608928D01*
X153974404Y-74723214D01*
X153974404Y-74799404D01*
X153936309Y-74913690D01*
X153860119Y-74989880D01*
X153783928Y-75027976D01*
X153631547Y-75066071D01*
X153517261Y-75066071D01*
X153364880Y-75027976D01*
X153288690Y-74989880D01*
X153212500Y-74913690D01*
X153174404Y-74799404D01*
X153174404Y-74723214D01*
X153212500Y-74608928D01*
X153250595Y-74570833D01*
X153174404Y-73847023D02*
X153174404Y-74227976D01*
X153555357Y-74266071D01*
X153517261Y-74227976D01*
X153479166Y-74151785D01*
X153479166Y-73961309D01*
X153517261Y-73885119D01*
X153555357Y-73847023D01*
X153631547Y-73808928D01*
X153822023Y-73808928D01*
X153898214Y-73847023D01*
X153936309Y-73885119D01*
X153974404Y-73961309D01*
X153974404Y-74151785D01*
X153936309Y-74227976D01*
X153898214Y-74266071D01*
X130152976Y-75099404D02*
X130610119Y-75099404D01*
X130381547Y-75899404D02*
X130381547Y-75099404D01*
X131295833Y-75899404D02*
X130838690Y-75899404D01*
X131067261Y-75899404D02*
X131067261Y-75099404D01*
X130991071Y-75213690D01*
X130914880Y-75289880D01*
X130838690Y-75327976D01*
X148748214Y-86399404D02*
X148481547Y-86018452D01*
X148291071Y-86399404D02*
X148291071Y-85599404D01*
X148595833Y-85599404D01*
X148672023Y-85637500D01*
X148710119Y-85675595D01*
X148748214Y-85751785D01*
X148748214Y-85866071D01*
X148710119Y-85942261D01*
X148672023Y-85980357D01*
X148595833Y-86018452D01*
X148291071Y-86018452D01*
X149510119Y-86399404D02*
X149052976Y-86399404D01*
X149281547Y-86399404D02*
X149281547Y-85599404D01*
X149205357Y-85713690D01*
X149129166Y-85789880D01*
X149052976Y-85827976D01*
X149967261Y-85942261D02*
X149891071Y-85904166D01*
X149852976Y-85866071D01*
X149814880Y-85789880D01*
X149814880Y-85751785D01*
X149852976Y-85675595D01*
X149891071Y-85637500D01*
X149967261Y-85599404D01*
X150119642Y-85599404D01*
X150195833Y-85637500D01*
X150233928Y-85675595D01*
X150272023Y-85751785D01*
X150272023Y-85789880D01*
X150233928Y-85866071D01*
X150195833Y-85904166D01*
X150119642Y-85942261D01*
X149967261Y-85942261D01*
X149891071Y-85980357D01*
X149852976Y-86018452D01*
X149814880Y-86094642D01*
X149814880Y-86247023D01*
X149852976Y-86323214D01*
X149891071Y-86361309D01*
X149967261Y-86399404D01*
X150119642Y-86399404D01*
X150195833Y-86361309D01*
X150233928Y-86323214D01*
X150272023Y-86247023D01*
X150272023Y-86094642D01*
X150233928Y-86018452D01*
X150195833Y-85980357D01*
X150119642Y-85942261D01*
X140995833Y-70399404D02*
X140995833Y-70970833D01*
X140957738Y-71085119D01*
X140881547Y-71161309D01*
X140767261Y-71199404D01*
X140691071Y-71199404D01*
X141795833Y-71199404D02*
X141338690Y-71199404D01*
X141567261Y-71199404D02*
X141567261Y-70399404D01*
X141491071Y-70513690D01*
X141414880Y-70589880D01*
X141338690Y-70627976D01*
X144890418Y-82823214D02*
X144852323Y-82861309D01*
X144738037Y-82899404D01*
X144661847Y-82899404D01*
X144547561Y-82861309D01*
X144471371Y-82785119D01*
X144433275Y-82708928D01*
X144395180Y-82556547D01*
X144395180Y-82442261D01*
X144433275Y-82289880D01*
X144471371Y-82213690D01*
X144547561Y-82137500D01*
X144661847Y-82099404D01*
X144738037Y-82099404D01*
X144852323Y-82137500D01*
X144890418Y-82175595D01*
X145271371Y-82899404D02*
X145423752Y-82899404D01*
X145499942Y-82861309D01*
X145538037Y-82823214D01*
X145614228Y-82708928D01*
X145652323Y-82556547D01*
X145652323Y-82251785D01*
X145614228Y-82175595D01*
X145576132Y-82137500D01*
X145499942Y-82099404D01*
X145347561Y-82099404D01*
X145271371Y-82137500D01*
X145233275Y-82175595D01*
X145195180Y-82251785D01*
X145195180Y-82442261D01*
X145233275Y-82518452D01*
X145271371Y-82556547D01*
X145347561Y-82594642D01*
X145499942Y-82594642D01*
X145576132Y-82556547D01*
X145614228Y-82518452D01*
X145652323Y-82442261D01*
X141348214Y-98170833D02*
X141386309Y-98208928D01*
X141424404Y-98323214D01*
X141424404Y-98399404D01*
X141386309Y-98513690D01*
X141310119Y-98589880D01*
X141233928Y-98627976D01*
X141081547Y-98666071D01*
X140967261Y-98666071D01*
X140814880Y-98627976D01*
X140738690Y-98589880D01*
X140662500Y-98513690D01*
X140624404Y-98399404D01*
X140624404Y-98323214D01*
X140662500Y-98208928D01*
X140700595Y-98170833D01*
X140891071Y-97485119D02*
X141424404Y-97485119D01*
X140586309Y-97675595D02*
X141157738Y-97866071D01*
X141157738Y-97370833D01*
X150948214Y-97323214D02*
X150910119Y-97361309D01*
X150795833Y-97399404D01*
X150719642Y-97399404D01*
X150605357Y-97361309D01*
X150529166Y-97285119D01*
X150491071Y-97208928D01*
X150452976Y-97056547D01*
X150452976Y-96942261D01*
X150491071Y-96789880D01*
X150529166Y-96713690D01*
X150605357Y-96637500D01*
X150719642Y-96599404D01*
X150795833Y-96599404D01*
X150910119Y-96637500D01*
X150948214Y-96675595D01*
X151710119Y-97399404D02*
X151252976Y-97399404D01*
X151481547Y-97399404D02*
X151481547Y-96599404D01*
X151405357Y-96713690D01*
X151329166Y-96789880D01*
X151252976Y-96827976D01*
X152472023Y-97399404D02*
X152014880Y-97399404D01*
X152243452Y-97399404D02*
X152243452Y-96599404D01*
X152167261Y-96713690D01*
X152091071Y-96789880D01*
X152014880Y-96827976D01*
X142329166Y-83399404D02*
X142062500Y-83018452D01*
X141872023Y-83399404D02*
X141872023Y-82599404D01*
X142176785Y-82599404D01*
X142252976Y-82637500D01*
X142291071Y-82675595D01*
X142329166Y-82751785D01*
X142329166Y-82866071D01*
X142291071Y-82942261D01*
X142252976Y-82980357D01*
X142176785Y-83018452D01*
X141872023Y-83018452D01*
X142595833Y-82599404D02*
X143091071Y-82599404D01*
X142824404Y-82904166D01*
X142938690Y-82904166D01*
X143014880Y-82942261D01*
X143052976Y-82980357D01*
X143091071Y-83056547D01*
X143091071Y-83247023D01*
X143052976Y-83323214D01*
X143014880Y-83361309D01*
X142938690Y-83399404D01*
X142710119Y-83399404D01*
X142633928Y-83361309D01*
X142595833Y-83323214D01*
X142762500Y-74289880D02*
X142762500Y-73289880D01*
X143143452Y-73289880D01*
X143238690Y-73337500D01*
X143286309Y-73385119D01*
X143333928Y-73480357D01*
X143333928Y-73623214D01*
X143286309Y-73718452D01*
X143238690Y-73766071D01*
X143143452Y-73813690D01*
X142762500Y-73813690D01*
X143762500Y-74289880D02*
X143762500Y-73289880D01*
X144238690Y-74289880D02*
X144238690Y-73289880D01*
X144810119Y-74289880D01*
X144810119Y-73289880D01*
X145810119Y-74289880D02*
X145238690Y-74289880D01*
X145524404Y-74289880D02*
X145524404Y-73289880D01*
X145429166Y-73432738D01*
X145333928Y-73527976D01*
X145238690Y-73575595D01*
X154248214Y-68149404D02*
X153981547Y-67768452D01*
X153791071Y-68149404D02*
X153791071Y-67349404D01*
X154095833Y-67349404D01*
X154172023Y-67387500D01*
X154210119Y-67425595D01*
X154248214Y-67501785D01*
X154248214Y-67616071D01*
X154210119Y-67692261D01*
X154172023Y-67730357D01*
X154095833Y-67768452D01*
X153791071Y-67768452D01*
X155010119Y-68149404D02*
X154552976Y-68149404D01*
X154781547Y-68149404D02*
X154781547Y-67349404D01*
X154705357Y-67463690D01*
X154629166Y-67539880D01*
X154552976Y-67577976D01*
X155505357Y-67349404D02*
X155581547Y-67349404D01*
X155657738Y-67387500D01*
X155695833Y-67425595D01*
X155733928Y-67501785D01*
X155772023Y-67654166D01*
X155772023Y-67844642D01*
X155733928Y-67997023D01*
X155695833Y-68073214D01*
X155657738Y-68111309D01*
X155581547Y-68149404D01*
X155505357Y-68149404D01*
X155429166Y-68111309D01*
X155391071Y-68073214D01*
X155352976Y-67997023D01*
X155314880Y-67844642D01*
X155314880Y-67654166D01*
X155352976Y-67501785D01*
X155391071Y-67425595D01*
X155429166Y-67387500D01*
X155505357Y-67349404D01*
X141129166Y-72699404D02*
X140862500Y-72318452D01*
X140672023Y-72699404D02*
X140672023Y-71899404D01*
X140976785Y-71899404D01*
X141052976Y-71937500D01*
X141091071Y-71975595D01*
X141129166Y-72051785D01*
X141129166Y-72166071D01*
X141091071Y-72242261D01*
X141052976Y-72280357D01*
X140976785Y-72318452D01*
X140672023Y-72318452D01*
X141891071Y-72699404D02*
X141433928Y-72699404D01*
X141662500Y-72699404D02*
X141662500Y-71899404D01*
X141586309Y-72013690D01*
X141510119Y-72089880D01*
X141433928Y-72127976D01*
X142329166Y-103399404D02*
X142062500Y-103018452D01*
X141872023Y-103399404D02*
X141872023Y-102599404D01*
X142176785Y-102599404D01*
X142252976Y-102637500D01*
X142291071Y-102675595D01*
X142329166Y-102751785D01*
X142329166Y-102866071D01*
X142291071Y-102942261D01*
X142252976Y-102980357D01*
X142176785Y-103018452D01*
X141872023Y-103018452D01*
X142786309Y-102942261D02*
X142710119Y-102904166D01*
X142672023Y-102866071D01*
X142633928Y-102789880D01*
X142633928Y-102751785D01*
X142672023Y-102675595D01*
X142710119Y-102637500D01*
X142786309Y-102599404D01*
X142938690Y-102599404D01*
X143014880Y-102637500D01*
X143052976Y-102675595D01*
X143091071Y-102751785D01*
X143091071Y-102789880D01*
X143052976Y-102866071D01*
X143014880Y-102904166D01*
X142938690Y-102942261D01*
X142786309Y-102942261D01*
X142710119Y-102980357D01*
X142672023Y-103018452D01*
X142633928Y-103094642D01*
X142633928Y-103247023D01*
X142672023Y-103323214D01*
X142710119Y-103361309D01*
X142786309Y-103399404D01*
X142938690Y-103399404D01*
X143014880Y-103361309D01*
X143052976Y-103323214D01*
X143091071Y-103247023D01*
X143091071Y-103094642D01*
X143052976Y-103018452D01*
X143014880Y-102980357D01*
X142938690Y-102942261D01*
D12*
X154323752Y-103772500D02*
X153801248Y-103772500D01*
X154323752Y-102302500D02*
X153801248Y-102302500D01*
X130497500Y-112810436D02*
X130497500Y-113264564D01*
X129027500Y-112810436D02*
X129027500Y-113264564D01*
X134527500Y-126976248D02*
X134527500Y-127498752D01*
X135997500Y-126976248D02*
X135997500Y-127498752D01*
X140035436Y-93772500D02*
X140489564Y-93772500D01*
X140035436Y-92302500D02*
X140489564Y-92302500D01*
X154489564Y-101772500D02*
X154035436Y-101772500D01*
X154489564Y-100302500D02*
X154035436Y-100302500D01*
G36*
X162818314Y-107506431D02*
G01*
X162902135Y-107951055D01*
X163211420Y-108078553D01*
X163520706Y-108206051D01*
X163891746Y-107953746D01*
X163995657Y-107883496D01*
X164089587Y-107820772D01*
X164169152Y-107768438D01*
X164229970Y-107729357D01*
X164267657Y-107706393D01*
X164277921Y-107701442D01*
X164296410Y-107714176D01*
X164335920Y-107749382D01*
X164392022Y-107802562D01*
X164460287Y-107869218D01*
X164536286Y-107944854D01*
X164615592Y-108024972D01*
X164693775Y-108105074D01*
X164766407Y-108180664D01*
X164829059Y-108247245D01*
X164877303Y-108300318D01*
X164906710Y-108335387D01*
X164913741Y-108347123D01*
X164903623Y-108368760D01*
X164875259Y-108416162D01*
X164831629Y-108484693D01*
X164775718Y-108569715D01*
X164710506Y-108666593D01*
X164672719Y-108721850D01*
X164603843Y-108822748D01*
X164542640Y-108913799D01*
X164492078Y-108990470D01*
X164455128Y-109048228D01*
X164434758Y-109082543D01*
X164431697Y-109089754D01*
X164438636Y-109110248D01*
X164457551Y-109158013D01*
X164485587Y-109226332D01*
X164519891Y-109308489D01*
X164557609Y-109397770D01*
X164595887Y-109487458D01*
X164631870Y-109570838D01*
X164662706Y-109641194D01*
X164685539Y-109691810D01*
X164697517Y-109715971D01*
X164698224Y-109716922D01*
X164717031Y-109721536D01*
X164767118Y-109731828D01*
X164843293Y-109746787D01*
X164940365Y-109765401D01*
X165053143Y-109786659D01*
X165118942Y-109798918D01*
X165239450Y-109821862D01*
X165348297Y-109843695D01*
X165439976Y-109863222D01*
X165508981Y-109879248D01*
X165549804Y-109890579D01*
X165558011Y-109894174D01*
X165566048Y-109918506D01*
X165572533Y-109973459D01*
X165577470Y-110052608D01*
X165580864Y-110149526D01*
X165582718Y-110257787D01*
X165583038Y-110370965D01*
X165581827Y-110482635D01*
X165579090Y-110586368D01*
X165574831Y-110675741D01*
X165569055Y-110744326D01*
X165561767Y-110785697D01*
X165557395Y-110794310D01*
X165531264Y-110804633D01*
X165475893Y-110819392D01*
X165398607Y-110836852D01*
X165306730Y-110855280D01*
X165274658Y-110861241D01*
X165120024Y-110889566D01*
X164997875Y-110912376D01*
X164904173Y-110930580D01*
X164834884Y-110945083D01*
X164785971Y-110956792D01*
X164753397Y-110966615D01*
X164733128Y-110975456D01*
X164721126Y-110984224D01*
X164719447Y-110985957D01*
X164702684Y-111013871D01*
X164677114Y-111068195D01*
X164645288Y-111142277D01*
X164609760Y-111229465D01*
X164573083Y-111323108D01*
X164537811Y-111416552D01*
X164506496Y-111503147D01*
X164481693Y-111576240D01*
X164465954Y-111629178D01*
X164461832Y-111655311D01*
X164462176Y-111656226D01*
X164476141Y-111677586D01*
X164507822Y-111724584D01*
X164553891Y-111792327D01*
X164611018Y-111875923D01*
X164675873Y-111970482D01*
X164694343Y-111997354D01*
X164760199Y-112094775D01*
X164818150Y-112183663D01*
X164865038Y-112258912D01*
X164897707Y-112315420D01*
X164913000Y-112348081D01*
X164913741Y-112352093D01*
X164900892Y-112373184D01*
X164865388Y-112414964D01*
X164811793Y-112472945D01*
X164744671Y-112542635D01*
X164668587Y-112619545D01*
X164588104Y-112699183D01*
X164507787Y-112777061D01*
X164432199Y-112848686D01*
X164365905Y-112909570D01*
X164313469Y-112955221D01*
X164279455Y-112981150D01*
X164270045Y-112985383D01*
X164248143Y-112975412D01*
X164203300Y-112948520D01*
X164142821Y-112909236D01*
X164096289Y-112877617D01*
X164011975Y-112819598D01*
X163912126Y-112751284D01*
X163811973Y-112683079D01*
X163758127Y-112646575D01*
X163575871Y-112523300D01*
X163422881Y-112606020D01*
X163353182Y-112642259D01*
X163293914Y-112670426D01*
X163253811Y-112686491D01*
X163243603Y-112688726D01*
X163231329Y-112672222D01*
X163207113Y-112625582D01*
X163172763Y-112553109D01*
X163130088Y-112459106D01*
X163080894Y-112347874D01*
X163026990Y-112223715D01*
X162970184Y-112090932D01*
X162912282Y-111953827D01*
X162855093Y-111816702D01*
X162800424Y-111683858D01*
X162750084Y-111559598D01*
X162705880Y-111448225D01*
X162669619Y-111354039D01*
X162643109Y-111281344D01*
X162628158Y-111234441D01*
X162625754Y-111218333D01*
X162644811Y-111197786D01*
X162686536Y-111164433D01*
X162742206Y-111125202D01*
X162746878Y-111122099D01*
X162890764Y-111006923D01*
X163006783Y-110872553D01*
X163093930Y-110723284D01*
X163151199Y-110563413D01*
X163177586Y-110397237D01*
X163172085Y-110229052D01*
X163133690Y-110063155D01*
X163061395Y-109903842D01*
X163040126Y-109868987D01*
X162929496Y-109728237D01*
X162798802Y-109615214D01*
X162652564Y-109530503D01*
X162495308Y-109474694D01*
X162331557Y-109448374D01*
X162165833Y-109452130D01*
X162002662Y-109486550D01*
X161846565Y-109552223D01*
X161702067Y-109649735D01*
X161657369Y-109689313D01*
X161543612Y-109813203D01*
X161460718Y-109943624D01*
X161403856Y-110089815D01*
X161372187Y-110234588D01*
X161364369Y-110397360D01*
X161390438Y-110560940D01*
X161447745Y-110719798D01*
X161533644Y-110868406D01*
X161645486Y-111001235D01*
X161780623Y-111112756D01*
X161798383Y-111124511D01*
X161854650Y-111163008D01*
X161897423Y-111196363D01*
X161917872Y-111217660D01*
X161918169Y-111218333D01*
X161913779Y-111241371D01*
X161896376Y-111293657D01*
X161867768Y-111370890D01*
X161829765Y-111468768D01*
X161784174Y-111582991D01*
X161732803Y-111709258D01*
X161677462Y-111843267D01*
X161619958Y-111980718D01*
X161562101Y-112117308D01*
X161505698Y-112248737D01*
X161452558Y-112370705D01*
X161404490Y-112478909D01*
X161363301Y-112569049D01*
X161330801Y-112636823D01*
X161308797Y-112677930D01*
X161299936Y-112688726D01*
X161272860Y-112680319D01*
X161222197Y-112657772D01*
X161156683Y-112625113D01*
X161120659Y-112606020D01*
X160967668Y-112523300D01*
X160785412Y-112646575D01*
X160692375Y-112709728D01*
X160590515Y-112779227D01*
X160495062Y-112844665D01*
X160447250Y-112877617D01*
X160380005Y-112922773D01*
X160323064Y-112958557D01*
X160283854Y-112980438D01*
X160271119Y-112985063D01*
X160252583Y-112972585D01*
X160211559Y-112937752D01*
X160152025Y-112884178D01*
X160077958Y-112815483D01*
X159993335Y-112735281D01*
X159939815Y-112683786D01*
X159846181Y-112591786D01*
X159765259Y-112509499D01*
X159700323Y-112440445D01*
X159654642Y-112388144D01*
X159631489Y-112356116D01*
X159629268Y-112349616D01*
X159639576Y-112324894D01*
X159668061Y-112274905D01*
X159711563Y-112204712D01*
X159766923Y-112119375D01*
X159830980Y-112023956D01*
X159849197Y-111997354D01*
X159915573Y-111900667D01*
X159975122Y-111813617D01*
X160024516Y-111741095D01*
X160060425Y-111687993D01*
X160079519Y-111659203D01*
X160081364Y-111656226D01*
X160078605Y-111633282D01*
X160063962Y-111582836D01*
X160039987Y-111511541D01*
X160009234Y-111426047D01*
X159974256Y-111333007D01*
X159937607Y-111239074D01*
X159901839Y-111150899D01*
X159869506Y-111075134D01*
X159843162Y-111018431D01*
X159825358Y-110987443D01*
X159824093Y-110985957D01*
X159813206Y-110977101D01*
X159794818Y-110968343D01*
X159764894Y-110958777D01*
X159719397Y-110947496D01*
X159654291Y-110933593D01*
X159565539Y-110916163D01*
X159449107Y-110894298D01*
X159300958Y-110867091D01*
X159268882Y-110861241D01*
X159173814Y-110842874D01*
X159090935Y-110824905D01*
X159027570Y-110809069D01*
X158991042Y-110797100D01*
X158986144Y-110794310D01*
X158978073Y-110769572D01*
X158971513Y-110714290D01*
X158966467Y-110634889D01*
X158962941Y-110537796D01*
X158960939Y-110429438D01*
X158960464Y-110316240D01*
X158961523Y-110204628D01*
X158964118Y-110101029D01*
X158968254Y-110011868D01*
X158973937Y-109943572D01*
X158981169Y-109902566D01*
X158985529Y-109894174D01*
X159009802Y-109885708D01*
X159065074Y-109871935D01*
X159145838Y-109854050D01*
X159246588Y-109833248D01*
X159361817Y-109810723D01*
X159424598Y-109798918D01*
X159543713Y-109776651D01*
X159649935Y-109756479D01*
X159738073Y-109739415D01*
X159802934Y-109726469D01*
X159839326Y-109718655D01*
X159845316Y-109716922D01*
X159855439Y-109697390D01*
X159876838Y-109650343D01*
X159906661Y-109582503D01*
X159942055Y-109500591D01*
X159980168Y-109411328D01*
X160018147Y-109321435D01*
X160053140Y-109237635D01*
X160082294Y-109166647D01*
X160102757Y-109115194D01*
X160111677Y-109089997D01*
X160111843Y-109088896D01*
X160101731Y-109069019D01*
X160073383Y-109023277D01*
X160029777Y-108956217D01*
X159973894Y-108872384D01*
X159908713Y-108776326D01*
X159870821Y-108721150D01*
X159801775Y-108619981D01*
X159740450Y-108528130D01*
X159689837Y-108450244D01*
X159652929Y-108390969D01*
X159632718Y-108354951D01*
X159629799Y-108346877D01*
X159642347Y-108328084D01*
X159677037Y-108287957D01*
X159729437Y-108230993D01*
X159795116Y-108161685D01*
X159869644Y-108084531D01*
X159948587Y-108004025D01*
X160027517Y-107924663D01*
X160102000Y-107850940D01*
X160167606Y-107787352D01*
X160219904Y-107738394D01*
X160254461Y-107708561D01*
X160266022Y-107701442D01*
X160284846Y-107711453D01*
X160329869Y-107739578D01*
X160396713Y-107782954D01*
X160481001Y-107838718D01*
X160578356Y-107904006D01*
X160651793Y-107953746D01*
X161022833Y-108206051D01*
X161641405Y-107951055D01*
X161725225Y-107506431D01*
X161809046Y-107061807D01*
X162734494Y-107061807D01*
X162818314Y-107506431D01*
G37*
D13*
X162818314Y-107506431D02*
X162902135Y-107951055D01*
X163211420Y-108078553D01*
X163520706Y-108206051D01*
X163891746Y-107953746D01*
X163995657Y-107883496D01*
X164089587Y-107820772D01*
X164169152Y-107768438D01*
X164229970Y-107729357D01*
X164267657Y-107706393D01*
X164277921Y-107701442D01*
X164296410Y-107714176D01*
X164335920Y-107749382D01*
X164392022Y-107802562D01*
X164460287Y-107869218D01*
X164536286Y-107944854D01*
X164615592Y-108024972D01*
X164693775Y-108105074D01*
X164766407Y-108180664D01*
X164829059Y-108247245D01*
X164877303Y-108300318D01*
X164906710Y-108335387D01*
X164913741Y-108347123D01*
X164903623Y-108368760D01*
X164875259Y-108416162D01*
X164831629Y-108484693D01*
X164775718Y-108569715D01*
X164710506Y-108666593D01*
X164672719Y-108721850D01*
X164603843Y-108822748D01*
X164542640Y-108913799D01*
X164492078Y-108990470D01*
X164455128Y-109048228D01*
X164434758Y-109082543D01*
X164431697Y-109089754D01*
X164438636Y-109110248D01*
X164457551Y-109158013D01*
X164485587Y-109226332D01*
X164519891Y-109308489D01*
X164557609Y-109397770D01*
X164595887Y-109487458D01*
X164631870Y-109570838D01*
X164662706Y-109641194D01*
X164685539Y-109691810D01*
X164697517Y-109715971D01*
X164698224Y-109716922D01*
X164717031Y-109721536D01*
X164767118Y-109731828D01*
X164843293Y-109746787D01*
X164940365Y-109765401D01*
X165053143Y-109786659D01*
X165118942Y-109798918D01*
X165239450Y-109821862D01*
X165348297Y-109843695D01*
X165439976Y-109863222D01*
X165508981Y-109879248D01*
X165549804Y-109890579D01*
X165558011Y-109894174D01*
X165566048Y-109918506D01*
X165572533Y-109973459D01*
X165577470Y-110052608D01*
X165580864Y-110149526D01*
X165582718Y-110257787D01*
X165583038Y-110370965D01*
X165581827Y-110482635D01*
X165579090Y-110586368D01*
X165574831Y-110675741D01*
X165569055Y-110744326D01*
X165561767Y-110785697D01*
X165557395Y-110794310D01*
X165531264Y-110804633D01*
X165475893Y-110819392D01*
X165398607Y-110836852D01*
X165306730Y-110855280D01*
X165274658Y-110861241D01*
X165120024Y-110889566D01*
X164997875Y-110912376D01*
X164904173Y-110930580D01*
X164834884Y-110945083D01*
X164785971Y-110956792D01*
X164753397Y-110966615D01*
X164733128Y-110975456D01*
X164721126Y-110984224D01*
X164719447Y-110985957D01*
X164702684Y-111013871D01*
X164677114Y-111068195D01*
X164645288Y-111142277D01*
X164609760Y-111229465D01*
X164573083Y-111323108D01*
X164537811Y-111416552D01*
X164506496Y-111503147D01*
X164481693Y-111576240D01*
X164465954Y-111629178D01*
X164461832Y-111655311D01*
X164462176Y-111656226D01*
X164476141Y-111677586D01*
X164507822Y-111724584D01*
X164553891Y-111792327D01*
X164611018Y-111875923D01*
X164675873Y-111970482D01*
X164694343Y-111997354D01*
X164760199Y-112094775D01*
X164818150Y-112183663D01*
X164865038Y-112258912D01*
X164897707Y-112315420D01*
X164913000Y-112348081D01*
X164913741Y-112352093D01*
X164900892Y-112373184D01*
X164865388Y-112414964D01*
X164811793Y-112472945D01*
X164744671Y-112542635D01*
X164668587Y-112619545D01*
X164588104Y-112699183D01*
X164507787Y-112777061D01*
X164432199Y-112848686D01*
X164365905Y-112909570D01*
X164313469Y-112955221D01*
X164279455Y-112981150D01*
X164270045Y-112985383D01*
X164248143Y-112975412D01*
X164203300Y-112948520D01*
X164142821Y-112909236D01*
X164096289Y-112877617D01*
X164011975Y-112819598D01*
X163912126Y-112751284D01*
X163811973Y-112683079D01*
X163758127Y-112646575D01*
X163575871Y-112523300D01*
X163422881Y-112606020D01*
X163353182Y-112642259D01*
X163293914Y-112670426D01*
X163253811Y-112686491D01*
X163243603Y-112688726D01*
X163231329Y-112672222D01*
X163207113Y-112625582D01*
X163172763Y-112553109D01*
X163130088Y-112459106D01*
X163080894Y-112347874D01*
X163026990Y-112223715D01*
X162970184Y-112090932D01*
X162912282Y-111953827D01*
X162855093Y-111816702D01*
X162800424Y-111683858D01*
X162750084Y-111559598D01*
X162705880Y-111448225D01*
X162669619Y-111354039D01*
X162643109Y-111281344D01*
X162628158Y-111234441D01*
X162625754Y-111218333D01*
X162644811Y-111197786D01*
X162686536Y-111164433D01*
X162742206Y-111125202D01*
X162746878Y-111122099D01*
X162890764Y-111006923D01*
X163006783Y-110872553D01*
X163093930Y-110723284D01*
X163151199Y-110563413D01*
X163177586Y-110397237D01*
X163172085Y-110229052D01*
X163133690Y-110063155D01*
X163061395Y-109903842D01*
X163040126Y-109868987D01*
X162929496Y-109728237D01*
X162798802Y-109615214D01*
X162652564Y-109530503D01*
X162495308Y-109474694D01*
X162331557Y-109448374D01*
X162165833Y-109452130D01*
X162002662Y-109486550D01*
X161846565Y-109552223D01*
X161702067Y-109649735D01*
X161657369Y-109689313D01*
X161543612Y-109813203D01*
X161460718Y-109943624D01*
X161403856Y-110089815D01*
X161372187Y-110234588D01*
X161364369Y-110397360D01*
X161390438Y-110560940D01*
X161447745Y-110719798D01*
X161533644Y-110868406D01*
X161645486Y-111001235D01*
X161780623Y-111112756D01*
X161798383Y-111124511D01*
X161854650Y-111163008D01*
X161897423Y-111196363D01*
X161917872Y-111217660D01*
X161918169Y-111218333D01*
X161913779Y-111241371D01*
X161896376Y-111293657D01*
X161867768Y-111370890D01*
X161829765Y-111468768D01*
X161784174Y-111582991D01*
X161732803Y-111709258D01*
X161677462Y-111843267D01*
X161619958Y-111980718D01*
X161562101Y-112117308D01*
X161505698Y-112248737D01*
X161452558Y-112370705D01*
X161404490Y-112478909D01*
X161363301Y-112569049D01*
X161330801Y-112636823D01*
X161308797Y-112677930D01*
X161299936Y-112688726D01*
X161272860Y-112680319D01*
X161222197Y-112657772D01*
X161156683Y-112625113D01*
X161120659Y-112606020D01*
X160967668Y-112523300D01*
X160785412Y-112646575D01*
X160692375Y-112709728D01*
X160590515Y-112779227D01*
X160495062Y-112844665D01*
X160447250Y-112877617D01*
X160380005Y-112922773D01*
X160323064Y-112958557D01*
X160283854Y-112980438D01*
X160271119Y-112985063D01*
X160252583Y-112972585D01*
X160211559Y-112937752D01*
X160152025Y-112884178D01*
X160077958Y-112815483D01*
X159993335Y-112735281D01*
X159939815Y-112683786D01*
X159846181Y-112591786D01*
X159765259Y-112509499D01*
X159700323Y-112440445D01*
X159654642Y-112388144D01*
X159631489Y-112356116D01*
X159629268Y-112349616D01*
X159639576Y-112324894D01*
X159668061Y-112274905D01*
X159711563Y-112204712D01*
X159766923Y-112119375D01*
X159830980Y-112023956D01*
X159849197Y-111997354D01*
X159915573Y-111900667D01*
X159975122Y-111813617D01*
X160024516Y-111741095D01*
X160060425Y-111687993D01*
X160079519Y-111659203D01*
X160081364Y-111656226D01*
X160078605Y-111633282D01*
X160063962Y-111582836D01*
X160039987Y-111511541D01*
X160009234Y-111426047D01*
X159974256Y-111333007D01*
X159937607Y-111239074D01*
X159901839Y-111150899D01*
X159869506Y-111075134D01*
X159843162Y-111018431D01*
X159825358Y-110987443D01*
X159824093Y-110985957D01*
X159813206Y-110977101D01*
X159794818Y-110968343D01*
X159764894Y-110958777D01*
X159719397Y-110947496D01*
X159654291Y-110933593D01*
X159565539Y-110916163D01*
X159449107Y-110894298D01*
X159300958Y-110867091D01*
X159268882Y-110861241D01*
X159173814Y-110842874D01*
X159090935Y-110824905D01*
X159027570Y-110809069D01*
X158991042Y-110797100D01*
X158986144Y-110794310D01*
X158978073Y-110769572D01*
X158971513Y-110714290D01*
X158966467Y-110634889D01*
X158962941Y-110537796D01*
X158960939Y-110429438D01*
X158960464Y-110316240D01*
X158961523Y-110204628D01*
X158964118Y-110101029D01*
X158968254Y-110011868D01*
X158973937Y-109943572D01*
X158981169Y-109902566D01*
X158985529Y-109894174D01*
X159009802Y-109885708D01*
X159065074Y-109871935D01*
X159145838Y-109854050D01*
X159246588Y-109833248D01*
X159361817Y-109810723D01*
X159424598Y-109798918D01*
X159543713Y-109776651D01*
X159649935Y-109756479D01*
X159738073Y-109739415D01*
X159802934Y-109726469D01*
X159839326Y-109718655D01*
X159845316Y-109716922D01*
X159855439Y-109697390D01*
X159876838Y-109650343D01*
X159906661Y-109582503D01*
X159942055Y-109500591D01*
X159980168Y-109411328D01*
X160018147Y-109321435D01*
X160053140Y-109237635D01*
X160082294Y-109166647D01*
X160102757Y-109115194D01*
X160111677Y-109089997D01*
X160111843Y-109088896D01*
X160101731Y-109069019D01*
X160073383Y-109023277D01*
X160029777Y-108956217D01*
X159973894Y-108872384D01*
X159908713Y-108776326D01*
X159870821Y-108721150D01*
X159801775Y-108619981D01*
X159740450Y-108528130D01*
X159689837Y-108450244D01*
X159652929Y-108390969D01*
X159632718Y-108354951D01*
X159629799Y-108346877D01*
X159642347Y-108328084D01*
X159677037Y-108287957D01*
X159729437Y-108230993D01*
X159795116Y-108161685D01*
X159869644Y-108084531D01*
X159948587Y-108004025D01*
X160027517Y-107924663D01*
X160102000Y-107850940D01*
X160167606Y-107787352D01*
X160219904Y-107738394D01*
X160254461Y-107708561D01*
X160266022Y-107701442D01*
X160284846Y-107711453D01*
X160329869Y-107739578D01*
X160396713Y-107782954D01*
X160481001Y-107838718D01*
X160578356Y-107904006D01*
X160651793Y-107953746D01*
X161022833Y-108206051D01*
X161641405Y-107951055D01*
X161725225Y-107506431D01*
X161809046Y-107061807D01*
X162734494Y-107061807D01*
X162818314Y-107506431D01*
D12*
X140035436Y-94302500D02*
X140489564Y-94302500D01*
X140035436Y-95772500D02*
X140489564Y-95772500D01*
G36*
X130643205Y-111094574D02*
G01*
X130217243Y-110862737D01*
X130241038Y-109890870D01*
X130264834Y-108919003D01*
X131067738Y-108477811D01*
X131906204Y-108934161D01*
X132760060Y-108463167D01*
X132761992Y-107997500D01*
X132763925Y-107531834D01*
X133188576Y-107307109D01*
X133613228Y-107082385D01*
X134879377Y-107772776D01*
X136145525Y-108463167D01*
X136147346Y-108975462D01*
X136149167Y-109487758D01*
X135763801Y-109674983D01*
X135553026Y-109793267D01*
X135432684Y-109892401D01*
X135421044Y-109931151D01*
X135518704Y-110005530D01*
X135714059Y-110111228D01*
X135806410Y-110154656D01*
X136149167Y-110309218D01*
X136148455Y-111291192D01*
X136147742Y-112273167D01*
X135721232Y-112498882D01*
X135294722Y-112724598D01*
X134938778Y-112521069D01*
X134718071Y-112401608D01*
X134559162Y-112327867D01*
X134519334Y-112316520D01*
X134483714Y-112392303D01*
X134460298Y-112588056D01*
X134454999Y-112760000D01*
X134454165Y-113204500D01*
X133671833Y-113627834D01*
X133334741Y-113805216D01*
X133044228Y-113948855D01*
X132837683Y-114040785D01*
X132762500Y-114064814D01*
X132639336Y-114031003D01*
X132406731Y-113928919D01*
X132101461Y-113775698D01*
X131853998Y-113641480D01*
X131072497Y-113204500D01*
X131069720Y-111638167D01*
X131661834Y-111638167D01*
X132187810Y-111638167D01*
X132127033Y-110855000D01*
X132106033Y-110522166D01*
X132099511Y-110270928D01*
X132107826Y-110135200D01*
X132119256Y-110122434D01*
X132170578Y-110222470D01*
X132256343Y-110438829D01*
X132358911Y-110726711D01*
X132369321Y-110757434D01*
X132509091Y-111120979D01*
X132632853Y-111319014D01*
X132749437Y-111353532D01*
X132867675Y-111226525D01*
X132996399Y-110939984D01*
X133010407Y-110902032D01*
X133152306Y-110521306D01*
X133247088Y-110299984D01*
X133301583Y-110236957D01*
X133322620Y-110331118D01*
X133317029Y-110581361D01*
X133300520Y-110855000D01*
X133248659Y-111638167D01*
X133778500Y-111638167D01*
X133778500Y-109352167D01*
X133497073Y-109352167D01*
X133354627Y-109359244D01*
X133257374Y-109402633D01*
X133180281Y-109515571D01*
X133098314Y-109731295D01*
X133014860Y-109992396D01*
X132913522Y-110297640D01*
X132824512Y-110534019D01*
X132763826Y-110659857D01*
X132755175Y-110669027D01*
X132702981Y-110611992D01*
X132614363Y-110428477D01*
X132505218Y-110153050D01*
X132460734Y-110028798D01*
X132343418Y-109700158D01*
X132256170Y-109500023D01*
X132174647Y-109396546D01*
X132074503Y-109357879D01*
X131943513Y-109352167D01*
X131661834Y-109352167D01*
X131661834Y-111638167D01*
X131069720Y-111638167D01*
X131069167Y-111326412D01*
X130643205Y-111094574D01*
G37*
X154489564Y-70302500D02*
X154035436Y-70302500D01*
X154489564Y-71772500D02*
X154035436Y-71772500D01*
X155597500Y-83776248D02*
X155597500Y-84298752D01*
X154127500Y-83776248D02*
X154127500Y-84298752D01*
X140035436Y-85772500D02*
X140489564Y-85772500D01*
X140035436Y-84302500D02*
X140489564Y-84302500D01*
X138367500Y-110987500D02*
X138367500Y-108447500D01*
X151067500Y-109082500D02*
X151067500Y-110987500D01*
X149797500Y-110352500D02*
X148527500Y-110352500D01*
X147257500Y-109717500D02*
X147257500Y-110352500D01*
X148527500Y-110352500D02*
X148527500Y-109717500D01*
X156147500Y-131942500D02*
X156147500Y-131307500D01*
X156147500Y-108447500D02*
X156147500Y-110987500D01*
X145987500Y-110352500D02*
X145987500Y-109717500D01*
X138367500Y-131942500D02*
X138367500Y-131307500D01*
X142177500Y-133212500D02*
X142177500Y-131942500D01*
X142177500Y-131942500D02*
X138367500Y-131942500D01*
X138367500Y-108447500D02*
X156147500Y-108447500D01*
X151067500Y-110987500D02*
X143447500Y-110987500D01*
X148527500Y-109717500D02*
X147257500Y-109717500D01*
X144717500Y-109717500D02*
X144717500Y-110352500D01*
X149797500Y-109082500D02*
X149797500Y-110352500D01*
X145987500Y-109717500D02*
X144717500Y-109717500D01*
X152337500Y-131942500D02*
X152337500Y-133212500D01*
X156147500Y-131942500D02*
X152337500Y-131942500D01*
X152337500Y-133212500D02*
X142177500Y-133212500D01*
X147257500Y-110352500D02*
X145987500Y-110352500D01*
X143447500Y-110987500D02*
X143447500Y-109082500D01*
X143447500Y-109082500D02*
X151067500Y-109082500D01*
X154489564Y-89772500D02*
X154035436Y-89772500D01*
X154489564Y-88302500D02*
X154035436Y-88302500D01*
X140035436Y-100302500D02*
X140489564Y-100302500D01*
X140035436Y-101772500D02*
X140489564Y-101772500D01*
X154489564Y-81772500D02*
X154035436Y-81772500D01*
X154489564Y-80302500D02*
X154035436Y-80302500D01*
G36*
X149160479Y-128016003D02*
G01*
X149050357Y-128379027D01*
X148871529Y-128713591D01*
X148630867Y-129006838D01*
X148337619Y-129247501D01*
X148003055Y-129426329D01*
X147640031Y-129536451D01*
X147262500Y-129573634D01*
X146884969Y-129536451D01*
X146521945Y-129426329D01*
X146187381Y-129247501D01*
X145894133Y-129006838D01*
X145653471Y-128713591D01*
X145474643Y-128379027D01*
X145364521Y-128016003D01*
X145327337Y-127638472D01*
X145327338Y-127638472D01*
X145327338Y-126699863D01*
X145724213Y-126699863D01*
X145748025Y-126948108D01*
X145819463Y-127197544D01*
X145940906Y-127432692D01*
X146114738Y-127638075D01*
X146524313Y-127347563D01*
X146300475Y-127047525D01*
X146233800Y-126757012D01*
X146331431Y-126480788D01*
X146610038Y-126371250D01*
X146862450Y-126459356D01*
X147119625Y-126683194D01*
X147255952Y-126823688D01*
X147398231Y-126973706D01*
X147549441Y-127123725D01*
X147712556Y-127264219D01*
X147889364Y-127388044D01*
X148081650Y-127488056D01*
X148291200Y-127554136D01*
X148519800Y-127576163D01*
X148619813Y-127578544D01*
X148738875Y-127566638D01*
X148738875Y-125642588D01*
X148253100Y-125642588D01*
X148253100Y-126909413D01*
X148095937Y-126859406D01*
X147926869Y-126737962D01*
X147764944Y-126585563D01*
X147629213Y-126442688D01*
X147391087Y-126199800D01*
X147133913Y-125985488D01*
X146860069Y-125833088D01*
X146567175Y-125775938D01*
X146198081Y-125852138D01*
X145933762Y-126056925D01*
X145776600Y-126352200D01*
X145724213Y-126699863D01*
X145327338Y-126699863D01*
X145327338Y-124270988D01*
X145724213Y-124270988D01*
X145766546Y-124573142D01*
X145893546Y-124825554D01*
X146105213Y-125028225D01*
X146320120Y-125144906D01*
X146583844Y-125228250D01*
X146896383Y-125278256D01*
X147257738Y-125294925D01*
X147623259Y-125278554D01*
X147938775Y-125229441D01*
X148204284Y-125147585D01*
X148419788Y-125032988D01*
X148631454Y-124831904D01*
X148758454Y-124577904D01*
X148800788Y-124270988D01*
X148758454Y-123964071D01*
X148631454Y-123710071D01*
X148419788Y-123508988D01*
X148204284Y-123394390D01*
X147938775Y-123312534D01*
X147623259Y-123263421D01*
X147257738Y-123247050D01*
X146894448Y-123263421D01*
X146580867Y-123312534D01*
X146316995Y-123394390D01*
X146102831Y-123508988D01*
X145892488Y-123710071D01*
X145766281Y-123964071D01*
X145724213Y-124270988D01*
X145327338Y-124270988D01*
X145327338Y-121937363D01*
X145724213Y-121937363D01*
X145748025Y-122185608D01*
X145819463Y-122435044D01*
X145940906Y-122670192D01*
X146114738Y-122875575D01*
X146524313Y-122585063D01*
X146300475Y-122285025D01*
X146233800Y-121994512D01*
X146331431Y-121718287D01*
X146610038Y-121608750D01*
X146862450Y-121696856D01*
X147119625Y-121920694D01*
X147255952Y-122061187D01*
X147398231Y-122211206D01*
X147549441Y-122361225D01*
X147712556Y-122501719D01*
X147889364Y-122625544D01*
X148081650Y-122725556D01*
X148291200Y-122791636D01*
X148519800Y-122813662D01*
X148619813Y-122816044D01*
X148738875Y-122804138D01*
X148738875Y-120880087D01*
X148253100Y-120880087D01*
X148253100Y-122146913D01*
X148095937Y-122096906D01*
X147926869Y-121975462D01*
X147764944Y-121823063D01*
X147629213Y-121680187D01*
X147391087Y-121437300D01*
X147133913Y-121222988D01*
X146860069Y-121070588D01*
X146567175Y-121013438D01*
X146198081Y-121089638D01*
X145933762Y-121294425D01*
X145776600Y-121589700D01*
X145724213Y-121937363D01*
X145327338Y-121937363D01*
X145327338Y-119279888D01*
X145790888Y-119279888D01*
X145993889Y-119470388D01*
X146221894Y-119660888D01*
X146464186Y-119846625D01*
X146710050Y-120022837D01*
X146954723Y-120187144D01*
X147193444Y-120337163D01*
X147416686Y-120466941D01*
X147614925Y-120570525D01*
X148043550Y-120570525D01*
X148043550Y-119341800D01*
X148738875Y-119341800D01*
X148738875Y-118756012D01*
X148043550Y-118756012D01*
X148043550Y-118436925D01*
X147562538Y-118436925D01*
X147562538Y-118756012D01*
X145790888Y-118756012D01*
X145790888Y-119279888D01*
X145327338Y-119279888D01*
X145327338Y-118436528D01*
X145364521Y-118058997D01*
X145474643Y-117695973D01*
X145653471Y-117361409D01*
X145894133Y-117068162D01*
X146187381Y-116827499D01*
X146521945Y-116648671D01*
X146884969Y-116538549D01*
X147262500Y-116501366D01*
X147640031Y-116538549D01*
X148003055Y-116648671D01*
X148337619Y-116827499D01*
X148630867Y-117068162D01*
X148871529Y-117361409D01*
X149050357Y-117695973D01*
X149160479Y-118058997D01*
X149197662Y-118436528D01*
X149197663Y-118436528D01*
X149197663Y-127638472D01*
X149160479Y-128016003D01*
G37*
G36*
X147562538Y-120008550D02*
G01*
X147291075Y-119865675D01*
X147017231Y-119696606D01*
X146757675Y-119518013D01*
X146524313Y-119341800D01*
X147562538Y-119341800D01*
X147562538Y-120008550D01*
G37*
G36*
X148229883Y-124481728D02*
G01*
X148031644Y-124637700D01*
X147828179Y-124709138D01*
X147570210Y-124752000D01*
X147257738Y-124766288D01*
X146947910Y-124752000D01*
X146691529Y-124709138D01*
X146488594Y-124637700D01*
X146290355Y-124481728D01*
X146224275Y-124270988D01*
X146225748Y-124266225D01*
X146891025Y-124266225D01*
X146986275Y-124461488D01*
X147210113Y-124532925D01*
X147431569Y-124461488D01*
X147524438Y-124266225D01*
X147431569Y-124078106D01*
X147210113Y-124004287D01*
X146986275Y-124078106D01*
X146891025Y-124266225D01*
X146225748Y-124266225D01*
X146290355Y-124057270D01*
X146488594Y-123901894D01*
X146691529Y-123831779D01*
X146947910Y-123789710D01*
X147257738Y-123775687D01*
X147570210Y-123789710D01*
X147828179Y-123831779D01*
X148031644Y-123901894D01*
X148229883Y-124057270D01*
X148294490Y-124266225D01*
X148295963Y-124270988D01*
X148229883Y-124481728D01*
G37*
X167212500Y-89287500D02*
X156462500Y-89287500D01*
X156462500Y-94787500D02*
X167212500Y-94787500D01*
X167262500Y-88787500D02*
X167262500Y-95287500D01*
X156462500Y-89287500D02*
X156462500Y-94787500D01*
X138062500Y-84787500D02*
X138062500Y-79287500D01*
X127312500Y-84787500D02*
X138062500Y-84787500D01*
X138062500Y-79287500D02*
X127312500Y-79287500D01*
X127262500Y-85287500D02*
X127262500Y-78787500D01*
X167212500Y-69287500D02*
X156462500Y-69287500D01*
X167262500Y-68787500D02*
X167262500Y-75287500D01*
X156462500Y-74787500D02*
X167212500Y-74787500D01*
X156462500Y-69287500D02*
X156462500Y-74787500D01*
X163235436Y-113302500D02*
X163689564Y-113302500D01*
X163235436Y-114772500D02*
X163689564Y-114772500D01*
X154489564Y-78302500D02*
X154035436Y-78302500D01*
X154489564Y-79772500D02*
X154035436Y-79772500D01*
X138927500Y-90298752D02*
X138927500Y-89776248D01*
X140397500Y-90298752D02*
X140397500Y-89776248D01*
X138927500Y-80298752D02*
X138927500Y-79776248D01*
X140397500Y-80298752D02*
X140397500Y-79776248D01*
X129062500Y-123267500D02*
X129032500Y-123267500D01*
X129032500Y-116807500D02*
X129062500Y-116807500D01*
X130962500Y-116807500D02*
X133562500Y-116807500D01*
X135492500Y-123267500D02*
X135492500Y-116807500D01*
X129032500Y-123267500D02*
X129032500Y-116807500D01*
X135492500Y-123267500D02*
X135462500Y-123267500D01*
X135492500Y-116807500D02*
X135462500Y-116807500D01*
X130962500Y-123267500D02*
X133562500Y-123267500D01*
X155597500Y-93776248D02*
X155597500Y-94298752D01*
X154127500Y-93776248D02*
X154127500Y-94298752D01*
X165492500Y-116807500D02*
X165492500Y-123267500D01*
X163562500Y-123267500D02*
X160962500Y-123267500D01*
X165492500Y-123267500D02*
X165462500Y-123267500D01*
X159032500Y-116807500D02*
X159062500Y-116807500D01*
X159032500Y-116807500D02*
X159032500Y-123267500D01*
X159032500Y-123267500D02*
X159062500Y-123267500D01*
X163562500Y-116807500D02*
X160962500Y-116807500D01*
X165462500Y-116807500D02*
X165492500Y-116807500D01*
X140397500Y-71098752D02*
X140397500Y-70576248D01*
X138927500Y-71098752D02*
X138927500Y-70576248D01*
X167262500Y-98787500D02*
X167262500Y-105287500D01*
X156462500Y-104787500D02*
X167212500Y-104787500D01*
X156462500Y-99287500D02*
X156462500Y-104787500D01*
X167212500Y-99287500D02*
X156462500Y-99287500D01*
X142302500Y-96237500D02*
X142302500Y-95587500D01*
X142302500Y-96237500D02*
X142302500Y-97912500D01*
X145422500Y-96237500D02*
X145422500Y-95587500D01*
X145422500Y-96237500D02*
X145422500Y-96887500D01*
X150262500Y-80302500D02*
X149808372Y-80302500D01*
X150262500Y-81772500D02*
X149808372Y-81772500D01*
X154489564Y-98302500D02*
X154035436Y-98302500D01*
X154489564Y-99772500D02*
X154035436Y-99772500D01*
X127262500Y-105287500D02*
X127262500Y-98787500D01*
X138062500Y-104787500D02*
X138062500Y-99287500D01*
X127312500Y-104787500D02*
X138062500Y-104787500D01*
X138062500Y-99287500D02*
X127312500Y-99287500D01*
X156462500Y-79287500D02*
X156462500Y-84787500D01*
X167212500Y-79287500D02*
X156462500Y-79287500D01*
X156462500Y-84787500D02*
X167212500Y-84787500D01*
X167262500Y-78787500D02*
X167262500Y-85287500D01*
X154489564Y-91772500D02*
X154035436Y-91772500D01*
X154489564Y-90302500D02*
X154035436Y-90302500D01*
X140035436Y-76572500D02*
X140489564Y-76572500D01*
X140035436Y-75102500D02*
X140489564Y-75102500D01*
X151312500Y-75737500D02*
X151312500Y-76337500D01*
X147862500Y-75037500D02*
X150662500Y-75037500D01*
X150662500Y-77037500D02*
X147862500Y-77037500D01*
X150462500Y-74837500D02*
X150762500Y-74537500D01*
X150762500Y-74537500D02*
X150162500Y-74537500D01*
X150462500Y-74837500D02*
X150162500Y-74537500D01*
X147212500Y-76337500D02*
X147212500Y-75737500D01*
X147212500Y-76337500D02*
G75*
G03*
X147912500Y-77037500I700000J0D01*
G01*
X151312500Y-75737500D02*
G75*
G03*
X150612500Y-75037500I-699999J1D01*
G01*
X150612500Y-77037500D02*
G75*
G03*
X151312500Y-76337500I1J699999D01*
G01*
X147912500Y-75037500D02*
G75*
G03*
X147212500Y-75737500I0J-700000D01*
G01*
X127312500Y-94787500D02*
X138062500Y-94787500D01*
X138062500Y-89287500D02*
X127312500Y-89287500D01*
X138062500Y-94787500D02*
X138062500Y-89287500D01*
X127262500Y-95287500D02*
X127262500Y-88787500D01*
X155597500Y-73776248D02*
X155597500Y-74298752D01*
X154127500Y-73776248D02*
X154127500Y-74298752D01*
X127312500Y-74787500D02*
X138062500Y-74787500D01*
X138062500Y-69287500D02*
X127312500Y-69287500D01*
X127262500Y-75287500D02*
X127262500Y-68787500D01*
X138062500Y-74787500D02*
X138062500Y-69287500D01*
X150216628Y-83802500D02*
X149762500Y-83802500D01*
X150216628Y-85272500D02*
X149762500Y-85272500D01*
X141982500Y-72237500D02*
X152142500Y-72237500D01*
X152142500Y-72237500D02*
X152142500Y-69833500D01*
X152142500Y-69833500D02*
X141982500Y-69833500D01*
X141982500Y-69833500D02*
X141982500Y-72237500D01*
X144501248Y-81772500D02*
X145023752Y-81772500D01*
X144501248Y-80302500D02*
X145023752Y-80302500D01*
X140397500Y-98298752D02*
X140397500Y-97776248D01*
X138927500Y-98298752D02*
X138927500Y-97776248D01*
X154001248Y-96302500D02*
X154523752Y-96302500D01*
X154001248Y-97772500D02*
X154523752Y-97772500D01*
X140035436Y-82302500D02*
X140489564Y-82302500D01*
X140035436Y-83772500D02*
X140489564Y-83772500D01*
X145462500Y-74837500D02*
X145162500Y-74537500D01*
X142862500Y-75037500D02*
X145662500Y-75037500D01*
X142212500Y-76337500D02*
X142212500Y-75737500D01*
X145762500Y-74537500D02*
X145162500Y-74537500D01*
X146312500Y-75737500D02*
X146312500Y-76337500D01*
X145462500Y-74837500D02*
X145762500Y-74537500D01*
X145662500Y-77037500D02*
X142862500Y-77037500D01*
X142912500Y-75037500D02*
G75*
G03*
X142212500Y-75737500I0J-700000D01*
G01*
X142212500Y-76337500D02*
G75*
G03*
X142912500Y-77037500I700000J0D01*
G01*
X146312500Y-75737500D02*
G75*
G03*
X145612500Y-75037500I-699999J1D01*
G01*
X145612500Y-77037500D02*
G75*
G03*
X146312500Y-76337500I1J699999D01*
G01*
X154489564Y-69772500D02*
X154035436Y-69772500D01*
X154489564Y-68302500D02*
X154035436Y-68302500D01*
X140035436Y-74572500D02*
X140489564Y-74572500D01*
X140035436Y-73102500D02*
X140489564Y-73102500D01*
X140035436Y-102302500D02*
X140489564Y-102302500D01*
X140035436Y-103772500D02*
X140489564Y-103772500D01*
%LPC*%
G36*
G01*
X155687500Y-102562500D02*
X155687500Y-103512500D01*
G75*
G02*
X155437500Y-103762500I-250000J0D01*
G01*
X154762500Y-103762500D01*
G75*
G02*
X154512500Y-103512500I0J250000D01*
G01*
X154512500Y-102562500D01*
G75*
G02*
X154762500Y-102312500I250000J0D01*
G01*
X155437500Y-102312500D01*
G75*
G02*
X155687500Y-102562500I0J-250000D01*
G01*
G37*
G36*
G01*
X153612500Y-102562500D02*
X153612500Y-103512500D01*
G75*
G02*
X153362500Y-103762500I-250000J0D01*
G01*
X152687500Y-103762500D01*
G75*
G02*
X152437500Y-103512500I0J250000D01*
G01*
X152437500Y-102562500D01*
G75*
G02*
X152687500Y-102312500I250000J0D01*
G01*
X153362500Y-102312500D01*
G75*
G02*
X153612500Y-102562500I0J-250000D01*
G01*
G37*
G36*
G01*
X129312500Y-111612500D02*
X130212500Y-111612500D01*
G75*
G02*
X130462500Y-111862500I0J-250000D01*
G01*
X130462500Y-112387500D01*
G75*
G02*
X130212500Y-112637500I-250000J0D01*
G01*
X129312500Y-112637500D01*
G75*
G02*
X129062500Y-112387500I0J250000D01*
G01*
X129062500Y-111862500D01*
G75*
G02*
X129312500Y-111612500I250000J0D01*
G01*
G37*
G36*
G01*
X129312500Y-113437500D02*
X130212500Y-113437500D01*
G75*
G02*
X130462500Y-113687500I0J-250000D01*
G01*
X130462500Y-114212500D01*
G75*
G02*
X130212500Y-114462500I-250000J0D01*
G01*
X129312500Y-114462500D01*
G75*
G02*
X129062500Y-114212500I0J250000D01*
G01*
X129062500Y-113687500D01*
G75*
G02*
X129312500Y-113437500I250000J0D01*
G01*
G37*
G36*
G01*
X134787500Y-125612500D02*
X135737500Y-125612500D01*
G75*
G02*
X135987500Y-125862500I0J-250000D01*
G01*
X135987500Y-126537500D01*
G75*
G02*
X135737500Y-126787500I-250000J0D01*
G01*
X134787500Y-126787500D01*
G75*
G02*
X134537500Y-126537500I0J250000D01*
G01*
X134537500Y-125862500D01*
G75*
G02*
X134787500Y-125612500I250000J0D01*
G01*
G37*
G36*
G01*
X134787500Y-127687500D02*
X135737500Y-127687500D01*
G75*
G02*
X135987500Y-127937500I0J-250000D01*
G01*
X135987500Y-128612500D01*
G75*
G02*
X135737500Y-128862500I-250000J0D01*
G01*
X134787500Y-128862500D01*
G75*
G02*
X134537500Y-128612500I0J250000D01*
G01*
X134537500Y-127937500D01*
G75*
G02*
X134787500Y-127687500I250000J0D01*
G01*
G37*
G36*
G01*
X138837500Y-93487500D02*
X138837500Y-92587500D01*
G75*
G02*
X139087500Y-92337500I250000J0D01*
G01*
X139612500Y-92337500D01*
G75*
G02*
X139862500Y-92587500I0J-250000D01*
G01*
X139862500Y-93487500D01*
G75*
G02*
X139612500Y-93737500I-250000J0D01*
G01*
X139087500Y-93737500D01*
G75*
G02*
X138837500Y-93487500I0J250000D01*
G01*
G37*
G36*
G01*
X140662500Y-93487500D02*
X140662500Y-92587500D01*
G75*
G02*
X140912500Y-92337500I250000J0D01*
G01*
X141437500Y-92337500D01*
G75*
G02*
X141687500Y-92587500I0J-250000D01*
G01*
X141687500Y-93487500D01*
G75*
G02*
X141437500Y-93737500I-250000J0D01*
G01*
X140912500Y-93737500D01*
G75*
G02*
X140662500Y-93487500I0J250000D01*
G01*
G37*
G36*
G01*
X155687500Y-100587500D02*
X155687500Y-101487500D01*
G75*
G02*
X155437500Y-101737500I-250000J0D01*
G01*
X154912500Y-101737500D01*
G75*
G02*
X154662500Y-101487500I0J250000D01*
G01*
X154662500Y-100587500D01*
G75*
G02*
X154912500Y-100337500I250000J0D01*
G01*
X155437500Y-100337500D01*
G75*
G02*
X155687500Y-100587500I0J-250000D01*
G01*
G37*
G36*
G01*
X153862500Y-100587500D02*
X153862500Y-101487500D01*
G75*
G02*
X153612500Y-101737500I-250000J0D01*
G01*
X153087500Y-101737500D01*
G75*
G02*
X152837500Y-101487500I0J250000D01*
G01*
X152837500Y-100587500D01*
G75*
G02*
X153087500Y-100337500I250000J0D01*
G01*
X153612500Y-100337500D01*
G75*
G02*
X153862500Y-100587500I0J-250000D01*
G01*
G37*
G36*
G01*
X138837500Y-95487500D02*
X138837500Y-94587500D01*
G75*
G02*
X139087500Y-94337500I250000J0D01*
G01*
X139612500Y-94337500D01*
G75*
G02*
X139862500Y-94587500I0J-250000D01*
G01*
X139862500Y-95487500D01*
G75*
G02*
X139612500Y-95737500I-250000J0D01*
G01*
X139087500Y-95737500D01*
G75*
G02*
X138837500Y-95487500I0J250000D01*
G01*
G37*
G36*
G01*
X140662500Y-95487500D02*
X140662500Y-94587500D01*
G75*
G02*
X140912500Y-94337500I250000J0D01*
G01*
X141437500Y-94337500D01*
G75*
G02*
X141687500Y-94587500I0J-250000D01*
G01*
X141687500Y-95487500D01*
G75*
G02*
X141437500Y-95737500I-250000J0D01*
G01*
X140912500Y-95737500D01*
G75*
G02*
X140662500Y-95487500I0J250000D01*
G01*
G37*
G36*
G01*
X155687500Y-70587500D02*
X155687500Y-71487500D01*
G75*
G02*
X155437500Y-71737500I-250000J0D01*
G01*
X154912500Y-71737500D01*
G75*
G02*
X154662500Y-71487500I0J250000D01*
G01*
X154662500Y-70587500D01*
G75*
G02*
X154912500Y-70337500I250000J0D01*
G01*
X155437500Y-70337500D01*
G75*
G02*
X155687500Y-70587500I0J-250000D01*
G01*
G37*
G36*
G01*
X153862500Y-70587500D02*
X153862500Y-71487500D01*
G75*
G02*
X153612500Y-71737500I-250000J0D01*
G01*
X153087500Y-71737500D01*
G75*
G02*
X152837500Y-71487500I0J250000D01*
G01*
X152837500Y-70587500D01*
G75*
G02*
X153087500Y-70337500I250000J0D01*
G01*
X153612500Y-70337500D01*
G75*
G02*
X153862500Y-70587500I0J-250000D01*
G01*
G37*
G36*
G01*
X154387500Y-82412500D02*
X155337500Y-82412500D01*
G75*
G02*
X155587500Y-82662500I0J-250000D01*
G01*
X155587500Y-83337500D01*
G75*
G02*
X155337500Y-83587500I-250000J0D01*
G01*
X154387500Y-83587500D01*
G75*
G02*
X154137500Y-83337500I0J250000D01*
G01*
X154137500Y-82662500D01*
G75*
G02*
X154387500Y-82412500I250000J0D01*
G01*
G37*
G36*
G01*
X154387500Y-84487500D02*
X155337500Y-84487500D01*
G75*
G02*
X155587500Y-84737500I0J-250000D01*
G01*
X155587500Y-85412500D01*
G75*
G02*
X155337500Y-85662500I-250000J0D01*
G01*
X154387500Y-85662500D01*
G75*
G02*
X154137500Y-85412500I0J250000D01*
G01*
X154137500Y-84737500D01*
G75*
G02*
X154387500Y-84487500I250000J0D01*
G01*
G37*
D14*
X163762500Y-128537500D03*
G36*
G01*
X138837500Y-85487500D02*
X138837500Y-84587500D01*
G75*
G02*
X139087500Y-84337500I250000J0D01*
G01*
X139612500Y-84337500D01*
G75*
G02*
X139862500Y-84587500I0J-250000D01*
G01*
X139862500Y-85487500D01*
G75*
G02*
X139612500Y-85737500I-250000J0D01*
G01*
X139087500Y-85737500D01*
G75*
G02*
X138837500Y-85487500I0J250000D01*
G01*
G37*
G36*
G01*
X140662500Y-85487500D02*
X140662500Y-84587500D01*
G75*
G02*
X140912500Y-84337500I250000J0D01*
G01*
X141437500Y-84337500D01*
G75*
G02*
X141687500Y-84587500I0J-250000D01*
G01*
X141687500Y-85487500D01*
G75*
G02*
X141437500Y-85737500I-250000J0D01*
G01*
X140912500Y-85737500D01*
G75*
G02*
X140662500Y-85487500I0J250000D01*
G01*
G37*
G36*
G01*
X157262500Y-129537500D02*
X157262500Y-130537500D01*
G75*
G02*
X156762500Y-131037500I-500000J0D01*
G01*
X154262500Y-131037500D01*
G75*
G02*
X153762500Y-130537500I0J500000D01*
G01*
X153762500Y-129537500D01*
G75*
G02*
X154262500Y-129037500I500000J0D01*
G01*
X156762500Y-129037500D01*
G75*
G02*
X157262500Y-129537500I0J-500000D01*
G01*
G37*
G36*
G01*
X157262500Y-126997500D02*
X157262500Y-127997500D01*
G75*
G02*
X156762500Y-128497500I-500000J0D01*
G01*
X154262500Y-128497500D01*
G75*
G02*
X153762500Y-127997500I0J500000D01*
G01*
X153762500Y-126997500D01*
G75*
G02*
X154262500Y-126497500I500000J0D01*
G01*
X156762500Y-126497500D01*
G75*
G02*
X157262500Y-126997500I0J-500000D01*
G01*
G37*
G36*
G01*
X157262500Y-124457500D02*
X157262500Y-125457500D01*
G75*
G02*
X156762500Y-125957500I-500000J0D01*
G01*
X154262500Y-125957500D01*
G75*
G02*
X153762500Y-125457500I0J500000D01*
G01*
X153762500Y-124457500D01*
G75*
G02*
X154262500Y-123957500I500000J0D01*
G01*
X156762500Y-123957500D01*
G75*
G02*
X157262500Y-124457500I0J-500000D01*
G01*
G37*
G36*
G01*
X157262500Y-121917500D02*
X157262500Y-122917500D01*
G75*
G02*
X156762500Y-123417500I-500000J0D01*
G01*
X154262500Y-123417500D01*
G75*
G02*
X153762500Y-122917500I0J500000D01*
G01*
X153762500Y-121917500D01*
G75*
G02*
X154262500Y-121417500I500000J0D01*
G01*
X156762500Y-121417500D01*
G75*
G02*
X157262500Y-121917500I0J-500000D01*
G01*
G37*
G36*
G01*
X157262500Y-119377500D02*
X157262500Y-120377500D01*
G75*
G02*
X156762500Y-120877500I-500000J0D01*
G01*
X154262500Y-120877500D01*
G75*
G02*
X153762500Y-120377500I0J500000D01*
G01*
X153762500Y-119377500D01*
G75*
G02*
X154262500Y-118877500I500000J0D01*
G01*
X156762500Y-118877500D01*
G75*
G02*
X157262500Y-119377500I0J-500000D01*
G01*
G37*
G36*
G01*
X157262500Y-116837500D02*
X157262500Y-117837500D01*
G75*
G02*
X156762500Y-118337500I-500000J0D01*
G01*
X154262500Y-118337500D01*
G75*
G02*
X153762500Y-117837500I0J500000D01*
G01*
X153762500Y-116837500D01*
G75*
G02*
X154262500Y-116337500I500000J0D01*
G01*
X156762500Y-116337500D01*
G75*
G02*
X157262500Y-116837500I0J-500000D01*
G01*
G37*
G36*
G01*
X157262500Y-114297500D02*
X157262500Y-115297500D01*
G75*
G02*
X156762500Y-115797500I-500000J0D01*
G01*
X154262500Y-115797500D01*
G75*
G02*
X153762500Y-115297500I0J500000D01*
G01*
X153762500Y-114297500D01*
G75*
G02*
X154262500Y-113797500I500000J0D01*
G01*
X156762500Y-113797500D01*
G75*
G02*
X157262500Y-114297500I0J-500000D01*
G01*
G37*
G36*
G01*
X157262500Y-111757500D02*
X157262500Y-112757500D01*
G75*
G02*
X156762500Y-113257500I-500000J0D01*
G01*
X154262500Y-113257500D01*
G75*
G02*
X153762500Y-112757500I0J500000D01*
G01*
X153762500Y-111757500D01*
G75*
G02*
X154262500Y-111257500I500000J0D01*
G01*
X156762500Y-111257500D01*
G75*
G02*
X157262500Y-111757500I0J-500000D01*
G01*
G37*
G36*
G01*
X140752500Y-111757500D02*
X140752500Y-112757500D01*
G75*
G02*
X140252500Y-113257500I-500000J0D01*
G01*
X137752500Y-113257500D01*
G75*
G02*
X137252500Y-112757500I0J500000D01*
G01*
X137252500Y-111757500D01*
G75*
G02*
X137752500Y-111257500I500000J0D01*
G01*
X140252500Y-111257500D01*
G75*
G02*
X140752500Y-111757500I0J-500000D01*
G01*
G37*
G36*
G01*
X140752500Y-114297500D02*
X140752500Y-115297500D01*
G75*
G02*
X140252500Y-115797500I-500000J0D01*
G01*
X137752500Y-115797500D01*
G75*
G02*
X137252500Y-115297500I0J500000D01*
G01*
X137252500Y-114297500D01*
G75*
G02*
X137752500Y-113797500I500000J0D01*
G01*
X140252500Y-113797500D01*
G75*
G02*
X140752500Y-114297500I0J-500000D01*
G01*
G37*
G36*
G01*
X140752500Y-116837500D02*
X140752500Y-117837500D01*
G75*
G02*
X140252500Y-118337500I-500000J0D01*
G01*
X137752500Y-118337500D01*
G75*
G02*
X137252500Y-117837500I0J500000D01*
G01*
X137252500Y-116837500D01*
G75*
G02*
X137752500Y-116337500I500000J0D01*
G01*
X140252500Y-116337500D01*
G75*
G02*
X140752500Y-116837500I0J-500000D01*
G01*
G37*
G36*
G01*
X140752500Y-119377500D02*
X140752500Y-120377500D01*
G75*
G02*
X140252500Y-120877500I-500000J0D01*
G01*
X137752500Y-120877500D01*
G75*
G02*
X137252500Y-120377500I0J500000D01*
G01*
X137252500Y-119377500D01*
G75*
G02*
X137752500Y-118877500I500000J0D01*
G01*
X140252500Y-118877500D01*
G75*
G02*
X140752500Y-119377500I0J-500000D01*
G01*
G37*
G36*
G01*
X140752500Y-121917500D02*
X140752500Y-122917500D01*
G75*
G02*
X140252500Y-123417500I-500000J0D01*
G01*
X137752500Y-123417500D01*
G75*
G02*
X137252500Y-122917500I0J500000D01*
G01*
X137252500Y-121917500D01*
G75*
G02*
X137752500Y-121417500I500000J0D01*
G01*
X140252500Y-121417500D01*
G75*
G02*
X140752500Y-121917500I0J-500000D01*
G01*
G37*
G36*
G01*
X140752500Y-124457500D02*
X140752500Y-125457500D01*
G75*
G02*
X140252500Y-125957500I-500000J0D01*
G01*
X137752500Y-125957500D01*
G75*
G02*
X137252500Y-125457500I0J500000D01*
G01*
X137252500Y-124457500D01*
G75*
G02*
X137752500Y-123957500I500000J0D01*
G01*
X140252500Y-123957500D01*
G75*
G02*
X140752500Y-124457500I0J-500000D01*
G01*
G37*
G36*
G01*
X140752500Y-126997500D02*
X140752500Y-127997500D01*
G75*
G02*
X140252500Y-128497500I-500000J0D01*
G01*
X137752500Y-128497500D01*
G75*
G02*
X137252500Y-127997500I0J500000D01*
G01*
X137252500Y-126997500D01*
G75*
G02*
X137752500Y-126497500I500000J0D01*
G01*
X140252500Y-126497500D01*
G75*
G02*
X140752500Y-126997500I0J-500000D01*
G01*
G37*
G36*
G01*
X140752500Y-129537500D02*
X140752500Y-130537500D01*
G75*
G02*
X140252500Y-131037500I-500000J0D01*
G01*
X137752500Y-131037500D01*
G75*
G02*
X137252500Y-130537500I0J500000D01*
G01*
X137252500Y-129537500D01*
G75*
G02*
X137752500Y-129037500I500000J0D01*
G01*
X140252500Y-129037500D01*
G75*
G02*
X140752500Y-129537500I0J-500000D01*
G01*
G37*
G36*
G01*
X155687500Y-88587500D02*
X155687500Y-89487500D01*
G75*
G02*
X155437500Y-89737500I-250000J0D01*
G01*
X154912500Y-89737500D01*
G75*
G02*
X154662500Y-89487500I0J250000D01*
G01*
X154662500Y-88587500D01*
G75*
G02*
X154912500Y-88337500I250000J0D01*
G01*
X155437500Y-88337500D01*
G75*
G02*
X155687500Y-88587500I0J-250000D01*
G01*
G37*
G36*
G01*
X153862500Y-88587500D02*
X153862500Y-89487500D01*
G75*
G02*
X153612500Y-89737500I-250000J0D01*
G01*
X153087500Y-89737500D01*
G75*
G02*
X152837500Y-89487500I0J250000D01*
G01*
X152837500Y-88587500D01*
G75*
G02*
X153087500Y-88337500I250000J0D01*
G01*
X153612500Y-88337500D01*
G75*
G02*
X153862500Y-88587500I0J-250000D01*
G01*
G37*
G36*
G01*
X138837500Y-101487500D02*
X138837500Y-100587500D01*
G75*
G02*
X139087500Y-100337500I250000J0D01*
G01*
X139612500Y-100337500D01*
G75*
G02*
X139862500Y-100587500I0J-250000D01*
G01*
X139862500Y-101487500D01*
G75*
G02*
X139612500Y-101737500I-250000J0D01*
G01*
X139087500Y-101737500D01*
G75*
G02*
X138837500Y-101487500I0J250000D01*
G01*
G37*
G36*
G01*
X140662500Y-101487500D02*
X140662500Y-100587500D01*
G75*
G02*
X140912500Y-100337500I250000J0D01*
G01*
X141437500Y-100337500D01*
G75*
G02*
X141687500Y-100587500I0J-250000D01*
G01*
X141687500Y-101487500D01*
G75*
G02*
X141437500Y-101737500I-250000J0D01*
G01*
X140912500Y-101737500D01*
G75*
G02*
X140662500Y-101487500I0J250000D01*
G01*
G37*
G36*
G01*
X155687500Y-80587500D02*
X155687500Y-81487500D01*
G75*
G02*
X155437500Y-81737500I-250000J0D01*
G01*
X154912500Y-81737500D01*
G75*
G02*
X154662500Y-81487500I0J250000D01*
G01*
X154662500Y-80587500D01*
G75*
G02*
X154912500Y-80337500I250000J0D01*
G01*
X155437500Y-80337500D01*
G75*
G02*
X155687500Y-80587500I0J-250000D01*
G01*
G37*
G36*
G01*
X153862500Y-80587500D02*
X153862500Y-81487500D01*
G75*
G02*
X153612500Y-81737500I-250000J0D01*
G01*
X153087500Y-81737500D01*
G75*
G02*
X152837500Y-81487500I0J250000D01*
G01*
X152837500Y-80587500D01*
G75*
G02*
X153087500Y-80337500I250000J0D01*
G01*
X153612500Y-80337500D01*
G75*
G02*
X153862500Y-80587500I0J-250000D01*
G01*
G37*
D15*
X164462500Y-92037500D03*
X159462500Y-92037500D03*
G36*
G01*
X161262500Y-93937500D02*
X162462500Y-93937500D01*
G75*
G02*
X162612500Y-94087500I0J-150000D01*
G01*
X162612500Y-95787500D01*
G75*
G02*
X162462500Y-95937500I-150000J0D01*
G01*
X161262500Y-95937500D01*
G75*
G02*
X161112500Y-95787500I0J150000D01*
G01*
X161112500Y-94087500D01*
G75*
G02*
X161262500Y-93937500I150000J0D01*
G01*
G37*
G36*
G01*
X157562500Y-93937500D02*
X158762500Y-93937500D01*
G75*
G02*
X158912500Y-94087500I0J-150000D01*
G01*
X158912500Y-95787500D01*
G75*
G02*
X158762500Y-95937500I-150000J0D01*
G01*
X157562500Y-95937500D01*
G75*
G02*
X157412500Y-95787500I0J150000D01*
G01*
X157412500Y-94087500D01*
G75*
G02*
X157562500Y-93937500I150000J0D01*
G01*
G37*
G36*
G01*
X164962500Y-88137500D02*
X166162500Y-88137500D01*
G75*
G02*
X166312500Y-88287500I0J-150000D01*
G01*
X166312500Y-89987500D01*
G75*
G02*
X166162500Y-90137500I-150000J0D01*
G01*
X164962500Y-90137500D01*
G75*
G02*
X164812500Y-89987500I0J150000D01*
G01*
X164812500Y-88287500D01*
G75*
G02*
X164962500Y-88137500I150000J0D01*
G01*
G37*
G36*
G01*
X164962500Y-93937500D02*
X166162500Y-93937500D01*
G75*
G02*
X166312500Y-94087500I0J-150000D01*
G01*
X166312500Y-95787500D01*
G75*
G02*
X166162500Y-95937500I-150000J0D01*
G01*
X164962500Y-95937500D01*
G75*
G02*
X164812500Y-95787500I0J150000D01*
G01*
X164812500Y-94087500D01*
G75*
G02*
X164962500Y-93937500I150000J0D01*
G01*
G37*
G36*
G01*
X161262500Y-88137500D02*
X162462500Y-88137500D01*
G75*
G02*
X162612500Y-88287500I0J-150000D01*
G01*
X162612500Y-89987500D01*
G75*
G02*
X162462500Y-90137500I-150000J0D01*
G01*
X161262500Y-90137500D01*
G75*
G02*
X161112500Y-89987500I0J150000D01*
G01*
X161112500Y-88287500D01*
G75*
G02*
X161262500Y-88137500I150000J0D01*
G01*
G37*
G36*
G01*
X157562500Y-88137500D02*
X158762500Y-88137500D01*
G75*
G02*
X158912500Y-88287500I0J-150000D01*
G01*
X158912500Y-89987500D01*
G75*
G02*
X158762500Y-90137500I-150000J0D01*
G01*
X157562500Y-90137500D01*
G75*
G02*
X157412500Y-89987500I0J150000D01*
G01*
X157412500Y-88287500D01*
G75*
G02*
X157562500Y-88137500I150000J0D01*
G01*
G37*
X135062500Y-82037500D03*
X130062500Y-82037500D03*
G36*
G01*
X133262500Y-80137500D02*
X132062500Y-80137500D01*
G75*
G02*
X131912500Y-79987500I0J150000D01*
G01*
X131912500Y-78287500D01*
G75*
G02*
X132062500Y-78137500I150000J0D01*
G01*
X133262500Y-78137500D01*
G75*
G02*
X133412500Y-78287500I0J-150000D01*
G01*
X133412500Y-79987500D01*
G75*
G02*
X133262500Y-80137500I-150000J0D01*
G01*
G37*
G36*
G01*
X136962500Y-80137500D02*
X135762500Y-80137500D01*
G75*
G02*
X135612500Y-79987500I0J150000D01*
G01*
X135612500Y-78287500D01*
G75*
G02*
X135762500Y-78137500I150000J0D01*
G01*
X136962500Y-78137500D01*
G75*
G02*
X137112500Y-78287500I0J-150000D01*
G01*
X137112500Y-79987500D01*
G75*
G02*
X136962500Y-80137500I-150000J0D01*
G01*
G37*
G36*
G01*
X129562500Y-85937500D02*
X128362500Y-85937500D01*
G75*
G02*
X128212500Y-85787500I0J150000D01*
G01*
X128212500Y-84087500D01*
G75*
G02*
X128362500Y-83937500I150000J0D01*
G01*
X129562500Y-83937500D01*
G75*
G02*
X129712500Y-84087500I0J-150000D01*
G01*
X129712500Y-85787500D01*
G75*
G02*
X129562500Y-85937500I-150000J0D01*
G01*
G37*
G36*
G01*
X129562500Y-80137500D02*
X128362500Y-80137500D01*
G75*
G02*
X128212500Y-79987500I0J150000D01*
G01*
X128212500Y-78287500D01*
G75*
G02*
X128362500Y-78137500I150000J0D01*
G01*
X129562500Y-78137500D01*
G75*
G02*
X129712500Y-78287500I0J-150000D01*
G01*
X129712500Y-79987500D01*
G75*
G02*
X129562500Y-80137500I-150000J0D01*
G01*
G37*
G36*
G01*
X133262500Y-85937500D02*
X132062500Y-85937500D01*
G75*
G02*
X131912500Y-85787500I0J150000D01*
G01*
X131912500Y-84087500D01*
G75*
G02*
X132062500Y-83937500I150000J0D01*
G01*
X133262500Y-83937500D01*
G75*
G02*
X133412500Y-84087500I0J-150000D01*
G01*
X133412500Y-85787500D01*
G75*
G02*
X133262500Y-85937500I-150000J0D01*
G01*
G37*
G36*
G01*
X136962500Y-85937500D02*
X135762500Y-85937500D01*
G75*
G02*
X135612500Y-85787500I0J150000D01*
G01*
X135612500Y-84087500D01*
G75*
G02*
X135762500Y-83937500I150000J0D01*
G01*
X136962500Y-83937500D01*
G75*
G02*
X137112500Y-84087500I0J-150000D01*
G01*
X137112500Y-85787500D01*
G75*
G02*
X136962500Y-85937500I-150000J0D01*
G01*
G37*
X164462500Y-72037500D03*
X159462500Y-72037500D03*
G36*
G01*
X161262500Y-73937500D02*
X162462500Y-73937500D01*
G75*
G02*
X162612500Y-74087500I0J-150000D01*
G01*
X162612500Y-75787500D01*
G75*
G02*
X162462500Y-75937500I-150000J0D01*
G01*
X161262500Y-75937500D01*
G75*
G02*
X161112500Y-75787500I0J150000D01*
G01*
X161112500Y-74087500D01*
G75*
G02*
X161262500Y-73937500I150000J0D01*
G01*
G37*
G36*
G01*
X157562500Y-73937500D02*
X158762500Y-73937500D01*
G75*
G02*
X158912500Y-74087500I0J-150000D01*
G01*
X158912500Y-75787500D01*
G75*
G02*
X158762500Y-75937500I-150000J0D01*
G01*
X157562500Y-75937500D01*
G75*
G02*
X157412500Y-75787500I0J150000D01*
G01*
X157412500Y-74087500D01*
G75*
G02*
X157562500Y-73937500I150000J0D01*
G01*
G37*
G36*
G01*
X164962500Y-68137500D02*
X166162500Y-68137500D01*
G75*
G02*
X166312500Y-68287500I0J-150000D01*
G01*
X166312500Y-69987500D01*
G75*
G02*
X166162500Y-70137500I-150000J0D01*
G01*
X164962500Y-70137500D01*
G75*
G02*
X164812500Y-69987500I0J150000D01*
G01*
X164812500Y-68287500D01*
G75*
G02*
X164962500Y-68137500I150000J0D01*
G01*
G37*
G36*
G01*
X164962500Y-73937500D02*
X166162500Y-73937500D01*
G75*
G02*
X166312500Y-74087500I0J-150000D01*
G01*
X166312500Y-75787500D01*
G75*
G02*
X166162500Y-75937500I-150000J0D01*
G01*
X164962500Y-75937500D01*
G75*
G02*
X164812500Y-75787500I0J150000D01*
G01*
X164812500Y-74087500D01*
G75*
G02*
X164962500Y-73937500I150000J0D01*
G01*
G37*
G36*
G01*
X161262500Y-68137500D02*
X162462500Y-68137500D01*
G75*
G02*
X162612500Y-68287500I0J-150000D01*
G01*
X162612500Y-69987500D01*
G75*
G02*
X162462500Y-70137500I-150000J0D01*
G01*
X161262500Y-70137500D01*
G75*
G02*
X161112500Y-69987500I0J150000D01*
G01*
X161112500Y-68287500D01*
G75*
G02*
X161262500Y-68137500I150000J0D01*
G01*
G37*
G36*
G01*
X157562500Y-68137500D02*
X158762500Y-68137500D01*
G75*
G02*
X158912500Y-68287500I0J-150000D01*
G01*
X158912500Y-69987500D01*
G75*
G02*
X158762500Y-70137500I-150000J0D01*
G01*
X157562500Y-70137500D01*
G75*
G02*
X157412500Y-69987500I0J150000D01*
G01*
X157412500Y-68287500D01*
G75*
G02*
X157562500Y-68137500I150000J0D01*
G01*
G37*
D14*
X130762500Y-128537500D03*
G36*
G01*
X162037500Y-114487500D02*
X162037500Y-113587500D01*
G75*
G02*
X162287500Y-113337500I250000J0D01*
G01*
X162812500Y-113337500D01*
G75*
G02*
X163062500Y-113587500I0J-250000D01*
G01*
X163062500Y-114487500D01*
G75*
G02*
X162812500Y-114737500I-250000J0D01*
G01*
X162287500Y-114737500D01*
G75*
G02*
X162037500Y-114487500I0J250000D01*
G01*
G37*
G36*
G01*
X163862500Y-114487500D02*
X163862500Y-113587500D01*
G75*
G02*
X164112500Y-113337500I250000J0D01*
G01*
X164637500Y-113337500D01*
G75*
G02*
X164887500Y-113587500I0J-250000D01*
G01*
X164887500Y-114487500D01*
G75*
G02*
X164637500Y-114737500I-250000J0D01*
G01*
X164112500Y-114737500D01*
G75*
G02*
X163862500Y-114487500I0J250000D01*
G01*
G37*
G36*
G01*
X155687500Y-78587500D02*
X155687500Y-79487500D01*
G75*
G02*
X155437500Y-79737500I-250000J0D01*
G01*
X154912500Y-79737500D01*
G75*
G02*
X154662500Y-79487500I0J250000D01*
G01*
X154662500Y-78587500D01*
G75*
G02*
X154912500Y-78337500I250000J0D01*
G01*
X155437500Y-78337500D01*
G75*
G02*
X155687500Y-78587500I0J-250000D01*
G01*
G37*
G36*
G01*
X153862500Y-78587500D02*
X153862500Y-79487500D01*
G75*
G02*
X153612500Y-79737500I-250000J0D01*
G01*
X153087500Y-79737500D01*
G75*
G02*
X152837500Y-79487500I0J250000D01*
G01*
X152837500Y-78587500D01*
G75*
G02*
X153087500Y-78337500I250000J0D01*
G01*
X153612500Y-78337500D01*
G75*
G02*
X153862500Y-78587500I0J-250000D01*
G01*
G37*
G36*
G01*
X140137500Y-91662500D02*
X139187500Y-91662500D01*
G75*
G02*
X138937500Y-91412500I0J250000D01*
G01*
X138937500Y-90737500D01*
G75*
G02*
X139187500Y-90487500I250000J0D01*
G01*
X140137500Y-90487500D01*
G75*
G02*
X140387500Y-90737500I0J-250000D01*
G01*
X140387500Y-91412500D01*
G75*
G02*
X140137500Y-91662500I-250000J0D01*
G01*
G37*
G36*
G01*
X140137500Y-89587500D02*
X139187500Y-89587500D01*
G75*
G02*
X138937500Y-89337500I0J250000D01*
G01*
X138937500Y-88662500D01*
G75*
G02*
X139187500Y-88412500I250000J0D01*
G01*
X140137500Y-88412500D01*
G75*
G02*
X140387500Y-88662500I0J-250000D01*
G01*
X140387500Y-89337500D01*
G75*
G02*
X140137500Y-89587500I-250000J0D01*
G01*
G37*
G36*
G01*
X140137500Y-81662500D02*
X139187500Y-81662500D01*
G75*
G02*
X138937500Y-81412500I0J250000D01*
G01*
X138937500Y-80737500D01*
G75*
G02*
X139187500Y-80487500I250000J0D01*
G01*
X140137500Y-80487500D01*
G75*
G02*
X140387500Y-80737500I0J-250000D01*
G01*
X140387500Y-81412500D01*
G75*
G02*
X140137500Y-81662500I-250000J0D01*
G01*
G37*
G36*
G01*
X140137500Y-79587500D02*
X139187500Y-79587500D01*
G75*
G02*
X138937500Y-79337500I0J250000D01*
G01*
X138937500Y-78662500D01*
G75*
G02*
X139187500Y-78412500I250000J0D01*
G01*
X140137500Y-78412500D01*
G75*
G02*
X140387500Y-78662500I0J-250000D01*
G01*
X140387500Y-79337500D01*
G75*
G02*
X140137500Y-79587500I-250000J0D01*
G01*
G37*
D16*
X130012500Y-116057500D03*
X130012500Y-124017500D03*
X134512500Y-124017500D03*
X134512500Y-116057500D03*
G36*
G01*
X154387500Y-92412500D02*
X155337500Y-92412500D01*
G75*
G02*
X155587500Y-92662500I0J-250000D01*
G01*
X155587500Y-93337500D01*
G75*
G02*
X155337500Y-93587500I-250000J0D01*
G01*
X154387500Y-93587500D01*
G75*
G02*
X154137500Y-93337500I0J250000D01*
G01*
X154137500Y-92662500D01*
G75*
G02*
X154387500Y-92412500I250000J0D01*
G01*
G37*
G36*
G01*
X154387500Y-94487500D02*
X155337500Y-94487500D01*
G75*
G02*
X155587500Y-94737500I0J-250000D01*
G01*
X155587500Y-95412500D01*
G75*
G02*
X155337500Y-95662500I-250000J0D01*
G01*
X154387500Y-95662500D01*
G75*
G02*
X154137500Y-95412500I0J250000D01*
G01*
X154137500Y-94737500D01*
G75*
G02*
X154387500Y-94487500I250000J0D01*
G01*
G37*
X164512500Y-116057500D03*
X164512500Y-124017500D03*
X160012500Y-124017500D03*
X160012500Y-116057500D03*
G36*
G01*
X140137500Y-72462500D02*
X139187500Y-72462500D01*
G75*
G02*
X138937500Y-72212500I0J250000D01*
G01*
X138937500Y-71537500D01*
G75*
G02*
X139187500Y-71287500I250000J0D01*
G01*
X140137500Y-71287500D01*
G75*
G02*
X140387500Y-71537500I0J-250000D01*
G01*
X140387500Y-72212500D01*
G75*
G02*
X140137500Y-72462500I-250000J0D01*
G01*
G37*
G36*
G01*
X140137500Y-70387500D02*
X139187500Y-70387500D01*
G75*
G02*
X138937500Y-70137500I0J250000D01*
G01*
X138937500Y-69462500D01*
G75*
G02*
X139187500Y-69212500I250000J0D01*
G01*
X140137500Y-69212500D01*
G75*
G02*
X140387500Y-69462500I0J-250000D01*
G01*
X140387500Y-70137500D01*
G75*
G02*
X140137500Y-70387500I-250000J0D01*
G01*
G37*
D15*
X159462500Y-102037500D03*
X164462500Y-102037500D03*
G36*
G01*
X161262500Y-103937500D02*
X162462500Y-103937500D01*
G75*
G02*
X162612500Y-104087500I0J-150000D01*
G01*
X162612500Y-105787500D01*
G75*
G02*
X162462500Y-105937500I-150000J0D01*
G01*
X161262500Y-105937500D01*
G75*
G02*
X161112500Y-105787500I0J150000D01*
G01*
X161112500Y-104087500D01*
G75*
G02*
X161262500Y-103937500I150000J0D01*
G01*
G37*
G36*
G01*
X157562500Y-103937500D02*
X158762500Y-103937500D01*
G75*
G02*
X158912500Y-104087500I0J-150000D01*
G01*
X158912500Y-105787500D01*
G75*
G02*
X158762500Y-105937500I-150000J0D01*
G01*
X157562500Y-105937500D01*
G75*
G02*
X157412500Y-105787500I0J150000D01*
G01*
X157412500Y-104087500D01*
G75*
G02*
X157562500Y-103937500I150000J0D01*
G01*
G37*
G36*
G01*
X164962500Y-98137500D02*
X166162500Y-98137500D01*
G75*
G02*
X166312500Y-98287500I0J-150000D01*
G01*
X166312500Y-99987500D01*
G75*
G02*
X166162500Y-100137500I-150000J0D01*
G01*
X164962500Y-100137500D01*
G75*
G02*
X164812500Y-99987500I0J150000D01*
G01*
X164812500Y-98287500D01*
G75*
G02*
X164962500Y-98137500I150000J0D01*
G01*
G37*
G36*
G01*
X164962500Y-103937500D02*
X166162500Y-103937500D01*
G75*
G02*
X166312500Y-104087500I0J-150000D01*
G01*
X166312500Y-105787500D01*
G75*
G02*
X166162500Y-105937500I-150000J0D01*
G01*
X164962500Y-105937500D01*
G75*
G02*
X164812500Y-105787500I0J150000D01*
G01*
X164812500Y-104087500D01*
G75*
G02*
X164962500Y-103937500I150000J0D01*
G01*
G37*
G36*
G01*
X161262500Y-98137500D02*
X162462500Y-98137500D01*
G75*
G02*
X162612500Y-98287500I0J-150000D01*
G01*
X162612500Y-99987500D01*
G75*
G02*
X162462500Y-100137500I-150000J0D01*
G01*
X161262500Y-100137500D01*
G75*
G02*
X161112500Y-99987500I0J150000D01*
G01*
X161112500Y-98287500D01*
G75*
G02*
X161262500Y-98137500I150000J0D01*
G01*
G37*
G36*
G01*
X157562500Y-98137500D02*
X158762500Y-98137500D01*
G75*
G02*
X158912500Y-98287500I0J-150000D01*
G01*
X158912500Y-99987500D01*
G75*
G02*
X158762500Y-100137500I-150000J0D01*
G01*
X157562500Y-100137500D01*
G75*
G02*
X157412500Y-99987500I0J150000D01*
G01*
X157412500Y-98287500D01*
G75*
G02*
X157562500Y-98137500I150000J0D01*
G01*
G37*
G36*
G01*
X143062500Y-97912500D02*
X142762500Y-97912500D01*
G75*
G02*
X142612500Y-97762500I0J150000D01*
G01*
X142612500Y-96587500D01*
G75*
G02*
X142762500Y-96437500I150000J0D01*
G01*
X143062500Y-96437500D01*
G75*
G02*
X143212500Y-96587500I0J-150000D01*
G01*
X143212500Y-97762500D01*
G75*
G02*
X143062500Y-97912500I-150000J0D01*
G01*
G37*
G36*
G01*
X144962500Y-97912500D02*
X144662500Y-97912500D01*
G75*
G02*
X144512500Y-97762500I0J150000D01*
G01*
X144512500Y-96587500D01*
G75*
G02*
X144662500Y-96437500I150000J0D01*
G01*
X144962500Y-96437500D01*
G75*
G02*
X145112500Y-96587500I0J-150000D01*
G01*
X145112500Y-97762500D01*
G75*
G02*
X144962500Y-97912500I-150000J0D01*
G01*
G37*
G36*
G01*
X144012500Y-96037500D02*
X143712500Y-96037500D01*
G75*
G02*
X143562500Y-95887500I0J150000D01*
G01*
X143562500Y-94712500D01*
G75*
G02*
X143712500Y-94562500I150000J0D01*
G01*
X144012500Y-94562500D01*
G75*
G02*
X144162500Y-94712500I0J-150000D01*
G01*
X144162500Y-95887500D01*
G75*
G02*
X144012500Y-96037500I-150000J0D01*
G01*
G37*
G36*
G01*
X151460436Y-80587500D02*
X151460436Y-81487500D01*
G75*
G02*
X151210436Y-81737500I-250000J0D01*
G01*
X150685436Y-81737500D01*
G75*
G02*
X150435436Y-81487500I0J250000D01*
G01*
X150435436Y-80587500D01*
G75*
G02*
X150685436Y-80337500I250000J0D01*
G01*
X151210436Y-80337500D01*
G75*
G02*
X151460436Y-80587500I0J-250000D01*
G01*
G37*
G36*
G01*
X149635436Y-80587500D02*
X149635436Y-81487500D01*
G75*
G02*
X149385436Y-81737500I-250000J0D01*
G01*
X148860436Y-81737500D01*
G75*
G02*
X148610436Y-81487500I0J250000D01*
G01*
X148610436Y-80587500D01*
G75*
G02*
X148860436Y-80337500I250000J0D01*
G01*
X149385436Y-80337500D01*
G75*
G02*
X149635436Y-80587500I0J-250000D01*
G01*
G37*
G36*
G01*
X155687500Y-98587500D02*
X155687500Y-99487500D01*
G75*
G02*
X155437500Y-99737500I-250000J0D01*
G01*
X154912500Y-99737500D01*
G75*
G02*
X154662500Y-99487500I0J250000D01*
G01*
X154662500Y-98587500D01*
G75*
G02*
X154912500Y-98337500I250000J0D01*
G01*
X155437500Y-98337500D01*
G75*
G02*
X155687500Y-98587500I0J-250000D01*
G01*
G37*
G36*
G01*
X153862500Y-98587500D02*
X153862500Y-99487500D01*
G75*
G02*
X153612500Y-99737500I-250000J0D01*
G01*
X153087500Y-99737500D01*
G75*
G02*
X152837500Y-99487500I0J250000D01*
G01*
X152837500Y-98587500D01*
G75*
G02*
X153087500Y-98337500I250000J0D01*
G01*
X153612500Y-98337500D01*
G75*
G02*
X153862500Y-98587500I0J-250000D01*
G01*
G37*
X130062500Y-102037500D03*
X135062500Y-102037500D03*
G36*
G01*
X133262500Y-100137500D02*
X132062500Y-100137500D01*
G75*
G02*
X131912500Y-99987500I0J150000D01*
G01*
X131912500Y-98287500D01*
G75*
G02*
X132062500Y-98137500I150000J0D01*
G01*
X133262500Y-98137500D01*
G75*
G02*
X133412500Y-98287500I0J-150000D01*
G01*
X133412500Y-99987500D01*
G75*
G02*
X133262500Y-100137500I-150000J0D01*
G01*
G37*
G36*
G01*
X136962500Y-100137500D02*
X135762500Y-100137500D01*
G75*
G02*
X135612500Y-99987500I0J150000D01*
G01*
X135612500Y-98287500D01*
G75*
G02*
X135762500Y-98137500I150000J0D01*
G01*
X136962500Y-98137500D01*
G75*
G02*
X137112500Y-98287500I0J-150000D01*
G01*
X137112500Y-99987500D01*
G75*
G02*
X136962500Y-100137500I-150000J0D01*
G01*
G37*
G36*
G01*
X129562500Y-105937500D02*
X128362500Y-105937500D01*
G75*
G02*
X128212500Y-105787500I0J150000D01*
G01*
X128212500Y-104087500D01*
G75*
G02*
X128362500Y-103937500I150000J0D01*
G01*
X129562500Y-103937500D01*
G75*
G02*
X129712500Y-104087500I0J-150000D01*
G01*
X129712500Y-105787500D01*
G75*
G02*
X129562500Y-105937500I-150000J0D01*
G01*
G37*
G36*
G01*
X129562500Y-100137500D02*
X128362500Y-100137500D01*
G75*
G02*
X128212500Y-99987500I0J150000D01*
G01*
X128212500Y-98287500D01*
G75*
G02*
X128362500Y-98137500I150000J0D01*
G01*
X129562500Y-98137500D01*
G75*
G02*
X129712500Y-98287500I0J-150000D01*
G01*
X129712500Y-99987500D01*
G75*
G02*
X129562500Y-100137500I-150000J0D01*
G01*
G37*
G36*
G01*
X133262500Y-105937500D02*
X132062500Y-105937500D01*
G75*
G02*
X131912500Y-105787500I0J150000D01*
G01*
X131912500Y-104087500D01*
G75*
G02*
X132062500Y-103937500I150000J0D01*
G01*
X133262500Y-103937500D01*
G75*
G02*
X133412500Y-104087500I0J-150000D01*
G01*
X133412500Y-105787500D01*
G75*
G02*
X133262500Y-105937500I-150000J0D01*
G01*
G37*
G36*
G01*
X136962500Y-105937500D02*
X135762500Y-105937500D01*
G75*
G02*
X135612500Y-105787500I0J150000D01*
G01*
X135612500Y-104087500D01*
G75*
G02*
X135762500Y-103937500I150000J0D01*
G01*
X136962500Y-103937500D01*
G75*
G02*
X137112500Y-104087500I0J-150000D01*
G01*
X137112500Y-105787500D01*
G75*
G02*
X136962500Y-105937500I-150000J0D01*
G01*
G37*
X164462500Y-82037500D03*
X159462500Y-82037500D03*
G36*
G01*
X161262500Y-83937500D02*
X162462500Y-83937500D01*
G75*
G02*
X162612500Y-84087500I0J-150000D01*
G01*
X162612500Y-85787500D01*
G75*
G02*
X162462500Y-85937500I-150000J0D01*
G01*
X161262500Y-85937500D01*
G75*
G02*
X161112500Y-85787500I0J150000D01*
G01*
X161112500Y-84087500D01*
G75*
G02*
X161262500Y-83937500I150000J0D01*
G01*
G37*
G36*
G01*
X157562500Y-83937500D02*
X158762500Y-83937500D01*
G75*
G02*
X158912500Y-84087500I0J-150000D01*
G01*
X158912500Y-85787500D01*
G75*
G02*
X158762500Y-85937500I-150000J0D01*
G01*
X157562500Y-85937500D01*
G75*
G02*
X157412500Y-85787500I0J150000D01*
G01*
X157412500Y-84087500D01*
G75*
G02*
X157562500Y-83937500I150000J0D01*
G01*
G37*
G36*
G01*
X164962500Y-78137500D02*
X166162500Y-78137500D01*
G75*
G02*
X166312500Y-78287500I0J-150000D01*
G01*
X166312500Y-79987500D01*
G75*
G02*
X166162500Y-80137500I-150000J0D01*
G01*
X164962500Y-80137500D01*
G75*
G02*
X164812500Y-79987500I0J150000D01*
G01*
X164812500Y-78287500D01*
G75*
G02*
X164962500Y-78137500I150000J0D01*
G01*
G37*
G36*
G01*
X164962500Y-83937500D02*
X166162500Y-83937500D01*
G75*
G02*
X166312500Y-84087500I0J-150000D01*
G01*
X166312500Y-85787500D01*
G75*
G02*
X166162500Y-85937500I-150000J0D01*
G01*
X164962500Y-85937500D01*
G75*
G02*
X164812500Y-85787500I0J150000D01*
G01*
X164812500Y-84087500D01*
G75*
G02*
X164962500Y-83937500I150000J0D01*
G01*
G37*
G36*
G01*
X161262500Y-78137500D02*
X162462500Y-78137500D01*
G75*
G02*
X162612500Y-78287500I0J-150000D01*
G01*
X162612500Y-79987500D01*
G75*
G02*
X162462500Y-80137500I-150000J0D01*
G01*
X161262500Y-80137500D01*
G75*
G02*
X161112500Y-79987500I0J150000D01*
G01*
X161112500Y-78287500D01*
G75*
G02*
X161262500Y-78137500I150000J0D01*
G01*
G37*
G36*
G01*
X157562500Y-78137500D02*
X158762500Y-78137500D01*
G75*
G02*
X158912500Y-78287500I0J-150000D01*
G01*
X158912500Y-79987500D01*
G75*
G02*
X158762500Y-80137500I-150000J0D01*
G01*
X157562500Y-80137500D01*
G75*
G02*
X157412500Y-79987500I0J150000D01*
G01*
X157412500Y-78287500D01*
G75*
G02*
X157562500Y-78137500I150000J0D01*
G01*
G37*
G36*
G01*
X155687500Y-90587500D02*
X155687500Y-91487500D01*
G75*
G02*
X155437500Y-91737500I-250000J0D01*
G01*
X154912500Y-91737500D01*
G75*
G02*
X154662500Y-91487500I0J250000D01*
G01*
X154662500Y-90587500D01*
G75*
G02*
X154912500Y-90337500I250000J0D01*
G01*
X155437500Y-90337500D01*
G75*
G02*
X155687500Y-90587500I0J-250000D01*
G01*
G37*
G36*
G01*
X153862500Y-90587500D02*
X153862500Y-91487500D01*
G75*
G02*
X153612500Y-91737500I-250000J0D01*
G01*
X153087500Y-91737500D01*
G75*
G02*
X152837500Y-91487500I0J250000D01*
G01*
X152837500Y-90587500D01*
G75*
G02*
X153087500Y-90337500I250000J0D01*
G01*
X153612500Y-90337500D01*
G75*
G02*
X153862500Y-90587500I0J-250000D01*
G01*
G37*
G36*
G01*
X138837500Y-76287500D02*
X138837500Y-75387500D01*
G75*
G02*
X139087500Y-75137500I250000J0D01*
G01*
X139612500Y-75137500D01*
G75*
G02*
X139862500Y-75387500I0J-250000D01*
G01*
X139862500Y-76287500D01*
G75*
G02*
X139612500Y-76537500I-250000J0D01*
G01*
X139087500Y-76537500D01*
G75*
G02*
X138837500Y-76287500I0J250000D01*
G01*
G37*
G36*
G01*
X140662500Y-76287500D02*
X140662500Y-75387500D01*
G75*
G02*
X140912500Y-75137500I250000J0D01*
G01*
X141437500Y-75137500D01*
G75*
G02*
X141687500Y-75387500I0J-250000D01*
G01*
X141687500Y-76287500D01*
G75*
G02*
X141437500Y-76537500I-250000J0D01*
G01*
X140912500Y-76537500D01*
G75*
G02*
X140662500Y-76287500I0J250000D01*
G01*
G37*
D14*
X147262500Y-103037500D03*
G36*
X150012500Y-75287500D02*
G01*
X150562500Y-75287500D01*
X150562500Y-75292467D01*
X150642441Y-75293932D01*
X150777756Y-75336207D01*
X150895766Y-75414762D01*
X150986986Y-75523281D01*
X151044081Y-75653040D01*
X151061664Y-75787500D01*
X151062500Y-75787500D01*
X151062500Y-76287500D01*
X151061664Y-76287500D01*
X151062463Y-76293609D01*
X151040652Y-76433686D01*
X150980404Y-76562011D01*
X150886560Y-76668269D01*
X150766665Y-76743917D01*
X150630358Y-76782874D01*
X150562500Y-76782459D01*
X150562500Y-76787500D01*
X150012500Y-76787500D01*
X150012500Y-75287500D01*
G37*
D17*
X149262500Y-76037500D03*
G36*
X147962500Y-76782459D02*
G01*
X147888595Y-76782008D01*
X147752774Y-76741389D01*
X147633812Y-76664282D01*
X147541274Y-76556885D01*
X147482597Y-76427833D01*
X147462500Y-76287500D01*
X147462500Y-75787500D01*
X147462649Y-75775284D01*
X147486169Y-75635483D01*
X147547981Y-75507904D01*
X147643116Y-75402800D01*
X147763926Y-75328623D01*
X147900699Y-75291334D01*
X147962500Y-75292467D01*
X147962500Y-75287500D01*
X148512500Y-75287500D01*
X148512500Y-76787500D01*
X147962500Y-76787500D01*
X147962500Y-76782459D01*
G37*
D15*
X135062500Y-92037500D03*
X130062500Y-92037500D03*
G36*
G01*
X133262500Y-90137500D02*
X132062500Y-90137500D01*
G75*
G02*
X131912500Y-89987500I0J150000D01*
G01*
X131912500Y-88287500D01*
G75*
G02*
X132062500Y-88137500I150000J0D01*
G01*
X133262500Y-88137500D01*
G75*
G02*
X133412500Y-88287500I0J-150000D01*
G01*
X133412500Y-89987500D01*
G75*
G02*
X133262500Y-90137500I-150000J0D01*
G01*
G37*
G36*
G01*
X136962500Y-90137500D02*
X135762500Y-90137500D01*
G75*
G02*
X135612500Y-89987500I0J150000D01*
G01*
X135612500Y-88287500D01*
G75*
G02*
X135762500Y-88137500I150000J0D01*
G01*
X136962500Y-88137500D01*
G75*
G02*
X137112500Y-88287500I0J-150000D01*
G01*
X137112500Y-89987500D01*
G75*
G02*
X136962500Y-90137500I-150000J0D01*
G01*
G37*
G36*
G01*
X129562500Y-95937500D02*
X128362500Y-95937500D01*
G75*
G02*
X128212500Y-95787500I0J150000D01*
G01*
X128212500Y-94087500D01*
G75*
G02*
X128362500Y-93937500I150000J0D01*
G01*
X129562500Y-93937500D01*
G75*
G02*
X129712500Y-94087500I0J-150000D01*
G01*
X129712500Y-95787500D01*
G75*
G02*
X129562500Y-95937500I-150000J0D01*
G01*
G37*
G36*
G01*
X129562500Y-90137500D02*
X128362500Y-90137500D01*
G75*
G02*
X128212500Y-89987500I0J150000D01*
G01*
X128212500Y-88287500D01*
G75*
G02*
X128362500Y-88137500I150000J0D01*
G01*
X129562500Y-88137500D01*
G75*
G02*
X129712500Y-88287500I0J-150000D01*
G01*
X129712500Y-89987500D01*
G75*
G02*
X129562500Y-90137500I-150000J0D01*
G01*
G37*
G36*
G01*
X133262500Y-95937500D02*
X132062500Y-95937500D01*
G75*
G02*
X131912500Y-95787500I0J150000D01*
G01*
X131912500Y-94087500D01*
G75*
G02*
X132062500Y-93937500I150000J0D01*
G01*
X133262500Y-93937500D01*
G75*
G02*
X133412500Y-94087500I0J-150000D01*
G01*
X133412500Y-95787500D01*
G75*
G02*
X133262500Y-95937500I-150000J0D01*
G01*
G37*
G36*
G01*
X136962500Y-95937500D02*
X135762500Y-95937500D01*
G75*
G02*
X135612500Y-95787500I0J150000D01*
G01*
X135612500Y-94087500D01*
G75*
G02*
X135762500Y-93937500I150000J0D01*
G01*
X136962500Y-93937500D01*
G75*
G02*
X137112500Y-94087500I0J-150000D01*
G01*
X137112500Y-95787500D01*
G75*
G02*
X136962500Y-95937500I-150000J0D01*
G01*
G37*
G36*
G01*
X154387500Y-72412500D02*
X155337500Y-72412500D01*
G75*
G02*
X155587500Y-72662500I0J-250000D01*
G01*
X155587500Y-73337500D01*
G75*
G02*
X155337500Y-73587500I-250000J0D01*
G01*
X154387500Y-73587500D01*
G75*
G02*
X154137500Y-73337500I0J250000D01*
G01*
X154137500Y-72662500D01*
G75*
G02*
X154387500Y-72412500I250000J0D01*
G01*
G37*
G36*
G01*
X154387500Y-74487500D02*
X155337500Y-74487500D01*
G75*
G02*
X155587500Y-74737500I0J-250000D01*
G01*
X155587500Y-75412500D01*
G75*
G02*
X155337500Y-75662500I-250000J0D01*
G01*
X154387500Y-75662500D01*
G75*
G02*
X154137500Y-75412500I0J250000D01*
G01*
X154137500Y-74737500D01*
G75*
G02*
X154387500Y-74487500I250000J0D01*
G01*
G37*
X130062500Y-72037500D03*
X135062500Y-72037500D03*
G36*
G01*
X133262500Y-70137500D02*
X132062500Y-70137500D01*
G75*
G02*
X131912500Y-69987500I0J150000D01*
G01*
X131912500Y-68287500D01*
G75*
G02*
X132062500Y-68137500I150000J0D01*
G01*
X133262500Y-68137500D01*
G75*
G02*
X133412500Y-68287500I0J-150000D01*
G01*
X133412500Y-69987500D01*
G75*
G02*
X133262500Y-70137500I-150000J0D01*
G01*
G37*
G36*
G01*
X136962500Y-70137500D02*
X135762500Y-70137500D01*
G75*
G02*
X135612500Y-69987500I0J150000D01*
G01*
X135612500Y-68287500D01*
G75*
G02*
X135762500Y-68137500I150000J0D01*
G01*
X136962500Y-68137500D01*
G75*
G02*
X137112500Y-68287500I0J-150000D01*
G01*
X137112500Y-69987500D01*
G75*
G02*
X136962500Y-70137500I-150000J0D01*
G01*
G37*
G36*
G01*
X129562500Y-75937500D02*
X128362500Y-75937500D01*
G75*
G02*
X128212500Y-75787500I0J150000D01*
G01*
X128212500Y-74087500D01*
G75*
G02*
X128362500Y-73937500I150000J0D01*
G01*
X129562500Y-73937500D01*
G75*
G02*
X129712500Y-74087500I0J-150000D01*
G01*
X129712500Y-75787500D01*
G75*
G02*
X129562500Y-75937500I-150000J0D01*
G01*
G37*
G36*
G01*
X129562500Y-70137500D02*
X128362500Y-70137500D01*
G75*
G02*
X128212500Y-69987500I0J150000D01*
G01*
X128212500Y-68287500D01*
G75*
G02*
X128362500Y-68137500I150000J0D01*
G01*
X129562500Y-68137500D01*
G75*
G02*
X129712500Y-68287500I0J-150000D01*
G01*
X129712500Y-69987500D01*
G75*
G02*
X129562500Y-70137500I-150000J0D01*
G01*
G37*
G36*
G01*
X133262500Y-75937500D02*
X132062500Y-75937500D01*
G75*
G02*
X131912500Y-75787500I0J150000D01*
G01*
X131912500Y-74087500D01*
G75*
G02*
X132062500Y-73937500I150000J0D01*
G01*
X133262500Y-73937500D01*
G75*
G02*
X133412500Y-74087500I0J-150000D01*
G01*
X133412500Y-75787500D01*
G75*
G02*
X133262500Y-75937500I-150000J0D01*
G01*
G37*
G36*
G01*
X136962500Y-75937500D02*
X135762500Y-75937500D01*
G75*
G02*
X135612500Y-75787500I0J150000D01*
G01*
X135612500Y-74087500D01*
G75*
G02*
X135762500Y-73937500I150000J0D01*
G01*
X136962500Y-73937500D01*
G75*
G02*
X137112500Y-74087500I0J-150000D01*
G01*
X137112500Y-75787500D01*
G75*
G02*
X136962500Y-75937500I-150000J0D01*
G01*
G37*
G36*
G01*
X151414564Y-84087500D02*
X151414564Y-84987500D01*
G75*
G02*
X151164564Y-85237500I-250000J0D01*
G01*
X150639564Y-85237500D01*
G75*
G02*
X150389564Y-84987500I0J250000D01*
G01*
X150389564Y-84087500D01*
G75*
G02*
X150639564Y-83837500I250000J0D01*
G01*
X151164564Y-83837500D01*
G75*
G02*
X151414564Y-84087500I0J-250000D01*
G01*
G37*
G36*
G01*
X149589564Y-84087500D02*
X149589564Y-84987500D01*
G75*
G02*
X149339564Y-85237500I-250000J0D01*
G01*
X148814564Y-85237500D01*
G75*
G02*
X148564564Y-84987500I0J250000D01*
G01*
X148564564Y-84087500D01*
G75*
G02*
X148814564Y-83837500I250000J0D01*
G01*
X149339564Y-83837500D01*
G75*
G02*
X149589564Y-84087500I0J-250000D01*
G01*
G37*
D18*
X143262500Y-71005500D03*
X145802500Y-71005500D03*
X148342500Y-71005500D03*
X150882500Y-71005500D03*
G36*
G01*
X143137500Y-81512500D02*
X143137500Y-80562500D01*
G75*
G02*
X143387500Y-80312500I250000J0D01*
G01*
X144062500Y-80312500D01*
G75*
G02*
X144312500Y-80562500I0J-250000D01*
G01*
X144312500Y-81512500D01*
G75*
G02*
X144062500Y-81762500I-250000J0D01*
G01*
X143387500Y-81762500D01*
G75*
G02*
X143137500Y-81512500I0J250000D01*
G01*
G37*
G36*
G01*
X145212500Y-81512500D02*
X145212500Y-80562500D01*
G75*
G02*
X145462500Y-80312500I250000J0D01*
G01*
X146137500Y-80312500D01*
G75*
G02*
X146387500Y-80562500I0J-250000D01*
G01*
X146387500Y-81512500D01*
G75*
G02*
X146137500Y-81762500I-250000J0D01*
G01*
X145462500Y-81762500D01*
G75*
G02*
X145212500Y-81512500I0J250000D01*
G01*
G37*
G36*
G01*
X140137500Y-99662500D02*
X139187500Y-99662500D01*
G75*
G02*
X138937500Y-99412500I0J250000D01*
G01*
X138937500Y-98737500D01*
G75*
G02*
X139187500Y-98487500I250000J0D01*
G01*
X140137500Y-98487500D01*
G75*
G02*
X140387500Y-98737500I0J-250000D01*
G01*
X140387500Y-99412500D01*
G75*
G02*
X140137500Y-99662500I-250000J0D01*
G01*
G37*
G36*
G01*
X140137500Y-97587500D02*
X139187500Y-97587500D01*
G75*
G02*
X138937500Y-97337500I0J250000D01*
G01*
X138937500Y-96662500D01*
G75*
G02*
X139187500Y-96412500I250000J0D01*
G01*
X140137500Y-96412500D01*
G75*
G02*
X140387500Y-96662500I0J-250000D01*
G01*
X140387500Y-97337500D01*
G75*
G02*
X140137500Y-97587500I-250000J0D01*
G01*
G37*
G36*
G01*
X152637500Y-97512500D02*
X152637500Y-96562500D01*
G75*
G02*
X152887500Y-96312500I250000J0D01*
G01*
X153562500Y-96312500D01*
G75*
G02*
X153812500Y-96562500I0J-250000D01*
G01*
X153812500Y-97512500D01*
G75*
G02*
X153562500Y-97762500I-250000J0D01*
G01*
X152887500Y-97762500D01*
G75*
G02*
X152637500Y-97512500I0J250000D01*
G01*
G37*
G36*
G01*
X154712500Y-97512500D02*
X154712500Y-96562500D01*
G75*
G02*
X154962500Y-96312500I250000J0D01*
G01*
X155637500Y-96312500D01*
G75*
G02*
X155887500Y-96562500I0J-250000D01*
G01*
X155887500Y-97512500D01*
G75*
G02*
X155637500Y-97762500I-250000J0D01*
G01*
X154962500Y-97762500D01*
G75*
G02*
X154712500Y-97512500I0J250000D01*
G01*
G37*
G36*
G01*
X138837500Y-83487500D02*
X138837500Y-82587500D01*
G75*
G02*
X139087500Y-82337500I250000J0D01*
G01*
X139612500Y-82337500D01*
G75*
G02*
X139862500Y-82587500I0J-250000D01*
G01*
X139862500Y-83487500D01*
G75*
G02*
X139612500Y-83737500I-250000J0D01*
G01*
X139087500Y-83737500D01*
G75*
G02*
X138837500Y-83487500I0J250000D01*
G01*
G37*
G36*
G01*
X140662500Y-83487500D02*
X140662500Y-82587500D01*
G75*
G02*
X140912500Y-82337500I250000J0D01*
G01*
X141437500Y-82337500D01*
G75*
G02*
X141687500Y-82587500I0J-250000D01*
G01*
X141687500Y-83487500D01*
G75*
G02*
X141437500Y-83737500I-250000J0D01*
G01*
X140912500Y-83737500D01*
G75*
G02*
X140662500Y-83487500I0J250000D01*
G01*
G37*
G36*
X145012500Y-75287500D02*
G01*
X145562500Y-75287500D01*
X145562500Y-75292467D01*
X145642441Y-75293932D01*
X145777756Y-75336207D01*
X145895766Y-75414762D01*
X145986986Y-75523281D01*
X146044081Y-75653040D01*
X146061664Y-75787500D01*
X146062500Y-75787500D01*
X146062500Y-76287500D01*
X146061664Y-76287500D01*
X146062463Y-76293609D01*
X146040652Y-76433686D01*
X145980404Y-76562011D01*
X145886560Y-76668269D01*
X145766665Y-76743917D01*
X145630358Y-76782874D01*
X145562500Y-76782459D01*
X145562500Y-76787500D01*
X145012500Y-76787500D01*
X145012500Y-75287500D01*
G37*
D17*
X144262500Y-76037500D03*
G36*
X142962500Y-76782459D02*
G01*
X142888595Y-76782008D01*
X142752774Y-76741389D01*
X142633812Y-76664282D01*
X142541274Y-76556885D01*
X142482597Y-76427833D01*
X142462500Y-76287500D01*
X142462500Y-75787500D01*
X142462649Y-75775284D01*
X142486169Y-75635483D01*
X142547981Y-75507904D01*
X142643116Y-75402800D01*
X142763926Y-75328623D01*
X142900699Y-75291334D01*
X142962500Y-75292467D01*
X142962500Y-75287500D01*
X143512500Y-75287500D01*
X143512500Y-76787500D01*
X142962500Y-76787500D01*
X142962500Y-76782459D01*
G37*
G36*
G01*
X155687500Y-68587500D02*
X155687500Y-69487500D01*
G75*
G02*
X155437500Y-69737500I-250000J0D01*
G01*
X154912500Y-69737500D01*
G75*
G02*
X154662500Y-69487500I0J250000D01*
G01*
X154662500Y-68587500D01*
G75*
G02*
X154912500Y-68337500I250000J0D01*
G01*
X155437500Y-68337500D01*
G75*
G02*
X155687500Y-68587500I0J-250000D01*
G01*
G37*
G36*
G01*
X153862500Y-68587500D02*
X153862500Y-69487500D01*
G75*
G02*
X153612500Y-69737500I-250000J0D01*
G01*
X153087500Y-69737500D01*
G75*
G02*
X152837500Y-69487500I0J250000D01*
G01*
X152837500Y-68587500D01*
G75*
G02*
X153087500Y-68337500I250000J0D01*
G01*
X153612500Y-68337500D01*
G75*
G02*
X153862500Y-68587500I0J-250000D01*
G01*
G37*
G36*
G01*
X138837500Y-74287500D02*
X138837500Y-73387500D01*
G75*
G02*
X139087500Y-73137500I250000J0D01*
G01*
X139612500Y-73137500D01*
G75*
G02*
X139862500Y-73387500I0J-250000D01*
G01*
X139862500Y-74287500D01*
G75*
G02*
X139612500Y-74537500I-250000J0D01*
G01*
X139087500Y-74537500D01*
G75*
G02*
X138837500Y-74287500I0J250000D01*
G01*
G37*
G36*
G01*
X140662500Y-74287500D02*
X140662500Y-73387500D01*
G75*
G02*
X140912500Y-73137500I250000J0D01*
G01*
X141437500Y-73137500D01*
G75*
G02*
X141687500Y-73387500I0J-250000D01*
G01*
X141687500Y-74287500D01*
G75*
G02*
X141437500Y-74537500I-250000J0D01*
G01*
X140912500Y-74537500D01*
G75*
G02*
X140662500Y-74287500I0J250000D01*
G01*
G37*
G36*
G01*
X138837500Y-103487500D02*
X138837500Y-102587500D01*
G75*
G02*
X139087500Y-102337500I250000J0D01*
G01*
X139612500Y-102337500D01*
G75*
G02*
X139862500Y-102587500I0J-250000D01*
G01*
X139862500Y-103487500D01*
G75*
G02*
X139612500Y-103737500I-250000J0D01*
G01*
X139087500Y-103737500D01*
G75*
G02*
X138837500Y-103487500I0J250000D01*
G01*
G37*
G36*
G01*
X140662500Y-103487500D02*
X140662500Y-102587500D01*
G75*
G02*
X140912500Y-102337500I250000J0D01*
G01*
X141437500Y-102337500D01*
G75*
G02*
X141687500Y-102587500I0J-250000D01*
G01*
X141687500Y-103487500D01*
G75*
G02*
X141437500Y-103737500I-250000J0D01*
G01*
X140912500Y-103737500D01*
G75*
G02*
X140662500Y-103487500I0J250000D01*
G01*
G37*
M02*
