%TF.GenerationSoftware,KiCad,Pcbnew,6.0.10+dfsg-1~bpo11+1*%
%TF.ProjectId,project,70726f6a-6563-4742-9e6b-696361645f70,rev?*%
%TF.SameCoordinates,Original*%
%TF.FileFunction,Drillmap*%
%TF.FilePolarity,Positive*%
%FSLAX45Y45*%
G04 Gerber Fmt 4.5, Leading zero omitted, Abs format (unit mm)*
%MOMM*%
%LPD*%
G01*
G04 APERTURE LIST*
%ADD10C,0.100000*%
%ADD11C,0.200000*%
G04 APERTURE END LIST*
D10*
X16726250Y-6803750D02*
G75*
G03*
X16626250Y-6703750I-100000J0D01*
G01*
X16726250Y-13103750D02*
X16726250Y-6803750D01*
X16626250Y-6703750D02*
X12826250Y-6703750D01*
X16626250Y-13203750D02*
X12826250Y-13203750D01*
X12726250Y-6803750D02*
X12726250Y-13103750D01*
X16626250Y-13203750D02*
G75*
G03*
X16726250Y-13103750I0J100000D01*
G01*
X12726250Y-13103750D02*
G75*
G03*
X12826250Y-13203750I100000J0D01*
G01*
X12826250Y-6703750D02*
G75*
G03*
X12726250Y-6803750I0J-100000D01*
G01*
D11*
X12978869Y-13519226D02*
X12978869Y-13319226D01*
X13026488Y-13319226D01*
X13055059Y-13328750D01*
X13074107Y-13347798D01*
X13083631Y-13366845D01*
X13093155Y-13404940D01*
X13093155Y-13433512D01*
X13083631Y-13471607D01*
X13074107Y-13490655D01*
X13055059Y-13509702D01*
X13026488Y-13519226D01*
X12978869Y-13519226D01*
X13178869Y-13519226D02*
X13178869Y-13385893D01*
X13178869Y-13423988D02*
X13188393Y-13404940D01*
X13197917Y-13395417D01*
X13216964Y-13385893D01*
X13236012Y-13385893D01*
X13302678Y-13519226D02*
X13302678Y-13385893D01*
X13302678Y-13319226D02*
X13293155Y-13328750D01*
X13302678Y-13338274D01*
X13312202Y-13328750D01*
X13302678Y-13319226D01*
X13302678Y-13338274D01*
X13426488Y-13519226D02*
X13407440Y-13509702D01*
X13397917Y-13490655D01*
X13397917Y-13319226D01*
X13531250Y-13519226D02*
X13512202Y-13509702D01*
X13502678Y-13490655D01*
X13502678Y-13319226D01*
X13759821Y-13519226D02*
X13759821Y-13319226D01*
X13826488Y-13462083D01*
X13893155Y-13319226D01*
X13893155Y-13519226D01*
X14074107Y-13519226D02*
X14074107Y-13414464D01*
X14064583Y-13395417D01*
X14045536Y-13385893D01*
X14007440Y-13385893D01*
X13988393Y-13395417D01*
X14074107Y-13509702D02*
X14055059Y-13519226D01*
X14007440Y-13519226D01*
X13988393Y-13509702D01*
X13978869Y-13490655D01*
X13978869Y-13471607D01*
X13988393Y-13452559D01*
X14007440Y-13443036D01*
X14055059Y-13443036D01*
X14074107Y-13433512D01*
X14169345Y-13385893D02*
X14169345Y-13585893D01*
X14169345Y-13395417D02*
X14188393Y-13385893D01*
X14226488Y-13385893D01*
X14245536Y-13395417D01*
X14255059Y-13404940D01*
X14264583Y-13423988D01*
X14264583Y-13481131D01*
X14255059Y-13500178D01*
X14245536Y-13509702D01*
X14226488Y-13519226D01*
X14188393Y-13519226D01*
X14169345Y-13509702D01*
X14350298Y-13500178D02*
X14359821Y-13509702D01*
X14350298Y-13519226D01*
X14340774Y-13509702D01*
X14350298Y-13500178D01*
X14350298Y-13519226D01*
X14350298Y-13395417D02*
X14359821Y-13404940D01*
X14350298Y-13414464D01*
X14340774Y-13404940D01*
X14350298Y-13395417D01*
X14350298Y-13414464D01*
M02*
