M48
; FORMAT={-:-/ absolute / metric / decimal}
; #@! TF.GenerationSoftware,Kicad,Pcbnew,6.0.10+dfsg-1~bpo11+1
; #@! TF.FileFunction,Plated,1,2,PTH
FMAT,2
METRIC
; #@! TA.AperFunction,Plated,PTH,ViaDrill
T1C0.300
; #@! TA.AperFunction,Plated,PTH,ComponentDrill
T2C1.000
; #@! TA.AperFunction,Plated,PTH,ComponentDrill
T3C1.300
; #@! TA.AperFunction,Plated,PTH,ComponentDrill
T4C3.200
%
G90
G05
T1
X128.662Y-76.237
X128.662Y-86.237
X128.662Y-96.237
X128.662Y-106.237
X129.262Y-90.537
X129.513Y-97.837
X130.762Y-80.537
X131.662Y-114.237
X132.262Y-80.737
X132.762Y-90.737
X132.762Y-100.737
X133.463Y-115.438
X133.463Y-124.637
X134.862Y-129.237
X135.662Y-129.237
X136.963Y-116.337
X137.762Y-127.037
X137.762Y-128.037
X138.662Y-69.837
X138.662Y-79.037
X138.662Y-89.037
X138.662Y-98.438
X138.762Y-110.037
X138.762Y-127.037
X138.762Y-128.037
X139.762Y-127.037
X139.762Y-128.037
X141.762Y-116.837
X145.262Y-90.237
X145.262Y-91.037
X145.662Y-75.037
X145.662Y-77.037
X145.862Y-80.037
X145.862Y-82.037
X146.463Y-97.438
X146.463Y-98.637
X150.662Y-75.037
X150.662Y-77.037
X153.862Y-102.438
X154.662Y-96.037
X155.463Y-96.037
X155.862Y-75.037
X155.862Y-85.037
X156.262Y-96.037
X156.463Y-110.837
X158.413Y-109.862
X158.616Y-103.214
X159.963Y-93.537
X160.062Y-117.237
X160.662Y-109.837
X160.758Y-83.533
X161.062Y-123.637
X161.812Y-112.637
X162.262Y-73.338
X164.012Y-73.415
X164.463Y-68.438
X164.792Y-83.508
X165.062Y-106.237
X165.262Y-93.537
X165.862Y-77.837
X165.862Y-87.837
X165.862Y-97.837
T2
X143.262Y-71.005
X145.802Y-71.005
X148.343Y-71.005
X150.882Y-71.005
T3
X130.062Y-72.037
X130.062Y-82.037
X130.062Y-92.037
X130.062Y-102.037
X135.062Y-72.037
X135.062Y-82.037
X135.062Y-92.037
X135.062Y-102.037
X159.463Y-72.037
X159.463Y-82.037
X159.463Y-92.037
X159.463Y-102.037
X164.463Y-72.037
X164.463Y-82.037
X164.463Y-92.037
X164.463Y-102.037
T4
X130.762Y-128.537
X147.262Y-103.037
X163.762Y-128.537
T0
M30
