G04 #@! TF.GenerationSoftware,KiCad,Pcbnew,6.0.10+dfsg-1~bpo11+1*
G04 #@! TF.ProjectId,project,70726f6a-6563-4742-9e6b-696361645f70,rev?*
G04 #@! TF.SameCoordinates,Original*
G04 #@! TF.FileFunction,Soldermask,Top*
G04 #@! TF.FilePolarity,Negative*
%FSLAX46Y46*%
G04 Gerber Fmt 4.6, Leading zero omitted, Abs format (unit mm)*
%MOMM*%
%LPD*%
G01*
G04 APERTURE LIST*
G04 #@! TA.AperFunction,Profile*
%ADD10C,0.100000*%
G04 #@! TD*
%ADD11R,4.495800X1.295400*%
%ADD12R,3.911600X1.803400*%
%ADD13R,1.550000X1.300000*%
%ADD14C,5.600000*%
%ADD15R,1.700000X6.000000*%
%ADD16O,1.700000X6.000000*%
G04 APERTURE END LIST*
D10*
X80000000Y-91975000D02*
X80000000Y-150975000D01*
X80500000Y-151475000D02*
X124500000Y-151475000D01*
X80000000Y-150975000D02*
G75*
G03*
X80500000Y-151475000I500000J0D01*
G01*
X125000000Y-91975000D02*
G75*
G03*
X124500000Y-91475000I-500000J0D01*
G01*
X80500000Y-91475000D02*
X124500000Y-91475000D01*
X125000000Y-150975000D02*
X125000000Y-91975000D01*
X80500000Y-91475000D02*
G75*
G03*
X80000000Y-91975000I0J-500000D01*
G01*
X124500000Y-151475000D02*
G75*
G03*
X125000000Y-150975000I0J500000D01*
G01*
G36*
G01*
X103375000Y-126950000D02*
X103375000Y-126000000D01*
G75*
G02*
X103625000Y-125750000I250000J0D01*
G01*
X104300000Y-125750000D01*
G75*
G02*
X104550000Y-126000000I0J-250000D01*
G01*
X104550000Y-126950000D01*
G75*
G02*
X104300000Y-127200000I-250000J0D01*
G01*
X103625000Y-127200000D01*
G75*
G02*
X103375000Y-126950000I0J250000D01*
G01*
G37*
G36*
G01*
X105450000Y-126950000D02*
X105450000Y-126000000D01*
G75*
G02*
X105700000Y-125750000I250000J0D01*
G01*
X106375000Y-125750000D01*
G75*
G02*
X106625000Y-126000000I0J-250000D01*
G01*
X106625000Y-126950000D01*
G75*
G02*
X106375000Y-127200000I-250000J0D01*
G01*
X105700000Y-127200000D01*
G75*
G02*
X105450000Y-126950000I0J250000D01*
G01*
G37*
G36*
G01*
X90950000Y-105900000D02*
X90050000Y-105900000D01*
G75*
G02*
X89800000Y-105650000I0J250000D01*
G01*
X89800000Y-105125000D01*
G75*
G02*
X90050000Y-104875000I250000J0D01*
G01*
X90950000Y-104875000D01*
G75*
G02*
X91200000Y-105125000I0J-250000D01*
G01*
X91200000Y-105650000D01*
G75*
G02*
X90950000Y-105900000I-250000J0D01*
G01*
G37*
G36*
G01*
X90950000Y-104075000D02*
X90050000Y-104075000D01*
G75*
G02*
X89800000Y-103825000I0J250000D01*
G01*
X89800000Y-103300000D01*
G75*
G02*
X90050000Y-103050000I250000J0D01*
G01*
X90950000Y-103050000D01*
G75*
G02*
X91200000Y-103300000I0J-250000D01*
G01*
X91200000Y-103825000D01*
G75*
G02*
X90950000Y-104075000I-250000J0D01*
G01*
G37*
G36*
G01*
X90950000Y-135900000D02*
X90050000Y-135900000D01*
G75*
G02*
X89800000Y-135650000I0J250000D01*
G01*
X89800000Y-135125000D01*
G75*
G02*
X90050000Y-134875000I250000J0D01*
G01*
X90950000Y-134875000D01*
G75*
G02*
X91200000Y-135125000I0J-250000D01*
G01*
X91200000Y-135650000D01*
G75*
G02*
X90950000Y-135900000I-250000J0D01*
G01*
G37*
G36*
G01*
X90950000Y-134075000D02*
X90050000Y-134075000D01*
G75*
G02*
X89800000Y-133825000I0J250000D01*
G01*
X89800000Y-133300000D01*
G75*
G02*
X90050000Y-133050000I250000J0D01*
G01*
X90950000Y-133050000D01*
G75*
G02*
X91200000Y-133300000I0J-250000D01*
G01*
X91200000Y-133825000D01*
G75*
G02*
X90950000Y-134075000I-250000J0D01*
G01*
G37*
G36*
G01*
X92495000Y-93975000D02*
X92495000Y-92975000D01*
G75*
G02*
X92995000Y-92475000I500000J0D01*
G01*
X95495000Y-92475000D01*
G75*
G02*
X95995000Y-92975000I0J-500000D01*
G01*
X95995000Y-93975000D01*
G75*
G02*
X95495000Y-94475000I-500000J0D01*
G01*
X92995000Y-94475000D01*
G75*
G02*
X92495000Y-93975000I0J500000D01*
G01*
G37*
G36*
G01*
X92495000Y-96515000D02*
X92495000Y-95515000D01*
G75*
G02*
X92995000Y-95015000I500000J0D01*
G01*
X95495000Y-95015000D01*
G75*
G02*
X95995000Y-95515000I0J-500000D01*
G01*
X95995000Y-96515000D01*
G75*
G02*
X95495000Y-97015000I-500000J0D01*
G01*
X92995000Y-97015000D01*
G75*
G02*
X92495000Y-96515000I0J500000D01*
G01*
G37*
G36*
G01*
X92495000Y-99055000D02*
X92495000Y-98055000D01*
G75*
G02*
X92995000Y-97555000I500000J0D01*
G01*
X95495000Y-97555000D01*
G75*
G02*
X95995000Y-98055000I0J-500000D01*
G01*
X95995000Y-99055000D01*
G75*
G02*
X95495000Y-99555000I-500000J0D01*
G01*
X92995000Y-99555000D01*
G75*
G02*
X92495000Y-99055000I0J500000D01*
G01*
G37*
G36*
G01*
X92495000Y-101595000D02*
X92495000Y-100595000D01*
G75*
G02*
X92995000Y-100095000I500000J0D01*
G01*
X95495000Y-100095000D01*
G75*
G02*
X95995000Y-100595000I0J-500000D01*
G01*
X95995000Y-101595000D01*
G75*
G02*
X95495000Y-102095000I-500000J0D01*
G01*
X92995000Y-102095000D01*
G75*
G02*
X92495000Y-101595000I0J500000D01*
G01*
G37*
G36*
G01*
X92495000Y-104135000D02*
X92495000Y-103135000D01*
G75*
G02*
X92995000Y-102635000I500000J0D01*
G01*
X95495000Y-102635000D01*
G75*
G02*
X95995000Y-103135000I0J-500000D01*
G01*
X95995000Y-104135000D01*
G75*
G02*
X95495000Y-104635000I-500000J0D01*
G01*
X92995000Y-104635000D01*
G75*
G02*
X92495000Y-104135000I0J500000D01*
G01*
G37*
G36*
G01*
X92495000Y-106675000D02*
X92495000Y-105675000D01*
G75*
G02*
X92995000Y-105175000I500000J0D01*
G01*
X95495000Y-105175000D01*
G75*
G02*
X95995000Y-105675000I0J-500000D01*
G01*
X95995000Y-106675000D01*
G75*
G02*
X95495000Y-107175000I-500000J0D01*
G01*
X92995000Y-107175000D01*
G75*
G02*
X92495000Y-106675000I0J500000D01*
G01*
G37*
G36*
G01*
X92495000Y-109215000D02*
X92495000Y-108215000D01*
G75*
G02*
X92995000Y-107715000I500000J0D01*
G01*
X95495000Y-107715000D01*
G75*
G02*
X95995000Y-108215000I0J-500000D01*
G01*
X95995000Y-109215000D01*
G75*
G02*
X95495000Y-109715000I-500000J0D01*
G01*
X92995000Y-109715000D01*
G75*
G02*
X92495000Y-109215000I0J500000D01*
G01*
G37*
G36*
G01*
X92495000Y-111755000D02*
X92495000Y-110755000D01*
G75*
G02*
X92995000Y-110255000I500000J0D01*
G01*
X95495000Y-110255000D01*
G75*
G02*
X95995000Y-110755000I0J-500000D01*
G01*
X95995000Y-111755000D01*
G75*
G02*
X95495000Y-112255000I-500000J0D01*
G01*
X92995000Y-112255000D01*
G75*
G02*
X92495000Y-111755000I0J500000D01*
G01*
G37*
G36*
G01*
X109005000Y-111755000D02*
X109005000Y-110755000D01*
G75*
G02*
X109505000Y-110255000I500000J0D01*
G01*
X112005000Y-110255000D01*
G75*
G02*
X112505000Y-110755000I0J-500000D01*
G01*
X112505000Y-111755000D01*
G75*
G02*
X112005000Y-112255000I-500000J0D01*
G01*
X109505000Y-112255000D01*
G75*
G02*
X109005000Y-111755000I0J500000D01*
G01*
G37*
G36*
G01*
X109005000Y-109215000D02*
X109005000Y-108215000D01*
G75*
G02*
X109505000Y-107715000I500000J0D01*
G01*
X112005000Y-107715000D01*
G75*
G02*
X112505000Y-108215000I0J-500000D01*
G01*
X112505000Y-109215000D01*
G75*
G02*
X112005000Y-109715000I-500000J0D01*
G01*
X109505000Y-109715000D01*
G75*
G02*
X109005000Y-109215000I0J500000D01*
G01*
G37*
G36*
G01*
X109005000Y-106675000D02*
X109005000Y-105675000D01*
G75*
G02*
X109505000Y-105175000I500000J0D01*
G01*
X112005000Y-105175000D01*
G75*
G02*
X112505000Y-105675000I0J-500000D01*
G01*
X112505000Y-106675000D01*
G75*
G02*
X112005000Y-107175000I-500000J0D01*
G01*
X109505000Y-107175000D01*
G75*
G02*
X109005000Y-106675000I0J500000D01*
G01*
G37*
G36*
G01*
X109005000Y-104135000D02*
X109005000Y-103135000D01*
G75*
G02*
X109505000Y-102635000I500000J0D01*
G01*
X112005000Y-102635000D01*
G75*
G02*
X112505000Y-103135000I0J-500000D01*
G01*
X112505000Y-104135000D01*
G75*
G02*
X112005000Y-104635000I-500000J0D01*
G01*
X109505000Y-104635000D01*
G75*
G02*
X109005000Y-104135000I0J500000D01*
G01*
G37*
G36*
G01*
X109005000Y-101595000D02*
X109005000Y-100595000D01*
G75*
G02*
X109505000Y-100095000I500000J0D01*
G01*
X112005000Y-100095000D01*
G75*
G02*
X112505000Y-100595000I0J-500000D01*
G01*
X112505000Y-101595000D01*
G75*
G02*
X112005000Y-102095000I-500000J0D01*
G01*
X109505000Y-102095000D01*
G75*
G02*
X109005000Y-101595000I0J500000D01*
G01*
G37*
G36*
G01*
X109005000Y-99055000D02*
X109005000Y-98055000D01*
G75*
G02*
X109505000Y-97555000I500000J0D01*
G01*
X112005000Y-97555000D01*
G75*
G02*
X112505000Y-98055000I0J-500000D01*
G01*
X112505000Y-99055000D01*
G75*
G02*
X112005000Y-99555000I-500000J0D01*
G01*
X109505000Y-99555000D01*
G75*
G02*
X109005000Y-99055000I0J500000D01*
G01*
G37*
G36*
G01*
X109005000Y-96515000D02*
X109005000Y-95515000D01*
G75*
G02*
X109505000Y-95015000I500000J0D01*
G01*
X112005000Y-95015000D01*
G75*
G02*
X112505000Y-95515000I0J-500000D01*
G01*
X112505000Y-96515000D01*
G75*
G02*
X112005000Y-97015000I-500000J0D01*
G01*
X109505000Y-97015000D01*
G75*
G02*
X109005000Y-96515000I0J500000D01*
G01*
G37*
G36*
G01*
X109005000Y-93975000D02*
X109005000Y-92975000D01*
G75*
G02*
X109505000Y-92475000I500000J0D01*
G01*
X112005000Y-92475000D01*
G75*
G02*
X112505000Y-92975000I0J-500000D01*
G01*
X112505000Y-93975000D01*
G75*
G02*
X112005000Y-94475000I-500000J0D01*
G01*
X109505000Y-94475000D01*
G75*
G02*
X109005000Y-93975000I0J500000D01*
G01*
G37*
G36*
G01*
X114050000Y-122050000D02*
X114950000Y-122050000D01*
G75*
G02*
X115200000Y-122300000I0J-250000D01*
G01*
X115200000Y-122825000D01*
G75*
G02*
X114950000Y-123075000I-250000J0D01*
G01*
X114050000Y-123075000D01*
G75*
G02*
X113800000Y-122825000I0J250000D01*
G01*
X113800000Y-122300000D01*
G75*
G02*
X114050000Y-122050000I250000J0D01*
G01*
G37*
G36*
G01*
X114050000Y-123875000D02*
X114950000Y-123875000D01*
G75*
G02*
X115200000Y-124125000I0J-250000D01*
G01*
X115200000Y-124650000D01*
G75*
G02*
X114950000Y-124900000I-250000J0D01*
G01*
X114050000Y-124900000D01*
G75*
G02*
X113800000Y-124650000I0J250000D01*
G01*
X113800000Y-124125000D01*
G75*
G02*
X114050000Y-123875000I250000J0D01*
G01*
G37*
D11*
X115950499Y-101475000D03*
X115950499Y-98975000D03*
X115950499Y-96475000D03*
D12*
X122740499Y-104675001D03*
X122740499Y-93274999D03*
D11*
X115950499Y-146475000D03*
X115950499Y-143975000D03*
X115950499Y-141475000D03*
D12*
X122740499Y-138274999D03*
X122740499Y-149675001D03*
G36*
G01*
X114950000Y-150900000D02*
X114050000Y-150900000D01*
G75*
G02*
X113800000Y-150650000I0J250000D01*
G01*
X113800000Y-150125000D01*
G75*
G02*
X114050000Y-149875000I250000J0D01*
G01*
X114950000Y-149875000D01*
G75*
G02*
X115200000Y-150125000I0J-250000D01*
G01*
X115200000Y-150650000D01*
G75*
G02*
X114950000Y-150900000I-250000J0D01*
G01*
G37*
G36*
G01*
X114950000Y-149075000D02*
X114050000Y-149075000D01*
G75*
G02*
X113800000Y-148825000I0J250000D01*
G01*
X113800000Y-148300000D01*
G75*
G02*
X114050000Y-148050000I250000J0D01*
G01*
X114950000Y-148050000D01*
G75*
G02*
X115200000Y-148300000I0J-250000D01*
G01*
X115200000Y-148825000D01*
G75*
G02*
X114950000Y-149075000I-250000J0D01*
G01*
G37*
D11*
X115950499Y-116475000D03*
X115950499Y-113975000D03*
X115950499Y-111475000D03*
D12*
X122740499Y-108274999D03*
X122740499Y-119675001D03*
G36*
G01*
X114950000Y-105812500D02*
X114050000Y-105812500D01*
G75*
G02*
X113800000Y-105562500I0J250000D01*
G01*
X113800000Y-105037500D01*
G75*
G02*
X114050000Y-104787500I250000J0D01*
G01*
X114950000Y-104787500D01*
G75*
G02*
X115200000Y-105037500I0J-250000D01*
G01*
X115200000Y-105562500D01*
G75*
G02*
X114950000Y-105812500I-250000J0D01*
G01*
G37*
G36*
G01*
X114950000Y-103987500D02*
X114050000Y-103987500D01*
G75*
G02*
X113800000Y-103737500I0J250000D01*
G01*
X113800000Y-103212500D01*
G75*
G02*
X114050000Y-102962500I250000J0D01*
G01*
X114950000Y-102962500D01*
G75*
G02*
X115200000Y-103212500I0J-250000D01*
G01*
X115200000Y-103737500D01*
G75*
G02*
X114950000Y-103987500I-250000J0D01*
G01*
G37*
G36*
G01*
X92550000Y-119875000D02*
X93450000Y-119875000D01*
G75*
G02*
X93700000Y-120125000I0J-250000D01*
G01*
X93700000Y-120775000D01*
G75*
G02*
X93450000Y-121025000I-250000J0D01*
G01*
X92550000Y-121025000D01*
G75*
G02*
X92300000Y-120775000I0J250000D01*
G01*
X92300000Y-120125000D01*
G75*
G02*
X92550000Y-119875000I250000J0D01*
G01*
G37*
G36*
G01*
X92550000Y-121925000D02*
X93450000Y-121925000D01*
G75*
G02*
X93700000Y-122175000I0J-250000D01*
G01*
X93700000Y-122825000D01*
G75*
G02*
X93450000Y-123075000I-250000J0D01*
G01*
X92550000Y-123075000D01*
G75*
G02*
X92300000Y-122825000I0J250000D01*
G01*
X92300000Y-122175000D01*
G75*
G02*
X92550000Y-121925000I250000J0D01*
G01*
G37*
G36*
G01*
X114950000Y-135900000D02*
X114050000Y-135900000D01*
G75*
G02*
X113800000Y-135650000I0J250000D01*
G01*
X113800000Y-135125000D01*
G75*
G02*
X114050000Y-134875000I250000J0D01*
G01*
X114950000Y-134875000D01*
G75*
G02*
X115200000Y-135125000I0J-250000D01*
G01*
X115200000Y-135650000D01*
G75*
G02*
X114950000Y-135900000I-250000J0D01*
G01*
G37*
G36*
G01*
X114950000Y-134075000D02*
X114050000Y-134075000D01*
G75*
G02*
X113800000Y-133825000I0J250000D01*
G01*
X113800000Y-133300000D01*
G75*
G02*
X114050000Y-133050000I250000J0D01*
G01*
X114950000Y-133050000D01*
G75*
G02*
X115200000Y-133300000I0J-250000D01*
G01*
X115200000Y-133825000D01*
G75*
G02*
X114950000Y-134075000I-250000J0D01*
G01*
G37*
G36*
G01*
X92550000Y-116050000D02*
X93450000Y-116050000D01*
G75*
G02*
X93700000Y-116300000I0J-250000D01*
G01*
X93700000Y-116825000D01*
G75*
G02*
X93450000Y-117075000I-250000J0D01*
G01*
X92550000Y-117075000D01*
G75*
G02*
X92300000Y-116825000I0J250000D01*
G01*
X92300000Y-116300000D01*
G75*
G02*
X92550000Y-116050000I250000J0D01*
G01*
G37*
G36*
G01*
X92550000Y-117875000D02*
X93450000Y-117875000D01*
G75*
G02*
X93700000Y-118125000I0J-250000D01*
G01*
X93700000Y-118650000D01*
G75*
G02*
X93450000Y-118900000I-250000J0D01*
G01*
X92550000Y-118900000D01*
G75*
G02*
X92300000Y-118650000I0J250000D01*
G01*
X92300000Y-118125000D01*
G75*
G02*
X92550000Y-117875000I250000J0D01*
G01*
G37*
D13*
X106480000Y-138225000D03*
X98520000Y-138225000D03*
X106480000Y-142725000D03*
X98520000Y-142725000D03*
D11*
X89049501Y-141475000D03*
X89049501Y-143975000D03*
X89049501Y-146475000D03*
D12*
X82259501Y-138274999D03*
X82259501Y-149675001D03*
G36*
G01*
X90050000Y-92050000D02*
X90950000Y-92050000D01*
G75*
G02*
X91200000Y-92300000I0J-250000D01*
G01*
X91200000Y-92825000D01*
G75*
G02*
X90950000Y-93075000I-250000J0D01*
G01*
X90050000Y-93075000D01*
G75*
G02*
X89800000Y-92825000I0J250000D01*
G01*
X89800000Y-92300000D01*
G75*
G02*
X90050000Y-92050000I250000J0D01*
G01*
G37*
G36*
G01*
X90050000Y-93875000D02*
X90950000Y-93875000D01*
G75*
G02*
X91200000Y-94125000I0J-250000D01*
G01*
X91200000Y-94650000D01*
G75*
G02*
X90950000Y-94900000I-250000J0D01*
G01*
X90050000Y-94900000D01*
G75*
G02*
X89800000Y-94650000I0J250000D01*
G01*
X89800000Y-94125000D01*
G75*
G02*
X90050000Y-93875000I250000J0D01*
G01*
G37*
D14*
X102500000Y-147475000D03*
D11*
X115950499Y-131475000D03*
X115950499Y-128975000D03*
X115950499Y-126475000D03*
D12*
X122740499Y-123274999D03*
X122740499Y-134675001D03*
D11*
X89049501Y-111475000D03*
X89049501Y-113975000D03*
X89049501Y-116475000D03*
D12*
X82259501Y-108274999D03*
X82259501Y-119675001D03*
G36*
G01*
X90950000Y-120900000D02*
X90050000Y-120900000D01*
G75*
G02*
X89800000Y-120650000I0J250000D01*
G01*
X89800000Y-120125000D01*
G75*
G02*
X90050000Y-119875000I250000J0D01*
G01*
X90950000Y-119875000D01*
G75*
G02*
X91200000Y-120125000I0J-250000D01*
G01*
X91200000Y-120650000D01*
G75*
G02*
X90950000Y-120900000I-250000J0D01*
G01*
G37*
G36*
G01*
X90950000Y-119075000D02*
X90050000Y-119075000D01*
G75*
G02*
X89800000Y-118825000I0J250000D01*
G01*
X89800000Y-118300000D01*
G75*
G02*
X90050000Y-118050000I250000J0D01*
G01*
X90950000Y-118050000D01*
G75*
G02*
X91200000Y-118300000I0J-250000D01*
G01*
X91200000Y-118825000D01*
G75*
G02*
X90950000Y-119075000I-250000J0D01*
G01*
G37*
G36*
G01*
X114050000Y-107050000D02*
X114950000Y-107050000D01*
G75*
G02*
X115200000Y-107300000I0J-250000D01*
G01*
X115200000Y-107825000D01*
G75*
G02*
X114950000Y-108075000I-250000J0D01*
G01*
X114050000Y-108075000D01*
G75*
G02*
X113800000Y-107825000I0J250000D01*
G01*
X113800000Y-107300000D01*
G75*
G02*
X114050000Y-107050000I250000J0D01*
G01*
G37*
G36*
G01*
X114050000Y-108875000D02*
X114950000Y-108875000D01*
G75*
G02*
X115200000Y-109125000I0J-250000D01*
G01*
X115200000Y-109650000D01*
G75*
G02*
X114950000Y-109900000I-250000J0D01*
G01*
X114050000Y-109900000D01*
G75*
G02*
X113800000Y-109650000I0J250000D01*
G01*
X113800000Y-109125000D01*
G75*
G02*
X114050000Y-108875000I250000J0D01*
G01*
G37*
G36*
G01*
X114950000Y-120900000D02*
X114050000Y-120900000D01*
G75*
G02*
X113800000Y-120650000I0J250000D01*
G01*
X113800000Y-120125000D01*
G75*
G02*
X114050000Y-119875000I250000J0D01*
G01*
X114950000Y-119875000D01*
G75*
G02*
X115200000Y-120125000I0J-250000D01*
G01*
X115200000Y-120650000D01*
G75*
G02*
X114950000Y-120900000I-250000J0D01*
G01*
G37*
G36*
G01*
X114950000Y-119075000D02*
X114050000Y-119075000D01*
G75*
G02*
X113800000Y-118825000I0J250000D01*
G01*
X113800000Y-118300000D01*
G75*
G02*
X114050000Y-118050000I250000J0D01*
G01*
X114950000Y-118050000D01*
G75*
G02*
X115200000Y-118300000I0J-250000D01*
G01*
X115200000Y-118825000D01*
G75*
G02*
X114950000Y-119075000I-250000J0D01*
G01*
G37*
G36*
G01*
X90050000Y-107050000D02*
X90950000Y-107050000D01*
G75*
G02*
X91200000Y-107300000I0J-250000D01*
G01*
X91200000Y-107825000D01*
G75*
G02*
X90950000Y-108075000I-250000J0D01*
G01*
X90050000Y-108075000D01*
G75*
G02*
X89800000Y-107825000I0J250000D01*
G01*
X89800000Y-107300000D01*
G75*
G02*
X90050000Y-107050000I250000J0D01*
G01*
G37*
G36*
G01*
X90050000Y-108875000D02*
X90950000Y-108875000D01*
G75*
G02*
X91200000Y-109125000I0J-250000D01*
G01*
X91200000Y-109650000D01*
G75*
G02*
X90950000Y-109900000I-250000J0D01*
G01*
X90050000Y-109900000D01*
G75*
G02*
X89800000Y-109650000I0J250000D01*
G01*
X89800000Y-109125000D01*
G75*
G02*
X90050000Y-108875000I250000J0D01*
G01*
G37*
G36*
G01*
X90050000Y-122050000D02*
X90950000Y-122050000D01*
G75*
G02*
X91200000Y-122300000I0J-250000D01*
G01*
X91200000Y-122825000D01*
G75*
G02*
X90950000Y-123075000I-250000J0D01*
G01*
X90050000Y-123075000D01*
G75*
G02*
X89800000Y-122825000I0J250000D01*
G01*
X89800000Y-122300000D01*
G75*
G02*
X90050000Y-122050000I250000J0D01*
G01*
G37*
G36*
G01*
X90050000Y-123875000D02*
X90950000Y-123875000D01*
G75*
G02*
X91200000Y-124125000I0J-250000D01*
G01*
X91200000Y-124650000D01*
G75*
G02*
X90950000Y-124900000I-250000J0D01*
G01*
X90050000Y-124900000D01*
G75*
G02*
X89800000Y-124650000I0J250000D01*
G01*
X89800000Y-124125000D01*
G75*
G02*
X90050000Y-123875000I250000J0D01*
G01*
G37*
D15*
X106250000Y-131931500D03*
D16*
X103710000Y-131931500D03*
X101170000Y-131931500D03*
X98630000Y-131931500D03*
D11*
X89049501Y-126475000D03*
X89049501Y-128975000D03*
X89049501Y-131475000D03*
D12*
X82259501Y-134675001D03*
X82259501Y-123274999D03*
G36*
G01*
X90950000Y-150900000D02*
X90050000Y-150900000D01*
G75*
G02*
X89800000Y-150650000I0J250000D01*
G01*
X89800000Y-150125000D01*
G75*
G02*
X90050000Y-149875000I250000J0D01*
G01*
X90950000Y-149875000D01*
G75*
G02*
X91200000Y-150125000I0J-250000D01*
G01*
X91200000Y-150650000D01*
G75*
G02*
X90950000Y-150900000I-250000J0D01*
G01*
G37*
G36*
G01*
X90950000Y-149075000D02*
X90050000Y-149075000D01*
G75*
G02*
X89800000Y-148825000I0J250000D01*
G01*
X89800000Y-148300000D01*
G75*
G02*
X90050000Y-148050000I250000J0D01*
G01*
X90950000Y-148050000D01*
G75*
G02*
X91200000Y-148300000I0J-250000D01*
G01*
X91200000Y-148825000D01*
G75*
G02*
X90950000Y-149075000I-250000J0D01*
G01*
G37*
D11*
X89049501Y-96475000D03*
X89049501Y-98975000D03*
X89049501Y-101475000D03*
D12*
X82259501Y-93274999D03*
X82259501Y-104675001D03*
G36*
G01*
X90050000Y-137050000D02*
X90950000Y-137050000D01*
G75*
G02*
X91200000Y-137300000I0J-250000D01*
G01*
X91200000Y-137825000D01*
G75*
G02*
X90950000Y-138075000I-250000J0D01*
G01*
X90050000Y-138075000D01*
G75*
G02*
X89800000Y-137825000I0J250000D01*
G01*
X89800000Y-137300000D01*
G75*
G02*
X90050000Y-137050000I250000J0D01*
G01*
G37*
G36*
G01*
X90050000Y-138875000D02*
X90950000Y-138875000D01*
G75*
G02*
X91200000Y-139125000I0J-250000D01*
G01*
X91200000Y-139650000D01*
G75*
G02*
X90950000Y-139900000I-250000J0D01*
G01*
X90050000Y-139900000D01*
G75*
G02*
X89800000Y-139650000I0J250000D01*
G01*
X89800000Y-139125000D01*
G75*
G02*
X90050000Y-138875000I250000J0D01*
G01*
G37*
G36*
G01*
X114050000Y-92050000D02*
X114950000Y-92050000D01*
G75*
G02*
X115200000Y-92300000I0J-250000D01*
G01*
X115200000Y-92825000D01*
G75*
G02*
X114950000Y-93075000I-250000J0D01*
G01*
X114050000Y-93075000D01*
G75*
G02*
X113800000Y-92825000I0J250000D01*
G01*
X113800000Y-92300000D01*
G75*
G02*
X114050000Y-92050000I250000J0D01*
G01*
G37*
G36*
G01*
X114050000Y-93875000D02*
X114950000Y-93875000D01*
G75*
G02*
X115200000Y-94125000I0J-250000D01*
G01*
X115200000Y-94650000D01*
G75*
G02*
X114950000Y-94900000I-250000J0D01*
G01*
X114050000Y-94900000D01*
G75*
G02*
X113800000Y-94650000I0J250000D01*
G01*
X113800000Y-94125000D01*
G75*
G02*
X114050000Y-93875000I250000J0D01*
G01*
G37*
G36*
G01*
X114050000Y-137050000D02*
X114950000Y-137050000D01*
G75*
G02*
X115200000Y-137300000I0J-250000D01*
G01*
X115200000Y-137825000D01*
G75*
G02*
X114950000Y-138075000I-250000J0D01*
G01*
X114050000Y-138075000D01*
G75*
G02*
X113800000Y-137825000I0J250000D01*
G01*
X113800000Y-137300000D01*
G75*
G02*
X114050000Y-137050000I250000J0D01*
G01*
G37*
G36*
G01*
X114050000Y-138875000D02*
X114950000Y-138875000D01*
G75*
G02*
X115200000Y-139125000I0J-250000D01*
G01*
X115200000Y-139650000D01*
G75*
G02*
X114950000Y-139900000I-250000J0D01*
G01*
X114050000Y-139900000D01*
G75*
G02*
X113800000Y-139650000I0J250000D01*
G01*
X113800000Y-139125000D01*
G75*
G02*
X114050000Y-138875000I250000J0D01*
G01*
G37*
M02*
