G04 #@! TF.GenerationSoftware,KiCad,Pcbnew,6.0.10+dfsg-1~bpo11+1*
G04 #@! TF.ProjectId,project,70726f6a-6563-4742-9e6b-696361645f70,rev?*
G04 #@! TF.SameCoordinates,Original*
G04 #@! TF.FileFunction,Legend,Top*
G04 #@! TF.FilePolarity,Positive*
%FSLAX46Y46*%
G04 Gerber Fmt 4.6, Leading zero omitted, Abs format (unit mm)*
%MOMM*%
%LPD*%
G01*
G04 APERTURE LIST*
G04 #@! TA.AperFunction,Profile*
%ADD10C,0.100000*%
G04 #@! TD*
%ADD11C,0.150000*%
%ADD12C,0.120000*%
%ADD13C,0.010000*%
%ADD14C,1.700000*%
%ADD15R,1.300000X1.550000*%
%ADD16C,5.600000*%
%ADD17R,1.700000X6.000000*%
%ADD18O,1.700000X6.000000*%
G04 APERTURE END LIST*
D10*
X167262500Y-68037500D02*
G75*
G03*
X166262500Y-67037500I-1000000J0D01*
G01*
X167262500Y-131037500D02*
X167262500Y-68037500D01*
X166262500Y-67037500D02*
X128262500Y-67037500D01*
X166262500Y-132037500D02*
X128262500Y-132037500D01*
X127262500Y-68037500D02*
X127262500Y-131037500D01*
X166262500Y-132037500D02*
G75*
G03*
X167262500Y-131037500I0J1000000D01*
G01*
X127262500Y-131037500D02*
G75*
G03*
X128262500Y-132037500I1000000J0D01*
G01*
X128262500Y-67037500D02*
G75*
G03*
X127262500Y-68037500I0J-1000000D01*
G01*
D11*
X151824404Y-130232738D02*
X152395833Y-130232738D01*
X152510119Y-130270833D01*
X152586309Y-130347023D01*
X152624404Y-130461309D01*
X152624404Y-130537500D01*
X152624404Y-129470833D02*
X152624404Y-129851785D01*
X151824404Y-129851785D01*
X152548214Y-128747023D02*
X152586309Y-128785119D01*
X152624404Y-128899404D01*
X152624404Y-128975595D01*
X152586309Y-129089880D01*
X152510119Y-129166071D01*
X152433928Y-129204166D01*
X152281547Y-129242261D01*
X152167261Y-129242261D01*
X152014880Y-129204166D01*
X151938690Y-129166071D01*
X151862500Y-129089880D01*
X151824404Y-128975595D01*
X151824404Y-128899404D01*
X151862500Y-128785119D01*
X151900595Y-128747023D01*
X151824404Y-128175595D02*
X152395833Y-128175595D01*
X152510119Y-128213690D01*
X152586309Y-128289880D01*
X152624404Y-128404166D01*
X152624404Y-128480357D01*
X152624404Y-127413690D02*
X152624404Y-127794642D01*
X151824404Y-127794642D01*
X152548214Y-126689880D02*
X152586309Y-126727976D01*
X152624404Y-126842261D01*
X152624404Y-126918452D01*
X152586309Y-127032738D01*
X152510119Y-127108928D01*
X152433928Y-127147023D01*
X152281547Y-127185119D01*
X152167261Y-127185119D01*
X152014880Y-127147023D01*
X151938690Y-127108928D01*
X151862500Y-127032738D01*
X151824404Y-126918452D01*
X151824404Y-126842261D01*
X151862500Y-126727976D01*
X151900595Y-126689880D01*
X151824404Y-126118452D02*
X152395833Y-126118452D01*
X152510119Y-126156547D01*
X152586309Y-126232738D01*
X152624404Y-126347023D01*
X152624404Y-126423214D01*
X152624404Y-125356547D02*
X152624404Y-125737500D01*
X151824404Y-125737500D01*
X152548214Y-124632738D02*
X152586309Y-124670833D01*
X152624404Y-124785119D01*
X152624404Y-124861309D01*
X152586309Y-124975595D01*
X152510119Y-125051785D01*
X152433928Y-125089880D01*
X152281547Y-125127976D01*
X152167261Y-125127976D01*
X152014880Y-125089880D01*
X151938690Y-125051785D01*
X151862500Y-124975595D01*
X151824404Y-124861309D01*
X151824404Y-124785119D01*
X151862500Y-124670833D01*
X151900595Y-124632738D01*
X151824404Y-124061309D02*
X152395833Y-124061309D01*
X152510119Y-124099404D01*
X152586309Y-124175595D01*
X152624404Y-124289880D01*
X152624404Y-124366071D01*
X152624404Y-123299404D02*
X152624404Y-123680357D01*
X151824404Y-123680357D01*
X152548214Y-122575595D02*
X152586309Y-122613690D01*
X152624404Y-122727976D01*
X152624404Y-122804166D01*
X152586309Y-122918452D01*
X152510119Y-122994642D01*
X152433928Y-123032738D01*
X152281547Y-123070833D01*
X152167261Y-123070833D01*
X152014880Y-123032738D01*
X151938690Y-122994642D01*
X151862500Y-122918452D01*
X151824404Y-122804166D01*
X151824404Y-122727976D01*
X151862500Y-122613690D01*
X151900595Y-122575595D01*
X142176785Y-67637500D02*
X142100595Y-67599404D01*
X141986309Y-67599404D01*
X141872023Y-67637500D01*
X141795833Y-67713690D01*
X141757738Y-67789880D01*
X141719642Y-67942261D01*
X141719642Y-68056547D01*
X141757738Y-68208928D01*
X141795833Y-68285119D01*
X141872023Y-68361309D01*
X141986309Y-68399404D01*
X142062500Y-68399404D01*
X142176785Y-68361309D01*
X142214880Y-68323214D01*
X142214880Y-68056547D01*
X142062500Y-68056547D01*
X142557738Y-68399404D02*
X142557738Y-67599404D01*
X143014880Y-68399404D01*
X143014880Y-67599404D01*
X143395833Y-68399404D02*
X143395833Y-67599404D01*
X143586309Y-67599404D01*
X143700595Y-67637500D01*
X143776785Y-67713690D01*
X143814880Y-67789880D01*
X143852976Y-67942261D01*
X143852976Y-68056547D01*
X143814880Y-68208928D01*
X143776785Y-68285119D01*
X143700595Y-68361309D01*
X143586309Y-68399404D01*
X143395833Y-68399404D01*
X144386309Y-68666071D02*
X144386309Y-67523214D01*
X144881547Y-67599404D02*
X145376785Y-67599404D01*
X145110119Y-67904166D01*
X145224404Y-67904166D01*
X145300595Y-67942261D01*
X145338690Y-67980357D01*
X145376785Y-68056547D01*
X145376785Y-68247023D01*
X145338690Y-68323214D01*
X145300595Y-68361309D01*
X145224404Y-68399404D01*
X144995833Y-68399404D01*
X144919642Y-68361309D01*
X144881547Y-68323214D01*
X145605357Y-67599404D02*
X145872023Y-68399404D01*
X146138690Y-67599404D01*
X146329166Y-67599404D02*
X146824404Y-67599404D01*
X146557738Y-67904166D01*
X146672023Y-67904166D01*
X146748214Y-67942261D01*
X146786309Y-67980357D01*
X146824404Y-68056547D01*
X146824404Y-68247023D01*
X146786309Y-68323214D01*
X146748214Y-68361309D01*
X146672023Y-68399404D01*
X146443452Y-68399404D01*
X146367261Y-68361309D01*
X146329166Y-68323214D01*
X147357738Y-68666071D02*
X147357738Y-67523214D01*
X147891071Y-68361309D02*
X148005357Y-68399404D01*
X148195833Y-68399404D01*
X148272023Y-68361309D01*
X148310119Y-68323214D01*
X148348214Y-68247023D01*
X148348214Y-68170833D01*
X148310119Y-68094642D01*
X148272023Y-68056547D01*
X148195833Y-68018452D01*
X148043452Y-67980357D01*
X147967261Y-67942261D01*
X147929166Y-67904166D01*
X147891071Y-67827976D01*
X147891071Y-67751785D01*
X147929166Y-67675595D01*
X147967261Y-67637500D01*
X148043452Y-67599404D01*
X148233928Y-67599404D01*
X148348214Y-67637500D01*
X149148214Y-68323214D02*
X149110119Y-68361309D01*
X148995833Y-68399404D01*
X148919642Y-68399404D01*
X148805357Y-68361309D01*
X148729166Y-68285119D01*
X148691071Y-68208928D01*
X148652976Y-68056547D01*
X148652976Y-67942261D01*
X148691071Y-67789880D01*
X148729166Y-67713690D01*
X148805357Y-67637500D01*
X148919642Y-67599404D01*
X148995833Y-67599404D01*
X149110119Y-67637500D01*
X149148214Y-67675595D01*
X149872023Y-68399404D02*
X149491071Y-68399404D01*
X149491071Y-67599404D01*
X150329166Y-68666071D02*
X150329166Y-67523214D01*
X150862500Y-68361309D02*
X150976785Y-68399404D01*
X151167261Y-68399404D01*
X151243452Y-68361309D01*
X151281547Y-68323214D01*
X151319642Y-68247023D01*
X151319642Y-68170833D01*
X151281547Y-68094642D01*
X151243452Y-68056547D01*
X151167261Y-68018452D01*
X151014880Y-67980357D01*
X150938690Y-67942261D01*
X150900595Y-67904166D01*
X150862500Y-67827976D01*
X150862500Y-67751785D01*
X150900595Y-67675595D01*
X150938690Y-67637500D01*
X151014880Y-67599404D01*
X151205357Y-67599404D01*
X151319642Y-67637500D01*
X151662500Y-68399404D02*
X151662500Y-67599404D01*
X151852976Y-67599404D01*
X151967261Y-67637500D01*
X152043452Y-67713690D01*
X152081547Y-67789880D01*
X152119642Y-67942261D01*
X152119642Y-68056547D01*
X152081547Y-68208928D01*
X152043452Y-68285119D01*
X151967261Y-68361309D01*
X151852976Y-68399404D01*
X151662500Y-68399404D01*
X152424404Y-68170833D02*
X152805357Y-68170833D01*
X152348214Y-68399404D02*
X152614880Y-67599404D01*
X152881547Y-68399404D01*
X130624404Y-109551785D02*
X130243452Y-109818452D01*
X130624404Y-110008928D02*
X129824404Y-110008928D01*
X129824404Y-109704166D01*
X129862500Y-109627976D01*
X129900595Y-109589880D01*
X129976785Y-109551785D01*
X130091071Y-109551785D01*
X130167261Y-109589880D01*
X130205357Y-109627976D01*
X130243452Y-109704166D01*
X130243452Y-110008928D01*
X129900595Y-109247023D02*
X129862500Y-109208928D01*
X129824404Y-109132738D01*
X129824404Y-108942261D01*
X129862500Y-108866071D01*
X129900595Y-108827976D01*
X129976785Y-108789880D01*
X130052976Y-108789880D01*
X130167261Y-108827976D01*
X130624404Y-109285119D01*
X130624404Y-108789880D01*
X130624404Y-108027976D02*
X130624404Y-108485119D01*
X130624404Y-108256547D02*
X129824404Y-108256547D01*
X129938690Y-108332738D01*
X130014880Y-108408928D01*
X130052976Y-108485119D01*
X135548214Y-126170833D02*
X135586309Y-126208928D01*
X135624404Y-126323214D01*
X135624404Y-126399404D01*
X135586309Y-126513690D01*
X135510119Y-126589880D01*
X135433928Y-126627976D01*
X135281547Y-126666071D01*
X135167261Y-126666071D01*
X135014880Y-126627976D01*
X134938690Y-126589880D01*
X134862500Y-126513690D01*
X134824404Y-126399404D01*
X134824404Y-126323214D01*
X134862500Y-126208928D01*
X134900595Y-126170833D01*
X134900595Y-125866071D02*
X134862500Y-125827976D01*
X134824404Y-125751785D01*
X134824404Y-125561309D01*
X134862500Y-125485119D01*
X134900595Y-125447023D01*
X134976785Y-125408928D01*
X135052976Y-125408928D01*
X135167261Y-125447023D01*
X135624404Y-125904166D01*
X135624404Y-125408928D01*
X141774404Y-89670833D02*
X141393452Y-89937500D01*
X141774404Y-90127976D02*
X140974404Y-90127976D01*
X140974404Y-89823214D01*
X141012500Y-89747023D01*
X141050595Y-89708928D01*
X141126785Y-89670833D01*
X141241071Y-89670833D01*
X141317261Y-89708928D01*
X141355357Y-89747023D01*
X141393452Y-89823214D01*
X141393452Y-90127976D01*
X140974404Y-88947023D02*
X140974404Y-89327976D01*
X141355357Y-89366071D01*
X141317261Y-89327976D01*
X141279166Y-89251785D01*
X141279166Y-89061309D01*
X141317261Y-88985119D01*
X141355357Y-88947023D01*
X141431547Y-88908928D01*
X141622023Y-88908928D01*
X141698214Y-88947023D01*
X141736309Y-88985119D01*
X141774404Y-89061309D01*
X141774404Y-89251785D01*
X141736309Y-89327976D01*
X141698214Y-89366071D01*
X153624404Y-103551785D02*
X153243452Y-103818452D01*
X153624404Y-104008928D02*
X152824404Y-104008928D01*
X152824404Y-103704166D01*
X152862500Y-103627976D01*
X152900595Y-103589880D01*
X152976785Y-103551785D01*
X153091071Y-103551785D01*
X153167261Y-103589880D01*
X153205357Y-103627976D01*
X153243452Y-103704166D01*
X153243452Y-104008928D01*
X153624404Y-102789880D02*
X153624404Y-103247023D01*
X153624404Y-103018452D02*
X152824404Y-103018452D01*
X152938690Y-103094642D01*
X153014880Y-103170833D01*
X153052976Y-103247023D01*
X152824404Y-102066071D02*
X152824404Y-102447023D01*
X153205357Y-102485119D01*
X153167261Y-102447023D01*
X153129166Y-102370833D01*
X153129166Y-102180357D01*
X153167261Y-102104166D01*
X153205357Y-102066071D01*
X153281547Y-102027976D01*
X153472023Y-102027976D01*
X153548214Y-102066071D01*
X153586309Y-102104166D01*
X153624404Y-102180357D01*
X153624404Y-102370833D01*
X153586309Y-102447023D01*
X153548214Y-102485119D01*
X141624404Y-93170833D02*
X141243452Y-93437500D01*
X141624404Y-93627976D02*
X140824404Y-93627976D01*
X140824404Y-93323214D01*
X140862500Y-93247023D01*
X140900595Y-93208928D01*
X140976785Y-93170833D01*
X141091071Y-93170833D01*
X141167261Y-93208928D01*
X141205357Y-93247023D01*
X141243452Y-93323214D01*
X141243452Y-93627976D01*
X140824404Y-92485119D02*
X140824404Y-92637500D01*
X140862500Y-92713690D01*
X140900595Y-92751785D01*
X141014880Y-92827976D01*
X141167261Y-92866071D01*
X141472023Y-92866071D01*
X141548214Y-92827976D01*
X141586309Y-92789880D01*
X141624404Y-92713690D01*
X141624404Y-92561309D01*
X141586309Y-92485119D01*
X141548214Y-92447023D01*
X141472023Y-92408928D01*
X141281547Y-92408928D01*
X141205357Y-92447023D01*
X141167261Y-92485119D01*
X141129166Y-92561309D01*
X141129166Y-92713690D01*
X141167261Y-92789880D01*
X141205357Y-92827976D01*
X141281547Y-92866071D01*
X153474404Y-73170833D02*
X153093452Y-73437500D01*
X153474404Y-73627976D02*
X152674404Y-73627976D01*
X152674404Y-73323214D01*
X152712500Y-73247023D01*
X152750595Y-73208928D01*
X152826785Y-73170833D01*
X152941071Y-73170833D01*
X153017261Y-73208928D01*
X153055357Y-73247023D01*
X153093452Y-73323214D01*
X153093452Y-73627976D01*
X153474404Y-72789880D02*
X153474404Y-72637500D01*
X153436309Y-72561309D01*
X153398214Y-72523214D01*
X153283928Y-72447023D01*
X153131547Y-72408928D01*
X152826785Y-72408928D01*
X152750595Y-72447023D01*
X152712500Y-72485119D01*
X152674404Y-72561309D01*
X152674404Y-72713690D01*
X152712500Y-72789880D01*
X152750595Y-72827976D01*
X152826785Y-72866071D01*
X153017261Y-72866071D01*
X153093452Y-72827976D01*
X153131547Y-72789880D01*
X153169642Y-72713690D01*
X153169642Y-72561309D01*
X153131547Y-72485119D01*
X153093452Y-72447023D01*
X153017261Y-72408928D01*
X160624404Y-109551785D02*
X160243452Y-109818452D01*
X160624404Y-110008928D02*
X159824404Y-110008928D01*
X159824404Y-109704166D01*
X159862500Y-109627976D01*
X159900595Y-109589880D01*
X159976785Y-109551785D01*
X160091071Y-109551785D01*
X160167261Y-109589880D01*
X160205357Y-109627976D01*
X160243452Y-109704166D01*
X160243452Y-110008928D01*
X160624404Y-108789880D02*
X160624404Y-109247023D01*
X160624404Y-109018452D02*
X159824404Y-109018452D01*
X159938690Y-109094642D01*
X160014880Y-109170833D01*
X160052976Y-109247023D01*
X160167261Y-108332738D02*
X160129166Y-108408928D01*
X160091071Y-108447023D01*
X160014880Y-108485119D01*
X159976785Y-108485119D01*
X159900595Y-108447023D01*
X159862500Y-108408928D01*
X159824404Y-108332738D01*
X159824404Y-108180357D01*
X159862500Y-108104166D01*
X159900595Y-108066071D01*
X159976785Y-108027976D01*
X160014880Y-108027976D01*
X160091071Y-108066071D01*
X160129166Y-108104166D01*
X160167261Y-108180357D01*
X160167261Y-108332738D01*
X160205357Y-108408928D01*
X160243452Y-108447023D01*
X160319642Y-108485119D01*
X160472023Y-108485119D01*
X160548214Y-108447023D01*
X160586309Y-108408928D01*
X160624404Y-108332738D01*
X160624404Y-108180357D01*
X160586309Y-108104166D01*
X160548214Y-108066071D01*
X160472023Y-108027976D01*
X160319642Y-108027976D01*
X160243452Y-108066071D01*
X160205357Y-108104166D01*
X160167261Y-108180357D01*
X141624404Y-83170833D02*
X141243452Y-83437500D01*
X141624404Y-83627976D02*
X140824404Y-83627976D01*
X140824404Y-83323214D01*
X140862500Y-83247023D01*
X140900595Y-83208928D01*
X140976785Y-83170833D01*
X141091071Y-83170833D01*
X141167261Y-83208928D01*
X141205357Y-83247023D01*
X141243452Y-83323214D01*
X141243452Y-83627976D01*
X141091071Y-82485119D02*
X141624404Y-82485119D01*
X140786309Y-82675595D02*
X141357738Y-82866071D01*
X141357738Y-82370833D01*
X146897976Y-107099404D02*
X146897976Y-107747023D01*
X146936071Y-107823214D01*
X146974166Y-107861309D01*
X147050357Y-107899404D01*
X147202738Y-107899404D01*
X147278928Y-107861309D01*
X147317023Y-107823214D01*
X147355119Y-107747023D01*
X147355119Y-107099404D01*
X148155119Y-107899404D02*
X147697976Y-107899404D01*
X147926547Y-107899404D02*
X147926547Y-107099404D01*
X147850357Y-107213690D01*
X147774166Y-107289880D01*
X147697976Y-107327976D01*
X153624404Y-90051785D02*
X153243452Y-90318452D01*
X153624404Y-90508928D02*
X152824404Y-90508928D01*
X152824404Y-90204166D01*
X152862500Y-90127976D01*
X152900595Y-90089880D01*
X152976785Y-90051785D01*
X153091071Y-90051785D01*
X153167261Y-90089880D01*
X153205357Y-90127976D01*
X153243452Y-90204166D01*
X153243452Y-90508928D01*
X153624404Y-89289880D02*
X153624404Y-89747023D01*
X153624404Y-89518452D02*
X152824404Y-89518452D01*
X152938690Y-89594642D01*
X153014880Y-89670833D01*
X153052976Y-89747023D01*
X153091071Y-88604166D02*
X153624404Y-88604166D01*
X152786309Y-88794642D02*
X153357738Y-88985119D01*
X153357738Y-88489880D01*
X141774404Y-99670833D02*
X141393452Y-99937500D01*
X141774404Y-100127976D02*
X140974404Y-100127976D01*
X140974404Y-99823214D01*
X141012500Y-99747023D01*
X141050595Y-99708928D01*
X141126785Y-99670833D01*
X141241071Y-99670833D01*
X141317261Y-99708928D01*
X141355357Y-99747023D01*
X141393452Y-99823214D01*
X141393452Y-100127976D01*
X140974404Y-99404166D02*
X140974404Y-98870833D01*
X141774404Y-99213690D01*
X153474404Y-83551785D02*
X153093452Y-83818452D01*
X153474404Y-84008928D02*
X152674404Y-84008928D01*
X152674404Y-83704166D01*
X152712500Y-83627976D01*
X152750595Y-83589880D01*
X152826785Y-83551785D01*
X152941071Y-83551785D01*
X153017261Y-83589880D01*
X153055357Y-83627976D01*
X153093452Y-83704166D01*
X153093452Y-84008928D01*
X153474404Y-82789880D02*
X153474404Y-83247023D01*
X153474404Y-83018452D02*
X152674404Y-83018452D01*
X152788690Y-83094642D01*
X152864880Y-83170833D01*
X152902976Y-83247023D01*
X153474404Y-82027976D02*
X153474404Y-82485119D01*
X153474404Y-82256547D02*
X152674404Y-82256547D01*
X152788690Y-82332738D01*
X152864880Y-82408928D01*
X152902976Y-82485119D01*
X163152976Y-95099404D02*
X163610119Y-95099404D01*
X163381547Y-95899404D02*
X163381547Y-95099404D01*
X163800595Y-95099404D02*
X164333928Y-95099404D01*
X163991071Y-95899404D01*
X130152976Y-85099404D02*
X130610119Y-85099404D01*
X130381547Y-85899404D02*
X130381547Y-85099404D01*
X130838690Y-85175595D02*
X130876785Y-85137500D01*
X130952976Y-85099404D01*
X131143452Y-85099404D01*
X131219642Y-85137500D01*
X131257738Y-85175595D01*
X131295833Y-85251785D01*
X131295833Y-85327976D01*
X131257738Y-85442261D01*
X130800595Y-85899404D01*
X131295833Y-85899404D01*
X163152976Y-75099404D02*
X163610119Y-75099404D01*
X163381547Y-75899404D02*
X163381547Y-75099404D01*
X164257738Y-75099404D02*
X163876785Y-75099404D01*
X163838690Y-75480357D01*
X163876785Y-75442261D01*
X163952976Y-75404166D01*
X164143452Y-75404166D01*
X164219642Y-75442261D01*
X164257738Y-75480357D01*
X164295833Y-75556547D01*
X164295833Y-75747023D01*
X164257738Y-75823214D01*
X164219642Y-75861309D01*
X164143452Y-75899404D01*
X163952976Y-75899404D01*
X163876785Y-75861309D01*
X163838690Y-75823214D01*
X164624404Y-109551785D02*
X164243452Y-109818452D01*
X164624404Y-110008928D02*
X163824404Y-110008928D01*
X163824404Y-109704166D01*
X163862500Y-109627976D01*
X163900595Y-109589880D01*
X163976785Y-109551785D01*
X164091071Y-109551785D01*
X164167261Y-109589880D01*
X164205357Y-109627976D01*
X164243452Y-109704166D01*
X164243452Y-110008928D01*
X163900595Y-109247023D02*
X163862500Y-109208928D01*
X163824404Y-109132738D01*
X163824404Y-108942261D01*
X163862500Y-108866071D01*
X163900595Y-108827976D01*
X163976785Y-108789880D01*
X164052976Y-108789880D01*
X164167261Y-108827976D01*
X164624404Y-109285119D01*
X164624404Y-108789880D01*
X163900595Y-108485119D02*
X163862500Y-108447023D01*
X163824404Y-108370833D01*
X163824404Y-108180357D01*
X163862500Y-108104166D01*
X163900595Y-108066071D01*
X163976785Y-108027976D01*
X164052976Y-108027976D01*
X164167261Y-108066071D01*
X164624404Y-108523214D01*
X164624404Y-108027976D01*
X153624404Y-80051785D02*
X153243452Y-80318452D01*
X153624404Y-80508928D02*
X152824404Y-80508928D01*
X152824404Y-80204166D01*
X152862500Y-80127976D01*
X152900595Y-80089880D01*
X152976785Y-80051785D01*
X153091071Y-80051785D01*
X153167261Y-80089880D01*
X153205357Y-80127976D01*
X153243452Y-80204166D01*
X153243452Y-80508928D01*
X153624404Y-79289880D02*
X153624404Y-79747023D01*
X153624404Y-79518452D02*
X152824404Y-79518452D01*
X152938690Y-79594642D01*
X153014880Y-79670833D01*
X153052976Y-79747023D01*
X152900595Y-78985119D02*
X152862500Y-78947023D01*
X152824404Y-78870833D01*
X152824404Y-78680357D01*
X152862500Y-78604166D01*
X152900595Y-78566071D01*
X152976785Y-78527976D01*
X153052976Y-78527976D01*
X153167261Y-78566071D01*
X153624404Y-79023214D01*
X153624404Y-78527976D01*
X145048214Y-82670833D02*
X145086309Y-82708928D01*
X145124404Y-82823214D01*
X145124404Y-82899404D01*
X145086309Y-83013690D01*
X145010119Y-83089880D01*
X144933928Y-83127976D01*
X144781547Y-83166071D01*
X144667261Y-83166071D01*
X144514880Y-83127976D01*
X144438690Y-83089880D01*
X144362500Y-83013690D01*
X144324404Y-82899404D01*
X144324404Y-82823214D01*
X144362500Y-82708928D01*
X144400595Y-82670833D01*
X145124404Y-81908928D02*
X145124404Y-82366071D01*
X145124404Y-82137500D02*
X144324404Y-82137500D01*
X144438690Y-82213690D01*
X144514880Y-82289880D01*
X144552976Y-82366071D01*
X162624404Y-109627976D02*
X161824404Y-109627976D01*
X161824404Y-109437500D01*
X161862500Y-109323214D01*
X161938690Y-109247023D01*
X162014880Y-109208928D01*
X162167261Y-109170833D01*
X162281547Y-109170833D01*
X162433928Y-109208928D01*
X162510119Y-109247023D01*
X162586309Y-109323214D01*
X162624404Y-109437500D01*
X162624404Y-109627976D01*
X161900595Y-108866071D02*
X161862500Y-108827976D01*
X161824404Y-108751785D01*
X161824404Y-108561309D01*
X161862500Y-108485119D01*
X161900595Y-108447023D01*
X161976785Y-108408928D01*
X162052976Y-108408928D01*
X162167261Y-108447023D01*
X162624404Y-108904166D01*
X162624404Y-108408928D01*
X132624404Y-109627976D02*
X131824404Y-109627976D01*
X131824404Y-109437500D01*
X131862500Y-109323214D01*
X131938690Y-109247023D01*
X132014880Y-109208928D01*
X132167261Y-109170833D01*
X132281547Y-109170833D01*
X132433928Y-109208928D01*
X132510119Y-109247023D01*
X132586309Y-109323214D01*
X132624404Y-109437500D01*
X132624404Y-109627976D01*
X132624404Y-108408928D02*
X132624404Y-108866071D01*
X132624404Y-108637500D02*
X131824404Y-108637500D01*
X131938690Y-108713690D01*
X132014880Y-108789880D01*
X132052976Y-108866071D01*
X131195833Y-116361309D02*
X131310119Y-116399404D01*
X131500595Y-116399404D01*
X131576785Y-116361309D01*
X131614880Y-116323214D01*
X131652976Y-116247023D01*
X131652976Y-116170833D01*
X131614880Y-116094642D01*
X131576785Y-116056547D01*
X131500595Y-116018452D01*
X131348214Y-115980357D01*
X131272023Y-115942261D01*
X131233928Y-115904166D01*
X131195833Y-115827976D01*
X131195833Y-115751785D01*
X131233928Y-115675595D01*
X131272023Y-115637500D01*
X131348214Y-115599404D01*
X131538690Y-115599404D01*
X131652976Y-115637500D01*
X131919642Y-115599404D02*
X132110119Y-116399404D01*
X132262500Y-115827976D01*
X132414880Y-116399404D01*
X132605357Y-115599404D01*
X133329166Y-116399404D02*
X132872023Y-116399404D01*
X133100595Y-116399404D02*
X133100595Y-115599404D01*
X133024404Y-115713690D01*
X132948214Y-115789880D01*
X132872023Y-115827976D01*
X161195833Y-116361309D02*
X161310119Y-116399404D01*
X161500595Y-116399404D01*
X161576785Y-116361309D01*
X161614880Y-116323214D01*
X161652976Y-116247023D01*
X161652976Y-116170833D01*
X161614880Y-116094642D01*
X161576785Y-116056547D01*
X161500595Y-116018452D01*
X161348214Y-115980357D01*
X161272023Y-115942261D01*
X161233928Y-115904166D01*
X161195833Y-115827976D01*
X161195833Y-115751785D01*
X161233928Y-115675595D01*
X161272023Y-115637500D01*
X161348214Y-115599404D01*
X161538690Y-115599404D01*
X161652976Y-115637500D01*
X161919642Y-115599404D02*
X162110119Y-116399404D01*
X162262500Y-115827976D01*
X162414880Y-116399404D01*
X162605357Y-115599404D01*
X162872023Y-115675595D02*
X162910119Y-115637500D01*
X162986309Y-115599404D01*
X163176785Y-115599404D01*
X163252976Y-115637500D01*
X163291071Y-115675595D01*
X163329166Y-115751785D01*
X163329166Y-115827976D01*
X163291071Y-115942261D01*
X162833928Y-116399404D01*
X163329166Y-116399404D01*
X163152976Y-105099404D02*
X163610119Y-105099404D01*
X163381547Y-105899404D02*
X163381547Y-105099404D01*
X163991071Y-105442261D02*
X163914880Y-105404166D01*
X163876785Y-105366071D01*
X163838690Y-105289880D01*
X163838690Y-105251785D01*
X163876785Y-105175595D01*
X163914880Y-105137500D01*
X163991071Y-105099404D01*
X164143452Y-105099404D01*
X164219642Y-105137500D01*
X164257738Y-105175595D01*
X164295833Y-105251785D01*
X164295833Y-105289880D01*
X164257738Y-105366071D01*
X164219642Y-105404166D01*
X164143452Y-105442261D01*
X163991071Y-105442261D01*
X163914880Y-105480357D01*
X163876785Y-105518452D01*
X163838690Y-105594642D01*
X163838690Y-105747023D01*
X163876785Y-105823214D01*
X163914880Y-105861309D01*
X163991071Y-105899404D01*
X164143452Y-105899404D01*
X164219642Y-105861309D01*
X164257738Y-105823214D01*
X164295833Y-105747023D01*
X164295833Y-105594642D01*
X164257738Y-105518452D01*
X164219642Y-105480357D01*
X164143452Y-105442261D01*
X150124404Y-83551785D02*
X149743452Y-83818452D01*
X150124404Y-84008928D02*
X149324404Y-84008928D01*
X149324404Y-83704166D01*
X149362500Y-83627976D01*
X149400595Y-83589880D01*
X149476785Y-83551785D01*
X149591071Y-83551785D01*
X149667261Y-83589880D01*
X149705357Y-83627976D01*
X149743452Y-83704166D01*
X149743452Y-84008928D01*
X150124404Y-82789880D02*
X150124404Y-83247023D01*
X150124404Y-83018452D02*
X149324404Y-83018452D01*
X149438690Y-83094642D01*
X149514880Y-83170833D01*
X149552976Y-83247023D01*
X150124404Y-82408928D02*
X150124404Y-82256547D01*
X150086309Y-82180357D01*
X150048214Y-82142261D01*
X149933928Y-82066071D01*
X149781547Y-82027976D01*
X149476785Y-82027976D01*
X149400595Y-82066071D01*
X149362500Y-82104166D01*
X149324404Y-82180357D01*
X149324404Y-82332738D01*
X149362500Y-82408928D01*
X149400595Y-82447023D01*
X149476785Y-82485119D01*
X149667261Y-82485119D01*
X149743452Y-82447023D01*
X149781547Y-82408928D01*
X149819642Y-82332738D01*
X149819642Y-82180357D01*
X149781547Y-82104166D01*
X149743452Y-82066071D01*
X149667261Y-82027976D01*
X153624404Y-100051785D02*
X153243452Y-100318452D01*
X153624404Y-100508928D02*
X152824404Y-100508928D01*
X152824404Y-100204166D01*
X152862500Y-100127976D01*
X152900595Y-100089880D01*
X152976785Y-100051785D01*
X153091071Y-100051785D01*
X153167261Y-100089880D01*
X153205357Y-100127976D01*
X153243452Y-100204166D01*
X153243452Y-100508928D01*
X153624404Y-99289880D02*
X153624404Y-99747023D01*
X153624404Y-99518452D02*
X152824404Y-99518452D01*
X152938690Y-99594642D01*
X153014880Y-99670833D01*
X153052976Y-99747023D01*
X152824404Y-98604166D02*
X152824404Y-98756547D01*
X152862500Y-98832738D01*
X152900595Y-98870833D01*
X153014880Y-98947023D01*
X153167261Y-98985119D01*
X153472023Y-98985119D01*
X153548214Y-98947023D01*
X153586309Y-98908928D01*
X153624404Y-98832738D01*
X153624404Y-98680357D01*
X153586309Y-98604166D01*
X153548214Y-98566071D01*
X153472023Y-98527976D01*
X153281547Y-98527976D01*
X153205357Y-98566071D01*
X153167261Y-98604166D01*
X153129166Y-98680357D01*
X153129166Y-98832738D01*
X153167261Y-98908928D01*
X153205357Y-98947023D01*
X153281547Y-98985119D01*
X130152976Y-105099404D02*
X130610119Y-105099404D01*
X130381547Y-105899404D02*
X130381547Y-105099404D01*
X131219642Y-105366071D02*
X131219642Y-105899404D01*
X131029166Y-105061309D02*
X130838690Y-105632738D01*
X131333928Y-105632738D01*
X163152976Y-85099404D02*
X163610119Y-85099404D01*
X163381547Y-85899404D02*
X163381547Y-85099404D01*
X164219642Y-85099404D02*
X164067261Y-85099404D01*
X163991071Y-85137500D01*
X163952976Y-85175595D01*
X163876785Y-85289880D01*
X163838690Y-85442261D01*
X163838690Y-85747023D01*
X163876785Y-85823214D01*
X163914880Y-85861309D01*
X163991071Y-85899404D01*
X164143452Y-85899404D01*
X164219642Y-85861309D01*
X164257738Y-85823214D01*
X164295833Y-85747023D01*
X164295833Y-85556547D01*
X164257738Y-85480357D01*
X164219642Y-85442261D01*
X164143452Y-85404166D01*
X163991071Y-85404166D01*
X163914880Y-85442261D01*
X163876785Y-85480357D01*
X163838690Y-85556547D01*
X153474404Y-93551785D02*
X153093452Y-93818452D01*
X153474404Y-94008928D02*
X152674404Y-94008928D01*
X152674404Y-93704166D01*
X152712500Y-93627976D01*
X152750595Y-93589880D01*
X152826785Y-93551785D01*
X152941071Y-93551785D01*
X153017261Y-93589880D01*
X153055357Y-93627976D01*
X153093452Y-93704166D01*
X153093452Y-94008928D01*
X153474404Y-92789880D02*
X153474404Y-93247023D01*
X153474404Y-93018452D02*
X152674404Y-93018452D01*
X152788690Y-93094642D01*
X152864880Y-93170833D01*
X152902976Y-93247023D01*
X152674404Y-92523214D02*
X152674404Y-92027976D01*
X152979166Y-92294642D01*
X152979166Y-92180357D01*
X153017261Y-92104166D01*
X153055357Y-92066071D01*
X153131547Y-92027976D01*
X153322023Y-92027976D01*
X153398214Y-92066071D01*
X153436309Y-92104166D01*
X153474404Y-92180357D01*
X153474404Y-92408928D01*
X153436309Y-92485119D01*
X153398214Y-92523214D01*
X141624404Y-73170833D02*
X141243452Y-73437500D01*
X141624404Y-73627976D02*
X140824404Y-73627976D01*
X140824404Y-73323214D01*
X140862500Y-73247023D01*
X140900595Y-73208928D01*
X140976785Y-73170833D01*
X141091071Y-73170833D01*
X141167261Y-73208928D01*
X141205357Y-73247023D01*
X141243452Y-73323214D01*
X141243452Y-73627976D01*
X140900595Y-72866071D02*
X140862500Y-72827976D01*
X140824404Y-72751785D01*
X140824404Y-72561309D01*
X140862500Y-72485119D01*
X140900595Y-72447023D01*
X140976785Y-72408928D01*
X141052976Y-72408928D01*
X141167261Y-72447023D01*
X141624404Y-72904166D01*
X141624404Y-72408928D01*
X134624404Y-109551785D02*
X134243452Y-109818452D01*
X134624404Y-110008928D02*
X133824404Y-110008928D01*
X133824404Y-109704166D01*
X133862500Y-109627976D01*
X133900595Y-109589880D01*
X133976785Y-109551785D01*
X134091071Y-109551785D01*
X134167261Y-109589880D01*
X134205357Y-109627976D01*
X134243452Y-109704166D01*
X134243452Y-110008928D01*
X134624404Y-108789880D02*
X134624404Y-109247023D01*
X134624404Y-109018452D02*
X133824404Y-109018452D01*
X133938690Y-109094642D01*
X134014880Y-109170833D01*
X134052976Y-109247023D01*
X133824404Y-108523214D02*
X133824404Y-107989880D01*
X134624404Y-108332738D01*
X130152976Y-95099404D02*
X130610119Y-95099404D01*
X130381547Y-95899404D02*
X130381547Y-95099404D01*
X130800595Y-95099404D02*
X131295833Y-95099404D01*
X131029166Y-95404166D01*
X131143452Y-95404166D01*
X131219642Y-95442261D01*
X131257738Y-95480357D01*
X131295833Y-95556547D01*
X131295833Y-95747023D01*
X131257738Y-95823214D01*
X131219642Y-95861309D01*
X131143452Y-95899404D01*
X130914880Y-95899404D01*
X130838690Y-95861309D01*
X130800595Y-95823214D01*
X130152976Y-75099404D02*
X130610119Y-75099404D01*
X130381547Y-75899404D02*
X130381547Y-75099404D01*
X131295833Y-75899404D02*
X130838690Y-75899404D01*
X131067261Y-75899404D02*
X131067261Y-75099404D01*
X130991071Y-75213690D01*
X130914880Y-75289880D01*
X130838690Y-75327976D01*
X147624404Y-83551785D02*
X147243452Y-83818452D01*
X147624404Y-84008928D02*
X146824404Y-84008928D01*
X146824404Y-83704166D01*
X146862500Y-83627976D01*
X146900595Y-83589880D01*
X146976785Y-83551785D01*
X147091071Y-83551785D01*
X147167261Y-83589880D01*
X147205357Y-83627976D01*
X147243452Y-83704166D01*
X147243452Y-84008928D01*
X146900595Y-83247023D02*
X146862500Y-83208928D01*
X146824404Y-83132738D01*
X146824404Y-82942261D01*
X146862500Y-82866071D01*
X146900595Y-82827976D01*
X146976785Y-82789880D01*
X147052976Y-82789880D01*
X147167261Y-82827976D01*
X147624404Y-83285119D01*
X147624404Y-82789880D01*
X146824404Y-82294642D02*
X146824404Y-82218452D01*
X146862500Y-82142261D01*
X146900595Y-82104166D01*
X146976785Y-82066071D01*
X147129166Y-82027976D01*
X147319642Y-82027976D01*
X147472023Y-82066071D01*
X147548214Y-82104166D01*
X147586309Y-82142261D01*
X147624404Y-82218452D01*
X147624404Y-82294642D01*
X147586309Y-82370833D01*
X147548214Y-82408928D01*
X147472023Y-82447023D01*
X147319642Y-82485119D01*
X147129166Y-82485119D01*
X146976785Y-82447023D01*
X146900595Y-82408928D01*
X146862500Y-82370833D01*
X146824404Y-82294642D01*
X144495833Y-75599404D02*
X144495833Y-76170833D01*
X144457738Y-76285119D01*
X144381547Y-76361309D01*
X144267261Y-76399404D01*
X144191071Y-76399404D01*
X145295833Y-76399404D02*
X144838690Y-76399404D01*
X145067261Y-76399404D02*
X145067261Y-75599404D01*
X144991071Y-75713690D01*
X144914880Y-75789880D01*
X144838690Y-75827976D01*
X141774404Y-79670833D02*
X141393452Y-79937500D01*
X141774404Y-80127976D02*
X140974404Y-80127976D01*
X140974404Y-79823214D01*
X141012500Y-79747023D01*
X141050595Y-79708928D01*
X141126785Y-79670833D01*
X141241071Y-79670833D01*
X141317261Y-79708928D01*
X141355357Y-79747023D01*
X141393452Y-79823214D01*
X141393452Y-80127976D01*
X140974404Y-79404166D02*
X140974404Y-78908928D01*
X141279166Y-79175595D01*
X141279166Y-79061309D01*
X141317261Y-78985119D01*
X141355357Y-78947023D01*
X141431547Y-78908928D01*
X141622023Y-78908928D01*
X141698214Y-78947023D01*
X141736309Y-78985119D01*
X141774404Y-79061309D01*
X141774404Y-79289880D01*
X141736309Y-79366071D01*
X141698214Y-79404166D01*
X153624404Y-70278849D02*
X153243452Y-70545516D01*
X153624404Y-70735992D02*
X152824404Y-70735992D01*
X152824404Y-70431230D01*
X152862500Y-70355040D01*
X152900595Y-70316944D01*
X152976785Y-70278849D01*
X153091071Y-70278849D01*
X153167261Y-70316944D01*
X153205357Y-70355040D01*
X153243452Y-70431230D01*
X153243452Y-70735992D01*
X153624404Y-69516944D02*
X153624404Y-69974087D01*
X153624404Y-69745516D02*
X152824404Y-69745516D01*
X152938690Y-69821706D01*
X153014880Y-69897897D01*
X153052976Y-69974087D01*
X152824404Y-69021706D02*
X152824404Y-68945516D01*
X152862500Y-68869325D01*
X152900595Y-68831230D01*
X152976785Y-68793135D01*
X153129166Y-68755040D01*
X153319642Y-68755040D01*
X153472023Y-68793135D01*
X153548214Y-68831230D01*
X153586309Y-68869325D01*
X153624404Y-68945516D01*
X153624404Y-69021706D01*
X153586309Y-69097897D01*
X153548214Y-69135992D01*
X153472023Y-69174087D01*
X153319642Y-69212183D01*
X153129166Y-69212183D01*
X152976785Y-69174087D01*
X152900595Y-69135992D01*
X152862500Y-69097897D01*
X152824404Y-69021706D01*
X141624404Y-69670833D02*
X141243452Y-69937500D01*
X141624404Y-70127976D02*
X140824404Y-70127976D01*
X140824404Y-69823214D01*
X140862500Y-69747023D01*
X140900595Y-69708928D01*
X140976785Y-69670833D01*
X141091071Y-69670833D01*
X141167261Y-69708928D01*
X141205357Y-69747023D01*
X141243452Y-69823214D01*
X141243452Y-70127976D01*
X141624404Y-68908928D02*
X141624404Y-69366071D01*
X141624404Y-69137500D02*
X140824404Y-69137500D01*
X140938690Y-69213690D01*
X141014880Y-69289880D01*
X141052976Y-69366071D01*
X141624404Y-103170833D02*
X141243452Y-103437500D01*
X141624404Y-103627976D02*
X140824404Y-103627976D01*
X140824404Y-103323214D01*
X140862500Y-103247023D01*
X140900595Y-103208928D01*
X140976785Y-103170833D01*
X141091071Y-103170833D01*
X141167261Y-103208928D01*
X141205357Y-103247023D01*
X141243452Y-103323214D01*
X141243452Y-103627976D01*
X141167261Y-102713690D02*
X141129166Y-102789880D01*
X141091071Y-102827976D01*
X141014880Y-102866071D01*
X140976785Y-102866071D01*
X140900595Y-102827976D01*
X140862500Y-102789880D01*
X140824404Y-102713690D01*
X140824404Y-102561309D01*
X140862500Y-102485119D01*
X140900595Y-102447023D01*
X140976785Y-102408928D01*
X141014880Y-102408928D01*
X141091071Y-102447023D01*
X141129166Y-102485119D01*
X141167261Y-102561309D01*
X141167261Y-102713690D01*
X141205357Y-102789880D01*
X141243452Y-102827976D01*
X141319642Y-102866071D01*
X141472023Y-102866071D01*
X141548214Y-102827976D01*
X141586309Y-102789880D01*
X141624404Y-102713690D01*
X141624404Y-102561309D01*
X141586309Y-102485119D01*
X141548214Y-102447023D01*
X141472023Y-102408928D01*
X141319642Y-102408928D01*
X141243452Y-102447023D01*
X141205357Y-102485119D01*
X141167261Y-102561309D01*
D12*
X130997500Y-111810436D02*
X130997500Y-112264564D01*
X129527500Y-111810436D02*
X129527500Y-112264564D01*
X134527500Y-128776248D02*
X134527500Y-129298752D01*
X135997500Y-128776248D02*
X135997500Y-129298752D01*
X139027500Y-89310436D02*
X139027500Y-89764564D01*
X140497500Y-89310436D02*
X140497500Y-89764564D01*
X155497500Y-103264564D02*
X155497500Y-102810436D01*
X154027500Y-103264564D02*
X154027500Y-102810436D01*
G36*
X162818314Y-125506431D02*
G01*
X162902135Y-125951055D01*
X163211420Y-126078553D01*
X163520706Y-126206051D01*
X163891746Y-125953746D01*
X163995657Y-125883496D01*
X164089587Y-125820772D01*
X164169152Y-125768438D01*
X164229970Y-125729357D01*
X164267657Y-125706393D01*
X164277921Y-125701442D01*
X164296410Y-125714176D01*
X164335920Y-125749382D01*
X164392022Y-125802562D01*
X164460287Y-125869218D01*
X164536286Y-125944854D01*
X164615592Y-126024972D01*
X164693775Y-126105074D01*
X164766407Y-126180664D01*
X164829059Y-126247245D01*
X164877303Y-126300318D01*
X164906710Y-126335387D01*
X164913741Y-126347123D01*
X164903623Y-126368760D01*
X164875259Y-126416162D01*
X164831629Y-126484693D01*
X164775718Y-126569715D01*
X164710506Y-126666593D01*
X164672719Y-126721850D01*
X164603843Y-126822748D01*
X164542640Y-126913799D01*
X164492078Y-126990470D01*
X164455128Y-127048228D01*
X164434758Y-127082543D01*
X164431697Y-127089754D01*
X164438636Y-127110248D01*
X164457551Y-127158013D01*
X164485587Y-127226332D01*
X164519891Y-127308489D01*
X164557609Y-127397770D01*
X164595887Y-127487458D01*
X164631870Y-127570838D01*
X164662706Y-127641194D01*
X164685539Y-127691810D01*
X164697517Y-127715971D01*
X164698224Y-127716922D01*
X164717031Y-127721536D01*
X164767118Y-127731828D01*
X164843293Y-127746787D01*
X164940365Y-127765401D01*
X165053143Y-127786659D01*
X165118942Y-127798918D01*
X165239450Y-127821862D01*
X165348297Y-127843695D01*
X165439976Y-127863222D01*
X165508981Y-127879248D01*
X165549804Y-127890579D01*
X165558011Y-127894174D01*
X165566048Y-127918506D01*
X165572533Y-127973459D01*
X165577470Y-128052608D01*
X165580864Y-128149526D01*
X165582718Y-128257787D01*
X165583038Y-128370965D01*
X165581827Y-128482635D01*
X165579090Y-128586368D01*
X165574831Y-128675741D01*
X165569055Y-128744326D01*
X165561767Y-128785697D01*
X165557395Y-128794310D01*
X165531264Y-128804633D01*
X165475893Y-128819392D01*
X165398607Y-128836852D01*
X165306730Y-128855280D01*
X165274658Y-128861241D01*
X165120024Y-128889566D01*
X164997875Y-128912376D01*
X164904173Y-128930580D01*
X164834884Y-128945083D01*
X164785971Y-128956792D01*
X164753397Y-128966615D01*
X164733128Y-128975456D01*
X164721126Y-128984224D01*
X164719447Y-128985957D01*
X164702684Y-129013871D01*
X164677114Y-129068195D01*
X164645288Y-129142277D01*
X164609760Y-129229465D01*
X164573083Y-129323108D01*
X164537811Y-129416552D01*
X164506496Y-129503147D01*
X164481693Y-129576240D01*
X164465954Y-129629178D01*
X164461832Y-129655311D01*
X164462176Y-129656226D01*
X164476141Y-129677586D01*
X164507822Y-129724584D01*
X164553891Y-129792327D01*
X164611018Y-129875923D01*
X164675873Y-129970482D01*
X164694343Y-129997354D01*
X164760199Y-130094775D01*
X164818150Y-130183663D01*
X164865038Y-130258912D01*
X164897707Y-130315420D01*
X164913000Y-130348081D01*
X164913741Y-130352093D01*
X164900892Y-130373184D01*
X164865388Y-130414964D01*
X164811793Y-130472945D01*
X164744671Y-130542635D01*
X164668587Y-130619545D01*
X164588104Y-130699183D01*
X164507787Y-130777061D01*
X164432199Y-130848686D01*
X164365905Y-130909570D01*
X164313469Y-130955221D01*
X164279455Y-130981150D01*
X164270045Y-130985383D01*
X164248143Y-130975412D01*
X164203300Y-130948520D01*
X164142821Y-130909236D01*
X164096289Y-130877617D01*
X164011975Y-130819598D01*
X163912126Y-130751284D01*
X163811973Y-130683079D01*
X163758127Y-130646575D01*
X163575871Y-130523300D01*
X163422881Y-130606020D01*
X163353182Y-130642259D01*
X163293914Y-130670426D01*
X163253811Y-130686491D01*
X163243603Y-130688726D01*
X163231329Y-130672222D01*
X163207113Y-130625582D01*
X163172763Y-130553109D01*
X163130088Y-130459106D01*
X163080894Y-130347874D01*
X163026990Y-130223715D01*
X162970184Y-130090932D01*
X162912282Y-129953827D01*
X162855093Y-129816702D01*
X162800424Y-129683858D01*
X162750084Y-129559598D01*
X162705880Y-129448225D01*
X162669619Y-129354039D01*
X162643109Y-129281344D01*
X162628158Y-129234441D01*
X162625754Y-129218333D01*
X162644811Y-129197786D01*
X162686536Y-129164433D01*
X162742206Y-129125202D01*
X162746878Y-129122099D01*
X162890764Y-129006923D01*
X163006783Y-128872553D01*
X163093930Y-128723284D01*
X163151199Y-128563413D01*
X163177586Y-128397237D01*
X163172085Y-128229052D01*
X163133690Y-128063155D01*
X163061395Y-127903842D01*
X163040126Y-127868987D01*
X162929496Y-127728237D01*
X162798802Y-127615214D01*
X162652564Y-127530503D01*
X162495308Y-127474694D01*
X162331557Y-127448374D01*
X162165833Y-127452130D01*
X162002662Y-127486550D01*
X161846565Y-127552223D01*
X161702067Y-127649735D01*
X161657369Y-127689313D01*
X161543612Y-127813203D01*
X161460718Y-127943624D01*
X161403856Y-128089815D01*
X161372187Y-128234588D01*
X161364369Y-128397360D01*
X161390438Y-128560940D01*
X161447745Y-128719798D01*
X161533644Y-128868406D01*
X161645486Y-129001235D01*
X161780623Y-129112756D01*
X161798383Y-129124511D01*
X161854650Y-129163008D01*
X161897423Y-129196363D01*
X161917872Y-129217660D01*
X161918169Y-129218333D01*
X161913779Y-129241371D01*
X161896376Y-129293657D01*
X161867768Y-129370890D01*
X161829765Y-129468768D01*
X161784174Y-129582991D01*
X161732803Y-129709258D01*
X161677462Y-129843267D01*
X161619958Y-129980718D01*
X161562101Y-130117308D01*
X161505698Y-130248737D01*
X161452558Y-130370705D01*
X161404490Y-130478909D01*
X161363301Y-130569049D01*
X161330801Y-130636823D01*
X161308797Y-130677930D01*
X161299936Y-130688726D01*
X161272860Y-130680319D01*
X161222197Y-130657772D01*
X161156683Y-130625113D01*
X161120659Y-130606020D01*
X160967668Y-130523300D01*
X160785412Y-130646575D01*
X160692375Y-130709728D01*
X160590515Y-130779227D01*
X160495062Y-130844665D01*
X160447250Y-130877617D01*
X160380005Y-130922773D01*
X160323064Y-130958557D01*
X160283854Y-130980438D01*
X160271119Y-130985063D01*
X160252583Y-130972585D01*
X160211559Y-130937752D01*
X160152025Y-130884178D01*
X160077958Y-130815483D01*
X159993335Y-130735281D01*
X159939815Y-130683786D01*
X159846181Y-130591786D01*
X159765259Y-130509499D01*
X159700323Y-130440445D01*
X159654642Y-130388144D01*
X159631489Y-130356116D01*
X159629268Y-130349616D01*
X159639576Y-130324894D01*
X159668061Y-130274905D01*
X159711563Y-130204712D01*
X159766923Y-130119375D01*
X159830980Y-130023956D01*
X159849197Y-129997354D01*
X159915573Y-129900667D01*
X159975122Y-129813617D01*
X160024516Y-129741095D01*
X160060425Y-129687993D01*
X160079519Y-129659203D01*
X160081364Y-129656226D01*
X160078605Y-129633282D01*
X160063962Y-129582836D01*
X160039987Y-129511541D01*
X160009234Y-129426047D01*
X159974256Y-129333007D01*
X159937607Y-129239074D01*
X159901839Y-129150899D01*
X159869506Y-129075134D01*
X159843162Y-129018431D01*
X159825358Y-128987443D01*
X159824093Y-128985957D01*
X159813206Y-128977101D01*
X159794818Y-128968343D01*
X159764894Y-128958777D01*
X159719397Y-128947496D01*
X159654291Y-128933593D01*
X159565539Y-128916163D01*
X159449107Y-128894298D01*
X159300958Y-128867091D01*
X159268882Y-128861241D01*
X159173814Y-128842874D01*
X159090935Y-128824905D01*
X159027570Y-128809069D01*
X158991042Y-128797100D01*
X158986144Y-128794310D01*
X158978073Y-128769572D01*
X158971513Y-128714290D01*
X158966467Y-128634889D01*
X158962941Y-128537796D01*
X158960939Y-128429438D01*
X158960464Y-128316240D01*
X158961523Y-128204628D01*
X158964118Y-128101029D01*
X158968254Y-128011868D01*
X158973937Y-127943572D01*
X158981169Y-127902566D01*
X158985529Y-127894174D01*
X159009802Y-127885708D01*
X159065074Y-127871935D01*
X159145838Y-127854050D01*
X159246588Y-127833248D01*
X159361817Y-127810723D01*
X159424598Y-127798918D01*
X159543713Y-127776651D01*
X159649935Y-127756479D01*
X159738073Y-127739415D01*
X159802934Y-127726469D01*
X159839326Y-127718655D01*
X159845316Y-127716922D01*
X159855439Y-127697390D01*
X159876838Y-127650343D01*
X159906661Y-127582503D01*
X159942055Y-127500591D01*
X159980168Y-127411328D01*
X160018147Y-127321435D01*
X160053140Y-127237635D01*
X160082294Y-127166647D01*
X160102757Y-127115194D01*
X160111677Y-127089997D01*
X160111843Y-127088896D01*
X160101731Y-127069019D01*
X160073383Y-127023277D01*
X160029777Y-126956217D01*
X159973894Y-126872384D01*
X159908713Y-126776326D01*
X159870821Y-126721150D01*
X159801775Y-126619981D01*
X159740450Y-126528130D01*
X159689837Y-126450244D01*
X159652929Y-126390969D01*
X159632718Y-126354951D01*
X159629799Y-126346877D01*
X159642347Y-126328084D01*
X159677037Y-126287957D01*
X159729437Y-126230993D01*
X159795116Y-126161685D01*
X159869644Y-126084531D01*
X159948587Y-126004025D01*
X160027517Y-125924663D01*
X160102000Y-125850940D01*
X160167606Y-125787352D01*
X160219904Y-125738394D01*
X160254461Y-125708561D01*
X160266022Y-125701442D01*
X160284846Y-125711453D01*
X160329869Y-125739578D01*
X160396713Y-125782954D01*
X160481001Y-125838718D01*
X160578356Y-125904006D01*
X160651793Y-125953746D01*
X161022833Y-126206051D01*
X161641405Y-125951055D01*
X161725225Y-125506431D01*
X161809046Y-125061807D01*
X162734494Y-125061807D01*
X162818314Y-125506431D01*
G37*
D13*
X162818314Y-125506431D02*
X162902135Y-125951055D01*
X163211420Y-126078553D01*
X163520706Y-126206051D01*
X163891746Y-125953746D01*
X163995657Y-125883496D01*
X164089587Y-125820772D01*
X164169152Y-125768438D01*
X164229970Y-125729357D01*
X164267657Y-125706393D01*
X164277921Y-125701442D01*
X164296410Y-125714176D01*
X164335920Y-125749382D01*
X164392022Y-125802562D01*
X164460287Y-125869218D01*
X164536286Y-125944854D01*
X164615592Y-126024972D01*
X164693775Y-126105074D01*
X164766407Y-126180664D01*
X164829059Y-126247245D01*
X164877303Y-126300318D01*
X164906710Y-126335387D01*
X164913741Y-126347123D01*
X164903623Y-126368760D01*
X164875259Y-126416162D01*
X164831629Y-126484693D01*
X164775718Y-126569715D01*
X164710506Y-126666593D01*
X164672719Y-126721850D01*
X164603843Y-126822748D01*
X164542640Y-126913799D01*
X164492078Y-126990470D01*
X164455128Y-127048228D01*
X164434758Y-127082543D01*
X164431697Y-127089754D01*
X164438636Y-127110248D01*
X164457551Y-127158013D01*
X164485587Y-127226332D01*
X164519891Y-127308489D01*
X164557609Y-127397770D01*
X164595887Y-127487458D01*
X164631870Y-127570838D01*
X164662706Y-127641194D01*
X164685539Y-127691810D01*
X164697517Y-127715971D01*
X164698224Y-127716922D01*
X164717031Y-127721536D01*
X164767118Y-127731828D01*
X164843293Y-127746787D01*
X164940365Y-127765401D01*
X165053143Y-127786659D01*
X165118942Y-127798918D01*
X165239450Y-127821862D01*
X165348297Y-127843695D01*
X165439976Y-127863222D01*
X165508981Y-127879248D01*
X165549804Y-127890579D01*
X165558011Y-127894174D01*
X165566048Y-127918506D01*
X165572533Y-127973459D01*
X165577470Y-128052608D01*
X165580864Y-128149526D01*
X165582718Y-128257787D01*
X165583038Y-128370965D01*
X165581827Y-128482635D01*
X165579090Y-128586368D01*
X165574831Y-128675741D01*
X165569055Y-128744326D01*
X165561767Y-128785697D01*
X165557395Y-128794310D01*
X165531264Y-128804633D01*
X165475893Y-128819392D01*
X165398607Y-128836852D01*
X165306730Y-128855280D01*
X165274658Y-128861241D01*
X165120024Y-128889566D01*
X164997875Y-128912376D01*
X164904173Y-128930580D01*
X164834884Y-128945083D01*
X164785971Y-128956792D01*
X164753397Y-128966615D01*
X164733128Y-128975456D01*
X164721126Y-128984224D01*
X164719447Y-128985957D01*
X164702684Y-129013871D01*
X164677114Y-129068195D01*
X164645288Y-129142277D01*
X164609760Y-129229465D01*
X164573083Y-129323108D01*
X164537811Y-129416552D01*
X164506496Y-129503147D01*
X164481693Y-129576240D01*
X164465954Y-129629178D01*
X164461832Y-129655311D01*
X164462176Y-129656226D01*
X164476141Y-129677586D01*
X164507822Y-129724584D01*
X164553891Y-129792327D01*
X164611018Y-129875923D01*
X164675873Y-129970482D01*
X164694343Y-129997354D01*
X164760199Y-130094775D01*
X164818150Y-130183663D01*
X164865038Y-130258912D01*
X164897707Y-130315420D01*
X164913000Y-130348081D01*
X164913741Y-130352093D01*
X164900892Y-130373184D01*
X164865388Y-130414964D01*
X164811793Y-130472945D01*
X164744671Y-130542635D01*
X164668587Y-130619545D01*
X164588104Y-130699183D01*
X164507787Y-130777061D01*
X164432199Y-130848686D01*
X164365905Y-130909570D01*
X164313469Y-130955221D01*
X164279455Y-130981150D01*
X164270045Y-130985383D01*
X164248143Y-130975412D01*
X164203300Y-130948520D01*
X164142821Y-130909236D01*
X164096289Y-130877617D01*
X164011975Y-130819598D01*
X163912126Y-130751284D01*
X163811973Y-130683079D01*
X163758127Y-130646575D01*
X163575871Y-130523300D01*
X163422881Y-130606020D01*
X163353182Y-130642259D01*
X163293914Y-130670426D01*
X163253811Y-130686491D01*
X163243603Y-130688726D01*
X163231329Y-130672222D01*
X163207113Y-130625582D01*
X163172763Y-130553109D01*
X163130088Y-130459106D01*
X163080894Y-130347874D01*
X163026990Y-130223715D01*
X162970184Y-130090932D01*
X162912282Y-129953827D01*
X162855093Y-129816702D01*
X162800424Y-129683858D01*
X162750084Y-129559598D01*
X162705880Y-129448225D01*
X162669619Y-129354039D01*
X162643109Y-129281344D01*
X162628158Y-129234441D01*
X162625754Y-129218333D01*
X162644811Y-129197786D01*
X162686536Y-129164433D01*
X162742206Y-129125202D01*
X162746878Y-129122099D01*
X162890764Y-129006923D01*
X163006783Y-128872553D01*
X163093930Y-128723284D01*
X163151199Y-128563413D01*
X163177586Y-128397237D01*
X163172085Y-128229052D01*
X163133690Y-128063155D01*
X163061395Y-127903842D01*
X163040126Y-127868987D01*
X162929496Y-127728237D01*
X162798802Y-127615214D01*
X162652564Y-127530503D01*
X162495308Y-127474694D01*
X162331557Y-127448374D01*
X162165833Y-127452130D01*
X162002662Y-127486550D01*
X161846565Y-127552223D01*
X161702067Y-127649735D01*
X161657369Y-127689313D01*
X161543612Y-127813203D01*
X161460718Y-127943624D01*
X161403856Y-128089815D01*
X161372187Y-128234588D01*
X161364369Y-128397360D01*
X161390438Y-128560940D01*
X161447745Y-128719798D01*
X161533644Y-128868406D01*
X161645486Y-129001235D01*
X161780623Y-129112756D01*
X161798383Y-129124511D01*
X161854650Y-129163008D01*
X161897423Y-129196363D01*
X161917872Y-129217660D01*
X161918169Y-129218333D01*
X161913779Y-129241371D01*
X161896376Y-129293657D01*
X161867768Y-129370890D01*
X161829765Y-129468768D01*
X161784174Y-129582991D01*
X161732803Y-129709258D01*
X161677462Y-129843267D01*
X161619958Y-129980718D01*
X161562101Y-130117308D01*
X161505698Y-130248737D01*
X161452558Y-130370705D01*
X161404490Y-130478909D01*
X161363301Y-130569049D01*
X161330801Y-130636823D01*
X161308797Y-130677930D01*
X161299936Y-130688726D01*
X161272860Y-130680319D01*
X161222197Y-130657772D01*
X161156683Y-130625113D01*
X161120659Y-130606020D01*
X160967668Y-130523300D01*
X160785412Y-130646575D01*
X160692375Y-130709728D01*
X160590515Y-130779227D01*
X160495062Y-130844665D01*
X160447250Y-130877617D01*
X160380005Y-130922773D01*
X160323064Y-130958557D01*
X160283854Y-130980438D01*
X160271119Y-130985063D01*
X160252583Y-130972585D01*
X160211559Y-130937752D01*
X160152025Y-130884178D01*
X160077958Y-130815483D01*
X159993335Y-130735281D01*
X159939815Y-130683786D01*
X159846181Y-130591786D01*
X159765259Y-130509499D01*
X159700323Y-130440445D01*
X159654642Y-130388144D01*
X159631489Y-130356116D01*
X159629268Y-130349616D01*
X159639576Y-130324894D01*
X159668061Y-130274905D01*
X159711563Y-130204712D01*
X159766923Y-130119375D01*
X159830980Y-130023956D01*
X159849197Y-129997354D01*
X159915573Y-129900667D01*
X159975122Y-129813617D01*
X160024516Y-129741095D01*
X160060425Y-129687993D01*
X160079519Y-129659203D01*
X160081364Y-129656226D01*
X160078605Y-129633282D01*
X160063962Y-129582836D01*
X160039987Y-129511541D01*
X160009234Y-129426047D01*
X159974256Y-129333007D01*
X159937607Y-129239074D01*
X159901839Y-129150899D01*
X159869506Y-129075134D01*
X159843162Y-129018431D01*
X159825358Y-128987443D01*
X159824093Y-128985957D01*
X159813206Y-128977101D01*
X159794818Y-128968343D01*
X159764894Y-128958777D01*
X159719397Y-128947496D01*
X159654291Y-128933593D01*
X159565539Y-128916163D01*
X159449107Y-128894298D01*
X159300958Y-128867091D01*
X159268882Y-128861241D01*
X159173814Y-128842874D01*
X159090935Y-128824905D01*
X159027570Y-128809069D01*
X158991042Y-128797100D01*
X158986144Y-128794310D01*
X158978073Y-128769572D01*
X158971513Y-128714290D01*
X158966467Y-128634889D01*
X158962941Y-128537796D01*
X158960939Y-128429438D01*
X158960464Y-128316240D01*
X158961523Y-128204628D01*
X158964118Y-128101029D01*
X158968254Y-128011868D01*
X158973937Y-127943572D01*
X158981169Y-127902566D01*
X158985529Y-127894174D01*
X159009802Y-127885708D01*
X159065074Y-127871935D01*
X159145838Y-127854050D01*
X159246588Y-127833248D01*
X159361817Y-127810723D01*
X159424598Y-127798918D01*
X159543713Y-127776651D01*
X159649935Y-127756479D01*
X159738073Y-127739415D01*
X159802934Y-127726469D01*
X159839326Y-127718655D01*
X159845316Y-127716922D01*
X159855439Y-127697390D01*
X159876838Y-127650343D01*
X159906661Y-127582503D01*
X159942055Y-127500591D01*
X159980168Y-127411328D01*
X160018147Y-127321435D01*
X160053140Y-127237635D01*
X160082294Y-127166647D01*
X160102757Y-127115194D01*
X160111677Y-127089997D01*
X160111843Y-127088896D01*
X160101731Y-127069019D01*
X160073383Y-127023277D01*
X160029777Y-126956217D01*
X159973894Y-126872384D01*
X159908713Y-126776326D01*
X159870821Y-126721150D01*
X159801775Y-126619981D01*
X159740450Y-126528130D01*
X159689837Y-126450244D01*
X159652929Y-126390969D01*
X159632718Y-126354951D01*
X159629799Y-126346877D01*
X159642347Y-126328084D01*
X159677037Y-126287957D01*
X159729437Y-126230993D01*
X159795116Y-126161685D01*
X159869644Y-126084531D01*
X159948587Y-126004025D01*
X160027517Y-125924663D01*
X160102000Y-125850940D01*
X160167606Y-125787352D01*
X160219904Y-125738394D01*
X160254461Y-125708561D01*
X160266022Y-125701442D01*
X160284846Y-125711453D01*
X160329869Y-125739578D01*
X160396713Y-125782954D01*
X160481001Y-125838718D01*
X160578356Y-125904006D01*
X160651793Y-125953746D01*
X161022833Y-126206051D01*
X161641405Y-125951055D01*
X161725225Y-125506431D01*
X161809046Y-125061807D01*
X162734494Y-125061807D01*
X162818314Y-125506431D01*
D12*
X140497500Y-93264564D02*
X140497500Y-92810436D01*
X139027500Y-93264564D02*
X139027500Y-92810436D01*
G36*
X128643205Y-128094574D02*
G01*
X128217243Y-127862737D01*
X128241038Y-126890870D01*
X128264834Y-125919003D01*
X129067738Y-125477811D01*
X129906204Y-125934161D01*
X130760060Y-125463167D01*
X130761992Y-124997500D01*
X130763925Y-124531834D01*
X131188576Y-124307109D01*
X131613228Y-124082385D01*
X132879377Y-124772776D01*
X134145525Y-125463167D01*
X134147346Y-125975462D01*
X134149167Y-126487758D01*
X133763801Y-126674983D01*
X133553026Y-126793267D01*
X133432684Y-126892401D01*
X133421044Y-126931151D01*
X133518704Y-127005530D01*
X133714059Y-127111228D01*
X133806410Y-127154656D01*
X134149167Y-127309218D01*
X134148455Y-128291192D01*
X134147742Y-129273167D01*
X133721232Y-129498882D01*
X133294722Y-129724598D01*
X132938778Y-129521069D01*
X132718071Y-129401608D01*
X132559162Y-129327867D01*
X132519334Y-129316520D01*
X132483714Y-129392303D01*
X132460298Y-129588056D01*
X132454999Y-129760000D01*
X132454165Y-130204500D01*
X131671833Y-130627834D01*
X131334741Y-130805216D01*
X131044228Y-130948855D01*
X130837683Y-131040785D01*
X130762500Y-131064814D01*
X130639336Y-131031003D01*
X130406731Y-130928919D01*
X130101461Y-130775698D01*
X129853998Y-130641480D01*
X129072497Y-130204500D01*
X129069720Y-128638167D01*
X129661834Y-128638167D01*
X130187810Y-128638167D01*
X130127033Y-127855000D01*
X130106033Y-127522166D01*
X130099511Y-127270928D01*
X130107826Y-127135200D01*
X130119256Y-127122434D01*
X130170578Y-127222470D01*
X130256343Y-127438829D01*
X130358911Y-127726711D01*
X130369321Y-127757434D01*
X130509091Y-128120979D01*
X130632853Y-128319014D01*
X130749437Y-128353532D01*
X130867675Y-128226525D01*
X130996399Y-127939984D01*
X131010407Y-127902032D01*
X131152306Y-127521306D01*
X131247088Y-127299984D01*
X131301583Y-127236957D01*
X131322620Y-127331118D01*
X131317029Y-127581361D01*
X131300520Y-127855000D01*
X131248659Y-128638167D01*
X131778500Y-128638167D01*
X131778500Y-126352167D01*
X131497073Y-126352167D01*
X131354627Y-126359244D01*
X131257374Y-126402633D01*
X131180281Y-126515571D01*
X131098314Y-126731295D01*
X131014860Y-126992396D01*
X130913522Y-127297640D01*
X130824512Y-127534019D01*
X130763826Y-127659857D01*
X130755175Y-127669027D01*
X130702981Y-127611992D01*
X130614363Y-127428477D01*
X130505218Y-127153050D01*
X130460734Y-127028798D01*
X130343418Y-126700158D01*
X130256170Y-126500023D01*
X130174647Y-126396546D01*
X130074503Y-126357879D01*
X129943513Y-126352167D01*
X129661834Y-126352167D01*
X129661834Y-128638167D01*
X129069720Y-128638167D01*
X129069167Y-128326412D01*
X128643205Y-128094574D01*
G37*
X154027500Y-73264564D02*
X154027500Y-72810436D01*
X155497500Y-73264564D02*
X155497500Y-72810436D01*
X159527500Y-112264564D02*
X159527500Y-111810436D01*
X160997500Y-112264564D02*
X160997500Y-111810436D01*
X140497500Y-83264564D02*
X140497500Y-82810436D01*
X139027500Y-83264564D02*
X139027500Y-82810436D01*
X149797500Y-109082500D02*
X149797500Y-110352500D01*
X152337500Y-133212500D02*
X142177500Y-133212500D01*
X149797500Y-110352500D02*
X148527500Y-110352500D01*
X138367500Y-131942500D02*
X138367500Y-131307500D01*
X156147500Y-131942500D02*
X152337500Y-131942500D01*
X152337500Y-131942500D02*
X152337500Y-133212500D01*
X156147500Y-108447500D02*
X156147500Y-110987500D01*
X145987500Y-110352500D02*
X145987500Y-109717500D01*
X148527500Y-109717500D02*
X147257500Y-109717500D01*
X147257500Y-110352500D02*
X145987500Y-110352500D01*
X142177500Y-131942500D02*
X138367500Y-131942500D01*
X151067500Y-109082500D02*
X151067500Y-110987500D01*
X138367500Y-108447500D02*
X156147500Y-108447500D01*
X138367500Y-110987500D02*
X138367500Y-108447500D01*
X144717500Y-109717500D02*
X144717500Y-110352500D01*
X142177500Y-133212500D02*
X142177500Y-131942500D01*
X143447500Y-110987500D02*
X143447500Y-109082500D01*
X151067500Y-110987500D02*
X143447500Y-110987500D01*
X143447500Y-109082500D02*
X151067500Y-109082500D01*
X156147500Y-131942500D02*
X156147500Y-131307500D01*
X147257500Y-109717500D02*
X147257500Y-110352500D01*
X148527500Y-110352500D02*
X148527500Y-109717500D01*
X145987500Y-109717500D02*
X144717500Y-109717500D01*
X155497500Y-89310436D02*
X155497500Y-89764564D01*
X154027500Y-89310436D02*
X154027500Y-89764564D01*
X139027500Y-99310436D02*
X139027500Y-99764564D01*
X140497500Y-99310436D02*
X140497500Y-99764564D01*
X155497500Y-83264564D02*
X155497500Y-82810436D01*
X154027500Y-83264564D02*
X154027500Y-82810436D01*
G36*
X148160479Y-97016003D02*
G01*
X148050357Y-97379027D01*
X147871529Y-97713591D01*
X147630867Y-98006838D01*
X147337619Y-98247501D01*
X147003055Y-98426329D01*
X146640031Y-98536451D01*
X146262500Y-98573634D01*
X145884969Y-98536451D01*
X145521945Y-98426329D01*
X145187381Y-98247501D01*
X144894133Y-98006838D01*
X144653471Y-97713591D01*
X144474643Y-97379027D01*
X144364521Y-97016003D01*
X144327337Y-96638472D01*
X144327338Y-96638472D01*
X144327338Y-95699863D01*
X144724213Y-95699863D01*
X144748025Y-95948108D01*
X144819463Y-96197544D01*
X144940906Y-96432692D01*
X145114738Y-96638075D01*
X145524313Y-96347563D01*
X145300475Y-96047525D01*
X145233800Y-95757012D01*
X145331431Y-95480788D01*
X145610038Y-95371250D01*
X145862450Y-95459356D01*
X146119625Y-95683194D01*
X146255952Y-95823688D01*
X146398231Y-95973706D01*
X146549441Y-96123725D01*
X146712556Y-96264219D01*
X146889364Y-96388044D01*
X147081650Y-96488056D01*
X147291200Y-96554136D01*
X147519800Y-96576163D01*
X147619813Y-96578544D01*
X147738875Y-96566638D01*
X147738875Y-94642588D01*
X147253100Y-94642588D01*
X147253100Y-95909413D01*
X147095937Y-95859406D01*
X146926869Y-95737962D01*
X146764944Y-95585563D01*
X146629213Y-95442688D01*
X146391087Y-95199800D01*
X146133913Y-94985488D01*
X145860069Y-94833088D01*
X145567175Y-94775938D01*
X145198081Y-94852138D01*
X144933762Y-95056925D01*
X144776600Y-95352200D01*
X144724213Y-95699863D01*
X144327338Y-95699863D01*
X144327338Y-93270988D01*
X144724213Y-93270988D01*
X144766546Y-93573142D01*
X144893546Y-93825554D01*
X145105213Y-94028225D01*
X145320120Y-94144906D01*
X145583844Y-94228250D01*
X145896383Y-94278256D01*
X146257738Y-94294925D01*
X146623259Y-94278554D01*
X146938775Y-94229441D01*
X147204284Y-94147585D01*
X147419788Y-94032988D01*
X147631454Y-93831904D01*
X147758454Y-93577904D01*
X147800788Y-93270988D01*
X147758454Y-92964071D01*
X147631454Y-92710071D01*
X147419788Y-92508988D01*
X147204284Y-92394390D01*
X146938775Y-92312534D01*
X146623259Y-92263421D01*
X146257738Y-92247050D01*
X145894448Y-92263421D01*
X145580867Y-92312534D01*
X145316995Y-92394390D01*
X145102831Y-92508988D01*
X144892488Y-92710071D01*
X144766281Y-92964071D01*
X144724213Y-93270988D01*
X144327338Y-93270988D01*
X144327338Y-90937363D01*
X144724213Y-90937363D01*
X144748025Y-91185608D01*
X144819463Y-91435044D01*
X144940906Y-91670192D01*
X145114738Y-91875575D01*
X145524313Y-91585063D01*
X145300475Y-91285025D01*
X145233800Y-90994512D01*
X145331431Y-90718287D01*
X145610038Y-90608750D01*
X145862450Y-90696856D01*
X146119625Y-90920694D01*
X146255952Y-91061187D01*
X146398231Y-91211206D01*
X146549441Y-91361225D01*
X146712556Y-91501719D01*
X146889364Y-91625544D01*
X147081650Y-91725556D01*
X147291200Y-91791636D01*
X147519800Y-91813662D01*
X147619813Y-91816044D01*
X147738875Y-91804138D01*
X147738875Y-89880087D01*
X147253100Y-89880087D01*
X147253100Y-91146913D01*
X147095937Y-91096906D01*
X146926869Y-90975462D01*
X146764944Y-90823063D01*
X146629213Y-90680187D01*
X146391087Y-90437300D01*
X146133913Y-90222988D01*
X145860069Y-90070588D01*
X145567175Y-90013438D01*
X145198081Y-90089638D01*
X144933762Y-90294425D01*
X144776600Y-90589700D01*
X144724213Y-90937363D01*
X144327338Y-90937363D01*
X144327338Y-88279888D01*
X144790888Y-88279888D01*
X144993889Y-88470388D01*
X145221894Y-88660888D01*
X145464186Y-88846625D01*
X145710050Y-89022837D01*
X145954723Y-89187144D01*
X146193444Y-89337163D01*
X146416686Y-89466941D01*
X146614925Y-89570525D01*
X147043550Y-89570525D01*
X147043550Y-88341800D01*
X147738875Y-88341800D01*
X147738875Y-87756012D01*
X147043550Y-87756012D01*
X147043550Y-87436925D01*
X146562538Y-87436925D01*
X146562538Y-87756012D01*
X144790888Y-87756012D01*
X144790888Y-88279888D01*
X144327338Y-88279888D01*
X144327338Y-87436528D01*
X144364521Y-87058997D01*
X144474643Y-86695973D01*
X144653471Y-86361409D01*
X144894133Y-86068162D01*
X145187381Y-85827499D01*
X145521945Y-85648671D01*
X145884969Y-85538549D01*
X146262500Y-85501366D01*
X146640031Y-85538549D01*
X147003055Y-85648671D01*
X147337619Y-85827499D01*
X147630867Y-86068162D01*
X147871529Y-86361409D01*
X148050357Y-86695973D01*
X148160479Y-87058997D01*
X148197662Y-87436528D01*
X148197663Y-87436528D01*
X148197663Y-96638472D01*
X148160479Y-97016003D01*
G37*
G36*
X146562538Y-89008550D02*
G01*
X146291075Y-88865675D01*
X146017231Y-88696606D01*
X145757675Y-88518013D01*
X145524313Y-88341800D01*
X146562538Y-88341800D01*
X146562538Y-89008550D01*
G37*
G36*
X147229883Y-93481728D02*
G01*
X147031644Y-93637700D01*
X146828179Y-93709138D01*
X146570210Y-93752000D01*
X146257738Y-93766288D01*
X145947910Y-93752000D01*
X145691529Y-93709138D01*
X145488594Y-93637700D01*
X145290355Y-93481728D01*
X145224275Y-93270988D01*
X145225748Y-93266225D01*
X145891025Y-93266225D01*
X145986275Y-93461488D01*
X146210113Y-93532925D01*
X146431569Y-93461488D01*
X146524438Y-93266225D01*
X146431569Y-93078106D01*
X146210113Y-93004287D01*
X145986275Y-93078106D01*
X145891025Y-93266225D01*
X145225748Y-93266225D01*
X145290355Y-93057270D01*
X145488594Y-92901894D01*
X145691529Y-92831779D01*
X145947910Y-92789710D01*
X146257738Y-92775687D01*
X146570210Y-92789710D01*
X146828179Y-92831779D01*
X147031644Y-92901894D01*
X147229883Y-93057270D01*
X147294490Y-93266225D01*
X147295963Y-93270988D01*
X147229883Y-93481728D01*
G37*
X167212500Y-89287500D02*
X156462500Y-89287500D01*
X156462500Y-94787500D02*
X167212500Y-94787500D01*
X156462500Y-89287500D02*
X156462500Y-94787500D01*
X167262500Y-88787500D02*
X167262500Y-95287500D01*
X127312500Y-84787500D02*
X138062500Y-84787500D01*
X138062500Y-79287500D02*
X127312500Y-79287500D01*
X127262500Y-85287500D02*
X127262500Y-78787500D01*
X138062500Y-84787500D02*
X138062500Y-79287500D01*
X156462500Y-69287500D02*
X156462500Y-74787500D01*
X156462500Y-74787500D02*
X167212500Y-74787500D01*
X167212500Y-69287500D02*
X156462500Y-69287500D01*
X167262500Y-68787500D02*
X167262500Y-75287500D01*
X163527500Y-111810436D02*
X163527500Y-112264564D01*
X164997500Y-111810436D02*
X164997500Y-112264564D01*
X155497500Y-79310436D02*
X155497500Y-79764564D01*
X154027500Y-79310436D02*
X154027500Y-79764564D01*
X145497500Y-79276248D02*
X145497500Y-79798752D01*
X144027500Y-79276248D02*
X144027500Y-79798752D01*
X163222500Y-113037500D02*
X163222500Y-110177500D01*
X161302500Y-110177500D02*
X161302500Y-113037500D01*
X163222500Y-110177500D02*
X161302500Y-110177500D01*
X133222500Y-110177500D02*
X131302500Y-110177500D01*
X131302500Y-110177500D02*
X131302500Y-113037500D01*
X133222500Y-113037500D02*
X133222500Y-110177500D01*
X135492500Y-116807500D02*
X135462500Y-116807500D01*
X129032500Y-123267500D02*
X129032500Y-116807500D01*
X135492500Y-123267500D02*
X135462500Y-123267500D01*
X135492500Y-123267500D02*
X135492500Y-116807500D01*
X129062500Y-123267500D02*
X129032500Y-123267500D01*
X130962500Y-116807500D02*
X133562500Y-116807500D01*
X129032500Y-116807500D02*
X129062500Y-116807500D01*
X130962500Y-123267500D02*
X133562500Y-123267500D01*
X159032500Y-116807500D02*
X159062500Y-116807500D01*
X165492500Y-116807500D02*
X165492500Y-123267500D01*
X159032500Y-123267500D02*
X159062500Y-123267500D01*
X163562500Y-116807500D02*
X160962500Y-116807500D01*
X165492500Y-123267500D02*
X165462500Y-123267500D01*
X165462500Y-116807500D02*
X165492500Y-116807500D01*
X163562500Y-123267500D02*
X160962500Y-123267500D01*
X159032500Y-116807500D02*
X159032500Y-123267500D01*
X167212500Y-99287500D02*
X156462500Y-99287500D01*
X167262500Y-98787500D02*
X167262500Y-105287500D01*
X156462500Y-99287500D02*
X156462500Y-104787500D01*
X156462500Y-104787500D02*
X167212500Y-104787500D01*
X149027500Y-79764564D02*
X149027500Y-79310436D01*
X150497500Y-79764564D02*
X150497500Y-79310436D01*
X155497500Y-99310436D02*
X155497500Y-99764564D01*
X154027500Y-99310436D02*
X154027500Y-99764564D01*
X138062500Y-99287500D02*
X127312500Y-99287500D01*
X127312500Y-104787500D02*
X138062500Y-104787500D01*
X138062500Y-104787500D02*
X138062500Y-99287500D01*
X127262500Y-105287500D02*
X127262500Y-98787500D01*
X156462500Y-84787500D02*
X167212500Y-84787500D01*
X167212500Y-79287500D02*
X156462500Y-79287500D01*
X156462500Y-79287500D02*
X156462500Y-84787500D01*
X167262500Y-78787500D02*
X167262500Y-85287500D01*
X154027500Y-93264564D02*
X154027500Y-92810436D01*
X155497500Y-93264564D02*
X155497500Y-92810436D01*
X139027500Y-73264564D02*
X139027500Y-72810436D01*
X140497500Y-73264564D02*
X140497500Y-72810436D01*
X133527500Y-111810436D02*
X133527500Y-112264564D01*
X134997500Y-111810436D02*
X134997500Y-112264564D01*
X138062500Y-94787500D02*
X138062500Y-89287500D01*
X127262500Y-95287500D02*
X127262500Y-88787500D01*
X127312500Y-94787500D02*
X138062500Y-94787500D01*
X138062500Y-89287500D02*
X127312500Y-89287500D01*
X138062500Y-69287500D02*
X127312500Y-69287500D01*
X127262500Y-75287500D02*
X127262500Y-68787500D01*
X127312500Y-74787500D02*
X138062500Y-74787500D01*
X138062500Y-74787500D02*
X138062500Y-69287500D01*
X146527500Y-79764564D02*
X146527500Y-79310436D01*
X147997500Y-79764564D02*
X147997500Y-79310436D01*
X142192500Y-75307500D02*
X152352500Y-75307500D01*
X152352500Y-75307500D02*
X152352500Y-68703500D01*
X152352500Y-68703500D02*
X142192500Y-68703500D01*
X142192500Y-68703500D02*
X142192500Y-75307500D01*
X139027500Y-79310436D02*
X139027500Y-79764564D01*
X140497500Y-79310436D02*
X140497500Y-79764564D01*
X154027500Y-69310436D02*
X154027500Y-69764564D01*
X155497500Y-69310436D02*
X155497500Y-69764564D01*
X139027500Y-69310436D02*
X139027500Y-69764564D01*
X140497500Y-69310436D02*
X140497500Y-69764564D01*
X140497500Y-103264564D02*
X140497500Y-102810436D01*
X139027500Y-103264564D02*
X139027500Y-102810436D01*
%LPC*%
G36*
G01*
X129812500Y-110612500D02*
X130712500Y-110612500D01*
G75*
G02*
X130962500Y-110862500I0J-250000D01*
G01*
X130962500Y-111387500D01*
G75*
G02*
X130712500Y-111637500I-250000J0D01*
G01*
X129812500Y-111637500D01*
G75*
G02*
X129562500Y-111387500I0J250000D01*
G01*
X129562500Y-110862500D01*
G75*
G02*
X129812500Y-110612500I250000J0D01*
G01*
G37*
G36*
G01*
X129812500Y-112437500D02*
X130712500Y-112437500D01*
G75*
G02*
X130962500Y-112687500I0J-250000D01*
G01*
X130962500Y-113212500D01*
G75*
G02*
X130712500Y-113462500I-250000J0D01*
G01*
X129812500Y-113462500D01*
G75*
G02*
X129562500Y-113212500I0J250000D01*
G01*
X129562500Y-112687500D01*
G75*
G02*
X129812500Y-112437500I250000J0D01*
G01*
G37*
G36*
G01*
X134787500Y-127412500D02*
X135737500Y-127412500D01*
G75*
G02*
X135987500Y-127662500I0J-250000D01*
G01*
X135987500Y-128337500D01*
G75*
G02*
X135737500Y-128587500I-250000J0D01*
G01*
X134787500Y-128587500D01*
G75*
G02*
X134537500Y-128337500I0J250000D01*
G01*
X134537500Y-127662500D01*
G75*
G02*
X134787500Y-127412500I250000J0D01*
G01*
G37*
G36*
G01*
X134787500Y-129487500D02*
X135737500Y-129487500D01*
G75*
G02*
X135987500Y-129737500I0J-250000D01*
G01*
X135987500Y-130412500D01*
G75*
G02*
X135737500Y-130662500I-250000J0D01*
G01*
X134787500Y-130662500D01*
G75*
G02*
X134537500Y-130412500I0J250000D01*
G01*
X134537500Y-129737500D01*
G75*
G02*
X134787500Y-129487500I250000J0D01*
G01*
G37*
G36*
G01*
X139312500Y-88112500D02*
X140212500Y-88112500D01*
G75*
G02*
X140462500Y-88362500I0J-250000D01*
G01*
X140462500Y-88887500D01*
G75*
G02*
X140212500Y-89137500I-250000J0D01*
G01*
X139312500Y-89137500D01*
G75*
G02*
X139062500Y-88887500I0J250000D01*
G01*
X139062500Y-88362500D01*
G75*
G02*
X139312500Y-88112500I250000J0D01*
G01*
G37*
G36*
G01*
X139312500Y-89937500D02*
X140212500Y-89937500D01*
G75*
G02*
X140462500Y-90187500I0J-250000D01*
G01*
X140462500Y-90712500D01*
G75*
G02*
X140212500Y-90962500I-250000J0D01*
G01*
X139312500Y-90962500D01*
G75*
G02*
X139062500Y-90712500I0J250000D01*
G01*
X139062500Y-90187500D01*
G75*
G02*
X139312500Y-89937500I250000J0D01*
G01*
G37*
G36*
G01*
X155212500Y-104462500D02*
X154312500Y-104462500D01*
G75*
G02*
X154062500Y-104212500I0J250000D01*
G01*
X154062500Y-103687500D01*
G75*
G02*
X154312500Y-103437500I250000J0D01*
G01*
X155212500Y-103437500D01*
G75*
G02*
X155462500Y-103687500I0J-250000D01*
G01*
X155462500Y-104212500D01*
G75*
G02*
X155212500Y-104462500I-250000J0D01*
G01*
G37*
G36*
G01*
X155212500Y-102637500D02*
X154312500Y-102637500D01*
G75*
G02*
X154062500Y-102387500I0J250000D01*
G01*
X154062500Y-101862500D01*
G75*
G02*
X154312500Y-101612500I250000J0D01*
G01*
X155212500Y-101612500D01*
G75*
G02*
X155462500Y-101862500I0J-250000D01*
G01*
X155462500Y-102387500D01*
G75*
G02*
X155212500Y-102637500I-250000J0D01*
G01*
G37*
G36*
G01*
X140212500Y-94462500D02*
X139312500Y-94462500D01*
G75*
G02*
X139062500Y-94212500I0J250000D01*
G01*
X139062500Y-93687500D01*
G75*
G02*
X139312500Y-93437500I250000J0D01*
G01*
X140212500Y-93437500D01*
G75*
G02*
X140462500Y-93687500I0J-250000D01*
G01*
X140462500Y-94212500D01*
G75*
G02*
X140212500Y-94462500I-250000J0D01*
G01*
G37*
G36*
G01*
X140212500Y-92637500D02*
X139312500Y-92637500D01*
G75*
G02*
X139062500Y-92387500I0J250000D01*
G01*
X139062500Y-91862500D01*
G75*
G02*
X139312500Y-91612500I250000J0D01*
G01*
X140212500Y-91612500D01*
G75*
G02*
X140462500Y-91862500I0J-250000D01*
G01*
X140462500Y-92387500D01*
G75*
G02*
X140212500Y-92637500I-250000J0D01*
G01*
G37*
G36*
G01*
X155212500Y-74462500D02*
X154312500Y-74462500D01*
G75*
G02*
X154062500Y-74212500I0J250000D01*
G01*
X154062500Y-73687500D01*
G75*
G02*
X154312500Y-73437500I250000J0D01*
G01*
X155212500Y-73437500D01*
G75*
G02*
X155462500Y-73687500I0J-250000D01*
G01*
X155462500Y-74212500D01*
G75*
G02*
X155212500Y-74462500I-250000J0D01*
G01*
G37*
G36*
G01*
X155212500Y-72637500D02*
X154312500Y-72637500D01*
G75*
G02*
X154062500Y-72387500I0J250000D01*
G01*
X154062500Y-71862500D01*
G75*
G02*
X154312500Y-71612500I250000J0D01*
G01*
X155212500Y-71612500D01*
G75*
G02*
X155462500Y-71862500I0J-250000D01*
G01*
X155462500Y-72387500D01*
G75*
G02*
X155212500Y-72637500I-250000J0D01*
G01*
G37*
G36*
G01*
X160712500Y-113462500D02*
X159812500Y-113462500D01*
G75*
G02*
X159562500Y-113212500I0J250000D01*
G01*
X159562500Y-112687500D01*
G75*
G02*
X159812500Y-112437500I250000J0D01*
G01*
X160712500Y-112437500D01*
G75*
G02*
X160962500Y-112687500I0J-250000D01*
G01*
X160962500Y-113212500D01*
G75*
G02*
X160712500Y-113462500I-250000J0D01*
G01*
G37*
G36*
G01*
X160712500Y-111637500D02*
X159812500Y-111637500D01*
G75*
G02*
X159562500Y-111387500I0J250000D01*
G01*
X159562500Y-110862500D01*
G75*
G02*
X159812500Y-110612500I250000J0D01*
G01*
X160712500Y-110612500D01*
G75*
G02*
X160962500Y-110862500I0J-250000D01*
G01*
X160962500Y-111387500D01*
G75*
G02*
X160712500Y-111637500I-250000J0D01*
G01*
G37*
G36*
G01*
X140212500Y-84462500D02*
X139312500Y-84462500D01*
G75*
G02*
X139062500Y-84212500I0J250000D01*
G01*
X139062500Y-83687500D01*
G75*
G02*
X139312500Y-83437500I250000J0D01*
G01*
X140212500Y-83437500D01*
G75*
G02*
X140462500Y-83687500I0J-250000D01*
G01*
X140462500Y-84212500D01*
G75*
G02*
X140212500Y-84462500I-250000J0D01*
G01*
G37*
G36*
G01*
X140212500Y-82637500D02*
X139312500Y-82637500D01*
G75*
G02*
X139062500Y-82387500I0J250000D01*
G01*
X139062500Y-81862500D01*
G75*
G02*
X139312500Y-81612500I250000J0D01*
G01*
X140212500Y-81612500D01*
G75*
G02*
X140462500Y-81862500I0J-250000D01*
G01*
X140462500Y-82387500D01*
G75*
G02*
X140212500Y-82637500I-250000J0D01*
G01*
G37*
G36*
G01*
X157262500Y-129537500D02*
X157262500Y-130537500D01*
G75*
G02*
X156762500Y-131037500I-500000J0D01*
G01*
X154262500Y-131037500D01*
G75*
G02*
X153762500Y-130537500I0J500000D01*
G01*
X153762500Y-129537500D01*
G75*
G02*
X154262500Y-129037500I500000J0D01*
G01*
X156762500Y-129037500D01*
G75*
G02*
X157262500Y-129537500I0J-500000D01*
G01*
G37*
G36*
G01*
X157262500Y-126997500D02*
X157262500Y-127997500D01*
G75*
G02*
X156762500Y-128497500I-500000J0D01*
G01*
X154262500Y-128497500D01*
G75*
G02*
X153762500Y-127997500I0J500000D01*
G01*
X153762500Y-126997500D01*
G75*
G02*
X154262500Y-126497500I500000J0D01*
G01*
X156762500Y-126497500D01*
G75*
G02*
X157262500Y-126997500I0J-500000D01*
G01*
G37*
G36*
G01*
X157262500Y-124457500D02*
X157262500Y-125457500D01*
G75*
G02*
X156762500Y-125957500I-500000J0D01*
G01*
X154262500Y-125957500D01*
G75*
G02*
X153762500Y-125457500I0J500000D01*
G01*
X153762500Y-124457500D01*
G75*
G02*
X154262500Y-123957500I500000J0D01*
G01*
X156762500Y-123957500D01*
G75*
G02*
X157262500Y-124457500I0J-500000D01*
G01*
G37*
G36*
G01*
X157262500Y-121917500D02*
X157262500Y-122917500D01*
G75*
G02*
X156762500Y-123417500I-500000J0D01*
G01*
X154262500Y-123417500D01*
G75*
G02*
X153762500Y-122917500I0J500000D01*
G01*
X153762500Y-121917500D01*
G75*
G02*
X154262500Y-121417500I500000J0D01*
G01*
X156762500Y-121417500D01*
G75*
G02*
X157262500Y-121917500I0J-500000D01*
G01*
G37*
G36*
G01*
X157262500Y-119377500D02*
X157262500Y-120377500D01*
G75*
G02*
X156762500Y-120877500I-500000J0D01*
G01*
X154262500Y-120877500D01*
G75*
G02*
X153762500Y-120377500I0J500000D01*
G01*
X153762500Y-119377500D01*
G75*
G02*
X154262500Y-118877500I500000J0D01*
G01*
X156762500Y-118877500D01*
G75*
G02*
X157262500Y-119377500I0J-500000D01*
G01*
G37*
G36*
G01*
X157262500Y-116837500D02*
X157262500Y-117837500D01*
G75*
G02*
X156762500Y-118337500I-500000J0D01*
G01*
X154262500Y-118337500D01*
G75*
G02*
X153762500Y-117837500I0J500000D01*
G01*
X153762500Y-116837500D01*
G75*
G02*
X154262500Y-116337500I500000J0D01*
G01*
X156762500Y-116337500D01*
G75*
G02*
X157262500Y-116837500I0J-500000D01*
G01*
G37*
G36*
G01*
X157262500Y-114297500D02*
X157262500Y-115297500D01*
G75*
G02*
X156762500Y-115797500I-500000J0D01*
G01*
X154262500Y-115797500D01*
G75*
G02*
X153762500Y-115297500I0J500000D01*
G01*
X153762500Y-114297500D01*
G75*
G02*
X154262500Y-113797500I500000J0D01*
G01*
X156762500Y-113797500D01*
G75*
G02*
X157262500Y-114297500I0J-500000D01*
G01*
G37*
G36*
G01*
X157262500Y-111757500D02*
X157262500Y-112757500D01*
G75*
G02*
X156762500Y-113257500I-500000J0D01*
G01*
X154262500Y-113257500D01*
G75*
G02*
X153762500Y-112757500I0J500000D01*
G01*
X153762500Y-111757500D01*
G75*
G02*
X154262500Y-111257500I500000J0D01*
G01*
X156762500Y-111257500D01*
G75*
G02*
X157262500Y-111757500I0J-500000D01*
G01*
G37*
G36*
G01*
X140752500Y-111757500D02*
X140752500Y-112757500D01*
G75*
G02*
X140252500Y-113257500I-500000J0D01*
G01*
X137752500Y-113257500D01*
G75*
G02*
X137252500Y-112757500I0J500000D01*
G01*
X137252500Y-111757500D01*
G75*
G02*
X137752500Y-111257500I500000J0D01*
G01*
X140252500Y-111257500D01*
G75*
G02*
X140752500Y-111757500I0J-500000D01*
G01*
G37*
G36*
G01*
X140752500Y-114297500D02*
X140752500Y-115297500D01*
G75*
G02*
X140252500Y-115797500I-500000J0D01*
G01*
X137752500Y-115797500D01*
G75*
G02*
X137252500Y-115297500I0J500000D01*
G01*
X137252500Y-114297500D01*
G75*
G02*
X137752500Y-113797500I500000J0D01*
G01*
X140252500Y-113797500D01*
G75*
G02*
X140752500Y-114297500I0J-500000D01*
G01*
G37*
G36*
G01*
X140752500Y-116837500D02*
X140752500Y-117837500D01*
G75*
G02*
X140252500Y-118337500I-500000J0D01*
G01*
X137752500Y-118337500D01*
G75*
G02*
X137252500Y-117837500I0J500000D01*
G01*
X137252500Y-116837500D01*
G75*
G02*
X137752500Y-116337500I500000J0D01*
G01*
X140252500Y-116337500D01*
G75*
G02*
X140752500Y-116837500I0J-500000D01*
G01*
G37*
G36*
G01*
X140752500Y-119377500D02*
X140752500Y-120377500D01*
G75*
G02*
X140252500Y-120877500I-500000J0D01*
G01*
X137752500Y-120877500D01*
G75*
G02*
X137252500Y-120377500I0J500000D01*
G01*
X137252500Y-119377500D01*
G75*
G02*
X137752500Y-118877500I500000J0D01*
G01*
X140252500Y-118877500D01*
G75*
G02*
X140752500Y-119377500I0J-500000D01*
G01*
G37*
G36*
G01*
X140752500Y-121917500D02*
X140752500Y-122917500D01*
G75*
G02*
X140252500Y-123417500I-500000J0D01*
G01*
X137752500Y-123417500D01*
G75*
G02*
X137252500Y-122917500I0J500000D01*
G01*
X137252500Y-121917500D01*
G75*
G02*
X137752500Y-121417500I500000J0D01*
G01*
X140252500Y-121417500D01*
G75*
G02*
X140752500Y-121917500I0J-500000D01*
G01*
G37*
G36*
G01*
X140752500Y-124457500D02*
X140752500Y-125457500D01*
G75*
G02*
X140252500Y-125957500I-500000J0D01*
G01*
X137752500Y-125957500D01*
G75*
G02*
X137252500Y-125457500I0J500000D01*
G01*
X137252500Y-124457500D01*
G75*
G02*
X137752500Y-123957500I500000J0D01*
G01*
X140252500Y-123957500D01*
G75*
G02*
X140752500Y-124457500I0J-500000D01*
G01*
G37*
G36*
G01*
X140752500Y-126997500D02*
X140752500Y-127997500D01*
G75*
G02*
X140252500Y-128497500I-500000J0D01*
G01*
X137752500Y-128497500D01*
G75*
G02*
X137252500Y-127997500I0J500000D01*
G01*
X137252500Y-126997500D01*
G75*
G02*
X137752500Y-126497500I500000J0D01*
G01*
X140252500Y-126497500D01*
G75*
G02*
X140752500Y-126997500I0J-500000D01*
G01*
G37*
G36*
G01*
X140752500Y-129537500D02*
X140752500Y-130537500D01*
G75*
G02*
X140252500Y-131037500I-500000J0D01*
G01*
X137752500Y-131037500D01*
G75*
G02*
X137252500Y-130537500I0J500000D01*
G01*
X137252500Y-129537500D01*
G75*
G02*
X137752500Y-129037500I500000J0D01*
G01*
X140252500Y-129037500D01*
G75*
G02*
X140752500Y-129537500I0J-500000D01*
G01*
G37*
G36*
G01*
X154312500Y-88112500D02*
X155212500Y-88112500D01*
G75*
G02*
X155462500Y-88362500I0J-250000D01*
G01*
X155462500Y-88887500D01*
G75*
G02*
X155212500Y-89137500I-250000J0D01*
G01*
X154312500Y-89137500D01*
G75*
G02*
X154062500Y-88887500I0J250000D01*
G01*
X154062500Y-88362500D01*
G75*
G02*
X154312500Y-88112500I250000J0D01*
G01*
G37*
G36*
G01*
X154312500Y-89937500D02*
X155212500Y-89937500D01*
G75*
G02*
X155462500Y-90187500I0J-250000D01*
G01*
X155462500Y-90712500D01*
G75*
G02*
X155212500Y-90962500I-250000J0D01*
G01*
X154312500Y-90962500D01*
G75*
G02*
X154062500Y-90712500I0J250000D01*
G01*
X154062500Y-90187500D01*
G75*
G02*
X154312500Y-89937500I250000J0D01*
G01*
G37*
G36*
G01*
X139312500Y-98112500D02*
X140212500Y-98112500D01*
G75*
G02*
X140462500Y-98362500I0J-250000D01*
G01*
X140462500Y-98887500D01*
G75*
G02*
X140212500Y-99137500I-250000J0D01*
G01*
X139312500Y-99137500D01*
G75*
G02*
X139062500Y-98887500I0J250000D01*
G01*
X139062500Y-98362500D01*
G75*
G02*
X139312500Y-98112500I250000J0D01*
G01*
G37*
G36*
G01*
X139312500Y-99937500D02*
X140212500Y-99937500D01*
G75*
G02*
X140462500Y-100187500I0J-250000D01*
G01*
X140462500Y-100712500D01*
G75*
G02*
X140212500Y-100962500I-250000J0D01*
G01*
X139312500Y-100962500D01*
G75*
G02*
X139062500Y-100712500I0J250000D01*
G01*
X139062500Y-100187500D01*
G75*
G02*
X139312500Y-99937500I250000J0D01*
G01*
G37*
G36*
G01*
X155212500Y-84462500D02*
X154312500Y-84462500D01*
G75*
G02*
X154062500Y-84212500I0J250000D01*
G01*
X154062500Y-83687500D01*
G75*
G02*
X154312500Y-83437500I250000J0D01*
G01*
X155212500Y-83437500D01*
G75*
G02*
X155462500Y-83687500I0J-250000D01*
G01*
X155462500Y-84212500D01*
G75*
G02*
X155212500Y-84462500I-250000J0D01*
G01*
G37*
G36*
G01*
X155212500Y-82637500D02*
X154312500Y-82637500D01*
G75*
G02*
X154062500Y-82387500I0J250000D01*
G01*
X154062500Y-81862500D01*
G75*
G02*
X154312500Y-81612500I250000J0D01*
G01*
X155212500Y-81612500D01*
G75*
G02*
X155462500Y-81862500I0J-250000D01*
G01*
X155462500Y-82387500D01*
G75*
G02*
X155212500Y-82637500I-250000J0D01*
G01*
G37*
D14*
X164462500Y-92037500D03*
X159462500Y-92037500D03*
G36*
G01*
X161262500Y-93937500D02*
X162462500Y-93937500D01*
G75*
G02*
X162612500Y-94087500I0J-150000D01*
G01*
X162612500Y-95787500D01*
G75*
G02*
X162462500Y-95937500I-150000J0D01*
G01*
X161262500Y-95937500D01*
G75*
G02*
X161112500Y-95787500I0J150000D01*
G01*
X161112500Y-94087500D01*
G75*
G02*
X161262500Y-93937500I150000J0D01*
G01*
G37*
G36*
G01*
X157562500Y-93937500D02*
X158762500Y-93937500D01*
G75*
G02*
X158912500Y-94087500I0J-150000D01*
G01*
X158912500Y-95787500D01*
G75*
G02*
X158762500Y-95937500I-150000J0D01*
G01*
X157562500Y-95937500D01*
G75*
G02*
X157412500Y-95787500I0J150000D01*
G01*
X157412500Y-94087500D01*
G75*
G02*
X157562500Y-93937500I150000J0D01*
G01*
G37*
G36*
G01*
X164962500Y-88137500D02*
X166162500Y-88137500D01*
G75*
G02*
X166312500Y-88287500I0J-150000D01*
G01*
X166312500Y-89987500D01*
G75*
G02*
X166162500Y-90137500I-150000J0D01*
G01*
X164962500Y-90137500D01*
G75*
G02*
X164812500Y-89987500I0J150000D01*
G01*
X164812500Y-88287500D01*
G75*
G02*
X164962500Y-88137500I150000J0D01*
G01*
G37*
G36*
G01*
X164962500Y-93937500D02*
X166162500Y-93937500D01*
G75*
G02*
X166312500Y-94087500I0J-150000D01*
G01*
X166312500Y-95787500D01*
G75*
G02*
X166162500Y-95937500I-150000J0D01*
G01*
X164962500Y-95937500D01*
G75*
G02*
X164812500Y-95787500I0J150000D01*
G01*
X164812500Y-94087500D01*
G75*
G02*
X164962500Y-93937500I150000J0D01*
G01*
G37*
G36*
G01*
X161262500Y-88137500D02*
X162462500Y-88137500D01*
G75*
G02*
X162612500Y-88287500I0J-150000D01*
G01*
X162612500Y-89987500D01*
G75*
G02*
X162462500Y-90137500I-150000J0D01*
G01*
X161262500Y-90137500D01*
G75*
G02*
X161112500Y-89987500I0J150000D01*
G01*
X161112500Y-88287500D01*
G75*
G02*
X161262500Y-88137500I150000J0D01*
G01*
G37*
G36*
G01*
X157562500Y-88137500D02*
X158762500Y-88137500D01*
G75*
G02*
X158912500Y-88287500I0J-150000D01*
G01*
X158912500Y-89987500D01*
G75*
G02*
X158762500Y-90137500I-150000J0D01*
G01*
X157562500Y-90137500D01*
G75*
G02*
X157412500Y-89987500I0J150000D01*
G01*
X157412500Y-88287500D01*
G75*
G02*
X157562500Y-88137500I150000J0D01*
G01*
G37*
X130062500Y-82037500D03*
X135062500Y-82037500D03*
G36*
G01*
X133262500Y-80137500D02*
X132062500Y-80137500D01*
G75*
G02*
X131912500Y-79987500I0J150000D01*
G01*
X131912500Y-78287500D01*
G75*
G02*
X132062500Y-78137500I150000J0D01*
G01*
X133262500Y-78137500D01*
G75*
G02*
X133412500Y-78287500I0J-150000D01*
G01*
X133412500Y-79987500D01*
G75*
G02*
X133262500Y-80137500I-150000J0D01*
G01*
G37*
G36*
G01*
X136962500Y-80137500D02*
X135762500Y-80137500D01*
G75*
G02*
X135612500Y-79987500I0J150000D01*
G01*
X135612500Y-78287500D01*
G75*
G02*
X135762500Y-78137500I150000J0D01*
G01*
X136962500Y-78137500D01*
G75*
G02*
X137112500Y-78287500I0J-150000D01*
G01*
X137112500Y-79987500D01*
G75*
G02*
X136962500Y-80137500I-150000J0D01*
G01*
G37*
G36*
G01*
X129562500Y-85937500D02*
X128362500Y-85937500D01*
G75*
G02*
X128212500Y-85787500I0J150000D01*
G01*
X128212500Y-84087500D01*
G75*
G02*
X128362500Y-83937500I150000J0D01*
G01*
X129562500Y-83937500D01*
G75*
G02*
X129712500Y-84087500I0J-150000D01*
G01*
X129712500Y-85787500D01*
G75*
G02*
X129562500Y-85937500I-150000J0D01*
G01*
G37*
G36*
G01*
X129562500Y-80137500D02*
X128362500Y-80137500D01*
G75*
G02*
X128212500Y-79987500I0J150000D01*
G01*
X128212500Y-78287500D01*
G75*
G02*
X128362500Y-78137500I150000J0D01*
G01*
X129562500Y-78137500D01*
G75*
G02*
X129712500Y-78287500I0J-150000D01*
G01*
X129712500Y-79987500D01*
G75*
G02*
X129562500Y-80137500I-150000J0D01*
G01*
G37*
G36*
G01*
X133262500Y-85937500D02*
X132062500Y-85937500D01*
G75*
G02*
X131912500Y-85787500I0J150000D01*
G01*
X131912500Y-84087500D01*
G75*
G02*
X132062500Y-83937500I150000J0D01*
G01*
X133262500Y-83937500D01*
G75*
G02*
X133412500Y-84087500I0J-150000D01*
G01*
X133412500Y-85787500D01*
G75*
G02*
X133262500Y-85937500I-150000J0D01*
G01*
G37*
G36*
G01*
X136962500Y-85937500D02*
X135762500Y-85937500D01*
G75*
G02*
X135612500Y-85787500I0J150000D01*
G01*
X135612500Y-84087500D01*
G75*
G02*
X135762500Y-83937500I150000J0D01*
G01*
X136962500Y-83937500D01*
G75*
G02*
X137112500Y-84087500I0J-150000D01*
G01*
X137112500Y-85787500D01*
G75*
G02*
X136962500Y-85937500I-150000J0D01*
G01*
G37*
X159462500Y-72037500D03*
X164462500Y-72037500D03*
G36*
G01*
X161262500Y-73937500D02*
X162462500Y-73937500D01*
G75*
G02*
X162612500Y-74087500I0J-150000D01*
G01*
X162612500Y-75787500D01*
G75*
G02*
X162462500Y-75937500I-150000J0D01*
G01*
X161262500Y-75937500D01*
G75*
G02*
X161112500Y-75787500I0J150000D01*
G01*
X161112500Y-74087500D01*
G75*
G02*
X161262500Y-73937500I150000J0D01*
G01*
G37*
G36*
G01*
X157562500Y-73937500D02*
X158762500Y-73937500D01*
G75*
G02*
X158912500Y-74087500I0J-150000D01*
G01*
X158912500Y-75787500D01*
G75*
G02*
X158762500Y-75937500I-150000J0D01*
G01*
X157562500Y-75937500D01*
G75*
G02*
X157412500Y-75787500I0J150000D01*
G01*
X157412500Y-74087500D01*
G75*
G02*
X157562500Y-73937500I150000J0D01*
G01*
G37*
G36*
G01*
X164962500Y-68137500D02*
X166162500Y-68137500D01*
G75*
G02*
X166312500Y-68287500I0J-150000D01*
G01*
X166312500Y-69987500D01*
G75*
G02*
X166162500Y-70137500I-150000J0D01*
G01*
X164962500Y-70137500D01*
G75*
G02*
X164812500Y-69987500I0J150000D01*
G01*
X164812500Y-68287500D01*
G75*
G02*
X164962500Y-68137500I150000J0D01*
G01*
G37*
G36*
G01*
X164962500Y-73937500D02*
X166162500Y-73937500D01*
G75*
G02*
X166312500Y-74087500I0J-150000D01*
G01*
X166312500Y-75787500D01*
G75*
G02*
X166162500Y-75937500I-150000J0D01*
G01*
X164962500Y-75937500D01*
G75*
G02*
X164812500Y-75787500I0J150000D01*
G01*
X164812500Y-74087500D01*
G75*
G02*
X164962500Y-73937500I150000J0D01*
G01*
G37*
G36*
G01*
X161262500Y-68137500D02*
X162462500Y-68137500D01*
G75*
G02*
X162612500Y-68287500I0J-150000D01*
G01*
X162612500Y-69987500D01*
G75*
G02*
X162462500Y-70137500I-150000J0D01*
G01*
X161262500Y-70137500D01*
G75*
G02*
X161112500Y-69987500I0J150000D01*
G01*
X161112500Y-68287500D01*
G75*
G02*
X161262500Y-68137500I150000J0D01*
G01*
G37*
G36*
G01*
X157562500Y-68137500D02*
X158762500Y-68137500D01*
G75*
G02*
X158912500Y-68287500I0J-150000D01*
G01*
X158912500Y-69987500D01*
G75*
G02*
X158762500Y-70137500I-150000J0D01*
G01*
X157562500Y-70137500D01*
G75*
G02*
X157412500Y-69987500I0J150000D01*
G01*
X157412500Y-68287500D01*
G75*
G02*
X157562500Y-68137500I150000J0D01*
G01*
G37*
G36*
G01*
X163812500Y-110612500D02*
X164712500Y-110612500D01*
G75*
G02*
X164962500Y-110862500I0J-250000D01*
G01*
X164962500Y-111387500D01*
G75*
G02*
X164712500Y-111637500I-250000J0D01*
G01*
X163812500Y-111637500D01*
G75*
G02*
X163562500Y-111387500I0J250000D01*
G01*
X163562500Y-110862500D01*
G75*
G02*
X163812500Y-110612500I250000J0D01*
G01*
G37*
G36*
G01*
X163812500Y-112437500D02*
X164712500Y-112437500D01*
G75*
G02*
X164962500Y-112687500I0J-250000D01*
G01*
X164962500Y-113212500D01*
G75*
G02*
X164712500Y-113462500I-250000J0D01*
G01*
X163812500Y-113462500D01*
G75*
G02*
X163562500Y-113212500I0J250000D01*
G01*
X163562500Y-112687500D01*
G75*
G02*
X163812500Y-112437500I250000J0D01*
G01*
G37*
G36*
G01*
X154312500Y-78112500D02*
X155212500Y-78112500D01*
G75*
G02*
X155462500Y-78362500I0J-250000D01*
G01*
X155462500Y-78887500D01*
G75*
G02*
X155212500Y-79137500I-250000J0D01*
G01*
X154312500Y-79137500D01*
G75*
G02*
X154062500Y-78887500I0J250000D01*
G01*
X154062500Y-78362500D01*
G75*
G02*
X154312500Y-78112500I250000J0D01*
G01*
G37*
G36*
G01*
X154312500Y-79937500D02*
X155212500Y-79937500D01*
G75*
G02*
X155462500Y-80187500I0J-250000D01*
G01*
X155462500Y-80712500D01*
G75*
G02*
X155212500Y-80962500I-250000J0D01*
G01*
X154312500Y-80962500D01*
G75*
G02*
X154062500Y-80712500I0J250000D01*
G01*
X154062500Y-80187500D01*
G75*
G02*
X154312500Y-79937500I250000J0D01*
G01*
G37*
G36*
G01*
X144287500Y-77912500D02*
X145237500Y-77912500D01*
G75*
G02*
X145487500Y-78162500I0J-250000D01*
G01*
X145487500Y-78837500D01*
G75*
G02*
X145237500Y-79087500I-250000J0D01*
G01*
X144287500Y-79087500D01*
G75*
G02*
X144037500Y-78837500I0J250000D01*
G01*
X144037500Y-78162500D01*
G75*
G02*
X144287500Y-77912500I250000J0D01*
G01*
G37*
G36*
G01*
X144287500Y-79987500D02*
X145237500Y-79987500D01*
G75*
G02*
X145487500Y-80237500I0J-250000D01*
G01*
X145487500Y-80912500D01*
G75*
G02*
X145237500Y-81162500I-250000J0D01*
G01*
X144287500Y-81162500D01*
G75*
G02*
X144037500Y-80912500I0J250000D01*
G01*
X144037500Y-80237500D01*
G75*
G02*
X144287500Y-79987500I250000J0D01*
G01*
G37*
G36*
G01*
X161812500Y-110437500D02*
X162712500Y-110437500D01*
G75*
G02*
X162962500Y-110687500I0J-250000D01*
G01*
X162962500Y-111337500D01*
G75*
G02*
X162712500Y-111587500I-250000J0D01*
G01*
X161812500Y-111587500D01*
G75*
G02*
X161562500Y-111337500I0J250000D01*
G01*
X161562500Y-110687500D01*
G75*
G02*
X161812500Y-110437500I250000J0D01*
G01*
G37*
G36*
G01*
X161812500Y-112487500D02*
X162712500Y-112487500D01*
G75*
G02*
X162962500Y-112737500I0J-250000D01*
G01*
X162962500Y-113387500D01*
G75*
G02*
X162712500Y-113637500I-250000J0D01*
G01*
X161812500Y-113637500D01*
G75*
G02*
X161562500Y-113387500I0J250000D01*
G01*
X161562500Y-112737500D01*
G75*
G02*
X161812500Y-112487500I250000J0D01*
G01*
G37*
G36*
G01*
X131812500Y-110437500D02*
X132712500Y-110437500D01*
G75*
G02*
X132962500Y-110687500I0J-250000D01*
G01*
X132962500Y-111337500D01*
G75*
G02*
X132712500Y-111587500I-250000J0D01*
G01*
X131812500Y-111587500D01*
G75*
G02*
X131562500Y-111337500I0J250000D01*
G01*
X131562500Y-110687500D01*
G75*
G02*
X131812500Y-110437500I250000J0D01*
G01*
G37*
G36*
G01*
X131812500Y-112487500D02*
X132712500Y-112487500D01*
G75*
G02*
X132962500Y-112737500I0J-250000D01*
G01*
X132962500Y-113387500D01*
G75*
G02*
X132712500Y-113637500I-250000J0D01*
G01*
X131812500Y-113637500D01*
G75*
G02*
X131562500Y-113387500I0J250000D01*
G01*
X131562500Y-112737500D01*
G75*
G02*
X131812500Y-112487500I250000J0D01*
G01*
G37*
D15*
X130012500Y-116057500D03*
X130012500Y-124017500D03*
X134512500Y-116057500D03*
X134512500Y-124017500D03*
X164512500Y-116057500D03*
X164512500Y-124017500D03*
X160012500Y-116057500D03*
X160012500Y-124017500D03*
D14*
X159462500Y-102037500D03*
X164462500Y-102037500D03*
G36*
G01*
X161262500Y-103937500D02*
X162462500Y-103937500D01*
G75*
G02*
X162612500Y-104087500I0J-150000D01*
G01*
X162612500Y-105787500D01*
G75*
G02*
X162462500Y-105937500I-150000J0D01*
G01*
X161262500Y-105937500D01*
G75*
G02*
X161112500Y-105787500I0J150000D01*
G01*
X161112500Y-104087500D01*
G75*
G02*
X161262500Y-103937500I150000J0D01*
G01*
G37*
G36*
G01*
X157562500Y-103937500D02*
X158762500Y-103937500D01*
G75*
G02*
X158912500Y-104087500I0J-150000D01*
G01*
X158912500Y-105787500D01*
G75*
G02*
X158762500Y-105937500I-150000J0D01*
G01*
X157562500Y-105937500D01*
G75*
G02*
X157412500Y-105787500I0J150000D01*
G01*
X157412500Y-104087500D01*
G75*
G02*
X157562500Y-103937500I150000J0D01*
G01*
G37*
G36*
G01*
X164962500Y-98137500D02*
X166162500Y-98137500D01*
G75*
G02*
X166312500Y-98287500I0J-150000D01*
G01*
X166312500Y-99987500D01*
G75*
G02*
X166162500Y-100137500I-150000J0D01*
G01*
X164962500Y-100137500D01*
G75*
G02*
X164812500Y-99987500I0J150000D01*
G01*
X164812500Y-98287500D01*
G75*
G02*
X164962500Y-98137500I150000J0D01*
G01*
G37*
G36*
G01*
X164962500Y-103937500D02*
X166162500Y-103937500D01*
G75*
G02*
X166312500Y-104087500I0J-150000D01*
G01*
X166312500Y-105787500D01*
G75*
G02*
X166162500Y-105937500I-150000J0D01*
G01*
X164962500Y-105937500D01*
G75*
G02*
X164812500Y-105787500I0J150000D01*
G01*
X164812500Y-104087500D01*
G75*
G02*
X164962500Y-103937500I150000J0D01*
G01*
G37*
G36*
G01*
X161262500Y-98137500D02*
X162462500Y-98137500D01*
G75*
G02*
X162612500Y-98287500I0J-150000D01*
G01*
X162612500Y-99987500D01*
G75*
G02*
X162462500Y-100137500I-150000J0D01*
G01*
X161262500Y-100137500D01*
G75*
G02*
X161112500Y-99987500I0J150000D01*
G01*
X161112500Y-98287500D01*
G75*
G02*
X161262500Y-98137500I150000J0D01*
G01*
G37*
G36*
G01*
X157562500Y-98137500D02*
X158762500Y-98137500D01*
G75*
G02*
X158912500Y-98287500I0J-150000D01*
G01*
X158912500Y-99987500D01*
G75*
G02*
X158762500Y-100137500I-150000J0D01*
G01*
X157562500Y-100137500D01*
G75*
G02*
X157412500Y-99987500I0J150000D01*
G01*
X157412500Y-98287500D01*
G75*
G02*
X157562500Y-98137500I150000J0D01*
G01*
G37*
G36*
G01*
X150212500Y-80962500D02*
X149312500Y-80962500D01*
G75*
G02*
X149062500Y-80712500I0J250000D01*
G01*
X149062500Y-80187500D01*
G75*
G02*
X149312500Y-79937500I250000J0D01*
G01*
X150212500Y-79937500D01*
G75*
G02*
X150462500Y-80187500I0J-250000D01*
G01*
X150462500Y-80712500D01*
G75*
G02*
X150212500Y-80962500I-250000J0D01*
G01*
G37*
G36*
G01*
X150212500Y-79137500D02*
X149312500Y-79137500D01*
G75*
G02*
X149062500Y-78887500I0J250000D01*
G01*
X149062500Y-78362500D01*
G75*
G02*
X149312500Y-78112500I250000J0D01*
G01*
X150212500Y-78112500D01*
G75*
G02*
X150462500Y-78362500I0J-250000D01*
G01*
X150462500Y-78887500D01*
G75*
G02*
X150212500Y-79137500I-250000J0D01*
G01*
G37*
G36*
G01*
X154312500Y-98112500D02*
X155212500Y-98112500D01*
G75*
G02*
X155462500Y-98362500I0J-250000D01*
G01*
X155462500Y-98887500D01*
G75*
G02*
X155212500Y-99137500I-250000J0D01*
G01*
X154312500Y-99137500D01*
G75*
G02*
X154062500Y-98887500I0J250000D01*
G01*
X154062500Y-98362500D01*
G75*
G02*
X154312500Y-98112500I250000J0D01*
G01*
G37*
G36*
G01*
X154312500Y-99937500D02*
X155212500Y-99937500D01*
G75*
G02*
X155462500Y-100187500I0J-250000D01*
G01*
X155462500Y-100712500D01*
G75*
G02*
X155212500Y-100962500I-250000J0D01*
G01*
X154312500Y-100962500D01*
G75*
G02*
X154062500Y-100712500I0J250000D01*
G01*
X154062500Y-100187500D01*
G75*
G02*
X154312500Y-99937500I250000J0D01*
G01*
G37*
X130062500Y-102037500D03*
X135062500Y-102037500D03*
G36*
G01*
X133262500Y-100137500D02*
X132062500Y-100137500D01*
G75*
G02*
X131912500Y-99987500I0J150000D01*
G01*
X131912500Y-98287500D01*
G75*
G02*
X132062500Y-98137500I150000J0D01*
G01*
X133262500Y-98137500D01*
G75*
G02*
X133412500Y-98287500I0J-150000D01*
G01*
X133412500Y-99987500D01*
G75*
G02*
X133262500Y-100137500I-150000J0D01*
G01*
G37*
G36*
G01*
X136962500Y-100137500D02*
X135762500Y-100137500D01*
G75*
G02*
X135612500Y-99987500I0J150000D01*
G01*
X135612500Y-98287500D01*
G75*
G02*
X135762500Y-98137500I150000J0D01*
G01*
X136962500Y-98137500D01*
G75*
G02*
X137112500Y-98287500I0J-150000D01*
G01*
X137112500Y-99987500D01*
G75*
G02*
X136962500Y-100137500I-150000J0D01*
G01*
G37*
G36*
G01*
X129562500Y-105937500D02*
X128362500Y-105937500D01*
G75*
G02*
X128212500Y-105787500I0J150000D01*
G01*
X128212500Y-104087500D01*
G75*
G02*
X128362500Y-103937500I150000J0D01*
G01*
X129562500Y-103937500D01*
G75*
G02*
X129712500Y-104087500I0J-150000D01*
G01*
X129712500Y-105787500D01*
G75*
G02*
X129562500Y-105937500I-150000J0D01*
G01*
G37*
G36*
G01*
X129562500Y-100137500D02*
X128362500Y-100137500D01*
G75*
G02*
X128212500Y-99987500I0J150000D01*
G01*
X128212500Y-98287500D01*
G75*
G02*
X128362500Y-98137500I150000J0D01*
G01*
X129562500Y-98137500D01*
G75*
G02*
X129712500Y-98287500I0J-150000D01*
G01*
X129712500Y-99987500D01*
G75*
G02*
X129562500Y-100137500I-150000J0D01*
G01*
G37*
G36*
G01*
X133262500Y-105937500D02*
X132062500Y-105937500D01*
G75*
G02*
X131912500Y-105787500I0J150000D01*
G01*
X131912500Y-104087500D01*
G75*
G02*
X132062500Y-103937500I150000J0D01*
G01*
X133262500Y-103937500D01*
G75*
G02*
X133412500Y-104087500I0J-150000D01*
G01*
X133412500Y-105787500D01*
G75*
G02*
X133262500Y-105937500I-150000J0D01*
G01*
G37*
G36*
G01*
X136962500Y-105937500D02*
X135762500Y-105937500D01*
G75*
G02*
X135612500Y-105787500I0J150000D01*
G01*
X135612500Y-104087500D01*
G75*
G02*
X135762500Y-103937500I150000J0D01*
G01*
X136962500Y-103937500D01*
G75*
G02*
X137112500Y-104087500I0J-150000D01*
G01*
X137112500Y-105787500D01*
G75*
G02*
X136962500Y-105937500I-150000J0D01*
G01*
G37*
X164462500Y-82037500D03*
X159462500Y-82037500D03*
G36*
G01*
X161262500Y-83937500D02*
X162462500Y-83937500D01*
G75*
G02*
X162612500Y-84087500I0J-150000D01*
G01*
X162612500Y-85787500D01*
G75*
G02*
X162462500Y-85937500I-150000J0D01*
G01*
X161262500Y-85937500D01*
G75*
G02*
X161112500Y-85787500I0J150000D01*
G01*
X161112500Y-84087500D01*
G75*
G02*
X161262500Y-83937500I150000J0D01*
G01*
G37*
G36*
G01*
X157562500Y-83937500D02*
X158762500Y-83937500D01*
G75*
G02*
X158912500Y-84087500I0J-150000D01*
G01*
X158912500Y-85787500D01*
G75*
G02*
X158762500Y-85937500I-150000J0D01*
G01*
X157562500Y-85937500D01*
G75*
G02*
X157412500Y-85787500I0J150000D01*
G01*
X157412500Y-84087500D01*
G75*
G02*
X157562500Y-83937500I150000J0D01*
G01*
G37*
G36*
G01*
X164962500Y-78137500D02*
X166162500Y-78137500D01*
G75*
G02*
X166312500Y-78287500I0J-150000D01*
G01*
X166312500Y-79987500D01*
G75*
G02*
X166162500Y-80137500I-150000J0D01*
G01*
X164962500Y-80137500D01*
G75*
G02*
X164812500Y-79987500I0J150000D01*
G01*
X164812500Y-78287500D01*
G75*
G02*
X164962500Y-78137500I150000J0D01*
G01*
G37*
G36*
G01*
X164962500Y-83937500D02*
X166162500Y-83937500D01*
G75*
G02*
X166312500Y-84087500I0J-150000D01*
G01*
X166312500Y-85787500D01*
G75*
G02*
X166162500Y-85937500I-150000J0D01*
G01*
X164962500Y-85937500D01*
G75*
G02*
X164812500Y-85787500I0J150000D01*
G01*
X164812500Y-84087500D01*
G75*
G02*
X164962500Y-83937500I150000J0D01*
G01*
G37*
G36*
G01*
X161262500Y-78137500D02*
X162462500Y-78137500D01*
G75*
G02*
X162612500Y-78287500I0J-150000D01*
G01*
X162612500Y-79987500D01*
G75*
G02*
X162462500Y-80137500I-150000J0D01*
G01*
X161262500Y-80137500D01*
G75*
G02*
X161112500Y-79987500I0J150000D01*
G01*
X161112500Y-78287500D01*
G75*
G02*
X161262500Y-78137500I150000J0D01*
G01*
G37*
G36*
G01*
X157562500Y-78137500D02*
X158762500Y-78137500D01*
G75*
G02*
X158912500Y-78287500I0J-150000D01*
G01*
X158912500Y-79987500D01*
G75*
G02*
X158762500Y-80137500I-150000J0D01*
G01*
X157562500Y-80137500D01*
G75*
G02*
X157412500Y-79987500I0J150000D01*
G01*
X157412500Y-78287500D01*
G75*
G02*
X157562500Y-78137500I150000J0D01*
G01*
G37*
G36*
G01*
X155212500Y-94462500D02*
X154312500Y-94462500D01*
G75*
G02*
X154062500Y-94212500I0J250000D01*
G01*
X154062500Y-93687500D01*
G75*
G02*
X154312500Y-93437500I250000J0D01*
G01*
X155212500Y-93437500D01*
G75*
G02*
X155462500Y-93687500I0J-250000D01*
G01*
X155462500Y-94212500D01*
G75*
G02*
X155212500Y-94462500I-250000J0D01*
G01*
G37*
G36*
G01*
X155212500Y-92637500D02*
X154312500Y-92637500D01*
G75*
G02*
X154062500Y-92387500I0J250000D01*
G01*
X154062500Y-91862500D01*
G75*
G02*
X154312500Y-91612500I250000J0D01*
G01*
X155212500Y-91612500D01*
G75*
G02*
X155462500Y-91862500I0J-250000D01*
G01*
X155462500Y-92387500D01*
G75*
G02*
X155212500Y-92637500I-250000J0D01*
G01*
G37*
G36*
G01*
X140212500Y-74462500D02*
X139312500Y-74462500D01*
G75*
G02*
X139062500Y-74212500I0J250000D01*
G01*
X139062500Y-73687500D01*
G75*
G02*
X139312500Y-73437500I250000J0D01*
G01*
X140212500Y-73437500D01*
G75*
G02*
X140462500Y-73687500I0J-250000D01*
G01*
X140462500Y-74212500D01*
G75*
G02*
X140212500Y-74462500I-250000J0D01*
G01*
G37*
G36*
G01*
X140212500Y-72637500D02*
X139312500Y-72637500D01*
G75*
G02*
X139062500Y-72387500I0J250000D01*
G01*
X139062500Y-71862500D01*
G75*
G02*
X139312500Y-71612500I250000J0D01*
G01*
X140212500Y-71612500D01*
G75*
G02*
X140462500Y-71862500I0J-250000D01*
G01*
X140462500Y-72387500D01*
G75*
G02*
X140212500Y-72637500I-250000J0D01*
G01*
G37*
G36*
G01*
X133812500Y-110612500D02*
X134712500Y-110612500D01*
G75*
G02*
X134962500Y-110862500I0J-250000D01*
G01*
X134962500Y-111387500D01*
G75*
G02*
X134712500Y-111637500I-250000J0D01*
G01*
X133812500Y-111637500D01*
G75*
G02*
X133562500Y-111387500I0J250000D01*
G01*
X133562500Y-110862500D01*
G75*
G02*
X133812500Y-110612500I250000J0D01*
G01*
G37*
G36*
G01*
X133812500Y-112437500D02*
X134712500Y-112437500D01*
G75*
G02*
X134962500Y-112687500I0J-250000D01*
G01*
X134962500Y-113212500D01*
G75*
G02*
X134712500Y-113462500I-250000J0D01*
G01*
X133812500Y-113462500D01*
G75*
G02*
X133562500Y-113212500I0J250000D01*
G01*
X133562500Y-112687500D01*
G75*
G02*
X133812500Y-112437500I250000J0D01*
G01*
G37*
D16*
X147262500Y-103037500D03*
D14*
X130062500Y-92037500D03*
X135062500Y-92037500D03*
G36*
G01*
X133262500Y-90137500D02*
X132062500Y-90137500D01*
G75*
G02*
X131912500Y-89987500I0J150000D01*
G01*
X131912500Y-88287500D01*
G75*
G02*
X132062500Y-88137500I150000J0D01*
G01*
X133262500Y-88137500D01*
G75*
G02*
X133412500Y-88287500I0J-150000D01*
G01*
X133412500Y-89987500D01*
G75*
G02*
X133262500Y-90137500I-150000J0D01*
G01*
G37*
G36*
G01*
X136962500Y-90137500D02*
X135762500Y-90137500D01*
G75*
G02*
X135612500Y-89987500I0J150000D01*
G01*
X135612500Y-88287500D01*
G75*
G02*
X135762500Y-88137500I150000J0D01*
G01*
X136962500Y-88137500D01*
G75*
G02*
X137112500Y-88287500I0J-150000D01*
G01*
X137112500Y-89987500D01*
G75*
G02*
X136962500Y-90137500I-150000J0D01*
G01*
G37*
G36*
G01*
X129562500Y-95937500D02*
X128362500Y-95937500D01*
G75*
G02*
X128212500Y-95787500I0J150000D01*
G01*
X128212500Y-94087500D01*
G75*
G02*
X128362500Y-93937500I150000J0D01*
G01*
X129562500Y-93937500D01*
G75*
G02*
X129712500Y-94087500I0J-150000D01*
G01*
X129712500Y-95787500D01*
G75*
G02*
X129562500Y-95937500I-150000J0D01*
G01*
G37*
G36*
G01*
X129562500Y-90137500D02*
X128362500Y-90137500D01*
G75*
G02*
X128212500Y-89987500I0J150000D01*
G01*
X128212500Y-88287500D01*
G75*
G02*
X128362500Y-88137500I150000J0D01*
G01*
X129562500Y-88137500D01*
G75*
G02*
X129712500Y-88287500I0J-150000D01*
G01*
X129712500Y-89987500D01*
G75*
G02*
X129562500Y-90137500I-150000J0D01*
G01*
G37*
G36*
G01*
X133262500Y-95937500D02*
X132062500Y-95937500D01*
G75*
G02*
X131912500Y-95787500I0J150000D01*
G01*
X131912500Y-94087500D01*
G75*
G02*
X132062500Y-93937500I150000J0D01*
G01*
X133262500Y-93937500D01*
G75*
G02*
X133412500Y-94087500I0J-150000D01*
G01*
X133412500Y-95787500D01*
G75*
G02*
X133262500Y-95937500I-150000J0D01*
G01*
G37*
G36*
G01*
X136962500Y-95937500D02*
X135762500Y-95937500D01*
G75*
G02*
X135612500Y-95787500I0J150000D01*
G01*
X135612500Y-94087500D01*
G75*
G02*
X135762500Y-93937500I150000J0D01*
G01*
X136962500Y-93937500D01*
G75*
G02*
X137112500Y-94087500I0J-150000D01*
G01*
X137112500Y-95787500D01*
G75*
G02*
X136962500Y-95937500I-150000J0D01*
G01*
G37*
X135062500Y-72037500D03*
X130062500Y-72037500D03*
G36*
G01*
X133262500Y-70137500D02*
X132062500Y-70137500D01*
G75*
G02*
X131912500Y-69987500I0J150000D01*
G01*
X131912500Y-68287500D01*
G75*
G02*
X132062500Y-68137500I150000J0D01*
G01*
X133262500Y-68137500D01*
G75*
G02*
X133412500Y-68287500I0J-150000D01*
G01*
X133412500Y-69987500D01*
G75*
G02*
X133262500Y-70137500I-150000J0D01*
G01*
G37*
G36*
G01*
X136962500Y-70137500D02*
X135762500Y-70137500D01*
G75*
G02*
X135612500Y-69987500I0J150000D01*
G01*
X135612500Y-68287500D01*
G75*
G02*
X135762500Y-68137500I150000J0D01*
G01*
X136962500Y-68137500D01*
G75*
G02*
X137112500Y-68287500I0J-150000D01*
G01*
X137112500Y-69987500D01*
G75*
G02*
X136962500Y-70137500I-150000J0D01*
G01*
G37*
G36*
G01*
X129562500Y-75937500D02*
X128362500Y-75937500D01*
G75*
G02*
X128212500Y-75787500I0J150000D01*
G01*
X128212500Y-74087500D01*
G75*
G02*
X128362500Y-73937500I150000J0D01*
G01*
X129562500Y-73937500D01*
G75*
G02*
X129712500Y-74087500I0J-150000D01*
G01*
X129712500Y-75787500D01*
G75*
G02*
X129562500Y-75937500I-150000J0D01*
G01*
G37*
G36*
G01*
X129562500Y-70137500D02*
X128362500Y-70137500D01*
G75*
G02*
X128212500Y-69987500I0J150000D01*
G01*
X128212500Y-68287500D01*
G75*
G02*
X128362500Y-68137500I150000J0D01*
G01*
X129562500Y-68137500D01*
G75*
G02*
X129712500Y-68287500I0J-150000D01*
G01*
X129712500Y-69987500D01*
G75*
G02*
X129562500Y-70137500I-150000J0D01*
G01*
G37*
G36*
G01*
X133262500Y-75937500D02*
X132062500Y-75937500D01*
G75*
G02*
X131912500Y-75787500I0J150000D01*
G01*
X131912500Y-74087500D01*
G75*
G02*
X132062500Y-73937500I150000J0D01*
G01*
X133262500Y-73937500D01*
G75*
G02*
X133412500Y-74087500I0J-150000D01*
G01*
X133412500Y-75787500D01*
G75*
G02*
X133262500Y-75937500I-150000J0D01*
G01*
G37*
G36*
G01*
X136962500Y-75937500D02*
X135762500Y-75937500D01*
G75*
G02*
X135612500Y-75787500I0J150000D01*
G01*
X135612500Y-74087500D01*
G75*
G02*
X135762500Y-73937500I150000J0D01*
G01*
X136962500Y-73937500D01*
G75*
G02*
X137112500Y-74087500I0J-150000D01*
G01*
X137112500Y-75787500D01*
G75*
G02*
X136962500Y-75937500I-150000J0D01*
G01*
G37*
G36*
G01*
X147712500Y-80962500D02*
X146812500Y-80962500D01*
G75*
G02*
X146562500Y-80712500I0J250000D01*
G01*
X146562500Y-80187500D01*
G75*
G02*
X146812500Y-79937500I250000J0D01*
G01*
X147712500Y-79937500D01*
G75*
G02*
X147962500Y-80187500I0J-250000D01*
G01*
X147962500Y-80712500D01*
G75*
G02*
X147712500Y-80962500I-250000J0D01*
G01*
G37*
G36*
G01*
X147712500Y-79137500D02*
X146812500Y-79137500D01*
G75*
G02*
X146562500Y-78887500I0J250000D01*
G01*
X146562500Y-78362500D01*
G75*
G02*
X146812500Y-78112500I250000J0D01*
G01*
X147712500Y-78112500D01*
G75*
G02*
X147962500Y-78362500I0J-250000D01*
G01*
X147962500Y-78887500D01*
G75*
G02*
X147712500Y-79137500I-250000J0D01*
G01*
G37*
D17*
X143462500Y-72005500D03*
D18*
X146002500Y-72005500D03*
X148542500Y-72005500D03*
X151082500Y-72005500D03*
G36*
G01*
X139312500Y-78112500D02*
X140212500Y-78112500D01*
G75*
G02*
X140462500Y-78362500I0J-250000D01*
G01*
X140462500Y-78887500D01*
G75*
G02*
X140212500Y-79137500I-250000J0D01*
G01*
X139312500Y-79137500D01*
G75*
G02*
X139062500Y-78887500I0J250000D01*
G01*
X139062500Y-78362500D01*
G75*
G02*
X139312500Y-78112500I250000J0D01*
G01*
G37*
G36*
G01*
X139312500Y-79937500D02*
X140212500Y-79937500D01*
G75*
G02*
X140462500Y-80187500I0J-250000D01*
G01*
X140462500Y-80712500D01*
G75*
G02*
X140212500Y-80962500I-250000J0D01*
G01*
X139312500Y-80962500D01*
G75*
G02*
X139062500Y-80712500I0J250000D01*
G01*
X139062500Y-80187500D01*
G75*
G02*
X139312500Y-79937500I250000J0D01*
G01*
G37*
G36*
G01*
X154312500Y-68112500D02*
X155212500Y-68112500D01*
G75*
G02*
X155462500Y-68362500I0J-250000D01*
G01*
X155462500Y-68887500D01*
G75*
G02*
X155212500Y-69137500I-250000J0D01*
G01*
X154312500Y-69137500D01*
G75*
G02*
X154062500Y-68887500I0J250000D01*
G01*
X154062500Y-68362500D01*
G75*
G02*
X154312500Y-68112500I250000J0D01*
G01*
G37*
G36*
G01*
X154312500Y-69937500D02*
X155212500Y-69937500D01*
G75*
G02*
X155462500Y-70187500I0J-250000D01*
G01*
X155462500Y-70712500D01*
G75*
G02*
X155212500Y-70962500I-250000J0D01*
G01*
X154312500Y-70962500D01*
G75*
G02*
X154062500Y-70712500I0J250000D01*
G01*
X154062500Y-70187500D01*
G75*
G02*
X154312500Y-69937500I250000J0D01*
G01*
G37*
G36*
G01*
X139312500Y-68112500D02*
X140212500Y-68112500D01*
G75*
G02*
X140462500Y-68362500I0J-250000D01*
G01*
X140462500Y-68887500D01*
G75*
G02*
X140212500Y-69137500I-250000J0D01*
G01*
X139312500Y-69137500D01*
G75*
G02*
X139062500Y-68887500I0J250000D01*
G01*
X139062500Y-68362500D01*
G75*
G02*
X139312500Y-68112500I250000J0D01*
G01*
G37*
G36*
G01*
X139312500Y-69937500D02*
X140212500Y-69937500D01*
G75*
G02*
X140462500Y-70187500I0J-250000D01*
G01*
X140462500Y-70712500D01*
G75*
G02*
X140212500Y-70962500I-250000J0D01*
G01*
X139312500Y-70962500D01*
G75*
G02*
X139062500Y-70712500I0J250000D01*
G01*
X139062500Y-70187500D01*
G75*
G02*
X139312500Y-69937500I250000J0D01*
G01*
G37*
G36*
G01*
X140212500Y-104462500D02*
X139312500Y-104462500D01*
G75*
G02*
X139062500Y-104212500I0J250000D01*
G01*
X139062500Y-103687500D01*
G75*
G02*
X139312500Y-103437500I250000J0D01*
G01*
X140212500Y-103437500D01*
G75*
G02*
X140462500Y-103687500I0J-250000D01*
G01*
X140462500Y-104212500D01*
G75*
G02*
X140212500Y-104462500I-250000J0D01*
G01*
G37*
G36*
G01*
X140212500Y-102637500D02*
X139312500Y-102637500D01*
G75*
G02*
X139062500Y-102387500I0J250000D01*
G01*
X139062500Y-101862500D01*
G75*
G02*
X139312500Y-101612500I250000J0D01*
G01*
X140212500Y-101612500D01*
G75*
G02*
X140462500Y-101862500I0J-250000D01*
G01*
X140462500Y-102387500D01*
G75*
G02*
X140212500Y-102637500I-250000J0D01*
G01*
G37*
M02*
