G04 #@! TF.GenerationSoftware,KiCad,Pcbnew,6.0.10+dfsg-1~bpo11+1*
G04 #@! TF.ProjectId,project,70726f6a-6563-4742-9e6b-696361645f70,rev?*
G04 #@! TF.SameCoordinates,Original*
G04 #@! TF.FileFunction,Soldermask,Top*
G04 #@! TF.FilePolarity,Negative*
%FSLAX46Y46*%
G04 Gerber Fmt 4.6, Leading zero omitted, Abs format (unit mm)*
%MOMM*%
%LPD*%
G01*
G04 APERTURE LIST*
G04 #@! TA.AperFunction,Profile*
%ADD10C,0.100000*%
G04 #@! TD*
%ADD11C,1.552000*%
%ADD12C,5.600000*%
%ADD13C,1.700000*%
%ADD14R,1.000000X1.700000*%
%ADD15R,1.000000X1.500000*%
%ADD16C,2.200000*%
G04 APERTURE END LIST*
D10*
X167262500Y-129537500D02*
X167262500Y-69537500D01*
X164762500Y-67037500D02*
X129762500Y-67037500D01*
X164762500Y-132037500D02*
G75*
G03*
X167262500Y-129537500I0J2500000D01*
G01*
X127262500Y-129537500D02*
G75*
G03*
X129762500Y-132037500I2500000J0D01*
G01*
X167262500Y-69537500D02*
G75*
G03*
X164762500Y-67037500I-2500000J0D01*
G01*
X164762500Y-132037500D02*
X129762500Y-132037500D01*
X127262500Y-69537500D02*
X127262500Y-129537500D01*
X129762500Y-67037500D02*
G75*
G03*
X127262500Y-69537500I0J-2500000D01*
G01*
G36*
G01*
X155687500Y-102562500D02*
X155687500Y-103512500D01*
G75*
G02*
X155437500Y-103762500I-250000J0D01*
G01*
X154762500Y-103762500D01*
G75*
G02*
X154512500Y-103512500I0J250000D01*
G01*
X154512500Y-102562500D01*
G75*
G02*
X154762500Y-102312500I250000J0D01*
G01*
X155437500Y-102312500D01*
G75*
G02*
X155687500Y-102562500I0J-250000D01*
G01*
G37*
G36*
G01*
X153612500Y-102562500D02*
X153612500Y-103512500D01*
G75*
G02*
X153362500Y-103762500I-250000J0D01*
G01*
X152687500Y-103762500D01*
G75*
G02*
X152437500Y-103512500I0J250000D01*
G01*
X152437500Y-102562500D01*
G75*
G02*
X152687500Y-102312500I250000J0D01*
G01*
X153362500Y-102312500D01*
G75*
G02*
X153612500Y-102562500I0J-250000D01*
G01*
G37*
G36*
G01*
X129312500Y-111612500D02*
X130212500Y-111612500D01*
G75*
G02*
X130462500Y-111862500I0J-250000D01*
G01*
X130462500Y-112387500D01*
G75*
G02*
X130212500Y-112637500I-250000J0D01*
G01*
X129312500Y-112637500D01*
G75*
G02*
X129062500Y-112387500I0J250000D01*
G01*
X129062500Y-111862500D01*
G75*
G02*
X129312500Y-111612500I250000J0D01*
G01*
G37*
G36*
G01*
X129312500Y-113437500D02*
X130212500Y-113437500D01*
G75*
G02*
X130462500Y-113687500I0J-250000D01*
G01*
X130462500Y-114212500D01*
G75*
G02*
X130212500Y-114462500I-250000J0D01*
G01*
X129312500Y-114462500D01*
G75*
G02*
X129062500Y-114212500I0J250000D01*
G01*
X129062500Y-113687500D01*
G75*
G02*
X129312500Y-113437500I250000J0D01*
G01*
G37*
D11*
X134262500Y-77037500D03*
G36*
G01*
X134787500Y-124612500D02*
X135737500Y-124612500D01*
G75*
G02*
X135987500Y-124862500I0J-250000D01*
G01*
X135987500Y-125537500D01*
G75*
G02*
X135737500Y-125787500I-250000J0D01*
G01*
X134787500Y-125787500D01*
G75*
G02*
X134537500Y-125537500I0J250000D01*
G01*
X134537500Y-124862500D01*
G75*
G02*
X134787500Y-124612500I250000J0D01*
G01*
G37*
G36*
G01*
X134787500Y-126687500D02*
X135737500Y-126687500D01*
G75*
G02*
X135987500Y-126937500I0J-250000D01*
G01*
X135987500Y-127612500D01*
G75*
G02*
X135737500Y-127862500I-250000J0D01*
G01*
X134787500Y-127862500D01*
G75*
G02*
X134537500Y-127612500I0J250000D01*
G01*
X134537500Y-126937500D01*
G75*
G02*
X134787500Y-126687500I250000J0D01*
G01*
G37*
G36*
G01*
X138837500Y-93487500D02*
X138837500Y-92587500D01*
G75*
G02*
X139087500Y-92337500I250000J0D01*
G01*
X139612500Y-92337500D01*
G75*
G02*
X139862500Y-92587500I0J-250000D01*
G01*
X139862500Y-93487500D01*
G75*
G02*
X139612500Y-93737500I-250000J0D01*
G01*
X139087500Y-93737500D01*
G75*
G02*
X138837500Y-93487500I0J250000D01*
G01*
G37*
G36*
G01*
X140662500Y-93487500D02*
X140662500Y-92587500D01*
G75*
G02*
X140912500Y-92337500I250000J0D01*
G01*
X141437500Y-92337500D01*
G75*
G02*
X141687500Y-92587500I0J-250000D01*
G01*
X141687500Y-93487500D01*
G75*
G02*
X141437500Y-93737500I-250000J0D01*
G01*
X140912500Y-93737500D01*
G75*
G02*
X140662500Y-93487500I0J250000D01*
G01*
G37*
G36*
G01*
X155687500Y-100587500D02*
X155687500Y-101487500D01*
G75*
G02*
X155437500Y-101737500I-250000J0D01*
G01*
X154912500Y-101737500D01*
G75*
G02*
X154662500Y-101487500I0J250000D01*
G01*
X154662500Y-100587500D01*
G75*
G02*
X154912500Y-100337500I250000J0D01*
G01*
X155437500Y-100337500D01*
G75*
G02*
X155687500Y-100587500I0J-250000D01*
G01*
G37*
G36*
G01*
X153862500Y-100587500D02*
X153862500Y-101487500D01*
G75*
G02*
X153612500Y-101737500I-250000J0D01*
G01*
X153087500Y-101737500D01*
G75*
G02*
X152837500Y-101487500I0J250000D01*
G01*
X152837500Y-100587500D01*
G75*
G02*
X153087500Y-100337500I250000J0D01*
G01*
X153612500Y-100337500D01*
G75*
G02*
X153862500Y-100587500I0J-250000D01*
G01*
G37*
G36*
G01*
X138837500Y-95487500D02*
X138837500Y-94587500D01*
G75*
G02*
X139087500Y-94337500I250000J0D01*
G01*
X139612500Y-94337500D01*
G75*
G02*
X139862500Y-94587500I0J-250000D01*
G01*
X139862500Y-95487500D01*
G75*
G02*
X139612500Y-95737500I-250000J0D01*
G01*
X139087500Y-95737500D01*
G75*
G02*
X138837500Y-95487500I0J250000D01*
G01*
G37*
G36*
G01*
X140662500Y-95487500D02*
X140662500Y-94587500D01*
G75*
G02*
X140912500Y-94337500I250000J0D01*
G01*
X141437500Y-94337500D01*
G75*
G02*
X141687500Y-94587500I0J-250000D01*
G01*
X141687500Y-95487500D01*
G75*
G02*
X141437500Y-95737500I-250000J0D01*
G01*
X140912500Y-95737500D01*
G75*
G02*
X140662500Y-95487500I0J250000D01*
G01*
G37*
G36*
G01*
X155687500Y-70587500D02*
X155687500Y-71487500D01*
G75*
G02*
X155437500Y-71737500I-250000J0D01*
G01*
X154912500Y-71737500D01*
G75*
G02*
X154662500Y-71487500I0J250000D01*
G01*
X154662500Y-70587500D01*
G75*
G02*
X154912500Y-70337500I250000J0D01*
G01*
X155437500Y-70337500D01*
G75*
G02*
X155687500Y-70587500I0J-250000D01*
G01*
G37*
G36*
G01*
X153862500Y-70587500D02*
X153862500Y-71487500D01*
G75*
G02*
X153612500Y-71737500I-250000J0D01*
G01*
X153087500Y-71737500D01*
G75*
G02*
X152837500Y-71487500I0J250000D01*
G01*
X152837500Y-70587500D01*
G75*
G02*
X153087500Y-70337500I250000J0D01*
G01*
X153612500Y-70337500D01*
G75*
G02*
X153862500Y-70587500I0J-250000D01*
G01*
G37*
G36*
G01*
X154387500Y-82412500D02*
X155337500Y-82412500D01*
G75*
G02*
X155587500Y-82662500I0J-250000D01*
G01*
X155587500Y-83337500D01*
G75*
G02*
X155337500Y-83587500I-250000J0D01*
G01*
X154387500Y-83587500D01*
G75*
G02*
X154137500Y-83337500I0J250000D01*
G01*
X154137500Y-82662500D01*
G75*
G02*
X154387500Y-82412500I250000J0D01*
G01*
G37*
G36*
G01*
X154387500Y-84487500D02*
X155337500Y-84487500D01*
G75*
G02*
X155587500Y-84737500I0J-250000D01*
G01*
X155587500Y-85412500D01*
G75*
G02*
X155337500Y-85662500I-250000J0D01*
G01*
X154387500Y-85662500D01*
G75*
G02*
X154137500Y-85412500I0J250000D01*
G01*
X154137500Y-84737500D01*
G75*
G02*
X154387500Y-84487500I250000J0D01*
G01*
G37*
D12*
X163762500Y-128537500D03*
G36*
G01*
X138837500Y-85487500D02*
X138837500Y-84587500D01*
G75*
G02*
X139087500Y-84337500I250000J0D01*
G01*
X139612500Y-84337500D01*
G75*
G02*
X139862500Y-84587500I0J-250000D01*
G01*
X139862500Y-85487500D01*
G75*
G02*
X139612500Y-85737500I-250000J0D01*
G01*
X139087500Y-85737500D01*
G75*
G02*
X138837500Y-85487500I0J250000D01*
G01*
G37*
G36*
G01*
X140662500Y-85487500D02*
X140662500Y-84587500D01*
G75*
G02*
X140912500Y-84337500I250000J0D01*
G01*
X141437500Y-84337500D01*
G75*
G02*
X141687500Y-84587500I0J-250000D01*
G01*
X141687500Y-85487500D01*
G75*
G02*
X141437500Y-85737500I-250000J0D01*
G01*
X140912500Y-85737500D01*
G75*
G02*
X140662500Y-85487500I0J250000D01*
G01*
G37*
G36*
G01*
X157262500Y-129537500D02*
X157262500Y-130537500D01*
G75*
G02*
X156762500Y-131037500I-500000J0D01*
G01*
X154262500Y-131037500D01*
G75*
G02*
X153762500Y-130537500I0J500000D01*
G01*
X153762500Y-129537500D01*
G75*
G02*
X154262500Y-129037500I500000J0D01*
G01*
X156762500Y-129037500D01*
G75*
G02*
X157262500Y-129537500I0J-500000D01*
G01*
G37*
G36*
G01*
X157262500Y-126997500D02*
X157262500Y-127997500D01*
G75*
G02*
X156762500Y-128497500I-500000J0D01*
G01*
X154262500Y-128497500D01*
G75*
G02*
X153762500Y-127997500I0J500000D01*
G01*
X153762500Y-126997500D01*
G75*
G02*
X154262500Y-126497500I500000J0D01*
G01*
X156762500Y-126497500D01*
G75*
G02*
X157262500Y-126997500I0J-500000D01*
G01*
G37*
G36*
G01*
X157262500Y-124457500D02*
X157262500Y-125457500D01*
G75*
G02*
X156762500Y-125957500I-500000J0D01*
G01*
X154262500Y-125957500D01*
G75*
G02*
X153762500Y-125457500I0J500000D01*
G01*
X153762500Y-124457500D01*
G75*
G02*
X154262500Y-123957500I500000J0D01*
G01*
X156762500Y-123957500D01*
G75*
G02*
X157262500Y-124457500I0J-500000D01*
G01*
G37*
G36*
G01*
X157262500Y-121917500D02*
X157262500Y-122917500D01*
G75*
G02*
X156762500Y-123417500I-500000J0D01*
G01*
X154262500Y-123417500D01*
G75*
G02*
X153762500Y-122917500I0J500000D01*
G01*
X153762500Y-121917500D01*
G75*
G02*
X154262500Y-121417500I500000J0D01*
G01*
X156762500Y-121417500D01*
G75*
G02*
X157262500Y-121917500I0J-500000D01*
G01*
G37*
G36*
G01*
X157262500Y-119377500D02*
X157262500Y-120377500D01*
G75*
G02*
X156762500Y-120877500I-500000J0D01*
G01*
X154262500Y-120877500D01*
G75*
G02*
X153762500Y-120377500I0J500000D01*
G01*
X153762500Y-119377500D01*
G75*
G02*
X154262500Y-118877500I500000J0D01*
G01*
X156762500Y-118877500D01*
G75*
G02*
X157262500Y-119377500I0J-500000D01*
G01*
G37*
G36*
G01*
X157262500Y-116837500D02*
X157262500Y-117837500D01*
G75*
G02*
X156762500Y-118337500I-500000J0D01*
G01*
X154262500Y-118337500D01*
G75*
G02*
X153762500Y-117837500I0J500000D01*
G01*
X153762500Y-116837500D01*
G75*
G02*
X154262500Y-116337500I500000J0D01*
G01*
X156762500Y-116337500D01*
G75*
G02*
X157262500Y-116837500I0J-500000D01*
G01*
G37*
G36*
G01*
X157262500Y-114297500D02*
X157262500Y-115297500D01*
G75*
G02*
X156762500Y-115797500I-500000J0D01*
G01*
X154262500Y-115797500D01*
G75*
G02*
X153762500Y-115297500I0J500000D01*
G01*
X153762500Y-114297500D01*
G75*
G02*
X154262500Y-113797500I500000J0D01*
G01*
X156762500Y-113797500D01*
G75*
G02*
X157262500Y-114297500I0J-500000D01*
G01*
G37*
G36*
G01*
X157262500Y-111757500D02*
X157262500Y-112757500D01*
G75*
G02*
X156762500Y-113257500I-500000J0D01*
G01*
X154262500Y-113257500D01*
G75*
G02*
X153762500Y-112757500I0J500000D01*
G01*
X153762500Y-111757500D01*
G75*
G02*
X154262500Y-111257500I500000J0D01*
G01*
X156762500Y-111257500D01*
G75*
G02*
X157262500Y-111757500I0J-500000D01*
G01*
G37*
G36*
G01*
X140752500Y-111757500D02*
X140752500Y-112757500D01*
G75*
G02*
X140252500Y-113257500I-500000J0D01*
G01*
X137752500Y-113257500D01*
G75*
G02*
X137252500Y-112757500I0J500000D01*
G01*
X137252500Y-111757500D01*
G75*
G02*
X137752500Y-111257500I500000J0D01*
G01*
X140252500Y-111257500D01*
G75*
G02*
X140752500Y-111757500I0J-500000D01*
G01*
G37*
G36*
G01*
X140752500Y-114297500D02*
X140752500Y-115297500D01*
G75*
G02*
X140252500Y-115797500I-500000J0D01*
G01*
X137752500Y-115797500D01*
G75*
G02*
X137252500Y-115297500I0J500000D01*
G01*
X137252500Y-114297500D01*
G75*
G02*
X137752500Y-113797500I500000J0D01*
G01*
X140252500Y-113797500D01*
G75*
G02*
X140752500Y-114297500I0J-500000D01*
G01*
G37*
G36*
G01*
X140752500Y-116837500D02*
X140752500Y-117837500D01*
G75*
G02*
X140252500Y-118337500I-500000J0D01*
G01*
X137752500Y-118337500D01*
G75*
G02*
X137252500Y-117837500I0J500000D01*
G01*
X137252500Y-116837500D01*
G75*
G02*
X137752500Y-116337500I500000J0D01*
G01*
X140252500Y-116337500D01*
G75*
G02*
X140752500Y-116837500I0J-500000D01*
G01*
G37*
G36*
G01*
X140752500Y-119377500D02*
X140752500Y-120377500D01*
G75*
G02*
X140252500Y-120877500I-500000J0D01*
G01*
X137752500Y-120877500D01*
G75*
G02*
X137252500Y-120377500I0J500000D01*
G01*
X137252500Y-119377500D01*
G75*
G02*
X137752500Y-118877500I500000J0D01*
G01*
X140252500Y-118877500D01*
G75*
G02*
X140752500Y-119377500I0J-500000D01*
G01*
G37*
G36*
G01*
X140752500Y-121917500D02*
X140752500Y-122917500D01*
G75*
G02*
X140252500Y-123417500I-500000J0D01*
G01*
X137752500Y-123417500D01*
G75*
G02*
X137252500Y-122917500I0J500000D01*
G01*
X137252500Y-121917500D01*
G75*
G02*
X137752500Y-121417500I500000J0D01*
G01*
X140252500Y-121417500D01*
G75*
G02*
X140752500Y-121917500I0J-500000D01*
G01*
G37*
G36*
G01*
X140752500Y-124457500D02*
X140752500Y-125457500D01*
G75*
G02*
X140252500Y-125957500I-500000J0D01*
G01*
X137752500Y-125957500D01*
G75*
G02*
X137252500Y-125457500I0J500000D01*
G01*
X137252500Y-124457500D01*
G75*
G02*
X137752500Y-123957500I500000J0D01*
G01*
X140252500Y-123957500D01*
G75*
G02*
X140752500Y-124457500I0J-500000D01*
G01*
G37*
G36*
G01*
X140752500Y-126997500D02*
X140752500Y-127997500D01*
G75*
G02*
X140252500Y-128497500I-500000J0D01*
G01*
X137752500Y-128497500D01*
G75*
G02*
X137252500Y-127997500I0J500000D01*
G01*
X137252500Y-126997500D01*
G75*
G02*
X137752500Y-126497500I500000J0D01*
G01*
X140252500Y-126497500D01*
G75*
G02*
X140752500Y-126997500I0J-500000D01*
G01*
G37*
G36*
G01*
X140752500Y-129537500D02*
X140752500Y-130537500D01*
G75*
G02*
X140252500Y-131037500I-500000J0D01*
G01*
X137752500Y-131037500D01*
G75*
G02*
X137252500Y-130537500I0J500000D01*
G01*
X137252500Y-129537500D01*
G75*
G02*
X137752500Y-129037500I500000J0D01*
G01*
X140252500Y-129037500D01*
G75*
G02*
X140752500Y-129537500I0J-500000D01*
G01*
G37*
G36*
G01*
X155687500Y-88587500D02*
X155687500Y-89487500D01*
G75*
G02*
X155437500Y-89737500I-250000J0D01*
G01*
X154912500Y-89737500D01*
G75*
G02*
X154662500Y-89487500I0J250000D01*
G01*
X154662500Y-88587500D01*
G75*
G02*
X154912500Y-88337500I250000J0D01*
G01*
X155437500Y-88337500D01*
G75*
G02*
X155687500Y-88587500I0J-250000D01*
G01*
G37*
G36*
G01*
X153862500Y-88587500D02*
X153862500Y-89487500D01*
G75*
G02*
X153612500Y-89737500I-250000J0D01*
G01*
X153087500Y-89737500D01*
G75*
G02*
X152837500Y-89487500I0J250000D01*
G01*
X152837500Y-88587500D01*
G75*
G02*
X153087500Y-88337500I250000J0D01*
G01*
X153612500Y-88337500D01*
G75*
G02*
X153862500Y-88587500I0J-250000D01*
G01*
G37*
G36*
G01*
X138837500Y-101487500D02*
X138837500Y-100587500D01*
G75*
G02*
X139087500Y-100337500I250000J0D01*
G01*
X139612500Y-100337500D01*
G75*
G02*
X139862500Y-100587500I0J-250000D01*
G01*
X139862500Y-101487500D01*
G75*
G02*
X139612500Y-101737500I-250000J0D01*
G01*
X139087500Y-101737500D01*
G75*
G02*
X138837500Y-101487500I0J250000D01*
G01*
G37*
G36*
G01*
X140662500Y-101487500D02*
X140662500Y-100587500D01*
G75*
G02*
X140912500Y-100337500I250000J0D01*
G01*
X141437500Y-100337500D01*
G75*
G02*
X141687500Y-100587500I0J-250000D01*
G01*
X141687500Y-101487500D01*
G75*
G02*
X141437500Y-101737500I-250000J0D01*
G01*
X140912500Y-101737500D01*
G75*
G02*
X140662500Y-101487500I0J250000D01*
G01*
G37*
G36*
G01*
X155687500Y-80587500D02*
X155687500Y-81487500D01*
G75*
G02*
X155437500Y-81737500I-250000J0D01*
G01*
X154912500Y-81737500D01*
G75*
G02*
X154662500Y-81487500I0J250000D01*
G01*
X154662500Y-80587500D01*
G75*
G02*
X154912500Y-80337500I250000J0D01*
G01*
X155437500Y-80337500D01*
G75*
G02*
X155687500Y-80587500I0J-250000D01*
G01*
G37*
G36*
G01*
X153862500Y-80587500D02*
X153862500Y-81487500D01*
G75*
G02*
X153612500Y-81737500I-250000J0D01*
G01*
X153087500Y-81737500D01*
G75*
G02*
X152837500Y-81487500I0J250000D01*
G01*
X152837500Y-80587500D01*
G75*
G02*
X153087500Y-80337500I250000J0D01*
G01*
X153612500Y-80337500D01*
G75*
G02*
X153862500Y-80587500I0J-250000D01*
G01*
G37*
D13*
X164462500Y-92037500D03*
X159462500Y-92037500D03*
G36*
G01*
X161262500Y-93937500D02*
X162462500Y-93937500D01*
G75*
G02*
X162612500Y-94087500I0J-150000D01*
G01*
X162612500Y-95787500D01*
G75*
G02*
X162462500Y-95937500I-150000J0D01*
G01*
X161262500Y-95937500D01*
G75*
G02*
X161112500Y-95787500I0J150000D01*
G01*
X161112500Y-94087500D01*
G75*
G02*
X161262500Y-93937500I150000J0D01*
G01*
G37*
G36*
G01*
X157562500Y-93937500D02*
X158762500Y-93937500D01*
G75*
G02*
X158912500Y-94087500I0J-150000D01*
G01*
X158912500Y-95787500D01*
G75*
G02*
X158762500Y-95937500I-150000J0D01*
G01*
X157562500Y-95937500D01*
G75*
G02*
X157412500Y-95787500I0J150000D01*
G01*
X157412500Y-94087500D01*
G75*
G02*
X157562500Y-93937500I150000J0D01*
G01*
G37*
G36*
G01*
X164962500Y-88137500D02*
X166162500Y-88137500D01*
G75*
G02*
X166312500Y-88287500I0J-150000D01*
G01*
X166312500Y-89987500D01*
G75*
G02*
X166162500Y-90137500I-150000J0D01*
G01*
X164962500Y-90137500D01*
G75*
G02*
X164812500Y-89987500I0J150000D01*
G01*
X164812500Y-88287500D01*
G75*
G02*
X164962500Y-88137500I150000J0D01*
G01*
G37*
G36*
G01*
X164962500Y-93937500D02*
X166162500Y-93937500D01*
G75*
G02*
X166312500Y-94087500I0J-150000D01*
G01*
X166312500Y-95787500D01*
G75*
G02*
X166162500Y-95937500I-150000J0D01*
G01*
X164962500Y-95937500D01*
G75*
G02*
X164812500Y-95787500I0J150000D01*
G01*
X164812500Y-94087500D01*
G75*
G02*
X164962500Y-93937500I150000J0D01*
G01*
G37*
G36*
G01*
X161262500Y-88137500D02*
X162462500Y-88137500D01*
G75*
G02*
X162612500Y-88287500I0J-150000D01*
G01*
X162612500Y-89987500D01*
G75*
G02*
X162462500Y-90137500I-150000J0D01*
G01*
X161262500Y-90137500D01*
G75*
G02*
X161112500Y-89987500I0J150000D01*
G01*
X161112500Y-88287500D01*
G75*
G02*
X161262500Y-88137500I150000J0D01*
G01*
G37*
G36*
G01*
X157562500Y-88137500D02*
X158762500Y-88137500D01*
G75*
G02*
X158912500Y-88287500I0J-150000D01*
G01*
X158912500Y-89987500D01*
G75*
G02*
X158762500Y-90137500I-150000J0D01*
G01*
X157562500Y-90137500D01*
G75*
G02*
X157412500Y-89987500I0J150000D01*
G01*
X157412500Y-88287500D01*
G75*
G02*
X157562500Y-88137500I150000J0D01*
G01*
G37*
X135062500Y-82037500D03*
X130062500Y-82037500D03*
G36*
G01*
X133262500Y-80137500D02*
X132062500Y-80137500D01*
G75*
G02*
X131912500Y-79987500I0J150000D01*
G01*
X131912500Y-78287500D01*
G75*
G02*
X132062500Y-78137500I150000J0D01*
G01*
X133262500Y-78137500D01*
G75*
G02*
X133412500Y-78287500I0J-150000D01*
G01*
X133412500Y-79987500D01*
G75*
G02*
X133262500Y-80137500I-150000J0D01*
G01*
G37*
G36*
G01*
X136962500Y-80137500D02*
X135762500Y-80137500D01*
G75*
G02*
X135612500Y-79987500I0J150000D01*
G01*
X135612500Y-78287500D01*
G75*
G02*
X135762500Y-78137500I150000J0D01*
G01*
X136962500Y-78137500D01*
G75*
G02*
X137112500Y-78287500I0J-150000D01*
G01*
X137112500Y-79987500D01*
G75*
G02*
X136962500Y-80137500I-150000J0D01*
G01*
G37*
G36*
G01*
X129562500Y-85937500D02*
X128362500Y-85937500D01*
G75*
G02*
X128212500Y-85787500I0J150000D01*
G01*
X128212500Y-84087500D01*
G75*
G02*
X128362500Y-83937500I150000J0D01*
G01*
X129562500Y-83937500D01*
G75*
G02*
X129712500Y-84087500I0J-150000D01*
G01*
X129712500Y-85787500D01*
G75*
G02*
X129562500Y-85937500I-150000J0D01*
G01*
G37*
G36*
G01*
X129562500Y-80137500D02*
X128362500Y-80137500D01*
G75*
G02*
X128212500Y-79987500I0J150000D01*
G01*
X128212500Y-78287500D01*
G75*
G02*
X128362500Y-78137500I150000J0D01*
G01*
X129562500Y-78137500D01*
G75*
G02*
X129712500Y-78287500I0J-150000D01*
G01*
X129712500Y-79987500D01*
G75*
G02*
X129562500Y-80137500I-150000J0D01*
G01*
G37*
G36*
G01*
X133262500Y-85937500D02*
X132062500Y-85937500D01*
G75*
G02*
X131912500Y-85787500I0J150000D01*
G01*
X131912500Y-84087500D01*
G75*
G02*
X132062500Y-83937500I150000J0D01*
G01*
X133262500Y-83937500D01*
G75*
G02*
X133412500Y-84087500I0J-150000D01*
G01*
X133412500Y-85787500D01*
G75*
G02*
X133262500Y-85937500I-150000J0D01*
G01*
G37*
G36*
G01*
X136962500Y-85937500D02*
X135762500Y-85937500D01*
G75*
G02*
X135612500Y-85787500I0J150000D01*
G01*
X135612500Y-84087500D01*
G75*
G02*
X135762500Y-83937500I150000J0D01*
G01*
X136962500Y-83937500D01*
G75*
G02*
X137112500Y-84087500I0J-150000D01*
G01*
X137112500Y-85787500D01*
G75*
G02*
X136962500Y-85937500I-150000J0D01*
G01*
G37*
X164462500Y-72037500D03*
X159462500Y-72037500D03*
G36*
G01*
X161262500Y-73937500D02*
X162462500Y-73937500D01*
G75*
G02*
X162612500Y-74087500I0J-150000D01*
G01*
X162612500Y-75787500D01*
G75*
G02*
X162462500Y-75937500I-150000J0D01*
G01*
X161262500Y-75937500D01*
G75*
G02*
X161112500Y-75787500I0J150000D01*
G01*
X161112500Y-74087500D01*
G75*
G02*
X161262500Y-73937500I150000J0D01*
G01*
G37*
G36*
G01*
X157562500Y-73937500D02*
X158762500Y-73937500D01*
G75*
G02*
X158912500Y-74087500I0J-150000D01*
G01*
X158912500Y-75787500D01*
G75*
G02*
X158762500Y-75937500I-150000J0D01*
G01*
X157562500Y-75937500D01*
G75*
G02*
X157412500Y-75787500I0J150000D01*
G01*
X157412500Y-74087500D01*
G75*
G02*
X157562500Y-73937500I150000J0D01*
G01*
G37*
G36*
G01*
X164962500Y-68137500D02*
X166162500Y-68137500D01*
G75*
G02*
X166312500Y-68287500I0J-150000D01*
G01*
X166312500Y-69987500D01*
G75*
G02*
X166162500Y-70137500I-150000J0D01*
G01*
X164962500Y-70137500D01*
G75*
G02*
X164812500Y-69987500I0J150000D01*
G01*
X164812500Y-68287500D01*
G75*
G02*
X164962500Y-68137500I150000J0D01*
G01*
G37*
G36*
G01*
X164962500Y-73937500D02*
X166162500Y-73937500D01*
G75*
G02*
X166312500Y-74087500I0J-150000D01*
G01*
X166312500Y-75787500D01*
G75*
G02*
X166162500Y-75937500I-150000J0D01*
G01*
X164962500Y-75937500D01*
G75*
G02*
X164812500Y-75787500I0J150000D01*
G01*
X164812500Y-74087500D01*
G75*
G02*
X164962500Y-73937500I150000J0D01*
G01*
G37*
G36*
G01*
X161262500Y-68137500D02*
X162462500Y-68137500D01*
G75*
G02*
X162612500Y-68287500I0J-150000D01*
G01*
X162612500Y-69987500D01*
G75*
G02*
X162462500Y-70137500I-150000J0D01*
G01*
X161262500Y-70137500D01*
G75*
G02*
X161112500Y-69987500I0J150000D01*
G01*
X161112500Y-68287500D01*
G75*
G02*
X161262500Y-68137500I150000J0D01*
G01*
G37*
G36*
G01*
X157562500Y-68137500D02*
X158762500Y-68137500D01*
G75*
G02*
X158912500Y-68287500I0J-150000D01*
G01*
X158912500Y-69987500D01*
G75*
G02*
X158762500Y-70137500I-150000J0D01*
G01*
X157562500Y-70137500D01*
G75*
G02*
X157412500Y-69987500I0J150000D01*
G01*
X157412500Y-68287500D01*
G75*
G02*
X157562500Y-68137500I150000J0D01*
G01*
G37*
D12*
X130762500Y-128537500D03*
G36*
G01*
X162037500Y-114487500D02*
X162037500Y-113587500D01*
G75*
G02*
X162287500Y-113337500I250000J0D01*
G01*
X162812500Y-113337500D01*
G75*
G02*
X163062500Y-113587500I0J-250000D01*
G01*
X163062500Y-114487500D01*
G75*
G02*
X162812500Y-114737500I-250000J0D01*
G01*
X162287500Y-114737500D01*
G75*
G02*
X162037500Y-114487500I0J250000D01*
G01*
G37*
G36*
G01*
X163862500Y-114487500D02*
X163862500Y-113587500D01*
G75*
G02*
X164112500Y-113337500I250000J0D01*
G01*
X164637500Y-113337500D01*
G75*
G02*
X164887500Y-113587500I0J-250000D01*
G01*
X164887500Y-114487500D01*
G75*
G02*
X164637500Y-114737500I-250000J0D01*
G01*
X164112500Y-114737500D01*
G75*
G02*
X163862500Y-114487500I0J250000D01*
G01*
G37*
G36*
G01*
X155687500Y-78587500D02*
X155687500Y-79487500D01*
G75*
G02*
X155437500Y-79737500I-250000J0D01*
G01*
X154912500Y-79737500D01*
G75*
G02*
X154662500Y-79487500I0J250000D01*
G01*
X154662500Y-78587500D01*
G75*
G02*
X154912500Y-78337500I250000J0D01*
G01*
X155437500Y-78337500D01*
G75*
G02*
X155687500Y-78587500I0J-250000D01*
G01*
G37*
G36*
G01*
X153862500Y-78587500D02*
X153862500Y-79487500D01*
G75*
G02*
X153612500Y-79737500I-250000J0D01*
G01*
X153087500Y-79737500D01*
G75*
G02*
X152837500Y-79487500I0J250000D01*
G01*
X152837500Y-78587500D01*
G75*
G02*
X153087500Y-78337500I250000J0D01*
G01*
X153612500Y-78337500D01*
G75*
G02*
X153862500Y-78587500I0J-250000D01*
G01*
G37*
G36*
G01*
X140137500Y-91662500D02*
X139187500Y-91662500D01*
G75*
G02*
X138937500Y-91412500I0J250000D01*
G01*
X138937500Y-90737500D01*
G75*
G02*
X139187500Y-90487500I250000J0D01*
G01*
X140137500Y-90487500D01*
G75*
G02*
X140387500Y-90737500I0J-250000D01*
G01*
X140387500Y-91412500D01*
G75*
G02*
X140137500Y-91662500I-250000J0D01*
G01*
G37*
G36*
G01*
X140137500Y-89587500D02*
X139187500Y-89587500D01*
G75*
G02*
X138937500Y-89337500I0J250000D01*
G01*
X138937500Y-88662500D01*
G75*
G02*
X139187500Y-88412500I250000J0D01*
G01*
X140137500Y-88412500D01*
G75*
G02*
X140387500Y-88662500I0J-250000D01*
G01*
X140387500Y-89337500D01*
G75*
G02*
X140137500Y-89587500I-250000J0D01*
G01*
G37*
G36*
G01*
X140137500Y-81662500D02*
X139187500Y-81662500D01*
G75*
G02*
X138937500Y-81412500I0J250000D01*
G01*
X138937500Y-80737500D01*
G75*
G02*
X139187500Y-80487500I250000J0D01*
G01*
X140137500Y-80487500D01*
G75*
G02*
X140387500Y-80737500I0J-250000D01*
G01*
X140387500Y-81412500D01*
G75*
G02*
X140137500Y-81662500I-250000J0D01*
G01*
G37*
G36*
G01*
X140137500Y-79587500D02*
X139187500Y-79587500D01*
G75*
G02*
X138937500Y-79337500I0J250000D01*
G01*
X138937500Y-78662500D01*
G75*
G02*
X139187500Y-78412500I250000J0D01*
G01*
X140137500Y-78412500D01*
G75*
G02*
X140387500Y-78662500I0J-250000D01*
G01*
X140387500Y-79337500D01*
G75*
G02*
X140137500Y-79587500I-250000J0D01*
G01*
G37*
D14*
X130362500Y-116887500D03*
X130362500Y-123187500D03*
X134162500Y-116887500D03*
X134162500Y-123187500D03*
D11*
X142262500Y-130037500D03*
G36*
G01*
X154387500Y-92412500D02*
X155337500Y-92412500D01*
G75*
G02*
X155587500Y-92662500I0J-250000D01*
G01*
X155587500Y-93337500D01*
G75*
G02*
X155337500Y-93587500I-250000J0D01*
G01*
X154387500Y-93587500D01*
G75*
G02*
X154137500Y-93337500I0J250000D01*
G01*
X154137500Y-92662500D01*
G75*
G02*
X154387500Y-92412500I250000J0D01*
G01*
G37*
G36*
G01*
X154387500Y-94487500D02*
X155337500Y-94487500D01*
G75*
G02*
X155587500Y-94737500I0J-250000D01*
G01*
X155587500Y-95412500D01*
G75*
G02*
X155337500Y-95662500I-250000J0D01*
G01*
X154387500Y-95662500D01*
G75*
G02*
X154137500Y-95412500I0J250000D01*
G01*
X154137500Y-94737500D01*
G75*
G02*
X154387500Y-94487500I250000J0D01*
G01*
G37*
D14*
X164162500Y-123187500D03*
X164162500Y-116887500D03*
X160362500Y-123187500D03*
X160362500Y-116887500D03*
G36*
G01*
X140137500Y-72462500D02*
X139187500Y-72462500D01*
G75*
G02*
X138937500Y-72212500I0J250000D01*
G01*
X138937500Y-71537500D01*
G75*
G02*
X139187500Y-71287500I250000J0D01*
G01*
X140137500Y-71287500D01*
G75*
G02*
X140387500Y-71537500I0J-250000D01*
G01*
X140387500Y-72212500D01*
G75*
G02*
X140137500Y-72462500I-250000J0D01*
G01*
G37*
G36*
G01*
X140137500Y-70387500D02*
X139187500Y-70387500D01*
G75*
G02*
X138937500Y-70137500I0J250000D01*
G01*
X138937500Y-69462500D01*
G75*
G02*
X139187500Y-69212500I250000J0D01*
G01*
X140137500Y-69212500D01*
G75*
G02*
X140387500Y-69462500I0J-250000D01*
G01*
X140387500Y-70137500D01*
G75*
G02*
X140137500Y-70387500I-250000J0D01*
G01*
G37*
D13*
X159462500Y-102037500D03*
X164462500Y-102037500D03*
G36*
G01*
X161262500Y-103937500D02*
X162462500Y-103937500D01*
G75*
G02*
X162612500Y-104087500I0J-150000D01*
G01*
X162612500Y-105787500D01*
G75*
G02*
X162462500Y-105937500I-150000J0D01*
G01*
X161262500Y-105937500D01*
G75*
G02*
X161112500Y-105787500I0J150000D01*
G01*
X161112500Y-104087500D01*
G75*
G02*
X161262500Y-103937500I150000J0D01*
G01*
G37*
G36*
G01*
X157562500Y-103937500D02*
X158762500Y-103937500D01*
G75*
G02*
X158912500Y-104087500I0J-150000D01*
G01*
X158912500Y-105787500D01*
G75*
G02*
X158762500Y-105937500I-150000J0D01*
G01*
X157562500Y-105937500D01*
G75*
G02*
X157412500Y-105787500I0J150000D01*
G01*
X157412500Y-104087500D01*
G75*
G02*
X157562500Y-103937500I150000J0D01*
G01*
G37*
G36*
G01*
X164962500Y-98137500D02*
X166162500Y-98137500D01*
G75*
G02*
X166312500Y-98287500I0J-150000D01*
G01*
X166312500Y-99987500D01*
G75*
G02*
X166162500Y-100137500I-150000J0D01*
G01*
X164962500Y-100137500D01*
G75*
G02*
X164812500Y-99987500I0J150000D01*
G01*
X164812500Y-98287500D01*
G75*
G02*
X164962500Y-98137500I150000J0D01*
G01*
G37*
G36*
G01*
X164962500Y-103937500D02*
X166162500Y-103937500D01*
G75*
G02*
X166312500Y-104087500I0J-150000D01*
G01*
X166312500Y-105787500D01*
G75*
G02*
X166162500Y-105937500I-150000J0D01*
G01*
X164962500Y-105937500D01*
G75*
G02*
X164812500Y-105787500I0J150000D01*
G01*
X164812500Y-104087500D01*
G75*
G02*
X164962500Y-103937500I150000J0D01*
G01*
G37*
G36*
G01*
X161262500Y-98137500D02*
X162462500Y-98137500D01*
G75*
G02*
X162612500Y-98287500I0J-150000D01*
G01*
X162612500Y-99987500D01*
G75*
G02*
X162462500Y-100137500I-150000J0D01*
G01*
X161262500Y-100137500D01*
G75*
G02*
X161112500Y-99987500I0J150000D01*
G01*
X161112500Y-98287500D01*
G75*
G02*
X161262500Y-98137500I150000J0D01*
G01*
G37*
G36*
G01*
X157562500Y-98137500D02*
X158762500Y-98137500D01*
G75*
G02*
X158912500Y-98287500I0J-150000D01*
G01*
X158912500Y-99987500D01*
G75*
G02*
X158762500Y-100137500I-150000J0D01*
G01*
X157562500Y-100137500D01*
G75*
G02*
X157412500Y-99987500I0J150000D01*
G01*
X157412500Y-98287500D01*
G75*
G02*
X157562500Y-98137500I150000J0D01*
G01*
G37*
G36*
G01*
X151460436Y-80587500D02*
X151460436Y-81487500D01*
G75*
G02*
X151210436Y-81737500I-250000J0D01*
G01*
X150685436Y-81737500D01*
G75*
G02*
X150435436Y-81487500I0J250000D01*
G01*
X150435436Y-80587500D01*
G75*
G02*
X150685436Y-80337500I250000J0D01*
G01*
X151210436Y-80337500D01*
G75*
G02*
X151460436Y-80587500I0J-250000D01*
G01*
G37*
G36*
G01*
X149635436Y-80587500D02*
X149635436Y-81487500D01*
G75*
G02*
X149385436Y-81737500I-250000J0D01*
G01*
X148860436Y-81737500D01*
G75*
G02*
X148610436Y-81487500I0J250000D01*
G01*
X148610436Y-80587500D01*
G75*
G02*
X148860436Y-80337500I250000J0D01*
G01*
X149385436Y-80337500D01*
G75*
G02*
X149635436Y-80587500I0J-250000D01*
G01*
G37*
G36*
G01*
X155687500Y-98587500D02*
X155687500Y-99487500D01*
G75*
G02*
X155437500Y-99737500I-250000J0D01*
G01*
X154912500Y-99737500D01*
G75*
G02*
X154662500Y-99487500I0J250000D01*
G01*
X154662500Y-98587500D01*
G75*
G02*
X154912500Y-98337500I250000J0D01*
G01*
X155437500Y-98337500D01*
G75*
G02*
X155687500Y-98587500I0J-250000D01*
G01*
G37*
G36*
G01*
X153862500Y-98587500D02*
X153862500Y-99487500D01*
G75*
G02*
X153612500Y-99737500I-250000J0D01*
G01*
X153087500Y-99737500D01*
G75*
G02*
X152837500Y-99487500I0J250000D01*
G01*
X152837500Y-98587500D01*
G75*
G02*
X153087500Y-98337500I250000J0D01*
G01*
X153612500Y-98337500D01*
G75*
G02*
X153862500Y-98587500I0J-250000D01*
G01*
G37*
X130062500Y-102037500D03*
X135062500Y-102037500D03*
G36*
G01*
X133262500Y-100137500D02*
X132062500Y-100137500D01*
G75*
G02*
X131912500Y-99987500I0J150000D01*
G01*
X131912500Y-98287500D01*
G75*
G02*
X132062500Y-98137500I150000J0D01*
G01*
X133262500Y-98137500D01*
G75*
G02*
X133412500Y-98287500I0J-150000D01*
G01*
X133412500Y-99987500D01*
G75*
G02*
X133262500Y-100137500I-150000J0D01*
G01*
G37*
G36*
G01*
X136962500Y-100137500D02*
X135762500Y-100137500D01*
G75*
G02*
X135612500Y-99987500I0J150000D01*
G01*
X135612500Y-98287500D01*
G75*
G02*
X135762500Y-98137500I150000J0D01*
G01*
X136962500Y-98137500D01*
G75*
G02*
X137112500Y-98287500I0J-150000D01*
G01*
X137112500Y-99987500D01*
G75*
G02*
X136962500Y-100137500I-150000J0D01*
G01*
G37*
G36*
G01*
X129562500Y-105937500D02*
X128362500Y-105937500D01*
G75*
G02*
X128212500Y-105787500I0J150000D01*
G01*
X128212500Y-104087500D01*
G75*
G02*
X128362500Y-103937500I150000J0D01*
G01*
X129562500Y-103937500D01*
G75*
G02*
X129712500Y-104087500I0J-150000D01*
G01*
X129712500Y-105787500D01*
G75*
G02*
X129562500Y-105937500I-150000J0D01*
G01*
G37*
G36*
G01*
X129562500Y-100137500D02*
X128362500Y-100137500D01*
G75*
G02*
X128212500Y-99987500I0J150000D01*
G01*
X128212500Y-98287500D01*
G75*
G02*
X128362500Y-98137500I150000J0D01*
G01*
X129562500Y-98137500D01*
G75*
G02*
X129712500Y-98287500I0J-150000D01*
G01*
X129712500Y-99987500D01*
G75*
G02*
X129562500Y-100137500I-150000J0D01*
G01*
G37*
G36*
G01*
X133262500Y-105937500D02*
X132062500Y-105937500D01*
G75*
G02*
X131912500Y-105787500I0J150000D01*
G01*
X131912500Y-104087500D01*
G75*
G02*
X132062500Y-103937500I150000J0D01*
G01*
X133262500Y-103937500D01*
G75*
G02*
X133412500Y-104087500I0J-150000D01*
G01*
X133412500Y-105787500D01*
G75*
G02*
X133262500Y-105937500I-150000J0D01*
G01*
G37*
G36*
G01*
X136962500Y-105937500D02*
X135762500Y-105937500D01*
G75*
G02*
X135612500Y-105787500I0J150000D01*
G01*
X135612500Y-104087500D01*
G75*
G02*
X135762500Y-103937500I150000J0D01*
G01*
X136962500Y-103937500D01*
G75*
G02*
X137112500Y-104087500I0J-150000D01*
G01*
X137112500Y-105787500D01*
G75*
G02*
X136962500Y-105937500I-150000J0D01*
G01*
G37*
X164462500Y-82037500D03*
X159462500Y-82037500D03*
G36*
G01*
X161262500Y-83937500D02*
X162462500Y-83937500D01*
G75*
G02*
X162612500Y-84087500I0J-150000D01*
G01*
X162612500Y-85787500D01*
G75*
G02*
X162462500Y-85937500I-150000J0D01*
G01*
X161262500Y-85937500D01*
G75*
G02*
X161112500Y-85787500I0J150000D01*
G01*
X161112500Y-84087500D01*
G75*
G02*
X161262500Y-83937500I150000J0D01*
G01*
G37*
G36*
G01*
X157562500Y-83937500D02*
X158762500Y-83937500D01*
G75*
G02*
X158912500Y-84087500I0J-150000D01*
G01*
X158912500Y-85787500D01*
G75*
G02*
X158762500Y-85937500I-150000J0D01*
G01*
X157562500Y-85937500D01*
G75*
G02*
X157412500Y-85787500I0J150000D01*
G01*
X157412500Y-84087500D01*
G75*
G02*
X157562500Y-83937500I150000J0D01*
G01*
G37*
G36*
G01*
X164962500Y-78137500D02*
X166162500Y-78137500D01*
G75*
G02*
X166312500Y-78287500I0J-150000D01*
G01*
X166312500Y-79987500D01*
G75*
G02*
X166162500Y-80137500I-150000J0D01*
G01*
X164962500Y-80137500D01*
G75*
G02*
X164812500Y-79987500I0J150000D01*
G01*
X164812500Y-78287500D01*
G75*
G02*
X164962500Y-78137500I150000J0D01*
G01*
G37*
G36*
G01*
X164962500Y-83937500D02*
X166162500Y-83937500D01*
G75*
G02*
X166312500Y-84087500I0J-150000D01*
G01*
X166312500Y-85787500D01*
G75*
G02*
X166162500Y-85937500I-150000J0D01*
G01*
X164962500Y-85937500D01*
G75*
G02*
X164812500Y-85787500I0J150000D01*
G01*
X164812500Y-84087500D01*
G75*
G02*
X164962500Y-83937500I150000J0D01*
G01*
G37*
G36*
G01*
X161262500Y-78137500D02*
X162462500Y-78137500D01*
G75*
G02*
X162612500Y-78287500I0J-150000D01*
G01*
X162612500Y-79987500D01*
G75*
G02*
X162462500Y-80137500I-150000J0D01*
G01*
X161262500Y-80137500D01*
G75*
G02*
X161112500Y-79987500I0J150000D01*
G01*
X161112500Y-78287500D01*
G75*
G02*
X161262500Y-78137500I150000J0D01*
G01*
G37*
G36*
G01*
X157562500Y-78137500D02*
X158762500Y-78137500D01*
G75*
G02*
X158912500Y-78287500I0J-150000D01*
G01*
X158912500Y-79987500D01*
G75*
G02*
X158762500Y-80137500I-150000J0D01*
G01*
X157562500Y-80137500D01*
G75*
G02*
X157412500Y-79987500I0J150000D01*
G01*
X157412500Y-78287500D01*
G75*
G02*
X157562500Y-78137500I150000J0D01*
G01*
G37*
G36*
G01*
X155687500Y-90587500D02*
X155687500Y-91487500D01*
G75*
G02*
X155437500Y-91737500I-250000J0D01*
G01*
X154912500Y-91737500D01*
G75*
G02*
X154662500Y-91487500I0J250000D01*
G01*
X154662500Y-90587500D01*
G75*
G02*
X154912500Y-90337500I250000J0D01*
G01*
X155437500Y-90337500D01*
G75*
G02*
X155687500Y-90587500I0J-250000D01*
G01*
G37*
G36*
G01*
X153862500Y-90587500D02*
X153862500Y-91487500D01*
G75*
G02*
X153612500Y-91737500I-250000J0D01*
G01*
X153087500Y-91737500D01*
G75*
G02*
X152837500Y-91487500I0J250000D01*
G01*
X152837500Y-90587500D01*
G75*
G02*
X153087500Y-90337500I250000J0D01*
G01*
X153612500Y-90337500D01*
G75*
G02*
X153862500Y-90587500I0J-250000D01*
G01*
G37*
G36*
G01*
X138837500Y-76287500D02*
X138837500Y-75387500D01*
G75*
G02*
X139087500Y-75137500I250000J0D01*
G01*
X139612500Y-75137500D01*
G75*
G02*
X139862500Y-75387500I0J-250000D01*
G01*
X139862500Y-76287500D01*
G75*
G02*
X139612500Y-76537500I-250000J0D01*
G01*
X139087500Y-76537500D01*
G75*
G02*
X138837500Y-76287500I0J250000D01*
G01*
G37*
G36*
G01*
X140662500Y-76287500D02*
X140662500Y-75387500D01*
G75*
G02*
X140912500Y-75137500I250000J0D01*
G01*
X141437500Y-75137500D01*
G75*
G02*
X141687500Y-75387500I0J-250000D01*
G01*
X141687500Y-76287500D01*
G75*
G02*
X141437500Y-76537500I-250000J0D01*
G01*
X140912500Y-76537500D01*
G75*
G02*
X140662500Y-76287500I0J250000D01*
G01*
G37*
D12*
X147262500Y-103037500D03*
G36*
X150012500Y-75287500D02*
G01*
X150562500Y-75287500D01*
X150562500Y-75292467D01*
X150642441Y-75293932D01*
X150777756Y-75336207D01*
X150895766Y-75414762D01*
X150986986Y-75523281D01*
X151044081Y-75653040D01*
X151061664Y-75787500D01*
X151062500Y-75787500D01*
X151062500Y-76287500D01*
X151061664Y-76287500D01*
X151062463Y-76293609D01*
X151040652Y-76433686D01*
X150980404Y-76562011D01*
X150886560Y-76668269D01*
X150766665Y-76743917D01*
X150630358Y-76782874D01*
X150562500Y-76782459D01*
X150562500Y-76787500D01*
X150012500Y-76787500D01*
X150012500Y-75287500D01*
G37*
D15*
X149262500Y-76037500D03*
G36*
X147962500Y-76782459D02*
G01*
X147888595Y-76782008D01*
X147752774Y-76741389D01*
X147633812Y-76664282D01*
X147541274Y-76556885D01*
X147482597Y-76427833D01*
X147462500Y-76287500D01*
X147462500Y-75787500D01*
X147462649Y-75775284D01*
X147486169Y-75635483D01*
X147547981Y-75507904D01*
X147643116Y-75402800D01*
X147763926Y-75328623D01*
X147900699Y-75291334D01*
X147962500Y-75292467D01*
X147962500Y-75287500D01*
X148512500Y-75287500D01*
X148512500Y-76787500D01*
X147962500Y-76787500D01*
X147962500Y-76782459D01*
G37*
D13*
X135062500Y-92037500D03*
X130062500Y-92037500D03*
G36*
G01*
X133262500Y-90137500D02*
X132062500Y-90137500D01*
G75*
G02*
X131912500Y-89987500I0J150000D01*
G01*
X131912500Y-88287500D01*
G75*
G02*
X132062500Y-88137500I150000J0D01*
G01*
X133262500Y-88137500D01*
G75*
G02*
X133412500Y-88287500I0J-150000D01*
G01*
X133412500Y-89987500D01*
G75*
G02*
X133262500Y-90137500I-150000J0D01*
G01*
G37*
G36*
G01*
X136962500Y-90137500D02*
X135762500Y-90137500D01*
G75*
G02*
X135612500Y-89987500I0J150000D01*
G01*
X135612500Y-88287500D01*
G75*
G02*
X135762500Y-88137500I150000J0D01*
G01*
X136962500Y-88137500D01*
G75*
G02*
X137112500Y-88287500I0J-150000D01*
G01*
X137112500Y-89987500D01*
G75*
G02*
X136962500Y-90137500I-150000J0D01*
G01*
G37*
G36*
G01*
X129562500Y-95937500D02*
X128362500Y-95937500D01*
G75*
G02*
X128212500Y-95787500I0J150000D01*
G01*
X128212500Y-94087500D01*
G75*
G02*
X128362500Y-93937500I150000J0D01*
G01*
X129562500Y-93937500D01*
G75*
G02*
X129712500Y-94087500I0J-150000D01*
G01*
X129712500Y-95787500D01*
G75*
G02*
X129562500Y-95937500I-150000J0D01*
G01*
G37*
G36*
G01*
X129562500Y-90137500D02*
X128362500Y-90137500D01*
G75*
G02*
X128212500Y-89987500I0J150000D01*
G01*
X128212500Y-88287500D01*
G75*
G02*
X128362500Y-88137500I150000J0D01*
G01*
X129562500Y-88137500D01*
G75*
G02*
X129712500Y-88287500I0J-150000D01*
G01*
X129712500Y-89987500D01*
G75*
G02*
X129562500Y-90137500I-150000J0D01*
G01*
G37*
G36*
G01*
X133262500Y-95937500D02*
X132062500Y-95937500D01*
G75*
G02*
X131912500Y-95787500I0J150000D01*
G01*
X131912500Y-94087500D01*
G75*
G02*
X132062500Y-93937500I150000J0D01*
G01*
X133262500Y-93937500D01*
G75*
G02*
X133412500Y-94087500I0J-150000D01*
G01*
X133412500Y-95787500D01*
G75*
G02*
X133262500Y-95937500I-150000J0D01*
G01*
G37*
G36*
G01*
X136962500Y-95937500D02*
X135762500Y-95937500D01*
G75*
G02*
X135612500Y-95787500I0J150000D01*
G01*
X135612500Y-94087500D01*
G75*
G02*
X135762500Y-93937500I150000J0D01*
G01*
X136962500Y-93937500D01*
G75*
G02*
X137112500Y-94087500I0J-150000D01*
G01*
X137112500Y-95787500D01*
G75*
G02*
X136962500Y-95937500I-150000J0D01*
G01*
G37*
G36*
G01*
X154387500Y-72412500D02*
X155337500Y-72412500D01*
G75*
G02*
X155587500Y-72662500I0J-250000D01*
G01*
X155587500Y-73337500D01*
G75*
G02*
X155337500Y-73587500I-250000J0D01*
G01*
X154387500Y-73587500D01*
G75*
G02*
X154137500Y-73337500I0J250000D01*
G01*
X154137500Y-72662500D01*
G75*
G02*
X154387500Y-72412500I250000J0D01*
G01*
G37*
G36*
G01*
X154387500Y-74487500D02*
X155337500Y-74487500D01*
G75*
G02*
X155587500Y-74737500I0J-250000D01*
G01*
X155587500Y-75412500D01*
G75*
G02*
X155337500Y-75662500I-250000J0D01*
G01*
X154387500Y-75662500D01*
G75*
G02*
X154137500Y-75412500I0J250000D01*
G01*
X154137500Y-74737500D01*
G75*
G02*
X154387500Y-74487500I250000J0D01*
G01*
G37*
G36*
G01*
X142312500Y-96612500D02*
X143212500Y-96612500D01*
G75*
G02*
X143462500Y-96862500I0J-250000D01*
G01*
X143462500Y-97387500D01*
G75*
G02*
X143212500Y-97637500I-250000J0D01*
G01*
X142312500Y-97637500D01*
G75*
G02*
X142062500Y-97387500I0J250000D01*
G01*
X142062500Y-96862500D01*
G75*
G02*
X142312500Y-96612500I250000J0D01*
G01*
G37*
G36*
G01*
X142312500Y-98437500D02*
X143212500Y-98437500D01*
G75*
G02*
X143462500Y-98687500I0J-250000D01*
G01*
X143462500Y-99212500D01*
G75*
G02*
X143212500Y-99462500I-250000J0D01*
G01*
X142312500Y-99462500D01*
G75*
G02*
X142062500Y-99212500I0J250000D01*
G01*
X142062500Y-98687500D01*
G75*
G02*
X142312500Y-98437500I250000J0D01*
G01*
G37*
X130062500Y-72037500D03*
X135062500Y-72037500D03*
G36*
G01*
X133262500Y-70137500D02*
X132062500Y-70137500D01*
G75*
G02*
X131912500Y-69987500I0J150000D01*
G01*
X131912500Y-68287500D01*
G75*
G02*
X132062500Y-68137500I150000J0D01*
G01*
X133262500Y-68137500D01*
G75*
G02*
X133412500Y-68287500I0J-150000D01*
G01*
X133412500Y-69987500D01*
G75*
G02*
X133262500Y-70137500I-150000J0D01*
G01*
G37*
G36*
G01*
X136962500Y-70137500D02*
X135762500Y-70137500D01*
G75*
G02*
X135612500Y-69987500I0J150000D01*
G01*
X135612500Y-68287500D01*
G75*
G02*
X135762500Y-68137500I150000J0D01*
G01*
X136962500Y-68137500D01*
G75*
G02*
X137112500Y-68287500I0J-150000D01*
G01*
X137112500Y-69987500D01*
G75*
G02*
X136962500Y-70137500I-150000J0D01*
G01*
G37*
G36*
G01*
X129562500Y-75937500D02*
X128362500Y-75937500D01*
G75*
G02*
X128212500Y-75787500I0J150000D01*
G01*
X128212500Y-74087500D01*
G75*
G02*
X128362500Y-73937500I150000J0D01*
G01*
X129562500Y-73937500D01*
G75*
G02*
X129712500Y-74087500I0J-150000D01*
G01*
X129712500Y-75787500D01*
G75*
G02*
X129562500Y-75937500I-150000J0D01*
G01*
G37*
G36*
G01*
X129562500Y-70137500D02*
X128362500Y-70137500D01*
G75*
G02*
X128212500Y-69987500I0J150000D01*
G01*
X128212500Y-68287500D01*
G75*
G02*
X128362500Y-68137500I150000J0D01*
G01*
X129562500Y-68137500D01*
G75*
G02*
X129712500Y-68287500I0J-150000D01*
G01*
X129712500Y-69987500D01*
G75*
G02*
X129562500Y-70137500I-150000J0D01*
G01*
G37*
G36*
G01*
X133262500Y-75937500D02*
X132062500Y-75937500D01*
G75*
G02*
X131912500Y-75787500I0J150000D01*
G01*
X131912500Y-74087500D01*
G75*
G02*
X132062500Y-73937500I150000J0D01*
G01*
X133262500Y-73937500D01*
G75*
G02*
X133412500Y-74087500I0J-150000D01*
G01*
X133412500Y-75787500D01*
G75*
G02*
X133262500Y-75937500I-150000J0D01*
G01*
G37*
G36*
G01*
X136962500Y-75937500D02*
X135762500Y-75937500D01*
G75*
G02*
X135612500Y-75787500I0J150000D01*
G01*
X135612500Y-74087500D01*
G75*
G02*
X135762500Y-73937500I150000J0D01*
G01*
X136962500Y-73937500D01*
G75*
G02*
X137112500Y-74087500I0J-150000D01*
G01*
X137112500Y-75787500D01*
G75*
G02*
X136962500Y-75937500I-150000J0D01*
G01*
G37*
G36*
G01*
X151414564Y-84087500D02*
X151414564Y-84987500D01*
G75*
G02*
X151164564Y-85237500I-250000J0D01*
G01*
X150639564Y-85237500D01*
G75*
G02*
X150389564Y-84987500I0J250000D01*
G01*
X150389564Y-84087500D01*
G75*
G02*
X150639564Y-83837500I250000J0D01*
G01*
X151164564Y-83837500D01*
G75*
G02*
X151414564Y-84087500I0J-250000D01*
G01*
G37*
G36*
G01*
X149589564Y-84087500D02*
X149589564Y-84987500D01*
G75*
G02*
X149339564Y-85237500I-250000J0D01*
G01*
X148814564Y-85237500D01*
G75*
G02*
X148564564Y-84987500I0J250000D01*
G01*
X148564564Y-84087500D01*
G75*
G02*
X148814564Y-83837500I250000J0D01*
G01*
X149339564Y-83837500D01*
G75*
G02*
X149589564Y-84087500I0J-250000D01*
G01*
G37*
D16*
X143262500Y-71005500D03*
X145802500Y-71005500D03*
X148342500Y-71005500D03*
X150882500Y-71005500D03*
G36*
G01*
X143137500Y-81512500D02*
X143137500Y-80562500D01*
G75*
G02*
X143387500Y-80312500I250000J0D01*
G01*
X144062500Y-80312500D01*
G75*
G02*
X144312500Y-80562500I0J-250000D01*
G01*
X144312500Y-81512500D01*
G75*
G02*
X144062500Y-81762500I-250000J0D01*
G01*
X143387500Y-81762500D01*
G75*
G02*
X143137500Y-81512500I0J250000D01*
G01*
G37*
G36*
G01*
X145212500Y-81512500D02*
X145212500Y-80562500D01*
G75*
G02*
X145462500Y-80312500I250000J0D01*
G01*
X146137500Y-80312500D01*
G75*
G02*
X146387500Y-80562500I0J-250000D01*
G01*
X146387500Y-81512500D01*
G75*
G02*
X146137500Y-81762500I-250000J0D01*
G01*
X145462500Y-81762500D01*
G75*
G02*
X145212500Y-81512500I0J250000D01*
G01*
G37*
G36*
G01*
X140137500Y-99662500D02*
X139187500Y-99662500D01*
G75*
G02*
X138937500Y-99412500I0J250000D01*
G01*
X138937500Y-98737500D01*
G75*
G02*
X139187500Y-98487500I250000J0D01*
G01*
X140137500Y-98487500D01*
G75*
G02*
X140387500Y-98737500I0J-250000D01*
G01*
X140387500Y-99412500D01*
G75*
G02*
X140137500Y-99662500I-250000J0D01*
G01*
G37*
G36*
G01*
X140137500Y-97587500D02*
X139187500Y-97587500D01*
G75*
G02*
X138937500Y-97337500I0J250000D01*
G01*
X138937500Y-96662500D01*
G75*
G02*
X139187500Y-96412500I250000J0D01*
G01*
X140137500Y-96412500D01*
G75*
G02*
X140387500Y-96662500I0J-250000D01*
G01*
X140387500Y-97337500D01*
G75*
G02*
X140137500Y-97587500I-250000J0D01*
G01*
G37*
G36*
G01*
X152637500Y-97512500D02*
X152637500Y-96562500D01*
G75*
G02*
X152887500Y-96312500I250000J0D01*
G01*
X153562500Y-96312500D01*
G75*
G02*
X153812500Y-96562500I0J-250000D01*
G01*
X153812500Y-97512500D01*
G75*
G02*
X153562500Y-97762500I-250000J0D01*
G01*
X152887500Y-97762500D01*
G75*
G02*
X152637500Y-97512500I0J250000D01*
G01*
G37*
G36*
G01*
X154712500Y-97512500D02*
X154712500Y-96562500D01*
G75*
G02*
X154962500Y-96312500I250000J0D01*
G01*
X155637500Y-96312500D01*
G75*
G02*
X155887500Y-96562500I0J-250000D01*
G01*
X155887500Y-97512500D01*
G75*
G02*
X155637500Y-97762500I-250000J0D01*
G01*
X154962500Y-97762500D01*
G75*
G02*
X154712500Y-97512500I0J250000D01*
G01*
G37*
D11*
X159762500Y-97037500D03*
G36*
G01*
X138837500Y-83487500D02*
X138837500Y-82587500D01*
G75*
G02*
X139087500Y-82337500I250000J0D01*
G01*
X139612500Y-82337500D01*
G75*
G02*
X139862500Y-82587500I0J-250000D01*
G01*
X139862500Y-83487500D01*
G75*
G02*
X139612500Y-83737500I-250000J0D01*
G01*
X139087500Y-83737500D01*
G75*
G02*
X138837500Y-83487500I0J250000D01*
G01*
G37*
G36*
G01*
X140662500Y-83487500D02*
X140662500Y-82587500D01*
G75*
G02*
X140912500Y-82337500I250000J0D01*
G01*
X141437500Y-82337500D01*
G75*
G02*
X141687500Y-82587500I0J-250000D01*
G01*
X141687500Y-83487500D01*
G75*
G02*
X141437500Y-83737500I-250000J0D01*
G01*
X140912500Y-83737500D01*
G75*
G02*
X140662500Y-83487500I0J250000D01*
G01*
G37*
G36*
X145012500Y-75287500D02*
G01*
X145562500Y-75287500D01*
X145562500Y-75292467D01*
X145642441Y-75293932D01*
X145777756Y-75336207D01*
X145895766Y-75414762D01*
X145986986Y-75523281D01*
X146044081Y-75653040D01*
X146061664Y-75787500D01*
X146062500Y-75787500D01*
X146062500Y-76287500D01*
X146061664Y-76287500D01*
X146062463Y-76293609D01*
X146040652Y-76433686D01*
X145980404Y-76562011D01*
X145886560Y-76668269D01*
X145766665Y-76743917D01*
X145630358Y-76782874D01*
X145562500Y-76782459D01*
X145562500Y-76787500D01*
X145012500Y-76787500D01*
X145012500Y-75287500D01*
G37*
D15*
X144262500Y-76037500D03*
G36*
X142962500Y-76782459D02*
G01*
X142888595Y-76782008D01*
X142752774Y-76741389D01*
X142633812Y-76664282D01*
X142541274Y-76556885D01*
X142482597Y-76427833D01*
X142462500Y-76287500D01*
X142462500Y-75787500D01*
X142462649Y-75775284D01*
X142486169Y-75635483D01*
X142547981Y-75507904D01*
X142643116Y-75402800D01*
X142763926Y-75328623D01*
X142900699Y-75291334D01*
X142962500Y-75292467D01*
X142962500Y-75287500D01*
X143512500Y-75287500D01*
X143512500Y-76787500D01*
X142962500Y-76787500D01*
X142962500Y-76782459D01*
G37*
G36*
G01*
X155687500Y-68587500D02*
X155687500Y-69487500D01*
G75*
G02*
X155437500Y-69737500I-250000J0D01*
G01*
X154912500Y-69737500D01*
G75*
G02*
X154662500Y-69487500I0J250000D01*
G01*
X154662500Y-68587500D01*
G75*
G02*
X154912500Y-68337500I250000J0D01*
G01*
X155437500Y-68337500D01*
G75*
G02*
X155687500Y-68587500I0J-250000D01*
G01*
G37*
G36*
G01*
X153862500Y-68587500D02*
X153862500Y-69487500D01*
G75*
G02*
X153612500Y-69737500I-250000J0D01*
G01*
X153087500Y-69737500D01*
G75*
G02*
X152837500Y-69487500I0J250000D01*
G01*
X152837500Y-68587500D01*
G75*
G02*
X153087500Y-68337500I250000J0D01*
G01*
X153612500Y-68337500D01*
G75*
G02*
X153862500Y-68587500I0J-250000D01*
G01*
G37*
G36*
G01*
X138837500Y-74287500D02*
X138837500Y-73387500D01*
G75*
G02*
X139087500Y-73137500I250000J0D01*
G01*
X139612500Y-73137500D01*
G75*
G02*
X139862500Y-73387500I0J-250000D01*
G01*
X139862500Y-74287500D01*
G75*
G02*
X139612500Y-74537500I-250000J0D01*
G01*
X139087500Y-74537500D01*
G75*
G02*
X138837500Y-74287500I0J250000D01*
G01*
G37*
G36*
G01*
X140662500Y-74287500D02*
X140662500Y-73387500D01*
G75*
G02*
X140912500Y-73137500I250000J0D01*
G01*
X141437500Y-73137500D01*
G75*
G02*
X141687500Y-73387500I0J-250000D01*
G01*
X141687500Y-74287500D01*
G75*
G02*
X141437500Y-74537500I-250000J0D01*
G01*
X140912500Y-74537500D01*
G75*
G02*
X140662500Y-74287500I0J250000D01*
G01*
G37*
G36*
G01*
X138837500Y-103487500D02*
X138837500Y-102587500D01*
G75*
G02*
X139087500Y-102337500I250000J0D01*
G01*
X139612500Y-102337500D01*
G75*
G02*
X139862500Y-102587500I0J-250000D01*
G01*
X139862500Y-103487500D01*
G75*
G02*
X139612500Y-103737500I-250000J0D01*
G01*
X139087500Y-103737500D01*
G75*
G02*
X138837500Y-103487500I0J250000D01*
G01*
G37*
G36*
G01*
X140662500Y-103487500D02*
X140662500Y-102587500D01*
G75*
G02*
X140912500Y-102337500I250000J0D01*
G01*
X141437500Y-102337500D01*
G75*
G02*
X141687500Y-102587500I0J-250000D01*
G01*
X141687500Y-103487500D01*
G75*
G02*
X141437500Y-103737500I-250000J0D01*
G01*
X140912500Y-103737500D01*
G75*
G02*
X140662500Y-103487500I0J250000D01*
G01*
G37*
M02*
