G04 #@! TF.GenerationSoftware,KiCad,Pcbnew,6.0.10+dfsg-1~bpo11+1*
G04 #@! TF.ProjectId,project,70726f6a-6563-4742-9e6b-696361645f70,rev?*
G04 #@! TF.SameCoordinates,Original*
G04 #@! TF.FileFunction,Copper,L2,Bot*
G04 #@! TF.FilePolarity,Positive*
%FSLAX46Y46*%
G04 Gerber Fmt 4.6, Leading zero omitted, Abs format (unit mm)*
%MOMM*%
%LPD*%
G01*
G04 APERTURE LIST*
G04 #@! TA.AperFunction,Profile*
%ADD10C,0.100000*%
G04 #@! TD*
G04 #@! TA.AperFunction,ComponentPad*
%ADD11C,1.700000*%
G04 #@! TD*
G04 #@! TA.AperFunction,ComponentPad*
%ADD12C,5.600000*%
G04 #@! TD*
G04 #@! TA.AperFunction,ViaPad*
%ADD13C,0.700000*%
G04 #@! TD*
G04 #@! TA.AperFunction,Conductor*
%ADD14C,1.000000*%
G04 #@! TD*
G04 #@! TA.AperFunction,Conductor*
%ADD15C,0.300000*%
G04 #@! TD*
G04 #@! TA.AperFunction,Conductor*
%ADD16C,0.400000*%
G04 #@! TD*
G04 APERTURE END LIST*
D10*
X167262500Y-68037500D02*
G75*
G03*
X166262500Y-67037500I-1000000J0D01*
G01*
X167262500Y-131037500D02*
X167262500Y-68037500D01*
X166262500Y-67037500D02*
X128262500Y-67037500D01*
X166262500Y-132037500D02*
X128262500Y-132037500D01*
X127262500Y-68037500D02*
X127262500Y-131037500D01*
X166262500Y-132037500D02*
G75*
G03*
X167262500Y-131037500I0J1000000D01*
G01*
X127262500Y-131037500D02*
G75*
G03*
X128262500Y-132037500I1000000J0D01*
G01*
X128262500Y-67037500D02*
G75*
G03*
X127262500Y-68037500I0J-1000000D01*
G01*
D11*
X164462500Y-92037500D03*
X159462500Y-92037500D03*
X130062500Y-82037500D03*
X135062500Y-82037500D03*
X159462500Y-72037500D03*
X164462500Y-72037500D03*
X159462500Y-102037500D03*
X164462500Y-102037500D03*
X130062500Y-102037500D03*
X135062500Y-102037500D03*
X164462500Y-82037500D03*
X159462500Y-82037500D03*
D12*
X147262500Y-103037500D03*
D11*
X130062500Y-92037500D03*
X135062500Y-92037500D03*
X135062500Y-72037500D03*
X130062500Y-72037500D03*
D13*
X143762500Y-71037500D03*
X128762500Y-95537500D03*
X137762500Y-127037500D03*
X135262500Y-130037500D03*
X143262500Y-74537500D03*
X143762500Y-74037500D03*
X138762500Y-128037500D03*
X137762500Y-128037500D03*
X160262500Y-124537500D03*
X165762500Y-78537500D03*
X160262500Y-115537500D03*
X143762500Y-70037500D03*
X135762500Y-130537500D03*
X128762500Y-75537500D03*
X143262500Y-69537500D03*
X138762500Y-127037500D03*
X143762500Y-72037500D03*
X165762500Y-88537500D03*
X144762500Y-80537500D03*
X143762500Y-73037500D03*
X128762500Y-85537500D03*
X128762500Y-105537500D03*
X145262500Y-81037500D03*
X144262500Y-81037500D03*
X139762500Y-127037500D03*
X165762500Y-68537500D03*
X134262500Y-115537500D03*
X165762500Y-98537500D03*
X143262500Y-72537500D03*
X162262500Y-111037500D03*
X134262500Y-124537500D03*
X143262500Y-73537500D03*
X139762500Y-128037500D03*
X134762500Y-130537500D03*
X143262500Y-70537500D03*
X143262500Y-71537500D03*
X138762500Y-110037500D03*
X141762500Y-116037500D03*
X157463000Y-110738000D03*
X159617580Y-108392580D03*
X143262500Y-118537500D03*
X134292477Y-113007523D03*
X156762500Y-114537500D03*
X160262500Y-111125000D03*
X130762500Y-80537500D03*
X132262000Y-80737000D03*
X132762500Y-90737000D03*
X129262500Y-90537500D03*
X132762500Y-100737000D03*
X129004466Y-100263397D03*
X162262500Y-73338000D03*
X164012000Y-73415216D03*
X137762500Y-117037500D03*
X130262500Y-111125000D03*
X156762500Y-111537500D03*
X161262500Y-109537500D03*
X164792477Y-83507523D03*
X160758331Y-83532915D03*
X165520534Y-103811603D03*
X158615993Y-103214141D03*
X165262500Y-93537500D03*
X159963000Y-93537500D03*
D14*
X138762500Y-113037500D02*
X138762500Y-110037500D01*
X141762500Y-116037500D02*
X138762500Y-113037500D01*
D15*
X159617580Y-108392580D02*
X157463000Y-110547161D01*
X157463000Y-110547161D02*
X157463000Y-110738000D01*
X143262500Y-118537500D02*
X140762500Y-118537500D01*
D16*
X160175000Y-111125000D02*
X160262500Y-111125000D01*
D15*
X135232523Y-113007523D02*
X134292477Y-113007523D01*
X140762500Y-118537500D02*
X135232523Y-113007523D01*
D16*
X156762500Y-114537500D02*
X160175000Y-111125000D01*
D15*
X130962000Y-80737000D02*
X130762500Y-80537500D01*
X132262000Y-80737000D02*
X130962000Y-80737000D01*
X132762500Y-90737000D02*
X129462000Y-90737000D01*
X129462000Y-90737000D02*
X129262500Y-90537500D01*
X129262500Y-100521431D02*
X132546931Y-100521431D01*
X129004466Y-100263397D02*
X129262500Y-100521431D01*
X132546931Y-100521431D02*
X132762500Y-100737000D01*
D16*
X163934784Y-73338000D02*
X162262500Y-73338000D01*
X164012000Y-73415216D02*
X163934784Y-73338000D01*
D15*
X137262500Y-117037500D02*
X131350000Y-111125000D01*
X131350000Y-111125000D02*
X130262500Y-111125000D01*
X137762500Y-117037500D02*
X137262500Y-117037500D01*
D16*
X158262500Y-111537500D02*
X160262500Y-109537500D01*
X160262500Y-109537500D02*
X161262500Y-109537500D01*
X156762500Y-111537500D02*
X158262500Y-111537500D01*
X160758331Y-83532915D02*
X160783723Y-83507523D01*
X160783723Y-83507523D02*
X164792477Y-83507523D01*
X158955421Y-103553569D02*
X158615993Y-103214141D01*
X165262500Y-103553569D02*
X158955421Y-103553569D01*
X165520534Y-103811603D02*
X165262500Y-103553569D01*
X159963000Y-93537500D02*
X165262500Y-93537500D01*
G04 #@! TA.AperFunction,Conductor*
G36*
X166233143Y-67539500D02*
G01*
X166247452Y-67541728D01*
X166247453Y-67541728D01*
X166256323Y-67543109D01*
X166265223Y-67541945D01*
X166266758Y-67541964D01*
X166295407Y-67541708D01*
X166297679Y-67541964D01*
X166359542Y-67548934D01*
X166387048Y-67555213D01*
X166465828Y-67582779D01*
X166491249Y-67595021D01*
X166561914Y-67639423D01*
X166583973Y-67657015D01*
X166642985Y-67716027D01*
X166660577Y-67738086D01*
X166704979Y-67808751D01*
X166717221Y-67834172D01*
X166744787Y-67912952D01*
X166751066Y-67940461D01*
X166757592Y-67998386D01*
X166758375Y-68014029D01*
X166758272Y-68022452D01*
X166756891Y-68031323D01*
X166758055Y-68040225D01*
X166758055Y-68040228D01*
X166760936Y-68062256D01*
X166762000Y-68078593D01*
X166762000Y-130988759D01*
X166760500Y-131008143D01*
X166756891Y-131031323D01*
X166758055Y-131040223D01*
X166758036Y-131041758D01*
X166758292Y-131070407D01*
X166751066Y-131134540D01*
X166744787Y-131162048D01*
X166717221Y-131240828D01*
X166704979Y-131266249D01*
X166660577Y-131336914D01*
X166642985Y-131358973D01*
X166583973Y-131417985D01*
X166561914Y-131435577D01*
X166491249Y-131479979D01*
X166465828Y-131492221D01*
X166387048Y-131519787D01*
X166359540Y-131526066D01*
X166346510Y-131527534D01*
X166301614Y-131532592D01*
X166285971Y-131533375D01*
X166277548Y-131533272D01*
X166268677Y-131531891D01*
X166259775Y-131533055D01*
X166259772Y-131533055D01*
X166237744Y-131535936D01*
X166221407Y-131537000D01*
X128311241Y-131537000D01*
X128291857Y-131535500D01*
X128277548Y-131533272D01*
X128277547Y-131533272D01*
X128268677Y-131531891D01*
X128259777Y-131533055D01*
X128258242Y-131533036D01*
X128229593Y-131533292D01*
X128227490Y-131533055D01*
X128217159Y-131531891D01*
X128165458Y-131526066D01*
X128137952Y-131519787D01*
X128059172Y-131492221D01*
X128033751Y-131479979D01*
X127963086Y-131435577D01*
X127941027Y-131417985D01*
X127882015Y-131358973D01*
X127864423Y-131336914D01*
X127820021Y-131266249D01*
X127807778Y-131240827D01*
X127780212Y-131162046D01*
X127773934Y-131134539D01*
X127767616Y-131078464D01*
X127767336Y-131053779D01*
X127767996Y-131049854D01*
X127768147Y-131037500D01*
X127764273Y-131010449D01*
X127763000Y-130992587D01*
X127763000Y-111125000D01*
X129407315Y-111125000D01*
X129426003Y-111302803D01*
X129481250Y-111472835D01*
X129570641Y-111627665D01*
X129575059Y-111632572D01*
X129575060Y-111632573D01*
X129655205Y-111721582D01*
X129690270Y-111760526D01*
X129695609Y-111764405D01*
X129761675Y-111812405D01*
X129834907Y-111865612D01*
X129840935Y-111868296D01*
X129840937Y-111868297D01*
X129992202Y-111935644D01*
X129998233Y-111938329D01*
X130085671Y-111956914D01*
X130166652Y-111974128D01*
X130166656Y-111974128D01*
X130173109Y-111975500D01*
X130351891Y-111975500D01*
X130358344Y-111974128D01*
X130358348Y-111974128D01*
X130439329Y-111956914D01*
X130526767Y-111938329D01*
X130632940Y-111891058D01*
X130684065Y-111868296D01*
X130684066Y-111868295D01*
X130690093Y-111865612D01*
X130780999Y-111799564D01*
X130847867Y-111775706D01*
X130855061Y-111775500D01*
X131028364Y-111775500D01*
X131096485Y-111795502D01*
X131117459Y-111812405D01*
X136745252Y-117440198D01*
X136753093Y-117448815D01*
X136757298Y-117455440D01*
X136763077Y-117460867D01*
X136763078Y-117460868D01*
X136808316Y-117503349D01*
X136811158Y-117506104D01*
X136831466Y-117526412D01*
X136834603Y-117528845D01*
X136834872Y-117529054D01*
X136843902Y-117536766D01*
X136877107Y-117567948D01*
X136895570Y-117578099D01*
X136912090Y-117588950D01*
X136928737Y-117601863D01*
X136970546Y-117619955D01*
X136981206Y-117625177D01*
X137021132Y-117647127D01*
X137041537Y-117652366D01*
X137060242Y-117658770D01*
X137079574Y-117667136D01*
X137087400Y-117668376D01*
X137087405Y-117668377D01*
X137124576Y-117674265D01*
X137136196Y-117676671D01*
X137165780Y-117684266D01*
X137180323Y-117688000D01*
X137185045Y-117688000D01*
X137241816Y-117710477D01*
X137329563Y-117774230D01*
X137329565Y-117774231D01*
X137334907Y-117778112D01*
X137340934Y-117780795D01*
X137340935Y-117780796D01*
X137492202Y-117848144D01*
X137498233Y-117850829D01*
X137585671Y-117869414D01*
X137666652Y-117886628D01*
X137666656Y-117886628D01*
X137673109Y-117888000D01*
X137851891Y-117888000D01*
X137858344Y-117886628D01*
X137858348Y-117886628D01*
X137939329Y-117869414D01*
X138026767Y-117850829D01*
X138032798Y-117848144D01*
X138184063Y-117780797D01*
X138184065Y-117780796D01*
X138190093Y-117778112D01*
X138334730Y-117673026D01*
X138340034Y-117667136D01*
X138449940Y-117545073D01*
X138449941Y-117545072D01*
X138454359Y-117540165D01*
X138474024Y-117506104D01*
X138515321Y-117434576D01*
X138566704Y-117385583D01*
X138636417Y-117372147D01*
X138702328Y-117398533D01*
X138713535Y-117408481D01*
X140245252Y-118940198D01*
X140253093Y-118948815D01*
X140257298Y-118955440D01*
X140263077Y-118960867D01*
X140263078Y-118960868D01*
X140308316Y-119003349D01*
X140311158Y-119006104D01*
X140331465Y-119026411D01*
X140334596Y-119028840D01*
X140334602Y-119028845D01*
X140334877Y-119029058D01*
X140343890Y-119036755D01*
X140377107Y-119067948D01*
X140384054Y-119071767D01*
X140395566Y-119078096D01*
X140412090Y-119088950D01*
X140428736Y-119101862D01*
X140463181Y-119116768D01*
X140470541Y-119119953D01*
X140481200Y-119125175D01*
X140514186Y-119143309D01*
X140514190Y-119143310D01*
X140521132Y-119147127D01*
X140528805Y-119149097D01*
X140528807Y-119149098D01*
X140541536Y-119152366D01*
X140560240Y-119158770D01*
X140572295Y-119163987D01*
X140572305Y-119163990D01*
X140579573Y-119167135D01*
X140587396Y-119168374D01*
X140587406Y-119168377D01*
X140624567Y-119174263D01*
X140636188Y-119176669D01*
X140672642Y-119186028D01*
X140680323Y-119188000D01*
X140701389Y-119188000D01*
X140721101Y-119189551D01*
X140741904Y-119192846D01*
X140787258Y-119188559D01*
X140799113Y-119188000D01*
X142669939Y-119188000D01*
X142738060Y-119208002D01*
X142743998Y-119212062D01*
X142834907Y-119278112D01*
X142840934Y-119280795D01*
X142840935Y-119280796D01*
X142992202Y-119348144D01*
X142998233Y-119350829D01*
X143085671Y-119369415D01*
X143166652Y-119386628D01*
X143166656Y-119386628D01*
X143173109Y-119388000D01*
X143351891Y-119388000D01*
X143358344Y-119386628D01*
X143358348Y-119386628D01*
X143439329Y-119369415D01*
X143526767Y-119350829D01*
X143532798Y-119348144D01*
X143684063Y-119280797D01*
X143684065Y-119280796D01*
X143690093Y-119278112D01*
X143834730Y-119173026D01*
X143840035Y-119167135D01*
X143949940Y-119045073D01*
X143949941Y-119045072D01*
X143954359Y-119040165D01*
X144043750Y-118885335D01*
X144098997Y-118715303D01*
X144117685Y-118537500D01*
X144098997Y-118359697D01*
X144043750Y-118189665D01*
X143954359Y-118034835D01*
X143834730Y-117901974D01*
X143764336Y-117850829D01*
X143695435Y-117800769D01*
X143695433Y-117800768D01*
X143690093Y-117796888D01*
X143684065Y-117794204D01*
X143684063Y-117794203D01*
X143532798Y-117726856D01*
X143532797Y-117726856D01*
X143526767Y-117724171D01*
X143439329Y-117705585D01*
X143358348Y-117688372D01*
X143358344Y-117688372D01*
X143351891Y-117687000D01*
X143173109Y-117687000D01*
X143166656Y-117688372D01*
X143166652Y-117688372D01*
X143085671Y-117705585D01*
X142998233Y-117724171D01*
X142992203Y-117726856D01*
X142992202Y-117726856D01*
X142840938Y-117794203D01*
X142840936Y-117794204D01*
X142834908Y-117796888D01*
X142829567Y-117800768D01*
X142829566Y-117800769D01*
X142744001Y-117862936D01*
X142677133Y-117886794D01*
X142669940Y-117887000D01*
X141084136Y-117887000D01*
X141016015Y-117866998D01*
X140995041Y-117850095D01*
X136256099Y-113111153D01*
X137759540Y-113111153D01*
X137760648Y-113117438D01*
X137760649Y-113117448D01*
X137770016Y-113170566D01*
X137771285Y-113179708D01*
X137777380Y-113239716D01*
X137785991Y-113267193D01*
X137789839Y-113282981D01*
X137793727Y-113305035D01*
X137793729Y-113305041D01*
X137794836Y-113311321D01*
X137797186Y-113317256D01*
X137817038Y-113367398D01*
X137820120Y-113376101D01*
X137838162Y-113433672D01*
X137841255Y-113439251D01*
X137852115Y-113458843D01*
X137859067Y-113473549D01*
X137869660Y-113500305D01*
X137887031Y-113526850D01*
X137902686Y-113550774D01*
X137907454Y-113558678D01*
X137936703Y-113611444D01*
X137940855Y-113616288D01*
X137955433Y-113633297D01*
X137965196Y-113646300D01*
X137980955Y-113670382D01*
X137985417Y-113675338D01*
X138024329Y-113714250D01*
X138030902Y-113721348D01*
X138068977Y-113765771D01*
X138074014Y-113769678D01*
X138074016Y-113769680D01*
X138093357Y-113784682D01*
X138105226Y-113795147D01*
X141090961Y-116780882D01*
X141093428Y-116782894D01*
X141093429Y-116782895D01*
X141178475Y-116852257D01*
X141208903Y-116877074D01*
X141389030Y-116971242D01*
X141584413Y-117027267D01*
X141659356Y-117033033D01*
X141780711Y-117042371D01*
X141780714Y-117042371D01*
X141787071Y-117042860D01*
X141988724Y-117017385D01*
X142181137Y-116951883D01*
X142246570Y-116913494D01*
X142350946Y-116852257D01*
X142350949Y-116852255D01*
X142356449Y-116849028D01*
X142429897Y-116782895D01*
X142502752Y-116717296D01*
X142502755Y-116717293D01*
X142507497Y-116713023D01*
X142628113Y-116549423D01*
X142713370Y-116364911D01*
X142759785Y-116167025D01*
X142765460Y-115963847D01*
X142730165Y-115763679D01*
X142655341Y-115574695D01*
X142544045Y-115404618D01*
X142539583Y-115399662D01*
X140677420Y-113537500D01*
X141262500Y-113537500D01*
X142762500Y-115037500D01*
X151762500Y-115037500D01*
X152262500Y-114537500D01*
X155907315Y-114537500D01*
X155926003Y-114715303D01*
X155981250Y-114885335D01*
X156070641Y-115040165D01*
X156190270Y-115173026D01*
X156334907Y-115278112D01*
X156340935Y-115280796D01*
X156340937Y-115280797D01*
X156492202Y-115348144D01*
X156498233Y-115350829D01*
X156585671Y-115369415D01*
X156666652Y-115386628D01*
X156666656Y-115386628D01*
X156673109Y-115388000D01*
X156851891Y-115388000D01*
X156858344Y-115386628D01*
X156858348Y-115386628D01*
X156939329Y-115369415D01*
X157026767Y-115350829D01*
X157032798Y-115348144D01*
X157184063Y-115280797D01*
X157184065Y-115280796D01*
X157190093Y-115278112D01*
X157334730Y-115173026D01*
X157454359Y-115040165D01*
X157543750Y-114885335D01*
X157598997Y-114715303D01*
X157600469Y-114715781D01*
X157630875Y-114659781D01*
X160280067Y-112010590D01*
X160342379Y-111976564D01*
X160348997Y-111975500D01*
X160351891Y-111975500D01*
X160358345Y-111974128D01*
X160358347Y-111974128D01*
X160416062Y-111961860D01*
X160526767Y-111938329D01*
X160532798Y-111935644D01*
X160684063Y-111868297D01*
X160684065Y-111868296D01*
X160690093Y-111865612D01*
X160763326Y-111812405D01*
X160829391Y-111764405D01*
X160834730Y-111760526D01*
X160869796Y-111721582D01*
X160949940Y-111632573D01*
X160949941Y-111632572D01*
X160954359Y-111627665D01*
X161043750Y-111472835D01*
X161098997Y-111302803D01*
X161117685Y-111125000D01*
X161098997Y-110947197D01*
X161043750Y-110777165D01*
X160954359Y-110622335D01*
X160949939Y-110617426D01*
X160949936Y-110617422D01*
X160901130Y-110563217D01*
X160870412Y-110499210D01*
X160879177Y-110428756D01*
X160924640Y-110374225D01*
X160992367Y-110352930D01*
X161020960Y-110355660D01*
X161087947Y-110369898D01*
X161166652Y-110386628D01*
X161166656Y-110386628D01*
X161173109Y-110388000D01*
X161351891Y-110388000D01*
X161358344Y-110386628D01*
X161358348Y-110386628D01*
X161439329Y-110369415D01*
X161526767Y-110350829D01*
X161532798Y-110348144D01*
X161684063Y-110280797D01*
X161684065Y-110280796D01*
X161690093Y-110278112D01*
X161834730Y-110173026D01*
X161954359Y-110040165D01*
X162013707Y-109937371D01*
X162040446Y-109891058D01*
X162040447Y-109891057D01*
X162043750Y-109885335D01*
X162098997Y-109715303D01*
X162117685Y-109537500D01*
X162109913Y-109463556D01*
X162099687Y-109366261D01*
X162099687Y-109366260D01*
X162098997Y-109359697D01*
X162043750Y-109189665D01*
X161988116Y-109093303D01*
X161960394Y-109045288D01*
X161954359Y-109034835D01*
X161834730Y-108901974D01*
X161745302Y-108837000D01*
X161695435Y-108800769D01*
X161695433Y-108800768D01*
X161690093Y-108796888D01*
X161684065Y-108794204D01*
X161684063Y-108794203D01*
X161532798Y-108726856D01*
X161532797Y-108726856D01*
X161526767Y-108724171D01*
X161439329Y-108705586D01*
X161358348Y-108688372D01*
X161358344Y-108688372D01*
X161351891Y-108687000D01*
X161173109Y-108687000D01*
X161166656Y-108688372D01*
X161166652Y-108688372D01*
X161085671Y-108705586D01*
X160998233Y-108724171D01*
X160992203Y-108726856D01*
X160992202Y-108726856D01*
X160840938Y-108794203D01*
X160840936Y-108794204D01*
X160834908Y-108796888D01*
X160829567Y-108800768D01*
X160829566Y-108800769D01*
X160812820Y-108812936D01*
X160745953Y-108836794D01*
X160738759Y-108837000D01*
X160540872Y-108837000D01*
X160472751Y-108816998D01*
X160426258Y-108763342D01*
X160416154Y-108693068D01*
X160421039Y-108672064D01*
X160452037Y-108576662D01*
X160452037Y-108576660D01*
X160454077Y-108570383D01*
X160472765Y-108392580D01*
X160454077Y-108214777D01*
X160398830Y-108044745D01*
X160309439Y-107889915D01*
X160189810Y-107757054D01*
X160045173Y-107651968D01*
X160039145Y-107649284D01*
X160039143Y-107649283D01*
X159887878Y-107581936D01*
X159887877Y-107581936D01*
X159881847Y-107579251D01*
X159794409Y-107560665D01*
X159713428Y-107543452D01*
X159713424Y-107543452D01*
X159706971Y-107542080D01*
X159528189Y-107542080D01*
X159521736Y-107543452D01*
X159521732Y-107543452D01*
X159440751Y-107560666D01*
X159353313Y-107579251D01*
X159347283Y-107581936D01*
X159347282Y-107581936D01*
X159196018Y-107649283D01*
X159196016Y-107649284D01*
X159189988Y-107651968D01*
X159045350Y-107757054D01*
X158925721Y-107889915D01*
X158836330Y-108044745D01*
X158781083Y-108214777D01*
X158780393Y-108221340D01*
X158780393Y-108221341D01*
X158774665Y-108275840D01*
X158747652Y-108341496D01*
X158738450Y-108351764D01*
X157155423Y-109934792D01*
X157117577Y-109960804D01*
X157041438Y-109994703D01*
X157041436Y-109994704D01*
X157035408Y-109997388D01*
X156890770Y-110102474D01*
X156771141Y-110235335D01*
X156767838Y-110241056D01*
X156686636Y-110381703D01*
X156681750Y-110390165D01*
X156626503Y-110560197D01*
X156625813Y-110566762D01*
X156621375Y-110608986D01*
X156594362Y-110674643D01*
X156536140Y-110715273D01*
X156522264Y-110719062D01*
X156504696Y-110722797D01*
X156504694Y-110722798D01*
X156498233Y-110724171D01*
X156492203Y-110726856D01*
X156492202Y-110726856D01*
X156340938Y-110794203D01*
X156340936Y-110794204D01*
X156334908Y-110796888D01*
X156190270Y-110901974D01*
X156185857Y-110906876D01*
X156185855Y-110906877D01*
X156075060Y-111029927D01*
X156070641Y-111034835D01*
X155981250Y-111189665D01*
X155926003Y-111359697D01*
X155907315Y-111537500D01*
X155926003Y-111715303D01*
X155981250Y-111885335D01*
X156070641Y-112040165D01*
X156075059Y-112045072D01*
X156075060Y-112045073D01*
X156175861Y-112157023D01*
X156190270Y-112173026D01*
X156195609Y-112176905D01*
X156315795Y-112264226D01*
X156334907Y-112278112D01*
X156340935Y-112280796D01*
X156340937Y-112280797D01*
X156492202Y-112348144D01*
X156498233Y-112350829D01*
X156580682Y-112368354D01*
X156666652Y-112386628D01*
X156666656Y-112386628D01*
X156673109Y-112388000D01*
X156851891Y-112388000D01*
X156858344Y-112386628D01*
X156858348Y-112386628D01*
X156944318Y-112368354D01*
X157026767Y-112350829D01*
X157032798Y-112348144D01*
X157184063Y-112280797D01*
X157184065Y-112280796D01*
X157190093Y-112278112D01*
X157212181Y-112262064D01*
X157279048Y-112238206D01*
X157286242Y-112238000D01*
X157767154Y-112238000D01*
X157835275Y-112258002D01*
X157881768Y-112311658D01*
X157891872Y-112381932D01*
X157862378Y-112446512D01*
X157856251Y-112453093D01*
X157204572Y-113104771D01*
X156635032Y-113674311D01*
X156572135Y-113708462D01*
X156498233Y-113724171D01*
X156492203Y-113726856D01*
X156492202Y-113726856D01*
X156340938Y-113794203D01*
X156340936Y-113794204D01*
X156334908Y-113796888D01*
X156190270Y-113901974D01*
X156070641Y-114034835D01*
X155981250Y-114189665D01*
X155926003Y-114359697D01*
X155907315Y-114537500D01*
X152262500Y-114537500D01*
X153262500Y-113537500D01*
X153262500Y-106537500D01*
X152762500Y-106037500D01*
X141762500Y-106037500D01*
X141262500Y-106537500D01*
X141262500Y-113537500D01*
X140677420Y-113537500D01*
X139799905Y-112659985D01*
X139765879Y-112597673D01*
X139763000Y-112570890D01*
X139763000Y-109986700D01*
X139747620Y-109835284D01*
X139686838Y-109641328D01*
X139588297Y-109463556D01*
X139456023Y-109309229D01*
X139295419Y-109184652D01*
X139113045Y-109094913D01*
X139106867Y-109093304D01*
X139106865Y-109093303D01*
X138922534Y-109045288D01*
X138922531Y-109045288D01*
X138916352Y-109043678D01*
X138835172Y-109039424D01*
X138719756Y-109033375D01*
X138719752Y-109033375D01*
X138713374Y-109033041D01*
X138512403Y-109063435D01*
X138321648Y-109133619D01*
X138316228Y-109136979D01*
X138316227Y-109136980D01*
X138154324Y-109237363D01*
X138154320Y-109237366D01*
X138148901Y-109240726D01*
X138144263Y-109245112D01*
X138029733Y-109353418D01*
X138001220Y-109380381D01*
X137884637Y-109546879D01*
X137803914Y-109733419D01*
X137802608Y-109739671D01*
X137770982Y-109891058D01*
X137762349Y-109932380D01*
X137762000Y-109939039D01*
X137762000Y-113021330D01*
X137761951Y-113024849D01*
X137759540Y-113111153D01*
X136256099Y-113111153D01*
X135749771Y-112604825D01*
X135741930Y-112596208D01*
X135737725Y-112589583D01*
X135686706Y-112541673D01*
X135683865Y-112538919D01*
X135663558Y-112518612D01*
X135660427Y-112516183D01*
X135660421Y-112516178D01*
X135660146Y-112515965D01*
X135651133Y-112508268D01*
X135617916Y-112477075D01*
X135608594Y-112471950D01*
X135599457Y-112466927D01*
X135582933Y-112456073D01*
X135572550Y-112448019D01*
X135572549Y-112448018D01*
X135566287Y-112443161D01*
X135524475Y-112425068D01*
X135513830Y-112419853D01*
X135473891Y-112397896D01*
X135466212Y-112395925D01*
X135466211Y-112395924D01*
X135453482Y-112392656D01*
X135434773Y-112386250D01*
X135422723Y-112381035D01*
X135422718Y-112381033D01*
X135415449Y-112377888D01*
X135370453Y-112370761D01*
X135358833Y-112368354D01*
X135322383Y-112358995D01*
X135322378Y-112358994D01*
X135314700Y-112357023D01*
X135293639Y-112357023D01*
X135273927Y-112355472D01*
X135272621Y-112355265D01*
X135253118Y-112352176D01*
X135245227Y-112352922D01*
X135207758Y-112356464D01*
X135195900Y-112357023D01*
X134885038Y-112357023D01*
X134816917Y-112337021D01*
X134810976Y-112332959D01*
X134725408Y-112270789D01*
X134725406Y-112270788D01*
X134720070Y-112266911D01*
X134714040Y-112264226D01*
X134562775Y-112196879D01*
X134562774Y-112196879D01*
X134556744Y-112194194D01*
X134469306Y-112175609D01*
X134388325Y-112158395D01*
X134388321Y-112158395D01*
X134381868Y-112157023D01*
X134203086Y-112157023D01*
X134196633Y-112158395D01*
X134196629Y-112158395D01*
X134115648Y-112175609D01*
X134028210Y-112194194D01*
X134022180Y-112196879D01*
X134022179Y-112196879D01*
X133870915Y-112264226D01*
X133870913Y-112264227D01*
X133864885Y-112266911D01*
X133859544Y-112270791D01*
X133859543Y-112270792D01*
X133803296Y-112311658D01*
X133720247Y-112371997D01*
X133715833Y-112376900D01*
X133715830Y-112376902D01*
X133712764Y-112380307D01*
X133652317Y-112417545D01*
X133581333Y-112416191D01*
X133530035Y-112385089D01*
X131867248Y-110722302D01*
X131859407Y-110713685D01*
X131855202Y-110707060D01*
X131804183Y-110659150D01*
X131801342Y-110656396D01*
X131781035Y-110636089D01*
X131777904Y-110633660D01*
X131777898Y-110633655D01*
X131777623Y-110633442D01*
X131768610Y-110625745D01*
X131735393Y-110594552D01*
X131726071Y-110589427D01*
X131716934Y-110584404D01*
X131700410Y-110573550D01*
X131690027Y-110565496D01*
X131690026Y-110565495D01*
X131683764Y-110560638D01*
X131641952Y-110542545D01*
X131631307Y-110537330D01*
X131591368Y-110515373D01*
X131583689Y-110513402D01*
X131583688Y-110513401D01*
X131570959Y-110510133D01*
X131552250Y-110503727D01*
X131540200Y-110498512D01*
X131540195Y-110498510D01*
X131532926Y-110495365D01*
X131487930Y-110488238D01*
X131476310Y-110485831D01*
X131439860Y-110476472D01*
X131439855Y-110476471D01*
X131432177Y-110474500D01*
X131411116Y-110474500D01*
X131391404Y-110472949D01*
X131390098Y-110472742D01*
X131370595Y-110469653D01*
X131362704Y-110470399D01*
X131325235Y-110473941D01*
X131313377Y-110474500D01*
X130855061Y-110474500D01*
X130786940Y-110454498D01*
X130780999Y-110450436D01*
X130695431Y-110388266D01*
X130695429Y-110388265D01*
X130690093Y-110384388D01*
X130684063Y-110381703D01*
X130532798Y-110314356D01*
X130532797Y-110314356D01*
X130526767Y-110311671D01*
X130439329Y-110293086D01*
X130358348Y-110275872D01*
X130358344Y-110275872D01*
X130351891Y-110274500D01*
X130173109Y-110274500D01*
X130166656Y-110275872D01*
X130166652Y-110275872D01*
X130085671Y-110293085D01*
X129998233Y-110311671D01*
X129992203Y-110314356D01*
X129992202Y-110314356D01*
X129840938Y-110381703D01*
X129840936Y-110381704D01*
X129834908Y-110384388D01*
X129829567Y-110388268D01*
X129829566Y-110388269D01*
X129818306Y-110396450D01*
X129690270Y-110489474D01*
X129685857Y-110494376D01*
X129685855Y-110494377D01*
X129575065Y-110617422D01*
X129570641Y-110622335D01*
X129481250Y-110777165D01*
X129426003Y-110947197D01*
X129407315Y-111125000D01*
X127763000Y-111125000D01*
X127763000Y-100263397D01*
X128149281Y-100263397D01*
X128167969Y-100441200D01*
X128223216Y-100611232D01*
X128312607Y-100766062D01*
X128317025Y-100770969D01*
X128317026Y-100770970D01*
X128398218Y-100861142D01*
X128432236Y-100898923D01*
X128437575Y-100902802D01*
X128569986Y-100999005D01*
X128576873Y-101004009D01*
X128582901Y-101006693D01*
X128582903Y-101006694D01*
X128734168Y-101074041D01*
X128740199Y-101076726D01*
X128855505Y-101101235D01*
X128917978Y-101134963D01*
X128952300Y-101197113D01*
X128947572Y-101267952D01*
X128932521Y-101296752D01*
X128888465Y-101359671D01*
X128886144Y-101364649D01*
X128886142Y-101364652D01*
X128833468Y-101477612D01*
X128788597Y-101573837D01*
X128787175Y-101579145D01*
X128787174Y-101579147D01*
X128784936Y-101587500D01*
X128727437Y-101802092D01*
X128706841Y-102037500D01*
X128727437Y-102272908D01*
X128728861Y-102278222D01*
X128728861Y-102278223D01*
X128778973Y-102465244D01*
X128788597Y-102501163D01*
X128790919Y-102506143D01*
X128790920Y-102506145D01*
X128885578Y-102709137D01*
X128888465Y-102715329D01*
X129024005Y-102908901D01*
X129191099Y-103075995D01*
X129195607Y-103079152D01*
X129195610Y-103079154D01*
X129341033Y-103180980D01*
X129384670Y-103211535D01*
X129389652Y-103213858D01*
X129389657Y-103213861D01*
X129593855Y-103309080D01*
X129598837Y-103311403D01*
X129604145Y-103312825D01*
X129604147Y-103312826D01*
X129821777Y-103371139D01*
X129827092Y-103372563D01*
X130062500Y-103393159D01*
X130297908Y-103372563D01*
X130303223Y-103371139D01*
X130520853Y-103312826D01*
X130520855Y-103312825D01*
X130526163Y-103311403D01*
X130531145Y-103309080D01*
X130735343Y-103213861D01*
X130735348Y-103213858D01*
X130740330Y-103211535D01*
X130783967Y-103180980D01*
X130929390Y-103079154D01*
X130929393Y-103079152D01*
X130933901Y-103075995D01*
X131100995Y-102908901D01*
X131236535Y-102715329D01*
X131239423Y-102709137D01*
X131334080Y-102506145D01*
X131334081Y-102506143D01*
X131336403Y-102501163D01*
X131346028Y-102465244D01*
X131396139Y-102278223D01*
X131396139Y-102278222D01*
X131397563Y-102272908D01*
X131418159Y-102037500D01*
X133706841Y-102037500D01*
X133727437Y-102272908D01*
X133728861Y-102278222D01*
X133728861Y-102278223D01*
X133778973Y-102465244D01*
X133788597Y-102501163D01*
X133790919Y-102506143D01*
X133790920Y-102506145D01*
X133885578Y-102709137D01*
X133888465Y-102715329D01*
X134024005Y-102908901D01*
X134191099Y-103075995D01*
X134195607Y-103079152D01*
X134195610Y-103079154D01*
X134341033Y-103180980D01*
X134384670Y-103211535D01*
X134389652Y-103213858D01*
X134389657Y-103213861D01*
X134593855Y-103309080D01*
X134598837Y-103311403D01*
X134604145Y-103312825D01*
X134604147Y-103312826D01*
X134821777Y-103371139D01*
X134827092Y-103372563D01*
X135062500Y-103393159D01*
X135297908Y-103372563D01*
X135303223Y-103371139D01*
X135520853Y-103312826D01*
X135520855Y-103312825D01*
X135526163Y-103311403D01*
X135531145Y-103309080D01*
X135734743Y-103214141D01*
X157760808Y-103214141D01*
X157779496Y-103391944D01*
X157834743Y-103561976D01*
X157838046Y-103567698D01*
X157838047Y-103567699D01*
X157880000Y-103640364D01*
X157924134Y-103716806D01*
X157928552Y-103721713D01*
X157928553Y-103721714D01*
X158003579Y-103805038D01*
X158043763Y-103849667D01*
X158188400Y-103954753D01*
X158194428Y-103957437D01*
X158194430Y-103957438D01*
X158251489Y-103982842D01*
X158351726Y-104027470D01*
X158358181Y-104028842D01*
X158358184Y-104028843D01*
X158419247Y-104041822D01*
X158477361Y-104071433D01*
X158478260Y-104072242D01*
X158483252Y-104077965D01*
X158534894Y-104114259D01*
X158540179Y-104118185D01*
X158583897Y-104152464D01*
X158583901Y-104152466D01*
X158589878Y-104157153D01*
X158596801Y-104160279D01*
X158599749Y-104162064D01*
X158612709Y-104169456D01*
X158615755Y-104171089D01*
X158621968Y-104175456D01*
X158680787Y-104198389D01*
X158686866Y-104200944D01*
X158744405Y-104226924D01*
X158751876Y-104228309D01*
X158755144Y-104229333D01*
X158769585Y-104233446D01*
X158772858Y-104234286D01*
X158779934Y-104237045D01*
X158824604Y-104242925D01*
X158842527Y-104245285D01*
X158849044Y-104246317D01*
X158890456Y-104253992D01*
X158911113Y-104257821D01*
X158918693Y-104257384D01*
X158918694Y-104257384D01*
X158972565Y-104254278D01*
X158979817Y-104254069D01*
X164721591Y-104254069D01*
X164789712Y-104274071D01*
X164823528Y-104306009D01*
X164825372Y-104308547D01*
X164828675Y-104314268D01*
X164948304Y-104447129D01*
X165092941Y-104552215D01*
X165098969Y-104554899D01*
X165098971Y-104554900D01*
X165250236Y-104622247D01*
X165256267Y-104624932D01*
X165343705Y-104643518D01*
X165424686Y-104660731D01*
X165424690Y-104660731D01*
X165431143Y-104662103D01*
X165609925Y-104662103D01*
X165616378Y-104660731D01*
X165616382Y-104660731D01*
X165697363Y-104643518D01*
X165784801Y-104624932D01*
X165790832Y-104622247D01*
X165942097Y-104554900D01*
X165942099Y-104554899D01*
X165948127Y-104552215D01*
X166092764Y-104447129D01*
X166212393Y-104314268D01*
X166247149Y-104254069D01*
X166298480Y-104165161D01*
X166298481Y-104165160D01*
X166301784Y-104159438D01*
X166357031Y-103989406D01*
X166375719Y-103811603D01*
X166357031Y-103633800D01*
X166301784Y-103463768D01*
X166260317Y-103391944D01*
X166215696Y-103314659D01*
X166212393Y-103308938D01*
X166207974Y-103304030D01*
X166097179Y-103180980D01*
X166097177Y-103180979D01*
X166092764Y-103176077D01*
X166063476Y-103154798D01*
X165953469Y-103074872D01*
X165953467Y-103074871D01*
X165948127Y-103070991D01*
X165942099Y-103068307D01*
X165942097Y-103068306D01*
X165790832Y-103000959D01*
X165790831Y-103000959D01*
X165784801Y-102998274D01*
X165682798Y-102976592D01*
X165641358Y-102957222D01*
X165640519Y-102958608D01*
X165634024Y-102954675D01*
X165632843Y-102953749D01*
X165632035Y-102952865D01*
X165631244Y-102952495D01*
X165628043Y-102949985D01*
X165628042Y-102949985D01*
X165628035Y-102949979D01*
X165628664Y-102949177D01*
X165585368Y-102901824D01*
X165573394Y-102831844D01*
X165595330Y-102774176D01*
X165636535Y-102715329D01*
X165639423Y-102709137D01*
X165734080Y-102506145D01*
X165734081Y-102506143D01*
X165736403Y-102501163D01*
X165746028Y-102465244D01*
X165796139Y-102278223D01*
X165796139Y-102278222D01*
X165797563Y-102272908D01*
X165818159Y-102037500D01*
X165797563Y-101802092D01*
X165740064Y-101587500D01*
X165737826Y-101579147D01*
X165737825Y-101579145D01*
X165736403Y-101573837D01*
X165691532Y-101477612D01*
X165638858Y-101364652D01*
X165638856Y-101364649D01*
X165636535Y-101359671D01*
X165500995Y-101166099D01*
X165333901Y-100999005D01*
X165329393Y-100995848D01*
X165329390Y-100995846D01*
X165144839Y-100866622D01*
X165144836Y-100866620D01*
X165140330Y-100863465D01*
X165135348Y-100861142D01*
X165135343Y-100861139D01*
X164931145Y-100765920D01*
X164931144Y-100765919D01*
X164926163Y-100763597D01*
X164920855Y-100762175D01*
X164920853Y-100762174D01*
X164703223Y-100703861D01*
X164703222Y-100703861D01*
X164697908Y-100702437D01*
X164462500Y-100681841D01*
X164227092Y-100702437D01*
X164221778Y-100703861D01*
X164221777Y-100703861D01*
X164004147Y-100762174D01*
X164004145Y-100762175D01*
X163998837Y-100763597D01*
X163993857Y-100765919D01*
X163993855Y-100765920D01*
X163789652Y-100861142D01*
X163789649Y-100861144D01*
X163784671Y-100863465D01*
X163591099Y-100999005D01*
X163424005Y-101166099D01*
X163288465Y-101359671D01*
X163286144Y-101364649D01*
X163286142Y-101364652D01*
X163233468Y-101477612D01*
X163188597Y-101573837D01*
X163187175Y-101579145D01*
X163187174Y-101579147D01*
X163184936Y-101587500D01*
X163127437Y-101802092D01*
X163106841Y-102037500D01*
X163127437Y-102272908D01*
X163128861Y-102278222D01*
X163128861Y-102278223D01*
X163178973Y-102465244D01*
X163188597Y-102501163D01*
X163190919Y-102506143D01*
X163190920Y-102506145D01*
X163269108Y-102673819D01*
X163279769Y-102744011D01*
X163250789Y-102808823D01*
X163191369Y-102847680D01*
X163154913Y-102853069D01*
X160770087Y-102853069D01*
X160701966Y-102833067D01*
X160655473Y-102779411D01*
X160645369Y-102709137D01*
X160655892Y-102673819D01*
X160734080Y-102506145D01*
X160734081Y-102506143D01*
X160736403Y-102501163D01*
X160746028Y-102465244D01*
X160796139Y-102278223D01*
X160796139Y-102278222D01*
X160797563Y-102272908D01*
X160818159Y-102037500D01*
X160797563Y-101802092D01*
X160740064Y-101587500D01*
X160737826Y-101579147D01*
X160737825Y-101579145D01*
X160736403Y-101573837D01*
X160691532Y-101477612D01*
X160638858Y-101364652D01*
X160638856Y-101364649D01*
X160636535Y-101359671D01*
X160500995Y-101166099D01*
X160333901Y-100999005D01*
X160329393Y-100995848D01*
X160329390Y-100995846D01*
X160144839Y-100866622D01*
X160144836Y-100866620D01*
X160140330Y-100863465D01*
X160135348Y-100861142D01*
X160135343Y-100861139D01*
X159931145Y-100765920D01*
X159931144Y-100765919D01*
X159926163Y-100763597D01*
X159920855Y-100762175D01*
X159920853Y-100762174D01*
X159703223Y-100703861D01*
X159703222Y-100703861D01*
X159697908Y-100702437D01*
X159462500Y-100681841D01*
X159227092Y-100702437D01*
X159221778Y-100703861D01*
X159221777Y-100703861D01*
X159004147Y-100762174D01*
X159004145Y-100762175D01*
X158998837Y-100763597D01*
X158993857Y-100765919D01*
X158993855Y-100765920D01*
X158789652Y-100861142D01*
X158789649Y-100861144D01*
X158784671Y-100863465D01*
X158591099Y-100999005D01*
X158424005Y-101166099D01*
X158288465Y-101359671D01*
X158286144Y-101364649D01*
X158286142Y-101364652D01*
X158233468Y-101477612D01*
X158188597Y-101573837D01*
X158187175Y-101579145D01*
X158187174Y-101579147D01*
X158184936Y-101587500D01*
X158127437Y-101802092D01*
X158106841Y-102037500D01*
X158127437Y-102272908D01*
X158128861Y-102278223D01*
X158128862Y-102278226D01*
X158159954Y-102394268D01*
X158158264Y-102465244D01*
X158118469Y-102524040D01*
X158112308Y-102528814D01*
X158043763Y-102578615D01*
X158039350Y-102583517D01*
X158039348Y-102583518D01*
X157928553Y-102706568D01*
X157924134Y-102711476D01*
X157920831Y-102717197D01*
X157853934Y-102833067D01*
X157834743Y-102866306D01*
X157822369Y-102904389D01*
X157792310Y-102996902D01*
X157779496Y-103036338D01*
X157760808Y-103214141D01*
X135734743Y-103214141D01*
X135735343Y-103213861D01*
X135735348Y-103213858D01*
X135740330Y-103211535D01*
X135783967Y-103180980D01*
X135929390Y-103079154D01*
X135929393Y-103079152D01*
X135933901Y-103075995D01*
X136100995Y-102908901D01*
X136236535Y-102715329D01*
X136239423Y-102709137D01*
X136334080Y-102506145D01*
X136334081Y-102506143D01*
X136336403Y-102501163D01*
X136346028Y-102465244D01*
X136396139Y-102278223D01*
X136396139Y-102278222D01*
X136397563Y-102272908D01*
X136418159Y-102037500D01*
X136397563Y-101802092D01*
X136340064Y-101587500D01*
X136337826Y-101579147D01*
X136337825Y-101579145D01*
X136336403Y-101573837D01*
X136291532Y-101477612D01*
X136238858Y-101364652D01*
X136238856Y-101364649D01*
X136236535Y-101359671D01*
X136100995Y-101166099D01*
X135933901Y-100999005D01*
X135929393Y-100995848D01*
X135929390Y-100995846D01*
X135744839Y-100866622D01*
X135744836Y-100866620D01*
X135740330Y-100863465D01*
X135735348Y-100861142D01*
X135735343Y-100861139D01*
X135531145Y-100765920D01*
X135531144Y-100765919D01*
X135526163Y-100763597D01*
X135520855Y-100762175D01*
X135520853Y-100762174D01*
X135303223Y-100703861D01*
X135303222Y-100703861D01*
X135297908Y-100702437D01*
X135062500Y-100681841D01*
X134827092Y-100702437D01*
X134821778Y-100703861D01*
X134821777Y-100703861D01*
X134604147Y-100762174D01*
X134604145Y-100762175D01*
X134598837Y-100763597D01*
X134593857Y-100765919D01*
X134593855Y-100765920D01*
X134389652Y-100861142D01*
X134389649Y-100861144D01*
X134384671Y-100863465D01*
X134191099Y-100999005D01*
X134024005Y-101166099D01*
X133888465Y-101359671D01*
X133886144Y-101364649D01*
X133886142Y-101364652D01*
X133833468Y-101477612D01*
X133788597Y-101573837D01*
X133787175Y-101579145D01*
X133787174Y-101579147D01*
X133784936Y-101587500D01*
X133727437Y-101802092D01*
X133706841Y-102037500D01*
X131418159Y-102037500D01*
X131397563Y-101802092D01*
X131340064Y-101587500D01*
X131337826Y-101579147D01*
X131337825Y-101579145D01*
X131336403Y-101573837D01*
X131289723Y-101473731D01*
X131238862Y-101364661D01*
X131238861Y-101364660D01*
X131236535Y-101359671D01*
X131236334Y-101359384D01*
X131219971Y-101291939D01*
X131243190Y-101224847D01*
X131298995Y-101180958D01*
X131345828Y-101171931D01*
X131958789Y-101171931D01*
X132026910Y-101191933D01*
X132062524Y-101229285D01*
X132063459Y-101228605D01*
X132067338Y-101233944D01*
X132070641Y-101239665D01*
X132075059Y-101244572D01*
X132075060Y-101244573D01*
X132122043Y-101296752D01*
X132190270Y-101372526D01*
X132334907Y-101477612D01*
X132340935Y-101480296D01*
X132340937Y-101480297D01*
X132492202Y-101547644D01*
X132498233Y-101550329D01*
X132585391Y-101568855D01*
X132666652Y-101586128D01*
X132666656Y-101586128D01*
X132673109Y-101587500D01*
X132851891Y-101587500D01*
X132858344Y-101586128D01*
X132858348Y-101586128D01*
X132939609Y-101568855D01*
X133026767Y-101550329D01*
X133032798Y-101547644D01*
X133184063Y-101480297D01*
X133184065Y-101480296D01*
X133190093Y-101477612D01*
X133334730Y-101372526D01*
X133402958Y-101296752D01*
X133449940Y-101244573D01*
X133449941Y-101244572D01*
X133454359Y-101239665D01*
X133481917Y-101191933D01*
X133540446Y-101090558D01*
X133540447Y-101090557D01*
X133543750Y-101084835D01*
X133598997Y-100914803D01*
X133617685Y-100737000D01*
X133598997Y-100559197D01*
X133543750Y-100389165D01*
X133454359Y-100234335D01*
X133334730Y-100101474D01*
X133190093Y-99996388D01*
X133184065Y-99993704D01*
X133184063Y-99993703D01*
X133032798Y-99926356D01*
X133032797Y-99926356D01*
X133026767Y-99923671D01*
X132939329Y-99905086D01*
X132858348Y-99887872D01*
X132858344Y-99887872D01*
X132851891Y-99886500D01*
X132706341Y-99886500D01*
X132686657Y-99884953D01*
X132684893Y-99884674D01*
X132673241Y-99882262D01*
X132636791Y-99872903D01*
X132636786Y-99872902D01*
X132629108Y-99870931D01*
X132608047Y-99870931D01*
X132588335Y-99869380D01*
X132587029Y-99869173D01*
X132567526Y-99866084D01*
X132559635Y-99866830D01*
X132522166Y-99870372D01*
X132510308Y-99870931D01*
X129832694Y-99870931D01*
X129764573Y-99850929D01*
X129723576Y-99807932D01*
X129696325Y-99760732D01*
X129576696Y-99627871D01*
X129432059Y-99522785D01*
X129426031Y-99520101D01*
X129426029Y-99520100D01*
X129274764Y-99452753D01*
X129274763Y-99452753D01*
X129268733Y-99450068D01*
X129181295Y-99431483D01*
X129100314Y-99414269D01*
X129100310Y-99414269D01*
X129093857Y-99412897D01*
X128915075Y-99412897D01*
X128908622Y-99414269D01*
X128908618Y-99414269D01*
X128827637Y-99431483D01*
X128740199Y-99450068D01*
X128734169Y-99452753D01*
X128734168Y-99452753D01*
X128582904Y-99520100D01*
X128582902Y-99520101D01*
X128576874Y-99522785D01*
X128432236Y-99627871D01*
X128312607Y-99760732D01*
X128223216Y-99915562D01*
X128167969Y-100085594D01*
X128149281Y-100263397D01*
X127763000Y-100263397D01*
X127763000Y-90537500D01*
X128407315Y-90537500D01*
X128408005Y-90544065D01*
X128408936Y-90552918D01*
X128426003Y-90715303D01*
X128428043Y-90721580D01*
X128428043Y-90721582D01*
X128457793Y-90813141D01*
X128481250Y-90885335D01*
X128484553Y-90891057D01*
X128484554Y-90891058D01*
X128545053Y-90995846D01*
X128570641Y-91040165D01*
X128575059Y-91045072D01*
X128575060Y-91045073D01*
X128680526Y-91162204D01*
X128690270Y-91173026D01*
X128819291Y-91266766D01*
X128862643Y-91322988D01*
X128868718Y-91393724D01*
X128859423Y-91421951D01*
X128835278Y-91473731D01*
X128788597Y-91573837D01*
X128787175Y-91579145D01*
X128787174Y-91579147D01*
X128784936Y-91587500D01*
X128727437Y-91802092D01*
X128706841Y-92037500D01*
X128727437Y-92272908D01*
X128788597Y-92501163D01*
X128790919Y-92506143D01*
X128790920Y-92506145D01*
X128872586Y-92681276D01*
X128888465Y-92715329D01*
X129024005Y-92908901D01*
X129191099Y-93075995D01*
X129195607Y-93079152D01*
X129195610Y-93079154D01*
X129345263Y-93183942D01*
X129384670Y-93211535D01*
X129389652Y-93213858D01*
X129389657Y-93213861D01*
X129593855Y-93309080D01*
X129598837Y-93311403D01*
X129604145Y-93312825D01*
X129604147Y-93312826D01*
X129803572Y-93366261D01*
X129827092Y-93372563D01*
X130062500Y-93393159D01*
X130297908Y-93372563D01*
X130321428Y-93366261D01*
X130520853Y-93312826D01*
X130520855Y-93312825D01*
X130526163Y-93311403D01*
X130531145Y-93309080D01*
X130735343Y-93213861D01*
X130735348Y-93213858D01*
X130740330Y-93211535D01*
X130779737Y-93183942D01*
X130929390Y-93079154D01*
X130929393Y-93079152D01*
X130933901Y-93075995D01*
X131100995Y-92908901D01*
X131236535Y-92715329D01*
X131252415Y-92681276D01*
X131334080Y-92506145D01*
X131334081Y-92506143D01*
X131336403Y-92501163D01*
X131397563Y-92272908D01*
X131418159Y-92037500D01*
X133706841Y-92037500D01*
X133727437Y-92272908D01*
X133788597Y-92501163D01*
X133790919Y-92506143D01*
X133790920Y-92506145D01*
X133872586Y-92681276D01*
X133888465Y-92715329D01*
X134024005Y-92908901D01*
X134191099Y-93075995D01*
X134195607Y-93079152D01*
X134195610Y-93079154D01*
X134345263Y-93183942D01*
X134384670Y-93211535D01*
X134389652Y-93213858D01*
X134389657Y-93213861D01*
X134593855Y-93309080D01*
X134598837Y-93311403D01*
X134604145Y-93312825D01*
X134604147Y-93312826D01*
X134803572Y-93366261D01*
X134827092Y-93372563D01*
X135062500Y-93393159D01*
X135297908Y-93372563D01*
X135321428Y-93366261D01*
X135520853Y-93312826D01*
X135520855Y-93312825D01*
X135526163Y-93311403D01*
X135531145Y-93309080D01*
X135735343Y-93213861D01*
X135735348Y-93213858D01*
X135740330Y-93211535D01*
X135779737Y-93183942D01*
X135929390Y-93079154D01*
X135929393Y-93079152D01*
X135933901Y-93075995D01*
X136100995Y-92908901D01*
X136236535Y-92715329D01*
X136252415Y-92681276D01*
X136334080Y-92506145D01*
X136334081Y-92506143D01*
X136336403Y-92501163D01*
X136397563Y-92272908D01*
X136418159Y-92037500D01*
X158106841Y-92037500D01*
X158127437Y-92272908D01*
X158188597Y-92501163D01*
X158190919Y-92506143D01*
X158190920Y-92506145D01*
X158272586Y-92681276D01*
X158288465Y-92715329D01*
X158424005Y-92908901D01*
X158591099Y-93075995D01*
X158595607Y-93079152D01*
X158595610Y-93079154D01*
X158745263Y-93183942D01*
X158784670Y-93211535D01*
X158789652Y-93213858D01*
X158789657Y-93213861D01*
X158993855Y-93309080D01*
X158998837Y-93311403D01*
X159004145Y-93312825D01*
X159004147Y-93312826D01*
X159023995Y-93318144D01*
X159084618Y-93355096D01*
X159115639Y-93418956D01*
X159116694Y-93453022D01*
X159107815Y-93537500D01*
X159126503Y-93715303D01*
X159181750Y-93885335D01*
X159271141Y-94040165D01*
X159390770Y-94173026D01*
X159396109Y-94176905D01*
X159480482Y-94238206D01*
X159535407Y-94278112D01*
X159541435Y-94280796D01*
X159541437Y-94280797D01*
X159692702Y-94348144D01*
X159698733Y-94350829D01*
X159786171Y-94369415D01*
X159867152Y-94386628D01*
X159867156Y-94386628D01*
X159873609Y-94388000D01*
X160052391Y-94388000D01*
X160058844Y-94386628D01*
X160058848Y-94386628D01*
X160139829Y-94369414D01*
X160227267Y-94350829D01*
X160233298Y-94348144D01*
X160384563Y-94280797D01*
X160384565Y-94280796D01*
X160390593Y-94278112D01*
X160412681Y-94262064D01*
X160479548Y-94238206D01*
X160486742Y-94238000D01*
X164738758Y-94238000D01*
X164806879Y-94258002D01*
X164812819Y-94262064D01*
X164834907Y-94278112D01*
X164840935Y-94280796D01*
X164840937Y-94280797D01*
X164992202Y-94348144D01*
X164998233Y-94350829D01*
X165085671Y-94369415D01*
X165166652Y-94386628D01*
X165166656Y-94386628D01*
X165173109Y-94388000D01*
X165351891Y-94388000D01*
X165358344Y-94386628D01*
X165358348Y-94386628D01*
X165439329Y-94369414D01*
X165526767Y-94350829D01*
X165532798Y-94348144D01*
X165684063Y-94280797D01*
X165684065Y-94280796D01*
X165690093Y-94278112D01*
X165745019Y-94238206D01*
X165829391Y-94176905D01*
X165834730Y-94173026D01*
X165954359Y-94040165D01*
X166043750Y-93885335D01*
X166098997Y-93715303D01*
X166117685Y-93537500D01*
X166098997Y-93359697D01*
X166082551Y-93309080D01*
X166045792Y-93195950D01*
X166043750Y-93189665D01*
X165954359Y-93034835D01*
X165949940Y-93029927D01*
X165839145Y-92906877D01*
X165839143Y-92906876D01*
X165834730Y-92901974D01*
X165705709Y-92808234D01*
X165662357Y-92752012D01*
X165656282Y-92681276D01*
X165665577Y-92653049D01*
X165734080Y-92506145D01*
X165734081Y-92506143D01*
X165736403Y-92501163D01*
X165797563Y-92272908D01*
X165818159Y-92037500D01*
X165797563Y-91802092D01*
X165740064Y-91587500D01*
X165737826Y-91579147D01*
X165737825Y-91579145D01*
X165736403Y-91573837D01*
X165689724Y-91473734D01*
X165638858Y-91364652D01*
X165638856Y-91364649D01*
X165636535Y-91359671D01*
X165500995Y-91166099D01*
X165333901Y-90999005D01*
X165329393Y-90995848D01*
X165329390Y-90995846D01*
X165144839Y-90866622D01*
X165144836Y-90866620D01*
X165140330Y-90863465D01*
X165135348Y-90861142D01*
X165135343Y-90861139D01*
X164931145Y-90765920D01*
X164931144Y-90765919D01*
X164926163Y-90763597D01*
X164920855Y-90762175D01*
X164920853Y-90762174D01*
X164703223Y-90703861D01*
X164703222Y-90703861D01*
X164697908Y-90702437D01*
X164462500Y-90681841D01*
X164227092Y-90702437D01*
X164221778Y-90703861D01*
X164221777Y-90703861D01*
X164004147Y-90762174D01*
X164004145Y-90762175D01*
X163998837Y-90763597D01*
X163993857Y-90765919D01*
X163993855Y-90765920D01*
X163789652Y-90861142D01*
X163789649Y-90861144D01*
X163784671Y-90863465D01*
X163591099Y-90999005D01*
X163424005Y-91166099D01*
X163288465Y-91359671D01*
X163286144Y-91364649D01*
X163286142Y-91364652D01*
X163235276Y-91473734D01*
X163188597Y-91573837D01*
X163187175Y-91579145D01*
X163187174Y-91579147D01*
X163184936Y-91587500D01*
X163127437Y-91802092D01*
X163106841Y-92037500D01*
X163127437Y-92272908D01*
X163188597Y-92501163D01*
X163190919Y-92506143D01*
X163190920Y-92506145D01*
X163261615Y-92657750D01*
X163272276Y-92727942D01*
X163243296Y-92792754D01*
X163183876Y-92831611D01*
X163147420Y-92837000D01*
X160777580Y-92837000D01*
X160709459Y-92816998D01*
X160662966Y-92763342D01*
X160652862Y-92693068D01*
X160663385Y-92657750D01*
X160734080Y-92506145D01*
X160734081Y-92506143D01*
X160736403Y-92501163D01*
X160797563Y-92272908D01*
X160818159Y-92037500D01*
X160797563Y-91802092D01*
X160740064Y-91587500D01*
X160737826Y-91579147D01*
X160737825Y-91579145D01*
X160736403Y-91573837D01*
X160689724Y-91473734D01*
X160638858Y-91364652D01*
X160638856Y-91364649D01*
X160636535Y-91359671D01*
X160500995Y-91166099D01*
X160333901Y-90999005D01*
X160329393Y-90995848D01*
X160329390Y-90995846D01*
X160144839Y-90866622D01*
X160144836Y-90866620D01*
X160140330Y-90863465D01*
X160135348Y-90861142D01*
X160135343Y-90861139D01*
X159931145Y-90765920D01*
X159931144Y-90765919D01*
X159926163Y-90763597D01*
X159920855Y-90762175D01*
X159920853Y-90762174D01*
X159703223Y-90703861D01*
X159703222Y-90703861D01*
X159697908Y-90702437D01*
X159462500Y-90681841D01*
X159227092Y-90702437D01*
X159221778Y-90703861D01*
X159221777Y-90703861D01*
X159004147Y-90762174D01*
X159004145Y-90762175D01*
X158998837Y-90763597D01*
X158993857Y-90765919D01*
X158993855Y-90765920D01*
X158789652Y-90861142D01*
X158789649Y-90861144D01*
X158784671Y-90863465D01*
X158591099Y-90999005D01*
X158424005Y-91166099D01*
X158288465Y-91359671D01*
X158286144Y-91364649D01*
X158286142Y-91364652D01*
X158235276Y-91473734D01*
X158188597Y-91573837D01*
X158187175Y-91579145D01*
X158187174Y-91579147D01*
X158184936Y-91587500D01*
X158127437Y-91802092D01*
X158106841Y-92037500D01*
X136418159Y-92037500D01*
X136397563Y-91802092D01*
X136340064Y-91587500D01*
X136337826Y-91579147D01*
X136337825Y-91579145D01*
X136336403Y-91573837D01*
X136289724Y-91473734D01*
X136238858Y-91364652D01*
X136238856Y-91364649D01*
X136236535Y-91359671D01*
X136100995Y-91166099D01*
X135933901Y-90999005D01*
X135929393Y-90995848D01*
X135929390Y-90995846D01*
X135744839Y-90866622D01*
X135744836Y-90866620D01*
X135740330Y-90863465D01*
X135735348Y-90861142D01*
X135735343Y-90861139D01*
X135531145Y-90765920D01*
X135531144Y-90765919D01*
X135526163Y-90763597D01*
X135520855Y-90762175D01*
X135520853Y-90762174D01*
X135303223Y-90703861D01*
X135303222Y-90703861D01*
X135297908Y-90702437D01*
X135062500Y-90681841D01*
X134827092Y-90702437D01*
X134821778Y-90703861D01*
X134821777Y-90703861D01*
X134604147Y-90762174D01*
X134604145Y-90762175D01*
X134598837Y-90763597D01*
X134593857Y-90765919D01*
X134593855Y-90765920D01*
X134389652Y-90861142D01*
X134389649Y-90861144D01*
X134384671Y-90863465D01*
X134191099Y-90999005D01*
X134024005Y-91166099D01*
X133888465Y-91359671D01*
X133886144Y-91364649D01*
X133886142Y-91364652D01*
X133835276Y-91473734D01*
X133788597Y-91573837D01*
X133787175Y-91579145D01*
X133787174Y-91579147D01*
X133784936Y-91587500D01*
X133727437Y-91802092D01*
X133706841Y-92037500D01*
X131418159Y-92037500D01*
X131397563Y-91802092D01*
X131340064Y-91587500D01*
X131337826Y-91579147D01*
X131337825Y-91579145D01*
X131336403Y-91573837D01*
X131333100Y-91566754D01*
X131332946Y-91565740D01*
X131332197Y-91563682D01*
X131332610Y-91563532D01*
X131322437Y-91496562D01*
X131351414Y-91431749D01*
X131410833Y-91392890D01*
X131447293Y-91387500D01*
X132169939Y-91387500D01*
X132238060Y-91407502D01*
X132243998Y-91411562D01*
X132334907Y-91477612D01*
X132340934Y-91480295D01*
X132340935Y-91480296D01*
X132492202Y-91547644D01*
X132498233Y-91550329D01*
X132575507Y-91566754D01*
X132666652Y-91586128D01*
X132666656Y-91586128D01*
X132673109Y-91587500D01*
X132851891Y-91587500D01*
X132858344Y-91586128D01*
X132858348Y-91586128D01*
X132949493Y-91566754D01*
X133026767Y-91550329D01*
X133032798Y-91547644D01*
X133184063Y-91480297D01*
X133184065Y-91480296D01*
X133190093Y-91477612D01*
X133253218Y-91431749D01*
X133329391Y-91376405D01*
X133334730Y-91372526D01*
X133379335Y-91322988D01*
X133449940Y-91244573D01*
X133449941Y-91244572D01*
X133454359Y-91239665D01*
X133543750Y-91084835D01*
X133598997Y-90914803D01*
X133617685Y-90737000D01*
X133616995Y-90730435D01*
X133599687Y-90565761D01*
X133599687Y-90565760D01*
X133598997Y-90559197D01*
X133543750Y-90389165D01*
X133530527Y-90366261D01*
X133457662Y-90240056D01*
X133454359Y-90234335D01*
X133334730Y-90101474D01*
X133280999Y-90062436D01*
X133195435Y-90000269D01*
X133195433Y-90000268D01*
X133190093Y-89996388D01*
X133184065Y-89993704D01*
X133184063Y-89993703D01*
X133032798Y-89926356D01*
X133032797Y-89926356D01*
X133026767Y-89923671D01*
X132924691Y-89901974D01*
X132858348Y-89887872D01*
X132858344Y-89887872D01*
X132851891Y-89886500D01*
X132673109Y-89886500D01*
X132666656Y-89887872D01*
X132666652Y-89887872D01*
X132600309Y-89901974D01*
X132498233Y-89923671D01*
X132492203Y-89926356D01*
X132492202Y-89926356D01*
X132340938Y-89993703D01*
X132340936Y-89993704D01*
X132334908Y-89996388D01*
X132329567Y-90000268D01*
X132329566Y-90000269D01*
X132244001Y-90062436D01*
X132177133Y-90086294D01*
X132169940Y-90086500D01*
X130055243Y-90086500D01*
X129987122Y-90066498D01*
X129955273Y-90036417D01*
X129954359Y-90034835D01*
X129917324Y-89993703D01*
X129839145Y-89906877D01*
X129839143Y-89906876D01*
X129834730Y-89901974D01*
X129690093Y-89796888D01*
X129684065Y-89794204D01*
X129684063Y-89794203D01*
X129532798Y-89726856D01*
X129532797Y-89726856D01*
X129526767Y-89724171D01*
X129439329Y-89705585D01*
X129358348Y-89688372D01*
X129358344Y-89688372D01*
X129351891Y-89687000D01*
X129173109Y-89687000D01*
X129166656Y-89688372D01*
X129166652Y-89688372D01*
X129085671Y-89705585D01*
X128998233Y-89724171D01*
X128992203Y-89726856D01*
X128992202Y-89726856D01*
X128840938Y-89794203D01*
X128840936Y-89794204D01*
X128834908Y-89796888D01*
X128690270Y-89901974D01*
X128685857Y-89906876D01*
X128685855Y-89906877D01*
X128605259Y-89996388D01*
X128570641Y-90034835D01*
X128567338Y-90040556D01*
X128534407Y-90097595D01*
X128481250Y-90189665D01*
X128426003Y-90359697D01*
X128407315Y-90537500D01*
X127763000Y-90537500D01*
X127763000Y-82037500D01*
X128706841Y-82037500D01*
X128727437Y-82272908D01*
X128788597Y-82501163D01*
X128790919Y-82506143D01*
X128790920Y-82506145D01*
X128880368Y-82697964D01*
X128888465Y-82715329D01*
X129024005Y-82908901D01*
X129191099Y-83075995D01*
X129195607Y-83079152D01*
X129195610Y-83079154D01*
X129380161Y-83208378D01*
X129384670Y-83211535D01*
X129389652Y-83213858D01*
X129389657Y-83213861D01*
X129587201Y-83305977D01*
X129598837Y-83311403D01*
X129604145Y-83312825D01*
X129604147Y-83312826D01*
X129821777Y-83371139D01*
X129827092Y-83372563D01*
X130062500Y-83393159D01*
X130297908Y-83372563D01*
X130303223Y-83371139D01*
X130520853Y-83312826D01*
X130520855Y-83312825D01*
X130526163Y-83311403D01*
X130537799Y-83305977D01*
X130735343Y-83213861D01*
X130735348Y-83213858D01*
X130740330Y-83211535D01*
X130744839Y-83208378D01*
X130929390Y-83079154D01*
X130929393Y-83079152D01*
X130933901Y-83075995D01*
X131100995Y-82908901D01*
X131236535Y-82715329D01*
X131244633Y-82697964D01*
X131334080Y-82506145D01*
X131334081Y-82506143D01*
X131336403Y-82501163D01*
X131397563Y-82272908D01*
X131418159Y-82037500D01*
X133706841Y-82037500D01*
X133727437Y-82272908D01*
X133788597Y-82501163D01*
X133790919Y-82506143D01*
X133790920Y-82506145D01*
X133880368Y-82697964D01*
X133888465Y-82715329D01*
X134024005Y-82908901D01*
X134191099Y-83075995D01*
X134195607Y-83079152D01*
X134195610Y-83079154D01*
X134380161Y-83208378D01*
X134384670Y-83211535D01*
X134389652Y-83213858D01*
X134389657Y-83213861D01*
X134587201Y-83305977D01*
X134598837Y-83311403D01*
X134604145Y-83312825D01*
X134604147Y-83312826D01*
X134821777Y-83371139D01*
X134827092Y-83372563D01*
X135062500Y-83393159D01*
X135297908Y-83372563D01*
X135303223Y-83371139D01*
X135520853Y-83312826D01*
X135520855Y-83312825D01*
X135526163Y-83311403D01*
X135537799Y-83305977D01*
X135735343Y-83213861D01*
X135735348Y-83213858D01*
X135740330Y-83211535D01*
X135744839Y-83208378D01*
X135929390Y-83079154D01*
X135929393Y-83079152D01*
X135933901Y-83075995D01*
X136100995Y-82908901D01*
X136236535Y-82715329D01*
X136244633Y-82697964D01*
X136334080Y-82506145D01*
X136334081Y-82506143D01*
X136336403Y-82501163D01*
X136397563Y-82272908D01*
X136418159Y-82037500D01*
X158106841Y-82037500D01*
X158127437Y-82272908D01*
X158188597Y-82501163D01*
X158190919Y-82506143D01*
X158190920Y-82506145D01*
X158280368Y-82697964D01*
X158288465Y-82715329D01*
X158424005Y-82908901D01*
X158591099Y-83075995D01*
X158595607Y-83079152D01*
X158595610Y-83079154D01*
X158780161Y-83208378D01*
X158784670Y-83211535D01*
X158789652Y-83213858D01*
X158789657Y-83213861D01*
X158987201Y-83305977D01*
X158998837Y-83311403D01*
X159004145Y-83312825D01*
X159004147Y-83312826D01*
X159221777Y-83371139D01*
X159227092Y-83372563D01*
X159462500Y-83393159D01*
X159697908Y-83372563D01*
X159749351Y-83358779D01*
X159820328Y-83360469D01*
X159879123Y-83400263D01*
X159907071Y-83465528D01*
X159907272Y-83493656D01*
X159903146Y-83532915D01*
X159921834Y-83710718D01*
X159977081Y-83880750D01*
X160066472Y-84035580D01*
X160070890Y-84040487D01*
X160070891Y-84040488D01*
X160166731Y-84146928D01*
X160186101Y-84168441D01*
X160191440Y-84172320D01*
X160290448Y-84244254D01*
X160330738Y-84273527D01*
X160336766Y-84276211D01*
X160336768Y-84276212D01*
X160488033Y-84343559D01*
X160494064Y-84346244D01*
X160581502Y-84364830D01*
X160662483Y-84382043D01*
X160662487Y-84382043D01*
X160668940Y-84383415D01*
X160847722Y-84383415D01*
X160854175Y-84382043D01*
X160854179Y-84382043D01*
X160935160Y-84364830D01*
X161022598Y-84346244D01*
X161028629Y-84343559D01*
X161179894Y-84276212D01*
X161179896Y-84276211D01*
X161185924Y-84273527D01*
X161217178Y-84250820D01*
X161242961Y-84232087D01*
X161309829Y-84208229D01*
X161317022Y-84208023D01*
X164268735Y-84208023D01*
X164336856Y-84228025D01*
X164342796Y-84232087D01*
X164364884Y-84248135D01*
X164370912Y-84250819D01*
X164370914Y-84250820D01*
X164427946Y-84276212D01*
X164528210Y-84320852D01*
X164615648Y-84339437D01*
X164696629Y-84356651D01*
X164696633Y-84356651D01*
X164703086Y-84358023D01*
X164881868Y-84358023D01*
X164888321Y-84356651D01*
X164888325Y-84356651D01*
X164969306Y-84339438D01*
X165056744Y-84320852D01*
X165157008Y-84276212D01*
X165214040Y-84250820D01*
X165214042Y-84250819D01*
X165220070Y-84248135D01*
X165274996Y-84208229D01*
X165359368Y-84146928D01*
X165364707Y-84143049D01*
X165484336Y-84010188D01*
X165573727Y-83855358D01*
X165597184Y-83783164D01*
X165626934Y-83691605D01*
X165626934Y-83691603D01*
X165628974Y-83685326D01*
X165647662Y-83507523D01*
X165628974Y-83329720D01*
X165623023Y-83311403D01*
X165575769Y-83165973D01*
X165573727Y-83159688D01*
X165501634Y-83034820D01*
X165484897Y-82965827D01*
X165507540Y-82899554D01*
X165636535Y-82715329D01*
X165644633Y-82697964D01*
X165734080Y-82506145D01*
X165734081Y-82506143D01*
X165736403Y-82501163D01*
X165797563Y-82272908D01*
X165818159Y-82037500D01*
X165797563Y-81802092D01*
X165740064Y-81587500D01*
X165737826Y-81579147D01*
X165737825Y-81579145D01*
X165736403Y-81573837D01*
X165689724Y-81473734D01*
X165638858Y-81364652D01*
X165638856Y-81364649D01*
X165636535Y-81359671D01*
X165500995Y-81166099D01*
X165333901Y-80999005D01*
X165329393Y-80995848D01*
X165329390Y-80995846D01*
X165144839Y-80866622D01*
X165144836Y-80866620D01*
X165140330Y-80863465D01*
X165135348Y-80861142D01*
X165135343Y-80861139D01*
X164931145Y-80765920D01*
X164931144Y-80765919D01*
X164926163Y-80763597D01*
X164920855Y-80762175D01*
X164920853Y-80762174D01*
X164703223Y-80703861D01*
X164703222Y-80703861D01*
X164697908Y-80702437D01*
X164462500Y-80681841D01*
X164227092Y-80702437D01*
X164221778Y-80703861D01*
X164221777Y-80703861D01*
X164004147Y-80762174D01*
X164004145Y-80762175D01*
X163998837Y-80763597D01*
X163993857Y-80765919D01*
X163993855Y-80765920D01*
X163789652Y-80861142D01*
X163789649Y-80861144D01*
X163784671Y-80863465D01*
X163591099Y-80999005D01*
X163424005Y-81166099D01*
X163288465Y-81359671D01*
X163286144Y-81364649D01*
X163286142Y-81364652D01*
X163235276Y-81473734D01*
X163188597Y-81573837D01*
X163187175Y-81579145D01*
X163187174Y-81579147D01*
X163184936Y-81587500D01*
X163127437Y-81802092D01*
X163106841Y-82037500D01*
X163127437Y-82272908D01*
X163188597Y-82501163D01*
X163190919Y-82506143D01*
X163190920Y-82506145D01*
X163247637Y-82627773D01*
X163258298Y-82697964D01*
X163229318Y-82762777D01*
X163169899Y-82801634D01*
X163133442Y-82807023D01*
X161243802Y-82807023D01*
X161186237Y-82791599D01*
X161185924Y-82792303D01*
X161119608Y-82762777D01*
X161028629Y-82722271D01*
X161028628Y-82722271D01*
X161022598Y-82719586D01*
X160911893Y-82696055D01*
X160854178Y-82683787D01*
X160854176Y-82683787D01*
X160847722Y-82682415D01*
X160841119Y-82682415D01*
X160836407Y-82681920D01*
X160770750Y-82654909D01*
X160730118Y-82596689D01*
X160727413Y-82525744D01*
X160732506Y-82511430D01*
X160732197Y-82511318D01*
X160734080Y-82506145D01*
X160736403Y-82501163D01*
X160797563Y-82272908D01*
X160818159Y-82037500D01*
X160797563Y-81802092D01*
X160740064Y-81587500D01*
X160737826Y-81579147D01*
X160737825Y-81579145D01*
X160736403Y-81573837D01*
X160689724Y-81473734D01*
X160638858Y-81364652D01*
X160638856Y-81364649D01*
X160636535Y-81359671D01*
X160500995Y-81166099D01*
X160333901Y-80999005D01*
X160329393Y-80995848D01*
X160329390Y-80995846D01*
X160144839Y-80866622D01*
X160144836Y-80866620D01*
X160140330Y-80863465D01*
X160135348Y-80861142D01*
X160135343Y-80861139D01*
X159931145Y-80765920D01*
X159931144Y-80765919D01*
X159926163Y-80763597D01*
X159920855Y-80762175D01*
X159920853Y-80762174D01*
X159703223Y-80703861D01*
X159703222Y-80703861D01*
X159697908Y-80702437D01*
X159462500Y-80681841D01*
X159227092Y-80702437D01*
X159221778Y-80703861D01*
X159221777Y-80703861D01*
X159004147Y-80762174D01*
X159004145Y-80762175D01*
X158998837Y-80763597D01*
X158993857Y-80765919D01*
X158993855Y-80765920D01*
X158789652Y-80861142D01*
X158789649Y-80861144D01*
X158784671Y-80863465D01*
X158591099Y-80999005D01*
X158424005Y-81166099D01*
X158288465Y-81359671D01*
X158286144Y-81364649D01*
X158286142Y-81364652D01*
X158235276Y-81473734D01*
X158188597Y-81573837D01*
X158187175Y-81579145D01*
X158187174Y-81579147D01*
X158184936Y-81587500D01*
X158127437Y-81802092D01*
X158106841Y-82037500D01*
X136418159Y-82037500D01*
X136397563Y-81802092D01*
X136340064Y-81587500D01*
X136337826Y-81579147D01*
X136337825Y-81579145D01*
X136336403Y-81573837D01*
X136289724Y-81473734D01*
X136238858Y-81364652D01*
X136238856Y-81364649D01*
X136236535Y-81359671D01*
X136100995Y-81166099D01*
X135933901Y-80999005D01*
X135929393Y-80995848D01*
X135929390Y-80995846D01*
X135744839Y-80866622D01*
X135744836Y-80866620D01*
X135740330Y-80863465D01*
X135735348Y-80861142D01*
X135735343Y-80861139D01*
X135531145Y-80765920D01*
X135531144Y-80765919D01*
X135526163Y-80763597D01*
X135520855Y-80762175D01*
X135520853Y-80762174D01*
X135303223Y-80703861D01*
X135303222Y-80703861D01*
X135297908Y-80702437D01*
X135062500Y-80681841D01*
X134827092Y-80702437D01*
X134821778Y-80703861D01*
X134821777Y-80703861D01*
X134604147Y-80762174D01*
X134604145Y-80762175D01*
X134598837Y-80763597D01*
X134593857Y-80765919D01*
X134593855Y-80765920D01*
X134389652Y-80861142D01*
X134389649Y-80861144D01*
X134384671Y-80863465D01*
X134191099Y-80999005D01*
X134024005Y-81166099D01*
X133888465Y-81359671D01*
X133886144Y-81364649D01*
X133886142Y-81364652D01*
X133835276Y-81473734D01*
X133788597Y-81573837D01*
X133787175Y-81579145D01*
X133787174Y-81579147D01*
X133784936Y-81587500D01*
X133727437Y-81802092D01*
X133706841Y-82037500D01*
X131418159Y-82037500D01*
X131397563Y-81802092D01*
X131340064Y-81587500D01*
X131337826Y-81579147D01*
X131337825Y-81579145D01*
X131336403Y-81573837D01*
X131333100Y-81566754D01*
X131332946Y-81565740D01*
X131332197Y-81563682D01*
X131332610Y-81563532D01*
X131322437Y-81496562D01*
X131351414Y-81431749D01*
X131410833Y-81392890D01*
X131447293Y-81387500D01*
X131669439Y-81387500D01*
X131737560Y-81407502D01*
X131743498Y-81411562D01*
X131834407Y-81477612D01*
X131840434Y-81480295D01*
X131840435Y-81480296D01*
X131991702Y-81547644D01*
X131997733Y-81550329D01*
X132075007Y-81566754D01*
X132166152Y-81586128D01*
X132166156Y-81586128D01*
X132172609Y-81587500D01*
X132351391Y-81587500D01*
X132357844Y-81586128D01*
X132357848Y-81586128D01*
X132448993Y-81566754D01*
X132526267Y-81550329D01*
X132532298Y-81547644D01*
X132683563Y-81480297D01*
X132683565Y-81480296D01*
X132689593Y-81477612D01*
X132752718Y-81431749D01*
X132828891Y-81376405D01*
X132834230Y-81372526D01*
X132953859Y-81239665D01*
X133043250Y-81084835D01*
X133098497Y-80914803D01*
X133117185Y-80737000D01*
X133098497Y-80559197D01*
X133043250Y-80389165D01*
X133030027Y-80366261D01*
X132957162Y-80240056D01*
X132953859Y-80234335D01*
X132834230Y-80101474D01*
X132780499Y-80062436D01*
X132694935Y-80000269D01*
X132694933Y-80000268D01*
X132689593Y-79996388D01*
X132683565Y-79993704D01*
X132683563Y-79993703D01*
X132532298Y-79926356D01*
X132532297Y-79926356D01*
X132526267Y-79923671D01*
X132424191Y-79901974D01*
X132357848Y-79887872D01*
X132357844Y-79887872D01*
X132351391Y-79886500D01*
X132172609Y-79886500D01*
X132166156Y-79887872D01*
X132166152Y-79887872D01*
X132099809Y-79901974D01*
X131997733Y-79923671D01*
X131991703Y-79926356D01*
X131991702Y-79926356D01*
X131840438Y-79993703D01*
X131840436Y-79993704D01*
X131834408Y-79996388D01*
X131829067Y-80000268D01*
X131829066Y-80000269D01*
X131743501Y-80062436D01*
X131676633Y-80086294D01*
X131669440Y-80086500D01*
X131555243Y-80086500D01*
X131487122Y-80066498D01*
X131455273Y-80036417D01*
X131454359Y-80034835D01*
X131417324Y-79993703D01*
X131339145Y-79906877D01*
X131339143Y-79906876D01*
X131334730Y-79901974D01*
X131190093Y-79796888D01*
X131184065Y-79794204D01*
X131184063Y-79794203D01*
X131032798Y-79726856D01*
X131032797Y-79726856D01*
X131026767Y-79724171D01*
X130939329Y-79705585D01*
X130858348Y-79688372D01*
X130858344Y-79688372D01*
X130851891Y-79687000D01*
X130673109Y-79687000D01*
X130666656Y-79688372D01*
X130666652Y-79688372D01*
X130585671Y-79705585D01*
X130498233Y-79724171D01*
X130492203Y-79726856D01*
X130492202Y-79726856D01*
X130340938Y-79794203D01*
X130340936Y-79794204D01*
X130334908Y-79796888D01*
X130190270Y-79901974D01*
X130185857Y-79906876D01*
X130185855Y-79906877D01*
X130105259Y-79996388D01*
X130070641Y-80034835D01*
X130067338Y-80040556D01*
X130034407Y-80097595D01*
X129981250Y-80189665D01*
X129926003Y-80359697D01*
X129907315Y-80537500D01*
X129910730Y-80569988D01*
X129897959Y-80639824D01*
X129849458Y-80691672D01*
X129818032Y-80704865D01*
X129731076Y-80728164D01*
X129604147Y-80762174D01*
X129604145Y-80762175D01*
X129598837Y-80763597D01*
X129593857Y-80765919D01*
X129593855Y-80765920D01*
X129389652Y-80861142D01*
X129389649Y-80861144D01*
X129384671Y-80863465D01*
X129191099Y-80999005D01*
X129024005Y-81166099D01*
X128888465Y-81359671D01*
X128886144Y-81364649D01*
X128886142Y-81364652D01*
X128835276Y-81473734D01*
X128788597Y-81573837D01*
X128787175Y-81579145D01*
X128787174Y-81579147D01*
X128784936Y-81587500D01*
X128727437Y-81802092D01*
X128706841Y-82037500D01*
X127763000Y-82037500D01*
X127763000Y-72037500D01*
X128706841Y-72037500D01*
X128727437Y-72272908D01*
X128728861Y-72278222D01*
X128728861Y-72278223D01*
X128785304Y-72488872D01*
X128788597Y-72501163D01*
X128790919Y-72506143D01*
X128790920Y-72506145D01*
X128882471Y-72702474D01*
X128888465Y-72715329D01*
X129024005Y-72908901D01*
X129191099Y-73075995D01*
X129195607Y-73079152D01*
X129195610Y-73079154D01*
X129320726Y-73166761D01*
X129384670Y-73211535D01*
X129389652Y-73213858D01*
X129389657Y-73213861D01*
X129593855Y-73309080D01*
X129598837Y-73311403D01*
X129604145Y-73312825D01*
X129604147Y-73312826D01*
X129821777Y-73371139D01*
X129827092Y-73372563D01*
X130062500Y-73393159D01*
X130297908Y-73372563D01*
X130303223Y-73371139D01*
X130520853Y-73312826D01*
X130520855Y-73312825D01*
X130526163Y-73311403D01*
X130531145Y-73309080D01*
X130735343Y-73213861D01*
X130735348Y-73213858D01*
X130740330Y-73211535D01*
X130804274Y-73166761D01*
X130929390Y-73079154D01*
X130929393Y-73079152D01*
X130933901Y-73075995D01*
X131100995Y-72908901D01*
X131236535Y-72715329D01*
X131242530Y-72702474D01*
X131334080Y-72506145D01*
X131334081Y-72506143D01*
X131336403Y-72501163D01*
X131339697Y-72488872D01*
X131396139Y-72278223D01*
X131396139Y-72278222D01*
X131397563Y-72272908D01*
X131418159Y-72037500D01*
X133706841Y-72037500D01*
X133727437Y-72272908D01*
X133728861Y-72278222D01*
X133728861Y-72278223D01*
X133785304Y-72488872D01*
X133788597Y-72501163D01*
X133790919Y-72506143D01*
X133790920Y-72506145D01*
X133882471Y-72702474D01*
X133888465Y-72715329D01*
X134024005Y-72908901D01*
X134191099Y-73075995D01*
X134195607Y-73079152D01*
X134195610Y-73079154D01*
X134320726Y-73166761D01*
X134384670Y-73211535D01*
X134389652Y-73213858D01*
X134389657Y-73213861D01*
X134593855Y-73309080D01*
X134598837Y-73311403D01*
X134604145Y-73312825D01*
X134604147Y-73312826D01*
X134821777Y-73371139D01*
X134827092Y-73372563D01*
X135062500Y-73393159D01*
X135297908Y-73372563D01*
X135303223Y-73371139D01*
X135520853Y-73312826D01*
X135520855Y-73312825D01*
X135526163Y-73311403D01*
X135531145Y-73309080D01*
X135735343Y-73213861D01*
X135735348Y-73213858D01*
X135740330Y-73211535D01*
X135804274Y-73166761D01*
X135929390Y-73079154D01*
X135929393Y-73079152D01*
X135933901Y-73075995D01*
X136100995Y-72908901D01*
X136236535Y-72715329D01*
X136242530Y-72702474D01*
X136334080Y-72506145D01*
X136334081Y-72506143D01*
X136336403Y-72501163D01*
X136339697Y-72488872D01*
X136396139Y-72278223D01*
X136396139Y-72278222D01*
X136397563Y-72272908D01*
X136418159Y-72037500D01*
X158106841Y-72037500D01*
X158127437Y-72272908D01*
X158128861Y-72278222D01*
X158128861Y-72278223D01*
X158185304Y-72488872D01*
X158188597Y-72501163D01*
X158190919Y-72506143D01*
X158190920Y-72506145D01*
X158282471Y-72702474D01*
X158288465Y-72715329D01*
X158424005Y-72908901D01*
X158591099Y-73075995D01*
X158595607Y-73079152D01*
X158595610Y-73079154D01*
X158720726Y-73166761D01*
X158784670Y-73211535D01*
X158789652Y-73213858D01*
X158789657Y-73213861D01*
X158993855Y-73309080D01*
X158998837Y-73311403D01*
X159004145Y-73312825D01*
X159004147Y-73312826D01*
X159221777Y-73371139D01*
X159227092Y-73372563D01*
X159462500Y-73393159D01*
X159697908Y-73372563D01*
X159703223Y-73371139D01*
X159826901Y-73338000D01*
X161407315Y-73338000D01*
X161426003Y-73515803D01*
X161481250Y-73685835D01*
X161570641Y-73840665D01*
X161575059Y-73845572D01*
X161575060Y-73845573D01*
X161635016Y-73912160D01*
X161690270Y-73973526D01*
X161695609Y-73977405D01*
X161801887Y-74054621D01*
X161834907Y-74078612D01*
X161840935Y-74081296D01*
X161840937Y-74081297D01*
X161992202Y-74148644D01*
X161998233Y-74151329D01*
X162085671Y-74169915D01*
X162166652Y-74187128D01*
X162166656Y-74187128D01*
X162173109Y-74188500D01*
X162351891Y-74188500D01*
X162358344Y-74187128D01*
X162358348Y-74187128D01*
X162439329Y-74169915D01*
X162526767Y-74151329D01*
X162532798Y-74148644D01*
X162684063Y-74081297D01*
X162684065Y-74081296D01*
X162690093Y-74078612D01*
X162712181Y-74062564D01*
X162779048Y-74038706D01*
X162786242Y-74038500D01*
X163381980Y-74038500D01*
X163450101Y-74058502D01*
X163456041Y-74062564D01*
X163579065Y-74151947D01*
X163584407Y-74155828D01*
X163590435Y-74158512D01*
X163590437Y-74158513D01*
X163741702Y-74225860D01*
X163747733Y-74228545D01*
X163835171Y-74247130D01*
X163916152Y-74264344D01*
X163916156Y-74264344D01*
X163922609Y-74265716D01*
X164101391Y-74265716D01*
X164107844Y-74264344D01*
X164107848Y-74264344D01*
X164188829Y-74247130D01*
X164276267Y-74228545D01*
X164282298Y-74225860D01*
X164433563Y-74158513D01*
X164433565Y-74158512D01*
X164439593Y-74155828D01*
X164445786Y-74151329D01*
X164578891Y-74054621D01*
X164584230Y-74050742D01*
X164595068Y-74038706D01*
X164699440Y-73922789D01*
X164699441Y-73922788D01*
X164703859Y-73917881D01*
X164793250Y-73763051D01*
X164848497Y-73593019D01*
X164867185Y-73415216D01*
X164867735Y-73415274D01*
X164886497Y-73351377D01*
X164939245Y-73305303D01*
X165135343Y-73213861D01*
X165135348Y-73213858D01*
X165140330Y-73211535D01*
X165204274Y-73166761D01*
X165329390Y-73079154D01*
X165329393Y-73079152D01*
X165333901Y-73075995D01*
X165500995Y-72908901D01*
X165636535Y-72715329D01*
X165642530Y-72702474D01*
X165734080Y-72506145D01*
X165734081Y-72506143D01*
X165736403Y-72501163D01*
X165739697Y-72488872D01*
X165796139Y-72278223D01*
X165796139Y-72278222D01*
X165797563Y-72272908D01*
X165818159Y-72037500D01*
X165797563Y-71802092D01*
X165736403Y-71573837D01*
X165636535Y-71359671D01*
X165500995Y-71166099D01*
X165333901Y-70999005D01*
X165329393Y-70995848D01*
X165329390Y-70995846D01*
X165144839Y-70866622D01*
X165144836Y-70866620D01*
X165140330Y-70863465D01*
X165135348Y-70861142D01*
X165135343Y-70861139D01*
X164931145Y-70765920D01*
X164931144Y-70765919D01*
X164926163Y-70763597D01*
X164920855Y-70762175D01*
X164920853Y-70762174D01*
X164703223Y-70703861D01*
X164703222Y-70703861D01*
X164697908Y-70702437D01*
X164462500Y-70681841D01*
X164227092Y-70702437D01*
X164221778Y-70703861D01*
X164221777Y-70703861D01*
X164004147Y-70762174D01*
X164004145Y-70762175D01*
X163998837Y-70763597D01*
X163993857Y-70765919D01*
X163993855Y-70765920D01*
X163789652Y-70861142D01*
X163789649Y-70861144D01*
X163784671Y-70863465D01*
X163591099Y-70999005D01*
X163424005Y-71166099D01*
X163288465Y-71359671D01*
X163188597Y-71573837D01*
X163127437Y-71802092D01*
X163106841Y-72037500D01*
X163127437Y-72272908D01*
X163128861Y-72278222D01*
X163128861Y-72278223D01*
X163182629Y-72478889D01*
X163180939Y-72549866D01*
X163141145Y-72608661D01*
X163075880Y-72636609D01*
X163060922Y-72637500D01*
X162786242Y-72637500D01*
X162718121Y-72617498D01*
X162712181Y-72613436D01*
X162695435Y-72601269D01*
X162695434Y-72601268D01*
X162690093Y-72597388D01*
X162684065Y-72594704D01*
X162684063Y-72594703D01*
X162532798Y-72527356D01*
X162532797Y-72527356D01*
X162526767Y-72524671D01*
X162439329Y-72506086D01*
X162358348Y-72488872D01*
X162358344Y-72488872D01*
X162351891Y-72487500D01*
X162173109Y-72487500D01*
X162166656Y-72488872D01*
X162166652Y-72488872D01*
X162085671Y-72506086D01*
X161998233Y-72524671D01*
X161992203Y-72527356D01*
X161992202Y-72527356D01*
X161840938Y-72594703D01*
X161840936Y-72594704D01*
X161834908Y-72597388D01*
X161690270Y-72702474D01*
X161570641Y-72835335D01*
X161481250Y-72990165D01*
X161426003Y-73160197D01*
X161407315Y-73338000D01*
X159826901Y-73338000D01*
X159920853Y-73312826D01*
X159920855Y-73312825D01*
X159926163Y-73311403D01*
X159931145Y-73309080D01*
X160135343Y-73213861D01*
X160135348Y-73213858D01*
X160140330Y-73211535D01*
X160204274Y-73166761D01*
X160329390Y-73079154D01*
X160329393Y-73079152D01*
X160333901Y-73075995D01*
X160500995Y-72908901D01*
X160636535Y-72715329D01*
X160642530Y-72702474D01*
X160734080Y-72506145D01*
X160734081Y-72506143D01*
X160736403Y-72501163D01*
X160739697Y-72488872D01*
X160796139Y-72278223D01*
X160796139Y-72278222D01*
X160797563Y-72272908D01*
X160818159Y-72037500D01*
X160797563Y-71802092D01*
X160736403Y-71573837D01*
X160636535Y-71359671D01*
X160500995Y-71166099D01*
X160333901Y-70999005D01*
X160329393Y-70995848D01*
X160329390Y-70995846D01*
X160144839Y-70866622D01*
X160144836Y-70866620D01*
X160140330Y-70863465D01*
X160135348Y-70861142D01*
X160135343Y-70861139D01*
X159931145Y-70765920D01*
X159931144Y-70765919D01*
X159926163Y-70763597D01*
X159920855Y-70762175D01*
X159920853Y-70762174D01*
X159703223Y-70703861D01*
X159703222Y-70703861D01*
X159697908Y-70702437D01*
X159462500Y-70681841D01*
X159227092Y-70702437D01*
X159221778Y-70703861D01*
X159221777Y-70703861D01*
X159004147Y-70762174D01*
X159004145Y-70762175D01*
X158998837Y-70763597D01*
X158993857Y-70765919D01*
X158993855Y-70765920D01*
X158789652Y-70861142D01*
X158789649Y-70861144D01*
X158784671Y-70863465D01*
X158591099Y-70999005D01*
X158424005Y-71166099D01*
X158288465Y-71359671D01*
X158188597Y-71573837D01*
X158127437Y-71802092D01*
X158106841Y-72037500D01*
X136418159Y-72037500D01*
X136397563Y-71802092D01*
X136336403Y-71573837D01*
X136236535Y-71359671D01*
X136100995Y-71166099D01*
X135933901Y-70999005D01*
X135929393Y-70995848D01*
X135929390Y-70995846D01*
X135744839Y-70866622D01*
X135744836Y-70866620D01*
X135740330Y-70863465D01*
X135735348Y-70861142D01*
X135735343Y-70861139D01*
X135531145Y-70765920D01*
X135531144Y-70765919D01*
X135526163Y-70763597D01*
X135520855Y-70762175D01*
X135520853Y-70762174D01*
X135303223Y-70703861D01*
X135303222Y-70703861D01*
X135297908Y-70702437D01*
X135062500Y-70681841D01*
X134827092Y-70702437D01*
X134821778Y-70703861D01*
X134821777Y-70703861D01*
X134604147Y-70762174D01*
X134604145Y-70762175D01*
X134598837Y-70763597D01*
X134593857Y-70765919D01*
X134593855Y-70765920D01*
X134389652Y-70861142D01*
X134389649Y-70861144D01*
X134384671Y-70863465D01*
X134191099Y-70999005D01*
X134024005Y-71166099D01*
X133888465Y-71359671D01*
X133788597Y-71573837D01*
X133727437Y-71802092D01*
X133706841Y-72037500D01*
X131418159Y-72037500D01*
X131397563Y-71802092D01*
X131336403Y-71573837D01*
X131236535Y-71359671D01*
X131100995Y-71166099D01*
X130933901Y-70999005D01*
X130929393Y-70995848D01*
X130929390Y-70995846D01*
X130744839Y-70866622D01*
X130744836Y-70866620D01*
X130740330Y-70863465D01*
X130735348Y-70861142D01*
X130735343Y-70861139D01*
X130531145Y-70765920D01*
X130531144Y-70765919D01*
X130526163Y-70763597D01*
X130520855Y-70762175D01*
X130520853Y-70762174D01*
X130303223Y-70703861D01*
X130303222Y-70703861D01*
X130297908Y-70702437D01*
X130062500Y-70681841D01*
X129827092Y-70702437D01*
X129821778Y-70703861D01*
X129821777Y-70703861D01*
X129604147Y-70762174D01*
X129604145Y-70762175D01*
X129598837Y-70763597D01*
X129593857Y-70765919D01*
X129593855Y-70765920D01*
X129389652Y-70861142D01*
X129389649Y-70861144D01*
X129384671Y-70863465D01*
X129191099Y-70999005D01*
X129024005Y-71166099D01*
X128888465Y-71359671D01*
X128788597Y-71573837D01*
X128727437Y-71802092D01*
X128706841Y-72037500D01*
X127763000Y-72037500D01*
X127763000Y-68090076D01*
X127764746Y-68069171D01*
X127767189Y-68054648D01*
X127767996Y-68049854D01*
X127768147Y-68037500D01*
X127767456Y-68032673D01*
X127767140Y-68027825D01*
X127767468Y-68027804D01*
X127767071Y-68001372D01*
X127773934Y-67940460D01*
X127780213Y-67912952D01*
X127807779Y-67834172D01*
X127820021Y-67808751D01*
X127864423Y-67738086D01*
X127882015Y-67716027D01*
X127941027Y-67657015D01*
X127963086Y-67639423D01*
X128033751Y-67595021D01*
X128059172Y-67582779D01*
X128137952Y-67555213D01*
X128165460Y-67548934D01*
X128178490Y-67547466D01*
X128223386Y-67542408D01*
X128239029Y-67541625D01*
X128247452Y-67541728D01*
X128256323Y-67543109D01*
X128265225Y-67541945D01*
X128265228Y-67541945D01*
X128287256Y-67539064D01*
X128303593Y-67538000D01*
X166213759Y-67538000D01*
X166233143Y-67539500D01*
G37*
G04 #@! TD.AperFunction*
M02*
