G04 #@! TF.GenerationSoftware,KiCad,Pcbnew,6.0.10+dfsg-1~bpo11+1*
G04 #@! TF.ProjectId,project,70726f6a-6563-4742-9e6b-696361645f70,rev?*
G04 #@! TF.SameCoordinates,Original*
G04 #@! TF.FileFunction,Copper,L2,Bot*
G04 #@! TF.FilePolarity,Positive*
%FSLAX46Y46*%
G04 Gerber Fmt 4.6, Leading zero omitted, Abs format (unit mm)*
%MOMM*%
%LPD*%
G01*
G04 APERTURE LIST*
G04 #@! TA.AperFunction,Profile*
%ADD10C,0.100000*%
G04 #@! TD*
G04 #@! TA.AperFunction,ComponentPad*
%ADD11C,5.600000*%
G04 #@! TD*
G04 #@! TA.AperFunction,ViaPad*
%ADD12C,0.700000*%
G04 #@! TD*
G04 #@! TA.AperFunction,Conductor*
%ADD13C,0.500000*%
G04 #@! TD*
G04 APERTURE END LIST*
D10*
X80000000Y-91975000D02*
X80000000Y-150975000D01*
X80500000Y-151475000D02*
X124500000Y-151475000D01*
X80000000Y-150975000D02*
G75*
G03*
X80500000Y-151475000I500000J0D01*
G01*
X125000000Y-91975000D02*
G75*
G03*
X124500000Y-91475000I-500000J0D01*
G01*
X80500000Y-91475000D02*
X124500000Y-91475000D01*
X125000000Y-150975000D02*
X125000000Y-91975000D01*
X80500000Y-91475000D02*
G75*
G03*
X80000000Y-91975000I0J-500000D01*
G01*
X124500000Y-151475000D02*
G75*
G03*
X125000000Y-150975000I0J500000D01*
G01*
D11*
X102500000Y-147475000D03*
D12*
X94000000Y-93975000D03*
X93000000Y-93975000D03*
X95500000Y-93975000D03*
X123000000Y-107975000D03*
X82000000Y-137975000D03*
X82000000Y-134975000D03*
X81000000Y-149975000D03*
X124000000Y-104975000D03*
X123000000Y-92975000D03*
X123000000Y-104975000D03*
X122000000Y-107975000D03*
X123000000Y-134975000D03*
X82000000Y-119975000D03*
X83000000Y-92975000D03*
X123000000Y-137975000D03*
X124000000Y-119975000D03*
X81000000Y-92975000D03*
X114500000Y-111475000D03*
X83000000Y-104975000D03*
X90500000Y-146475000D03*
X98000000Y-142975000D03*
X114500000Y-141475000D03*
X122000000Y-149975000D03*
X81000000Y-104975000D03*
X81000000Y-137975000D03*
X83000000Y-134975000D03*
X114500000Y-96475000D03*
X90500000Y-101475000D03*
X82000000Y-107975000D03*
X124000000Y-92975000D03*
X90500000Y-131475000D03*
X122000000Y-92975000D03*
X123000000Y-122975000D03*
X109500000Y-95475000D03*
X83000000Y-107975000D03*
X82000000Y-92975000D03*
X111000000Y-95475000D03*
X81000000Y-134975000D03*
X83000000Y-122975000D03*
X106250000Y-129725000D03*
X106250000Y-131725000D03*
X124000000Y-149975000D03*
X106250000Y-130725000D03*
X123000000Y-119975000D03*
X124000000Y-107975000D03*
X114500000Y-126475000D03*
X122000000Y-119975000D03*
X122000000Y-104975000D03*
X81000000Y-119975000D03*
X82000000Y-104975000D03*
X81000000Y-122975000D03*
X123000000Y-149975000D03*
X82000000Y-149975000D03*
X124000000Y-137975000D03*
X107000000Y-142975000D03*
X124000000Y-122975000D03*
X112000000Y-95475000D03*
X111000000Y-96475000D03*
X112000000Y-96475000D03*
X83000000Y-149975000D03*
X82000000Y-122975000D03*
X109500000Y-96475000D03*
X83000000Y-137975000D03*
X122000000Y-122975000D03*
X90500000Y-116475000D03*
X81000000Y-107975000D03*
X83000000Y-119975000D03*
X124000000Y-134975000D03*
X122000000Y-134975000D03*
X122000000Y-137975000D03*
X104500000Y-92975000D03*
X100500000Y-92975000D03*
X88412500Y-92562500D03*
X117412500Y-92562500D03*
X99500000Y-92975000D03*
X115412500Y-92562500D03*
X101500000Y-92975000D03*
X102500000Y-92975000D03*
X118412500Y-92562500D03*
X86412500Y-92562500D03*
X105500000Y-92975000D03*
X89412500Y-92562500D03*
X90500000Y-92562500D03*
X87412500Y-92562500D03*
X114500000Y-92562500D03*
X103500000Y-92975000D03*
X116412500Y-92562500D03*
X98500000Y-92975000D03*
X106500000Y-92975000D03*
X109500000Y-93975000D03*
X111000000Y-93975000D03*
X112000000Y-93975000D03*
X96000000Y-103975000D03*
X96000000Y-118475000D03*
X95000000Y-101475000D03*
X95000000Y-119475000D03*
X92000000Y-97475000D03*
X92500000Y-123975000D03*
X93000000Y-125475000D03*
X94000000Y-98975000D03*
X111000000Y-103975000D03*
X111000000Y-115975000D03*
X112000000Y-108975000D03*
X112000000Y-116975000D03*
X110000000Y-106475000D03*
X110000000Y-114975000D03*
D13*
X95500000Y-93975000D02*
X93000000Y-93975000D01*
X112000000Y-93975000D02*
X109500000Y-93975000D01*
X96000000Y-103975000D02*
X96000000Y-118475000D01*
X95000000Y-101475000D02*
X95000000Y-119475000D01*
X92000000Y-97475000D02*
X93000000Y-98475000D01*
X93000000Y-98475000D02*
X93000000Y-123475000D01*
X93000000Y-123475000D02*
X92500000Y-123975000D01*
X94000000Y-124475000D02*
X94000000Y-98975000D01*
X93000000Y-125475000D02*
X94000000Y-124475000D01*
X111000000Y-103975000D02*
X111000000Y-115975000D01*
X112000000Y-108975000D02*
X112000000Y-116975000D01*
X110000000Y-106475000D02*
X110000000Y-114975000D01*
G04 #@! TA.AperFunction,Conductor*
G36*
X118942121Y-91995502D02*
G01*
X118988614Y-92049158D01*
X119000000Y-92101500D01*
X119000000Y-93349000D01*
X118979998Y-93417121D01*
X118926342Y-93463614D01*
X118874000Y-93475000D01*
X112750358Y-93475000D01*
X112682237Y-93454998D01*
X112656722Y-93433311D01*
X112576645Y-93344377D01*
X112576643Y-93344376D01*
X112572230Y-93339474D01*
X112427593Y-93234388D01*
X112421565Y-93231704D01*
X112421563Y-93231703D01*
X112270298Y-93164356D01*
X112270297Y-93164356D01*
X112264267Y-93161671D01*
X112176829Y-93143085D01*
X112095848Y-93125872D01*
X112095844Y-93125872D01*
X112089391Y-93124500D01*
X111910609Y-93124500D01*
X111904156Y-93125872D01*
X111904152Y-93125872D01*
X111823171Y-93143085D01*
X111735733Y-93161671D01*
X111729703Y-93164356D01*
X111729702Y-93164356D01*
X111619083Y-93213607D01*
X111567834Y-93224500D01*
X111432167Y-93224500D01*
X111380918Y-93213607D01*
X111270298Y-93164356D01*
X111270297Y-93164356D01*
X111264267Y-93161671D01*
X111176829Y-93143085D01*
X111095848Y-93125872D01*
X111095844Y-93125872D01*
X111089391Y-93124500D01*
X110910609Y-93124500D01*
X110904156Y-93125872D01*
X110904152Y-93125872D01*
X110823171Y-93143085D01*
X110735733Y-93161671D01*
X110729703Y-93164356D01*
X110729702Y-93164356D01*
X110619083Y-93213607D01*
X110567834Y-93224500D01*
X109932167Y-93224500D01*
X109880918Y-93213607D01*
X109770298Y-93164356D01*
X109770297Y-93164356D01*
X109764267Y-93161671D01*
X109676829Y-93143085D01*
X109595848Y-93125872D01*
X109595844Y-93125872D01*
X109589391Y-93124500D01*
X109410609Y-93124500D01*
X109404156Y-93125872D01*
X109404152Y-93125872D01*
X109323171Y-93143085D01*
X109235733Y-93161671D01*
X109229703Y-93164356D01*
X109229702Y-93164356D01*
X109078438Y-93231703D01*
X109078436Y-93231704D01*
X109072408Y-93234388D01*
X108927770Y-93339474D01*
X108923357Y-93344376D01*
X108923355Y-93344377D01*
X108843278Y-93433311D01*
X108782832Y-93470550D01*
X108749642Y-93475000D01*
X96250358Y-93475000D01*
X96182237Y-93454998D01*
X96156722Y-93433311D01*
X96076645Y-93344377D01*
X96076643Y-93344376D01*
X96072230Y-93339474D01*
X95927593Y-93234388D01*
X95921565Y-93231704D01*
X95921563Y-93231703D01*
X95770298Y-93164356D01*
X95770297Y-93164356D01*
X95764267Y-93161671D01*
X95676829Y-93143085D01*
X95595848Y-93125872D01*
X95595844Y-93125872D01*
X95589391Y-93124500D01*
X95410609Y-93124500D01*
X95404156Y-93125872D01*
X95404152Y-93125872D01*
X95323171Y-93143085D01*
X95235733Y-93161671D01*
X95229703Y-93164356D01*
X95229702Y-93164356D01*
X95119083Y-93213607D01*
X95067834Y-93224500D01*
X94432167Y-93224500D01*
X94380918Y-93213607D01*
X94270298Y-93164356D01*
X94270297Y-93164356D01*
X94264267Y-93161671D01*
X94176829Y-93143085D01*
X94095848Y-93125872D01*
X94095844Y-93125872D01*
X94089391Y-93124500D01*
X93910609Y-93124500D01*
X93904156Y-93125872D01*
X93904152Y-93125872D01*
X93823171Y-93143085D01*
X93735733Y-93161671D01*
X93729703Y-93164356D01*
X93729702Y-93164356D01*
X93619083Y-93213607D01*
X93567834Y-93224500D01*
X93432167Y-93224500D01*
X93380918Y-93213607D01*
X93270298Y-93164356D01*
X93270297Y-93164356D01*
X93264267Y-93161671D01*
X93176829Y-93143085D01*
X93095848Y-93125872D01*
X93095844Y-93125872D01*
X93089391Y-93124500D01*
X92910609Y-93124500D01*
X92904156Y-93125872D01*
X92904152Y-93125872D01*
X92823171Y-93143085D01*
X92735733Y-93161671D01*
X92729703Y-93164356D01*
X92729702Y-93164356D01*
X92578438Y-93231703D01*
X92578436Y-93231704D01*
X92572408Y-93234388D01*
X92427770Y-93339474D01*
X92423357Y-93344376D01*
X92423355Y-93344377D01*
X92343278Y-93433311D01*
X92282832Y-93470550D01*
X92249642Y-93475000D01*
X86126000Y-93475000D01*
X86057879Y-93454998D01*
X86011386Y-93401342D01*
X86000000Y-93349000D01*
X86000000Y-92101500D01*
X86020002Y-92033379D01*
X86073658Y-91986886D01*
X86126000Y-91975500D01*
X118874000Y-91975500D01*
X118942121Y-91995502D01*
G37*
G04 #@! TD.AperFunction*
G04 #@! TA.AperFunction,Conductor*
G36*
X85436621Y-91995502D02*
G01*
X85483114Y-92049158D01*
X85494500Y-92101500D01*
X85494500Y-93349000D01*
X85506052Y-93456449D01*
X85517438Y-93508791D01*
X85551567Y-93611333D01*
X85629354Y-93732373D01*
X85675847Y-93786029D01*
X85679240Y-93788969D01*
X85777774Y-93874350D01*
X85777777Y-93874352D01*
X85784586Y-93880252D01*
X85915464Y-93940022D01*
X85983585Y-93960024D01*
X85988025Y-93960662D01*
X85988028Y-93960663D01*
X86121554Y-93979861D01*
X86121557Y-93979861D01*
X86126000Y-93980500D01*
X92031942Y-93980500D01*
X92100063Y-94000502D01*
X92146556Y-94054158D01*
X92157252Y-94093329D01*
X92163503Y-94152803D01*
X92218750Y-94322835D01*
X92308141Y-94477665D01*
X92427770Y-94610526D01*
X92572407Y-94715612D01*
X92578435Y-94718296D01*
X92578437Y-94718297D01*
X92619082Y-94736393D01*
X92735733Y-94788329D01*
X92823171Y-94806915D01*
X92904152Y-94824128D01*
X92904156Y-94824128D01*
X92910609Y-94825500D01*
X93089391Y-94825500D01*
X93095844Y-94824128D01*
X93095848Y-94824128D01*
X93176829Y-94806915D01*
X93264267Y-94788329D01*
X93380918Y-94736393D01*
X93432167Y-94725500D01*
X93567833Y-94725500D01*
X93619082Y-94736393D01*
X93735733Y-94788329D01*
X93823171Y-94806915D01*
X93904152Y-94824128D01*
X93904156Y-94824128D01*
X93910609Y-94825500D01*
X94089391Y-94825500D01*
X94095844Y-94824128D01*
X94095848Y-94824128D01*
X94176829Y-94806915D01*
X94264267Y-94788329D01*
X94380918Y-94736393D01*
X94432167Y-94725500D01*
X95067833Y-94725500D01*
X95119082Y-94736393D01*
X95235733Y-94788329D01*
X95323171Y-94806915D01*
X95404152Y-94824128D01*
X95404156Y-94824128D01*
X95410609Y-94825500D01*
X95589391Y-94825500D01*
X95595844Y-94824128D01*
X95595848Y-94824128D01*
X95676829Y-94806915D01*
X95764267Y-94788329D01*
X95880918Y-94736393D01*
X95921563Y-94718297D01*
X95921565Y-94718296D01*
X95927593Y-94715612D01*
X96072230Y-94610526D01*
X96191859Y-94477665D01*
X96281250Y-94322835D01*
X96336497Y-94152803D01*
X96342748Y-94093329D01*
X96369761Y-94027673D01*
X96427983Y-93987043D01*
X96468058Y-93980500D01*
X108531942Y-93980500D01*
X108600063Y-94000502D01*
X108646556Y-94054158D01*
X108657252Y-94093329D01*
X108663503Y-94152803D01*
X108718750Y-94322835D01*
X108808141Y-94477665D01*
X108927770Y-94610526D01*
X109072407Y-94715612D01*
X109078435Y-94718296D01*
X109078437Y-94718297D01*
X109119082Y-94736393D01*
X109235733Y-94788329D01*
X109323171Y-94806915D01*
X109404152Y-94824128D01*
X109404156Y-94824128D01*
X109410609Y-94825500D01*
X109589391Y-94825500D01*
X109595844Y-94824128D01*
X109595848Y-94824128D01*
X109676829Y-94806915D01*
X109764267Y-94788329D01*
X109880918Y-94736393D01*
X109932167Y-94725500D01*
X110567833Y-94725500D01*
X110619082Y-94736393D01*
X110735733Y-94788329D01*
X110823171Y-94806915D01*
X110904152Y-94824128D01*
X110904156Y-94824128D01*
X110910609Y-94825500D01*
X111089391Y-94825500D01*
X111095844Y-94824128D01*
X111095848Y-94824128D01*
X111176829Y-94806915D01*
X111264267Y-94788329D01*
X111380918Y-94736393D01*
X111432167Y-94725500D01*
X111567833Y-94725500D01*
X111619082Y-94736393D01*
X111735733Y-94788329D01*
X111823171Y-94806915D01*
X111904152Y-94824128D01*
X111904156Y-94824128D01*
X111910609Y-94825500D01*
X112089391Y-94825500D01*
X112095844Y-94824128D01*
X112095848Y-94824128D01*
X112176829Y-94806915D01*
X112264267Y-94788329D01*
X112380918Y-94736393D01*
X112421563Y-94718297D01*
X112421565Y-94718296D01*
X112427593Y-94715612D01*
X112572230Y-94610526D01*
X112691859Y-94477665D01*
X112781250Y-94322835D01*
X112836497Y-94152803D01*
X112842748Y-94093329D01*
X112869761Y-94027673D01*
X112927983Y-93987043D01*
X112968058Y-93980500D01*
X118874000Y-93980500D01*
X118877348Y-93980140D01*
X118877349Y-93980140D01*
X118903032Y-93977379D01*
X118981449Y-93968948D01*
X118984733Y-93968234D01*
X118984737Y-93968233D01*
X119009808Y-93962779D01*
X119033791Y-93957562D01*
X119136333Y-93923433D01*
X119257373Y-93845646D01*
X119311029Y-93799153D01*
X119365943Y-93735779D01*
X119399350Y-93697226D01*
X119399352Y-93697223D01*
X119405252Y-93690414D01*
X119465022Y-93559536D01*
X119485024Y-93491415D01*
X119489579Y-93459737D01*
X119504861Y-93353446D01*
X119504861Y-93353443D01*
X119505500Y-93349000D01*
X119505500Y-92101500D01*
X119525502Y-92033379D01*
X119579158Y-91986886D01*
X119631500Y-91975500D01*
X124373500Y-91975500D01*
X124441621Y-91995502D01*
X124488114Y-92049158D01*
X124499500Y-92101500D01*
X124499500Y-150848500D01*
X124479498Y-150916621D01*
X124425842Y-150963114D01*
X124373500Y-150974500D01*
X80626500Y-150974500D01*
X80558379Y-150954498D01*
X80511886Y-150900842D01*
X80500500Y-150848500D01*
X80500500Y-97475000D01*
X91144815Y-97475000D01*
X91163503Y-97652803D01*
X91218750Y-97822835D01*
X91222053Y-97828557D01*
X91222054Y-97828558D01*
X91297878Y-97959888D01*
X91308141Y-97977665D01*
X91312559Y-97982572D01*
X91312560Y-97982573D01*
X91393598Y-98072574D01*
X91427770Y-98110526D01*
X91572407Y-98215612D01*
X91578435Y-98218296D01*
X91578437Y-98218297D01*
X91671946Y-98259929D01*
X91735733Y-98288329D01*
X91735402Y-98289073D01*
X91780089Y-98316456D01*
X92212595Y-98748962D01*
X92246621Y-98811274D01*
X92249500Y-98838057D01*
X92249500Y-123073716D01*
X92229498Y-123141837D01*
X92174749Y-123188823D01*
X92078438Y-123231703D01*
X92078436Y-123231704D01*
X92072408Y-123234388D01*
X91927770Y-123339474D01*
X91808141Y-123472335D01*
X91718750Y-123627165D01*
X91663503Y-123797197D01*
X91644815Y-123975000D01*
X91663503Y-124152803D01*
X91718750Y-124322835D01*
X91808141Y-124477665D01*
X91812559Y-124482572D01*
X91812560Y-124482573D01*
X91894746Y-124573849D01*
X91927770Y-124610526D01*
X91933109Y-124614405D01*
X91972179Y-124642791D01*
X92072407Y-124715612D01*
X92078435Y-124718296D01*
X92078437Y-124718297D01*
X92123554Y-124738384D01*
X92235733Y-124788329D01*
X92239494Y-124789128D01*
X92297254Y-124828623D01*
X92324892Y-124894020D01*
X92312786Y-124963977D01*
X92307848Y-124972166D01*
X92308141Y-124972335D01*
X92218750Y-125127165D01*
X92163503Y-125297197D01*
X92144815Y-125475000D01*
X92163503Y-125652803D01*
X92218750Y-125822835D01*
X92308141Y-125977665D01*
X92427770Y-126110526D01*
X92572407Y-126215612D01*
X92578435Y-126218296D01*
X92578437Y-126218297D01*
X92729702Y-126285644D01*
X92735733Y-126288329D01*
X92823171Y-126306915D01*
X92904152Y-126324128D01*
X92904156Y-126324128D01*
X92910609Y-126325500D01*
X93089391Y-126325500D01*
X93095844Y-126324128D01*
X93095848Y-126324128D01*
X93176829Y-126306915D01*
X93264267Y-126288329D01*
X93270298Y-126285644D01*
X93421563Y-126218297D01*
X93421565Y-126218296D01*
X93427593Y-126215612D01*
X93572230Y-126110526D01*
X93691859Y-125977665D01*
X93781250Y-125822835D01*
X93804496Y-125751291D01*
X93835234Y-125701133D01*
X94483689Y-125052678D01*
X94498102Y-125040291D01*
X94509425Y-125031959D01*
X94509429Y-125031955D01*
X94515324Y-125027617D01*
X94549151Y-124987800D01*
X94556071Y-124980296D01*
X94561671Y-124974696D01*
X94579112Y-124952652D01*
X94581878Y-124949279D01*
X94628632Y-124894245D01*
X94631961Y-124887724D01*
X94635250Y-124882793D01*
X94638340Y-124877791D01*
X94642881Y-124872051D01*
X94673454Y-124806637D01*
X94675385Y-124802685D01*
X94704890Y-124744903D01*
X94708219Y-124738384D01*
X94709959Y-124731273D01*
X94712020Y-124725731D01*
X94713881Y-124720138D01*
X94716980Y-124713507D01*
X94731690Y-124642786D01*
X94732660Y-124638502D01*
X94738556Y-124614405D01*
X94749815Y-124568394D01*
X94750500Y-124557352D01*
X94750532Y-124557354D01*
X94750779Y-124553241D01*
X94751128Y-124549334D01*
X94752618Y-124542169D01*
X94750546Y-124465584D01*
X94750500Y-124462176D01*
X94750500Y-120447065D01*
X94770502Y-120378944D01*
X94824158Y-120332451D01*
X94894432Y-120322347D01*
X94902698Y-120323818D01*
X94903147Y-120323914D01*
X94904153Y-120324128D01*
X94904155Y-120324128D01*
X94910609Y-120325500D01*
X95089391Y-120325500D01*
X95095844Y-120324128D01*
X95095848Y-120324128D01*
X95176829Y-120306914D01*
X95264267Y-120288329D01*
X95270298Y-120285644D01*
X95421563Y-120218297D01*
X95421565Y-120218296D01*
X95427593Y-120215612D01*
X95572230Y-120110526D01*
X95691859Y-119977665D01*
X95781250Y-119822835D01*
X95836497Y-119652803D01*
X95855185Y-119475000D01*
X95854100Y-119464675D01*
X95854495Y-119462515D01*
X95854495Y-119461829D01*
X95854620Y-119461829D01*
X95866869Y-119394836D01*
X95915369Y-119342988D01*
X95979409Y-119325500D01*
X96089391Y-119325500D01*
X96095844Y-119324128D01*
X96095848Y-119324128D01*
X96176829Y-119306915D01*
X96264267Y-119288329D01*
X96270298Y-119285644D01*
X96421563Y-119218297D01*
X96421565Y-119218296D01*
X96427593Y-119215612D01*
X96572230Y-119110526D01*
X96691859Y-118977665D01*
X96781250Y-118822835D01*
X96836497Y-118652803D01*
X96855185Y-118475000D01*
X96836497Y-118297197D01*
X96781250Y-118127165D01*
X96767381Y-118103143D01*
X96750500Y-118040143D01*
X96750500Y-117601000D01*
X96770502Y-117532879D01*
X96824158Y-117486386D01*
X96876500Y-117475000D01*
X109000000Y-117475000D01*
X109000000Y-115414187D01*
X109020002Y-115346066D01*
X109073658Y-115299573D01*
X109143932Y-115289469D01*
X109208512Y-115318963D01*
X109235119Y-115351187D01*
X109308141Y-115477665D01*
X109427770Y-115610526D01*
X109572407Y-115715612D01*
X109578435Y-115718296D01*
X109578437Y-115718297D01*
X109729702Y-115785644D01*
X109735733Y-115788329D01*
X109823171Y-115806915D01*
X109904152Y-115824128D01*
X109904156Y-115824128D01*
X109910609Y-115825500D01*
X110020591Y-115825500D01*
X110088712Y-115845502D01*
X110135205Y-115899158D01*
X110145435Y-115961829D01*
X110145505Y-115961829D01*
X110145505Y-115962255D01*
X110145900Y-115964675D01*
X110144815Y-115975000D01*
X110163503Y-116152803D01*
X110218750Y-116322835D01*
X110308141Y-116477665D01*
X110312559Y-116482572D01*
X110312560Y-116482573D01*
X110364397Y-116540143D01*
X110427770Y-116610526D01*
X110572407Y-116715612D01*
X110578435Y-116718296D01*
X110578437Y-116718297D01*
X110729702Y-116785644D01*
X110735733Y-116788329D01*
X110808335Y-116803761D01*
X110904152Y-116824128D01*
X110904156Y-116824128D01*
X110910609Y-116825500D01*
X111020591Y-116825500D01*
X111088712Y-116845502D01*
X111135205Y-116899158D01*
X111145435Y-116961829D01*
X111145505Y-116961829D01*
X111145505Y-116962255D01*
X111145900Y-116964675D01*
X111144815Y-116975000D01*
X111163503Y-117152803D01*
X111218750Y-117322835D01*
X111308141Y-117477665D01*
X111312559Y-117482572D01*
X111312560Y-117482573D01*
X111419193Y-117601000D01*
X111427770Y-117610526D01*
X111572407Y-117715612D01*
X111578435Y-117718296D01*
X111578437Y-117718297D01*
X111729702Y-117785644D01*
X111735733Y-117788329D01*
X111823171Y-117806915D01*
X111904152Y-117824128D01*
X111904156Y-117824128D01*
X111910609Y-117825500D01*
X112089391Y-117825500D01*
X112095844Y-117824128D01*
X112095848Y-117824128D01*
X112176829Y-117806915D01*
X112264267Y-117788329D01*
X112270298Y-117785644D01*
X112421563Y-117718297D01*
X112421565Y-117718296D01*
X112427593Y-117715612D01*
X112572230Y-117610526D01*
X112580808Y-117601000D01*
X112687440Y-117482573D01*
X112687441Y-117482572D01*
X112691859Y-117477665D01*
X112781250Y-117322835D01*
X112836497Y-117152803D01*
X112855185Y-116975000D01*
X112836497Y-116797197D01*
X112834062Y-116789701D01*
X112783292Y-116633450D01*
X112781250Y-116627165D01*
X112767381Y-116603143D01*
X112750500Y-116540143D01*
X112750500Y-109409857D01*
X112767381Y-109346857D01*
X112777946Y-109328558D01*
X112777947Y-109328557D01*
X112781250Y-109322835D01*
X112836497Y-109152803D01*
X112855185Y-108975000D01*
X112836497Y-108797197D01*
X112781250Y-108627165D01*
X112691859Y-108472335D01*
X112572230Y-108339474D01*
X112427593Y-108234388D01*
X112421565Y-108231704D01*
X112421563Y-108231703D01*
X112270298Y-108164356D01*
X112270297Y-108164356D01*
X112264267Y-108161671D01*
X112176829Y-108143086D01*
X112095848Y-108125872D01*
X112095844Y-108125872D01*
X112089391Y-108124500D01*
X111910609Y-108124500D01*
X111904155Y-108125872D01*
X111904153Y-108125872D01*
X111903147Y-108126086D01*
X111902701Y-108126181D01*
X111901841Y-108126115D01*
X111897581Y-108126563D01*
X111897499Y-108125784D01*
X111831910Y-108120781D01*
X111775276Y-108077966D01*
X111750780Y-108011329D01*
X111750500Y-108002935D01*
X111750500Y-104409857D01*
X111767381Y-104346857D01*
X111777946Y-104328558D01*
X111777947Y-104328557D01*
X111781250Y-104322835D01*
X111836497Y-104152803D01*
X111855185Y-103975000D01*
X111836497Y-103797197D01*
X111781250Y-103627165D01*
X111691859Y-103472335D01*
X111572230Y-103339474D01*
X111427593Y-103234388D01*
X111421565Y-103231704D01*
X111421563Y-103231703D01*
X111270298Y-103164356D01*
X111270297Y-103164356D01*
X111264267Y-103161671D01*
X111176829Y-103143085D01*
X111095848Y-103125872D01*
X111095844Y-103125872D01*
X111089391Y-103124500D01*
X110910609Y-103124500D01*
X110904156Y-103125872D01*
X110904152Y-103125872D01*
X110823171Y-103143086D01*
X110735733Y-103161671D01*
X110729703Y-103164356D01*
X110729702Y-103164356D01*
X110578438Y-103231703D01*
X110578436Y-103231704D01*
X110572408Y-103234388D01*
X110427770Y-103339474D01*
X110308141Y-103472335D01*
X110218750Y-103627165D01*
X110163503Y-103797197D01*
X110144815Y-103975000D01*
X110163503Y-104152803D01*
X110218750Y-104322835D01*
X110222053Y-104328557D01*
X110222054Y-104328558D01*
X110232619Y-104346857D01*
X110249500Y-104409857D01*
X110249500Y-105502935D01*
X110229498Y-105571056D01*
X110175842Y-105617549D01*
X110105568Y-105627653D01*
X110097302Y-105626182D01*
X110096853Y-105626086D01*
X110095847Y-105625872D01*
X110095845Y-105625872D01*
X110089391Y-105624500D01*
X109910609Y-105624500D01*
X109904156Y-105625872D01*
X109904152Y-105625872D01*
X109823171Y-105643085D01*
X109735733Y-105661671D01*
X109729703Y-105664356D01*
X109729702Y-105664356D01*
X109578438Y-105731703D01*
X109578436Y-105731704D01*
X109572408Y-105734388D01*
X109427770Y-105839474D01*
X109308141Y-105972335D01*
X109218750Y-106127165D01*
X109163503Y-106297197D01*
X109144815Y-106475000D01*
X109163503Y-106652803D01*
X109218750Y-106822835D01*
X109222053Y-106828557D01*
X109222054Y-106828558D01*
X109232619Y-106846857D01*
X109249500Y-106909857D01*
X109249500Y-109966486D01*
X109229498Y-110034607D01*
X109175842Y-110081100D01*
X109105568Y-110091204D01*
X109040988Y-110061710D01*
X109002604Y-110001984D01*
X109000000Y-109993116D01*
X109000000Y-109975000D01*
X96876500Y-109975000D01*
X96808379Y-109954998D01*
X96761886Y-109901342D01*
X96750500Y-109849000D01*
X96750500Y-104409857D01*
X96767381Y-104346857D01*
X96777946Y-104328558D01*
X96777947Y-104328557D01*
X96781250Y-104322835D01*
X96836497Y-104152803D01*
X96855185Y-103975000D01*
X96836497Y-103797197D01*
X96781250Y-103627165D01*
X96691859Y-103472335D01*
X96572230Y-103339474D01*
X96427593Y-103234388D01*
X96421565Y-103231704D01*
X96421563Y-103231703D01*
X96270298Y-103164356D01*
X96270297Y-103164356D01*
X96264267Y-103161671D01*
X96176829Y-103143085D01*
X96095848Y-103125872D01*
X96095844Y-103125872D01*
X96089391Y-103124500D01*
X95910609Y-103124500D01*
X95904155Y-103125872D01*
X95904153Y-103125872D01*
X95903147Y-103126086D01*
X95902701Y-103126181D01*
X95901841Y-103126115D01*
X95897581Y-103126563D01*
X95897499Y-103125784D01*
X95831910Y-103120781D01*
X95775276Y-103077966D01*
X95750780Y-103011329D01*
X95750500Y-103002935D01*
X95750500Y-101909857D01*
X95767381Y-101846857D01*
X95777946Y-101828558D01*
X95777947Y-101828557D01*
X95781250Y-101822835D01*
X95836497Y-101652803D01*
X95855185Y-101475000D01*
X95836497Y-101297197D01*
X95781250Y-101127165D01*
X95691859Y-100972335D01*
X95572230Y-100839474D01*
X95427593Y-100734388D01*
X95421565Y-100731704D01*
X95421563Y-100731703D01*
X95270298Y-100664356D01*
X95270297Y-100664356D01*
X95264267Y-100661671D01*
X95176829Y-100643085D01*
X95095848Y-100625872D01*
X95095844Y-100625872D01*
X95089391Y-100624500D01*
X94910609Y-100624500D01*
X94904155Y-100625872D01*
X94904153Y-100625872D01*
X94903147Y-100626086D01*
X94902701Y-100626181D01*
X94901841Y-100626115D01*
X94897581Y-100626563D01*
X94897499Y-100625784D01*
X94831910Y-100620781D01*
X94775276Y-100577966D01*
X94750780Y-100511329D01*
X94750500Y-100502935D01*
X94750500Y-99409857D01*
X94767381Y-99346857D01*
X94777946Y-99328558D01*
X94777947Y-99328557D01*
X94781250Y-99322835D01*
X94836497Y-99152803D01*
X94855185Y-98975000D01*
X94836497Y-98797197D01*
X94820825Y-98748962D01*
X94783292Y-98633450D01*
X94781250Y-98627165D01*
X94691859Y-98472335D01*
X94572230Y-98339474D01*
X94498241Y-98285717D01*
X94432935Y-98238269D01*
X94432933Y-98238268D01*
X94427593Y-98234388D01*
X94421565Y-98231704D01*
X94421563Y-98231703D01*
X94270298Y-98164356D01*
X94270297Y-98164356D01*
X94264267Y-98161671D01*
X94176829Y-98143085D01*
X94095848Y-98125872D01*
X94095844Y-98125872D01*
X94089391Y-98124500D01*
X93910609Y-98124500D01*
X93904156Y-98125872D01*
X93904152Y-98125872D01*
X93807093Y-98146503D01*
X93781679Y-98151905D01*
X93710888Y-98146503D01*
X93654256Y-98103686D01*
X93650111Y-98097744D01*
X93636048Y-98076295D01*
X93633700Y-98072574D01*
X93599148Y-98015634D01*
X93599145Y-98015630D01*
X93596239Y-98010841D01*
X93588916Y-98002548D01*
X93588940Y-98002527D01*
X93586195Y-97999432D01*
X93583690Y-97996436D01*
X93579677Y-97990315D01*
X93524084Y-97937651D01*
X93521643Y-97935275D01*
X92835233Y-97248866D01*
X92804495Y-97198706D01*
X92783292Y-97133450D01*
X92781250Y-97127165D01*
X92691859Y-96972335D01*
X92572230Y-96839474D01*
X92427593Y-96734388D01*
X92421565Y-96731704D01*
X92421563Y-96731703D01*
X92270298Y-96664356D01*
X92270297Y-96664356D01*
X92264267Y-96661671D01*
X92176829Y-96643086D01*
X92095848Y-96625872D01*
X92095844Y-96625872D01*
X92089391Y-96624500D01*
X91910609Y-96624500D01*
X91904156Y-96625872D01*
X91904152Y-96625872D01*
X91823171Y-96643086D01*
X91735733Y-96661671D01*
X91729703Y-96664356D01*
X91729702Y-96664356D01*
X91578438Y-96731703D01*
X91578436Y-96731704D01*
X91572408Y-96734388D01*
X91427770Y-96839474D01*
X91308141Y-96972335D01*
X91218750Y-97127165D01*
X91163503Y-97297197D01*
X91144815Y-97475000D01*
X80500500Y-97475000D01*
X80500500Y-92101500D01*
X80520502Y-92033379D01*
X80574158Y-91986886D01*
X80626500Y-91975500D01*
X85368500Y-91975500D01*
X85436621Y-91995502D01*
G37*
G04 #@! TD.AperFunction*
M02*
