G04 #@! TF.GenerationSoftware,KiCad,Pcbnew,6.0.10+dfsg-1~bpo11+1*
G04 #@! TF.ProjectId,project,70726f6a-6563-4742-9e6b-696361645f70,rev?*
G04 #@! TF.SameCoordinates,Original*
G04 #@! TF.FileFunction,Copper,L1,Top*
G04 #@! TF.FilePolarity,Positive*
%FSLAX46Y46*%
G04 Gerber Fmt 4.6, Leading zero omitted, Abs format (unit mm)*
%MOMM*%
%LPD*%
G01*
G04 APERTURE LIST*
G04 #@! TA.AperFunction,Profile*
%ADD10C,0.100000*%
G04 #@! TD*
G04 #@! TA.AperFunction,ComponentPad*
%ADD11C,5.600000*%
G04 #@! TD*
G04 #@! TA.AperFunction,ComponentPad*
%ADD12C,1.700000*%
G04 #@! TD*
G04 #@! TA.AperFunction,SMDPad,CuDef*
%ADD13R,1.000000X1.700000*%
G04 #@! TD*
G04 #@! TA.AperFunction,SMDPad,CuDef*
%ADD14R,1.000000X1.500000*%
G04 #@! TD*
G04 #@! TA.AperFunction,ComponentPad*
%ADD15C,2.200000*%
G04 #@! TD*
G04 #@! TA.AperFunction,ViaPad*
%ADD16C,0.700000*%
G04 #@! TD*
G04 #@! TA.AperFunction,Conductor*
%ADD17C,0.300000*%
G04 #@! TD*
G04 #@! TA.AperFunction,Conductor*
%ADD18C,1.000000*%
G04 #@! TD*
G04 #@! TA.AperFunction,Conductor*
%ADD19C,0.400000*%
G04 #@! TD*
G04 #@! TA.AperFunction,Conductor*
%ADD20C,0.500000*%
G04 #@! TD*
G04 #@! TA.AperFunction,Conductor*
%ADD21C,1.500000*%
G04 #@! TD*
G04 APERTURE END LIST*
D10*
X167262500Y-129537500D02*
X167262500Y-69537500D01*
X164762500Y-67037500D02*
X129762500Y-67037500D01*
X164762500Y-132037500D02*
G75*
G03*
X167262500Y-129537500I0J2500000D01*
G01*
X127262500Y-129537500D02*
G75*
G03*
X129762500Y-132037500I2500000J0D01*
G01*
X167262500Y-69537500D02*
G75*
G03*
X164762500Y-67037500I-2500000J0D01*
G01*
X164762500Y-132037500D02*
X129762500Y-132037500D01*
X127262500Y-69537500D02*
X127262500Y-129537500D01*
X129762500Y-67037500D02*
G75*
G03*
X127262500Y-69537500I0J-2500000D01*
G01*
G04 #@! TA.AperFunction,SMDPad,CuDef*
G36*
G01*
X155687500Y-102562500D02*
X155687500Y-103512500D01*
G75*
G02*
X155437500Y-103762500I-250000J0D01*
G01*
X154762500Y-103762500D01*
G75*
G02*
X154512500Y-103512500I0J250000D01*
G01*
X154512500Y-102562500D01*
G75*
G02*
X154762500Y-102312500I250000J0D01*
G01*
X155437500Y-102312500D01*
G75*
G02*
X155687500Y-102562500I0J-250000D01*
G01*
G37*
G04 #@! TD.AperFunction*
G04 #@! TA.AperFunction,SMDPad,CuDef*
G36*
G01*
X153612500Y-102562500D02*
X153612500Y-103512500D01*
G75*
G02*
X153362500Y-103762500I-250000J0D01*
G01*
X152687500Y-103762500D01*
G75*
G02*
X152437500Y-103512500I0J250000D01*
G01*
X152437500Y-102562500D01*
G75*
G02*
X152687500Y-102312500I250000J0D01*
G01*
X153362500Y-102312500D01*
G75*
G02*
X153612500Y-102562500I0J-250000D01*
G01*
G37*
G04 #@! TD.AperFunction*
G04 #@! TA.AperFunction,SMDPad,CuDef*
G36*
G01*
X129312500Y-111612500D02*
X130212500Y-111612500D01*
G75*
G02*
X130462500Y-111862500I0J-250000D01*
G01*
X130462500Y-112387500D01*
G75*
G02*
X130212500Y-112637500I-250000J0D01*
G01*
X129312500Y-112637500D01*
G75*
G02*
X129062500Y-112387500I0J250000D01*
G01*
X129062500Y-111862500D01*
G75*
G02*
X129312500Y-111612500I250000J0D01*
G01*
G37*
G04 #@! TD.AperFunction*
G04 #@! TA.AperFunction,SMDPad,CuDef*
G36*
G01*
X129312500Y-113437500D02*
X130212500Y-113437500D01*
G75*
G02*
X130462500Y-113687500I0J-250000D01*
G01*
X130462500Y-114212500D01*
G75*
G02*
X130212500Y-114462500I-250000J0D01*
G01*
X129312500Y-114462500D01*
G75*
G02*
X129062500Y-114212500I0J250000D01*
G01*
X129062500Y-113687500D01*
G75*
G02*
X129312500Y-113437500I250000J0D01*
G01*
G37*
G04 #@! TD.AperFunction*
G04 #@! TA.AperFunction,SMDPad,CuDef*
G36*
G01*
X134787500Y-124612500D02*
X135737500Y-124612500D01*
G75*
G02*
X135987500Y-124862500I0J-250000D01*
G01*
X135987500Y-125537500D01*
G75*
G02*
X135737500Y-125787500I-250000J0D01*
G01*
X134787500Y-125787500D01*
G75*
G02*
X134537500Y-125537500I0J250000D01*
G01*
X134537500Y-124862500D01*
G75*
G02*
X134787500Y-124612500I250000J0D01*
G01*
G37*
G04 #@! TD.AperFunction*
G04 #@! TA.AperFunction,SMDPad,CuDef*
G36*
G01*
X134787500Y-126687500D02*
X135737500Y-126687500D01*
G75*
G02*
X135987500Y-126937500I0J-250000D01*
G01*
X135987500Y-127612500D01*
G75*
G02*
X135737500Y-127862500I-250000J0D01*
G01*
X134787500Y-127862500D01*
G75*
G02*
X134537500Y-127612500I0J250000D01*
G01*
X134537500Y-126937500D01*
G75*
G02*
X134787500Y-126687500I250000J0D01*
G01*
G37*
G04 #@! TD.AperFunction*
G04 #@! TA.AperFunction,SMDPad,CuDef*
G36*
G01*
X138837500Y-93487500D02*
X138837500Y-92587500D01*
G75*
G02*
X139087500Y-92337500I250000J0D01*
G01*
X139612500Y-92337500D01*
G75*
G02*
X139862500Y-92587500I0J-250000D01*
G01*
X139862500Y-93487500D01*
G75*
G02*
X139612500Y-93737500I-250000J0D01*
G01*
X139087500Y-93737500D01*
G75*
G02*
X138837500Y-93487500I0J250000D01*
G01*
G37*
G04 #@! TD.AperFunction*
G04 #@! TA.AperFunction,SMDPad,CuDef*
G36*
G01*
X140662500Y-93487500D02*
X140662500Y-92587500D01*
G75*
G02*
X140912500Y-92337500I250000J0D01*
G01*
X141437500Y-92337500D01*
G75*
G02*
X141687500Y-92587500I0J-250000D01*
G01*
X141687500Y-93487500D01*
G75*
G02*
X141437500Y-93737500I-250000J0D01*
G01*
X140912500Y-93737500D01*
G75*
G02*
X140662500Y-93487500I0J250000D01*
G01*
G37*
G04 #@! TD.AperFunction*
G04 #@! TA.AperFunction,SMDPad,CuDef*
G36*
G01*
X155687500Y-100587500D02*
X155687500Y-101487500D01*
G75*
G02*
X155437500Y-101737500I-250000J0D01*
G01*
X154912500Y-101737500D01*
G75*
G02*
X154662500Y-101487500I0J250000D01*
G01*
X154662500Y-100587500D01*
G75*
G02*
X154912500Y-100337500I250000J0D01*
G01*
X155437500Y-100337500D01*
G75*
G02*
X155687500Y-100587500I0J-250000D01*
G01*
G37*
G04 #@! TD.AperFunction*
G04 #@! TA.AperFunction,SMDPad,CuDef*
G36*
G01*
X153862500Y-100587500D02*
X153862500Y-101487500D01*
G75*
G02*
X153612500Y-101737500I-250000J0D01*
G01*
X153087500Y-101737500D01*
G75*
G02*
X152837500Y-101487500I0J250000D01*
G01*
X152837500Y-100587500D01*
G75*
G02*
X153087500Y-100337500I250000J0D01*
G01*
X153612500Y-100337500D01*
G75*
G02*
X153862500Y-100587500I0J-250000D01*
G01*
G37*
G04 #@! TD.AperFunction*
G04 #@! TA.AperFunction,SMDPad,CuDef*
G36*
G01*
X138837500Y-95487500D02*
X138837500Y-94587500D01*
G75*
G02*
X139087500Y-94337500I250000J0D01*
G01*
X139612500Y-94337500D01*
G75*
G02*
X139862500Y-94587500I0J-250000D01*
G01*
X139862500Y-95487500D01*
G75*
G02*
X139612500Y-95737500I-250000J0D01*
G01*
X139087500Y-95737500D01*
G75*
G02*
X138837500Y-95487500I0J250000D01*
G01*
G37*
G04 #@! TD.AperFunction*
G04 #@! TA.AperFunction,SMDPad,CuDef*
G36*
G01*
X140662500Y-95487500D02*
X140662500Y-94587500D01*
G75*
G02*
X140912500Y-94337500I250000J0D01*
G01*
X141437500Y-94337500D01*
G75*
G02*
X141687500Y-94587500I0J-250000D01*
G01*
X141687500Y-95487500D01*
G75*
G02*
X141437500Y-95737500I-250000J0D01*
G01*
X140912500Y-95737500D01*
G75*
G02*
X140662500Y-95487500I0J250000D01*
G01*
G37*
G04 #@! TD.AperFunction*
G04 #@! TA.AperFunction,SMDPad,CuDef*
G36*
G01*
X155687500Y-70587500D02*
X155687500Y-71487500D01*
G75*
G02*
X155437500Y-71737500I-250000J0D01*
G01*
X154912500Y-71737500D01*
G75*
G02*
X154662500Y-71487500I0J250000D01*
G01*
X154662500Y-70587500D01*
G75*
G02*
X154912500Y-70337500I250000J0D01*
G01*
X155437500Y-70337500D01*
G75*
G02*
X155687500Y-70587500I0J-250000D01*
G01*
G37*
G04 #@! TD.AperFunction*
G04 #@! TA.AperFunction,SMDPad,CuDef*
G36*
G01*
X153862500Y-70587500D02*
X153862500Y-71487500D01*
G75*
G02*
X153612500Y-71737500I-250000J0D01*
G01*
X153087500Y-71737500D01*
G75*
G02*
X152837500Y-71487500I0J250000D01*
G01*
X152837500Y-70587500D01*
G75*
G02*
X153087500Y-70337500I250000J0D01*
G01*
X153612500Y-70337500D01*
G75*
G02*
X153862500Y-70587500I0J-250000D01*
G01*
G37*
G04 #@! TD.AperFunction*
G04 #@! TA.AperFunction,SMDPad,CuDef*
G36*
G01*
X154387500Y-82412500D02*
X155337500Y-82412500D01*
G75*
G02*
X155587500Y-82662500I0J-250000D01*
G01*
X155587500Y-83337500D01*
G75*
G02*
X155337500Y-83587500I-250000J0D01*
G01*
X154387500Y-83587500D01*
G75*
G02*
X154137500Y-83337500I0J250000D01*
G01*
X154137500Y-82662500D01*
G75*
G02*
X154387500Y-82412500I250000J0D01*
G01*
G37*
G04 #@! TD.AperFunction*
G04 #@! TA.AperFunction,SMDPad,CuDef*
G36*
G01*
X154387500Y-84487500D02*
X155337500Y-84487500D01*
G75*
G02*
X155587500Y-84737500I0J-250000D01*
G01*
X155587500Y-85412500D01*
G75*
G02*
X155337500Y-85662500I-250000J0D01*
G01*
X154387500Y-85662500D01*
G75*
G02*
X154137500Y-85412500I0J250000D01*
G01*
X154137500Y-84737500D01*
G75*
G02*
X154387500Y-84487500I250000J0D01*
G01*
G37*
G04 #@! TD.AperFunction*
D11*
X163762500Y-128537500D03*
G04 #@! TA.AperFunction,SMDPad,CuDef*
G36*
G01*
X138837500Y-85487500D02*
X138837500Y-84587500D01*
G75*
G02*
X139087500Y-84337500I250000J0D01*
G01*
X139612500Y-84337500D01*
G75*
G02*
X139862500Y-84587500I0J-250000D01*
G01*
X139862500Y-85487500D01*
G75*
G02*
X139612500Y-85737500I-250000J0D01*
G01*
X139087500Y-85737500D01*
G75*
G02*
X138837500Y-85487500I0J250000D01*
G01*
G37*
G04 #@! TD.AperFunction*
G04 #@! TA.AperFunction,SMDPad,CuDef*
G36*
G01*
X140662500Y-85487500D02*
X140662500Y-84587500D01*
G75*
G02*
X140912500Y-84337500I250000J0D01*
G01*
X141437500Y-84337500D01*
G75*
G02*
X141687500Y-84587500I0J-250000D01*
G01*
X141687500Y-85487500D01*
G75*
G02*
X141437500Y-85737500I-250000J0D01*
G01*
X140912500Y-85737500D01*
G75*
G02*
X140662500Y-85487500I0J250000D01*
G01*
G37*
G04 #@! TD.AperFunction*
G04 #@! TA.AperFunction,SMDPad,CuDef*
G36*
G01*
X157262500Y-129537500D02*
X157262500Y-130537500D01*
G75*
G02*
X156762500Y-131037500I-500000J0D01*
G01*
X154262500Y-131037500D01*
G75*
G02*
X153762500Y-130537500I0J500000D01*
G01*
X153762500Y-129537500D01*
G75*
G02*
X154262500Y-129037500I500000J0D01*
G01*
X156762500Y-129037500D01*
G75*
G02*
X157262500Y-129537500I0J-500000D01*
G01*
G37*
G04 #@! TD.AperFunction*
G04 #@! TA.AperFunction,SMDPad,CuDef*
G36*
G01*
X157262500Y-126997500D02*
X157262500Y-127997500D01*
G75*
G02*
X156762500Y-128497500I-500000J0D01*
G01*
X154262500Y-128497500D01*
G75*
G02*
X153762500Y-127997500I0J500000D01*
G01*
X153762500Y-126997500D01*
G75*
G02*
X154262500Y-126497500I500000J0D01*
G01*
X156762500Y-126497500D01*
G75*
G02*
X157262500Y-126997500I0J-500000D01*
G01*
G37*
G04 #@! TD.AperFunction*
G04 #@! TA.AperFunction,SMDPad,CuDef*
G36*
G01*
X157262500Y-124457500D02*
X157262500Y-125457500D01*
G75*
G02*
X156762500Y-125957500I-500000J0D01*
G01*
X154262500Y-125957500D01*
G75*
G02*
X153762500Y-125457500I0J500000D01*
G01*
X153762500Y-124457500D01*
G75*
G02*
X154262500Y-123957500I500000J0D01*
G01*
X156762500Y-123957500D01*
G75*
G02*
X157262500Y-124457500I0J-500000D01*
G01*
G37*
G04 #@! TD.AperFunction*
G04 #@! TA.AperFunction,SMDPad,CuDef*
G36*
G01*
X157262500Y-121917500D02*
X157262500Y-122917500D01*
G75*
G02*
X156762500Y-123417500I-500000J0D01*
G01*
X154262500Y-123417500D01*
G75*
G02*
X153762500Y-122917500I0J500000D01*
G01*
X153762500Y-121917500D01*
G75*
G02*
X154262500Y-121417500I500000J0D01*
G01*
X156762500Y-121417500D01*
G75*
G02*
X157262500Y-121917500I0J-500000D01*
G01*
G37*
G04 #@! TD.AperFunction*
G04 #@! TA.AperFunction,SMDPad,CuDef*
G36*
G01*
X157262500Y-119377500D02*
X157262500Y-120377500D01*
G75*
G02*
X156762500Y-120877500I-500000J0D01*
G01*
X154262500Y-120877500D01*
G75*
G02*
X153762500Y-120377500I0J500000D01*
G01*
X153762500Y-119377500D01*
G75*
G02*
X154262500Y-118877500I500000J0D01*
G01*
X156762500Y-118877500D01*
G75*
G02*
X157262500Y-119377500I0J-500000D01*
G01*
G37*
G04 #@! TD.AperFunction*
G04 #@! TA.AperFunction,SMDPad,CuDef*
G36*
G01*
X157262500Y-116837500D02*
X157262500Y-117837500D01*
G75*
G02*
X156762500Y-118337500I-500000J0D01*
G01*
X154262500Y-118337500D01*
G75*
G02*
X153762500Y-117837500I0J500000D01*
G01*
X153762500Y-116837500D01*
G75*
G02*
X154262500Y-116337500I500000J0D01*
G01*
X156762500Y-116337500D01*
G75*
G02*
X157262500Y-116837500I0J-500000D01*
G01*
G37*
G04 #@! TD.AperFunction*
G04 #@! TA.AperFunction,SMDPad,CuDef*
G36*
G01*
X157262500Y-114297500D02*
X157262500Y-115297500D01*
G75*
G02*
X156762500Y-115797500I-500000J0D01*
G01*
X154262500Y-115797500D01*
G75*
G02*
X153762500Y-115297500I0J500000D01*
G01*
X153762500Y-114297500D01*
G75*
G02*
X154262500Y-113797500I500000J0D01*
G01*
X156762500Y-113797500D01*
G75*
G02*
X157262500Y-114297500I0J-500000D01*
G01*
G37*
G04 #@! TD.AperFunction*
G04 #@! TA.AperFunction,SMDPad,CuDef*
G36*
G01*
X157262500Y-111757500D02*
X157262500Y-112757500D01*
G75*
G02*
X156762500Y-113257500I-500000J0D01*
G01*
X154262500Y-113257500D01*
G75*
G02*
X153762500Y-112757500I0J500000D01*
G01*
X153762500Y-111757500D01*
G75*
G02*
X154262500Y-111257500I500000J0D01*
G01*
X156762500Y-111257500D01*
G75*
G02*
X157262500Y-111757500I0J-500000D01*
G01*
G37*
G04 #@! TD.AperFunction*
G04 #@! TA.AperFunction,SMDPad,CuDef*
G36*
G01*
X140752500Y-111757500D02*
X140752500Y-112757500D01*
G75*
G02*
X140252500Y-113257500I-500000J0D01*
G01*
X137752500Y-113257500D01*
G75*
G02*
X137252500Y-112757500I0J500000D01*
G01*
X137252500Y-111757500D01*
G75*
G02*
X137752500Y-111257500I500000J0D01*
G01*
X140252500Y-111257500D01*
G75*
G02*
X140752500Y-111757500I0J-500000D01*
G01*
G37*
G04 #@! TD.AperFunction*
G04 #@! TA.AperFunction,SMDPad,CuDef*
G36*
G01*
X140752500Y-114297500D02*
X140752500Y-115297500D01*
G75*
G02*
X140252500Y-115797500I-500000J0D01*
G01*
X137752500Y-115797500D01*
G75*
G02*
X137252500Y-115297500I0J500000D01*
G01*
X137252500Y-114297500D01*
G75*
G02*
X137752500Y-113797500I500000J0D01*
G01*
X140252500Y-113797500D01*
G75*
G02*
X140752500Y-114297500I0J-500000D01*
G01*
G37*
G04 #@! TD.AperFunction*
G04 #@! TA.AperFunction,SMDPad,CuDef*
G36*
G01*
X140752500Y-116837500D02*
X140752500Y-117837500D01*
G75*
G02*
X140252500Y-118337500I-500000J0D01*
G01*
X137752500Y-118337500D01*
G75*
G02*
X137252500Y-117837500I0J500000D01*
G01*
X137252500Y-116837500D01*
G75*
G02*
X137752500Y-116337500I500000J0D01*
G01*
X140252500Y-116337500D01*
G75*
G02*
X140752500Y-116837500I0J-500000D01*
G01*
G37*
G04 #@! TD.AperFunction*
G04 #@! TA.AperFunction,SMDPad,CuDef*
G36*
G01*
X140752500Y-119377500D02*
X140752500Y-120377500D01*
G75*
G02*
X140252500Y-120877500I-500000J0D01*
G01*
X137752500Y-120877500D01*
G75*
G02*
X137252500Y-120377500I0J500000D01*
G01*
X137252500Y-119377500D01*
G75*
G02*
X137752500Y-118877500I500000J0D01*
G01*
X140252500Y-118877500D01*
G75*
G02*
X140752500Y-119377500I0J-500000D01*
G01*
G37*
G04 #@! TD.AperFunction*
G04 #@! TA.AperFunction,SMDPad,CuDef*
G36*
G01*
X140752500Y-121917500D02*
X140752500Y-122917500D01*
G75*
G02*
X140252500Y-123417500I-500000J0D01*
G01*
X137752500Y-123417500D01*
G75*
G02*
X137252500Y-122917500I0J500000D01*
G01*
X137252500Y-121917500D01*
G75*
G02*
X137752500Y-121417500I500000J0D01*
G01*
X140252500Y-121417500D01*
G75*
G02*
X140752500Y-121917500I0J-500000D01*
G01*
G37*
G04 #@! TD.AperFunction*
G04 #@! TA.AperFunction,SMDPad,CuDef*
G36*
G01*
X140752500Y-124457500D02*
X140752500Y-125457500D01*
G75*
G02*
X140252500Y-125957500I-500000J0D01*
G01*
X137752500Y-125957500D01*
G75*
G02*
X137252500Y-125457500I0J500000D01*
G01*
X137252500Y-124457500D01*
G75*
G02*
X137752500Y-123957500I500000J0D01*
G01*
X140252500Y-123957500D01*
G75*
G02*
X140752500Y-124457500I0J-500000D01*
G01*
G37*
G04 #@! TD.AperFunction*
G04 #@! TA.AperFunction,SMDPad,CuDef*
G36*
G01*
X140752500Y-126997500D02*
X140752500Y-127997500D01*
G75*
G02*
X140252500Y-128497500I-500000J0D01*
G01*
X137752500Y-128497500D01*
G75*
G02*
X137252500Y-127997500I0J500000D01*
G01*
X137252500Y-126997500D01*
G75*
G02*
X137752500Y-126497500I500000J0D01*
G01*
X140252500Y-126497500D01*
G75*
G02*
X140752500Y-126997500I0J-500000D01*
G01*
G37*
G04 #@! TD.AperFunction*
G04 #@! TA.AperFunction,SMDPad,CuDef*
G36*
G01*
X140752500Y-129537500D02*
X140752500Y-130537500D01*
G75*
G02*
X140252500Y-131037500I-500000J0D01*
G01*
X137752500Y-131037500D01*
G75*
G02*
X137252500Y-130537500I0J500000D01*
G01*
X137252500Y-129537500D01*
G75*
G02*
X137752500Y-129037500I500000J0D01*
G01*
X140252500Y-129037500D01*
G75*
G02*
X140752500Y-129537500I0J-500000D01*
G01*
G37*
G04 #@! TD.AperFunction*
G04 #@! TA.AperFunction,SMDPad,CuDef*
G36*
G01*
X155687500Y-88587500D02*
X155687500Y-89487500D01*
G75*
G02*
X155437500Y-89737500I-250000J0D01*
G01*
X154912500Y-89737500D01*
G75*
G02*
X154662500Y-89487500I0J250000D01*
G01*
X154662500Y-88587500D01*
G75*
G02*
X154912500Y-88337500I250000J0D01*
G01*
X155437500Y-88337500D01*
G75*
G02*
X155687500Y-88587500I0J-250000D01*
G01*
G37*
G04 #@! TD.AperFunction*
G04 #@! TA.AperFunction,SMDPad,CuDef*
G36*
G01*
X153862500Y-88587500D02*
X153862500Y-89487500D01*
G75*
G02*
X153612500Y-89737500I-250000J0D01*
G01*
X153087500Y-89737500D01*
G75*
G02*
X152837500Y-89487500I0J250000D01*
G01*
X152837500Y-88587500D01*
G75*
G02*
X153087500Y-88337500I250000J0D01*
G01*
X153612500Y-88337500D01*
G75*
G02*
X153862500Y-88587500I0J-250000D01*
G01*
G37*
G04 #@! TD.AperFunction*
G04 #@! TA.AperFunction,SMDPad,CuDef*
G36*
G01*
X138837500Y-101487500D02*
X138837500Y-100587500D01*
G75*
G02*
X139087500Y-100337500I250000J0D01*
G01*
X139612500Y-100337500D01*
G75*
G02*
X139862500Y-100587500I0J-250000D01*
G01*
X139862500Y-101487500D01*
G75*
G02*
X139612500Y-101737500I-250000J0D01*
G01*
X139087500Y-101737500D01*
G75*
G02*
X138837500Y-101487500I0J250000D01*
G01*
G37*
G04 #@! TD.AperFunction*
G04 #@! TA.AperFunction,SMDPad,CuDef*
G36*
G01*
X140662500Y-101487500D02*
X140662500Y-100587500D01*
G75*
G02*
X140912500Y-100337500I250000J0D01*
G01*
X141437500Y-100337500D01*
G75*
G02*
X141687500Y-100587500I0J-250000D01*
G01*
X141687500Y-101487500D01*
G75*
G02*
X141437500Y-101737500I-250000J0D01*
G01*
X140912500Y-101737500D01*
G75*
G02*
X140662500Y-101487500I0J250000D01*
G01*
G37*
G04 #@! TD.AperFunction*
G04 #@! TA.AperFunction,SMDPad,CuDef*
G36*
G01*
X155687500Y-80587500D02*
X155687500Y-81487500D01*
G75*
G02*
X155437500Y-81737500I-250000J0D01*
G01*
X154912500Y-81737500D01*
G75*
G02*
X154662500Y-81487500I0J250000D01*
G01*
X154662500Y-80587500D01*
G75*
G02*
X154912500Y-80337500I250000J0D01*
G01*
X155437500Y-80337500D01*
G75*
G02*
X155687500Y-80587500I0J-250000D01*
G01*
G37*
G04 #@! TD.AperFunction*
G04 #@! TA.AperFunction,SMDPad,CuDef*
G36*
G01*
X153862500Y-80587500D02*
X153862500Y-81487500D01*
G75*
G02*
X153612500Y-81737500I-250000J0D01*
G01*
X153087500Y-81737500D01*
G75*
G02*
X152837500Y-81487500I0J250000D01*
G01*
X152837500Y-80587500D01*
G75*
G02*
X153087500Y-80337500I250000J0D01*
G01*
X153612500Y-80337500D01*
G75*
G02*
X153862500Y-80587500I0J-250000D01*
G01*
G37*
G04 #@! TD.AperFunction*
D12*
X164462500Y-92037500D03*
X159462500Y-92037500D03*
G04 #@! TA.AperFunction,SMDPad,CuDef*
G36*
G01*
X161262500Y-93937500D02*
X162462500Y-93937500D01*
G75*
G02*
X162612500Y-94087500I0J-150000D01*
G01*
X162612500Y-95787500D01*
G75*
G02*
X162462500Y-95937500I-150000J0D01*
G01*
X161262500Y-95937500D01*
G75*
G02*
X161112500Y-95787500I0J150000D01*
G01*
X161112500Y-94087500D01*
G75*
G02*
X161262500Y-93937500I150000J0D01*
G01*
G37*
G04 #@! TD.AperFunction*
G04 #@! TA.AperFunction,SMDPad,CuDef*
G36*
G01*
X157562500Y-93937500D02*
X158762500Y-93937500D01*
G75*
G02*
X158912500Y-94087500I0J-150000D01*
G01*
X158912500Y-95787500D01*
G75*
G02*
X158762500Y-95937500I-150000J0D01*
G01*
X157562500Y-95937500D01*
G75*
G02*
X157412500Y-95787500I0J150000D01*
G01*
X157412500Y-94087500D01*
G75*
G02*
X157562500Y-93937500I150000J0D01*
G01*
G37*
G04 #@! TD.AperFunction*
G04 #@! TA.AperFunction,SMDPad,CuDef*
G36*
G01*
X164962500Y-88137500D02*
X166162500Y-88137500D01*
G75*
G02*
X166312500Y-88287500I0J-150000D01*
G01*
X166312500Y-89987500D01*
G75*
G02*
X166162500Y-90137500I-150000J0D01*
G01*
X164962500Y-90137500D01*
G75*
G02*
X164812500Y-89987500I0J150000D01*
G01*
X164812500Y-88287500D01*
G75*
G02*
X164962500Y-88137500I150000J0D01*
G01*
G37*
G04 #@! TD.AperFunction*
G04 #@! TA.AperFunction,SMDPad,CuDef*
G36*
G01*
X164962500Y-93937500D02*
X166162500Y-93937500D01*
G75*
G02*
X166312500Y-94087500I0J-150000D01*
G01*
X166312500Y-95787500D01*
G75*
G02*
X166162500Y-95937500I-150000J0D01*
G01*
X164962500Y-95937500D01*
G75*
G02*
X164812500Y-95787500I0J150000D01*
G01*
X164812500Y-94087500D01*
G75*
G02*
X164962500Y-93937500I150000J0D01*
G01*
G37*
G04 #@! TD.AperFunction*
G04 #@! TA.AperFunction,SMDPad,CuDef*
G36*
G01*
X161262500Y-88137500D02*
X162462500Y-88137500D01*
G75*
G02*
X162612500Y-88287500I0J-150000D01*
G01*
X162612500Y-89987500D01*
G75*
G02*
X162462500Y-90137500I-150000J0D01*
G01*
X161262500Y-90137500D01*
G75*
G02*
X161112500Y-89987500I0J150000D01*
G01*
X161112500Y-88287500D01*
G75*
G02*
X161262500Y-88137500I150000J0D01*
G01*
G37*
G04 #@! TD.AperFunction*
G04 #@! TA.AperFunction,SMDPad,CuDef*
G36*
G01*
X157562500Y-88137500D02*
X158762500Y-88137500D01*
G75*
G02*
X158912500Y-88287500I0J-150000D01*
G01*
X158912500Y-89987500D01*
G75*
G02*
X158762500Y-90137500I-150000J0D01*
G01*
X157562500Y-90137500D01*
G75*
G02*
X157412500Y-89987500I0J150000D01*
G01*
X157412500Y-88287500D01*
G75*
G02*
X157562500Y-88137500I150000J0D01*
G01*
G37*
G04 #@! TD.AperFunction*
X135062500Y-82037500D03*
X130062500Y-82037500D03*
G04 #@! TA.AperFunction,SMDPad,CuDef*
G36*
G01*
X133262500Y-80137500D02*
X132062500Y-80137500D01*
G75*
G02*
X131912500Y-79987500I0J150000D01*
G01*
X131912500Y-78287500D01*
G75*
G02*
X132062500Y-78137500I150000J0D01*
G01*
X133262500Y-78137500D01*
G75*
G02*
X133412500Y-78287500I0J-150000D01*
G01*
X133412500Y-79987500D01*
G75*
G02*
X133262500Y-80137500I-150000J0D01*
G01*
G37*
G04 #@! TD.AperFunction*
G04 #@! TA.AperFunction,SMDPad,CuDef*
G36*
G01*
X136962500Y-80137500D02*
X135762500Y-80137500D01*
G75*
G02*
X135612500Y-79987500I0J150000D01*
G01*
X135612500Y-78287500D01*
G75*
G02*
X135762500Y-78137500I150000J0D01*
G01*
X136962500Y-78137500D01*
G75*
G02*
X137112500Y-78287500I0J-150000D01*
G01*
X137112500Y-79987500D01*
G75*
G02*
X136962500Y-80137500I-150000J0D01*
G01*
G37*
G04 #@! TD.AperFunction*
G04 #@! TA.AperFunction,SMDPad,CuDef*
G36*
G01*
X129562500Y-85937500D02*
X128362500Y-85937500D01*
G75*
G02*
X128212500Y-85787500I0J150000D01*
G01*
X128212500Y-84087500D01*
G75*
G02*
X128362500Y-83937500I150000J0D01*
G01*
X129562500Y-83937500D01*
G75*
G02*
X129712500Y-84087500I0J-150000D01*
G01*
X129712500Y-85787500D01*
G75*
G02*
X129562500Y-85937500I-150000J0D01*
G01*
G37*
G04 #@! TD.AperFunction*
G04 #@! TA.AperFunction,SMDPad,CuDef*
G36*
G01*
X129562500Y-80137500D02*
X128362500Y-80137500D01*
G75*
G02*
X128212500Y-79987500I0J150000D01*
G01*
X128212500Y-78287500D01*
G75*
G02*
X128362500Y-78137500I150000J0D01*
G01*
X129562500Y-78137500D01*
G75*
G02*
X129712500Y-78287500I0J-150000D01*
G01*
X129712500Y-79987500D01*
G75*
G02*
X129562500Y-80137500I-150000J0D01*
G01*
G37*
G04 #@! TD.AperFunction*
G04 #@! TA.AperFunction,SMDPad,CuDef*
G36*
G01*
X133262500Y-85937500D02*
X132062500Y-85937500D01*
G75*
G02*
X131912500Y-85787500I0J150000D01*
G01*
X131912500Y-84087500D01*
G75*
G02*
X132062500Y-83937500I150000J0D01*
G01*
X133262500Y-83937500D01*
G75*
G02*
X133412500Y-84087500I0J-150000D01*
G01*
X133412500Y-85787500D01*
G75*
G02*
X133262500Y-85937500I-150000J0D01*
G01*
G37*
G04 #@! TD.AperFunction*
G04 #@! TA.AperFunction,SMDPad,CuDef*
G36*
G01*
X136962500Y-85937500D02*
X135762500Y-85937500D01*
G75*
G02*
X135612500Y-85787500I0J150000D01*
G01*
X135612500Y-84087500D01*
G75*
G02*
X135762500Y-83937500I150000J0D01*
G01*
X136962500Y-83937500D01*
G75*
G02*
X137112500Y-84087500I0J-150000D01*
G01*
X137112500Y-85787500D01*
G75*
G02*
X136962500Y-85937500I-150000J0D01*
G01*
G37*
G04 #@! TD.AperFunction*
X164462500Y-72037500D03*
X159462500Y-72037500D03*
G04 #@! TA.AperFunction,SMDPad,CuDef*
G36*
G01*
X161262500Y-73937500D02*
X162462500Y-73937500D01*
G75*
G02*
X162612500Y-74087500I0J-150000D01*
G01*
X162612500Y-75787500D01*
G75*
G02*
X162462500Y-75937500I-150000J0D01*
G01*
X161262500Y-75937500D01*
G75*
G02*
X161112500Y-75787500I0J150000D01*
G01*
X161112500Y-74087500D01*
G75*
G02*
X161262500Y-73937500I150000J0D01*
G01*
G37*
G04 #@! TD.AperFunction*
G04 #@! TA.AperFunction,SMDPad,CuDef*
G36*
G01*
X157562500Y-73937500D02*
X158762500Y-73937500D01*
G75*
G02*
X158912500Y-74087500I0J-150000D01*
G01*
X158912500Y-75787500D01*
G75*
G02*
X158762500Y-75937500I-150000J0D01*
G01*
X157562500Y-75937500D01*
G75*
G02*
X157412500Y-75787500I0J150000D01*
G01*
X157412500Y-74087500D01*
G75*
G02*
X157562500Y-73937500I150000J0D01*
G01*
G37*
G04 #@! TD.AperFunction*
G04 #@! TA.AperFunction,SMDPad,CuDef*
G36*
G01*
X164962500Y-68137500D02*
X166162500Y-68137500D01*
G75*
G02*
X166312500Y-68287500I0J-150000D01*
G01*
X166312500Y-69987500D01*
G75*
G02*
X166162500Y-70137500I-150000J0D01*
G01*
X164962500Y-70137500D01*
G75*
G02*
X164812500Y-69987500I0J150000D01*
G01*
X164812500Y-68287500D01*
G75*
G02*
X164962500Y-68137500I150000J0D01*
G01*
G37*
G04 #@! TD.AperFunction*
G04 #@! TA.AperFunction,SMDPad,CuDef*
G36*
G01*
X164962500Y-73937500D02*
X166162500Y-73937500D01*
G75*
G02*
X166312500Y-74087500I0J-150000D01*
G01*
X166312500Y-75787500D01*
G75*
G02*
X166162500Y-75937500I-150000J0D01*
G01*
X164962500Y-75937500D01*
G75*
G02*
X164812500Y-75787500I0J150000D01*
G01*
X164812500Y-74087500D01*
G75*
G02*
X164962500Y-73937500I150000J0D01*
G01*
G37*
G04 #@! TD.AperFunction*
G04 #@! TA.AperFunction,SMDPad,CuDef*
G36*
G01*
X161262500Y-68137500D02*
X162462500Y-68137500D01*
G75*
G02*
X162612500Y-68287500I0J-150000D01*
G01*
X162612500Y-69987500D01*
G75*
G02*
X162462500Y-70137500I-150000J0D01*
G01*
X161262500Y-70137500D01*
G75*
G02*
X161112500Y-69987500I0J150000D01*
G01*
X161112500Y-68287500D01*
G75*
G02*
X161262500Y-68137500I150000J0D01*
G01*
G37*
G04 #@! TD.AperFunction*
G04 #@! TA.AperFunction,SMDPad,CuDef*
G36*
G01*
X157562500Y-68137500D02*
X158762500Y-68137500D01*
G75*
G02*
X158912500Y-68287500I0J-150000D01*
G01*
X158912500Y-69987500D01*
G75*
G02*
X158762500Y-70137500I-150000J0D01*
G01*
X157562500Y-70137500D01*
G75*
G02*
X157412500Y-69987500I0J150000D01*
G01*
X157412500Y-68287500D01*
G75*
G02*
X157562500Y-68137500I150000J0D01*
G01*
G37*
G04 #@! TD.AperFunction*
D11*
X130762500Y-128537500D03*
G04 #@! TA.AperFunction,SMDPad,CuDef*
G36*
G01*
X162037500Y-114487500D02*
X162037500Y-113587500D01*
G75*
G02*
X162287500Y-113337500I250000J0D01*
G01*
X162812500Y-113337500D01*
G75*
G02*
X163062500Y-113587500I0J-250000D01*
G01*
X163062500Y-114487500D01*
G75*
G02*
X162812500Y-114737500I-250000J0D01*
G01*
X162287500Y-114737500D01*
G75*
G02*
X162037500Y-114487500I0J250000D01*
G01*
G37*
G04 #@! TD.AperFunction*
G04 #@! TA.AperFunction,SMDPad,CuDef*
G36*
G01*
X163862500Y-114487500D02*
X163862500Y-113587500D01*
G75*
G02*
X164112500Y-113337500I250000J0D01*
G01*
X164637500Y-113337500D01*
G75*
G02*
X164887500Y-113587500I0J-250000D01*
G01*
X164887500Y-114487500D01*
G75*
G02*
X164637500Y-114737500I-250000J0D01*
G01*
X164112500Y-114737500D01*
G75*
G02*
X163862500Y-114487500I0J250000D01*
G01*
G37*
G04 #@! TD.AperFunction*
G04 #@! TA.AperFunction,SMDPad,CuDef*
G36*
G01*
X155687500Y-78587500D02*
X155687500Y-79487500D01*
G75*
G02*
X155437500Y-79737500I-250000J0D01*
G01*
X154912500Y-79737500D01*
G75*
G02*
X154662500Y-79487500I0J250000D01*
G01*
X154662500Y-78587500D01*
G75*
G02*
X154912500Y-78337500I250000J0D01*
G01*
X155437500Y-78337500D01*
G75*
G02*
X155687500Y-78587500I0J-250000D01*
G01*
G37*
G04 #@! TD.AperFunction*
G04 #@! TA.AperFunction,SMDPad,CuDef*
G36*
G01*
X153862500Y-78587500D02*
X153862500Y-79487500D01*
G75*
G02*
X153612500Y-79737500I-250000J0D01*
G01*
X153087500Y-79737500D01*
G75*
G02*
X152837500Y-79487500I0J250000D01*
G01*
X152837500Y-78587500D01*
G75*
G02*
X153087500Y-78337500I250000J0D01*
G01*
X153612500Y-78337500D01*
G75*
G02*
X153862500Y-78587500I0J-250000D01*
G01*
G37*
G04 #@! TD.AperFunction*
G04 #@! TA.AperFunction,SMDPad,CuDef*
G36*
G01*
X140137500Y-91662500D02*
X139187500Y-91662500D01*
G75*
G02*
X138937500Y-91412500I0J250000D01*
G01*
X138937500Y-90737500D01*
G75*
G02*
X139187500Y-90487500I250000J0D01*
G01*
X140137500Y-90487500D01*
G75*
G02*
X140387500Y-90737500I0J-250000D01*
G01*
X140387500Y-91412500D01*
G75*
G02*
X140137500Y-91662500I-250000J0D01*
G01*
G37*
G04 #@! TD.AperFunction*
G04 #@! TA.AperFunction,SMDPad,CuDef*
G36*
G01*
X140137500Y-89587500D02*
X139187500Y-89587500D01*
G75*
G02*
X138937500Y-89337500I0J250000D01*
G01*
X138937500Y-88662500D01*
G75*
G02*
X139187500Y-88412500I250000J0D01*
G01*
X140137500Y-88412500D01*
G75*
G02*
X140387500Y-88662500I0J-250000D01*
G01*
X140387500Y-89337500D01*
G75*
G02*
X140137500Y-89587500I-250000J0D01*
G01*
G37*
G04 #@! TD.AperFunction*
G04 #@! TA.AperFunction,SMDPad,CuDef*
G36*
G01*
X140137500Y-81662500D02*
X139187500Y-81662500D01*
G75*
G02*
X138937500Y-81412500I0J250000D01*
G01*
X138937500Y-80737500D01*
G75*
G02*
X139187500Y-80487500I250000J0D01*
G01*
X140137500Y-80487500D01*
G75*
G02*
X140387500Y-80737500I0J-250000D01*
G01*
X140387500Y-81412500D01*
G75*
G02*
X140137500Y-81662500I-250000J0D01*
G01*
G37*
G04 #@! TD.AperFunction*
G04 #@! TA.AperFunction,SMDPad,CuDef*
G36*
G01*
X140137500Y-79587500D02*
X139187500Y-79587500D01*
G75*
G02*
X138937500Y-79337500I0J250000D01*
G01*
X138937500Y-78662500D01*
G75*
G02*
X139187500Y-78412500I250000J0D01*
G01*
X140137500Y-78412500D01*
G75*
G02*
X140387500Y-78662500I0J-250000D01*
G01*
X140387500Y-79337500D01*
G75*
G02*
X140137500Y-79587500I-250000J0D01*
G01*
G37*
G04 #@! TD.AperFunction*
D13*
X130362500Y-116887500D03*
X130362500Y-123187500D03*
X134162500Y-116887500D03*
X134162500Y-123187500D03*
G04 #@! TA.AperFunction,SMDPad,CuDef*
G36*
G01*
X154387500Y-92412500D02*
X155337500Y-92412500D01*
G75*
G02*
X155587500Y-92662500I0J-250000D01*
G01*
X155587500Y-93337500D01*
G75*
G02*
X155337500Y-93587500I-250000J0D01*
G01*
X154387500Y-93587500D01*
G75*
G02*
X154137500Y-93337500I0J250000D01*
G01*
X154137500Y-92662500D01*
G75*
G02*
X154387500Y-92412500I250000J0D01*
G01*
G37*
G04 #@! TD.AperFunction*
G04 #@! TA.AperFunction,SMDPad,CuDef*
G36*
G01*
X154387500Y-94487500D02*
X155337500Y-94487500D01*
G75*
G02*
X155587500Y-94737500I0J-250000D01*
G01*
X155587500Y-95412500D01*
G75*
G02*
X155337500Y-95662500I-250000J0D01*
G01*
X154387500Y-95662500D01*
G75*
G02*
X154137500Y-95412500I0J250000D01*
G01*
X154137500Y-94737500D01*
G75*
G02*
X154387500Y-94487500I250000J0D01*
G01*
G37*
G04 #@! TD.AperFunction*
X164162500Y-123187500D03*
X164162500Y-116887500D03*
X160362500Y-123187500D03*
X160362500Y-116887500D03*
G04 #@! TA.AperFunction,SMDPad,CuDef*
G36*
G01*
X140137500Y-72462500D02*
X139187500Y-72462500D01*
G75*
G02*
X138937500Y-72212500I0J250000D01*
G01*
X138937500Y-71537500D01*
G75*
G02*
X139187500Y-71287500I250000J0D01*
G01*
X140137500Y-71287500D01*
G75*
G02*
X140387500Y-71537500I0J-250000D01*
G01*
X140387500Y-72212500D01*
G75*
G02*
X140137500Y-72462500I-250000J0D01*
G01*
G37*
G04 #@! TD.AperFunction*
G04 #@! TA.AperFunction,SMDPad,CuDef*
G36*
G01*
X140137500Y-70387500D02*
X139187500Y-70387500D01*
G75*
G02*
X138937500Y-70137500I0J250000D01*
G01*
X138937500Y-69462500D01*
G75*
G02*
X139187500Y-69212500I250000J0D01*
G01*
X140137500Y-69212500D01*
G75*
G02*
X140387500Y-69462500I0J-250000D01*
G01*
X140387500Y-70137500D01*
G75*
G02*
X140137500Y-70387500I-250000J0D01*
G01*
G37*
G04 #@! TD.AperFunction*
D12*
X159462500Y-102037500D03*
X164462500Y-102037500D03*
G04 #@! TA.AperFunction,SMDPad,CuDef*
G36*
G01*
X161262500Y-103937500D02*
X162462500Y-103937500D01*
G75*
G02*
X162612500Y-104087500I0J-150000D01*
G01*
X162612500Y-105787500D01*
G75*
G02*
X162462500Y-105937500I-150000J0D01*
G01*
X161262500Y-105937500D01*
G75*
G02*
X161112500Y-105787500I0J150000D01*
G01*
X161112500Y-104087500D01*
G75*
G02*
X161262500Y-103937500I150000J0D01*
G01*
G37*
G04 #@! TD.AperFunction*
G04 #@! TA.AperFunction,SMDPad,CuDef*
G36*
G01*
X157562500Y-103937500D02*
X158762500Y-103937500D01*
G75*
G02*
X158912500Y-104087500I0J-150000D01*
G01*
X158912500Y-105787500D01*
G75*
G02*
X158762500Y-105937500I-150000J0D01*
G01*
X157562500Y-105937500D01*
G75*
G02*
X157412500Y-105787500I0J150000D01*
G01*
X157412500Y-104087500D01*
G75*
G02*
X157562500Y-103937500I150000J0D01*
G01*
G37*
G04 #@! TD.AperFunction*
G04 #@! TA.AperFunction,SMDPad,CuDef*
G36*
G01*
X164962500Y-98137500D02*
X166162500Y-98137500D01*
G75*
G02*
X166312500Y-98287500I0J-150000D01*
G01*
X166312500Y-99987500D01*
G75*
G02*
X166162500Y-100137500I-150000J0D01*
G01*
X164962500Y-100137500D01*
G75*
G02*
X164812500Y-99987500I0J150000D01*
G01*
X164812500Y-98287500D01*
G75*
G02*
X164962500Y-98137500I150000J0D01*
G01*
G37*
G04 #@! TD.AperFunction*
G04 #@! TA.AperFunction,SMDPad,CuDef*
G36*
G01*
X164962500Y-103937500D02*
X166162500Y-103937500D01*
G75*
G02*
X166312500Y-104087500I0J-150000D01*
G01*
X166312500Y-105787500D01*
G75*
G02*
X166162500Y-105937500I-150000J0D01*
G01*
X164962500Y-105937500D01*
G75*
G02*
X164812500Y-105787500I0J150000D01*
G01*
X164812500Y-104087500D01*
G75*
G02*
X164962500Y-103937500I150000J0D01*
G01*
G37*
G04 #@! TD.AperFunction*
G04 #@! TA.AperFunction,SMDPad,CuDef*
G36*
G01*
X161262500Y-98137500D02*
X162462500Y-98137500D01*
G75*
G02*
X162612500Y-98287500I0J-150000D01*
G01*
X162612500Y-99987500D01*
G75*
G02*
X162462500Y-100137500I-150000J0D01*
G01*
X161262500Y-100137500D01*
G75*
G02*
X161112500Y-99987500I0J150000D01*
G01*
X161112500Y-98287500D01*
G75*
G02*
X161262500Y-98137500I150000J0D01*
G01*
G37*
G04 #@! TD.AperFunction*
G04 #@! TA.AperFunction,SMDPad,CuDef*
G36*
G01*
X157562500Y-98137500D02*
X158762500Y-98137500D01*
G75*
G02*
X158912500Y-98287500I0J-150000D01*
G01*
X158912500Y-99987500D01*
G75*
G02*
X158762500Y-100137500I-150000J0D01*
G01*
X157562500Y-100137500D01*
G75*
G02*
X157412500Y-99987500I0J150000D01*
G01*
X157412500Y-98287500D01*
G75*
G02*
X157562500Y-98137500I150000J0D01*
G01*
G37*
G04 #@! TD.AperFunction*
G04 #@! TA.AperFunction,SMDPad,CuDef*
G36*
G01*
X143062500Y-97912500D02*
X142762500Y-97912500D01*
G75*
G02*
X142612500Y-97762500I0J150000D01*
G01*
X142612500Y-96587500D01*
G75*
G02*
X142762500Y-96437500I150000J0D01*
G01*
X143062500Y-96437500D01*
G75*
G02*
X143212500Y-96587500I0J-150000D01*
G01*
X143212500Y-97762500D01*
G75*
G02*
X143062500Y-97912500I-150000J0D01*
G01*
G37*
G04 #@! TD.AperFunction*
G04 #@! TA.AperFunction,SMDPad,CuDef*
G36*
G01*
X144962500Y-97912500D02*
X144662500Y-97912500D01*
G75*
G02*
X144512500Y-97762500I0J150000D01*
G01*
X144512500Y-96587500D01*
G75*
G02*
X144662500Y-96437500I150000J0D01*
G01*
X144962500Y-96437500D01*
G75*
G02*
X145112500Y-96587500I0J-150000D01*
G01*
X145112500Y-97762500D01*
G75*
G02*
X144962500Y-97912500I-150000J0D01*
G01*
G37*
G04 #@! TD.AperFunction*
G04 #@! TA.AperFunction,SMDPad,CuDef*
G36*
G01*
X144012500Y-96037500D02*
X143712500Y-96037500D01*
G75*
G02*
X143562500Y-95887500I0J150000D01*
G01*
X143562500Y-94712500D01*
G75*
G02*
X143712500Y-94562500I150000J0D01*
G01*
X144012500Y-94562500D01*
G75*
G02*
X144162500Y-94712500I0J-150000D01*
G01*
X144162500Y-95887500D01*
G75*
G02*
X144012500Y-96037500I-150000J0D01*
G01*
G37*
G04 #@! TD.AperFunction*
G04 #@! TA.AperFunction,SMDPad,CuDef*
G36*
G01*
X151460436Y-80587500D02*
X151460436Y-81487500D01*
G75*
G02*
X151210436Y-81737500I-250000J0D01*
G01*
X150685436Y-81737500D01*
G75*
G02*
X150435436Y-81487500I0J250000D01*
G01*
X150435436Y-80587500D01*
G75*
G02*
X150685436Y-80337500I250000J0D01*
G01*
X151210436Y-80337500D01*
G75*
G02*
X151460436Y-80587500I0J-250000D01*
G01*
G37*
G04 #@! TD.AperFunction*
G04 #@! TA.AperFunction,SMDPad,CuDef*
G36*
G01*
X149635436Y-80587500D02*
X149635436Y-81487500D01*
G75*
G02*
X149385436Y-81737500I-250000J0D01*
G01*
X148860436Y-81737500D01*
G75*
G02*
X148610436Y-81487500I0J250000D01*
G01*
X148610436Y-80587500D01*
G75*
G02*
X148860436Y-80337500I250000J0D01*
G01*
X149385436Y-80337500D01*
G75*
G02*
X149635436Y-80587500I0J-250000D01*
G01*
G37*
G04 #@! TD.AperFunction*
G04 #@! TA.AperFunction,SMDPad,CuDef*
G36*
G01*
X155687500Y-98587500D02*
X155687500Y-99487500D01*
G75*
G02*
X155437500Y-99737500I-250000J0D01*
G01*
X154912500Y-99737500D01*
G75*
G02*
X154662500Y-99487500I0J250000D01*
G01*
X154662500Y-98587500D01*
G75*
G02*
X154912500Y-98337500I250000J0D01*
G01*
X155437500Y-98337500D01*
G75*
G02*
X155687500Y-98587500I0J-250000D01*
G01*
G37*
G04 #@! TD.AperFunction*
G04 #@! TA.AperFunction,SMDPad,CuDef*
G36*
G01*
X153862500Y-98587500D02*
X153862500Y-99487500D01*
G75*
G02*
X153612500Y-99737500I-250000J0D01*
G01*
X153087500Y-99737500D01*
G75*
G02*
X152837500Y-99487500I0J250000D01*
G01*
X152837500Y-98587500D01*
G75*
G02*
X153087500Y-98337500I250000J0D01*
G01*
X153612500Y-98337500D01*
G75*
G02*
X153862500Y-98587500I0J-250000D01*
G01*
G37*
G04 #@! TD.AperFunction*
X130062500Y-102037500D03*
X135062500Y-102037500D03*
G04 #@! TA.AperFunction,SMDPad,CuDef*
G36*
G01*
X133262500Y-100137500D02*
X132062500Y-100137500D01*
G75*
G02*
X131912500Y-99987500I0J150000D01*
G01*
X131912500Y-98287500D01*
G75*
G02*
X132062500Y-98137500I150000J0D01*
G01*
X133262500Y-98137500D01*
G75*
G02*
X133412500Y-98287500I0J-150000D01*
G01*
X133412500Y-99987500D01*
G75*
G02*
X133262500Y-100137500I-150000J0D01*
G01*
G37*
G04 #@! TD.AperFunction*
G04 #@! TA.AperFunction,SMDPad,CuDef*
G36*
G01*
X136962500Y-100137500D02*
X135762500Y-100137500D01*
G75*
G02*
X135612500Y-99987500I0J150000D01*
G01*
X135612500Y-98287500D01*
G75*
G02*
X135762500Y-98137500I150000J0D01*
G01*
X136962500Y-98137500D01*
G75*
G02*
X137112500Y-98287500I0J-150000D01*
G01*
X137112500Y-99987500D01*
G75*
G02*
X136962500Y-100137500I-150000J0D01*
G01*
G37*
G04 #@! TD.AperFunction*
G04 #@! TA.AperFunction,SMDPad,CuDef*
G36*
G01*
X129562500Y-105937500D02*
X128362500Y-105937500D01*
G75*
G02*
X128212500Y-105787500I0J150000D01*
G01*
X128212500Y-104087500D01*
G75*
G02*
X128362500Y-103937500I150000J0D01*
G01*
X129562500Y-103937500D01*
G75*
G02*
X129712500Y-104087500I0J-150000D01*
G01*
X129712500Y-105787500D01*
G75*
G02*
X129562500Y-105937500I-150000J0D01*
G01*
G37*
G04 #@! TD.AperFunction*
G04 #@! TA.AperFunction,SMDPad,CuDef*
G36*
G01*
X129562500Y-100137500D02*
X128362500Y-100137500D01*
G75*
G02*
X128212500Y-99987500I0J150000D01*
G01*
X128212500Y-98287500D01*
G75*
G02*
X128362500Y-98137500I150000J0D01*
G01*
X129562500Y-98137500D01*
G75*
G02*
X129712500Y-98287500I0J-150000D01*
G01*
X129712500Y-99987500D01*
G75*
G02*
X129562500Y-100137500I-150000J0D01*
G01*
G37*
G04 #@! TD.AperFunction*
G04 #@! TA.AperFunction,SMDPad,CuDef*
G36*
G01*
X133262500Y-105937500D02*
X132062500Y-105937500D01*
G75*
G02*
X131912500Y-105787500I0J150000D01*
G01*
X131912500Y-104087500D01*
G75*
G02*
X132062500Y-103937500I150000J0D01*
G01*
X133262500Y-103937500D01*
G75*
G02*
X133412500Y-104087500I0J-150000D01*
G01*
X133412500Y-105787500D01*
G75*
G02*
X133262500Y-105937500I-150000J0D01*
G01*
G37*
G04 #@! TD.AperFunction*
G04 #@! TA.AperFunction,SMDPad,CuDef*
G36*
G01*
X136962500Y-105937500D02*
X135762500Y-105937500D01*
G75*
G02*
X135612500Y-105787500I0J150000D01*
G01*
X135612500Y-104087500D01*
G75*
G02*
X135762500Y-103937500I150000J0D01*
G01*
X136962500Y-103937500D01*
G75*
G02*
X137112500Y-104087500I0J-150000D01*
G01*
X137112500Y-105787500D01*
G75*
G02*
X136962500Y-105937500I-150000J0D01*
G01*
G37*
G04 #@! TD.AperFunction*
X164462500Y-82037500D03*
X159462500Y-82037500D03*
G04 #@! TA.AperFunction,SMDPad,CuDef*
G36*
G01*
X161262500Y-83937500D02*
X162462500Y-83937500D01*
G75*
G02*
X162612500Y-84087500I0J-150000D01*
G01*
X162612500Y-85787500D01*
G75*
G02*
X162462500Y-85937500I-150000J0D01*
G01*
X161262500Y-85937500D01*
G75*
G02*
X161112500Y-85787500I0J150000D01*
G01*
X161112500Y-84087500D01*
G75*
G02*
X161262500Y-83937500I150000J0D01*
G01*
G37*
G04 #@! TD.AperFunction*
G04 #@! TA.AperFunction,SMDPad,CuDef*
G36*
G01*
X157562500Y-83937500D02*
X158762500Y-83937500D01*
G75*
G02*
X158912500Y-84087500I0J-150000D01*
G01*
X158912500Y-85787500D01*
G75*
G02*
X158762500Y-85937500I-150000J0D01*
G01*
X157562500Y-85937500D01*
G75*
G02*
X157412500Y-85787500I0J150000D01*
G01*
X157412500Y-84087500D01*
G75*
G02*
X157562500Y-83937500I150000J0D01*
G01*
G37*
G04 #@! TD.AperFunction*
G04 #@! TA.AperFunction,SMDPad,CuDef*
G36*
G01*
X164962500Y-78137500D02*
X166162500Y-78137500D01*
G75*
G02*
X166312500Y-78287500I0J-150000D01*
G01*
X166312500Y-79987500D01*
G75*
G02*
X166162500Y-80137500I-150000J0D01*
G01*
X164962500Y-80137500D01*
G75*
G02*
X164812500Y-79987500I0J150000D01*
G01*
X164812500Y-78287500D01*
G75*
G02*
X164962500Y-78137500I150000J0D01*
G01*
G37*
G04 #@! TD.AperFunction*
G04 #@! TA.AperFunction,SMDPad,CuDef*
G36*
G01*
X164962500Y-83937500D02*
X166162500Y-83937500D01*
G75*
G02*
X166312500Y-84087500I0J-150000D01*
G01*
X166312500Y-85787500D01*
G75*
G02*
X166162500Y-85937500I-150000J0D01*
G01*
X164962500Y-85937500D01*
G75*
G02*
X164812500Y-85787500I0J150000D01*
G01*
X164812500Y-84087500D01*
G75*
G02*
X164962500Y-83937500I150000J0D01*
G01*
G37*
G04 #@! TD.AperFunction*
G04 #@! TA.AperFunction,SMDPad,CuDef*
G36*
G01*
X161262500Y-78137500D02*
X162462500Y-78137500D01*
G75*
G02*
X162612500Y-78287500I0J-150000D01*
G01*
X162612500Y-79987500D01*
G75*
G02*
X162462500Y-80137500I-150000J0D01*
G01*
X161262500Y-80137500D01*
G75*
G02*
X161112500Y-79987500I0J150000D01*
G01*
X161112500Y-78287500D01*
G75*
G02*
X161262500Y-78137500I150000J0D01*
G01*
G37*
G04 #@! TD.AperFunction*
G04 #@! TA.AperFunction,SMDPad,CuDef*
G36*
G01*
X157562500Y-78137500D02*
X158762500Y-78137500D01*
G75*
G02*
X158912500Y-78287500I0J-150000D01*
G01*
X158912500Y-79987500D01*
G75*
G02*
X158762500Y-80137500I-150000J0D01*
G01*
X157562500Y-80137500D01*
G75*
G02*
X157412500Y-79987500I0J150000D01*
G01*
X157412500Y-78287500D01*
G75*
G02*
X157562500Y-78137500I150000J0D01*
G01*
G37*
G04 #@! TD.AperFunction*
G04 #@! TA.AperFunction,SMDPad,CuDef*
G36*
G01*
X155687500Y-90587500D02*
X155687500Y-91487500D01*
G75*
G02*
X155437500Y-91737500I-250000J0D01*
G01*
X154912500Y-91737500D01*
G75*
G02*
X154662500Y-91487500I0J250000D01*
G01*
X154662500Y-90587500D01*
G75*
G02*
X154912500Y-90337500I250000J0D01*
G01*
X155437500Y-90337500D01*
G75*
G02*
X155687500Y-90587500I0J-250000D01*
G01*
G37*
G04 #@! TD.AperFunction*
G04 #@! TA.AperFunction,SMDPad,CuDef*
G36*
G01*
X153862500Y-90587500D02*
X153862500Y-91487500D01*
G75*
G02*
X153612500Y-91737500I-250000J0D01*
G01*
X153087500Y-91737500D01*
G75*
G02*
X152837500Y-91487500I0J250000D01*
G01*
X152837500Y-90587500D01*
G75*
G02*
X153087500Y-90337500I250000J0D01*
G01*
X153612500Y-90337500D01*
G75*
G02*
X153862500Y-90587500I0J-250000D01*
G01*
G37*
G04 #@! TD.AperFunction*
G04 #@! TA.AperFunction,SMDPad,CuDef*
G36*
G01*
X138837500Y-76287500D02*
X138837500Y-75387500D01*
G75*
G02*
X139087500Y-75137500I250000J0D01*
G01*
X139612500Y-75137500D01*
G75*
G02*
X139862500Y-75387500I0J-250000D01*
G01*
X139862500Y-76287500D01*
G75*
G02*
X139612500Y-76537500I-250000J0D01*
G01*
X139087500Y-76537500D01*
G75*
G02*
X138837500Y-76287500I0J250000D01*
G01*
G37*
G04 #@! TD.AperFunction*
G04 #@! TA.AperFunction,SMDPad,CuDef*
G36*
G01*
X140662500Y-76287500D02*
X140662500Y-75387500D01*
G75*
G02*
X140912500Y-75137500I250000J0D01*
G01*
X141437500Y-75137500D01*
G75*
G02*
X141687500Y-75387500I0J-250000D01*
G01*
X141687500Y-76287500D01*
G75*
G02*
X141437500Y-76537500I-250000J0D01*
G01*
X140912500Y-76537500D01*
G75*
G02*
X140662500Y-76287500I0J250000D01*
G01*
G37*
G04 #@! TD.AperFunction*
D11*
X147262500Y-103037500D03*
G04 #@! TA.AperFunction,SMDPad,CuDef*
G36*
X150012500Y-75287500D02*
G01*
X150562500Y-75287500D01*
X150562500Y-75292467D01*
X150642441Y-75293932D01*
X150777756Y-75336207D01*
X150895766Y-75414762D01*
X150986986Y-75523281D01*
X151044081Y-75653040D01*
X151061664Y-75787500D01*
X151062500Y-75787500D01*
X151062500Y-76287500D01*
X151061664Y-76287500D01*
X151062463Y-76293609D01*
X151040652Y-76433686D01*
X150980404Y-76562011D01*
X150886560Y-76668269D01*
X150766665Y-76743917D01*
X150630358Y-76782874D01*
X150562500Y-76782459D01*
X150562500Y-76787500D01*
X150012500Y-76787500D01*
X150012500Y-75287500D01*
G37*
G04 #@! TD.AperFunction*
D14*
X149262500Y-76037500D03*
G04 #@! TA.AperFunction,SMDPad,CuDef*
G36*
X147962500Y-76782459D02*
G01*
X147888595Y-76782008D01*
X147752774Y-76741389D01*
X147633812Y-76664282D01*
X147541274Y-76556885D01*
X147482597Y-76427833D01*
X147462500Y-76287500D01*
X147462500Y-75787500D01*
X147462649Y-75775284D01*
X147486169Y-75635483D01*
X147547981Y-75507904D01*
X147643116Y-75402800D01*
X147763926Y-75328623D01*
X147900699Y-75291334D01*
X147962500Y-75292467D01*
X147962500Y-75287500D01*
X148512500Y-75287500D01*
X148512500Y-76787500D01*
X147962500Y-76787500D01*
X147962500Y-76782459D01*
G37*
G04 #@! TD.AperFunction*
D12*
X135062500Y-92037500D03*
X130062500Y-92037500D03*
G04 #@! TA.AperFunction,SMDPad,CuDef*
G36*
G01*
X133262500Y-90137500D02*
X132062500Y-90137500D01*
G75*
G02*
X131912500Y-89987500I0J150000D01*
G01*
X131912500Y-88287500D01*
G75*
G02*
X132062500Y-88137500I150000J0D01*
G01*
X133262500Y-88137500D01*
G75*
G02*
X133412500Y-88287500I0J-150000D01*
G01*
X133412500Y-89987500D01*
G75*
G02*
X133262500Y-90137500I-150000J0D01*
G01*
G37*
G04 #@! TD.AperFunction*
G04 #@! TA.AperFunction,SMDPad,CuDef*
G36*
G01*
X136962500Y-90137500D02*
X135762500Y-90137500D01*
G75*
G02*
X135612500Y-89987500I0J150000D01*
G01*
X135612500Y-88287500D01*
G75*
G02*
X135762500Y-88137500I150000J0D01*
G01*
X136962500Y-88137500D01*
G75*
G02*
X137112500Y-88287500I0J-150000D01*
G01*
X137112500Y-89987500D01*
G75*
G02*
X136962500Y-90137500I-150000J0D01*
G01*
G37*
G04 #@! TD.AperFunction*
G04 #@! TA.AperFunction,SMDPad,CuDef*
G36*
G01*
X129562500Y-95937500D02*
X128362500Y-95937500D01*
G75*
G02*
X128212500Y-95787500I0J150000D01*
G01*
X128212500Y-94087500D01*
G75*
G02*
X128362500Y-93937500I150000J0D01*
G01*
X129562500Y-93937500D01*
G75*
G02*
X129712500Y-94087500I0J-150000D01*
G01*
X129712500Y-95787500D01*
G75*
G02*
X129562500Y-95937500I-150000J0D01*
G01*
G37*
G04 #@! TD.AperFunction*
G04 #@! TA.AperFunction,SMDPad,CuDef*
G36*
G01*
X129562500Y-90137500D02*
X128362500Y-90137500D01*
G75*
G02*
X128212500Y-89987500I0J150000D01*
G01*
X128212500Y-88287500D01*
G75*
G02*
X128362500Y-88137500I150000J0D01*
G01*
X129562500Y-88137500D01*
G75*
G02*
X129712500Y-88287500I0J-150000D01*
G01*
X129712500Y-89987500D01*
G75*
G02*
X129562500Y-90137500I-150000J0D01*
G01*
G37*
G04 #@! TD.AperFunction*
G04 #@! TA.AperFunction,SMDPad,CuDef*
G36*
G01*
X133262500Y-95937500D02*
X132062500Y-95937500D01*
G75*
G02*
X131912500Y-95787500I0J150000D01*
G01*
X131912500Y-94087500D01*
G75*
G02*
X132062500Y-93937500I150000J0D01*
G01*
X133262500Y-93937500D01*
G75*
G02*
X133412500Y-94087500I0J-150000D01*
G01*
X133412500Y-95787500D01*
G75*
G02*
X133262500Y-95937500I-150000J0D01*
G01*
G37*
G04 #@! TD.AperFunction*
G04 #@! TA.AperFunction,SMDPad,CuDef*
G36*
G01*
X136962500Y-95937500D02*
X135762500Y-95937500D01*
G75*
G02*
X135612500Y-95787500I0J150000D01*
G01*
X135612500Y-94087500D01*
G75*
G02*
X135762500Y-93937500I150000J0D01*
G01*
X136962500Y-93937500D01*
G75*
G02*
X137112500Y-94087500I0J-150000D01*
G01*
X137112500Y-95787500D01*
G75*
G02*
X136962500Y-95937500I-150000J0D01*
G01*
G37*
G04 #@! TD.AperFunction*
G04 #@! TA.AperFunction,SMDPad,CuDef*
G36*
G01*
X154387500Y-72412500D02*
X155337500Y-72412500D01*
G75*
G02*
X155587500Y-72662500I0J-250000D01*
G01*
X155587500Y-73337500D01*
G75*
G02*
X155337500Y-73587500I-250000J0D01*
G01*
X154387500Y-73587500D01*
G75*
G02*
X154137500Y-73337500I0J250000D01*
G01*
X154137500Y-72662500D01*
G75*
G02*
X154387500Y-72412500I250000J0D01*
G01*
G37*
G04 #@! TD.AperFunction*
G04 #@! TA.AperFunction,SMDPad,CuDef*
G36*
G01*
X154387500Y-74487500D02*
X155337500Y-74487500D01*
G75*
G02*
X155587500Y-74737500I0J-250000D01*
G01*
X155587500Y-75412500D01*
G75*
G02*
X155337500Y-75662500I-250000J0D01*
G01*
X154387500Y-75662500D01*
G75*
G02*
X154137500Y-75412500I0J250000D01*
G01*
X154137500Y-74737500D01*
G75*
G02*
X154387500Y-74487500I250000J0D01*
G01*
G37*
G04 #@! TD.AperFunction*
X130062500Y-72037500D03*
X135062500Y-72037500D03*
G04 #@! TA.AperFunction,SMDPad,CuDef*
G36*
G01*
X133262500Y-70137500D02*
X132062500Y-70137500D01*
G75*
G02*
X131912500Y-69987500I0J150000D01*
G01*
X131912500Y-68287500D01*
G75*
G02*
X132062500Y-68137500I150000J0D01*
G01*
X133262500Y-68137500D01*
G75*
G02*
X133412500Y-68287500I0J-150000D01*
G01*
X133412500Y-69987500D01*
G75*
G02*
X133262500Y-70137500I-150000J0D01*
G01*
G37*
G04 #@! TD.AperFunction*
G04 #@! TA.AperFunction,SMDPad,CuDef*
G36*
G01*
X136962500Y-70137500D02*
X135762500Y-70137500D01*
G75*
G02*
X135612500Y-69987500I0J150000D01*
G01*
X135612500Y-68287500D01*
G75*
G02*
X135762500Y-68137500I150000J0D01*
G01*
X136962500Y-68137500D01*
G75*
G02*
X137112500Y-68287500I0J-150000D01*
G01*
X137112500Y-69987500D01*
G75*
G02*
X136962500Y-70137500I-150000J0D01*
G01*
G37*
G04 #@! TD.AperFunction*
G04 #@! TA.AperFunction,SMDPad,CuDef*
G36*
G01*
X129562500Y-75937500D02*
X128362500Y-75937500D01*
G75*
G02*
X128212500Y-75787500I0J150000D01*
G01*
X128212500Y-74087500D01*
G75*
G02*
X128362500Y-73937500I150000J0D01*
G01*
X129562500Y-73937500D01*
G75*
G02*
X129712500Y-74087500I0J-150000D01*
G01*
X129712500Y-75787500D01*
G75*
G02*
X129562500Y-75937500I-150000J0D01*
G01*
G37*
G04 #@! TD.AperFunction*
G04 #@! TA.AperFunction,SMDPad,CuDef*
G36*
G01*
X129562500Y-70137500D02*
X128362500Y-70137500D01*
G75*
G02*
X128212500Y-69987500I0J150000D01*
G01*
X128212500Y-68287500D01*
G75*
G02*
X128362500Y-68137500I150000J0D01*
G01*
X129562500Y-68137500D01*
G75*
G02*
X129712500Y-68287500I0J-150000D01*
G01*
X129712500Y-69987500D01*
G75*
G02*
X129562500Y-70137500I-150000J0D01*
G01*
G37*
G04 #@! TD.AperFunction*
G04 #@! TA.AperFunction,SMDPad,CuDef*
G36*
G01*
X133262500Y-75937500D02*
X132062500Y-75937500D01*
G75*
G02*
X131912500Y-75787500I0J150000D01*
G01*
X131912500Y-74087500D01*
G75*
G02*
X132062500Y-73937500I150000J0D01*
G01*
X133262500Y-73937500D01*
G75*
G02*
X133412500Y-74087500I0J-150000D01*
G01*
X133412500Y-75787500D01*
G75*
G02*
X133262500Y-75937500I-150000J0D01*
G01*
G37*
G04 #@! TD.AperFunction*
G04 #@! TA.AperFunction,SMDPad,CuDef*
G36*
G01*
X136962500Y-75937500D02*
X135762500Y-75937500D01*
G75*
G02*
X135612500Y-75787500I0J150000D01*
G01*
X135612500Y-74087500D01*
G75*
G02*
X135762500Y-73937500I150000J0D01*
G01*
X136962500Y-73937500D01*
G75*
G02*
X137112500Y-74087500I0J-150000D01*
G01*
X137112500Y-75787500D01*
G75*
G02*
X136962500Y-75937500I-150000J0D01*
G01*
G37*
G04 #@! TD.AperFunction*
G04 #@! TA.AperFunction,SMDPad,CuDef*
G36*
G01*
X151414564Y-84087500D02*
X151414564Y-84987500D01*
G75*
G02*
X151164564Y-85237500I-250000J0D01*
G01*
X150639564Y-85237500D01*
G75*
G02*
X150389564Y-84987500I0J250000D01*
G01*
X150389564Y-84087500D01*
G75*
G02*
X150639564Y-83837500I250000J0D01*
G01*
X151164564Y-83837500D01*
G75*
G02*
X151414564Y-84087500I0J-250000D01*
G01*
G37*
G04 #@! TD.AperFunction*
G04 #@! TA.AperFunction,SMDPad,CuDef*
G36*
G01*
X149589564Y-84087500D02*
X149589564Y-84987500D01*
G75*
G02*
X149339564Y-85237500I-250000J0D01*
G01*
X148814564Y-85237500D01*
G75*
G02*
X148564564Y-84987500I0J250000D01*
G01*
X148564564Y-84087500D01*
G75*
G02*
X148814564Y-83837500I250000J0D01*
G01*
X149339564Y-83837500D01*
G75*
G02*
X149589564Y-84087500I0J-250000D01*
G01*
G37*
G04 #@! TD.AperFunction*
D15*
X143262500Y-71005500D03*
X145802500Y-71005500D03*
X148342500Y-71005500D03*
X150882500Y-71005500D03*
G04 #@! TA.AperFunction,SMDPad,CuDef*
G36*
G01*
X143137500Y-81512500D02*
X143137500Y-80562500D01*
G75*
G02*
X143387500Y-80312500I250000J0D01*
G01*
X144062500Y-80312500D01*
G75*
G02*
X144312500Y-80562500I0J-250000D01*
G01*
X144312500Y-81512500D01*
G75*
G02*
X144062500Y-81762500I-250000J0D01*
G01*
X143387500Y-81762500D01*
G75*
G02*
X143137500Y-81512500I0J250000D01*
G01*
G37*
G04 #@! TD.AperFunction*
G04 #@! TA.AperFunction,SMDPad,CuDef*
G36*
G01*
X145212500Y-81512500D02*
X145212500Y-80562500D01*
G75*
G02*
X145462500Y-80312500I250000J0D01*
G01*
X146137500Y-80312500D01*
G75*
G02*
X146387500Y-80562500I0J-250000D01*
G01*
X146387500Y-81512500D01*
G75*
G02*
X146137500Y-81762500I-250000J0D01*
G01*
X145462500Y-81762500D01*
G75*
G02*
X145212500Y-81512500I0J250000D01*
G01*
G37*
G04 #@! TD.AperFunction*
G04 #@! TA.AperFunction,SMDPad,CuDef*
G36*
G01*
X140137500Y-99662500D02*
X139187500Y-99662500D01*
G75*
G02*
X138937500Y-99412500I0J250000D01*
G01*
X138937500Y-98737500D01*
G75*
G02*
X139187500Y-98487500I250000J0D01*
G01*
X140137500Y-98487500D01*
G75*
G02*
X140387500Y-98737500I0J-250000D01*
G01*
X140387500Y-99412500D01*
G75*
G02*
X140137500Y-99662500I-250000J0D01*
G01*
G37*
G04 #@! TD.AperFunction*
G04 #@! TA.AperFunction,SMDPad,CuDef*
G36*
G01*
X140137500Y-97587500D02*
X139187500Y-97587500D01*
G75*
G02*
X138937500Y-97337500I0J250000D01*
G01*
X138937500Y-96662500D01*
G75*
G02*
X139187500Y-96412500I250000J0D01*
G01*
X140137500Y-96412500D01*
G75*
G02*
X140387500Y-96662500I0J-250000D01*
G01*
X140387500Y-97337500D01*
G75*
G02*
X140137500Y-97587500I-250000J0D01*
G01*
G37*
G04 #@! TD.AperFunction*
G04 #@! TA.AperFunction,SMDPad,CuDef*
G36*
G01*
X152637500Y-97512500D02*
X152637500Y-96562500D01*
G75*
G02*
X152887500Y-96312500I250000J0D01*
G01*
X153562500Y-96312500D01*
G75*
G02*
X153812500Y-96562500I0J-250000D01*
G01*
X153812500Y-97512500D01*
G75*
G02*
X153562500Y-97762500I-250000J0D01*
G01*
X152887500Y-97762500D01*
G75*
G02*
X152637500Y-97512500I0J250000D01*
G01*
G37*
G04 #@! TD.AperFunction*
G04 #@! TA.AperFunction,SMDPad,CuDef*
G36*
G01*
X154712500Y-97512500D02*
X154712500Y-96562500D01*
G75*
G02*
X154962500Y-96312500I250000J0D01*
G01*
X155637500Y-96312500D01*
G75*
G02*
X155887500Y-96562500I0J-250000D01*
G01*
X155887500Y-97512500D01*
G75*
G02*
X155637500Y-97762500I-250000J0D01*
G01*
X154962500Y-97762500D01*
G75*
G02*
X154712500Y-97512500I0J250000D01*
G01*
G37*
G04 #@! TD.AperFunction*
G04 #@! TA.AperFunction,SMDPad,CuDef*
G36*
G01*
X138837500Y-83487500D02*
X138837500Y-82587500D01*
G75*
G02*
X139087500Y-82337500I250000J0D01*
G01*
X139612500Y-82337500D01*
G75*
G02*
X139862500Y-82587500I0J-250000D01*
G01*
X139862500Y-83487500D01*
G75*
G02*
X139612500Y-83737500I-250000J0D01*
G01*
X139087500Y-83737500D01*
G75*
G02*
X138837500Y-83487500I0J250000D01*
G01*
G37*
G04 #@! TD.AperFunction*
G04 #@! TA.AperFunction,SMDPad,CuDef*
G36*
G01*
X140662500Y-83487500D02*
X140662500Y-82587500D01*
G75*
G02*
X140912500Y-82337500I250000J0D01*
G01*
X141437500Y-82337500D01*
G75*
G02*
X141687500Y-82587500I0J-250000D01*
G01*
X141687500Y-83487500D01*
G75*
G02*
X141437500Y-83737500I-250000J0D01*
G01*
X140912500Y-83737500D01*
G75*
G02*
X140662500Y-83487500I0J250000D01*
G01*
G37*
G04 #@! TD.AperFunction*
G04 #@! TA.AperFunction,SMDPad,CuDef*
G36*
X145012500Y-75287500D02*
G01*
X145562500Y-75287500D01*
X145562500Y-75292467D01*
X145642441Y-75293932D01*
X145777756Y-75336207D01*
X145895766Y-75414762D01*
X145986986Y-75523281D01*
X146044081Y-75653040D01*
X146061664Y-75787500D01*
X146062500Y-75787500D01*
X146062500Y-76287500D01*
X146061664Y-76287500D01*
X146062463Y-76293609D01*
X146040652Y-76433686D01*
X145980404Y-76562011D01*
X145886560Y-76668269D01*
X145766665Y-76743917D01*
X145630358Y-76782874D01*
X145562500Y-76782459D01*
X145562500Y-76787500D01*
X145012500Y-76787500D01*
X145012500Y-75287500D01*
G37*
G04 #@! TD.AperFunction*
D14*
X144262500Y-76037500D03*
G04 #@! TA.AperFunction,SMDPad,CuDef*
G36*
X142962500Y-76782459D02*
G01*
X142888595Y-76782008D01*
X142752774Y-76741389D01*
X142633812Y-76664282D01*
X142541274Y-76556885D01*
X142482597Y-76427833D01*
X142462500Y-76287500D01*
X142462500Y-75787500D01*
X142462649Y-75775284D01*
X142486169Y-75635483D01*
X142547981Y-75507904D01*
X142643116Y-75402800D01*
X142763926Y-75328623D01*
X142900699Y-75291334D01*
X142962500Y-75292467D01*
X142962500Y-75287500D01*
X143512500Y-75287500D01*
X143512500Y-76787500D01*
X142962500Y-76787500D01*
X142962500Y-76782459D01*
G37*
G04 #@! TD.AperFunction*
G04 #@! TA.AperFunction,SMDPad,CuDef*
G36*
G01*
X155687500Y-68587500D02*
X155687500Y-69487500D01*
G75*
G02*
X155437500Y-69737500I-250000J0D01*
G01*
X154912500Y-69737500D01*
G75*
G02*
X154662500Y-69487500I0J250000D01*
G01*
X154662500Y-68587500D01*
G75*
G02*
X154912500Y-68337500I250000J0D01*
G01*
X155437500Y-68337500D01*
G75*
G02*
X155687500Y-68587500I0J-250000D01*
G01*
G37*
G04 #@! TD.AperFunction*
G04 #@! TA.AperFunction,SMDPad,CuDef*
G36*
G01*
X153862500Y-68587500D02*
X153862500Y-69487500D01*
G75*
G02*
X153612500Y-69737500I-250000J0D01*
G01*
X153087500Y-69737500D01*
G75*
G02*
X152837500Y-69487500I0J250000D01*
G01*
X152837500Y-68587500D01*
G75*
G02*
X153087500Y-68337500I250000J0D01*
G01*
X153612500Y-68337500D01*
G75*
G02*
X153862500Y-68587500I0J-250000D01*
G01*
G37*
G04 #@! TD.AperFunction*
G04 #@! TA.AperFunction,SMDPad,CuDef*
G36*
G01*
X138837500Y-74287500D02*
X138837500Y-73387500D01*
G75*
G02*
X139087500Y-73137500I250000J0D01*
G01*
X139612500Y-73137500D01*
G75*
G02*
X139862500Y-73387500I0J-250000D01*
G01*
X139862500Y-74287500D01*
G75*
G02*
X139612500Y-74537500I-250000J0D01*
G01*
X139087500Y-74537500D01*
G75*
G02*
X138837500Y-74287500I0J250000D01*
G01*
G37*
G04 #@! TD.AperFunction*
G04 #@! TA.AperFunction,SMDPad,CuDef*
G36*
G01*
X140662500Y-74287500D02*
X140662500Y-73387500D01*
G75*
G02*
X140912500Y-73137500I250000J0D01*
G01*
X141437500Y-73137500D01*
G75*
G02*
X141687500Y-73387500I0J-250000D01*
G01*
X141687500Y-74287500D01*
G75*
G02*
X141437500Y-74537500I-250000J0D01*
G01*
X140912500Y-74537500D01*
G75*
G02*
X140662500Y-74287500I0J250000D01*
G01*
G37*
G04 #@! TD.AperFunction*
G04 #@! TA.AperFunction,SMDPad,CuDef*
G36*
G01*
X138837500Y-103487500D02*
X138837500Y-102587500D01*
G75*
G02*
X139087500Y-102337500I250000J0D01*
G01*
X139612500Y-102337500D01*
G75*
G02*
X139862500Y-102587500I0J-250000D01*
G01*
X139862500Y-103487500D01*
G75*
G02*
X139612500Y-103737500I-250000J0D01*
G01*
X139087500Y-103737500D01*
G75*
G02*
X138837500Y-103487500I0J250000D01*
G01*
G37*
G04 #@! TD.AperFunction*
G04 #@! TA.AperFunction,SMDPad,CuDef*
G36*
G01*
X140662500Y-103487500D02*
X140662500Y-102587500D01*
G75*
G02*
X140912500Y-102337500I250000J0D01*
G01*
X141437500Y-102337500D01*
G75*
G02*
X141687500Y-102587500I0J-250000D01*
G01*
X141687500Y-103487500D01*
G75*
G02*
X141437500Y-103737500I-250000J0D01*
G01*
X140912500Y-103737500D01*
G75*
G02*
X140662500Y-103487500I0J250000D01*
G01*
G37*
G04 #@! TD.AperFunction*
D16*
X128662500Y-96237500D03*
X137762500Y-127037500D03*
X154662500Y-96037500D03*
X138662500Y-79037500D03*
X155462500Y-96037500D03*
X138762500Y-128037500D03*
X137762500Y-128037500D03*
X138662500Y-89037500D03*
X156262500Y-96037500D03*
X155862500Y-75037500D03*
X161062500Y-123637500D03*
X165862500Y-77837500D03*
X160062500Y-118037500D03*
X135662500Y-128237500D03*
X128662500Y-76237500D03*
X138662500Y-69837500D03*
X138762500Y-127037500D03*
X138662500Y-97037500D03*
X150662500Y-77037500D03*
X165862500Y-87837500D03*
X128662500Y-86237500D03*
X145862500Y-82037500D03*
X155862500Y-85037500D03*
X145862500Y-80037500D03*
X128662500Y-106237500D03*
X145662500Y-77037500D03*
X139762500Y-127037500D03*
X164462500Y-68437500D03*
X133462500Y-115437500D03*
X165862500Y-97837500D03*
X145662500Y-75037500D03*
X150662500Y-75037500D03*
X133462500Y-124637500D03*
X139762500Y-128037500D03*
X134862500Y-128237500D03*
X153862500Y-102437500D03*
X138762500Y-110037500D03*
X141762500Y-116837500D03*
X158413000Y-109862451D03*
X160662000Y-109837500D03*
X131662500Y-114237500D03*
X136962500Y-116337500D03*
X156462500Y-110837500D03*
X161812000Y-112637500D03*
X130762500Y-80537500D03*
X132262000Y-80737000D03*
X132762500Y-90737000D03*
X129262500Y-90537500D03*
X132762500Y-100737000D03*
X129513000Y-97837500D03*
X162262500Y-73338000D03*
X164012000Y-73415216D03*
X164792477Y-83507523D03*
X160758331Y-83532915D03*
X165262500Y-93537500D03*
X159963000Y-93537500D03*
X165062500Y-106237500D03*
X158615993Y-103214141D03*
X143713000Y-98837500D03*
X148862500Y-98837500D03*
D17*
X132662500Y-74937500D02*
X134062500Y-73537500D01*
X130262500Y-83605267D02*
X130262500Y-90469733D01*
X130262500Y-90469733D02*
X131312500Y-91519733D01*
X135662500Y-121437500D02*
X136642500Y-122417500D01*
X136642500Y-122417500D02*
X139002500Y-122417500D01*
X130262500Y-100065317D02*
X128812500Y-101515317D01*
X130262500Y-94037500D02*
X130262500Y-100065317D01*
X134062500Y-73537500D02*
X137190317Y-73537500D01*
X131312500Y-92987500D02*
X130262500Y-94037500D01*
X135662500Y-114437500D02*
X135662500Y-121437500D01*
X132662500Y-74937500D02*
X131512500Y-76087500D01*
X139350000Y-75725000D02*
X139350000Y-75837500D01*
X128812500Y-101515317D02*
X128812500Y-102559683D01*
X131512500Y-76087500D02*
X131512500Y-82355267D01*
X137512500Y-73859683D02*
X137512500Y-73887500D01*
X130112500Y-108887500D02*
X135662500Y-114437500D01*
X128812500Y-102559683D02*
X130112500Y-103859683D01*
X131312500Y-91519733D02*
X131312500Y-92987500D01*
X130112500Y-103859683D02*
X130112500Y-108887500D01*
X137512500Y-73887500D02*
X139350000Y-75725000D01*
X131512500Y-82355267D02*
X130262500Y-83605267D01*
X137190317Y-73537500D02*
X137512500Y-73859683D01*
D18*
X149122936Y-84491628D02*
X149077064Y-84537500D01*
X135505000Y-124957500D02*
X139002500Y-124957500D01*
X147962500Y-76037500D02*
X147962500Y-78237500D01*
X135262500Y-125200000D02*
X135505000Y-124957500D01*
X144812500Y-99687500D02*
X144812500Y-97175000D01*
X147962500Y-78237500D02*
X143462500Y-78237500D01*
X149122936Y-81037500D02*
X149122936Y-84491628D01*
X145662500Y-96037500D02*
X145662500Y-94037500D01*
X144812500Y-96887500D02*
X145662500Y-96037500D01*
X145662500Y-94037500D02*
X143725000Y-92100000D01*
X140842500Y-124957500D02*
X139002500Y-124957500D01*
X143262500Y-101237500D02*
X144812500Y-99687500D01*
X142962500Y-78137500D02*
X143062500Y-78237500D01*
X143262500Y-103437500D02*
X143262500Y-101237500D01*
X143462500Y-78237500D02*
X143062500Y-78237500D01*
X142962500Y-76037500D02*
X142962500Y-78137500D01*
X138762500Y-110037500D02*
X138762500Y-107937500D01*
X141762500Y-124037500D02*
X140842500Y-124957500D01*
X138762500Y-107937500D02*
X143262500Y-103437500D01*
X143725000Y-92100000D02*
X143725000Y-81037500D01*
X143725000Y-78500000D02*
X143462500Y-78237500D01*
X141762500Y-116837500D02*
X141762500Y-124037500D01*
X143725000Y-81037500D02*
X143725000Y-78500000D01*
X147962500Y-78237500D02*
X149122936Y-79397936D01*
X149122936Y-79397936D02*
X149122936Y-81037500D01*
X144812500Y-97175000D02*
X144812500Y-96887500D01*
D17*
X131312500Y-101519733D02*
X131312500Y-102987500D01*
X137090317Y-83437500D02*
X138690317Y-85037500D01*
X137102500Y-119877500D02*
X139002500Y-119877500D01*
X130762500Y-108537500D02*
X136212500Y-113987500D01*
X136212500Y-113987500D02*
X136212500Y-118987500D01*
X132662500Y-84937500D02*
X131262500Y-86337500D01*
X130812500Y-101019733D02*
X131312500Y-101519733D01*
X134162500Y-83437500D02*
X137090317Y-83437500D01*
X136212500Y-118987500D02*
X137102500Y-119877500D01*
X138690317Y-85037500D02*
X139350000Y-85037500D01*
X131262500Y-90691915D02*
X131862500Y-91291915D01*
X130762500Y-103537500D02*
X130762500Y-108537500D01*
X131862500Y-91291915D02*
X131862500Y-93215318D01*
X131862500Y-93215318D02*
X130812500Y-94265318D01*
X134162500Y-83437500D02*
X132662500Y-84937500D01*
X131312500Y-102987500D02*
X130762500Y-103537500D01*
X131262500Y-86337500D02*
X131262500Y-90691915D01*
X130812500Y-94265318D02*
X130812500Y-101019733D01*
D19*
X158262500Y-117681003D02*
X156066003Y-119877500D01*
D17*
X150035436Y-79464564D02*
X151662500Y-77837500D01*
X150902064Y-84537500D02*
X150262500Y-83897936D01*
D19*
X153687500Y-104862500D02*
X157887451Y-109062451D01*
X151062500Y-103796687D02*
X152128313Y-104862500D01*
X150902064Y-84537500D02*
X151062500Y-84697936D01*
X158744371Y-109062451D02*
X159212500Y-109530580D01*
D17*
X151662500Y-74325500D02*
X148342500Y-71005500D01*
D19*
X152128313Y-104862500D02*
X153687500Y-104862500D01*
D17*
X150262500Y-82437500D02*
X150035436Y-82210436D01*
X150035436Y-82210436D02*
X150035436Y-79464564D01*
D19*
X151062500Y-84697936D02*
X151062500Y-103796687D01*
X156066003Y-119877500D02*
X155512500Y-119877500D01*
D17*
X151662500Y-77837500D02*
X151662500Y-74325500D01*
X150262500Y-83897936D02*
X150262500Y-82437500D01*
D19*
X157887451Y-109062451D02*
X158744371Y-109062451D01*
X159212500Y-109530580D02*
X159212500Y-113613262D01*
X158262500Y-114563262D02*
X158262500Y-117681003D01*
X159212500Y-113613262D02*
X158262500Y-114563262D01*
X156066003Y-122417500D02*
X155512500Y-122417500D01*
X151987500Y-82077064D02*
X151987500Y-103802449D01*
X151987500Y-103802449D02*
X152397551Y-104212500D01*
X159862500Y-109237500D02*
X159862500Y-113882500D01*
D17*
X152262500Y-72385500D02*
X150882500Y-71005500D01*
D19*
X159862500Y-113882500D02*
X158912500Y-114832500D01*
X158912500Y-114832500D02*
X158912500Y-119571003D01*
D17*
X150947936Y-81037500D02*
X152262500Y-79722936D01*
D19*
X150947936Y-81037500D02*
X151987500Y-82077064D01*
X152397551Y-104212500D02*
X154837500Y-104212500D01*
X154837500Y-104212500D02*
X159862500Y-109237500D01*
D17*
X152262500Y-79722936D02*
X152262500Y-72385500D01*
D19*
X158912500Y-119571003D02*
X156066003Y-122417500D01*
D17*
X131362500Y-100537500D02*
X131862500Y-101037500D01*
X131862500Y-103509683D02*
X131512500Y-103859683D01*
X137206250Y-93537500D02*
X138706250Y-95037500D01*
X134062500Y-93537500D02*
X137206250Y-93537500D01*
X138022500Y-114797500D02*
X139002500Y-114797500D01*
X138706250Y-95037500D02*
X139350000Y-95037500D01*
X132662500Y-94937500D02*
X131362500Y-96237500D01*
X131862500Y-101037500D02*
X131862500Y-103509683D01*
X131512500Y-108287500D02*
X138022500Y-114797500D01*
X132662500Y-94937500D02*
X134062500Y-93537500D01*
X131362500Y-96237500D02*
X131362500Y-100537500D01*
X131512500Y-103859683D02*
X131512500Y-108287500D01*
X134062500Y-103537500D02*
X138850000Y-103537500D01*
X132662500Y-104937500D02*
X134062500Y-103537500D01*
X132662500Y-107937500D02*
X132662500Y-104937500D01*
X138850000Y-103537500D02*
X139350000Y-103037500D01*
X139002500Y-112257500D02*
X136982500Y-112257500D01*
X136982500Y-112257500D02*
X132662500Y-107937500D01*
X163262500Y-80537500D02*
X162762500Y-81037500D01*
X163212500Y-92987500D02*
X164262500Y-94037500D01*
X163462500Y-114756739D02*
X162862500Y-115356739D01*
X164262500Y-96037500D02*
X164412500Y-96187500D01*
X164262500Y-90037500D02*
X163212500Y-91087500D01*
X161862500Y-71637500D02*
X163262500Y-73037500D01*
X161862500Y-69137500D02*
X161862500Y-69287500D01*
X163462500Y-111837500D02*
X163462500Y-114756739D01*
X156675000Y-70537500D02*
X155175000Y-69037500D01*
X164262500Y-94037500D02*
X164262500Y-96037500D01*
X165762500Y-102509683D02*
X164262500Y-104009683D01*
X162762500Y-82537500D02*
X164262500Y-84037500D01*
X164262500Y-84037500D02*
X164262500Y-90037500D01*
X162762500Y-81037500D02*
X162762500Y-82537500D01*
X164262500Y-111037500D02*
X163462500Y-111837500D01*
X160612500Y-70537500D02*
X156675000Y-70537500D01*
X163262500Y-73037500D02*
X163262500Y-80537500D01*
X161862500Y-69137500D02*
X161862500Y-71637500D01*
X162862500Y-115356739D02*
X162862500Y-124437500D01*
X162862500Y-124437500D02*
X157262500Y-130037500D01*
X157262500Y-130037500D02*
X155512500Y-130037500D01*
X164412500Y-96187500D02*
X164412500Y-100215317D01*
X165762500Y-101565317D02*
X165762500Y-102509683D01*
X164412500Y-100215317D02*
X165762500Y-101565317D01*
X164262500Y-104009683D02*
X164262500Y-111037500D01*
X163212500Y-91087500D02*
X163212500Y-92987500D01*
X161862500Y-69287500D02*
X160612500Y-70537500D01*
X155262500Y-79037500D02*
X155175000Y-79037500D01*
X162262500Y-91037500D02*
X162262500Y-93037500D01*
X163262500Y-94037500D02*
X163262500Y-96037500D01*
X161062500Y-111837500D02*
X161062500Y-114259682D01*
X160762500Y-80537500D02*
X161862500Y-79437500D01*
X162312500Y-115509683D02*
X162312500Y-123942500D01*
X163262500Y-90037500D02*
X162262500Y-91037500D01*
X161862500Y-79137500D02*
X161862500Y-82637500D01*
X163862500Y-96637500D02*
X163862500Y-100143135D01*
X161862500Y-82637500D02*
X163262500Y-84037500D01*
X161862500Y-79437500D02*
X161862500Y-79137500D01*
X163012500Y-103287500D02*
X163012500Y-109887500D01*
X158757500Y-127497500D02*
X155512500Y-127497500D01*
X163262500Y-84037500D02*
X163262500Y-90037500D01*
X161062500Y-114259682D02*
X162312500Y-115509683D01*
X162865317Y-101140318D02*
X162865317Y-103140317D01*
X162262500Y-93037500D02*
X163262500Y-94037500D01*
X156762500Y-80537500D02*
X155262500Y-79037500D01*
X162865317Y-103140317D02*
X163012500Y-103287500D01*
X163012500Y-109887500D02*
X161062500Y-111837500D01*
X162312500Y-123942500D02*
X158757500Y-127497500D01*
X163862500Y-100143135D02*
X162865317Y-101140318D01*
X163262500Y-96037500D02*
X163862500Y-96637500D01*
X156762500Y-80537500D02*
X160762500Y-80537500D01*
X160712500Y-96015317D02*
X161034683Y-96337500D01*
X156762500Y-90537500D02*
X155262500Y-89037500D01*
X160712500Y-106287500D02*
X162062500Y-107637500D01*
X161762500Y-119737500D02*
X158462500Y-123037500D01*
X163262500Y-99965317D02*
X161762500Y-101465317D01*
X160712500Y-90587500D02*
X160712500Y-96015317D01*
X158462500Y-123037500D02*
X158462500Y-124177500D01*
X157682500Y-124957500D02*
X155512500Y-124957500D01*
X158462500Y-124177500D02*
X157682500Y-124957500D01*
X160712500Y-103365318D02*
X160712500Y-106287500D01*
X162062500Y-107637500D02*
X162062500Y-109887500D01*
X160462500Y-114437500D02*
X161762500Y-115737500D01*
X161762500Y-115737500D02*
X161762500Y-119737500D01*
X161762500Y-101465317D02*
X161762500Y-102315318D01*
X161034683Y-96337500D02*
X161062500Y-96337500D01*
X160462500Y-111487500D02*
X160462500Y-114437500D01*
X162262500Y-97037500D02*
X163262500Y-98037500D01*
X160762500Y-90537500D02*
X161862500Y-89437500D01*
X155262500Y-89037500D02*
X155175000Y-89037500D01*
X162062500Y-109887500D02*
X160462500Y-111487500D01*
X156762500Y-90537500D02*
X160762500Y-90537500D01*
X161762500Y-97037500D02*
X162262500Y-97037500D01*
X163262500Y-98037500D02*
X163262500Y-99965317D01*
X161062500Y-96337500D02*
X161762500Y-97037500D01*
X161862500Y-89437500D02*
X161862500Y-89137500D01*
X161762500Y-102315318D02*
X160712500Y-103365318D01*
X160762500Y-90537500D02*
X160712500Y-90587500D01*
X158612500Y-113364734D02*
X157662500Y-114314734D01*
X160662000Y-109837500D02*
X160662000Y-108237000D01*
X158413000Y-109862451D02*
X158612500Y-110061951D01*
X160662000Y-108237000D02*
X159762500Y-107337500D01*
X158612500Y-110061951D02*
X158612500Y-113364734D01*
X160762500Y-102537500D02*
X160762500Y-100537500D01*
X159762500Y-103537500D02*
X160762500Y-102537500D01*
X160762500Y-100537500D02*
X156675000Y-100537500D01*
X159762500Y-107337500D02*
X159762500Y-103537500D01*
X157662500Y-114314734D02*
X157662500Y-116137500D01*
X157662500Y-116137500D02*
X156462500Y-117337500D01*
X156462500Y-117337500D02*
X155512500Y-117337500D01*
X161862500Y-99437500D02*
X161862500Y-99137500D01*
X156675000Y-100537500D02*
X155175000Y-99037500D01*
X160762500Y-100537500D02*
X161862500Y-99437500D01*
X128962500Y-69137500D02*
X128962500Y-69237500D01*
X137100000Y-71875000D02*
X139662500Y-71875000D01*
X130262500Y-70537500D02*
X135762500Y-70537500D01*
D18*
X139350000Y-72187500D02*
X139662500Y-71875000D01*
D17*
X128962500Y-69237500D02*
X130262500Y-70537500D01*
X135762500Y-70537500D02*
X137100000Y-71875000D01*
D18*
X139350000Y-73837500D02*
X139350000Y-72187500D01*
D17*
X137962500Y-117337500D02*
X139002500Y-117337500D01*
X136962500Y-116337500D02*
X137962500Y-117337500D01*
X130350000Y-112125000D02*
X131662500Y-113437500D01*
X129762500Y-112125000D02*
X130350000Y-112125000D01*
X131662500Y-113437500D02*
X131662500Y-114237500D01*
D19*
X156462500Y-111307500D02*
X155512500Y-112257500D01*
X156462500Y-110837500D02*
X156462500Y-111307500D01*
D17*
X161812000Y-113299500D02*
X162550000Y-114037500D01*
X161812000Y-112637500D02*
X161812000Y-113299500D01*
X132312500Y-80787500D02*
X136212500Y-80787500D01*
X136212500Y-80787500D02*
X136500000Y-81075000D01*
X130762500Y-80537500D02*
X130362500Y-80537500D01*
X136500000Y-81075000D02*
X139662500Y-81075000D01*
X130362500Y-80537500D02*
X128962500Y-79137500D01*
D18*
X139350000Y-81387500D02*
X139662500Y-81075000D01*
X139350000Y-83037500D02*
X139350000Y-81387500D01*
D17*
X132262000Y-80737000D02*
X132312500Y-80787500D01*
X129262500Y-90537500D02*
X129262500Y-89437500D01*
X132762500Y-90737000D02*
X136162000Y-90737000D01*
D18*
X139350000Y-93037500D02*
X139350000Y-91387500D01*
D17*
X136500000Y-91075000D02*
X139662500Y-91075000D01*
X129262500Y-89437500D02*
X128962500Y-89137500D01*
D18*
X139350000Y-91387500D02*
X139662500Y-91075000D01*
D17*
X136162000Y-90737000D02*
X136500000Y-91075000D01*
D18*
X139350000Y-99387500D02*
X139662500Y-99075000D01*
D17*
X129513000Y-98587000D02*
X128962500Y-99137500D01*
D18*
X139350000Y-101037500D02*
X139350000Y-99387500D01*
D17*
X132762500Y-100737000D02*
X132962000Y-100537500D01*
X132962000Y-100537500D02*
X138850000Y-100537500D01*
X138850000Y-100537500D02*
X139350000Y-101037500D01*
X129513000Y-97837500D02*
X129513000Y-98587000D01*
D18*
X155175000Y-71037500D02*
X155175000Y-72687500D01*
D19*
X162113000Y-73487500D02*
X158712500Y-73487500D01*
X158262500Y-73037500D02*
X154900000Y-73037500D01*
X162262500Y-73338000D02*
X162113000Y-73487500D01*
X164040216Y-73415216D02*
X165562500Y-74937500D01*
X154900000Y-73037500D02*
X154862500Y-73000000D01*
D18*
X155175000Y-72687500D02*
X154862500Y-73000000D01*
D19*
X158712500Y-73487500D02*
X158262500Y-73037500D01*
X164012000Y-73415216D02*
X164040216Y-73415216D01*
X158712500Y-83487500D02*
X158225000Y-83000000D01*
X160758331Y-83532915D02*
X160712916Y-83487500D01*
X158225000Y-83000000D02*
X154862500Y-83000000D01*
D18*
X155175000Y-81037500D02*
X155175000Y-82687500D01*
D19*
X164862500Y-84237500D02*
X164862500Y-83577546D01*
D18*
X155175000Y-82687500D02*
X154862500Y-83000000D01*
D19*
X165562500Y-84937500D02*
X164862500Y-84237500D01*
X164862500Y-83577546D02*
X164792477Y-83507523D01*
X160712916Y-83487500D02*
X158712500Y-83487500D01*
X158512500Y-93487500D02*
X158025000Y-93000000D01*
D18*
X155175000Y-91037500D02*
X155175000Y-92687500D01*
D19*
X158025000Y-93000000D02*
X154862500Y-93000000D01*
X159913000Y-93487500D02*
X158512500Y-93487500D01*
X159963000Y-93537500D02*
X159913000Y-93487500D01*
X165262500Y-94637500D02*
X165562500Y-94937500D01*
D18*
X155175000Y-92687500D02*
X154862500Y-93000000D01*
D19*
X165262500Y-93537500D02*
X165262500Y-94637500D01*
D18*
X155175000Y-102962500D02*
X155100000Y-103037500D01*
D19*
X165062500Y-106237500D02*
X165062500Y-105437500D01*
X158615993Y-103214141D02*
X155276641Y-103214141D01*
D18*
X155175000Y-101037500D02*
X155175000Y-102962500D01*
D19*
X165062500Y-105437500D02*
X165562500Y-104937500D01*
X155276641Y-103214141D02*
X155100000Y-103037500D01*
D18*
X149262500Y-76037500D02*
X149262500Y-74537500D01*
X149262500Y-74537500D02*
X148262500Y-73537500D01*
X146762500Y-73537500D02*
X145802500Y-72577500D01*
X145802500Y-72577500D02*
X145802500Y-71005500D01*
X148262500Y-73537500D02*
X146762500Y-73537500D01*
D17*
X155512500Y-114797500D02*
X156401916Y-114797500D01*
X156401916Y-114797500D02*
X157961916Y-113237500D01*
D20*
X142912500Y-98037000D02*
X143713000Y-98837500D01*
D17*
X148862500Y-99037500D02*
X148862500Y-98837500D01*
X157961916Y-113237500D02*
X157961916Y-110536916D01*
X157961916Y-110536916D02*
X152887500Y-105462500D01*
D20*
X142912500Y-97175000D02*
X142912500Y-98037000D01*
D17*
X151879785Y-105462500D02*
X150462500Y-104045215D01*
X150462500Y-100637500D02*
X148912500Y-99087500D01*
X148912500Y-99087500D02*
X148862500Y-99037500D01*
X152887500Y-105462500D02*
X151879785Y-105462500D01*
X150462500Y-104045215D02*
X150462500Y-100637500D01*
D18*
X141262500Y-80237500D02*
X141262500Y-88837500D01*
X141175000Y-103037500D02*
X141262500Y-102950000D01*
X153262500Y-69037500D02*
X153262500Y-100950000D01*
X141262500Y-88837500D02*
X141262500Y-90637500D01*
X141262500Y-70537500D02*
X141262500Y-68537500D01*
X153262500Y-100950000D02*
X153350000Y-101037500D01*
X141262500Y-70537500D02*
X141262500Y-78537500D01*
X141262500Y-102950000D02*
X141262500Y-97237500D01*
X141262500Y-68537500D02*
X141762500Y-68037500D01*
X141762500Y-68037500D02*
X152262500Y-68037500D01*
X141262500Y-78537500D02*
X141262500Y-80362500D01*
X141262500Y-97237500D02*
X141262500Y-90537500D01*
D21*
X143862500Y-95300000D02*
X141437500Y-95300000D01*
D18*
X152262500Y-68037500D02*
X153262500Y-69037500D01*
X141437500Y-95300000D02*
X141175000Y-95037500D01*
D19*
X130362500Y-114550000D02*
X130362500Y-123187500D01*
X129762500Y-113950000D02*
X130362500Y-114550000D01*
X164375000Y-114037500D02*
X164162500Y-114250000D01*
X164162500Y-114250000D02*
X164162500Y-123187500D01*
D18*
X144262500Y-76037500D02*
X144262500Y-74037500D01*
X143262500Y-73037500D02*
X143262500Y-71005500D01*
X144262500Y-74037500D02*
X143262500Y-73037500D01*
G04 #@! TA.AperFunction,Conductor*
G36*
X127960300Y-100506148D02*
G01*
X127960635Y-100505581D01*
X128102102Y-100589244D01*
X128109714Y-100591455D01*
X128109715Y-100591456D01*
X128115873Y-100593245D01*
X128259931Y-100635098D01*
X128273084Y-100636133D01*
X128294347Y-100637807D01*
X128294360Y-100637808D01*
X128296806Y-100638000D01*
X128465681Y-100638000D01*
X128533802Y-100658002D01*
X128580295Y-100711658D01*
X128590399Y-100781932D01*
X128560905Y-100846512D01*
X128554776Y-100853095D01*
X128409802Y-100998069D01*
X128401185Y-101005910D01*
X128394560Y-101010115D01*
X128389133Y-101015894D01*
X128389132Y-101015895D01*
X128346651Y-101061133D01*
X128343896Y-101063975D01*
X128323589Y-101084282D01*
X128321160Y-101087413D01*
X128321155Y-101087419D01*
X128320942Y-101087694D01*
X128313245Y-101096707D01*
X128282052Y-101129924D01*
X128278233Y-101136871D01*
X128271904Y-101148383D01*
X128261050Y-101164907D01*
X128253794Y-101174261D01*
X128248138Y-101181553D01*
X128239002Y-101202666D01*
X128230046Y-101223362D01*
X128224830Y-101234010D01*
X128202873Y-101273949D01*
X128200902Y-101281628D01*
X128200901Y-101281629D01*
X128197633Y-101294358D01*
X128191227Y-101313067D01*
X128186012Y-101325117D01*
X128186010Y-101325122D01*
X128182865Y-101332391D01*
X128179383Y-101354375D01*
X128175739Y-101377382D01*
X128173331Y-101389007D01*
X128163972Y-101425457D01*
X128163971Y-101425462D01*
X128162000Y-101433140D01*
X128162000Y-101454201D01*
X128160449Y-101473913D01*
X128157153Y-101494722D01*
X128157899Y-101502613D01*
X128161441Y-101540082D01*
X128162000Y-101551940D01*
X128162000Y-102478683D01*
X128161451Y-102490323D01*
X128159740Y-102497979D01*
X128159989Y-102505902D01*
X128161938Y-102567913D01*
X128162000Y-102571871D01*
X128162000Y-102600608D01*
X128162495Y-102604525D01*
X128162539Y-102604874D01*
X128163471Y-102616707D01*
X128164903Y-102662252D01*
X128167115Y-102669866D01*
X128167116Y-102669871D01*
X128170778Y-102682475D01*
X128174789Y-102701839D01*
X128177429Y-102722741D01*
X128180348Y-102730112D01*
X128180348Y-102730114D01*
X128194202Y-102765103D01*
X128198041Y-102776314D01*
X128210756Y-102820081D01*
X128220272Y-102836172D01*
X128221481Y-102838216D01*
X128230176Y-102855964D01*
X128237932Y-102875554D01*
X128264718Y-102912421D01*
X128271225Y-102922329D01*
X128290383Y-102954725D01*
X128290387Y-102954730D01*
X128294419Y-102961548D01*
X128309312Y-102976441D01*
X128322153Y-102991475D01*
X128334537Y-103008520D01*
X128340645Y-103013573D01*
X128369643Y-103037562D01*
X128378423Y-103045552D01*
X129425095Y-104092224D01*
X129459121Y-104154536D01*
X129462000Y-104181319D01*
X129462000Y-108806500D01*
X129461451Y-108818140D01*
X129459740Y-108825796D01*
X129459989Y-108833719D01*
X129461938Y-108895730D01*
X129462000Y-108899688D01*
X129462000Y-108928425D01*
X129462495Y-108932342D01*
X129462539Y-108932691D01*
X129463471Y-108944524D01*
X129464903Y-108990069D01*
X129467115Y-108997683D01*
X129467116Y-108997688D01*
X129470778Y-109010292D01*
X129474789Y-109029656D01*
X129477429Y-109050558D01*
X129480348Y-109057929D01*
X129480348Y-109057931D01*
X129494202Y-109092920D01*
X129498041Y-109104131D01*
X129510756Y-109147898D01*
X129521481Y-109166033D01*
X129530176Y-109183781D01*
X129537932Y-109203371D01*
X129564718Y-109240238D01*
X129571225Y-109250146D01*
X129590383Y-109282542D01*
X129590387Y-109282547D01*
X129594419Y-109289365D01*
X129609312Y-109304258D01*
X129622153Y-109319292D01*
X129634537Y-109336337D01*
X129640645Y-109341390D01*
X129669643Y-109365379D01*
X129678423Y-109373369D01*
X134975095Y-114670041D01*
X135009121Y-114732353D01*
X135012000Y-114759136D01*
X135012000Y-121356500D01*
X135011451Y-121368140D01*
X135009740Y-121375796D01*
X135009989Y-121383719D01*
X135011938Y-121445730D01*
X135012000Y-121449688D01*
X135012000Y-121478425D01*
X135012495Y-121482342D01*
X135012539Y-121482691D01*
X135013471Y-121494524D01*
X135014903Y-121540069D01*
X135017115Y-121547683D01*
X135017116Y-121547688D01*
X135020778Y-121560292D01*
X135024789Y-121579656D01*
X135027429Y-121600558D01*
X135030348Y-121607929D01*
X135030348Y-121607931D01*
X135044202Y-121642920D01*
X135048041Y-121654131D01*
X135060756Y-121697898D01*
X135071481Y-121716033D01*
X135080176Y-121733781D01*
X135087932Y-121753371D01*
X135114718Y-121790238D01*
X135121225Y-121800146D01*
X135140383Y-121832542D01*
X135140387Y-121832547D01*
X135144419Y-121839365D01*
X135159312Y-121854258D01*
X135172153Y-121869292D01*
X135184537Y-121886337D01*
X135190645Y-121891390D01*
X135219643Y-121915379D01*
X135228423Y-121923369D01*
X136125252Y-122820198D01*
X136133093Y-122828815D01*
X136137298Y-122835440D01*
X136143077Y-122840867D01*
X136143078Y-122840868D01*
X136188316Y-122883349D01*
X136191158Y-122886104D01*
X136211465Y-122906411D01*
X136214596Y-122908840D01*
X136214602Y-122908845D01*
X136214877Y-122909058D01*
X136223890Y-122916755D01*
X136257107Y-122947948D01*
X136264054Y-122951767D01*
X136275566Y-122958096D01*
X136292090Y-122968950D01*
X136308736Y-122981862D01*
X136319001Y-122986304D01*
X136350541Y-122999953D01*
X136361200Y-123005175D01*
X136394186Y-123023309D01*
X136394190Y-123023310D01*
X136401132Y-123027127D01*
X136408805Y-123029097D01*
X136408807Y-123029098D01*
X136421536Y-123032366D01*
X136440240Y-123038770D01*
X136452293Y-123043986D01*
X136452302Y-123043989D01*
X136459573Y-123047135D01*
X136467401Y-123048375D01*
X136467402Y-123048375D01*
X136504567Y-123054261D01*
X136516193Y-123056669D01*
X136552646Y-123066029D01*
X136552647Y-123066029D01*
X136560323Y-123068000D01*
X136581390Y-123068000D01*
X136601102Y-123069551D01*
X136621905Y-123072846D01*
X136629797Y-123072100D01*
X136629799Y-123072100D01*
X136648527Y-123070330D01*
X136718228Y-123083833D01*
X136769563Y-123132876D01*
X136781502Y-123161040D01*
X136818759Y-123290970D01*
X136912927Y-123471096D01*
X136916958Y-123476039D01*
X136916959Y-123476040D01*
X137024472Y-123607864D01*
X137052026Y-123673296D01*
X137039830Y-123743237D01*
X137024473Y-123767135D01*
X136915332Y-123900956D01*
X136915330Y-123900957D01*
X136912927Y-123903904D01*
X136912377Y-123903456D01*
X136861837Y-123946221D01*
X136810845Y-123957000D01*
X135521170Y-123957000D01*
X135517651Y-123956951D01*
X135437729Y-123954718D01*
X135437726Y-123954718D01*
X135431347Y-123954540D01*
X135425062Y-123955648D01*
X135425052Y-123955649D01*
X135371934Y-123965016D01*
X135362792Y-123966285D01*
X135302784Y-123972380D01*
X135275307Y-123980991D01*
X135259521Y-123984838D01*
X135231179Y-123989836D01*
X135175101Y-124012038D01*
X135166401Y-124015119D01*
X135153092Y-124019290D01*
X135108828Y-124033162D01*
X135088400Y-124044486D01*
X135083664Y-124047111D01*
X135068962Y-124054061D01*
X135048133Y-124062308D01*
X135042195Y-124064659D01*
X135001282Y-124091433D01*
X134932290Y-124112000D01*
X134737634Y-124112000D01*
X134734388Y-124112337D01*
X134734384Y-124112337D01*
X134639839Y-124122147D01*
X134639835Y-124122148D01*
X134632981Y-124122859D01*
X134626445Y-124125040D01*
X134626443Y-124125040D01*
X134559533Y-124147363D01*
X134466971Y-124178244D01*
X134318155Y-124270334D01*
X134194516Y-124394189D01*
X134102686Y-124543166D01*
X134100381Y-124550114D01*
X134100381Y-124550115D01*
X134068840Y-124645208D01*
X134047590Y-124709272D01*
X134037000Y-124812634D01*
X134037000Y-125587366D01*
X134037337Y-125590612D01*
X134037337Y-125590616D01*
X134042602Y-125641351D01*
X134047859Y-125692019D01*
X134050040Y-125698555D01*
X134050040Y-125698557D01*
X134079344Y-125786391D01*
X134103244Y-125858029D01*
X134195334Y-126006845D01*
X134319189Y-126130484D01*
X134468166Y-126222314D01*
X134475114Y-126224619D01*
X134475115Y-126224619D01*
X134627741Y-126275244D01*
X134627743Y-126275245D01*
X134634272Y-126277410D01*
X134737634Y-126288000D01*
X135787366Y-126288000D01*
X135790612Y-126287663D01*
X135790616Y-126287663D01*
X135885161Y-126277853D01*
X135885165Y-126277852D01*
X135892019Y-126277141D01*
X135898555Y-126274960D01*
X135898557Y-126274960D01*
X136051081Y-126224074D01*
X136058029Y-126221756D01*
X136206845Y-126129666D01*
X136330484Y-126005811D01*
X136331276Y-126004527D01*
X136387243Y-125964846D01*
X136428209Y-125958000D01*
X136810845Y-125958000D01*
X136878966Y-125978002D01*
X136912666Y-126011309D01*
X136912927Y-126011096D01*
X137041391Y-126168609D01*
X137046331Y-126172638D01*
X137185807Y-126286391D01*
X137198904Y-126297073D01*
X137204557Y-126300028D01*
X137204558Y-126300029D01*
X137238838Y-126317950D01*
X137379030Y-126391241D01*
X137574413Y-126447266D01*
X137600094Y-126449558D01*
X137691891Y-126457751D01*
X137691897Y-126457751D01*
X137694684Y-126458000D01*
X140310316Y-126458000D01*
X140313103Y-126457751D01*
X140313109Y-126457751D01*
X140404906Y-126449558D01*
X140430587Y-126447266D01*
X140625970Y-126391241D01*
X140766162Y-126317950D01*
X140800442Y-126300029D01*
X140800443Y-126300028D01*
X140806096Y-126297073D01*
X140819194Y-126286391D01*
X140958669Y-126172638D01*
X140963609Y-126168609D01*
X141092073Y-126011096D01*
X141119984Y-125957707D01*
X141169270Y-125906605D01*
X141193967Y-125895848D01*
X141232583Y-125883747D01*
X141232590Y-125883744D01*
X141238672Y-125881838D01*
X141263842Y-125867885D01*
X141278549Y-125860933D01*
X141285884Y-125858029D01*
X141305305Y-125850340D01*
X141355777Y-125817312D01*
X141363681Y-125812544D01*
X141410863Y-125786391D01*
X141410866Y-125786389D01*
X141416444Y-125783297D01*
X141438297Y-125764567D01*
X141451300Y-125754804D01*
X141471335Y-125741693D01*
X141475382Y-125739045D01*
X141478975Y-125735810D01*
X141478979Y-125735807D01*
X141479104Y-125735694D01*
X141480338Y-125734583D01*
X141519250Y-125695671D01*
X141526348Y-125689098D01*
X141533408Y-125683047D01*
X141570771Y-125651023D01*
X141578274Y-125641351D01*
X141589682Y-125626643D01*
X141600147Y-125614774D01*
X142458532Y-124756389D01*
X142461054Y-124753936D01*
X142519139Y-124699008D01*
X142519140Y-124699007D01*
X142523780Y-124694619D01*
X142532125Y-124682702D01*
X142558378Y-124645208D01*
X142563948Y-124637843D01*
X142598039Y-124596044D01*
X142598042Y-124596040D01*
X142602073Y-124591097D01*
X142615410Y-124565587D01*
X142623853Y-124551700D01*
X142628938Y-124544438D01*
X142640363Y-124528121D01*
X142664322Y-124472756D01*
X142668295Y-124464428D01*
X142693284Y-124416627D01*
X142693285Y-124416624D01*
X142696241Y-124410970D01*
X142704175Y-124383299D01*
X142709655Y-124367995D01*
X142721086Y-124341581D01*
X142733422Y-124282533D01*
X142735640Y-124273570D01*
X142741897Y-124251748D01*
X142752266Y-124215587D01*
X142754474Y-124186888D01*
X142756765Y-124170795D01*
X142762651Y-124142620D01*
X142763000Y-124135961D01*
X142763000Y-124080936D01*
X142763371Y-124071269D01*
X142767371Y-124019290D01*
X142767371Y-124019286D01*
X142767860Y-124012930D01*
X142763994Y-123982327D01*
X142763000Y-123966535D01*
X142763000Y-116786700D01*
X142750071Y-116659413D01*
X142748265Y-116641632D01*
X142748265Y-116641630D01*
X142747620Y-116635284D01*
X142686838Y-116441328D01*
X142588297Y-116263556D01*
X142456023Y-116109229D01*
X142383915Y-116053296D01*
X142300458Y-115988561D01*
X142295419Y-115984652D01*
X142113045Y-115894913D01*
X142106867Y-115893304D01*
X142106865Y-115893303D01*
X141922534Y-115845288D01*
X141922531Y-115845288D01*
X141916352Y-115843678D01*
X141835172Y-115839424D01*
X141719756Y-115833375D01*
X141719752Y-115833375D01*
X141713374Y-115833041D01*
X141512403Y-115863435D01*
X141321648Y-115933619D01*
X141316228Y-115936980D01*
X141316221Y-115936983D01*
X141309574Y-115941104D01*
X141241138Y-115959998D01*
X141173350Y-115938894D01*
X141127734Y-115884491D01*
X141118772Y-115814062D01*
X141131521Y-115775639D01*
X141183282Y-115676631D01*
X141183284Y-115676627D01*
X141186241Y-115670970D01*
X141242266Y-115475587D01*
X141253000Y-115355316D01*
X141253000Y-114239684D01*
X141242266Y-114119413D01*
X141186241Y-113924030D01*
X141092073Y-113743904D01*
X140980528Y-113607136D01*
X140952974Y-113541704D01*
X140965170Y-113471763D01*
X140980528Y-113447864D01*
X141038857Y-113376346D01*
X141097412Y-113336198D01*
X141168377Y-113334081D01*
X141229221Y-113370666D01*
X141260627Y-113434339D01*
X141262500Y-113455982D01*
X141262500Y-113537500D01*
X142762500Y-115037500D01*
X151762500Y-115037500D01*
X153262500Y-113537500D01*
X153262500Y-113468243D01*
X153282502Y-113400122D01*
X153336158Y-113353629D01*
X153406432Y-113343525D01*
X153471012Y-113373019D01*
X153486143Y-113388607D01*
X153534472Y-113447864D01*
X153562026Y-113513296D01*
X153549831Y-113583237D01*
X153534473Y-113607135D01*
X153422927Y-113743904D01*
X153328759Y-113924030D01*
X153272734Y-114119413D01*
X153262000Y-114239684D01*
X153262000Y-115355316D01*
X153272734Y-115475587D01*
X153328759Y-115670970D01*
X153331719Y-115676631D01*
X153419891Y-115845288D01*
X153422927Y-115851096D01*
X153426958Y-115856039D01*
X153426959Y-115856040D01*
X153450163Y-115884491D01*
X153529557Y-115981837D01*
X153534472Y-115987864D01*
X153562026Y-116053296D01*
X153549830Y-116123237D01*
X153534473Y-116147135D01*
X153422927Y-116283904D01*
X153328759Y-116464030D01*
X153272734Y-116659413D01*
X153262000Y-116779684D01*
X153262000Y-117895316D01*
X153272734Y-118015587D01*
X153328759Y-118210970D01*
X153422927Y-118391096D01*
X153426958Y-118396039D01*
X153426959Y-118396040D01*
X153534472Y-118527864D01*
X153562026Y-118593296D01*
X153549830Y-118663237D01*
X153534473Y-118687135D01*
X153422927Y-118823904D01*
X153328759Y-119004030D01*
X153272734Y-119199413D01*
X153262000Y-119319684D01*
X153262000Y-120435316D01*
X153272734Y-120555587D01*
X153328759Y-120750970D01*
X153422927Y-120931096D01*
X153426958Y-120936039D01*
X153426959Y-120936040D01*
X153468216Y-120986626D01*
X153529800Y-121062135D01*
X153534472Y-121067864D01*
X153562026Y-121133296D01*
X153549830Y-121203237D01*
X153534472Y-121227136D01*
X153428966Y-121356500D01*
X153422927Y-121363904D01*
X153328759Y-121544030D01*
X153272734Y-121739413D01*
X153272201Y-121745386D01*
X153263472Y-121843194D01*
X153262000Y-121859684D01*
X153262000Y-122975316D01*
X153262249Y-122978103D01*
X153262249Y-122978109D01*
X153264665Y-123005175D01*
X153272734Y-123095587D01*
X153328759Y-123290970D01*
X153422927Y-123471096D01*
X153426958Y-123476039D01*
X153426959Y-123476040D01*
X153534472Y-123607864D01*
X153562026Y-123673296D01*
X153549830Y-123743237D01*
X153534473Y-123767135D01*
X153422927Y-123903904D01*
X153328759Y-124084030D01*
X153272734Y-124279413D01*
X153272201Y-124285386D01*
X153262953Y-124389009D01*
X153262000Y-124399684D01*
X153262000Y-125515316D01*
X153262249Y-125518103D01*
X153262249Y-125518109D01*
X153267203Y-125573611D01*
X153272734Y-125635587D01*
X153328759Y-125830970D01*
X153422927Y-126011096D01*
X153426957Y-126016037D01*
X153426959Y-126016040D01*
X153534472Y-126147864D01*
X153562026Y-126213296D01*
X153549830Y-126283237D01*
X153534473Y-126307135D01*
X153422927Y-126443904D01*
X153328759Y-126624030D01*
X153272734Y-126819413D01*
X153262000Y-126939684D01*
X153262000Y-128055316D01*
X153272734Y-128175587D01*
X153328759Y-128370970D01*
X153422927Y-128551096D01*
X153426958Y-128556039D01*
X153426959Y-128556040D01*
X153534472Y-128687864D01*
X153562026Y-128753296D01*
X153549830Y-128823237D01*
X153534473Y-128847135D01*
X153422927Y-128983904D01*
X153328759Y-129164030D01*
X153272734Y-129359413D01*
X153272201Y-129365386D01*
X153265949Y-129435442D01*
X153262000Y-129479684D01*
X153262000Y-130595316D01*
X153262249Y-130598103D01*
X153262249Y-130598109D01*
X153266319Y-130643706D01*
X153272734Y-130715587D01*
X153328759Y-130910970D01*
X153422927Y-131091096D01*
X153551391Y-131248609D01*
X153556331Y-131252638D01*
X153630780Y-131313357D01*
X153670928Y-131371912D01*
X153673045Y-131442877D01*
X153636460Y-131503721D01*
X153572787Y-131535127D01*
X153551144Y-131537000D01*
X140963856Y-131537000D01*
X140895735Y-131516998D01*
X140849242Y-131463342D01*
X140839138Y-131393068D01*
X140868632Y-131328488D01*
X140884220Y-131313357D01*
X140958669Y-131252638D01*
X140963609Y-131248609D01*
X141092073Y-131091096D01*
X141186241Y-130910970D01*
X141242266Y-130715587D01*
X141248681Y-130643706D01*
X141252751Y-130598109D01*
X141252751Y-130598103D01*
X141253000Y-130595316D01*
X141253000Y-130404114D01*
X141273002Y-130335993D01*
X141326658Y-130289500D01*
X141396932Y-130279396D01*
X141461512Y-130308890D01*
X141490457Y-130345349D01*
X141573260Y-130502398D01*
X141689168Y-130639558D01*
X141694591Y-130643705D01*
X141694593Y-130643706D01*
X141826405Y-130744484D01*
X141826409Y-130744487D01*
X141831826Y-130748628D01*
X141838006Y-130751510D01*
X141838008Y-130751511D01*
X141988400Y-130821640D01*
X141988403Y-130821641D01*
X141994577Y-130824520D01*
X142001225Y-130826006D01*
X142001228Y-130826007D01*
X142164790Y-130862567D01*
X142164791Y-130862567D01*
X142169828Y-130863693D01*
X142175319Y-130864000D01*
X142307366Y-130864000D01*
X142441025Y-130849480D01*
X142523751Y-130821640D01*
X142604757Y-130794379D01*
X142604759Y-130794378D01*
X142611222Y-130792203D01*
X142765148Y-130699714D01*
X142824375Y-130643706D01*
X142890665Y-130581019D01*
X142890667Y-130581017D01*
X142895623Y-130576330D01*
X142996560Y-130427806D01*
X143063248Y-130261073D01*
X143092578Y-130083909D01*
X143091474Y-130062830D01*
X143083536Y-129911392D01*
X143083179Y-129904579D01*
X143035492Y-129731451D01*
X142951740Y-129572602D01*
X142835832Y-129435442D01*
X142830407Y-129431294D01*
X142698595Y-129330516D01*
X142698591Y-129330513D01*
X142693174Y-129326372D01*
X142686994Y-129323490D01*
X142686992Y-129323489D01*
X142536600Y-129253360D01*
X142536597Y-129253359D01*
X142530423Y-129250480D01*
X142523775Y-129248994D01*
X142523772Y-129248993D01*
X142360210Y-129212433D01*
X142360209Y-129212433D01*
X142355172Y-129211307D01*
X142349681Y-129211000D01*
X142217634Y-129211000D01*
X142083975Y-129225520D01*
X142014226Y-129248993D01*
X141920243Y-129280621D01*
X141920241Y-129280622D01*
X141913778Y-129282797D01*
X141759852Y-129375286D01*
X141754892Y-129379977D01*
X141754890Y-129379978D01*
X141635810Y-129492587D01*
X141629377Y-129498670D01*
X141528440Y-129647194D01*
X141497155Y-129725412D01*
X141495989Y-129728328D01*
X141452120Y-129784149D01*
X141385036Y-129807391D01*
X141316035Y-129790675D01*
X141267025Y-129739308D01*
X141253000Y-129681536D01*
X141253000Y-129479684D01*
X141249052Y-129435442D01*
X141242799Y-129365386D01*
X141242266Y-129359413D01*
X141186241Y-129164030D01*
X141092073Y-128983904D01*
X140963609Y-128826391D01*
X140891401Y-128767500D01*
X140811040Y-128701959D01*
X140811039Y-128701958D01*
X140806096Y-128697927D01*
X140786848Y-128687864D01*
X140766162Y-128677050D01*
X140625970Y-128603759D01*
X140430587Y-128547734D01*
X140398955Y-128544911D01*
X140313109Y-128537249D01*
X140313103Y-128537249D01*
X140310316Y-128537000D01*
X137694684Y-128537000D01*
X137691897Y-128537249D01*
X137691891Y-128537249D01*
X137606045Y-128544911D01*
X137574413Y-128547734D01*
X137379030Y-128603759D01*
X137238838Y-128677050D01*
X137218153Y-128687864D01*
X137198904Y-128697927D01*
X137193961Y-128701958D01*
X137193960Y-128701959D01*
X137113599Y-128767500D01*
X137041391Y-128826391D01*
X136912927Y-128983904D01*
X136818759Y-129164030D01*
X136762734Y-129359413D01*
X136762201Y-129365386D01*
X136755949Y-129435442D01*
X136752000Y-129479684D01*
X136752000Y-130595316D01*
X136752249Y-130598103D01*
X136752249Y-130598109D01*
X136756319Y-130643706D01*
X136762734Y-130715587D01*
X136818759Y-130910970D01*
X136912927Y-131091096D01*
X137041391Y-131248609D01*
X137046331Y-131252638D01*
X137120780Y-131313357D01*
X137160928Y-131371912D01*
X137163045Y-131442877D01*
X137126460Y-131503721D01*
X137062787Y-131535127D01*
X137041144Y-131537000D01*
X129811241Y-131537000D01*
X129791857Y-131535500D01*
X129777550Y-131533272D01*
X129777547Y-131533272D01*
X129768677Y-131531891D01*
X129759775Y-131533055D01*
X129759772Y-131533055D01*
X129752840Y-131533962D01*
X129728261Y-131534756D01*
X129509755Y-131520434D01*
X129493415Y-131518283D01*
X129253091Y-131470480D01*
X129237170Y-131466214D01*
X129005143Y-131387451D01*
X128989917Y-131381144D01*
X128770158Y-131272771D01*
X128755884Y-131264530D01*
X128552147Y-131128397D01*
X128539072Y-131118364D01*
X128507979Y-131091096D01*
X128354842Y-130956799D01*
X128343201Y-130945158D01*
X128181636Y-130760928D01*
X128171603Y-130747853D01*
X128035470Y-130544116D01*
X128027229Y-130529842D01*
X127918856Y-130310083D01*
X127912549Y-130294857D01*
X127833786Y-130062830D01*
X127829520Y-130046909D01*
X127781717Y-129806585D01*
X127779566Y-129790245D01*
X127765944Y-129582421D01*
X127767103Y-129559532D01*
X127766753Y-129559501D01*
X127767187Y-129554661D01*
X127767996Y-129549854D01*
X127768147Y-129537500D01*
X127764273Y-129510449D01*
X127763000Y-129492587D01*
X127763000Y-114262366D01*
X128562000Y-114262366D01*
X128572859Y-114367019D01*
X128575040Y-114373555D01*
X128575040Y-114373557D01*
X128621442Y-114512640D01*
X128628244Y-114533029D01*
X128720334Y-114681845D01*
X128844189Y-114805484D01*
X128993166Y-114897314D01*
X129000114Y-114899619D01*
X129000115Y-114899619D01*
X129152741Y-114950244D01*
X129152743Y-114950245D01*
X129159272Y-114952410D01*
X129262634Y-114963000D01*
X129536000Y-114963000D01*
X129604121Y-114983002D01*
X129650614Y-115036658D01*
X129662000Y-115089000D01*
X129662000Y-115499227D01*
X129641998Y-115567348D01*
X129611565Y-115600053D01*
X129504954Y-115679954D01*
X129499572Y-115687135D01*
X129424356Y-115787494D01*
X129424354Y-115787497D01*
X129418974Y-115794676D01*
X129368649Y-115928920D01*
X129362000Y-115990123D01*
X129362001Y-117784876D01*
X129368649Y-117846080D01*
X129418974Y-117980324D01*
X129424354Y-117987503D01*
X129424356Y-117987506D01*
X129445402Y-118015587D01*
X129504954Y-118095046D01*
X129512135Y-118100428D01*
X129611565Y-118174947D01*
X129654080Y-118231806D01*
X129662000Y-118275773D01*
X129662000Y-121799227D01*
X129641998Y-121867348D01*
X129611565Y-121900053D01*
X129504954Y-121979954D01*
X129499572Y-121987135D01*
X129424356Y-122087494D01*
X129424354Y-122087497D01*
X129418974Y-122094676D01*
X129368649Y-122228920D01*
X129362000Y-122290123D01*
X129362001Y-124084876D01*
X129362370Y-124088270D01*
X129362370Y-124088276D01*
X129367550Y-124135961D01*
X129368649Y-124146080D01*
X129418974Y-124280324D01*
X129424354Y-124287503D01*
X129424356Y-124287506D01*
X129484459Y-124367700D01*
X129504954Y-124395046D01*
X129512135Y-124400428D01*
X129612494Y-124475644D01*
X129612497Y-124475646D01*
X129619676Y-124481026D01*
X129709061Y-124514534D01*
X129746525Y-124528579D01*
X129746527Y-124528579D01*
X129753920Y-124531351D01*
X129761770Y-124532204D01*
X129761771Y-124532204D01*
X129811717Y-124537630D01*
X129815123Y-124538000D01*
X130362419Y-124538000D01*
X130909876Y-124537999D01*
X130913270Y-124537630D01*
X130913276Y-124537630D01*
X130963222Y-124532205D01*
X130963226Y-124532204D01*
X130971080Y-124531351D01*
X131105324Y-124481026D01*
X131112503Y-124475646D01*
X131112506Y-124475644D01*
X131212865Y-124400428D01*
X131220046Y-124395046D01*
X131240541Y-124367700D01*
X131300644Y-124287506D01*
X131300646Y-124287503D01*
X131306026Y-124280324D01*
X131344097Y-124178769D01*
X131353579Y-124153475D01*
X131353579Y-124153473D01*
X131356351Y-124146080D01*
X131363000Y-124084877D01*
X131362999Y-122290124D01*
X131356351Y-122228920D01*
X131306026Y-122094676D01*
X131300646Y-122087497D01*
X131300644Y-122087494D01*
X131225428Y-121987135D01*
X131220046Y-121979954D01*
X131113435Y-121900053D01*
X131070920Y-121843194D01*
X131063000Y-121799227D01*
X131063000Y-118275773D01*
X131083002Y-118207652D01*
X131113435Y-118174947D01*
X131212865Y-118100428D01*
X131220046Y-118095046D01*
X131279598Y-118015587D01*
X131300644Y-117987506D01*
X131300646Y-117987503D01*
X131306026Y-117980324D01*
X131356351Y-117846080D01*
X131363000Y-117784877D01*
X131362999Y-115990124D01*
X131359727Y-115959998D01*
X131357205Y-115936778D01*
X131357204Y-115936774D01*
X131356351Y-115928920D01*
X131306026Y-115794676D01*
X131300646Y-115787497D01*
X131300644Y-115787494D01*
X131225428Y-115687135D01*
X131220046Y-115679954D01*
X131113435Y-115600053D01*
X131070920Y-115543194D01*
X131063000Y-115499227D01*
X131063000Y-115095597D01*
X131083002Y-115027476D01*
X131136658Y-114980983D01*
X131206932Y-114970879D01*
X131240246Y-114980489D01*
X131398233Y-115050829D01*
X131485671Y-115069414D01*
X131566652Y-115086628D01*
X131566656Y-115086628D01*
X131573109Y-115088000D01*
X131751891Y-115088000D01*
X131758344Y-115086628D01*
X131758348Y-115086628D01*
X131839329Y-115069414D01*
X131926767Y-115050829D01*
X131958596Y-115036658D01*
X132084063Y-114980797D01*
X132084065Y-114980796D01*
X132090093Y-114978112D01*
X132100049Y-114970879D01*
X132229391Y-114876905D01*
X132234730Y-114873026D01*
X132245313Y-114861273D01*
X132349940Y-114745073D01*
X132349941Y-114745072D01*
X132354359Y-114740165D01*
X132443750Y-114585335D01*
X132498997Y-114415303D01*
X132517685Y-114237500D01*
X132505901Y-114125386D01*
X132499687Y-114066261D01*
X132499687Y-114066260D01*
X132498997Y-114059697D01*
X132443750Y-113889665D01*
X132354359Y-113734835D01*
X132345364Y-113724845D01*
X132314646Y-113660838D01*
X132313000Y-113640535D01*
X132313000Y-113518499D01*
X132313549Y-113506859D01*
X132315260Y-113499203D01*
X132313062Y-113429268D01*
X132313000Y-113425311D01*
X132313000Y-113396575D01*
X132312461Y-113392307D01*
X132311528Y-113380464D01*
X132311142Y-113368166D01*
X132310097Y-113334930D01*
X132304222Y-113314708D01*
X132300211Y-113295342D01*
X132298565Y-113282306D01*
X132298564Y-113282301D01*
X132297571Y-113274442D01*
X132280797Y-113232074D01*
X132276958Y-113220861D01*
X132266455Y-113184711D01*
X132264244Y-113177101D01*
X132253519Y-113158966D01*
X132244820Y-113141209D01*
X132239986Y-113128998D01*
X132239985Y-113128996D01*
X132237068Y-113121629D01*
X132210288Y-113084769D01*
X132203772Y-113074849D01*
X132180581Y-113035635D01*
X132165688Y-113020742D01*
X132152847Y-113005708D01*
X132145123Y-112995077D01*
X132140463Y-112988663D01*
X132105356Y-112959620D01*
X132096577Y-112951631D01*
X130995245Y-111850299D01*
X130961219Y-111787987D01*
X130959013Y-111774208D01*
X130952853Y-111714839D01*
X130952852Y-111714835D01*
X130952141Y-111707981D01*
X130936934Y-111662398D01*
X130899074Y-111548919D01*
X130896756Y-111541971D01*
X130804666Y-111393155D01*
X130680811Y-111269516D01*
X130531834Y-111177686D01*
X130519612Y-111173632D01*
X130372259Y-111124756D01*
X130372257Y-111124755D01*
X130365728Y-111122590D01*
X130262366Y-111112000D01*
X129262634Y-111112000D01*
X129259388Y-111112337D01*
X129259384Y-111112337D01*
X129164839Y-111122147D01*
X129164835Y-111122148D01*
X129157981Y-111122859D01*
X129151445Y-111125040D01*
X129151443Y-111125040D01*
X129130363Y-111132073D01*
X128991971Y-111178244D01*
X128843155Y-111270334D01*
X128719516Y-111394189D01*
X128715676Y-111400419D01*
X128715675Y-111400420D01*
X128706102Y-111415951D01*
X128627686Y-111543166D01*
X128625381Y-111550114D01*
X128625381Y-111550115D01*
X128575810Y-111699565D01*
X128572590Y-111709272D01*
X128562000Y-111812634D01*
X128562000Y-112437366D01*
X128572859Y-112542019D01*
X128628244Y-112708029D01*
X128720334Y-112856845D01*
X128725516Y-112862018D01*
X128811923Y-112948274D01*
X128846002Y-113010556D01*
X128840999Y-113081376D01*
X128812078Y-113126465D01*
X128724687Y-113214008D01*
X128724683Y-113214013D01*
X128719516Y-113219189D01*
X128627686Y-113368166D01*
X128625381Y-113375114D01*
X128625381Y-113375115D01*
X128579548Y-113513296D01*
X128572590Y-113534272D01*
X128562000Y-113637634D01*
X128562000Y-114262366D01*
X127763000Y-114262366D01*
X127763000Y-100608220D01*
X127783002Y-100540099D01*
X127836658Y-100493606D01*
X127906932Y-100483502D01*
X127960300Y-100506148D01*
G37*
G04 #@! TD.AperFunction*
G04 #@! TA.AperFunction,Conductor*
G36*
X166694477Y-106296612D02*
G01*
X166745534Y-106345944D01*
X166762000Y-106408220D01*
X166762000Y-129488759D01*
X166760500Y-129508143D01*
X166756891Y-129531323D01*
X166758055Y-129540225D01*
X166758055Y-129540228D01*
X166758962Y-129547160D01*
X166759756Y-129571739D01*
X166745434Y-129790245D01*
X166743283Y-129806585D01*
X166695480Y-130046909D01*
X166691214Y-130062830D01*
X166612451Y-130294857D01*
X166606144Y-130310083D01*
X166497771Y-130529842D01*
X166489530Y-130544116D01*
X166353397Y-130747853D01*
X166343364Y-130760928D01*
X166181799Y-130945158D01*
X166170158Y-130956799D01*
X166017021Y-131091096D01*
X165985928Y-131118364D01*
X165972853Y-131128397D01*
X165769116Y-131264530D01*
X165754842Y-131272771D01*
X165535083Y-131381144D01*
X165519857Y-131387451D01*
X165287830Y-131466214D01*
X165271909Y-131470480D01*
X165031585Y-131518283D01*
X165015245Y-131520434D01*
X164869229Y-131530005D01*
X164803824Y-131534292D01*
X164782198Y-131533329D01*
X164777547Y-131533272D01*
X164768677Y-131531891D01*
X164759775Y-131533055D01*
X164759772Y-131533055D01*
X164737744Y-131535936D01*
X164721407Y-131537000D01*
X157473856Y-131537000D01*
X157405735Y-131516998D01*
X157359242Y-131463342D01*
X157349138Y-131393068D01*
X157378632Y-131328488D01*
X157394220Y-131313357D01*
X157468669Y-131252638D01*
X157473609Y-131248609D01*
X157602073Y-131091096D01*
X157696241Y-130910970D01*
X157752266Y-130715587D01*
X157758681Y-130643706D01*
X157762751Y-130598109D01*
X157762751Y-130598103D01*
X157763000Y-130595316D01*
X157763000Y-130509136D01*
X157783002Y-130441015D01*
X157799905Y-130420041D01*
X163265198Y-124954748D01*
X163273815Y-124946907D01*
X163280440Y-124942702D01*
X163328350Y-124891683D01*
X163331104Y-124888842D01*
X163351411Y-124868535D01*
X163353840Y-124865404D01*
X163353845Y-124865398D01*
X163354058Y-124865123D01*
X163361755Y-124856110D01*
X163392948Y-124822893D01*
X163398588Y-124812634D01*
X163403096Y-124804434D01*
X163413950Y-124787910D01*
X163422004Y-124777527D01*
X163422005Y-124777526D01*
X163426862Y-124771264D01*
X163444955Y-124729452D01*
X163450170Y-124718807D01*
X163472127Y-124678868D01*
X163477367Y-124658459D01*
X163483773Y-124639750D01*
X163492136Y-124620425D01*
X163493542Y-124621033D01*
X163526956Y-124568716D01*
X163591454Y-124539041D01*
X163614854Y-124537971D01*
X163615123Y-124538000D01*
X164161617Y-124538000D01*
X164709876Y-124537999D01*
X164713270Y-124537630D01*
X164713276Y-124537630D01*
X164763222Y-124532205D01*
X164763226Y-124532204D01*
X164771080Y-124531351D01*
X164905324Y-124481026D01*
X164912503Y-124475646D01*
X164912506Y-124475644D01*
X165012865Y-124400428D01*
X165020046Y-124395046D01*
X165040541Y-124367700D01*
X165100644Y-124287506D01*
X165100646Y-124287503D01*
X165106026Y-124280324D01*
X165144097Y-124178769D01*
X165153579Y-124153475D01*
X165153579Y-124153473D01*
X165156351Y-124146080D01*
X165163000Y-124084877D01*
X165162999Y-122290124D01*
X165156351Y-122228920D01*
X165106026Y-122094676D01*
X165100646Y-122087497D01*
X165100644Y-122087494D01*
X165025428Y-121987135D01*
X165020046Y-121979954D01*
X164913435Y-121900053D01*
X164870920Y-121843194D01*
X164863000Y-121799227D01*
X164863000Y-118275773D01*
X164883002Y-118207652D01*
X164913435Y-118174947D01*
X165012865Y-118100428D01*
X165020046Y-118095046D01*
X165079598Y-118015587D01*
X165100644Y-117987506D01*
X165100646Y-117987503D01*
X165106026Y-117980324D01*
X165156351Y-117846080D01*
X165163000Y-117784877D01*
X165162999Y-115990124D01*
X165159727Y-115959998D01*
X165157205Y-115936778D01*
X165157204Y-115936774D01*
X165156351Y-115928920D01*
X165106026Y-115794676D01*
X165100646Y-115787497D01*
X165100644Y-115787494D01*
X165025428Y-115687135D01*
X165020046Y-115679954D01*
X164913435Y-115600053D01*
X164870920Y-115543194D01*
X164863000Y-115499227D01*
X164863000Y-115294251D01*
X164883002Y-115226130D01*
X164936658Y-115179637D01*
X164949123Y-115174728D01*
X164951076Y-115174076D01*
X164951078Y-115174075D01*
X164958029Y-115171756D01*
X165106845Y-115079666D01*
X165230484Y-114955811D01*
X165322314Y-114806834D01*
X165377410Y-114640728D01*
X165388000Y-114537366D01*
X165388000Y-113537634D01*
X165387651Y-113534272D01*
X165377853Y-113439839D01*
X165377852Y-113439835D01*
X165377141Y-113432981D01*
X165366179Y-113400122D01*
X165326872Y-113282306D01*
X165321756Y-113266971D01*
X165229666Y-113118155D01*
X165105811Y-112994516D01*
X164956834Y-112902686D01*
X164949885Y-112900381D01*
X164797259Y-112849756D01*
X164797257Y-112849755D01*
X164790728Y-112847590D01*
X164687366Y-112837000D01*
X164239000Y-112837000D01*
X164170879Y-112816998D01*
X164124386Y-112763342D01*
X164113000Y-112711000D01*
X164113000Y-112159136D01*
X164133002Y-112091015D01*
X164149905Y-112070041D01*
X164665198Y-111554748D01*
X164673815Y-111546907D01*
X164680440Y-111542702D01*
X164717032Y-111503736D01*
X164728349Y-111491684D01*
X164731104Y-111488842D01*
X164751411Y-111468535D01*
X164754053Y-111465129D01*
X164761766Y-111456098D01*
X164787523Y-111428670D01*
X164792948Y-111422893D01*
X164803099Y-111404430D01*
X164813951Y-111387909D01*
X164822003Y-111377529D01*
X164822004Y-111377527D01*
X164826863Y-111371263D01*
X164844955Y-111329454D01*
X164850177Y-111318794D01*
X164868309Y-111285813D01*
X164868309Y-111285812D01*
X164872127Y-111278868D01*
X164877366Y-111258462D01*
X164883770Y-111239759D01*
X164888988Y-111227700D01*
X164892136Y-111220426D01*
X164893376Y-111212600D01*
X164893377Y-111212595D01*
X164899265Y-111175424D01*
X164901671Y-111163804D01*
X164911028Y-111127358D01*
X164911028Y-111127357D01*
X164913000Y-111119677D01*
X164913000Y-111098616D01*
X164914551Y-111078905D01*
X164916607Y-111065924D01*
X164917847Y-111058095D01*
X164913559Y-111012735D01*
X164913000Y-111000877D01*
X164913000Y-107214000D01*
X164933002Y-107145879D01*
X164986658Y-107099386D01*
X165039000Y-107088000D01*
X165151891Y-107088000D01*
X165158344Y-107086628D01*
X165158348Y-107086628D01*
X165239329Y-107069414D01*
X165326767Y-107050829D01*
X165354335Y-107038555D01*
X165484063Y-106980797D01*
X165484065Y-106980796D01*
X165490093Y-106978112D01*
X165634730Y-106873026D01*
X165717605Y-106780985D01*
X165749940Y-106745073D01*
X165749941Y-106745072D01*
X165754359Y-106740165D01*
X165843750Y-106585335D01*
X165863333Y-106525063D01*
X165903406Y-106466458D01*
X165968803Y-106438821D01*
X165983166Y-106438000D01*
X166228194Y-106438000D01*
X166230640Y-106437808D01*
X166230653Y-106437807D01*
X166251916Y-106436133D01*
X166265069Y-106435098D01*
X166357583Y-106408220D01*
X166415285Y-106391456D01*
X166415286Y-106391455D01*
X166422898Y-106389244D01*
X166559904Y-106308219D01*
X166559907Y-106308218D01*
X166564365Y-106305581D01*
X166564790Y-106306300D01*
X166624854Y-106282714D01*
X166694477Y-106296612D01*
G37*
G04 #@! TD.AperFunction*
G04 #@! TA.AperFunction,Conductor*
G36*
X161580032Y-120944079D02*
G01*
X161636868Y-120986626D01*
X161661679Y-121053146D01*
X161662000Y-121062135D01*
X161662000Y-123620864D01*
X161641998Y-123688985D01*
X161625095Y-123709959D01*
X158524959Y-126810095D01*
X158462647Y-126844121D01*
X158435864Y-126847000D01*
X157855124Y-126847000D01*
X157787003Y-126826998D01*
X157740510Y-126773342D01*
X157734005Y-126755730D01*
X157698001Y-126630168D01*
X157696241Y-126624030D01*
X157602073Y-126443904D01*
X157490528Y-126307136D01*
X157462974Y-126241704D01*
X157475170Y-126171763D01*
X157490528Y-126147864D01*
X157598041Y-126016040D01*
X157598043Y-126016037D01*
X157602073Y-126011096D01*
X157696241Y-125830970D01*
X157738657Y-125683047D01*
X157776661Y-125623078D01*
X157830820Y-125598689D01*
X157830011Y-125595537D01*
X157837694Y-125593564D01*
X157845558Y-125592571D01*
X157852929Y-125589652D01*
X157852931Y-125589652D01*
X157887920Y-125575798D01*
X157899131Y-125571959D01*
X157942898Y-125559244D01*
X157961036Y-125548518D01*
X157978781Y-125539824D01*
X157998371Y-125532068D01*
X158035238Y-125505282D01*
X158045146Y-125498775D01*
X158077542Y-125479617D01*
X158077547Y-125479613D01*
X158084365Y-125475581D01*
X158099258Y-125460688D01*
X158114292Y-125447847D01*
X158124923Y-125440123D01*
X158131337Y-125435463D01*
X158160380Y-125400356D01*
X158168369Y-125391577D01*
X158865198Y-124694748D01*
X158873815Y-124686907D01*
X158880440Y-124682702D01*
X158891253Y-124671188D01*
X158928349Y-124631684D01*
X158931104Y-124628842D01*
X158951412Y-124608534D01*
X158954054Y-124605128D01*
X158961766Y-124596098D01*
X158987523Y-124568670D01*
X158992948Y-124562893D01*
X159003099Y-124544430D01*
X159013951Y-124527909D01*
X159022003Y-124517529D01*
X159022004Y-124517527D01*
X159026863Y-124511263D01*
X159044955Y-124469454D01*
X159050177Y-124458794D01*
X159068309Y-124425813D01*
X159068309Y-124425812D01*
X159072127Y-124418868D01*
X159077366Y-124398462D01*
X159083770Y-124379759D01*
X159088988Y-124367700D01*
X159092136Y-124360426D01*
X159093376Y-124352600D01*
X159093377Y-124352595D01*
X159099265Y-124315424D01*
X159101671Y-124303804D01*
X159111028Y-124267358D01*
X159111028Y-124267357D01*
X159113000Y-124259677D01*
X159113000Y-124238616D01*
X159114551Y-124218905D01*
X159116607Y-124205924D01*
X159117847Y-124198095D01*
X159113559Y-124152732D01*
X159113000Y-124140875D01*
X159113000Y-123359136D01*
X159133002Y-123291015D01*
X159149905Y-123270041D01*
X160198427Y-122221519D01*
X161446905Y-120973040D01*
X161509217Y-120939015D01*
X161580032Y-120944079D01*
G37*
G04 #@! TD.AperFunction*
G04 #@! TA.AperFunction,Conductor*
G36*
X159962594Y-114877229D02*
G01*
X159998877Y-114898200D01*
X160019643Y-114915379D01*
X160028423Y-114923369D01*
X161075095Y-115970041D01*
X161109121Y-116032353D01*
X161112000Y-116059136D01*
X161112000Y-119415864D01*
X161091998Y-119483985D01*
X161075095Y-119504959D01*
X158059802Y-122520252D01*
X158051185Y-122528093D01*
X158044560Y-122532298D01*
X158039133Y-122538077D01*
X158039132Y-122538078D01*
X157996651Y-122583316D01*
X157993896Y-122586158D01*
X157978095Y-122601959D01*
X157915783Y-122635985D01*
X157844968Y-122630920D01*
X157788132Y-122588373D01*
X157763321Y-122521853D01*
X157763000Y-122512864D01*
X157763000Y-121859684D01*
X157756065Y-121781984D01*
X157769932Y-121712356D01*
X157792471Y-121681689D01*
X159387572Y-120086587D01*
X159393839Y-120080732D01*
X159431174Y-120048164D01*
X159431176Y-120048162D01*
X159436896Y-120043172D01*
X159473190Y-119991530D01*
X159477116Y-119986245D01*
X159511395Y-119942527D01*
X159511397Y-119942523D01*
X159516084Y-119936546D01*
X159519210Y-119929623D01*
X159520995Y-119926675D01*
X159528387Y-119913715D01*
X159530020Y-119910669D01*
X159534387Y-119904456D01*
X159557320Y-119845636D01*
X159559876Y-119839557D01*
X159582728Y-119788944D01*
X159585855Y-119782019D01*
X159587240Y-119774548D01*
X159588264Y-119771280D01*
X159592377Y-119756839D01*
X159593217Y-119753566D01*
X159595976Y-119746490D01*
X159604216Y-119683897D01*
X159605248Y-119677380D01*
X159615368Y-119622778D01*
X159616752Y-119615311D01*
X159613209Y-119553859D01*
X159613000Y-119546607D01*
X159613000Y-115174847D01*
X159633002Y-115106726D01*
X159649905Y-115085752D01*
X159829467Y-114906190D01*
X159891779Y-114872164D01*
X159962594Y-114877229D01*
G37*
G04 #@! TD.AperFunction*
G04 #@! TA.AperFunction,Conductor*
G36*
X147564010Y-79258002D02*
G01*
X147584984Y-79274905D01*
X148085531Y-79775452D01*
X148119557Y-79837764D01*
X148122436Y-79864547D01*
X148122436Y-80415581D01*
X148120455Y-80434265D01*
X148120526Y-80434272D01*
X148109936Y-80537634D01*
X148109936Y-81537366D01*
X148110273Y-81540612D01*
X148110273Y-81540616D01*
X148120795Y-81642019D01*
X148120572Y-81642042D01*
X148122436Y-81659505D01*
X148122436Y-83769865D01*
X148116029Y-83809533D01*
X148077901Y-83924484D01*
X148074654Y-83934272D01*
X148064064Y-84037634D01*
X148064064Y-85037366D01*
X148064401Y-85040612D01*
X148064401Y-85040616D01*
X148072244Y-85116198D01*
X148074923Y-85142019D01*
X148130308Y-85308029D01*
X148222398Y-85456845D01*
X148227580Y-85462018D01*
X148237432Y-85471853D01*
X148346253Y-85580484D01*
X148352483Y-85584324D01*
X148352484Y-85584325D01*
X148355177Y-85585985D01*
X148495230Y-85672314D01*
X148502178Y-85674619D01*
X148502179Y-85674619D01*
X148654805Y-85725244D01*
X148654807Y-85725245D01*
X148661336Y-85727410D01*
X148764698Y-85738000D01*
X149389430Y-85738000D01*
X149392676Y-85737663D01*
X149392680Y-85737663D01*
X149487225Y-85727853D01*
X149487229Y-85727852D01*
X149494083Y-85727141D01*
X149500619Y-85724960D01*
X149500621Y-85724960D01*
X149653145Y-85674074D01*
X149660093Y-85671756D01*
X149808909Y-85579666D01*
X149900339Y-85488077D01*
X149962620Y-85453998D01*
X150033440Y-85459001D01*
X150078529Y-85487922D01*
X150166072Y-85575313D01*
X150166077Y-85575317D01*
X150171253Y-85580484D01*
X150177485Y-85584325D01*
X150177487Y-85584327D01*
X150302115Y-85661148D01*
X150349609Y-85713920D01*
X150362000Y-85768408D01*
X150362000Y-99312864D01*
X150341998Y-99380985D01*
X150288342Y-99427478D01*
X150218068Y-99437582D01*
X150153488Y-99408088D01*
X150146905Y-99401959D01*
X149747320Y-99002374D01*
X149713294Y-98940062D01*
X149711105Y-98900109D01*
X149716995Y-98844065D01*
X149717685Y-98837500D01*
X149698997Y-98659697D01*
X149692092Y-98638444D01*
X149645792Y-98495950D01*
X149643750Y-98489665D01*
X149554359Y-98334835D01*
X149549940Y-98329927D01*
X149439145Y-98206877D01*
X149439143Y-98206876D01*
X149434730Y-98201974D01*
X149327936Y-98124383D01*
X149295435Y-98100769D01*
X149295433Y-98100768D01*
X149290093Y-98096888D01*
X149284065Y-98094204D01*
X149284063Y-98094203D01*
X149132798Y-98026856D01*
X149132797Y-98026856D01*
X149126767Y-98024171D01*
X149039329Y-98005585D01*
X148958348Y-97988372D01*
X148958344Y-97988372D01*
X148951891Y-97987000D01*
X148773109Y-97987000D01*
X148766656Y-97988372D01*
X148766652Y-97988372D01*
X148685671Y-98005585D01*
X148598233Y-98024171D01*
X148592203Y-98026856D01*
X148592202Y-98026856D01*
X148440938Y-98094203D01*
X148440936Y-98094204D01*
X148434908Y-98096888D01*
X148429567Y-98100768D01*
X148429566Y-98100769D01*
X148368228Y-98145334D01*
X148290270Y-98201974D01*
X148285857Y-98206876D01*
X148285855Y-98206877D01*
X148175060Y-98329927D01*
X148170641Y-98334835D01*
X148081250Y-98489665D01*
X148079208Y-98495950D01*
X148032909Y-98638444D01*
X148026003Y-98659697D01*
X148007315Y-98837500D01*
X148008005Y-98844065D01*
X148013896Y-98900109D01*
X148026003Y-99015303D01*
X148081250Y-99185335D01*
X148084553Y-99191057D01*
X148084554Y-99191058D01*
X148095151Y-99209413D01*
X148170641Y-99340165D01*
X148175059Y-99345072D01*
X148175060Y-99345073D01*
X148235386Y-99412071D01*
X148290270Y-99473026D01*
X148295609Y-99476905D01*
X148429563Y-99574229D01*
X148434907Y-99578112D01*
X148440935Y-99580796D01*
X148440937Y-99580797D01*
X148500565Y-99607345D01*
X148538411Y-99633357D01*
X149775095Y-100870041D01*
X149809121Y-100932353D01*
X149812000Y-100959136D01*
X149812000Y-103964215D01*
X149811451Y-103975855D01*
X149809740Y-103983511D01*
X149809989Y-103991434D01*
X149811938Y-104053445D01*
X149812000Y-104057403D01*
X149812000Y-104086140D01*
X149812495Y-104090057D01*
X149812539Y-104090406D01*
X149813471Y-104102239D01*
X149814903Y-104147784D01*
X149817115Y-104155398D01*
X149817116Y-104155403D01*
X149820778Y-104168007D01*
X149824789Y-104187371D01*
X149827429Y-104208273D01*
X149830348Y-104215644D01*
X149830348Y-104215646D01*
X149844202Y-104250635D01*
X149848041Y-104261846D01*
X149860756Y-104305613D01*
X149865716Y-104314000D01*
X149871481Y-104323748D01*
X149880176Y-104341496D01*
X149887932Y-104361086D01*
X149914718Y-104397953D01*
X149921225Y-104407861D01*
X149940383Y-104440257D01*
X149940387Y-104440262D01*
X149944419Y-104447080D01*
X149959312Y-104461973D01*
X149972153Y-104477007D01*
X149984537Y-104494052D01*
X149990645Y-104499105D01*
X150019643Y-104523094D01*
X150028423Y-104531084D01*
X151319744Y-105822405D01*
X151353770Y-105884717D01*
X151348705Y-105955532D01*
X151306158Y-106012368D01*
X151239638Y-106037179D01*
X151230649Y-106037500D01*
X142381610Y-106037500D01*
X142313489Y-106017498D01*
X142266996Y-105963842D01*
X142256892Y-105893568D01*
X142286386Y-105828988D01*
X142292515Y-105822405D01*
X143958513Y-104156407D01*
X143961035Y-104153954D01*
X144019139Y-104099008D01*
X144019140Y-104099007D01*
X144023780Y-104094619D01*
X144058380Y-104045205D01*
X144063950Y-104037840D01*
X144098041Y-103996041D01*
X144098042Y-103996039D01*
X144102073Y-103991097D01*
X144105028Y-103985445D01*
X144105031Y-103985440D01*
X144115408Y-103965590D01*
X144123858Y-103951692D01*
X144136702Y-103933349D01*
X144140363Y-103928121D01*
X144142895Y-103922270D01*
X144142901Y-103922259D01*
X144164319Y-103872764D01*
X144168295Y-103864428D01*
X144193285Y-103816628D01*
X144193288Y-103816620D01*
X144196242Y-103810970D01*
X144204177Y-103783296D01*
X144209658Y-103767989D01*
X144217489Y-103749894D01*
X144221086Y-103741581D01*
X144222390Y-103735337D01*
X144222392Y-103735332D01*
X144229711Y-103700295D01*
X144233422Y-103682533D01*
X144235638Y-103673576D01*
X144252266Y-103615587D01*
X144254474Y-103586888D01*
X144256765Y-103570795D01*
X144262651Y-103542620D01*
X144263000Y-103535961D01*
X144263000Y-103480935D01*
X144263371Y-103471268D01*
X144267371Y-103419289D01*
X144267371Y-103419285D01*
X144267860Y-103412929D01*
X144263994Y-103382327D01*
X144263000Y-103366535D01*
X144263000Y-101704111D01*
X144283002Y-101635990D01*
X144299905Y-101615016D01*
X145508514Y-100406406D01*
X145511036Y-100403953D01*
X145569139Y-100349008D01*
X145569140Y-100349007D01*
X145573780Y-100344619D01*
X145608380Y-100295205D01*
X145613950Y-100287840D01*
X145648041Y-100246041D01*
X145648042Y-100246039D01*
X145652073Y-100241097D01*
X145655028Y-100235445D01*
X145655031Y-100235440D01*
X145665408Y-100215590D01*
X145673858Y-100201692D01*
X145686702Y-100183349D01*
X145690363Y-100178121D01*
X145692895Y-100172270D01*
X145692901Y-100172259D01*
X145714319Y-100122764D01*
X145718295Y-100114428D01*
X145743285Y-100066628D01*
X145743288Y-100066620D01*
X145746242Y-100060970D01*
X145754177Y-100033296D01*
X145759658Y-100017989D01*
X145768552Y-99997436D01*
X145771086Y-99991581D01*
X145772390Y-99985337D01*
X145772392Y-99985332D01*
X145783420Y-99932540D01*
X145785638Y-99923576D01*
X145802266Y-99865587D01*
X145804474Y-99836888D01*
X145806765Y-99820795D01*
X145812651Y-99792620D01*
X145813000Y-99785961D01*
X145813000Y-99730935D01*
X145813371Y-99721268D01*
X145817371Y-99669289D01*
X145817371Y-99669285D01*
X145817860Y-99662929D01*
X145813994Y-99632327D01*
X145813000Y-99616535D01*
X145813000Y-97354111D01*
X145833002Y-97285990D01*
X145849905Y-97265016D01*
X146358532Y-96756389D01*
X146361054Y-96753936D01*
X146419139Y-96699008D01*
X146419140Y-96699007D01*
X146423780Y-96694619D01*
X146452551Y-96653531D01*
X146458382Y-96645203D01*
X146463934Y-96637861D01*
X146502074Y-96591096D01*
X146515412Y-96565583D01*
X146523853Y-96551700D01*
X146540363Y-96528121D01*
X146564317Y-96472766D01*
X146568292Y-96464432D01*
X146576158Y-96449386D01*
X146596242Y-96410969D01*
X146597999Y-96404841D01*
X146598002Y-96404834D01*
X146604177Y-96383297D01*
X146609656Y-96367995D01*
X146621086Y-96341581D01*
X146633424Y-96282521D01*
X146635630Y-96273605D01*
X146652267Y-96215587D01*
X146654476Y-96186884D01*
X146656767Y-96170787D01*
X146661663Y-96147352D01*
X146661664Y-96147346D01*
X146662651Y-96142620D01*
X146663000Y-96135961D01*
X146663000Y-96080948D01*
X146663371Y-96071281D01*
X146667372Y-96019289D01*
X146667372Y-96019285D01*
X146667861Y-96012929D01*
X146663994Y-95982319D01*
X146663000Y-95966527D01*
X146663000Y-94053670D01*
X146663049Y-94050151D01*
X146665282Y-93970229D01*
X146665282Y-93970226D01*
X146665460Y-93963847D01*
X146664352Y-93957562D01*
X146664351Y-93957552D01*
X146654984Y-93904434D01*
X146653714Y-93895285D01*
X146648265Y-93841639D01*
X146647620Y-93835284D01*
X146639009Y-93807807D01*
X146635161Y-93792019D01*
X146631273Y-93769969D01*
X146630164Y-93763679D01*
X146607962Y-93707600D01*
X146604881Y-93698901D01*
X146588747Y-93647421D01*
X146586838Y-93641328D01*
X146572889Y-93616164D01*
X146565939Y-93601462D01*
X146557692Y-93580633D01*
X146557692Y-93580632D01*
X146555341Y-93574695D01*
X146551518Y-93568852D01*
X146522316Y-93524229D01*
X146517544Y-93516320D01*
X146491391Y-93469137D01*
X146491389Y-93469134D01*
X146488297Y-93463556D01*
X146469563Y-93441699D01*
X146459803Y-93428699D01*
X146446698Y-93408672D01*
X146446697Y-93408670D01*
X146444045Y-93404618D01*
X146439583Y-93399662D01*
X146400671Y-93360750D01*
X146394098Y-93353652D01*
X146390913Y-93349936D01*
X146356023Y-93309229D01*
X146337949Y-93295209D01*
X146331643Y-93290318D01*
X146319774Y-93279853D01*
X145541672Y-92501751D01*
X144762405Y-91722485D01*
X144728380Y-91660173D01*
X144725500Y-91633390D01*
X144725500Y-81902937D01*
X144741817Y-81845371D01*
X144740379Y-81844700D01*
X144743472Y-81838066D01*
X144747314Y-81831834D01*
X144780977Y-81730346D01*
X144800244Y-81672259D01*
X144800245Y-81672257D01*
X144802410Y-81665728D01*
X144813000Y-81562366D01*
X144813000Y-80512634D01*
X144804869Y-80434272D01*
X144802853Y-80414839D01*
X144802852Y-80414835D01*
X144802141Y-80407981D01*
X144787674Y-80364616D01*
X144749074Y-80248919D01*
X144746756Y-80241971D01*
X144742900Y-80235741D01*
X144739799Y-80229120D01*
X144741569Y-80228291D01*
X144725500Y-80171790D01*
X144725500Y-79364000D01*
X144745502Y-79295879D01*
X144799158Y-79249386D01*
X144851500Y-79238000D01*
X147495889Y-79238000D01*
X147564010Y-79258002D01*
G37*
G04 #@! TD.AperFunction*
G04 #@! TA.AperFunction,Conductor*
G36*
X166694477Y-96296612D02*
G01*
X166745534Y-96345944D01*
X166762000Y-96408220D01*
X166762000Y-103466780D01*
X166741998Y-103534901D01*
X166688342Y-103581394D01*
X166618068Y-103591498D01*
X166564700Y-103568852D01*
X166564365Y-103569419D01*
X166560122Y-103566910D01*
X166422898Y-103485756D01*
X166415286Y-103483545D01*
X166415285Y-103483544D01*
X166271254Y-103441699D01*
X166271255Y-103441699D01*
X166265069Y-103439902D01*
X166251916Y-103438867D01*
X166230653Y-103437193D01*
X166230640Y-103437192D01*
X166228194Y-103437000D01*
X166059319Y-103437000D01*
X165991198Y-103416998D01*
X165944705Y-103363342D01*
X165934601Y-103293068D01*
X165964095Y-103228488D01*
X165970224Y-103221905D01*
X166165198Y-103026931D01*
X166173815Y-103019090D01*
X166180440Y-103014885D01*
X166202424Y-102991475D01*
X166228349Y-102963867D01*
X166231104Y-102961025D01*
X166251411Y-102940718D01*
X166253840Y-102937587D01*
X166253845Y-102937581D01*
X166254058Y-102937306D01*
X166261755Y-102928293D01*
X166292948Y-102895076D01*
X166303096Y-102876617D01*
X166313950Y-102860093D01*
X166322004Y-102849710D01*
X166322005Y-102849709D01*
X166326862Y-102843447D01*
X166344953Y-102801642D01*
X166350175Y-102790983D01*
X166368309Y-102757997D01*
X166368310Y-102757993D01*
X166372127Y-102751051D01*
X166377366Y-102730647D01*
X166383770Y-102711943D01*
X166388986Y-102699890D01*
X166388989Y-102699881D01*
X166392135Y-102692610D01*
X166399261Y-102647616D01*
X166401669Y-102635990D01*
X166411029Y-102599537D01*
X166411029Y-102599536D01*
X166413000Y-102591860D01*
X166413000Y-102570793D01*
X166414551Y-102551082D01*
X166416606Y-102538107D01*
X166417846Y-102530278D01*
X166413559Y-102484926D01*
X166413000Y-102473069D01*
X166413000Y-101646316D01*
X166413549Y-101634676D01*
X166415260Y-101627020D01*
X166413062Y-101557085D01*
X166413000Y-101553128D01*
X166413000Y-101524392D01*
X166412461Y-101520124D01*
X166411528Y-101508281D01*
X166410346Y-101470672D01*
X166410097Y-101462747D01*
X166404222Y-101442525D01*
X166400211Y-101423159D01*
X166398565Y-101410123D01*
X166398564Y-101410118D01*
X166397571Y-101402259D01*
X166380797Y-101359891D01*
X166376958Y-101348678D01*
X166366455Y-101312528D01*
X166364244Y-101304918D01*
X166353519Y-101286783D01*
X166344820Y-101269026D01*
X166339986Y-101256815D01*
X166339985Y-101256813D01*
X166337068Y-101249446D01*
X166310288Y-101212586D01*
X166303772Y-101202666D01*
X166300176Y-101196585D01*
X166280581Y-101163452D01*
X166265688Y-101148559D01*
X166252847Y-101133525D01*
X166245123Y-101122894D01*
X166240463Y-101116480D01*
X166205356Y-101087437D01*
X166196577Y-101079448D01*
X165099905Y-99982776D01*
X165065879Y-99920464D01*
X165063000Y-99893681D01*
X165063000Y-96564000D01*
X165083002Y-96495879D01*
X165136658Y-96449386D01*
X165189000Y-96438000D01*
X166228194Y-96438000D01*
X166230640Y-96437808D01*
X166230653Y-96437807D01*
X166251916Y-96436133D01*
X166265069Y-96435098D01*
X166357583Y-96408220D01*
X166415285Y-96391456D01*
X166415286Y-96391455D01*
X166422898Y-96389244D01*
X166559904Y-96308219D01*
X166559907Y-96308218D01*
X166564365Y-96305581D01*
X166564790Y-96306300D01*
X166624854Y-96282714D01*
X166694477Y-96296612D01*
G37*
G04 #@! TD.AperFunction*
G04 #@! TA.AperFunction,Conductor*
G36*
X154015667Y-102221834D02*
G01*
X154047492Y-102285298D01*
X154043103Y-102347426D01*
X154024757Y-102402738D01*
X154022590Y-102409272D01*
X154012000Y-102512634D01*
X154012000Y-103386000D01*
X153991998Y-103454121D01*
X153938342Y-103500614D01*
X153886000Y-103512000D01*
X152814000Y-103512000D01*
X152745879Y-103491998D01*
X152699386Y-103438342D01*
X152688000Y-103386000D01*
X152688000Y-102320267D01*
X152708002Y-102252146D01*
X152761658Y-102205653D01*
X152831932Y-102195549D01*
X152853665Y-102200673D01*
X152892832Y-102213665D01*
X152927741Y-102225244D01*
X152927743Y-102225245D01*
X152934272Y-102227410D01*
X153037634Y-102238000D01*
X153662366Y-102238000D01*
X153665612Y-102237663D01*
X153665616Y-102237663D01*
X153760161Y-102227853D01*
X153760165Y-102227852D01*
X153767019Y-102227141D01*
X153773555Y-102224960D01*
X153773557Y-102224960D01*
X153815981Y-102210806D01*
X153883635Y-102188235D01*
X153954583Y-102185651D01*
X154015667Y-102221834D01*
G37*
G04 #@! TD.AperFunction*
G04 #@! TA.AperFunction,Conductor*
G36*
X135054121Y-94208002D02*
G01*
X135100614Y-94261658D01*
X135112000Y-94314000D01*
X135112000Y-95853194D01*
X135112192Y-95855640D01*
X135112193Y-95855653D01*
X135112860Y-95864124D01*
X135114902Y-95890069D01*
X135116699Y-95896254D01*
X135154255Y-96025520D01*
X135160756Y-96047898D01*
X135164791Y-96054720D01*
X135164791Y-96054721D01*
X135238148Y-96178762D01*
X135244419Y-96189365D01*
X135360635Y-96305581D01*
X135367456Y-96309615D01*
X135466157Y-96367986D01*
X135502102Y-96389244D01*
X135509714Y-96391455D01*
X135509715Y-96391456D01*
X135567417Y-96408220D01*
X135659931Y-96435098D01*
X135673084Y-96436133D01*
X135694347Y-96437807D01*
X135694360Y-96437808D01*
X135696806Y-96438000D01*
X137028194Y-96438000D01*
X137030640Y-96437808D01*
X137030653Y-96437807D01*
X137051916Y-96436133D01*
X137065069Y-96435098D01*
X137157583Y-96408220D01*
X137215285Y-96391456D01*
X137215286Y-96391455D01*
X137222898Y-96389244D01*
X137258844Y-96367986D01*
X137357544Y-96309615D01*
X137364365Y-96305581D01*
X137480581Y-96189365D01*
X137486852Y-96178762D01*
X137560209Y-96054721D01*
X137560209Y-96054720D01*
X137564244Y-96047898D01*
X137570746Y-96025520D01*
X137608301Y-95896254D01*
X137610098Y-95890069D01*
X137612140Y-95864124D01*
X137612807Y-95855653D01*
X137612808Y-95855640D01*
X137613000Y-95853194D01*
X137613000Y-95168386D01*
X137633002Y-95100265D01*
X137686658Y-95053772D01*
X137756932Y-95043668D01*
X137821512Y-95073162D01*
X137828095Y-95079291D01*
X138189002Y-95440198D01*
X138196843Y-95448815D01*
X138201048Y-95455440D01*
X138206827Y-95460867D01*
X138206828Y-95460868D01*
X138252066Y-95503349D01*
X138254908Y-95506104D01*
X138275215Y-95526411D01*
X138278346Y-95528840D01*
X138278352Y-95528845D01*
X138278627Y-95529058D01*
X138287636Y-95536752D01*
X138308030Y-95555903D01*
X138343996Y-95617111D01*
X138347105Y-95634748D01*
X138347859Y-95642019D01*
X138403244Y-95808029D01*
X138495334Y-95956845D01*
X138500516Y-95962018D01*
X138545173Y-96006597D01*
X138619189Y-96080484D01*
X138625419Y-96084324D01*
X138625420Y-96084325D01*
X138645693Y-96096821D01*
X138768166Y-96172314D01*
X138775114Y-96174619D01*
X138775115Y-96174619D01*
X138927741Y-96225244D01*
X138927743Y-96225245D01*
X138934272Y-96227410D01*
X139037634Y-96238000D01*
X139662366Y-96238000D01*
X139665612Y-96237663D01*
X139665616Y-96237663D01*
X139760161Y-96227853D01*
X139760165Y-96227852D01*
X139767019Y-96227141D01*
X139773555Y-96224960D01*
X139773557Y-96224960D01*
X139926081Y-96174074D01*
X139933029Y-96171756D01*
X140069698Y-96087183D01*
X140138149Y-96068345D01*
X140205919Y-96089506D01*
X140251490Y-96143947D01*
X140262000Y-96194327D01*
X140262000Y-97861000D01*
X140241998Y-97929121D01*
X140188342Y-97975614D01*
X140136000Y-97987000D01*
X139137634Y-97987000D01*
X139134388Y-97987337D01*
X139134384Y-97987337D01*
X139039839Y-97997147D01*
X139039835Y-97997148D01*
X139032981Y-97997859D01*
X139026445Y-98000040D01*
X139026443Y-98000040D01*
X138922509Y-98034715D01*
X138866971Y-98053244D01*
X138718155Y-98145334D01*
X138594516Y-98269189D01*
X138502686Y-98418166D01*
X138500381Y-98425114D01*
X138500381Y-98425115D01*
X138468350Y-98521685D01*
X138447590Y-98584272D01*
X138437000Y-98687634D01*
X138437000Y-98943406D01*
X138422662Y-99001780D01*
X138416258Y-99014030D01*
X138414498Y-99020169D01*
X138408323Y-99041703D01*
X138402844Y-99057006D01*
X138391414Y-99083419D01*
X138390110Y-99089663D01*
X138390108Y-99089668D01*
X138379080Y-99142460D01*
X138376864Y-99151417D01*
X138360234Y-99209413D01*
X138359745Y-99215773D01*
X138358026Y-99238110D01*
X138355735Y-99254205D01*
X138349849Y-99282380D01*
X138349500Y-99289039D01*
X138349500Y-99344065D01*
X138349129Y-99353732D01*
X138344640Y-99412071D01*
X138345440Y-99418403D01*
X138348506Y-99442673D01*
X138349500Y-99458465D01*
X138349500Y-99761000D01*
X138329498Y-99829121D01*
X138275842Y-99875614D01*
X138223500Y-99887000D01*
X137739000Y-99887000D01*
X137670879Y-99866998D01*
X137624386Y-99813342D01*
X137613000Y-99761000D01*
X137613000Y-98221806D01*
X137612808Y-98219360D01*
X137612807Y-98219347D01*
X137610603Y-98191350D01*
X137610098Y-98184931D01*
X137589195Y-98112982D01*
X137566456Y-98034715D01*
X137566455Y-98034714D01*
X137564244Y-98027102D01*
X137506299Y-97929121D01*
X137484615Y-97892456D01*
X137480581Y-97885635D01*
X137364365Y-97769419D01*
X137222898Y-97685756D01*
X137215286Y-97683545D01*
X137215285Y-97683544D01*
X137071254Y-97641699D01*
X137071255Y-97641699D01*
X137065069Y-97639902D01*
X137051916Y-97638867D01*
X137030653Y-97637193D01*
X137030640Y-97637192D01*
X137028194Y-97637000D01*
X135696806Y-97637000D01*
X135694360Y-97637192D01*
X135694347Y-97637193D01*
X135673084Y-97638867D01*
X135659931Y-97639902D01*
X135653745Y-97641699D01*
X135653746Y-97641699D01*
X135509715Y-97683544D01*
X135509714Y-97683545D01*
X135502102Y-97685756D01*
X135360635Y-97769419D01*
X135244419Y-97885635D01*
X135240385Y-97892456D01*
X135218702Y-97929121D01*
X135160756Y-98027102D01*
X135158545Y-98034714D01*
X135158544Y-98034715D01*
X135135805Y-98112982D01*
X135114902Y-98184931D01*
X135114397Y-98191350D01*
X135112193Y-98219347D01*
X135112192Y-98219360D01*
X135112000Y-98221806D01*
X135112000Y-99761000D01*
X135091998Y-99829121D01*
X135038342Y-99875614D01*
X134986000Y-99887000D01*
X134039000Y-99887000D01*
X133970879Y-99866998D01*
X133924386Y-99813342D01*
X133913000Y-99761000D01*
X133913000Y-98221806D01*
X133912808Y-98219360D01*
X133912807Y-98219347D01*
X133910603Y-98191350D01*
X133910098Y-98184931D01*
X133889195Y-98112982D01*
X133866456Y-98034715D01*
X133866455Y-98034714D01*
X133864244Y-98027102D01*
X133806299Y-97929121D01*
X133784615Y-97892456D01*
X133780581Y-97885635D01*
X133664365Y-97769419D01*
X133522898Y-97685756D01*
X133515286Y-97683545D01*
X133515285Y-97683544D01*
X133371254Y-97641699D01*
X133371255Y-97641699D01*
X133365069Y-97639902D01*
X133351916Y-97638867D01*
X133330653Y-97637193D01*
X133330640Y-97637192D01*
X133328194Y-97637000D01*
X132139000Y-97637000D01*
X132070879Y-97616998D01*
X132024386Y-97563342D01*
X132013000Y-97511000D01*
X132013000Y-96564000D01*
X132033002Y-96495879D01*
X132086658Y-96449386D01*
X132139000Y-96438000D01*
X133328194Y-96438000D01*
X133330640Y-96437808D01*
X133330653Y-96437807D01*
X133351916Y-96436133D01*
X133365069Y-96435098D01*
X133457583Y-96408220D01*
X133515285Y-96391456D01*
X133515286Y-96391455D01*
X133522898Y-96389244D01*
X133558844Y-96367986D01*
X133657544Y-96309615D01*
X133664365Y-96305581D01*
X133780581Y-96189365D01*
X133786852Y-96178762D01*
X133860209Y-96054721D01*
X133860209Y-96054720D01*
X133864244Y-96047898D01*
X133870746Y-96025520D01*
X133908301Y-95896254D01*
X133910098Y-95890069D01*
X133912140Y-95864124D01*
X133912807Y-95855653D01*
X133912808Y-95855640D01*
X133913000Y-95853194D01*
X133913000Y-94659136D01*
X133933002Y-94591015D01*
X133949905Y-94570041D01*
X134295041Y-94224905D01*
X134357353Y-94190879D01*
X134384136Y-94188000D01*
X134986000Y-94188000D01*
X135054121Y-94208002D01*
G37*
G04 #@! TD.AperFunction*
G04 #@! TA.AperFunction,Conductor*
G36*
X156897842Y-93720502D02*
G01*
X156944335Y-93774158D01*
X156954439Y-93844432D01*
X156950718Y-93861652D01*
X156914902Y-93984931D01*
X156914397Y-93991350D01*
X156912193Y-94019347D01*
X156912192Y-94019360D01*
X156912000Y-94021806D01*
X156912000Y-95853194D01*
X156912192Y-95855640D01*
X156912193Y-95855653D01*
X156912860Y-95864124D01*
X156914902Y-95890069D01*
X156916699Y-95896254D01*
X156954255Y-96025520D01*
X156960756Y-96047898D01*
X156964791Y-96054720D01*
X156964791Y-96054721D01*
X157038148Y-96178762D01*
X157044419Y-96189365D01*
X157160635Y-96305581D01*
X157167456Y-96309615D01*
X157266157Y-96367986D01*
X157302102Y-96389244D01*
X157309714Y-96391455D01*
X157309715Y-96391456D01*
X157367417Y-96408220D01*
X157459931Y-96435098D01*
X157473084Y-96436133D01*
X157494347Y-96437807D01*
X157494360Y-96437808D01*
X157496806Y-96438000D01*
X158828194Y-96438000D01*
X158830640Y-96437808D01*
X158830653Y-96437807D01*
X158851916Y-96436133D01*
X158865069Y-96435098D01*
X158912152Y-96421419D01*
X158983146Y-96421621D01*
X159042763Y-96460175D01*
X159072072Y-96524840D01*
X159061768Y-96595084D01*
X159051517Y-96613238D01*
X159028440Y-96647194D01*
X158961752Y-96813927D01*
X158960638Y-96820657D01*
X158960637Y-96820660D01*
X158934984Y-96975614D01*
X158932422Y-96991091D01*
X158932779Y-96997907D01*
X158932779Y-96997911D01*
X158936403Y-97067054D01*
X158941821Y-97170421D01*
X158989508Y-97343549D01*
X158992692Y-97349588D01*
X159058089Y-97473623D01*
X159072166Y-97543210D01*
X159046388Y-97609361D01*
X158988937Y-97651074D01*
X158911480Y-97653385D01*
X158871257Y-97641699D01*
X158871250Y-97641698D01*
X158865069Y-97639902D01*
X158851916Y-97638867D01*
X158830653Y-97637193D01*
X158830640Y-97637192D01*
X158828194Y-97637000D01*
X157496806Y-97637000D01*
X157494360Y-97637192D01*
X157494347Y-97637193D01*
X157473084Y-97638867D01*
X157459931Y-97639902D01*
X157453745Y-97641699D01*
X157453746Y-97641699D01*
X157309715Y-97683544D01*
X157309714Y-97683545D01*
X157302102Y-97685756D01*
X157160635Y-97769419D01*
X157044419Y-97885635D01*
X157040385Y-97892456D01*
X157018702Y-97929121D01*
X156960756Y-98027102D01*
X156958545Y-98034714D01*
X156958544Y-98034715D01*
X156935805Y-98112982D01*
X156914902Y-98184931D01*
X156914397Y-98191350D01*
X156912193Y-98219347D01*
X156912192Y-98219360D01*
X156912000Y-98221806D01*
X156912000Y-99550364D01*
X156891998Y-99618485D01*
X156838342Y-99664978D01*
X156768068Y-99675082D01*
X156703488Y-99645588D01*
X156696905Y-99639459D01*
X156224905Y-99167459D01*
X156190879Y-99105147D01*
X156188000Y-99078364D01*
X156188000Y-98537634D01*
X156185076Y-98509452D01*
X156177853Y-98439839D01*
X156177852Y-98439835D01*
X156177141Y-98432981D01*
X156172199Y-98418166D01*
X156124074Y-98273919D01*
X156121756Y-98266971D01*
X156029666Y-98118155D01*
X155905811Y-97994516D01*
X155894165Y-97987337D01*
X155865842Y-97969879D01*
X155756834Y-97902686D01*
X155705428Y-97885635D01*
X155597259Y-97849756D01*
X155597257Y-97849755D01*
X155590728Y-97847590D01*
X155487366Y-97837000D01*
X154862634Y-97837000D01*
X154859388Y-97837337D01*
X154859384Y-97837337D01*
X154764839Y-97847147D01*
X154764835Y-97847148D01*
X154757981Y-97847859D01*
X154751445Y-97850040D01*
X154751443Y-97850040D01*
X154710706Y-97863631D01*
X154591971Y-97903244D01*
X154455302Y-97987817D01*
X154386851Y-98006655D01*
X154319081Y-97985494D01*
X154273510Y-97931053D01*
X154263000Y-97880673D01*
X154263000Y-97804895D01*
X154269407Y-97765227D01*
X154300244Y-97672259D01*
X154300245Y-97672257D01*
X154302410Y-97665728D01*
X154313000Y-97562366D01*
X154313000Y-96512634D01*
X154311551Y-96498670D01*
X154302853Y-96414839D01*
X154302852Y-96414835D01*
X154302141Y-96407981D01*
X154279989Y-96341581D01*
X154269476Y-96310071D01*
X154263000Y-96270195D01*
X154263000Y-94214000D01*
X154283002Y-94145879D01*
X154336658Y-94099386D01*
X154389000Y-94088000D01*
X155387366Y-94088000D01*
X155390612Y-94087663D01*
X155390616Y-94087663D01*
X155485161Y-94077853D01*
X155485165Y-94077852D01*
X155492019Y-94077141D01*
X155498555Y-94074960D01*
X155498557Y-94074960D01*
X155651081Y-94024074D01*
X155658029Y-94021756D01*
X155806845Y-93929666D01*
X155930484Y-93805811D01*
X155958486Y-93760383D01*
X156011257Y-93712891D01*
X156065745Y-93700500D01*
X156829721Y-93700500D01*
X156897842Y-93720502D01*
G37*
G04 #@! TD.AperFunction*
G04 #@! TA.AperFunction,Conductor*
G36*
X127960300Y-90506148D02*
G01*
X127960635Y-90505581D01*
X128102102Y-90589244D01*
X128109714Y-90591455D01*
X128109715Y-90591456D01*
X128167417Y-90608220D01*
X128259931Y-90635098D01*
X128273084Y-90636133D01*
X128294347Y-90637807D01*
X128294360Y-90637808D01*
X128296806Y-90638000D01*
X128309342Y-90638000D01*
X128377463Y-90658002D01*
X128423956Y-90711658D01*
X128429172Y-90725057D01*
X128481250Y-90885335D01*
X128484553Y-90891057D01*
X128484554Y-90891058D01*
X128521725Y-90955440D01*
X128570641Y-91040165D01*
X128575059Y-91045072D01*
X128575060Y-91045073D01*
X128684966Y-91167135D01*
X128690270Y-91173026D01*
X128819291Y-91266766D01*
X128862643Y-91322988D01*
X128868718Y-91393724D01*
X128859423Y-91421951D01*
X128788597Y-91573837D01*
X128787175Y-91579145D01*
X128787174Y-91579147D01*
X128746661Y-91730346D01*
X128727437Y-91802092D01*
X128706841Y-92037500D01*
X128727437Y-92272908D01*
X128728861Y-92278222D01*
X128728861Y-92278223D01*
X128785629Y-92490085D01*
X128788597Y-92501163D01*
X128790919Y-92506143D01*
X128790920Y-92506145D01*
X128882242Y-92701983D01*
X128888465Y-92715329D01*
X129024005Y-92908901D01*
X129191099Y-93075995D01*
X129195607Y-93079152D01*
X129195610Y-93079154D01*
X129362412Y-93195950D01*
X129384670Y-93211535D01*
X129389652Y-93213858D01*
X129389657Y-93213861D01*
X129585792Y-93305320D01*
X129598837Y-93311403D01*
X129604145Y-93312825D01*
X129604147Y-93312826D01*
X129757536Y-93353926D01*
X129818159Y-93390878D01*
X129849180Y-93454738D01*
X129840752Y-93525233D01*
X129816775Y-93561886D01*
X129796651Y-93583316D01*
X129793896Y-93586158D01*
X129773589Y-93606465D01*
X129771160Y-93609596D01*
X129771155Y-93609602D01*
X129770942Y-93609877D01*
X129763245Y-93618890D01*
X129732052Y-93652107D01*
X129728233Y-93659054D01*
X129721904Y-93670566D01*
X129711050Y-93687090D01*
X129698138Y-93703736D01*
X129690883Y-93720502D01*
X129680046Y-93745545D01*
X129674830Y-93756193D01*
X129652873Y-93796132D01*
X129650902Y-93803811D01*
X129650901Y-93803812D01*
X129647633Y-93816541D01*
X129641227Y-93835250D01*
X129636012Y-93847300D01*
X129636010Y-93847305D01*
X129632865Y-93854574D01*
X129625739Y-93899565D01*
X129623331Y-93911190D01*
X129613972Y-93947640D01*
X129613971Y-93947645D01*
X129612000Y-93955323D01*
X129612000Y-93976384D01*
X129610449Y-93996096D01*
X129607153Y-94016905D01*
X129607899Y-94024796D01*
X129611441Y-94062265D01*
X129612000Y-94074123D01*
X129612000Y-96861000D01*
X129591998Y-96929121D01*
X129538342Y-96975614D01*
X129486000Y-96987000D01*
X129423609Y-96987000D01*
X129417156Y-96988372D01*
X129417152Y-96988372D01*
X129336171Y-97005586D01*
X129248733Y-97024171D01*
X129242703Y-97026856D01*
X129242702Y-97026856D01*
X129091438Y-97094203D01*
X129091436Y-97094204D01*
X129085408Y-97096888D01*
X128940770Y-97201974D01*
X128936357Y-97206876D01*
X128936355Y-97206877D01*
X128881850Y-97267411D01*
X128821141Y-97334835D01*
X128731750Y-97489665D01*
X128729709Y-97495947D01*
X128729708Y-97495949D01*
X128712167Y-97549936D01*
X128672094Y-97608542D01*
X128606697Y-97636179D01*
X128592334Y-97637000D01*
X128296806Y-97637000D01*
X128294360Y-97637192D01*
X128294347Y-97637193D01*
X128273084Y-97638867D01*
X128259931Y-97639902D01*
X128253745Y-97641699D01*
X128253746Y-97641699D01*
X128109715Y-97683544D01*
X128109714Y-97683545D01*
X128102102Y-97685756D01*
X127965096Y-97766781D01*
X127965093Y-97766782D01*
X127960635Y-97769419D01*
X127960210Y-97768700D01*
X127900146Y-97792286D01*
X127830523Y-97778388D01*
X127779466Y-97729056D01*
X127763000Y-97666780D01*
X127763000Y-90608220D01*
X127783002Y-90540099D01*
X127836658Y-90493606D01*
X127906932Y-90483502D01*
X127960300Y-90506148D01*
G37*
G04 #@! TD.AperFunction*
G04 #@! TA.AperFunction,Conductor*
G36*
X166694477Y-86296612D02*
G01*
X166745534Y-86345944D01*
X166762000Y-86408220D01*
X166762000Y-93466780D01*
X166741998Y-93534901D01*
X166688342Y-93581394D01*
X166618068Y-93591498D01*
X166564700Y-93568852D01*
X166564365Y-93569419D01*
X166560122Y-93566910D01*
X166422898Y-93485756D01*
X166415286Y-93483545D01*
X166415285Y-93483544D01*
X166310549Y-93453115D01*
X166265069Y-93439902D01*
X166251916Y-93438867D01*
X166230653Y-93437193D01*
X166230640Y-93437192D01*
X166228194Y-93437000D01*
X166215658Y-93437000D01*
X166147537Y-93416998D01*
X166101044Y-93363342D01*
X166095825Y-93349936D01*
X166094997Y-93347385D01*
X166043750Y-93189665D01*
X165978200Y-93076128D01*
X165957662Y-93040556D01*
X165954359Y-93034835D01*
X165940579Y-93019531D01*
X165839145Y-92906877D01*
X165839143Y-92906876D01*
X165834730Y-92901974D01*
X165705709Y-92808234D01*
X165662357Y-92752012D01*
X165656282Y-92681276D01*
X165665577Y-92653049D01*
X165734080Y-92506145D01*
X165734081Y-92506143D01*
X165736403Y-92501163D01*
X165739372Y-92490085D01*
X165796139Y-92278223D01*
X165796139Y-92278222D01*
X165797563Y-92272908D01*
X165818159Y-92037500D01*
X165797563Y-91802092D01*
X165778339Y-91730346D01*
X165737826Y-91579147D01*
X165737825Y-91579145D01*
X165736403Y-91573837D01*
X165665577Y-91421951D01*
X165638858Y-91364652D01*
X165638856Y-91364649D01*
X165636535Y-91359671D01*
X165500995Y-91166099D01*
X165333901Y-90999005D01*
X165329393Y-90995848D01*
X165329390Y-90995846D01*
X165144839Y-90866622D01*
X165144837Y-90866621D01*
X165140330Y-90863465D01*
X165135348Y-90861142D01*
X165135343Y-90861139D01*
X164931145Y-90765920D01*
X164931144Y-90765919D01*
X164926163Y-90763597D01*
X164920855Y-90762175D01*
X164920853Y-90762174D01*
X164767464Y-90721074D01*
X164706841Y-90684122D01*
X164675820Y-90620262D01*
X164684248Y-90549767D01*
X164708225Y-90513114D01*
X164728349Y-90491684D01*
X164731104Y-90488842D01*
X164751411Y-90468535D01*
X164753840Y-90465404D01*
X164753845Y-90465398D01*
X164754058Y-90465123D01*
X164761755Y-90456110D01*
X164792948Y-90422893D01*
X164803096Y-90404434D01*
X164813950Y-90387910D01*
X164822004Y-90377527D01*
X164822005Y-90377526D01*
X164826862Y-90371264D01*
X164844953Y-90329459D01*
X164850175Y-90318800D01*
X164868309Y-90285814D01*
X164868310Y-90285810D01*
X164872127Y-90278868D01*
X164874613Y-90269189D01*
X164877366Y-90258464D01*
X164883770Y-90239760D01*
X164888986Y-90227707D01*
X164888989Y-90227698D01*
X164892135Y-90220427D01*
X164899261Y-90175433D01*
X164901669Y-90163807D01*
X164911029Y-90127354D01*
X164911029Y-90127353D01*
X164913000Y-90119677D01*
X164913000Y-90098610D01*
X164914551Y-90078899D01*
X164916606Y-90065924D01*
X164917846Y-90058095D01*
X164913559Y-90012743D01*
X164913000Y-90000886D01*
X164913000Y-86564000D01*
X164933002Y-86495879D01*
X164986658Y-86449386D01*
X165039000Y-86438000D01*
X166228194Y-86438000D01*
X166230640Y-86437808D01*
X166230653Y-86437807D01*
X166251916Y-86436133D01*
X166265069Y-86435098D01*
X166357583Y-86408220D01*
X166415285Y-86391456D01*
X166415286Y-86391455D01*
X166422898Y-86389244D01*
X166559904Y-86308219D01*
X166559907Y-86308218D01*
X166564365Y-86305581D01*
X166564790Y-86306300D01*
X166624854Y-86282714D01*
X166694477Y-86296612D01*
G37*
G04 #@! TD.AperFunction*
G04 #@! TA.AperFunction,Conductor*
G36*
X135054121Y-84108002D02*
G01*
X135100614Y-84161658D01*
X135112000Y-84214000D01*
X135112000Y-85853194D01*
X135112192Y-85855640D01*
X135112193Y-85855653D01*
X135112860Y-85864124D01*
X135114902Y-85890069D01*
X135160756Y-86047898D01*
X135244419Y-86189365D01*
X135360635Y-86305581D01*
X135502102Y-86389244D01*
X135509714Y-86391455D01*
X135509715Y-86391456D01*
X135567417Y-86408220D01*
X135659931Y-86435098D01*
X135673084Y-86436133D01*
X135694347Y-86437807D01*
X135694360Y-86437808D01*
X135696806Y-86438000D01*
X137028194Y-86438000D01*
X137030640Y-86437808D01*
X137030653Y-86437807D01*
X137051916Y-86436133D01*
X137065069Y-86435098D01*
X137157583Y-86408220D01*
X137215285Y-86391456D01*
X137215286Y-86391455D01*
X137222898Y-86389244D01*
X137364365Y-86305581D01*
X137480581Y-86189365D01*
X137564244Y-86047898D01*
X137610098Y-85890069D01*
X137612140Y-85864124D01*
X137612807Y-85855653D01*
X137612808Y-85855640D01*
X137613000Y-85853194D01*
X137613000Y-85184319D01*
X137633002Y-85116198D01*
X137686658Y-85069705D01*
X137756932Y-85059601D01*
X137821512Y-85089095D01*
X137828095Y-85095224D01*
X138173069Y-85440198D01*
X138180910Y-85448815D01*
X138185115Y-85455440D01*
X138190894Y-85460867D01*
X138190895Y-85460868D01*
X138236133Y-85503349D01*
X138238975Y-85506104D01*
X138259283Y-85526412D01*
X138262420Y-85528845D01*
X138262689Y-85529054D01*
X138271719Y-85536766D01*
X138304923Y-85567947D01*
X138303901Y-85569035D01*
X138341890Y-85618302D01*
X138347248Y-85636129D01*
X138347859Y-85642019D01*
X138403244Y-85808029D01*
X138495334Y-85956845D01*
X138619189Y-86080484D01*
X138625419Y-86084324D01*
X138625420Y-86084325D01*
X138659158Y-86105121D01*
X138768166Y-86172314D01*
X138775114Y-86174619D01*
X138775115Y-86174619D01*
X138927741Y-86225244D01*
X138927743Y-86225245D01*
X138934272Y-86227410D01*
X139037634Y-86238000D01*
X139662366Y-86238000D01*
X139665612Y-86237663D01*
X139665616Y-86237663D01*
X139760161Y-86227853D01*
X139760165Y-86227852D01*
X139767019Y-86227141D01*
X139773555Y-86224960D01*
X139773557Y-86224960D01*
X139926081Y-86174074D01*
X139933029Y-86171756D01*
X140069698Y-86087183D01*
X140138149Y-86068345D01*
X140205919Y-86089506D01*
X140251490Y-86143947D01*
X140262000Y-86194327D01*
X140262000Y-89861000D01*
X140241998Y-89929121D01*
X140188342Y-89975614D01*
X140136000Y-89987000D01*
X139137634Y-89987000D01*
X139134388Y-89987337D01*
X139134384Y-89987337D01*
X139039839Y-89997147D01*
X139039835Y-89997148D01*
X139032981Y-89997859D01*
X139026445Y-90000040D01*
X139026443Y-90000040D01*
X138914264Y-90037466D01*
X138866971Y-90053244D01*
X138718155Y-90145334D01*
X138594516Y-90269189D01*
X138590676Y-90275419D01*
X138590675Y-90275420D01*
X138535694Y-90364616D01*
X138482922Y-90412109D01*
X138428434Y-90424500D01*
X137678556Y-90424500D01*
X137610435Y-90404498D01*
X137563942Y-90350842D01*
X137553838Y-90280568D01*
X137562008Y-90251678D01*
X137564244Y-90247898D01*
X137566609Y-90239760D01*
X137608301Y-90096254D01*
X137610098Y-90090069D01*
X137611998Y-90065924D01*
X137612807Y-90055653D01*
X137612808Y-90055640D01*
X137613000Y-90053194D01*
X137613000Y-88221806D01*
X137612808Y-88219360D01*
X137612807Y-88219347D01*
X137610603Y-88191350D01*
X137610098Y-88184931D01*
X137564244Y-88027102D01*
X137480581Y-87885635D01*
X137364365Y-87769419D01*
X137222898Y-87685756D01*
X137215286Y-87683545D01*
X137215285Y-87683544D01*
X137071254Y-87641699D01*
X137071255Y-87641699D01*
X137065069Y-87639902D01*
X137051916Y-87638867D01*
X137030653Y-87637193D01*
X137030640Y-87637192D01*
X137028194Y-87637000D01*
X135696806Y-87637000D01*
X135694360Y-87637192D01*
X135694347Y-87637193D01*
X135673084Y-87638867D01*
X135659931Y-87639902D01*
X135653745Y-87641699D01*
X135653746Y-87641699D01*
X135509715Y-87683544D01*
X135509714Y-87683545D01*
X135502102Y-87685756D01*
X135360635Y-87769419D01*
X135244419Y-87885635D01*
X135160756Y-88027102D01*
X135114902Y-88184931D01*
X135114397Y-88191350D01*
X135112193Y-88219347D01*
X135112192Y-88219360D01*
X135112000Y-88221806D01*
X135112000Y-89960500D01*
X135091998Y-90028621D01*
X135038342Y-90075114D01*
X134986000Y-90086500D01*
X134039000Y-90086500D01*
X133970879Y-90066498D01*
X133924386Y-90012842D01*
X133913000Y-89960500D01*
X133913000Y-88221806D01*
X133912808Y-88219360D01*
X133912807Y-88219347D01*
X133910603Y-88191350D01*
X133910098Y-88184931D01*
X133864244Y-88027102D01*
X133780581Y-87885635D01*
X133664365Y-87769419D01*
X133522898Y-87685756D01*
X133515286Y-87683545D01*
X133515285Y-87683544D01*
X133371254Y-87641699D01*
X133371255Y-87641699D01*
X133365069Y-87639902D01*
X133351916Y-87638867D01*
X133330653Y-87637193D01*
X133330640Y-87637192D01*
X133328194Y-87637000D01*
X132039000Y-87637000D01*
X131970879Y-87616998D01*
X131924386Y-87563342D01*
X131913000Y-87511000D01*
X131913000Y-86659136D01*
X131933002Y-86591015D01*
X131949905Y-86570041D01*
X132045041Y-86474905D01*
X132107353Y-86440879D01*
X132134136Y-86438000D01*
X133328194Y-86438000D01*
X133330640Y-86437808D01*
X133330653Y-86437807D01*
X133351916Y-86436133D01*
X133365069Y-86435098D01*
X133457583Y-86408220D01*
X133515285Y-86391456D01*
X133515286Y-86391455D01*
X133522898Y-86389244D01*
X133664365Y-86305581D01*
X133780581Y-86189365D01*
X133864244Y-86047898D01*
X133910098Y-85890069D01*
X133912140Y-85864124D01*
X133912807Y-85855653D01*
X133912808Y-85855640D01*
X133913000Y-85853194D01*
X133913000Y-84659136D01*
X133933002Y-84591015D01*
X133949905Y-84570041D01*
X134395041Y-84124905D01*
X134457353Y-84090879D01*
X134484136Y-84088000D01*
X134986000Y-84088000D01*
X135054121Y-84108002D01*
G37*
G04 #@! TD.AperFunction*
G04 #@! TA.AperFunction,Conductor*
G36*
X156897842Y-83720502D02*
G01*
X156944335Y-83774158D01*
X156954439Y-83844432D01*
X156950718Y-83861652D01*
X156914902Y-83984931D01*
X156914397Y-83991350D01*
X156912193Y-84019347D01*
X156912192Y-84019360D01*
X156912000Y-84021806D01*
X156912000Y-85853194D01*
X156912192Y-85855640D01*
X156912193Y-85855653D01*
X156912860Y-85864124D01*
X156914902Y-85890069D01*
X156960756Y-86047898D01*
X157044419Y-86189365D01*
X157160635Y-86305581D01*
X157302102Y-86389244D01*
X157309714Y-86391455D01*
X157309715Y-86391456D01*
X157367417Y-86408220D01*
X157459931Y-86435098D01*
X157473084Y-86436133D01*
X157494347Y-86437807D01*
X157494360Y-86437808D01*
X157496806Y-86438000D01*
X158828194Y-86438000D01*
X158830640Y-86437808D01*
X158830653Y-86437807D01*
X158851916Y-86436133D01*
X158865069Y-86435098D01*
X158957583Y-86408220D01*
X159015285Y-86391456D01*
X159015286Y-86391455D01*
X159022898Y-86389244D01*
X159164365Y-86305581D01*
X159280581Y-86189365D01*
X159364244Y-86047898D01*
X159410098Y-85890069D01*
X159412140Y-85864124D01*
X159412807Y-85855653D01*
X159412808Y-85855640D01*
X159413000Y-85853194D01*
X159413000Y-84314000D01*
X159433002Y-84245879D01*
X159486658Y-84199386D01*
X159539000Y-84188000D01*
X160172081Y-84188000D01*
X160240202Y-84208002D01*
X160246142Y-84212064D01*
X160330738Y-84273527D01*
X160336766Y-84276211D01*
X160336768Y-84276212D01*
X160421642Y-84314000D01*
X160494064Y-84346244D01*
X160505542Y-84348684D01*
X160512195Y-84350098D01*
X160574669Y-84383825D01*
X160608991Y-84445974D01*
X160612000Y-84473345D01*
X160612000Y-85853194D01*
X160612192Y-85855640D01*
X160612193Y-85855653D01*
X160612860Y-85864124D01*
X160614902Y-85890069D01*
X160660756Y-86047898D01*
X160744419Y-86189365D01*
X160860635Y-86305581D01*
X161002102Y-86389244D01*
X161009714Y-86391455D01*
X161009715Y-86391456D01*
X161067417Y-86408220D01*
X161159931Y-86435098D01*
X161173084Y-86436133D01*
X161194347Y-86437807D01*
X161194360Y-86437808D01*
X161196806Y-86438000D01*
X162486000Y-86438000D01*
X162554121Y-86458002D01*
X162600614Y-86511658D01*
X162612000Y-86564000D01*
X162612000Y-87511000D01*
X162591998Y-87579121D01*
X162538342Y-87625614D01*
X162486000Y-87637000D01*
X161196806Y-87637000D01*
X161194360Y-87637192D01*
X161194347Y-87637193D01*
X161173084Y-87638867D01*
X161159931Y-87639902D01*
X161153745Y-87641699D01*
X161153746Y-87641699D01*
X161009715Y-87683544D01*
X161009714Y-87683545D01*
X161002102Y-87685756D01*
X160860635Y-87769419D01*
X160744419Y-87885635D01*
X160660756Y-88027102D01*
X160614902Y-88184931D01*
X160614397Y-88191350D01*
X160612193Y-88219347D01*
X160612192Y-88219360D01*
X160612000Y-88221806D01*
X160612000Y-89715864D01*
X160591998Y-89783985D01*
X160575095Y-89804959D01*
X160529959Y-89850095D01*
X160467647Y-89884121D01*
X160440864Y-89887000D01*
X159539000Y-89887000D01*
X159470879Y-89866998D01*
X159424386Y-89813342D01*
X159413000Y-89761000D01*
X159413000Y-88221806D01*
X159412808Y-88219360D01*
X159412807Y-88219347D01*
X159410603Y-88191350D01*
X159410098Y-88184931D01*
X159364244Y-88027102D01*
X159280581Y-87885635D01*
X159164365Y-87769419D01*
X159022898Y-87685756D01*
X159015286Y-87683545D01*
X159015285Y-87683544D01*
X158871254Y-87641699D01*
X158871255Y-87641699D01*
X158865069Y-87639902D01*
X158851916Y-87638867D01*
X158830653Y-87637193D01*
X158830640Y-87637192D01*
X158828194Y-87637000D01*
X157496806Y-87637000D01*
X157494360Y-87637192D01*
X157494347Y-87637193D01*
X157473084Y-87638867D01*
X157459931Y-87639902D01*
X157453745Y-87641699D01*
X157453746Y-87641699D01*
X157309715Y-87683544D01*
X157309714Y-87683545D01*
X157302102Y-87685756D01*
X157160635Y-87769419D01*
X157044419Y-87885635D01*
X156960756Y-88027102D01*
X156914902Y-88184931D01*
X156914397Y-88191350D01*
X156912193Y-88219347D01*
X156912192Y-88219360D01*
X156912000Y-88221806D01*
X156912000Y-89462864D01*
X156891998Y-89530985D01*
X156838342Y-89577478D01*
X156768068Y-89587582D01*
X156703488Y-89558088D01*
X156696905Y-89551959D01*
X156224905Y-89079959D01*
X156190879Y-89017647D01*
X156188000Y-88990864D01*
X156188000Y-88537634D01*
X156177141Y-88432981D01*
X156121756Y-88266971D01*
X156029666Y-88118155D01*
X155905811Y-87994516D01*
X155891175Y-87985494D01*
X155802854Y-87931053D01*
X155756834Y-87902686D01*
X155705428Y-87885635D01*
X155597259Y-87849756D01*
X155597257Y-87849755D01*
X155590728Y-87847590D01*
X155487366Y-87837000D01*
X154862634Y-87837000D01*
X154859388Y-87837337D01*
X154859384Y-87837337D01*
X154764839Y-87847147D01*
X154764835Y-87847148D01*
X154757981Y-87847859D01*
X154751445Y-87850040D01*
X154751443Y-87850040D01*
X154661555Y-87880029D01*
X154591971Y-87903244D01*
X154455302Y-87987817D01*
X154386851Y-88006655D01*
X154319081Y-87985494D01*
X154273510Y-87931053D01*
X154263000Y-87880673D01*
X154263000Y-84214000D01*
X154283002Y-84145879D01*
X154336658Y-84099386D01*
X154389000Y-84088000D01*
X155387366Y-84088000D01*
X155390612Y-84087663D01*
X155390616Y-84087663D01*
X155485161Y-84077853D01*
X155485165Y-84077852D01*
X155492019Y-84077141D01*
X155498555Y-84074960D01*
X155498557Y-84074960D01*
X155651081Y-84024074D01*
X155658029Y-84021756D01*
X155806845Y-83929666D01*
X155930484Y-83805811D01*
X155958486Y-83760383D01*
X156011257Y-83712891D01*
X156065745Y-83700500D01*
X156829721Y-83700500D01*
X156897842Y-83720502D01*
G37*
G04 #@! TD.AperFunction*
G04 #@! TA.AperFunction,Conductor*
G36*
X127960300Y-80506148D02*
G01*
X127960635Y-80505581D01*
X128102102Y-80589244D01*
X128109714Y-80591455D01*
X128109715Y-80591456D01*
X128134360Y-80598616D01*
X128259931Y-80635098D01*
X128273084Y-80636133D01*
X128294347Y-80637807D01*
X128294360Y-80637808D01*
X128296806Y-80638000D01*
X129307048Y-80638000D01*
X129375169Y-80658002D01*
X129421662Y-80711658D01*
X129431766Y-80781932D01*
X129402272Y-80846512D01*
X129379318Y-80867213D01*
X129191099Y-80999005D01*
X129024005Y-81166099D01*
X128888465Y-81359671D01*
X128886144Y-81364649D01*
X128886142Y-81364652D01*
X128790920Y-81568855D01*
X128788597Y-81573837D01*
X128787175Y-81579145D01*
X128787174Y-81579147D01*
X128746661Y-81730346D01*
X128727437Y-81802092D01*
X128706841Y-82037500D01*
X128727437Y-82272908D01*
X128728861Y-82278222D01*
X128728861Y-82278223D01*
X128769334Y-82429270D01*
X128788597Y-82501163D01*
X128790919Y-82506143D01*
X128790920Y-82506145D01*
X128873757Y-82683787D01*
X128888465Y-82715329D01*
X129024005Y-82908901D01*
X129191099Y-83075995D01*
X129195607Y-83079152D01*
X129195610Y-83079154D01*
X129380161Y-83208378D01*
X129384670Y-83211535D01*
X129389652Y-83213858D01*
X129389657Y-83213861D01*
X129485013Y-83258326D01*
X129560836Y-83293683D01*
X129614120Y-83340599D01*
X129633581Y-83408877D01*
X129632034Y-83427587D01*
X129630084Y-83439902D01*
X129625739Y-83467332D01*
X129623331Y-83478957D01*
X129613972Y-83515407D01*
X129613971Y-83515412D01*
X129612000Y-83523090D01*
X129612000Y-83544151D01*
X129610449Y-83563863D01*
X129607153Y-83584672D01*
X129607899Y-83592563D01*
X129611441Y-83630032D01*
X129612000Y-83641890D01*
X129612000Y-87511000D01*
X129591998Y-87579121D01*
X129538342Y-87625614D01*
X129486000Y-87637000D01*
X128296806Y-87637000D01*
X128294360Y-87637192D01*
X128294347Y-87637193D01*
X128273084Y-87638867D01*
X128259931Y-87639902D01*
X128253745Y-87641699D01*
X128253746Y-87641699D01*
X128109715Y-87683544D01*
X128109714Y-87683545D01*
X128102102Y-87685756D01*
X127965096Y-87766781D01*
X127965093Y-87766782D01*
X127960635Y-87769419D01*
X127960210Y-87768700D01*
X127900146Y-87792286D01*
X127830523Y-87778388D01*
X127779466Y-87729056D01*
X127763000Y-87666780D01*
X127763000Y-80608220D01*
X127783002Y-80540099D01*
X127836658Y-80493606D01*
X127906932Y-80483502D01*
X127960300Y-80506148D01*
G37*
G04 #@! TD.AperFunction*
G04 #@! TA.AperFunction,Conductor*
G36*
X164121512Y-74487624D02*
G01*
X164128095Y-74493753D01*
X164275095Y-74640753D01*
X164309121Y-74703065D01*
X164312000Y-74729848D01*
X164312000Y-75853194D01*
X164312192Y-75855634D01*
X164312193Y-75855653D01*
X164312836Y-75863819D01*
X164314902Y-75890069D01*
X164316699Y-75896254D01*
X164357388Y-76036304D01*
X164360756Y-76047898D01*
X164444419Y-76189365D01*
X164560635Y-76305581D01*
X164702102Y-76389244D01*
X164709714Y-76391455D01*
X164709715Y-76391456D01*
X164767417Y-76408220D01*
X164859931Y-76435098D01*
X164873084Y-76436133D01*
X164894347Y-76437807D01*
X164894360Y-76437808D01*
X164896806Y-76438000D01*
X166228194Y-76438000D01*
X166230640Y-76437808D01*
X166230653Y-76437807D01*
X166251916Y-76436133D01*
X166265069Y-76435098D01*
X166357583Y-76408220D01*
X166415285Y-76391456D01*
X166415286Y-76391455D01*
X166422898Y-76389244D01*
X166559904Y-76308219D01*
X166559907Y-76308218D01*
X166564365Y-76305581D01*
X166564790Y-76306300D01*
X166624854Y-76282714D01*
X166694477Y-76296612D01*
X166745534Y-76345944D01*
X166762000Y-76408220D01*
X166762000Y-83466780D01*
X166741998Y-83534901D01*
X166688342Y-83581394D01*
X166618068Y-83591498D01*
X166564700Y-83568852D01*
X166564365Y-83569419D01*
X166560122Y-83566910D01*
X166422898Y-83485756D01*
X166415286Y-83483545D01*
X166415285Y-83483544D01*
X166271254Y-83441699D01*
X166271255Y-83441699D01*
X166265069Y-83439902D01*
X166251916Y-83438867D01*
X166230653Y-83437193D01*
X166230640Y-83437192D01*
X166228194Y-83437000D01*
X165753104Y-83437000D01*
X165684983Y-83416998D01*
X165638490Y-83363342D01*
X165629857Y-83337197D01*
X165629665Y-83336293D01*
X165628974Y-83329720D01*
X165623023Y-83311403D01*
X165575769Y-83165973D01*
X165573727Y-83159688D01*
X165501634Y-83034820D01*
X165484897Y-82965827D01*
X165507540Y-82899554D01*
X165636535Y-82715329D01*
X165651244Y-82683787D01*
X165734080Y-82506145D01*
X165734081Y-82506143D01*
X165736403Y-82501163D01*
X165755667Y-82429270D01*
X165796139Y-82278223D01*
X165796139Y-82278222D01*
X165797563Y-82272908D01*
X165818159Y-82037500D01*
X165797563Y-81802092D01*
X165778339Y-81730346D01*
X165737826Y-81579147D01*
X165737825Y-81579145D01*
X165736403Y-81573837D01*
X165734080Y-81568855D01*
X165638858Y-81364652D01*
X165638856Y-81364649D01*
X165636535Y-81359671D01*
X165500995Y-81166099D01*
X165333901Y-80999005D01*
X165329393Y-80995848D01*
X165329390Y-80995846D01*
X165144839Y-80866622D01*
X165144837Y-80866621D01*
X165140330Y-80863465D01*
X165135348Y-80861142D01*
X165135343Y-80861139D01*
X164931145Y-80765920D01*
X164931144Y-80765919D01*
X164926163Y-80763597D01*
X164920855Y-80762175D01*
X164920853Y-80762174D01*
X164703223Y-80703861D01*
X164703222Y-80703861D01*
X164697908Y-80702437D01*
X164462500Y-80681841D01*
X164227092Y-80702437D01*
X164071255Y-80744193D01*
X164000280Y-80742503D01*
X163941484Y-80702709D01*
X163913536Y-80637445D01*
X163913596Y-80619677D01*
X163913000Y-80619677D01*
X163913000Y-80598616D01*
X163914551Y-80578905D01*
X163916607Y-80565924D01*
X163917847Y-80558095D01*
X163913559Y-80512735D01*
X163913000Y-80500877D01*
X163913000Y-74582848D01*
X163933002Y-74514727D01*
X163986658Y-74468234D01*
X164056932Y-74458130D01*
X164121512Y-74487624D01*
G37*
G04 #@! TD.AperFunction*
G04 #@! TA.AperFunction,Conductor*
G36*
X135054121Y-74208002D02*
G01*
X135100614Y-74261658D01*
X135112000Y-74314000D01*
X135112000Y-75853194D01*
X135112192Y-75855634D01*
X135112193Y-75855653D01*
X135112836Y-75863819D01*
X135114902Y-75890069D01*
X135116699Y-75896254D01*
X135157388Y-76036304D01*
X135160756Y-76047898D01*
X135244419Y-76189365D01*
X135360635Y-76305581D01*
X135502102Y-76389244D01*
X135509714Y-76391455D01*
X135509715Y-76391456D01*
X135567417Y-76408220D01*
X135659931Y-76435098D01*
X135673084Y-76436133D01*
X135694347Y-76437807D01*
X135694360Y-76437808D01*
X135696806Y-76438000D01*
X137028194Y-76438000D01*
X137030640Y-76437808D01*
X137030653Y-76437807D01*
X137051916Y-76436133D01*
X137065069Y-76435098D01*
X137157583Y-76408220D01*
X137215285Y-76391456D01*
X137215286Y-76391455D01*
X137222898Y-76389244D01*
X137364365Y-76305581D01*
X137480581Y-76189365D01*
X137564244Y-76047898D01*
X137567613Y-76036304D01*
X137608301Y-75896254D01*
X137610098Y-75890069D01*
X137612164Y-75863819D01*
X137612807Y-75855653D01*
X137612808Y-75855634D01*
X137613000Y-75853194D01*
X137613000Y-75212136D01*
X137633002Y-75144015D01*
X137686658Y-75097522D01*
X137756932Y-75087418D01*
X137821512Y-75116912D01*
X137828095Y-75123041D01*
X138300095Y-75595041D01*
X138334121Y-75657353D01*
X138337000Y-75684136D01*
X138337000Y-76337366D01*
X138337337Y-76340612D01*
X138337337Y-76340616D01*
X138347141Y-76435098D01*
X138347859Y-76442019D01*
X138403244Y-76608029D01*
X138495334Y-76756845D01*
X138619189Y-76880484D01*
X138625419Y-76884324D01*
X138625420Y-76884325D01*
X138647609Y-76898002D01*
X138768166Y-76972314D01*
X138775114Y-76974619D01*
X138775115Y-76974619D01*
X138927741Y-77025244D01*
X138927743Y-77025245D01*
X138934272Y-77027410D01*
X139037634Y-77038000D01*
X139662366Y-77038000D01*
X139665612Y-77037663D01*
X139665616Y-77037663D01*
X139760161Y-77027853D01*
X139760165Y-77027852D01*
X139767019Y-77027141D01*
X139773555Y-77024960D01*
X139773557Y-77024960D01*
X139926081Y-76974074D01*
X139933029Y-76971756D01*
X140069698Y-76887183D01*
X140138149Y-76868345D01*
X140205919Y-76889506D01*
X140251490Y-76943947D01*
X140262000Y-76994327D01*
X140262000Y-79861000D01*
X140241998Y-79929121D01*
X140188342Y-79975614D01*
X140136000Y-79987000D01*
X139137634Y-79987000D01*
X139134388Y-79987337D01*
X139134384Y-79987337D01*
X139039839Y-79997147D01*
X139039835Y-79997148D01*
X139032981Y-79997859D01*
X139026445Y-80000040D01*
X139026443Y-80000040D01*
X138993592Y-80011000D01*
X138866971Y-80053244D01*
X138718155Y-80145334D01*
X138594516Y-80269189D01*
X138590676Y-80275419D01*
X138590675Y-80275420D01*
X138535694Y-80364616D01*
X138482922Y-80412109D01*
X138428434Y-80424500D01*
X137678556Y-80424500D01*
X137610435Y-80404498D01*
X137563942Y-80350842D01*
X137553838Y-80280568D01*
X137562008Y-80251678D01*
X137564244Y-80247898D01*
X137569941Y-80228291D01*
X137608301Y-80096254D01*
X137610098Y-80090069D01*
X137611133Y-80076916D01*
X137612807Y-80055653D01*
X137612808Y-80055640D01*
X137613000Y-80053194D01*
X137613000Y-78221806D01*
X137612808Y-78219360D01*
X137612807Y-78219347D01*
X137610603Y-78191350D01*
X137610098Y-78184931D01*
X137564244Y-78027102D01*
X137480581Y-77885635D01*
X137364365Y-77769419D01*
X137222898Y-77685756D01*
X137215286Y-77683545D01*
X137215285Y-77683544D01*
X137071254Y-77641699D01*
X137071255Y-77641699D01*
X137065069Y-77639902D01*
X137051916Y-77638867D01*
X137030653Y-77637193D01*
X137030640Y-77637192D01*
X137028194Y-77637000D01*
X135696806Y-77637000D01*
X135694360Y-77637192D01*
X135694347Y-77637193D01*
X135673084Y-77638867D01*
X135659931Y-77639902D01*
X135653745Y-77641699D01*
X135653746Y-77641699D01*
X135509715Y-77683544D01*
X135509714Y-77683545D01*
X135502102Y-77685756D01*
X135360635Y-77769419D01*
X135244419Y-77885635D01*
X135160756Y-78027102D01*
X135114902Y-78184931D01*
X135114397Y-78191350D01*
X135112193Y-78219347D01*
X135112192Y-78219360D01*
X135112000Y-78221806D01*
X135112000Y-80011000D01*
X135091998Y-80079121D01*
X135038342Y-80125614D01*
X134986000Y-80137000D01*
X134039000Y-80137000D01*
X133970879Y-80116998D01*
X133924386Y-80063342D01*
X133913000Y-80011000D01*
X133913000Y-78221806D01*
X133912808Y-78219360D01*
X133912807Y-78219347D01*
X133910603Y-78191350D01*
X133910098Y-78184931D01*
X133864244Y-78027102D01*
X133860207Y-78020275D01*
X133854197Y-78010112D01*
X133836738Y-77941295D01*
X133859256Y-77873964D01*
X133914601Y-77829496D01*
X133985201Y-77822008D01*
X133994203Y-77824345D01*
X133994577Y-77824520D01*
X134097787Y-77847590D01*
X134164790Y-77862567D01*
X134164791Y-77862567D01*
X134169828Y-77863693D01*
X134175319Y-77864000D01*
X134307366Y-77864000D01*
X134441025Y-77849480D01*
X134523619Y-77821684D01*
X134604757Y-77794379D01*
X134604759Y-77794378D01*
X134611222Y-77792203D01*
X134765148Y-77699714D01*
X134770110Y-77695022D01*
X134890665Y-77581019D01*
X134890667Y-77581017D01*
X134895623Y-77576330D01*
X134996560Y-77427806D01*
X135063248Y-77261073D01*
X135067234Y-77237000D01*
X135091463Y-77090646D01*
X135091463Y-77090643D01*
X135092578Y-77083909D01*
X135090600Y-77046158D01*
X135083536Y-76911392D01*
X135083179Y-76904579D01*
X135035492Y-76731451D01*
X134951740Y-76572602D01*
X134835832Y-76435442D01*
X134817755Y-76421621D01*
X134698595Y-76330516D01*
X134698591Y-76330513D01*
X134693174Y-76326372D01*
X134686994Y-76323490D01*
X134686992Y-76323489D01*
X134536600Y-76253360D01*
X134536597Y-76253359D01*
X134530423Y-76250480D01*
X134523775Y-76248994D01*
X134523772Y-76248993D01*
X134360210Y-76212433D01*
X134360209Y-76212433D01*
X134355172Y-76211307D01*
X134349681Y-76211000D01*
X134217634Y-76211000D01*
X134083975Y-76225520D01*
X134041282Y-76239888D01*
X133999605Y-76253913D01*
X133928663Y-76256683D01*
X133867484Y-76220659D01*
X133835494Y-76157278D01*
X133842848Y-76086663D01*
X133850963Y-76070355D01*
X133860209Y-76054721D01*
X133860209Y-76054720D01*
X133864244Y-76047898D01*
X133867613Y-76036304D01*
X133908301Y-75896254D01*
X133910098Y-75890069D01*
X133912164Y-75863819D01*
X133912807Y-75855653D01*
X133912808Y-75855634D01*
X133913000Y-75853194D01*
X133913000Y-74659136D01*
X133933002Y-74591015D01*
X133949905Y-74570041D01*
X134295041Y-74224905D01*
X134357353Y-74190879D01*
X134384136Y-74188000D01*
X134986000Y-74188000D01*
X135054121Y-74208002D01*
G37*
G04 #@! TD.AperFunction*
G04 #@! TA.AperFunction,Conductor*
G36*
X156886947Y-73758002D02*
G01*
X156933440Y-73811658D01*
X156943544Y-73881932D01*
X156939823Y-73899153D01*
X156914902Y-73984931D01*
X156914397Y-73991350D01*
X156912193Y-74019347D01*
X156912192Y-74019360D01*
X156912000Y-74021806D01*
X156912000Y-75853194D01*
X156912192Y-75855634D01*
X156912193Y-75855653D01*
X156912836Y-75863819D01*
X156914902Y-75890069D01*
X156916699Y-75896254D01*
X156957388Y-76036304D01*
X156960756Y-76047898D01*
X157044419Y-76189365D01*
X157160635Y-76305581D01*
X157302102Y-76389244D01*
X157309714Y-76391455D01*
X157309715Y-76391456D01*
X157367417Y-76408220D01*
X157459931Y-76435098D01*
X157473084Y-76436133D01*
X157494347Y-76437807D01*
X157494360Y-76437808D01*
X157496806Y-76438000D01*
X158828194Y-76438000D01*
X158830640Y-76437808D01*
X158830653Y-76437807D01*
X158851916Y-76436133D01*
X158865069Y-76435098D01*
X158957583Y-76408220D01*
X159015285Y-76391456D01*
X159015286Y-76391455D01*
X159022898Y-76389244D01*
X159164365Y-76305581D01*
X159280581Y-76189365D01*
X159364244Y-76047898D01*
X159367613Y-76036304D01*
X159408301Y-75896254D01*
X159410098Y-75890069D01*
X159412164Y-75863819D01*
X159412807Y-75855653D01*
X159412808Y-75855634D01*
X159413000Y-75853194D01*
X159413000Y-74314000D01*
X159433002Y-74245879D01*
X159486658Y-74199386D01*
X159539000Y-74188000D01*
X160486000Y-74188000D01*
X160554121Y-74208002D01*
X160600614Y-74261658D01*
X160612000Y-74314000D01*
X160612000Y-75853194D01*
X160612192Y-75855634D01*
X160612193Y-75855653D01*
X160612836Y-75863819D01*
X160614902Y-75890069D01*
X160616699Y-75896254D01*
X160657388Y-76036304D01*
X160660756Y-76047898D01*
X160744419Y-76189365D01*
X160860635Y-76305581D01*
X161002102Y-76389244D01*
X161009714Y-76391455D01*
X161009715Y-76391456D01*
X161067417Y-76408220D01*
X161159931Y-76435098D01*
X161173084Y-76436133D01*
X161194347Y-76437807D01*
X161194360Y-76437808D01*
X161196806Y-76438000D01*
X162486000Y-76438000D01*
X162554121Y-76458002D01*
X162600614Y-76511658D01*
X162612000Y-76564000D01*
X162612000Y-77511000D01*
X162591998Y-77579121D01*
X162538342Y-77625614D01*
X162486000Y-77637000D01*
X161196806Y-77637000D01*
X161194360Y-77637192D01*
X161194347Y-77637193D01*
X161173084Y-77638867D01*
X161159931Y-77639902D01*
X161153745Y-77641699D01*
X161153746Y-77641699D01*
X161009715Y-77683544D01*
X161009714Y-77683545D01*
X161002102Y-77685756D01*
X160860635Y-77769419D01*
X160744419Y-77885635D01*
X160660756Y-78027102D01*
X160614902Y-78184931D01*
X160614397Y-78191350D01*
X160612193Y-78219347D01*
X160612192Y-78219360D01*
X160612000Y-78221806D01*
X160612000Y-79715864D01*
X160591998Y-79783985D01*
X160575095Y-79804959D01*
X160529959Y-79850095D01*
X160467647Y-79884121D01*
X160440864Y-79887000D01*
X159539000Y-79887000D01*
X159470879Y-79866998D01*
X159424386Y-79813342D01*
X159413000Y-79761000D01*
X159413000Y-78221806D01*
X159412808Y-78219360D01*
X159412807Y-78219347D01*
X159410603Y-78191350D01*
X159410098Y-78184931D01*
X159364244Y-78027102D01*
X159280581Y-77885635D01*
X159164365Y-77769419D01*
X159022898Y-77685756D01*
X159015286Y-77683545D01*
X159015285Y-77683544D01*
X158871254Y-77641699D01*
X158871255Y-77641699D01*
X158865069Y-77639902D01*
X158851916Y-77638867D01*
X158830653Y-77637193D01*
X158830640Y-77637192D01*
X158828194Y-77637000D01*
X157496806Y-77637000D01*
X157494360Y-77637192D01*
X157494347Y-77637193D01*
X157473084Y-77638867D01*
X157459931Y-77639902D01*
X157453745Y-77641699D01*
X157453746Y-77641699D01*
X157309715Y-77683544D01*
X157309714Y-77683545D01*
X157302102Y-77685756D01*
X157160635Y-77769419D01*
X157044419Y-77885635D01*
X156960756Y-78027102D01*
X156914902Y-78184931D01*
X156914397Y-78191350D01*
X156912193Y-78219347D01*
X156912192Y-78219360D01*
X156912000Y-78221806D01*
X156912000Y-79462864D01*
X156891998Y-79530985D01*
X156838342Y-79577478D01*
X156768068Y-79587582D01*
X156703488Y-79558088D01*
X156696905Y-79551959D01*
X156224905Y-79079959D01*
X156190879Y-79017647D01*
X156188000Y-78990864D01*
X156188000Y-78537634D01*
X156177141Y-78432981D01*
X156121756Y-78266971D01*
X156029666Y-78118155D01*
X155905811Y-77994516D01*
X155891175Y-77985494D01*
X155865842Y-77969879D01*
X155756834Y-77902686D01*
X155705428Y-77885635D01*
X155597259Y-77849756D01*
X155597257Y-77849755D01*
X155590728Y-77847590D01*
X155487366Y-77837000D01*
X154862634Y-77837000D01*
X154859388Y-77837337D01*
X154859384Y-77837337D01*
X154764839Y-77847147D01*
X154764835Y-77847148D01*
X154757981Y-77847859D01*
X154751445Y-77850040D01*
X154751443Y-77850040D01*
X154710706Y-77863631D01*
X154591971Y-77903244D01*
X154455302Y-77987817D01*
X154386851Y-78006655D01*
X154319081Y-77985494D01*
X154273510Y-77931053D01*
X154263000Y-77880673D01*
X154263000Y-74214000D01*
X154283002Y-74145879D01*
X154336658Y-74099386D01*
X154389000Y-74088000D01*
X155387366Y-74088000D01*
X155390612Y-74087663D01*
X155390616Y-74087663D01*
X155485161Y-74077853D01*
X155485165Y-74077852D01*
X155492019Y-74077141D01*
X155498555Y-74074960D01*
X155498557Y-74074960D01*
X155651081Y-74024074D01*
X155658029Y-74021756D01*
X155806845Y-73929666D01*
X155930484Y-73805811D01*
X155935369Y-73797886D01*
X155936384Y-73796972D01*
X155938862Y-73793835D01*
X155939399Y-73794259D01*
X155988139Y-73750392D01*
X156042630Y-73738000D01*
X156818826Y-73738000D01*
X156886947Y-73758002D01*
G37*
G04 #@! TD.AperFunction*
G04 #@! TA.AperFunction,Conductor*
G36*
X127960300Y-70506148D02*
G01*
X127960635Y-70505581D01*
X128102102Y-70589244D01*
X128109714Y-70591455D01*
X128109715Y-70591456D01*
X128167417Y-70608220D01*
X128259931Y-70635098D01*
X128273084Y-70636133D01*
X128294347Y-70637807D01*
X128294360Y-70637808D01*
X128296806Y-70638000D01*
X129307048Y-70638000D01*
X129375169Y-70658002D01*
X129421662Y-70711658D01*
X129431766Y-70781932D01*
X129402272Y-70846512D01*
X129379318Y-70867213D01*
X129191099Y-70999005D01*
X129024005Y-71166099D01*
X128888465Y-71359671D01*
X128886144Y-71364649D01*
X128886142Y-71364652D01*
X128807104Y-71534149D01*
X128788597Y-71573837D01*
X128787175Y-71579145D01*
X128787174Y-71579147D01*
X128728861Y-71796777D01*
X128727437Y-71802092D01*
X128706841Y-72037500D01*
X128727437Y-72272908D01*
X128728861Y-72278222D01*
X128728861Y-72278223D01*
X128776886Y-72457455D01*
X128788597Y-72501163D01*
X128790919Y-72506143D01*
X128790920Y-72506145D01*
X128884645Y-72707136D01*
X128888465Y-72715329D01*
X129024005Y-72908901D01*
X129191099Y-73075995D01*
X129195607Y-73079152D01*
X129195610Y-73079154D01*
X129338895Y-73179483D01*
X129384670Y-73211535D01*
X129389652Y-73213858D01*
X129389657Y-73213861D01*
X129586759Y-73305771D01*
X129598837Y-73311403D01*
X129604145Y-73312825D01*
X129604147Y-73312826D01*
X129792678Y-73363342D01*
X129827092Y-73372563D01*
X130062500Y-73393159D01*
X130297908Y-73372563D01*
X130332322Y-73363342D01*
X130520853Y-73312826D01*
X130520855Y-73312825D01*
X130526163Y-73311403D01*
X130538241Y-73305771D01*
X130735343Y-73213861D01*
X130735348Y-73213858D01*
X130740330Y-73211535D01*
X130786105Y-73179483D01*
X130929390Y-73079154D01*
X130929393Y-73079152D01*
X130933901Y-73075995D01*
X131100995Y-72908901D01*
X131236535Y-72715329D01*
X131240356Y-72707136D01*
X131334080Y-72506145D01*
X131334081Y-72506143D01*
X131336403Y-72501163D01*
X131348115Y-72457455D01*
X131396139Y-72278223D01*
X131396139Y-72278222D01*
X131397563Y-72272908D01*
X131418159Y-72037500D01*
X131397563Y-71802092D01*
X131396139Y-71796777D01*
X131337826Y-71579147D01*
X131337825Y-71579145D01*
X131336403Y-71573837D01*
X131240069Y-71367249D01*
X131229408Y-71297059D01*
X131258388Y-71232246D01*
X131317807Y-71193389D01*
X131354264Y-71188000D01*
X133770736Y-71188000D01*
X133838857Y-71208002D01*
X133885350Y-71261658D01*
X133895454Y-71331932D01*
X133884931Y-71367249D01*
X133788597Y-71573837D01*
X133787175Y-71579145D01*
X133787174Y-71579147D01*
X133728861Y-71796777D01*
X133727437Y-71802092D01*
X133706841Y-72037500D01*
X133727437Y-72272908D01*
X133728861Y-72278222D01*
X133728861Y-72278223D01*
X133776886Y-72457455D01*
X133788597Y-72501163D01*
X133790919Y-72506143D01*
X133790920Y-72506145D01*
X133884645Y-72707136D01*
X133888465Y-72715329D01*
X133899508Y-72731100D01*
X133901175Y-72733481D01*
X133923862Y-72800755D01*
X133906576Y-72869616D01*
X133854805Y-72918199D01*
X133833114Y-72926747D01*
X133802102Y-72935756D01*
X133783967Y-72946481D01*
X133766219Y-72955176D01*
X133746629Y-72962932D01*
X133709762Y-72989718D01*
X133699854Y-72996225D01*
X133667458Y-73015383D01*
X133667453Y-73015387D01*
X133660635Y-73019419D01*
X133645742Y-73034312D01*
X133630708Y-73047153D01*
X133613663Y-73059537D01*
X133608610Y-73065645D01*
X133584621Y-73094643D01*
X133576631Y-73103423D01*
X133279959Y-73400095D01*
X133217647Y-73434121D01*
X133190864Y-73437000D01*
X131996806Y-73437000D01*
X131994360Y-73437192D01*
X131994347Y-73437193D01*
X131973084Y-73438867D01*
X131959931Y-73439902D01*
X131953745Y-73441699D01*
X131953746Y-73441699D01*
X131809715Y-73483544D01*
X131809714Y-73483545D01*
X131802102Y-73485756D01*
X131795280Y-73489791D01*
X131795279Y-73489791D01*
X131683351Y-73555985D01*
X131660635Y-73569419D01*
X131544419Y-73685635D01*
X131540385Y-73692456D01*
X131469890Y-73811658D01*
X131460756Y-73827102D01*
X131414902Y-73984931D01*
X131414397Y-73991350D01*
X131412193Y-74019347D01*
X131412192Y-74019360D01*
X131412000Y-74021806D01*
X131412000Y-75215864D01*
X131391998Y-75283985D01*
X131375095Y-75304959D01*
X131109802Y-75570252D01*
X131101185Y-75578093D01*
X131094560Y-75582298D01*
X131089133Y-75588077D01*
X131089132Y-75588078D01*
X131050207Y-75629529D01*
X131047938Y-75631946D01*
X131046651Y-75633316D01*
X131043896Y-75636158D01*
X131023589Y-75656465D01*
X131021160Y-75659596D01*
X131021155Y-75659602D01*
X131020942Y-75659877D01*
X131013245Y-75668890D01*
X130982052Y-75702107D01*
X130978233Y-75709054D01*
X130971904Y-75720566D01*
X130961050Y-75737090D01*
X130948138Y-75753736D01*
X130941545Y-75768972D01*
X130930046Y-75795545D01*
X130924830Y-75806193D01*
X130902873Y-75846132D01*
X130900902Y-75853811D01*
X130900901Y-75853812D01*
X130897633Y-75866541D01*
X130891227Y-75885250D01*
X130886012Y-75897300D01*
X130886010Y-75897305D01*
X130882865Y-75904574D01*
X130881626Y-75912398D01*
X130875739Y-75949565D01*
X130873331Y-75961190D01*
X130863972Y-75997640D01*
X130863971Y-75997645D01*
X130862000Y-76005323D01*
X130862000Y-76026384D01*
X130860449Y-76046096D01*
X130857153Y-76066905D01*
X130857899Y-76074796D01*
X130861441Y-76112265D01*
X130862000Y-76124123D01*
X130862000Y-79561000D01*
X130841998Y-79629121D01*
X130788342Y-79675614D01*
X130736000Y-79687000D01*
X130673109Y-79687000D01*
X130666649Y-79688373D01*
X130666650Y-79688373D01*
X130541136Y-79715051D01*
X130470346Y-79709649D01*
X130425845Y-79680899D01*
X130249905Y-79504959D01*
X130215879Y-79442647D01*
X130213000Y-79415864D01*
X130213000Y-78221806D01*
X130212808Y-78219360D01*
X130212807Y-78219347D01*
X130210603Y-78191350D01*
X130210098Y-78184931D01*
X130164244Y-78027102D01*
X130080581Y-77885635D01*
X129964365Y-77769419D01*
X129822898Y-77685756D01*
X129815286Y-77683545D01*
X129815285Y-77683544D01*
X129671254Y-77641699D01*
X129671255Y-77641699D01*
X129665069Y-77639902D01*
X129651916Y-77638867D01*
X129630653Y-77637193D01*
X129630640Y-77637192D01*
X129628194Y-77637000D01*
X128296806Y-77637000D01*
X128294360Y-77637192D01*
X128294347Y-77637193D01*
X128273084Y-77638867D01*
X128259931Y-77639902D01*
X128253745Y-77641699D01*
X128253746Y-77641699D01*
X128109715Y-77683544D01*
X128109714Y-77683545D01*
X128102102Y-77685756D01*
X127965096Y-77766781D01*
X127965093Y-77766782D01*
X127960635Y-77769419D01*
X127960210Y-77768700D01*
X127900146Y-77792286D01*
X127830523Y-77778388D01*
X127779466Y-77729056D01*
X127763000Y-77666780D01*
X127763000Y-70608220D01*
X127783002Y-70540099D01*
X127836658Y-70493606D01*
X127906932Y-70483502D01*
X127960300Y-70506148D01*
G37*
G04 #@! TD.AperFunction*
G04 #@! TA.AperFunction,Conductor*
G36*
X150317642Y-73918202D02*
G01*
X150365074Y-73948020D01*
X150975095Y-74558041D01*
X151009121Y-74620353D01*
X151012000Y-74647136D01*
X151012000Y-77515864D01*
X150991998Y-77583985D01*
X150975095Y-77604959D01*
X149949083Y-78630971D01*
X149886771Y-78664997D01*
X149815956Y-78659932D01*
X149770893Y-78630972D01*
X148999905Y-77859985D01*
X148965880Y-77797672D01*
X148963000Y-77770889D01*
X148963000Y-77414000D01*
X148983002Y-77345879D01*
X149036658Y-77299386D01*
X149089000Y-77288000D01*
X149787510Y-77287999D01*
X149809876Y-77287999D01*
X149813270Y-77287630D01*
X149813276Y-77287630D01*
X149863222Y-77282205D01*
X149863226Y-77282204D01*
X149871080Y-77281351D01*
X150005324Y-77231026D01*
X150012503Y-77225646D01*
X150012506Y-77225644D01*
X150112865Y-77150428D01*
X150120046Y-77145046D01*
X150165866Y-77083909D01*
X150200644Y-77037506D01*
X150200646Y-77037503D01*
X150206026Y-77030324D01*
X150256351Y-76896080D01*
X150263000Y-76834877D01*
X150263000Y-74553685D01*
X150263049Y-74550167D01*
X150265282Y-74470230D01*
X150265282Y-74470227D01*
X150265460Y-74463847D01*
X150254984Y-74404433D01*
X150253715Y-74395287D01*
X150248265Y-74341633D01*
X150248265Y-74341632D01*
X150247620Y-74335284D01*
X150239013Y-74307820D01*
X150235164Y-74292029D01*
X150231273Y-74269960D01*
X150231272Y-74269955D01*
X150230165Y-74263679D01*
X150207954Y-74207580D01*
X150204873Y-74198878D01*
X150188749Y-74147427D01*
X150186838Y-74141328D01*
X150172886Y-74116158D01*
X150165938Y-74101459D01*
X150158827Y-74083499D01*
X150152348Y-74012799D01*
X150185120Y-73949819D01*
X150246739Y-73914555D01*
X150317642Y-73918202D01*
G37*
G04 #@! TD.AperFunction*
G04 #@! TA.AperFunction,Conductor*
G36*
X145387772Y-73595298D02*
G01*
X145435189Y-73625110D01*
X146043611Y-74233532D01*
X146046064Y-74236054D01*
X146105381Y-74298780D01*
X146148824Y-74329199D01*
X146154795Y-74333380D01*
X146162160Y-74338950D01*
X146208903Y-74377073D01*
X146214555Y-74380028D01*
X146214560Y-74380031D01*
X146234410Y-74390408D01*
X146248307Y-74398857D01*
X146271879Y-74415363D01*
X146277730Y-74417895D01*
X146277741Y-74417901D01*
X146327236Y-74439319D01*
X146335572Y-74443295D01*
X146383372Y-74468285D01*
X146383380Y-74468288D01*
X146389030Y-74471242D01*
X146410255Y-74477328D01*
X146416703Y-74479177D01*
X146432006Y-74484656D01*
X146458419Y-74496086D01*
X146464663Y-74497390D01*
X146464668Y-74497392D01*
X146499705Y-74504711D01*
X146517467Y-74508422D01*
X146526417Y-74510636D01*
X146584413Y-74527266D01*
X146613112Y-74529474D01*
X146629205Y-74531765D01*
X146657380Y-74537651D01*
X146662219Y-74537905D01*
X146662222Y-74537905D01*
X146662371Y-74537913D01*
X146662387Y-74537913D01*
X146664039Y-74538000D01*
X146719065Y-74538000D01*
X146728732Y-74538371D01*
X146780711Y-74542371D01*
X146780715Y-74542371D01*
X146787071Y-74542860D01*
X146817673Y-74538994D01*
X146833465Y-74538000D01*
X147795889Y-74538000D01*
X147864010Y-74558002D01*
X147884984Y-74574905D01*
X147888386Y-74578307D01*
X147922412Y-74640619D01*
X147917347Y-74711434D01*
X147874800Y-74768270D01*
X147814865Y-74792436D01*
X147767060Y-74798390D01*
X147628880Y-74836063D01*
X147624780Y-74837837D01*
X147624775Y-74837839D01*
X147501423Y-74891219D01*
X147501420Y-74891221D01*
X147497308Y-74893000D01*
X147493483Y-74895348D01*
X147493484Y-74895348D01*
X147424639Y-74937619D01*
X147375256Y-74967940D01*
X147264952Y-75059516D01*
X147261947Y-75062836D01*
X147171848Y-75162374D01*
X147171844Y-75162379D01*
X147168838Y-75165700D01*
X147088666Y-75284559D01*
X147026219Y-75413451D01*
X146982632Y-75550029D01*
X146958870Y-75691267D01*
X146958653Y-75693690D01*
X146958652Y-75693695D01*
X146956242Y-75720566D01*
X146951900Y-75768972D01*
X146951749Y-75781314D01*
X146955516Y-75839188D01*
X146956587Y-75855634D01*
X146956853Y-75863819D01*
X146956853Y-76208116D01*
X146956349Y-76219373D01*
X146951900Y-76268972D01*
X146951749Y-76281314D01*
X146956818Y-76359183D01*
X146957161Y-76361580D01*
X146957162Y-76361587D01*
X146960727Y-76386478D01*
X146962000Y-76404341D01*
X146962000Y-77111000D01*
X146941998Y-77179121D01*
X146888342Y-77225614D01*
X146836000Y-77237000D01*
X145303021Y-77237000D01*
X145234900Y-77216998D01*
X145188407Y-77163342D01*
X145178303Y-77093068D01*
X145197751Y-77046158D01*
X145196332Y-77045381D01*
X145200643Y-77037506D01*
X145206026Y-77030324D01*
X145256351Y-76896080D01*
X145263000Y-76834877D01*
X145263000Y-74053685D01*
X145263049Y-74050167D01*
X145265282Y-73970230D01*
X145265282Y-73970227D01*
X145265460Y-73963847D01*
X145254984Y-73904433D01*
X145253715Y-73895287D01*
X145248265Y-73841633D01*
X145248265Y-73841632D01*
X145247620Y-73835284D01*
X145239013Y-73807820D01*
X145235164Y-73792029D01*
X145231273Y-73769960D01*
X145231272Y-73769955D01*
X145230165Y-73763679D01*
X145227818Y-73757750D01*
X145226078Y-73751603D01*
X145228064Y-73751041D01*
X145222466Y-73689874D01*
X145255245Y-73626898D01*
X145316869Y-73591641D01*
X145387772Y-73595298D01*
G37*
G04 #@! TD.AperFunction*
G04 #@! TA.AperFunction,Conductor*
G36*
X164733143Y-67539500D02*
G01*
X164747450Y-67541728D01*
X164747453Y-67541728D01*
X164756323Y-67543109D01*
X164765225Y-67541945D01*
X164765228Y-67541945D01*
X164772160Y-67541038D01*
X164796739Y-67540244D01*
X164808853Y-67541038D01*
X165015245Y-67554566D01*
X165031585Y-67556717D01*
X165271909Y-67604520D01*
X165287830Y-67608786D01*
X165519857Y-67687549D01*
X165535083Y-67693856D01*
X165754842Y-67802229D01*
X165769116Y-67810470D01*
X165972853Y-67946603D01*
X165985928Y-67956636D01*
X166170158Y-68118201D01*
X166181799Y-68129842D01*
X166278114Y-68239668D01*
X166343364Y-68314072D01*
X166353397Y-68327147D01*
X166489530Y-68530884D01*
X166497771Y-68545158D01*
X166606144Y-68764917D01*
X166612451Y-68780143D01*
X166691214Y-69012170D01*
X166695480Y-69028091D01*
X166743283Y-69268415D01*
X166745434Y-69284755D01*
X166759292Y-69496175D01*
X166758329Y-69517802D01*
X166758272Y-69522453D01*
X166756891Y-69531323D01*
X166758055Y-69540225D01*
X166758055Y-69540228D01*
X166760936Y-69562256D01*
X166762000Y-69578593D01*
X166762000Y-73466780D01*
X166741998Y-73534901D01*
X166688342Y-73581394D01*
X166618068Y-73591498D01*
X166564700Y-73568852D01*
X166564365Y-73569419D01*
X166560122Y-73566910D01*
X166422898Y-73485756D01*
X166415286Y-73483545D01*
X166415285Y-73483544D01*
X166271254Y-73441699D01*
X166271255Y-73441699D01*
X166265069Y-73439902D01*
X166251916Y-73438867D01*
X166230653Y-73437193D01*
X166230640Y-73437192D01*
X166228194Y-73437000D01*
X165217954Y-73437000D01*
X165149833Y-73416998D01*
X165103340Y-73363342D01*
X165093236Y-73293068D01*
X165122730Y-73228488D01*
X165145683Y-73207787D01*
X165329390Y-73079154D01*
X165329393Y-73079152D01*
X165333901Y-73075995D01*
X165500995Y-72908901D01*
X165636535Y-72715329D01*
X165640356Y-72707136D01*
X165734080Y-72506145D01*
X165734081Y-72506143D01*
X165736403Y-72501163D01*
X165748115Y-72457455D01*
X165796139Y-72278223D01*
X165796139Y-72278222D01*
X165797563Y-72272908D01*
X165818159Y-72037500D01*
X165797563Y-71802092D01*
X165796139Y-71796777D01*
X165737826Y-71579147D01*
X165737825Y-71579145D01*
X165736403Y-71573837D01*
X165717896Y-71534149D01*
X165638858Y-71364652D01*
X165638856Y-71364649D01*
X165636535Y-71359671D01*
X165500995Y-71166099D01*
X165333901Y-70999005D01*
X165329393Y-70995848D01*
X165329390Y-70995846D01*
X165144839Y-70866622D01*
X165144836Y-70866620D01*
X165140330Y-70863465D01*
X165135348Y-70861142D01*
X165135343Y-70861139D01*
X164931145Y-70765920D01*
X164931144Y-70765919D01*
X164926163Y-70763597D01*
X164920855Y-70762175D01*
X164920853Y-70762174D01*
X164703223Y-70703861D01*
X164703222Y-70703861D01*
X164697908Y-70702437D01*
X164462500Y-70681841D01*
X164227092Y-70702437D01*
X164221778Y-70703861D01*
X164221777Y-70703861D01*
X164004147Y-70762174D01*
X164004145Y-70762175D01*
X163998837Y-70763597D01*
X163993857Y-70765919D01*
X163993855Y-70765920D01*
X163789652Y-70861142D01*
X163789649Y-70861144D01*
X163784671Y-70863465D01*
X163591099Y-70999005D01*
X163424005Y-71166099D01*
X163288465Y-71359671D01*
X163286144Y-71364649D01*
X163286142Y-71364652D01*
X163207104Y-71534149D01*
X163188597Y-71573837D01*
X163187175Y-71579145D01*
X163187174Y-71579147D01*
X163145798Y-71733566D01*
X163108846Y-71794189D01*
X163044986Y-71825210D01*
X162974491Y-71816782D01*
X162934996Y-71790050D01*
X162549905Y-71404959D01*
X162515879Y-71342647D01*
X162513000Y-71315864D01*
X162513000Y-70744829D01*
X162533002Y-70676708D01*
X162586658Y-70630215D01*
X162603847Y-70623832D01*
X162715285Y-70591456D01*
X162715286Y-70591455D01*
X162722898Y-70589244D01*
X162864365Y-70505581D01*
X162980581Y-70389365D01*
X163064244Y-70247898D01*
X163110098Y-70090069D01*
X163111133Y-70076916D01*
X163112807Y-70055653D01*
X163112808Y-70055640D01*
X163113000Y-70053194D01*
X163113000Y-68221806D01*
X163112808Y-68219360D01*
X163112807Y-68219347D01*
X163110603Y-68191350D01*
X163110098Y-68184931D01*
X163064244Y-68027102D01*
X163035773Y-67978959D01*
X162984615Y-67892456D01*
X162980581Y-67885635D01*
X162864365Y-67769419D01*
X162857541Y-67765384D01*
X162855188Y-67763558D01*
X162813622Y-67706001D01*
X162809773Y-67635109D01*
X162844862Y-67573389D01*
X162907749Y-67540438D01*
X162932416Y-67538000D01*
X164713759Y-67538000D01*
X164733143Y-67539500D01*
G37*
G04 #@! TD.AperFunction*
G04 #@! TA.AperFunction,Conductor*
G36*
X140611010Y-67558002D02*
G01*
X140657503Y-67611658D01*
X140667607Y-67681932D01*
X140638113Y-67746512D01*
X140631984Y-67753095D01*
X140566467Y-67818612D01*
X140563945Y-67821065D01*
X140535896Y-67847590D01*
X140501220Y-67880381D01*
X140466620Y-67929795D01*
X140461050Y-67937160D01*
X140445166Y-67956636D01*
X140422927Y-67983903D01*
X140419972Y-67989555D01*
X140419969Y-67989560D01*
X140409592Y-68009410D01*
X140401143Y-68023307D01*
X140384637Y-68046879D01*
X140382105Y-68052730D01*
X140382099Y-68052741D01*
X140360681Y-68102236D01*
X140356705Y-68110572D01*
X140331715Y-68158372D01*
X140331712Y-68158380D01*
X140328758Y-68164030D01*
X140327000Y-68170161D01*
X140320823Y-68191703D01*
X140315344Y-68207006D01*
X140303914Y-68233419D01*
X140302610Y-68239663D01*
X140302608Y-68239668D01*
X140291580Y-68292460D01*
X140289364Y-68301417D01*
X140272734Y-68359413D01*
X140272245Y-68365773D01*
X140270526Y-68388110D01*
X140268235Y-68404205D01*
X140262349Y-68432380D01*
X140262000Y-68439039D01*
X140262000Y-68494065D01*
X140261629Y-68503732D01*
X140257140Y-68562071D01*
X140257940Y-68568403D01*
X140261006Y-68592673D01*
X140262000Y-68608465D01*
X140262000Y-70661000D01*
X140241998Y-70729121D01*
X140188342Y-70775614D01*
X140136000Y-70787000D01*
X139137634Y-70787000D01*
X139134388Y-70787337D01*
X139134384Y-70787337D01*
X139039839Y-70797147D01*
X139039835Y-70797148D01*
X139032981Y-70797859D01*
X139026445Y-70800040D01*
X139026443Y-70800040D01*
X138887360Y-70846442D01*
X138866971Y-70853244D01*
X138718155Y-70945334D01*
X138594516Y-71069189D01*
X138590676Y-71075419D01*
X138590675Y-71075420D01*
X138535694Y-71164616D01*
X138482922Y-71212109D01*
X138428434Y-71224500D01*
X137421636Y-71224500D01*
X137353515Y-71204498D01*
X137332541Y-71187595D01*
X136993378Y-70848432D01*
X136959352Y-70786120D01*
X136964417Y-70715305D01*
X137006964Y-70658469D01*
X137059492Y-70635537D01*
X137065069Y-70635098D01*
X137157583Y-70608220D01*
X137215285Y-70591456D01*
X137215286Y-70591455D01*
X137222898Y-70589244D01*
X137364365Y-70505581D01*
X137480581Y-70389365D01*
X137564244Y-70247898D01*
X137610098Y-70090069D01*
X137611133Y-70076916D01*
X137612807Y-70055653D01*
X137612808Y-70055640D01*
X137613000Y-70053194D01*
X137613000Y-68221806D01*
X137612808Y-68219360D01*
X137612807Y-68219347D01*
X137610603Y-68191350D01*
X137610098Y-68184931D01*
X137564244Y-68027102D01*
X137535773Y-67978959D01*
X137484615Y-67892456D01*
X137480581Y-67885635D01*
X137364365Y-67769419D01*
X137357541Y-67765384D01*
X137355188Y-67763558D01*
X137313622Y-67706001D01*
X137309773Y-67635109D01*
X137344862Y-67573389D01*
X137407749Y-67540438D01*
X137432416Y-67538000D01*
X140542889Y-67538000D01*
X140611010Y-67558002D01*
G37*
G04 #@! TD.AperFunction*
M02*
