G04 #@! TF.GenerationSoftware,KiCad,Pcbnew,6.0.10+dfsg-1~bpo11+1*
G04 #@! TF.ProjectId,project,70726f6a-6563-4742-9e6b-696361645f70,rev?*
G04 #@! TF.SameCoordinates,Original*
G04 #@! TF.FileFunction,Legend,Bot*
G04 #@! TF.FilePolarity,Positive*
%FSLAX46Y46*%
G04 Gerber Fmt 4.6, Leading zero omitted, Abs format (unit mm)*
%MOMM*%
%LPD*%
G01*
G04 APERTURE LIST*
%ADD10C,0.150000*%
G04 #@! TA.AperFunction,Profile*
%ADD11C,0.100000*%
G04 #@! TD*
%ADD12C,0.300000*%
%ADD13C,1.700000*%
%ADD14C,5.600000*%
G04 APERTURE END LIST*
D10*
X151762500Y-99037500D02*
X151762500Y-99537500D01*
X142262500Y-97537500D02*
X142262500Y-101037500D01*
X151262500Y-98537500D02*
X151762500Y-99037500D01*
X145262500Y-98537500D02*
X145262500Y-100037500D01*
X150762500Y-98537500D02*
X151262500Y-98537500D01*
X150262500Y-99037500D02*
X150762500Y-98537500D01*
X149762500Y-100037500D02*
X142762500Y-100037500D01*
X149762500Y-98537500D02*
X149762500Y-100037500D01*
X142762500Y-97537500D02*
X142762500Y-98537500D01*
X150762500Y-100037500D02*
X150262500Y-99537500D01*
X149762500Y-98537500D02*
X150262500Y-99037500D01*
X142762500Y-98537500D02*
X144762500Y-98537500D01*
X142762500Y-100037500D02*
X142762500Y-101037500D01*
X144762500Y-98537500D02*
X149762500Y-98537500D01*
X151762500Y-99537500D02*
X151262500Y-100037500D01*
X150262500Y-99537500D02*
X149762500Y-100037500D01*
X151262500Y-100037500D02*
X150762500Y-100037500D01*
X142762500Y-97537500D02*
X142262500Y-97537500D01*
X142762500Y-98537500D02*
X142762500Y-100037500D01*
X147762500Y-98537500D02*
X147762500Y-100037500D01*
X142262500Y-101037500D02*
X142762500Y-101037500D01*
D11*
X167262500Y-68037500D02*
G75*
G03*
X166262500Y-67037500I-1000000J0D01*
G01*
X167262500Y-131037500D02*
X167262500Y-68037500D01*
X166262500Y-67037500D02*
X128262500Y-67037500D01*
X166262500Y-132037500D02*
X128262500Y-132037500D01*
X127262500Y-68037500D02*
X127262500Y-131037500D01*
X166262500Y-132037500D02*
G75*
G03*
X167262500Y-131037500I0J1000000D01*
G01*
X127262500Y-131037500D02*
G75*
G03*
X128262500Y-132037500I1000000J0D01*
G01*
X128262500Y-67037500D02*
G75*
G03*
X127262500Y-68037500I0J-1000000D01*
G01*
D12*
X151706428Y-97199642D02*
X151706428Y-96342500D01*
X150206428Y-96771071D02*
X151706428Y-96771071D01*
X150206428Y-95842500D02*
X151206428Y-95842500D01*
X151706428Y-95842500D02*
X151635000Y-95913928D01*
X151563571Y-95842500D01*
X151635000Y-95771071D01*
X151706428Y-95842500D01*
X151563571Y-95842500D01*
X151206428Y-95128214D02*
X149706428Y-95128214D01*
X151135000Y-95128214D02*
X151206428Y-94985357D01*
X151206428Y-94699642D01*
X151135000Y-94556785D01*
X151063571Y-94485357D01*
X150920714Y-94413928D01*
X150492142Y-94413928D01*
X150349285Y-94485357D01*
X150277857Y-94556785D01*
X150206428Y-94699642D01*
X150206428Y-94985357D01*
X150277857Y-95128214D01*
X150777857Y-92628214D02*
X150777857Y-91485357D01*
X150206428Y-89628214D02*
X151706428Y-89628214D01*
X151706428Y-89271071D01*
X151635000Y-89056785D01*
X151492142Y-88913928D01*
X151349285Y-88842500D01*
X151063571Y-88771071D01*
X150849285Y-88771071D01*
X150563571Y-88842500D01*
X150420714Y-88913928D01*
X150277857Y-89056785D01*
X150206428Y-89271071D01*
X150206428Y-89628214D01*
X150635000Y-88199642D02*
X150635000Y-87485357D01*
X150206428Y-88342500D02*
X151706428Y-87842500D01*
X150206428Y-87342500D01*
X151706428Y-87056785D02*
X151706428Y-86199642D01*
X150206428Y-86628214D02*
X151706428Y-86628214D01*
X150635000Y-85771071D02*
X150635000Y-85056785D01*
X150206428Y-85913928D02*
X151706428Y-85413928D01*
X150206428Y-84913928D01*
X147791428Y-96128214D02*
X148505714Y-96628214D01*
X147791428Y-96985357D02*
X149291428Y-96985357D01*
X149291428Y-96413928D01*
X149220000Y-96271071D01*
X149148571Y-96199642D01*
X149005714Y-96128214D01*
X148791428Y-96128214D01*
X148648571Y-96199642D01*
X148577142Y-96271071D01*
X148505714Y-96413928D01*
X148505714Y-96985357D01*
X147791428Y-95485357D02*
X148791428Y-95485357D01*
X149291428Y-95485357D02*
X149220000Y-95556785D01*
X149148571Y-95485357D01*
X149220000Y-95413928D01*
X149291428Y-95485357D01*
X149148571Y-95485357D01*
X148791428Y-94771071D02*
X147791428Y-94771071D01*
X148648571Y-94771071D02*
X148720000Y-94699642D01*
X148791428Y-94556785D01*
X148791428Y-94342500D01*
X148720000Y-94199642D01*
X148577142Y-94128214D01*
X147791428Y-94128214D01*
X148791428Y-92771071D02*
X147577142Y-92771071D01*
X147434285Y-92842500D01*
X147362857Y-92913928D01*
X147291428Y-93056785D01*
X147291428Y-93271071D01*
X147362857Y-93413928D01*
X147862857Y-92771071D02*
X147791428Y-92913928D01*
X147791428Y-93199642D01*
X147862857Y-93342500D01*
X147934285Y-93413928D01*
X148077142Y-93485357D01*
X148505714Y-93485357D01*
X148648571Y-93413928D01*
X148720000Y-93342500D01*
X148791428Y-93199642D01*
X148791428Y-92913928D01*
X148720000Y-92771071D01*
X147791428Y-91271071D02*
X147791428Y-92128214D01*
X147791428Y-91699642D02*
X149291428Y-91699642D01*
X149077142Y-91842500D01*
X148934285Y-91985357D01*
X148862857Y-92128214D01*
X148362857Y-89485357D02*
X148362857Y-88342500D01*
X147791428Y-86485357D02*
X149291428Y-86485357D01*
X147791428Y-85628214D01*
X149291428Y-85628214D01*
X147934285Y-84056785D02*
X147862857Y-84128214D01*
X147791428Y-84342500D01*
X147791428Y-84485357D01*
X147862857Y-84699642D01*
X148005714Y-84842500D01*
X148148571Y-84913928D01*
X148434285Y-84985357D01*
X148648571Y-84985357D01*
X148934285Y-84913928D01*
X149077142Y-84842500D01*
X149220000Y-84699642D01*
X149291428Y-84485357D01*
X149291428Y-84342500D01*
X149220000Y-84128214D01*
X149148571Y-84056785D01*
X145376428Y-96128214D02*
X146090714Y-96628214D01*
X145376428Y-96985357D02*
X146876428Y-96985357D01*
X146876428Y-96413928D01*
X146805000Y-96271071D01*
X146733571Y-96199642D01*
X146590714Y-96128214D01*
X146376428Y-96128214D01*
X146233571Y-96199642D01*
X146162142Y-96271071D01*
X146090714Y-96413928D01*
X146090714Y-96985357D01*
X145376428Y-95485357D02*
X146376428Y-95485357D01*
X146876428Y-95485357D02*
X146805000Y-95556785D01*
X146733571Y-95485357D01*
X146805000Y-95413928D01*
X146876428Y-95485357D01*
X146733571Y-95485357D01*
X146376428Y-94771071D02*
X145376428Y-94771071D01*
X146233571Y-94771071D02*
X146305000Y-94699642D01*
X146376428Y-94556785D01*
X146376428Y-94342500D01*
X146305000Y-94199642D01*
X146162142Y-94128214D01*
X145376428Y-94128214D01*
X146376428Y-92771071D02*
X145162142Y-92771071D01*
X145019285Y-92842500D01*
X144947857Y-92913928D01*
X144876428Y-93056785D01*
X144876428Y-93271071D01*
X144947857Y-93413928D01*
X145447857Y-92771071D02*
X145376428Y-92913928D01*
X145376428Y-93199642D01*
X145447857Y-93342500D01*
X145519285Y-93413928D01*
X145662142Y-93485357D01*
X146090714Y-93485357D01*
X146233571Y-93413928D01*
X146305000Y-93342500D01*
X146376428Y-93199642D01*
X146376428Y-92913928D01*
X146305000Y-92771071D01*
X146733571Y-92128214D02*
X146805000Y-92056785D01*
X146876428Y-91913928D01*
X146876428Y-91556785D01*
X146805000Y-91413928D01*
X146733571Y-91342500D01*
X146590714Y-91271071D01*
X146447857Y-91271071D01*
X146233571Y-91342500D01*
X145376428Y-92199642D01*
X145376428Y-91271071D01*
X145947857Y-89485357D02*
X145947857Y-88342500D01*
X146805000Y-85699642D02*
X146876428Y-85842500D01*
X146876428Y-86056785D01*
X146805000Y-86271071D01*
X146662142Y-86413928D01*
X146519285Y-86485357D01*
X146233571Y-86556785D01*
X146019285Y-86556785D01*
X145733571Y-86485357D01*
X145590714Y-86413928D01*
X145447857Y-86271071D01*
X145376428Y-86056785D01*
X145376428Y-85913928D01*
X145447857Y-85699642D01*
X145519285Y-85628214D01*
X146019285Y-85628214D01*
X146019285Y-85913928D01*
X145376428Y-84985357D02*
X146876428Y-84985357D01*
X145376428Y-84128214D01*
X146876428Y-84128214D01*
X145376428Y-83413928D02*
X146876428Y-83413928D01*
X146876428Y-83056785D01*
X146805000Y-82842500D01*
X146662142Y-82699642D01*
X146519285Y-82628214D01*
X146233571Y-82556785D01*
X146019285Y-82556785D01*
X145733571Y-82628214D01*
X145590714Y-82699642D01*
X145447857Y-82842500D01*
X145376428Y-83056785D01*
X145376428Y-83413928D01*
X143032857Y-97056785D02*
X142961428Y-96842500D01*
X142961428Y-96485357D01*
X143032857Y-96342500D01*
X143104285Y-96271071D01*
X143247142Y-96199642D01*
X143390000Y-96199642D01*
X143532857Y-96271071D01*
X143604285Y-96342500D01*
X143675714Y-96485357D01*
X143747142Y-96771071D01*
X143818571Y-96913928D01*
X143890000Y-96985357D01*
X144032857Y-97056785D01*
X144175714Y-97056785D01*
X144318571Y-96985357D01*
X144390000Y-96913928D01*
X144461428Y-96771071D01*
X144461428Y-96413928D01*
X144390000Y-96199642D01*
X142961428Y-95342500D02*
X143032857Y-95485357D01*
X143175714Y-95556785D01*
X144461428Y-95556785D01*
X143032857Y-94199642D02*
X142961428Y-94342500D01*
X142961428Y-94628214D01*
X143032857Y-94771071D01*
X143175714Y-94842500D01*
X143747142Y-94842500D01*
X143890000Y-94771071D01*
X143961428Y-94628214D01*
X143961428Y-94342500D01*
X143890000Y-94199642D01*
X143747142Y-94128214D01*
X143604285Y-94128214D01*
X143461428Y-94842500D01*
X143032857Y-92913928D02*
X142961428Y-93056785D01*
X142961428Y-93342500D01*
X143032857Y-93485357D01*
X143175714Y-93556785D01*
X143747142Y-93556785D01*
X143890000Y-93485357D01*
X143961428Y-93342500D01*
X143961428Y-93056785D01*
X143890000Y-92913928D01*
X143747142Y-92842500D01*
X143604285Y-92842500D01*
X143461428Y-93556785D01*
X143961428Y-92342500D02*
X142961428Y-91985357D01*
X143961428Y-91628214D01*
X143032857Y-90485357D02*
X142961428Y-90628214D01*
X142961428Y-90913928D01*
X143032857Y-91056785D01*
X143175714Y-91128214D01*
X143747142Y-91128214D01*
X143890000Y-91056785D01*
X143961428Y-90913928D01*
X143961428Y-90628214D01*
X143890000Y-90485357D01*
X143747142Y-90413928D01*
X143604285Y-90413928D01*
X143461428Y-91128214D01*
X143532857Y-88628214D02*
X143532857Y-87485357D01*
X144461428Y-85842500D02*
X142961428Y-85342500D01*
X144461428Y-84842500D01*
X143104285Y-83485357D02*
X143032857Y-83556785D01*
X142961428Y-83771071D01*
X142961428Y-83913928D01*
X143032857Y-84128214D01*
X143175714Y-84271071D01*
X143318571Y-84342500D01*
X143604285Y-84413928D01*
X143818571Y-84413928D01*
X144104285Y-84342500D01*
X144247142Y-84271071D01*
X144390000Y-84128214D01*
X144461428Y-83913928D01*
X144461428Y-83771071D01*
X144390000Y-83556785D01*
X144318571Y-83485357D01*
X143104285Y-81985357D02*
X143032857Y-82056785D01*
X142961428Y-82271071D01*
X142961428Y-82413928D01*
X143032857Y-82628214D01*
X143175714Y-82771071D01*
X143318571Y-82842500D01*
X143604285Y-82913928D01*
X143818571Y-82913928D01*
X144104285Y-82842500D01*
X144247142Y-82771071D01*
X144390000Y-82628214D01*
X144461428Y-82413928D01*
X144461428Y-82271071D01*
X144390000Y-82056785D01*
X144318571Y-81985357D01*
D10*
X166262500Y-69080357D02*
X166262500Y-67880357D01*
X165748214Y-69080357D02*
X165748214Y-68451785D01*
X165805357Y-68337500D01*
X165919642Y-68280357D01*
X166091071Y-68280357D01*
X166205357Y-68337500D01*
X166262500Y-68394642D01*
X165348214Y-68280357D02*
X164891071Y-68280357D01*
X165176785Y-67880357D02*
X165176785Y-68908928D01*
X165119642Y-69023214D01*
X165005357Y-69080357D01*
X164891071Y-69080357D01*
X164662500Y-68280357D02*
X164205357Y-68280357D01*
X164491071Y-67880357D02*
X164491071Y-68908928D01*
X164433928Y-69023214D01*
X164319642Y-69080357D01*
X164205357Y-69080357D01*
X163805357Y-68280357D02*
X163805357Y-69480357D01*
X163805357Y-68337500D02*
X163691071Y-68280357D01*
X163462500Y-68280357D01*
X163348214Y-68337500D01*
X163291071Y-68394642D01*
X163233928Y-68508928D01*
X163233928Y-68851785D01*
X163291071Y-68966071D01*
X163348214Y-69023214D01*
X163462500Y-69080357D01*
X163691071Y-69080357D01*
X163805357Y-69023214D01*
X162719642Y-68966071D02*
X162662500Y-69023214D01*
X162719642Y-69080357D01*
X162776785Y-69023214D01*
X162719642Y-68966071D01*
X162719642Y-69080357D01*
X162719642Y-68337500D02*
X162662500Y-68394642D01*
X162719642Y-68451785D01*
X162776785Y-68394642D01*
X162719642Y-68337500D01*
X162719642Y-68451785D01*
X161291071Y-67823214D02*
X162319642Y-69366071D01*
X160033928Y-67823214D02*
X161062500Y-69366071D01*
X159805357Y-68280357D02*
X159348214Y-68280357D01*
X159633928Y-67880357D02*
X159633928Y-68908928D01*
X159576785Y-69023214D01*
X159462500Y-69080357D01*
X159348214Y-69080357D01*
X158491071Y-69023214D02*
X158605357Y-69080357D01*
X158833928Y-69080357D01*
X158948214Y-69023214D01*
X159005357Y-68908928D01*
X159005357Y-68451785D01*
X158948214Y-68337500D01*
X158833928Y-68280357D01*
X158605357Y-68280357D01*
X158491071Y-68337500D01*
X158433928Y-68451785D01*
X158433928Y-68566071D01*
X159005357Y-68680357D01*
X157919642Y-69080357D02*
X157919642Y-68280357D01*
X157919642Y-68394642D02*
X157862500Y-68337500D01*
X157748214Y-68280357D01*
X157576785Y-68280357D01*
X157462500Y-68337500D01*
X157405357Y-68451785D01*
X157405357Y-69080357D01*
X157405357Y-68451785D02*
X157348214Y-68337500D01*
X157233928Y-68280357D01*
X157062500Y-68280357D01*
X156948214Y-68337500D01*
X156891071Y-68451785D01*
X156891071Y-69080357D01*
X156319642Y-68280357D02*
X156319642Y-69480357D01*
X156319642Y-68337500D02*
X156205357Y-68280357D01*
X155976785Y-68280357D01*
X155862500Y-68337500D01*
X155805357Y-68394642D01*
X155748214Y-68508928D01*
X155748214Y-68851785D01*
X155805357Y-68966071D01*
X155862500Y-69023214D01*
X155976785Y-69080357D01*
X156205357Y-69080357D01*
X156319642Y-69023214D01*
X155233928Y-68623214D02*
X154319642Y-68623214D01*
X153119642Y-69080357D02*
X153805357Y-69080357D01*
X153462500Y-69080357D02*
X153462500Y-67880357D01*
X153576785Y-68051785D01*
X153691071Y-68166071D01*
X153805357Y-68223214D01*
X152719642Y-68280357D02*
X152491071Y-69080357D01*
X152262500Y-68508928D01*
X152033928Y-69080357D01*
X151805357Y-68280357D01*
X151176785Y-68394642D02*
X151291071Y-68337500D01*
X151348214Y-68280357D01*
X151405357Y-68166071D01*
X151405357Y-68108928D01*
X151348214Y-67994642D01*
X151291071Y-67937500D01*
X151176785Y-67880357D01*
X150948214Y-67880357D01*
X150833928Y-67937500D01*
X150776785Y-67994642D01*
X150719642Y-68108928D01*
X150719642Y-68166071D01*
X150776785Y-68280357D01*
X150833928Y-68337500D01*
X150948214Y-68394642D01*
X151176785Y-68394642D01*
X151291071Y-68451785D01*
X151348214Y-68508928D01*
X151405357Y-68623214D01*
X151405357Y-68851785D01*
X151348214Y-68966071D01*
X151291071Y-69023214D01*
X151176785Y-69080357D01*
X150948214Y-69080357D01*
X150833928Y-69023214D01*
X150776785Y-68966071D01*
X150719642Y-68851785D01*
X150719642Y-68623214D01*
X150776785Y-68508928D01*
X150833928Y-68451785D01*
X150948214Y-68394642D01*
X150205357Y-68623214D02*
X149291071Y-68623214D01*
X148719642Y-68280357D02*
X148719642Y-69480357D01*
X148719642Y-68337500D02*
X148605357Y-68280357D01*
X148376785Y-68280357D01*
X148262500Y-68337500D01*
X148205357Y-68394642D01*
X148148214Y-68508928D01*
X148148214Y-68851785D01*
X148205357Y-68966071D01*
X148262500Y-69023214D01*
X148376785Y-69080357D01*
X148605357Y-69080357D01*
X148719642Y-69023214D01*
X147633928Y-69080357D02*
X147633928Y-68280357D01*
X147633928Y-68508928D02*
X147576785Y-68394642D01*
X147519642Y-68337500D01*
X147405357Y-68280357D01*
X147291071Y-68280357D01*
X146719642Y-69080357D02*
X146833928Y-69023214D01*
X146891071Y-68966071D01*
X146948214Y-68851785D01*
X146948214Y-68508928D01*
X146891071Y-68394642D01*
X146833928Y-68337500D01*
X146719642Y-68280357D01*
X146548214Y-68280357D01*
X146433928Y-68337500D01*
X146376785Y-68394642D01*
X146319642Y-68508928D01*
X146319642Y-68851785D01*
X146376785Y-68966071D01*
X146433928Y-69023214D01*
X146548214Y-69080357D01*
X146719642Y-69080357D01*
X145805357Y-68966071D02*
X145748214Y-69023214D01*
X145805357Y-69080357D01*
X145862500Y-69023214D01*
X145805357Y-68966071D01*
X145805357Y-69080357D01*
X145233928Y-69080357D02*
X145233928Y-68280357D01*
X145233928Y-68394642D02*
X145176785Y-68337500D01*
X145062500Y-68280357D01*
X144891071Y-68280357D01*
X144776785Y-68337500D01*
X144719642Y-68451785D01*
X144719642Y-69080357D01*
X144719642Y-68451785D02*
X144662500Y-68337500D01*
X144548214Y-68280357D01*
X144376785Y-68280357D01*
X144262500Y-68337500D01*
X144205357Y-68451785D01*
X144205357Y-69080357D01*
X143119642Y-69080357D02*
X143119642Y-68451785D01*
X143176785Y-68337500D01*
X143291071Y-68280357D01*
X143519642Y-68280357D01*
X143633928Y-68337500D01*
X143119642Y-69023214D02*
X143233928Y-69080357D01*
X143519642Y-69080357D01*
X143633928Y-69023214D01*
X143691071Y-68908928D01*
X143691071Y-68794642D01*
X143633928Y-68680357D01*
X143519642Y-68623214D01*
X143233928Y-68623214D01*
X143119642Y-68566071D01*
X142548214Y-69080357D02*
X142548214Y-67880357D01*
X142433928Y-68623214D02*
X142091071Y-69080357D01*
X142091071Y-68280357D02*
X142548214Y-68737500D01*
X141119642Y-69023214D02*
X141233928Y-69080357D01*
X141462500Y-69080357D01*
X141576785Y-69023214D01*
X141633928Y-68908928D01*
X141633928Y-68451785D01*
X141576785Y-68337500D01*
X141462500Y-68280357D01*
X141233928Y-68280357D01*
X141119642Y-68337500D01*
X141062500Y-68451785D01*
X141062500Y-68566071D01*
X141633928Y-68680357D01*
X140548214Y-69080357D02*
X140548214Y-68280357D01*
X140548214Y-68508928D02*
X140491071Y-68394642D01*
X140433928Y-68337500D01*
X140319642Y-68280357D01*
X140205357Y-68280357D01*
X139862500Y-69023214D02*
X139748214Y-69080357D01*
X139519642Y-69080357D01*
X139405357Y-69023214D01*
X139348214Y-68908928D01*
X139348214Y-68851785D01*
X139405357Y-68737500D01*
X139519642Y-68680357D01*
X139691071Y-68680357D01*
X139805357Y-68623214D01*
X139862500Y-68508928D01*
X139862500Y-68451785D01*
X139805357Y-68337500D01*
X139691071Y-68280357D01*
X139519642Y-68280357D01*
X139405357Y-68337500D01*
X138833928Y-68280357D02*
X138833928Y-69480357D01*
X138833928Y-68337500D02*
X138719642Y-68280357D01*
X138491071Y-68280357D01*
X138376785Y-68337500D01*
X138319642Y-68394642D01*
X138262500Y-68508928D01*
X138262500Y-68851785D01*
X138319642Y-68966071D01*
X138376785Y-69023214D01*
X138491071Y-69080357D01*
X138719642Y-69080357D01*
X138833928Y-69023214D01*
X137233928Y-69080357D02*
X137233928Y-68451785D01*
X137291071Y-68337500D01*
X137405357Y-68280357D01*
X137633928Y-68280357D01*
X137748214Y-68337500D01*
X137233928Y-69023214D02*
X137348214Y-69080357D01*
X137633928Y-69080357D01*
X137748214Y-69023214D01*
X137805357Y-68908928D01*
X137805357Y-68794642D01*
X137748214Y-68680357D01*
X137633928Y-68623214D01*
X137348214Y-68623214D01*
X137233928Y-68566071D01*
X136148214Y-69023214D02*
X136262500Y-69080357D01*
X136491071Y-69080357D01*
X136605357Y-69023214D01*
X136662500Y-68966071D01*
X136719642Y-68851785D01*
X136719642Y-68508928D01*
X136662500Y-68394642D01*
X136605357Y-68337500D01*
X136491071Y-68280357D01*
X136262500Y-68280357D01*
X136148214Y-68337500D01*
X135176785Y-69023214D02*
X135291071Y-69080357D01*
X135519642Y-69080357D01*
X135633928Y-69023214D01*
X135691071Y-68908928D01*
X135691071Y-68451785D01*
X135633928Y-68337500D01*
X135519642Y-68280357D01*
X135291071Y-68280357D01*
X135176785Y-68337500D01*
X135119642Y-68451785D01*
X135119642Y-68566071D01*
X135691071Y-68680357D01*
X134605357Y-68966071D02*
X134548214Y-69023214D01*
X134605357Y-69080357D01*
X134662500Y-69023214D01*
X134605357Y-68966071D01*
X134605357Y-69080357D01*
X133862500Y-69080357D02*
X133976785Y-69023214D01*
X134033928Y-68908928D01*
X134033928Y-67880357D01*
X133576785Y-68280357D02*
X133119642Y-68280357D01*
X133405357Y-67880357D02*
X133405357Y-68908928D01*
X133348214Y-69023214D01*
X133233928Y-69080357D01*
X133119642Y-69080357D01*
X131862500Y-67823214D02*
X132891071Y-69366071D01*
X131576785Y-68280357D02*
X131291071Y-69080357D01*
X131005357Y-68280357D01*
X129919642Y-69080357D02*
X130605357Y-69080357D01*
X130262500Y-69080357D02*
X130262500Y-67880357D01*
X130376785Y-68051785D01*
X130491071Y-68166071D01*
X130605357Y-68223214D01*
X129405357Y-68966071D02*
X129348214Y-69023214D01*
X129405357Y-69080357D01*
X129462500Y-69023214D01*
X129405357Y-68966071D01*
X129405357Y-69080357D01*
X128205357Y-69080357D02*
X128891071Y-69080357D01*
X128548214Y-69080357D02*
X128548214Y-67880357D01*
X128662500Y-68051785D01*
X128776785Y-68166071D01*
X128891071Y-68223214D01*
G36*
X129401889Y-117033092D02*
G01*
X129509843Y-116677216D01*
X129685150Y-116349239D01*
X129921074Y-116061765D01*
X130208549Y-115825841D01*
X130536526Y-115650533D01*
X130892401Y-115542580D01*
X131262500Y-115506128D01*
X131632599Y-115542580D01*
X131988474Y-115650533D01*
X132316451Y-115825841D01*
X132603926Y-116061765D01*
X132839850Y-116349239D01*
X133015157Y-116677216D01*
X133123111Y-117033092D01*
X133159562Y-117403191D01*
X133159563Y-117403191D01*
X133159563Y-126671809D01*
X133159562Y-126671809D01*
X133123111Y-127041908D01*
X133015157Y-127397784D01*
X132839850Y-127725761D01*
X132603926Y-128013235D01*
X132316451Y-128249159D01*
X131988474Y-128424467D01*
X131632599Y-128532420D01*
X131262500Y-128568872D01*
X130892401Y-128532420D01*
X130536526Y-128424467D01*
X130208549Y-128249159D01*
X129921074Y-128013235D01*
X129685150Y-127725761D01*
X129509843Y-127397784D01*
X129401889Y-127041908D01*
X129365438Y-126671809D01*
X129365438Y-125847500D01*
X129814700Y-125847500D01*
X130164744Y-125965372D01*
X130557650Y-126090388D01*
X130833610Y-126174525D01*
X131109042Y-126255488D01*
X131383944Y-126333275D01*
X131653554Y-126406829D01*
X131913110Y-126475092D01*
X132162613Y-126538063D01*
X132495988Y-126616644D01*
X132762688Y-126671413D01*
X132762688Y-126052288D01*
X132515633Y-126016569D01*
X132231669Y-125966563D01*
X131924488Y-125906436D01*
X131607781Y-125840356D01*
X131288694Y-125768919D01*
X130974369Y-125692719D01*
X130678498Y-125614733D01*
X130414775Y-125537938D01*
X130674927Y-125461738D01*
X130969606Y-125385538D01*
X131283931Y-125311719D01*
X131603019Y-125242663D01*
X131920320Y-125178369D01*
X132229288Y-125118838D01*
X132515038Y-125066450D01*
X132762688Y-125023588D01*
X132762688Y-124409225D01*
X132460269Y-124472923D01*
X132124513Y-124549719D01*
X131763158Y-124639016D01*
X131383944Y-124740219D01*
X131123594Y-124814038D01*
X130860069Y-124892619D01*
X130593369Y-124975963D01*
X130327992Y-125062746D01*
X130068435Y-125151646D01*
X129814700Y-125242663D01*
X129814700Y-125847500D01*
X129365438Y-125847500D01*
X129365438Y-123956788D01*
X129814700Y-123956788D01*
X130300475Y-123956788D01*
X130300475Y-123337663D01*
X131948300Y-123337663D01*
X131779231Y-123642463D01*
X131662550Y-123932975D01*
X132148325Y-124123475D01*
X132257862Y-123875825D01*
X132405500Y-123609125D01*
X132576950Y-123356713D01*
X132762688Y-123151925D01*
X132762688Y-122751875D01*
X130300475Y-122751875D01*
X130300475Y-122166088D01*
X129814700Y-122166088D01*
X129814700Y-123956788D01*
X129365438Y-123956788D01*
X129365438Y-120775438D01*
X129762313Y-120775438D01*
X129790887Y-120937363D01*
X129874231Y-121073094D01*
X130007581Y-121168344D01*
X130190938Y-121204063D01*
X130369531Y-121168344D01*
X130500500Y-121073094D01*
X130581463Y-120937363D01*
X130610037Y-120775438D01*
X130500500Y-120480163D01*
X130190938Y-120351575D01*
X129871850Y-120480163D01*
X129762313Y-120775438D01*
X129365438Y-120775438D01*
X129365438Y-119194288D01*
X129814700Y-119194288D01*
X130300475Y-119194288D01*
X130300475Y-118575163D01*
X131948300Y-118575163D01*
X131779231Y-118879963D01*
X131662550Y-119170475D01*
X132148325Y-119360975D01*
X132257862Y-119113325D01*
X132405500Y-118846625D01*
X132576950Y-118594213D01*
X132762688Y-118389425D01*
X132762688Y-117989375D01*
X130300475Y-117989375D01*
X130300475Y-117403588D01*
X129814700Y-117403588D01*
X129814700Y-119194288D01*
X129365438Y-119194288D01*
X129365438Y-117403191D01*
X129401889Y-117033092D01*
G37*
G36*
X154967883Y-73473305D02*
G01*
X155162550Y-73485806D01*
X155488781Y-73552481D01*
X155707856Y-73692975D01*
X155788819Y-73935863D01*
X155707856Y-74178750D01*
X155486400Y-74319244D01*
X155160169Y-74385919D01*
X154967287Y-74398420D01*
X154760119Y-74402588D01*
X154552355Y-74398420D01*
X154357687Y-74385919D01*
X154031456Y-74319244D01*
X153812381Y-74178750D01*
X153731419Y-73935863D01*
X153812381Y-73695356D01*
X154033837Y-73552481D01*
X154360069Y-73485806D01*
X154552950Y-73473305D01*
X154760119Y-73469138D01*
X154967883Y-73473305D01*
G37*
G36*
X152862186Y-72495432D02*
G01*
X152972443Y-72131962D01*
X153151491Y-71796986D01*
X153392450Y-71503378D01*
X153686058Y-71262419D01*
X154021034Y-71083371D01*
X154384504Y-70973114D01*
X154762500Y-70935884D01*
X155140496Y-70973114D01*
X155503966Y-71083371D01*
X155838942Y-71262419D01*
X156132550Y-71503378D01*
X156373509Y-71796986D01*
X156552557Y-72131962D01*
X156662814Y-72495432D01*
X156700044Y-72873428D01*
X156700044Y-101201572D01*
X156662814Y-101579568D01*
X156552557Y-101943038D01*
X156373509Y-102278014D01*
X156132550Y-102571622D01*
X155838942Y-102812581D01*
X155503966Y-102991629D01*
X155140496Y-103101886D01*
X154762500Y-103139116D01*
X154384504Y-103101886D01*
X154021034Y-102991629D01*
X153686058Y-102812581D01*
X153392450Y-102571622D01*
X153151491Y-102278014D01*
X152972443Y-101943038D01*
X152862186Y-101579568D01*
X152824956Y-101201572D01*
X152824956Y-100424888D01*
X153283744Y-100424888D01*
X155745956Y-100424888D01*
X155745956Y-101201175D01*
X156231731Y-101201175D01*
X156231731Y-99058050D01*
X155745956Y-99058050D01*
X155745956Y-99834338D01*
X153283744Y-99834338D01*
X153283744Y-100424888D01*
X152824956Y-100424888D01*
X152824956Y-98638950D01*
X153283744Y-98638950D01*
X156231731Y-98638950D01*
X156231731Y-96853013D01*
X155745956Y-96853013D01*
X155745956Y-98053163D01*
X155083969Y-98053163D01*
X155083969Y-97010175D01*
X154598194Y-97010175D01*
X154598194Y-98053163D01*
X153769519Y-98053163D01*
X153769519Y-96748238D01*
X153283744Y-96748238D01*
X153283744Y-98638950D01*
X152824956Y-98638950D01*
X152824956Y-94824188D01*
X153283744Y-94824188D01*
X155574506Y-94795613D01*
X154326731Y-95157563D01*
X154326731Y-95586188D01*
X155574506Y-95933850D01*
X153283744Y-95910038D01*
X153283744Y-96448200D01*
X153652837Y-96433317D01*
X154036219Y-96417244D01*
X154425553Y-96399980D01*
X154812506Y-96381525D01*
X155192316Y-96360689D01*
X155560219Y-96336281D01*
X155909072Y-96308302D01*
X156231731Y-96276750D01*
X156231731Y-95790975D01*
X155974556Y-95707631D01*
X155636419Y-95600475D01*
X155269706Y-95486175D01*
X154926806Y-95376638D01*
X155291137Y-95257575D01*
X155653087Y-95138513D01*
X155979319Y-95033738D01*
X156231731Y-94948013D01*
X156231731Y-94462238D01*
X155850731Y-94429495D01*
X155479256Y-94397944D01*
X155114330Y-94369369D01*
X154752975Y-94345556D01*
X154392216Y-94325911D01*
X154029075Y-94309838D01*
X153660577Y-94296741D01*
X153283744Y-94286025D01*
X153283744Y-94824188D01*
X152824956Y-94824188D01*
X152824956Y-93919313D01*
X153283744Y-93919313D01*
X156193631Y-93919313D01*
X156226969Y-93726431D01*
X156248400Y-93509738D01*
X156260306Y-93295425D01*
X156265069Y-93109688D01*
X156239404Y-92763083D01*
X156162410Y-92472571D01*
X156034087Y-92238150D01*
X155847556Y-92066171D01*
X155595937Y-91962983D01*
X155279231Y-91928588D01*
X154959350Y-91963248D01*
X154704556Y-92067229D01*
X154514850Y-92240531D01*
X154383881Y-92477333D01*
X154305300Y-92771815D01*
X154279106Y-93123975D01*
X154279106Y-93333525D01*
X153283744Y-93333525D01*
X153283744Y-93919313D01*
X152824956Y-93919313D01*
X152824956Y-91257075D01*
X154217194Y-91257075D01*
X154793456Y-91257075D01*
X154793456Y-89952150D01*
X154217194Y-89952150D01*
X154217194Y-91257075D01*
X152824956Y-91257075D01*
X152824956Y-89018700D01*
X153283744Y-89018700D01*
X153769519Y-89018700D01*
X153769519Y-88399575D01*
X155417344Y-88399575D01*
X155248275Y-88704375D01*
X155131594Y-88994888D01*
X155617369Y-89185388D01*
X155726906Y-88937738D01*
X155874544Y-88671038D01*
X156045994Y-88418625D01*
X156231731Y-88213838D01*
X156231731Y-87813788D01*
X153769519Y-87813788D01*
X153769519Y-87228000D01*
X153283744Y-87228000D01*
X153283744Y-89018700D01*
X152824956Y-89018700D01*
X152824956Y-85413488D01*
X153283744Y-85413488D01*
X153595092Y-85518263D01*
X153929062Y-85623038D01*
X154266605Y-85727813D01*
X154588669Y-85832588D01*
X154275534Y-85939744D01*
X153936206Y-86051663D01*
X153596878Y-86161200D01*
X153283744Y-86261213D01*
X153283744Y-86746988D01*
X153622477Y-86782706D01*
X153981450Y-86813663D01*
X154352925Y-86840452D01*
X154729162Y-86863669D01*
X155108972Y-86883314D01*
X155491162Y-86899388D01*
X155867995Y-86912484D01*
X156231731Y-86923200D01*
X156231731Y-86380275D01*
X155945981Y-86385038D01*
X155650706Y-86389800D01*
X155351264Y-86394563D01*
X155053012Y-86399325D01*
X154758928Y-86404088D01*
X154471987Y-86408850D01*
X154197548Y-86412422D01*
X153940969Y-86413613D01*
X154274344Y-86315981D01*
X154631531Y-86211206D01*
X154955381Y-86118338D01*
X155188744Y-86051663D01*
X155188744Y-85623038D01*
X154964906Y-85565888D01*
X154669631Y-85482544D01*
X154321969Y-85382531D01*
X153940969Y-85275375D01*
X154197548Y-85276566D01*
X154471987Y-85280138D01*
X154758333Y-85284900D01*
X155050631Y-85289663D01*
X155347692Y-85294425D01*
X155648325Y-85299188D01*
X155945386Y-85302759D01*
X156231731Y-85303950D01*
X156231731Y-84761025D01*
X155864423Y-84775313D01*
X155486400Y-84789600D01*
X155104209Y-84805078D01*
X154724400Y-84822938D01*
X154348758Y-84843773D01*
X153979069Y-84868181D01*
X153621881Y-84896161D01*
X153283744Y-84927713D01*
X153283744Y-85413488D01*
X152824956Y-85413488D01*
X152824956Y-83475150D01*
X153221831Y-83475150D01*
X153235523Y-83688867D01*
X153276600Y-83882344D01*
X153433762Y-84196669D01*
X153686175Y-84399075D01*
X154021931Y-84470513D01*
X154239220Y-84444319D01*
X154443412Y-84365738D01*
X154629745Y-84231197D01*
X154793456Y-84037125D01*
X154941094Y-84213337D01*
X155098256Y-84322875D01*
X155441156Y-84399075D01*
X155738812Y-84349069D01*
X156017419Y-84189525D01*
X156222206Y-83899013D01*
X156282928Y-83696606D01*
X156303169Y-83451338D01*
X156250781Y-83070933D01*
X156093619Y-82777444D01*
X155848350Y-82589920D01*
X155531644Y-82527413D01*
X155328642Y-82552416D01*
X155129212Y-82627425D01*
X154947642Y-82756013D01*
X154798219Y-82941750D01*
X154633913Y-82710173D01*
X154455319Y-82558369D01*
X154260056Y-82474430D01*
X154045744Y-82446450D01*
X153755231Y-82501219D01*
X153490912Y-82677431D01*
X153298031Y-82994138D01*
X153240881Y-83212022D01*
X153221831Y-83475150D01*
X152824956Y-83475150D01*
X152824956Y-81732075D01*
X154217194Y-81732075D01*
X154793456Y-81732075D01*
X154793456Y-80427150D01*
X154217194Y-80427150D01*
X154217194Y-81732075D01*
X152824956Y-81732075D01*
X152824956Y-79631813D01*
X153283744Y-79631813D01*
X156193631Y-79631813D01*
X156226969Y-79438931D01*
X156248400Y-79222238D01*
X156260306Y-79007925D01*
X156265069Y-78822188D01*
X156239404Y-78475583D01*
X156162410Y-78185071D01*
X156034087Y-77950650D01*
X155847556Y-77778671D01*
X155595937Y-77675483D01*
X155279231Y-77641088D01*
X154959350Y-77675748D01*
X154704556Y-77779729D01*
X154514850Y-77953031D01*
X154383881Y-78189833D01*
X154305300Y-78484315D01*
X154279106Y-78836475D01*
X154279106Y-79046025D01*
X153283744Y-79046025D01*
X153283744Y-79631813D01*
X152824956Y-79631813D01*
X152824956Y-75793238D01*
X153283744Y-75793238D01*
X153564136Y-75911705D01*
X153833812Y-76048031D01*
X154099917Y-76198645D01*
X154369594Y-76359975D01*
X154369594Y-76664775D01*
X153283744Y-76664775D01*
X153283744Y-77250563D01*
X156188869Y-77250563D01*
X156224587Y-77062444D01*
X156248400Y-76855275D01*
X156260306Y-76655250D01*
X156265069Y-76488563D01*
X156250781Y-76248056D01*
X156207919Y-76031363D01*
X156135291Y-75840863D01*
X156031706Y-75678938D01*
X155729287Y-75452719D01*
X155529858Y-75393783D01*
X155298281Y-75374138D01*
X155053012Y-75400331D01*
X154831556Y-75478913D01*
X154647009Y-75618216D01*
X154512469Y-75826575D01*
X154238625Y-75655125D01*
X153924300Y-75478913D01*
X153595687Y-75314606D01*
X153283744Y-75178875D01*
X153283744Y-75793238D01*
X152824956Y-75793238D01*
X152824956Y-73931100D01*
X153221831Y-73931100D01*
X153264958Y-74249923D01*
X153394340Y-74514242D01*
X153609975Y-74724056D01*
X153827413Y-74843863D01*
X154091583Y-74929439D01*
X154402485Y-74980785D01*
X154760119Y-74997900D01*
X155117753Y-74980338D01*
X155428655Y-74927653D01*
X155692825Y-74839845D01*
X155910262Y-74716913D01*
X156125898Y-74505246D01*
X156255279Y-74244896D01*
X156298406Y-73935863D01*
X156255279Y-73617304D01*
X156125898Y-73353779D01*
X155910262Y-73145288D01*
X155692825Y-73026523D01*
X155428655Y-72941691D01*
X155117753Y-72890791D01*
X154760119Y-72873825D01*
X154402485Y-72891089D01*
X154091583Y-72942881D01*
X153827413Y-73029202D01*
X153609975Y-73150050D01*
X153394340Y-73359600D01*
X153264958Y-73619950D01*
X153221831Y-73931100D01*
X152824956Y-73931100D01*
X152824956Y-72873428D01*
X152862186Y-72495432D01*
G37*
G36*
X154221956Y-83034619D02*
G01*
X154352925Y-83148919D01*
X154471987Y-83351325D01*
X154598194Y-83646600D01*
X154352925Y-83851388D01*
X154093369Y-83922825D01*
X153805237Y-83787094D01*
X153707606Y-83465625D01*
X153810000Y-83125106D01*
X154055269Y-82998900D01*
X154221956Y-83034619D01*
G37*
G36*
X155503664Y-92563786D02*
G01*
X155648325Y-92669156D01*
X155728692Y-92832867D01*
X155755481Y-93043013D01*
X155753100Y-93188269D01*
X155741194Y-93333525D01*
X154788694Y-93333525D01*
X154788694Y-93095400D01*
X154816673Y-92848941D01*
X154900612Y-92671538D01*
X155052417Y-92564381D01*
X155283994Y-92528663D01*
X155503664Y-92563786D01*
G37*
G36*
X155503664Y-78276286D02*
G01*
X155648325Y-78381656D01*
X155728692Y-78545367D01*
X155755481Y-78755513D01*
X155753100Y-78900769D01*
X155741194Y-79046025D01*
X154788694Y-79046025D01*
X154788694Y-78807900D01*
X154816673Y-78561441D01*
X154900612Y-78384038D01*
X155052417Y-78276881D01*
X155283994Y-78241163D01*
X155503664Y-78276286D01*
G37*
G36*
X155734050Y-83191781D02*
G01*
X155817394Y-83460863D01*
X155731669Y-83729944D01*
X155479256Y-83846625D01*
X155207794Y-83737088D01*
X155100637Y-83585878D01*
X154988719Y-83351325D01*
X155229225Y-83141775D01*
X155484019Y-83079863D01*
X155734050Y-83191781D01*
G37*
G36*
X155505450Y-76005169D02*
G01*
X155645944Y-76112325D01*
X155728097Y-76277822D01*
X155755481Y-76488563D01*
X155753100Y-76569525D01*
X155741194Y-76664775D01*
X154855369Y-76664775D01*
X154855369Y-76536188D01*
X154884539Y-76277822D01*
X154972050Y-76102800D01*
X155303044Y-75969450D01*
X155505450Y-76005169D01*
G37*
G36*
X144962500Y-118837500D02*
G01*
X144962500Y-118337500D01*
X145462500Y-118337500D01*
X146962500Y-118337500D01*
X146962500Y-116837500D01*
X145462500Y-116837500D01*
X145462500Y-118337500D01*
X144962500Y-118337500D01*
X144962500Y-116337500D01*
X147462500Y-116337500D01*
X147462500Y-118837500D01*
X144962500Y-118837500D01*
G37*
G36*
X146962500Y-127837500D02*
G01*
X146962500Y-127087500D01*
X147462500Y-127087500D01*
X147463556Y-127133571D01*
X147522199Y-127296197D01*
X147712500Y-127337500D01*
X147758572Y-127336444D01*
X147921198Y-127277801D01*
X147962500Y-127087500D01*
X147961445Y-127041428D01*
X147902802Y-126878802D01*
X147712500Y-126837500D01*
X147666429Y-126838555D01*
X147503803Y-126897198D01*
X147462500Y-127087500D01*
X146962500Y-127087500D01*
X146962500Y-126337500D01*
X148462500Y-126337500D01*
X148462500Y-127837500D01*
X146962500Y-127837500D01*
G37*
G36*
X145258572Y-128838555D02*
G01*
X145421198Y-128897198D01*
X145462500Y-129087500D01*
X145461445Y-129133571D01*
X145402802Y-129296197D01*
X145212500Y-129337500D01*
X145166429Y-129336444D01*
X145003803Y-129277801D01*
X144962500Y-129087500D01*
X144963556Y-129041428D01*
X145022199Y-128878802D01*
X145212500Y-128837500D01*
X145258572Y-128838555D01*
G37*
G36*
X149860873Y-128821288D02*
G01*
X149712500Y-128837500D01*
X149612170Y-128842236D01*
X149511971Y-128892715D01*
X149470606Y-129040755D01*
X149462500Y-129337500D01*
X149460132Y-129538161D01*
X149434893Y-129738558D01*
X149360873Y-129821288D01*
X149212500Y-129837500D01*
X149112170Y-129832763D01*
X149011971Y-129782284D01*
X148970606Y-129634244D01*
X148962500Y-129337500D01*
X148960132Y-129136838D01*
X148934893Y-128936441D01*
X148860873Y-128853711D01*
X148712500Y-128837500D01*
X148612170Y-128842236D01*
X148511971Y-128892715D01*
X148470606Y-129040755D01*
X148462500Y-129337500D01*
X148460132Y-129538161D01*
X148434893Y-129738558D01*
X148360873Y-129821288D01*
X148212500Y-129837500D01*
X148166429Y-129836444D01*
X148003803Y-129777801D01*
X147962500Y-129587500D01*
X147961445Y-129541428D01*
X147902802Y-129378802D01*
X147712500Y-129337500D01*
X147612170Y-129332763D01*
X147511971Y-129282284D01*
X147470606Y-129134244D01*
X147462500Y-128837500D01*
X147464869Y-128636838D01*
X147490108Y-128436441D01*
X147564128Y-128353711D01*
X147712500Y-128337500D01*
X147758572Y-128338555D01*
X147921198Y-128397198D01*
X147962500Y-128587500D01*
X147963556Y-128633571D01*
X148022199Y-128796197D01*
X148212500Y-128837500D01*
X148258572Y-128836444D01*
X148421198Y-128777801D01*
X148462500Y-128587500D01*
X148962500Y-128587500D01*
X148963556Y-128633571D01*
X149022199Y-128796197D01*
X149212500Y-128837500D01*
X149258572Y-128836444D01*
X149421198Y-128777801D01*
X149462500Y-128587500D01*
X149461445Y-128541428D01*
X149402802Y-128378802D01*
X149212500Y-128337500D01*
X149166429Y-128338555D01*
X149003803Y-128397198D01*
X148962500Y-128587500D01*
X148462500Y-128587500D01*
X148463556Y-128541428D01*
X148522199Y-128378802D01*
X148712500Y-128337500D01*
X148812831Y-128332763D01*
X148913030Y-128282284D01*
X148954395Y-128134244D01*
X148962500Y-127837500D01*
X148964869Y-127636838D01*
X148990108Y-127436441D01*
X149064128Y-127353711D01*
X149212500Y-127337500D01*
X149258572Y-127338555D01*
X149421198Y-127397198D01*
X149462500Y-127587500D01*
X149463556Y-127633571D01*
X149522199Y-127796197D01*
X149712500Y-127837500D01*
X149812831Y-127842236D01*
X149913030Y-127892715D01*
X149954395Y-128040755D01*
X149962500Y-128337500D01*
X149960132Y-128538161D01*
X149953918Y-128587500D01*
X149934893Y-128738558D01*
X149860873Y-128821288D01*
G37*
G36*
X151258572Y-116838555D02*
G01*
X151421198Y-116897198D01*
X151462500Y-117087500D01*
X151461445Y-117133571D01*
X151402802Y-117296197D01*
X151212500Y-117337500D01*
X151166429Y-117336444D01*
X151003803Y-117277801D01*
X150962500Y-117087500D01*
X150963556Y-117041428D01*
X151022199Y-116878802D01*
X151212500Y-116837500D01*
X151258572Y-116838555D01*
G37*
G36*
X149902802Y-124296197D02*
G01*
X149712500Y-124337500D01*
X149612170Y-124342236D01*
X149511971Y-124392715D01*
X149470606Y-124540755D01*
X149462500Y-124837500D01*
X149464869Y-125038161D01*
X149490108Y-125238558D01*
X149564128Y-125321288D01*
X149712500Y-125337500D01*
X149758572Y-125336444D01*
X149921198Y-125277801D01*
X149962500Y-125087500D01*
X149963556Y-125041428D01*
X150022199Y-124878802D01*
X150212500Y-124837500D01*
X150258572Y-124838555D01*
X150421198Y-124897198D01*
X150462500Y-125087500D01*
X150461445Y-125133571D01*
X150402802Y-125296197D01*
X150212500Y-125337500D01*
X150124692Y-125340257D01*
X150032669Y-125374525D01*
X149984325Y-125482403D01*
X149965616Y-125706018D01*
X149962500Y-126087500D01*
X149963420Y-126350925D01*
X149974842Y-126626993D01*
X150010802Y-126772027D01*
X150085340Y-126828153D01*
X150212500Y-126837500D01*
X150258572Y-126838555D01*
X150421198Y-126897198D01*
X150462500Y-127087500D01*
X150461445Y-127133571D01*
X150402802Y-127296197D01*
X150212500Y-127337500D01*
X150166429Y-127336444D01*
X150003803Y-127277801D01*
X149962500Y-127087500D01*
X149957764Y-126987169D01*
X149907285Y-126886970D01*
X149759245Y-126845605D01*
X149462500Y-126837500D01*
X148962500Y-126837500D01*
X148962500Y-126337500D01*
X148960132Y-126136838D01*
X148934893Y-125936441D01*
X148860873Y-125853711D01*
X148712500Y-125837500D01*
X148666429Y-125836444D01*
X148503803Y-125777801D01*
X148462500Y-125587500D01*
X148461445Y-125541428D01*
X148402802Y-125378802D01*
X148212500Y-125337500D01*
X148462500Y-125337500D01*
X148712500Y-125337500D01*
X148812831Y-125332763D01*
X148913030Y-125282284D01*
X148954395Y-125134244D01*
X148962500Y-124837500D01*
X148964869Y-124636838D01*
X148990108Y-124436441D01*
X149064128Y-124353711D01*
X149212500Y-124337500D01*
X149258572Y-124336444D01*
X149421198Y-124277801D01*
X149462500Y-124087500D01*
X149461445Y-124041428D01*
X149402802Y-123878802D01*
X149212500Y-123837500D01*
X149166429Y-123836444D01*
X149003803Y-123777801D01*
X148962500Y-123587500D01*
X148961445Y-123541428D01*
X148902802Y-123378802D01*
X148712500Y-123337500D01*
X148462500Y-123337500D01*
X148462500Y-125337500D01*
X148212500Y-125337500D01*
X148166429Y-125338555D01*
X148003803Y-125397198D01*
X147962500Y-125587500D01*
X147957764Y-125687830D01*
X147907285Y-125788029D01*
X147759245Y-125829394D01*
X147462500Y-125837500D01*
X147261839Y-125835131D01*
X147061442Y-125809892D01*
X146978712Y-125735872D01*
X146962500Y-125587500D01*
X146963556Y-125541428D01*
X147022199Y-125378802D01*
X147212500Y-125337500D01*
X147258572Y-125336444D01*
X147421198Y-125277801D01*
X147462500Y-125087500D01*
X147459743Y-124999691D01*
X147425475Y-124907668D01*
X147317597Y-124859324D01*
X147093982Y-124840615D01*
X146712500Y-124837500D01*
X146449075Y-124836580D01*
X146173007Y-124825158D01*
X146027973Y-124789198D01*
X145971847Y-124714660D01*
X145962500Y-124587500D01*
X145961445Y-124541428D01*
X145902802Y-124378802D01*
X145712500Y-124337500D01*
X145666429Y-124338555D01*
X145503803Y-124397198D01*
X145462500Y-124587500D01*
X145461445Y-124633571D01*
X145402802Y-124796197D01*
X145212500Y-124837500D01*
X145166429Y-124836444D01*
X145003803Y-124777801D01*
X144962500Y-124587500D01*
X144963556Y-124541428D01*
X145022199Y-124378802D01*
X145212500Y-124337500D01*
X145300309Y-124334742D01*
X145392332Y-124300474D01*
X145440676Y-124192596D01*
X145459385Y-123968981D01*
X145462500Y-123587500D01*
X145962500Y-123587500D01*
X145963556Y-123633571D01*
X146022199Y-123796197D01*
X146212500Y-123837500D01*
X146258572Y-123836444D01*
X146421198Y-123777801D01*
X146462500Y-123587500D01*
X146463556Y-123541428D01*
X146522199Y-123378802D01*
X146712500Y-123337500D01*
X146758572Y-123336444D01*
X146921198Y-123277801D01*
X146962500Y-123087500D01*
X146961445Y-123041428D01*
X146902802Y-122878802D01*
X146712500Y-122837500D01*
X146666429Y-122838555D01*
X146503803Y-122897198D01*
X146462500Y-123087500D01*
X146461445Y-123133571D01*
X146402802Y-123296197D01*
X146212500Y-123337500D01*
X146166429Y-123338555D01*
X146003803Y-123397198D01*
X145962500Y-123587500D01*
X145462500Y-123587500D01*
X145461581Y-123324074D01*
X145450159Y-123048006D01*
X145414199Y-122902972D01*
X145339661Y-122846846D01*
X145212500Y-122837500D01*
X145166429Y-122836444D01*
X145003803Y-122777801D01*
X144962500Y-122587500D01*
X144963556Y-122541428D01*
X145022199Y-122378802D01*
X145212500Y-122337500D01*
X145312831Y-122332763D01*
X145413030Y-122282284D01*
X145454395Y-122134244D01*
X145462500Y-121837500D01*
X145464869Y-121636838D01*
X145490108Y-121436441D01*
X145564128Y-121353711D01*
X145712500Y-121337500D01*
X145758572Y-121336444D01*
X145921198Y-121277801D01*
X145962500Y-121087500D01*
X145963556Y-121041428D01*
X146022199Y-120878802D01*
X146212500Y-120837500D01*
X146258572Y-120838555D01*
X146421198Y-120897198D01*
X146462500Y-121087500D01*
X146461445Y-121133571D01*
X146402802Y-121296197D01*
X146212500Y-121337500D01*
X146112170Y-121342236D01*
X146011971Y-121392715D01*
X145970606Y-121540755D01*
X145962500Y-121837500D01*
X145960132Y-122038161D01*
X145934893Y-122238558D01*
X145860873Y-122321288D01*
X145712500Y-122337500D01*
X145666429Y-122338555D01*
X145503803Y-122397198D01*
X145462500Y-122587500D01*
X145467237Y-122687830D01*
X145517716Y-122788029D01*
X145665756Y-122829394D01*
X145962500Y-122837500D01*
X146462500Y-122837500D01*
X146462500Y-122337500D01*
X146464869Y-122136838D01*
X146490108Y-121936441D01*
X146564128Y-121853711D01*
X146712500Y-121837500D01*
X146758572Y-121836444D01*
X146921198Y-121777801D01*
X146962500Y-121587500D01*
X146967237Y-121487169D01*
X147017716Y-121386970D01*
X147165756Y-121345605D01*
X147462500Y-121337500D01*
X147962500Y-121337500D01*
X147962500Y-120837500D01*
X147964869Y-120636838D01*
X147990108Y-120436441D01*
X148064128Y-120353711D01*
X148212500Y-120337500D01*
X148300309Y-120340257D01*
X148392332Y-120374525D01*
X148440676Y-120482403D01*
X148459385Y-120706018D01*
X148462500Y-121087500D01*
X148462500Y-121837500D01*
X147962500Y-121837500D01*
X147761839Y-121839868D01*
X147561442Y-121865107D01*
X147478712Y-121939127D01*
X147462500Y-122087500D01*
X147461445Y-122133571D01*
X147402802Y-122296197D01*
X147212500Y-122337500D01*
X147166429Y-122338555D01*
X147003803Y-122397198D01*
X146962500Y-122587500D01*
X146963556Y-122633571D01*
X147022199Y-122796197D01*
X147212500Y-122837500D01*
X147258572Y-122838555D01*
X147421198Y-122897198D01*
X147462500Y-123087500D01*
X147461445Y-123133571D01*
X147402802Y-123296197D01*
X147212500Y-123337500D01*
X147112170Y-123342236D01*
X147011971Y-123392715D01*
X146970606Y-123540755D01*
X146962500Y-123837500D01*
X146964869Y-124038161D01*
X146990108Y-124238558D01*
X147064128Y-124321288D01*
X147212500Y-124337500D01*
X147258572Y-124338555D01*
X147421198Y-124397198D01*
X147462500Y-124587500D01*
X147463556Y-124633571D01*
X147522199Y-124796197D01*
X147712500Y-124837500D01*
X147800309Y-124834742D01*
X147892332Y-124800474D01*
X147940676Y-124692596D01*
X147959385Y-124468981D01*
X147962500Y-124087500D01*
X147963420Y-123824074D01*
X147974842Y-123548006D01*
X148010802Y-123402972D01*
X148085340Y-123346846D01*
X148212500Y-123337500D01*
X148258572Y-123336444D01*
X148421198Y-123277801D01*
X148462500Y-123087500D01*
X148461445Y-123041428D01*
X148402802Y-122878802D01*
X148212500Y-122837500D01*
X148166429Y-122836444D01*
X148003803Y-122777801D01*
X147962500Y-122587500D01*
X147965258Y-122499691D01*
X147999526Y-122407668D01*
X148107404Y-122359324D01*
X148331019Y-122340615D01*
X148712500Y-122337500D01*
X148975926Y-122336580D01*
X149251994Y-122325158D01*
X149397028Y-122289198D01*
X149453154Y-122214660D01*
X149462500Y-122087500D01*
X149461445Y-122041428D01*
X149402802Y-121878802D01*
X149212500Y-121837500D01*
X149124692Y-121834742D01*
X149032669Y-121800474D01*
X148984325Y-121692596D01*
X148965616Y-121468981D01*
X148962500Y-121087500D01*
X148963420Y-120824074D01*
X148974842Y-120548006D01*
X149010802Y-120402972D01*
X149085340Y-120346846D01*
X149212500Y-120337500D01*
X149258572Y-120336444D01*
X149421198Y-120277801D01*
X149462500Y-120087500D01*
X149463556Y-120041428D01*
X149522199Y-119878802D01*
X149712500Y-119837500D01*
X149758572Y-119838555D01*
X149921198Y-119897198D01*
X149962500Y-120087500D01*
X149961445Y-120133571D01*
X149902802Y-120296197D01*
X149712500Y-120337500D01*
X149612170Y-120342236D01*
X149511971Y-120392715D01*
X149470606Y-120540755D01*
X149462500Y-120837500D01*
X149464869Y-121038161D01*
X149490108Y-121238558D01*
X149564128Y-121321288D01*
X149712500Y-121337500D01*
X149812831Y-121342236D01*
X149913030Y-121392715D01*
X149954395Y-121540755D01*
X149962500Y-121837500D01*
X149960132Y-122038161D01*
X149934893Y-122238558D01*
X149860873Y-122321288D01*
X149712500Y-122337500D01*
X149624692Y-122340257D01*
X149532669Y-122374525D01*
X149484325Y-122482403D01*
X149465616Y-122706018D01*
X149462500Y-123087500D01*
X149463420Y-123350925D01*
X149474842Y-123626993D01*
X149510802Y-123772027D01*
X149585340Y-123828153D01*
X149712500Y-123837500D01*
X149758572Y-123838555D01*
X149921198Y-123897198D01*
X149962500Y-124087500D01*
X149961445Y-124133571D01*
X149902802Y-124296197D01*
G37*
G36*
X155962500Y-118837500D02*
G01*
X155962500Y-118337500D01*
X156462500Y-118337500D01*
X157962500Y-118337500D01*
X157962500Y-116837500D01*
X156462500Y-116837500D01*
X156462500Y-118337500D01*
X155962500Y-118337500D01*
X155962500Y-116337500D01*
X158462500Y-116337500D01*
X158462500Y-118837500D01*
X155962500Y-118837500D01*
G37*
G36*
X149258572Y-118838555D02*
G01*
X149421198Y-118897198D01*
X149462500Y-119087500D01*
X149461445Y-119133571D01*
X149402802Y-119296197D01*
X149212500Y-119337500D01*
X149166429Y-119336444D01*
X149003803Y-119277801D01*
X148962500Y-119087500D01*
X148963556Y-119041428D01*
X149022199Y-118878802D01*
X149212500Y-118837500D01*
X149258572Y-118838555D01*
G37*
G36*
X157163162Y-124839868D02*
G01*
X157363559Y-124865107D01*
X157446289Y-124939127D01*
X157462500Y-125087500D01*
X157463556Y-125133571D01*
X157522199Y-125296197D01*
X157712500Y-125337500D01*
X157758572Y-125338555D01*
X157921198Y-125397198D01*
X157962500Y-125587500D01*
X157959743Y-125675308D01*
X157925475Y-125767331D01*
X157817597Y-125815675D01*
X157593982Y-125834384D01*
X157212500Y-125837500D01*
X156462500Y-125837500D01*
X156462500Y-124837500D01*
X156962500Y-124837500D01*
X157163162Y-124839868D01*
G37*
G36*
X156163162Y-120339868D02*
G01*
X156363559Y-120365107D01*
X156446289Y-120439127D01*
X156462500Y-120587500D01*
X156457764Y-120687830D01*
X156407285Y-120788029D01*
X156259245Y-120829394D01*
X155962500Y-120837500D01*
X155761839Y-120835131D01*
X155561442Y-120809892D01*
X155478712Y-120735872D01*
X155462500Y-120587500D01*
X155467237Y-120487169D01*
X155517716Y-120386970D01*
X155665756Y-120345605D01*
X155962500Y-120337500D01*
X156163162Y-120339868D01*
G37*
G36*
X155962500Y-129837500D02*
G01*
X155962500Y-129337500D01*
X156462500Y-129337500D01*
X157962500Y-129337500D01*
X157962500Y-127837500D01*
X156462500Y-127837500D01*
X156462500Y-129337500D01*
X155962500Y-129337500D01*
X155962500Y-127337500D01*
X158462500Y-127337500D01*
X158462500Y-129837500D01*
X155962500Y-129837500D01*
G37*
G36*
X154258572Y-120838555D02*
G01*
X154421198Y-120897198D01*
X154462500Y-121087500D01*
X154461445Y-121133571D01*
X154402802Y-121296197D01*
X154212500Y-121337500D01*
X154166429Y-121336444D01*
X154003803Y-121277801D01*
X153962500Y-121087500D01*
X153963556Y-121041428D01*
X154022199Y-120878802D01*
X154212500Y-120837500D01*
X154258572Y-120838555D01*
G37*
G36*
X143962500Y-130837500D02*
G01*
X143962500Y-130087500D01*
X144462500Y-130087500D01*
X144467237Y-130187830D01*
X144517716Y-130288029D01*
X144665756Y-130329394D01*
X144962500Y-130337500D01*
X145462500Y-130337500D01*
X145462500Y-129837500D01*
X145464869Y-129636838D01*
X145490108Y-129436441D01*
X145564128Y-129353711D01*
X145712500Y-129337500D01*
X145758572Y-129336444D01*
X145921198Y-129277801D01*
X145962500Y-129087500D01*
X145961445Y-129041428D01*
X145902802Y-128878802D01*
X145712500Y-128837500D01*
X145612170Y-128832763D01*
X145511971Y-128782284D01*
X145470606Y-128634244D01*
X145462500Y-128337500D01*
X145460132Y-128136838D01*
X145434893Y-127936441D01*
X145360873Y-127853711D01*
X145212500Y-127837500D01*
X145166429Y-127836444D01*
X145003803Y-127777801D01*
X144962500Y-127587500D01*
X144963556Y-127541428D01*
X145022199Y-127378802D01*
X145212500Y-127337500D01*
X145258572Y-127336444D01*
X145421198Y-127277801D01*
X145462500Y-127087500D01*
X145463556Y-127041428D01*
X145522199Y-126878802D01*
X145712500Y-126837500D01*
X145758572Y-126838555D01*
X145921198Y-126897198D01*
X145962500Y-127087500D01*
X145963556Y-127133571D01*
X146022199Y-127296197D01*
X146212500Y-127337500D01*
X146258572Y-127338555D01*
X146421198Y-127397198D01*
X146462500Y-127587500D01*
X146461445Y-127633571D01*
X146402802Y-127796197D01*
X146212500Y-127837500D01*
X146166429Y-127838555D01*
X146003803Y-127897198D01*
X145962500Y-128087500D01*
X145963556Y-128133571D01*
X146022199Y-128296197D01*
X146212500Y-128337500D01*
X146312831Y-128342236D01*
X146413030Y-128392715D01*
X146454395Y-128540755D01*
X146462500Y-128837500D01*
X146462500Y-129337500D01*
X146962500Y-129337500D01*
X147163162Y-129339868D01*
X147363559Y-129365107D01*
X147446289Y-129439127D01*
X147462500Y-129587500D01*
X147457764Y-129687830D01*
X147407285Y-129788029D01*
X147259245Y-129829394D01*
X146962500Y-129837500D01*
X146761839Y-129839868D01*
X146561442Y-129865107D01*
X146478712Y-129939127D01*
X146462500Y-130087500D01*
X146462500Y-130337500D01*
X149462500Y-130337500D01*
X149462500Y-130087500D01*
X149463556Y-130041428D01*
X149522199Y-129878802D01*
X149712500Y-129837500D01*
X149758572Y-129838555D01*
X149921198Y-129897198D01*
X149962500Y-130087500D01*
X149967237Y-130187830D01*
X150017716Y-130288029D01*
X150165756Y-130329394D01*
X150462500Y-130337500D01*
X150663162Y-130335131D01*
X150863559Y-130309892D01*
X150946289Y-130235872D01*
X150962500Y-130087500D01*
X150963556Y-130041428D01*
X151022199Y-129878802D01*
X151212500Y-129837500D01*
X151258572Y-129838555D01*
X151421198Y-129897198D01*
X151462500Y-130087500D01*
X151463556Y-130133571D01*
X151522199Y-130296197D01*
X151712500Y-130337500D01*
X151758572Y-130336444D01*
X151921198Y-130277801D01*
X151962500Y-130087500D01*
X151967237Y-129987169D01*
X152017716Y-129886970D01*
X152165756Y-129845605D01*
X152462500Y-129837500D01*
X152663162Y-129839868D01*
X152863559Y-129865107D01*
X152946289Y-129939127D01*
X152962500Y-130087500D01*
X152962500Y-130337500D01*
X154962500Y-130337500D01*
X155462500Y-130337500D01*
X158962500Y-130337500D01*
X158962500Y-126837500D01*
X155462500Y-126837500D01*
X155462500Y-130337500D01*
X154962500Y-130337500D01*
X154962500Y-129587500D01*
X154961581Y-129324074D01*
X154950159Y-129048006D01*
X154914199Y-128902972D01*
X154839661Y-128846846D01*
X154712500Y-128837500D01*
X154666429Y-128836444D01*
X154503803Y-128777801D01*
X154462500Y-128587500D01*
X154463556Y-128541428D01*
X154522199Y-128378802D01*
X154712500Y-128337500D01*
X154962500Y-128337500D01*
X154962500Y-126337500D01*
X157962500Y-126337500D01*
X157962500Y-126087500D01*
X157963556Y-126041428D01*
X158022199Y-125878802D01*
X158212500Y-125837500D01*
X158258572Y-125838555D01*
X158421198Y-125897198D01*
X158462500Y-126087500D01*
X158463556Y-126133571D01*
X158522199Y-126296197D01*
X158712500Y-126337500D01*
X158758572Y-126336444D01*
X158921198Y-126277801D01*
X158962500Y-126087500D01*
X158961445Y-126041428D01*
X158902802Y-125878802D01*
X158712500Y-125837500D01*
X158666429Y-125836444D01*
X158503803Y-125777801D01*
X158462500Y-125587500D01*
X158463556Y-125541428D01*
X158522199Y-125378802D01*
X158712500Y-125337500D01*
X158758572Y-125336444D01*
X158921198Y-125277801D01*
X158962500Y-125087500D01*
X158961445Y-125041428D01*
X158902802Y-124878802D01*
X158712500Y-124837500D01*
X158666429Y-124838555D01*
X158503803Y-124897198D01*
X158462500Y-125087500D01*
X158461445Y-125133571D01*
X158402802Y-125296197D01*
X158212500Y-125337500D01*
X158166429Y-125336444D01*
X158003803Y-125277801D01*
X157962500Y-125087500D01*
X157961445Y-125041428D01*
X157902802Y-124878802D01*
X157712500Y-124837500D01*
X157666429Y-124836444D01*
X157503803Y-124777801D01*
X157462500Y-124587500D01*
X157463556Y-124541428D01*
X157522199Y-124378802D01*
X157712500Y-124337500D01*
X157758572Y-124336444D01*
X157921198Y-124277801D01*
X157962500Y-124087500D01*
X157963556Y-124041428D01*
X158022199Y-123878802D01*
X158212500Y-123837500D01*
X158258572Y-123838555D01*
X158421198Y-123897198D01*
X158462500Y-124087500D01*
X158463556Y-124133571D01*
X158522199Y-124296197D01*
X158712500Y-124337500D01*
X158812831Y-124332763D01*
X158913030Y-124282284D01*
X158954395Y-124134244D01*
X158962500Y-123837500D01*
X158960132Y-123636838D01*
X158934893Y-123436441D01*
X158860873Y-123353711D01*
X158712500Y-123337500D01*
X158612170Y-123332763D01*
X158511971Y-123282284D01*
X158470606Y-123134244D01*
X158462500Y-122837500D01*
X158464869Y-122636838D01*
X158490108Y-122436441D01*
X158564128Y-122353711D01*
X158712500Y-122337500D01*
X158812831Y-122332763D01*
X158913030Y-122282284D01*
X158954395Y-122134244D01*
X158962500Y-121837500D01*
X158962500Y-121337500D01*
X158462500Y-121337500D01*
X158261839Y-121335131D01*
X158061442Y-121309892D01*
X157978712Y-121235872D01*
X157962500Y-121087500D01*
X157967237Y-120987169D01*
X158017716Y-120886970D01*
X158165756Y-120845605D01*
X158462500Y-120837500D01*
X158962500Y-120837500D01*
X158962500Y-119837500D01*
X158212500Y-119837500D01*
X157949075Y-119838419D01*
X157673007Y-119849841D01*
X157527973Y-119885801D01*
X157471847Y-119960339D01*
X157462500Y-120087500D01*
X157461445Y-120133571D01*
X157402802Y-120296197D01*
X157212500Y-120337500D01*
X157166429Y-120336444D01*
X157003803Y-120277801D01*
X156962500Y-120087500D01*
X156962500Y-119837500D01*
X154962500Y-119837500D01*
X154962500Y-119337500D01*
X155462500Y-119337500D01*
X158962500Y-119337500D01*
X158962500Y-115837500D01*
X155462500Y-115837500D01*
X155462500Y-119337500D01*
X154962500Y-119337500D01*
X154960132Y-119136838D01*
X154934893Y-118936441D01*
X154860873Y-118853711D01*
X154712500Y-118837500D01*
X154624692Y-118840257D01*
X154532669Y-118874525D01*
X154484325Y-118982403D01*
X154465616Y-119206018D01*
X154462500Y-119587500D01*
X154461581Y-119850925D01*
X154450159Y-120126993D01*
X154414199Y-120272027D01*
X154339661Y-120328153D01*
X154212500Y-120337500D01*
X154166429Y-120338555D01*
X154003803Y-120397198D01*
X153962500Y-120587500D01*
X153961445Y-120633571D01*
X153902802Y-120796197D01*
X153712500Y-120837500D01*
X153666429Y-120836444D01*
X153503803Y-120777801D01*
X153462500Y-120587500D01*
X153461445Y-120541428D01*
X153402802Y-120378802D01*
X153212500Y-120337500D01*
X153166429Y-120336444D01*
X153003803Y-120277801D01*
X152962500Y-120087500D01*
X152963556Y-120041428D01*
X153022199Y-119878802D01*
X153212500Y-119837500D01*
X153258572Y-119836444D01*
X153421198Y-119777801D01*
X153462500Y-119587500D01*
X153463556Y-119541428D01*
X153522199Y-119378802D01*
X153712500Y-119337500D01*
X153812831Y-119332763D01*
X153913030Y-119282284D01*
X153954395Y-119134244D01*
X153962500Y-118837500D01*
X153964869Y-118636838D01*
X153990108Y-118436441D01*
X154064128Y-118353711D01*
X154212500Y-118337500D01*
X154312831Y-118332763D01*
X154413030Y-118282284D01*
X154454395Y-118134244D01*
X154462500Y-117837500D01*
X154464869Y-117636838D01*
X154490108Y-117436441D01*
X154564128Y-117353711D01*
X154712500Y-117337500D01*
X154758572Y-117336444D01*
X154921198Y-117277801D01*
X154962500Y-117087500D01*
X154961445Y-117041428D01*
X154902802Y-116878802D01*
X154712500Y-116837500D01*
X154666429Y-116836444D01*
X154503803Y-116777801D01*
X154462500Y-116587500D01*
X154461445Y-116541428D01*
X154402802Y-116378802D01*
X154212500Y-116337500D01*
X154166429Y-116336444D01*
X154003803Y-116277801D01*
X153962500Y-116087500D01*
X153961445Y-116041428D01*
X153902802Y-115878802D01*
X153712500Y-115837500D01*
X153666429Y-115838555D01*
X153503803Y-115897198D01*
X153462500Y-116087500D01*
X153463556Y-116133571D01*
X153522199Y-116296197D01*
X153712500Y-116337500D01*
X153758572Y-116338555D01*
X153921198Y-116397198D01*
X153962500Y-116587500D01*
X153963556Y-116633571D01*
X154022199Y-116796197D01*
X154212500Y-116837500D01*
X154258572Y-116838555D01*
X154421198Y-116897198D01*
X154462500Y-117087500D01*
X154461445Y-117133571D01*
X154402802Y-117296197D01*
X154212500Y-117337500D01*
X154112170Y-117342236D01*
X154011971Y-117392715D01*
X153970606Y-117540755D01*
X153962500Y-117837500D01*
X153962500Y-118337500D01*
X152962500Y-118337500D01*
X152962500Y-117837500D01*
X152964869Y-117636838D01*
X152990108Y-117436441D01*
X153064128Y-117353711D01*
X153212500Y-117337500D01*
X153258572Y-117336444D01*
X153421198Y-117277801D01*
X153462500Y-117087500D01*
X153461445Y-117041428D01*
X153402802Y-116878802D01*
X153212500Y-116837500D01*
X153166429Y-116838555D01*
X153003803Y-116897198D01*
X152962500Y-117087500D01*
X152961445Y-117133571D01*
X152902802Y-117296197D01*
X152712500Y-117337500D01*
X152612170Y-117342236D01*
X152511971Y-117392715D01*
X152470606Y-117540755D01*
X152462500Y-117837500D01*
X152460132Y-118038161D01*
X152434893Y-118238558D01*
X152360873Y-118321288D01*
X152212500Y-118337500D01*
X152166429Y-118338555D01*
X152003803Y-118397198D01*
X151962500Y-118587500D01*
X151961445Y-118633571D01*
X151902802Y-118796197D01*
X151712500Y-118837500D01*
X151624692Y-118834742D01*
X151532669Y-118800474D01*
X151484325Y-118692596D01*
X151465616Y-118468981D01*
X151462500Y-118087500D01*
X151463420Y-117824074D01*
X151474842Y-117548006D01*
X151510802Y-117402972D01*
X151585340Y-117346846D01*
X151712500Y-117337500D01*
X151812831Y-117332763D01*
X151913030Y-117282284D01*
X151954395Y-117134244D01*
X151962500Y-116837500D01*
X151964869Y-116636838D01*
X151990108Y-116436441D01*
X152064128Y-116353711D01*
X152212500Y-116337500D01*
X152258572Y-116336444D01*
X152421198Y-116277801D01*
X152462500Y-116087500D01*
X152462500Y-115837500D01*
X148962500Y-115837500D01*
X148962500Y-116087500D01*
X148961445Y-116133571D01*
X148902802Y-116296197D01*
X148712500Y-116337500D01*
X148612170Y-116342236D01*
X148511971Y-116392715D01*
X148470606Y-116540755D01*
X148462500Y-116837500D01*
X148464869Y-117038161D01*
X148490108Y-117238558D01*
X148564128Y-117321288D01*
X148712500Y-117337500D01*
X148812831Y-117342236D01*
X148913030Y-117392715D01*
X148954395Y-117540755D01*
X148962500Y-117837500D01*
X148960132Y-118038161D01*
X148934893Y-118238558D01*
X148860873Y-118321288D01*
X148712500Y-118337500D01*
X148624692Y-118340257D01*
X148532669Y-118374525D01*
X148484325Y-118482403D01*
X148465616Y-118706018D01*
X148462500Y-119087500D01*
X148462500Y-119837500D01*
X147962500Y-119837500D01*
X147761839Y-119839868D01*
X147561442Y-119865107D01*
X147478712Y-119939127D01*
X147462500Y-120087500D01*
X147461445Y-120133571D01*
X147402802Y-120296197D01*
X147212500Y-120337500D01*
X147166429Y-120338555D01*
X147003803Y-120397198D01*
X146962500Y-120587500D01*
X146961445Y-120633571D01*
X146902802Y-120796197D01*
X146712500Y-120837500D01*
X146666429Y-120836444D01*
X146503803Y-120777801D01*
X146462500Y-120587500D01*
X146461445Y-120541428D01*
X146402802Y-120378802D01*
X146212500Y-120337500D01*
X146166429Y-120336444D01*
X146003803Y-120277801D01*
X145962500Y-120087500D01*
X145961445Y-120041428D01*
X145902802Y-119878802D01*
X145712500Y-119837500D01*
X145666429Y-119838555D01*
X145503803Y-119897198D01*
X145462500Y-120087500D01*
X145463556Y-120133571D01*
X145522199Y-120296197D01*
X145712500Y-120337500D01*
X145758572Y-120338555D01*
X145921198Y-120397198D01*
X145962500Y-120587500D01*
X145957764Y-120687830D01*
X145907285Y-120788029D01*
X145759245Y-120829394D01*
X145462500Y-120837500D01*
X145261839Y-120835131D01*
X145061442Y-120809892D01*
X144978712Y-120735872D01*
X144962500Y-120587500D01*
X144961445Y-120541428D01*
X144902802Y-120378802D01*
X144712500Y-120337500D01*
X144612170Y-120342236D01*
X144511971Y-120392715D01*
X144470606Y-120540755D01*
X144462500Y-120837500D01*
X144464869Y-121038161D01*
X144490108Y-121238558D01*
X144564128Y-121321288D01*
X144712500Y-121337500D01*
X144758572Y-121338555D01*
X144921198Y-121397198D01*
X144962500Y-121587500D01*
X144961445Y-121633571D01*
X144902802Y-121796197D01*
X144712500Y-121837500D01*
X144624692Y-121840257D01*
X144532669Y-121874525D01*
X144484325Y-121982403D01*
X144465616Y-122206018D01*
X144462500Y-122587500D01*
X144463420Y-122850925D01*
X144474842Y-123126993D01*
X144510802Y-123272027D01*
X144585340Y-123328153D01*
X144712500Y-123337500D01*
X144758572Y-123338555D01*
X144921198Y-123397198D01*
X144962500Y-123587500D01*
X144961445Y-123633571D01*
X144902802Y-123796197D01*
X144712500Y-123837500D01*
X144624692Y-123840257D01*
X144532669Y-123874525D01*
X144484325Y-123982403D01*
X144465616Y-124206018D01*
X144462500Y-124587500D01*
X144463420Y-124850925D01*
X144474842Y-125126993D01*
X144510802Y-125272027D01*
X144585340Y-125328153D01*
X144712500Y-125337500D01*
X144758572Y-125338555D01*
X144921198Y-125397198D01*
X144962500Y-125587500D01*
X144963556Y-125633571D01*
X145022199Y-125796197D01*
X145212500Y-125837500D01*
X145312831Y-125832763D01*
X145413030Y-125782284D01*
X145454395Y-125634244D01*
X145462500Y-125337500D01*
X145464869Y-125136838D01*
X145490108Y-124936441D01*
X145564128Y-124853711D01*
X145712500Y-124837500D01*
X145812831Y-124842236D01*
X145913030Y-124892715D01*
X145954395Y-125040755D01*
X145962500Y-125337500D01*
X145964869Y-125538161D01*
X145990108Y-125738558D01*
X146064128Y-125821288D01*
X146212500Y-125837500D01*
X146312831Y-125842236D01*
X146413030Y-125892715D01*
X146454395Y-126040755D01*
X146462500Y-126337500D01*
X146460132Y-126538161D01*
X146434893Y-126738558D01*
X146360873Y-126821288D01*
X146212500Y-126837500D01*
X146166429Y-126836444D01*
X146003803Y-126777801D01*
X145962500Y-126587500D01*
X145959743Y-126499691D01*
X145925475Y-126407668D01*
X145817597Y-126359324D01*
X145593982Y-126340615D01*
X145212500Y-126337500D01*
X144462500Y-126337500D01*
X144462500Y-129337500D01*
X144712500Y-129337500D01*
X144758572Y-129338555D01*
X144921198Y-129397198D01*
X144962500Y-129587500D01*
X144961445Y-129633571D01*
X144902802Y-129796197D01*
X144712500Y-129837500D01*
X144666429Y-129838555D01*
X144503803Y-129897198D01*
X144462500Y-130087500D01*
X143962500Y-130087500D01*
X143962500Y-119337500D01*
X144462500Y-119337500D01*
X147962500Y-119337500D01*
X147962500Y-115837500D01*
X144462500Y-115837500D01*
X144462500Y-119337500D01*
X143962500Y-119337500D01*
X143962500Y-115337500D01*
X159462500Y-115337500D01*
X159462500Y-130837500D01*
X143962500Y-130837500D01*
G37*
G36*
X157914199Y-123772027D02*
G01*
X157839661Y-123828153D01*
X157712500Y-123837500D01*
X157666429Y-123838555D01*
X157503803Y-123897198D01*
X157462500Y-124087500D01*
X157461445Y-124133571D01*
X157402802Y-124296197D01*
X157212500Y-124337500D01*
X157166429Y-124336444D01*
X157003803Y-124277801D01*
X156962500Y-124087500D01*
X156961445Y-124041428D01*
X156902802Y-123878802D01*
X156712500Y-123837500D01*
X156666429Y-123838555D01*
X156503803Y-123897198D01*
X156462500Y-124087500D01*
X156461445Y-124133571D01*
X156402802Y-124296197D01*
X156212500Y-124337500D01*
X156166429Y-124338555D01*
X156003803Y-124397198D01*
X155962500Y-124587500D01*
X155961445Y-124633571D01*
X155902802Y-124796197D01*
X155712500Y-124837500D01*
X155666429Y-124836444D01*
X155503803Y-124777801D01*
X155462500Y-124587500D01*
X155461445Y-124541428D01*
X155402802Y-124378802D01*
X155212500Y-124337500D01*
X155112170Y-124342236D01*
X155011971Y-124392715D01*
X154970606Y-124540755D01*
X154962500Y-124837500D01*
X154962500Y-125337500D01*
X155462500Y-125337500D01*
X155663162Y-125339868D01*
X155863559Y-125365107D01*
X155946289Y-125439127D01*
X155962500Y-125587500D01*
X155957764Y-125687830D01*
X155907285Y-125788029D01*
X155759245Y-125829394D01*
X155462500Y-125837500D01*
X155261839Y-125839868D01*
X155061442Y-125865107D01*
X154978712Y-125939127D01*
X154962500Y-126087500D01*
X154957764Y-126187830D01*
X154907285Y-126288029D01*
X154759245Y-126329394D01*
X154462500Y-126337500D01*
X154261839Y-126339868D01*
X154061442Y-126365107D01*
X153978712Y-126439127D01*
X153962500Y-126587500D01*
X153961445Y-126633571D01*
X153902802Y-126796197D01*
X153712500Y-126837500D01*
X153666429Y-126838555D01*
X153503803Y-126897198D01*
X153462500Y-127087500D01*
X153461445Y-127133571D01*
X153402802Y-127296197D01*
X153212500Y-127337500D01*
X153166429Y-127338555D01*
X153003803Y-127397198D01*
X152962500Y-127587500D01*
X152963556Y-127633571D01*
X153022199Y-127796197D01*
X153212500Y-127837500D01*
X153258572Y-127838555D01*
X153421198Y-127897198D01*
X153462500Y-128087500D01*
X153463556Y-128133571D01*
X153522199Y-128296197D01*
X153712500Y-128337500D01*
X153758572Y-128336444D01*
X153921198Y-128277801D01*
X153962500Y-128087500D01*
X153963556Y-128041428D01*
X154022199Y-127878802D01*
X154212500Y-127837500D01*
X154258572Y-127838555D01*
X154421198Y-127897198D01*
X154462500Y-128087500D01*
X154461445Y-128133571D01*
X154402802Y-128296197D01*
X154212500Y-128337500D01*
X154112170Y-128342236D01*
X154011971Y-128392715D01*
X153970606Y-128540755D01*
X153962500Y-128837500D01*
X153964869Y-129038161D01*
X153990108Y-129238558D01*
X154064128Y-129321288D01*
X154212500Y-129337500D01*
X154258572Y-129338555D01*
X154421198Y-129397198D01*
X154462500Y-129587500D01*
X154461445Y-129633571D01*
X154402802Y-129796197D01*
X154212500Y-129837500D01*
X154166429Y-129836444D01*
X154003803Y-129777801D01*
X153962500Y-129587500D01*
X153961445Y-129541428D01*
X153902802Y-129378802D01*
X153712500Y-129337500D01*
X153666429Y-129338555D01*
X153503803Y-129397198D01*
X153462500Y-129587500D01*
X153461445Y-129633571D01*
X153402802Y-129796197D01*
X153212500Y-129837500D01*
X153166429Y-129836444D01*
X153003803Y-129777801D01*
X152962500Y-129587500D01*
X152963556Y-129541428D01*
X153022199Y-129378802D01*
X153212500Y-129337500D01*
X153312831Y-129332763D01*
X153413030Y-129282284D01*
X153454395Y-129134244D01*
X153462500Y-128837500D01*
X153460132Y-128636838D01*
X153434893Y-128436441D01*
X153360873Y-128353711D01*
X153212500Y-128337500D01*
X153166429Y-128336444D01*
X153003803Y-128277801D01*
X152962500Y-128087500D01*
X152961445Y-128041428D01*
X152902802Y-127878802D01*
X152712500Y-127837500D01*
X152666429Y-127838555D01*
X152503803Y-127897198D01*
X152462500Y-128087500D01*
X152461445Y-128133571D01*
X152402802Y-128296197D01*
X152212500Y-128337500D01*
X152166429Y-128338555D01*
X152003803Y-128397198D01*
X151962500Y-128587500D01*
X151963556Y-128633571D01*
X152022199Y-128796197D01*
X152212500Y-128837500D01*
X152258572Y-128838555D01*
X152421198Y-128897198D01*
X152462500Y-129087500D01*
X152461445Y-129133571D01*
X152402802Y-129296197D01*
X152212500Y-129337500D01*
X152166429Y-129336444D01*
X152003803Y-129277801D01*
X151962500Y-129087500D01*
X151961445Y-129041428D01*
X151902802Y-128878802D01*
X151712500Y-128837500D01*
X151666429Y-128838555D01*
X151503803Y-128897198D01*
X151462500Y-129087500D01*
X151457764Y-129187830D01*
X151407285Y-129288029D01*
X151259245Y-129329394D01*
X150962500Y-129337500D01*
X150462500Y-129337500D01*
X150462500Y-128337500D01*
X150962500Y-128337500D01*
X151163162Y-128335131D01*
X151363559Y-128309892D01*
X151446289Y-128235872D01*
X151462500Y-128087500D01*
X151461445Y-128041428D01*
X151402802Y-127878802D01*
X151212500Y-127837500D01*
X151124692Y-127834742D01*
X151032669Y-127800474D01*
X150984325Y-127692596D01*
X150965616Y-127468981D01*
X150962500Y-127087500D01*
X151962500Y-127087500D01*
X151963556Y-127133571D01*
X152022199Y-127296197D01*
X152212500Y-127337500D01*
X152258572Y-127336444D01*
X152421198Y-127277801D01*
X152462500Y-127087500D01*
X152461445Y-127041428D01*
X152402802Y-126878802D01*
X152212500Y-126837500D01*
X152166429Y-126838555D01*
X152003803Y-126897198D01*
X151962500Y-127087500D01*
X150962500Y-127087500D01*
X150963420Y-126824074D01*
X150974842Y-126548006D01*
X151010802Y-126402972D01*
X151085340Y-126346846D01*
X151212500Y-126337500D01*
X151258572Y-126338555D01*
X151421198Y-126397198D01*
X151462500Y-126587500D01*
X151463556Y-126633571D01*
X151522199Y-126796197D01*
X151712500Y-126837500D01*
X151812831Y-126832763D01*
X151913030Y-126782284D01*
X151954395Y-126634244D01*
X151962500Y-126337500D01*
X152962500Y-126337500D01*
X152964869Y-126538161D01*
X152990108Y-126738558D01*
X153064128Y-126821288D01*
X153212500Y-126837500D01*
X153312831Y-126832763D01*
X153413030Y-126782284D01*
X153454395Y-126634244D01*
X153462500Y-126337500D01*
X153460132Y-126136838D01*
X153434893Y-125936441D01*
X153360873Y-125853711D01*
X153212500Y-125837500D01*
X153112170Y-125842236D01*
X153011971Y-125892715D01*
X152970606Y-126040755D01*
X152962500Y-126337500D01*
X151962500Y-126337500D01*
X151962500Y-125837500D01*
X152462500Y-125837500D01*
X152663162Y-125835131D01*
X152863559Y-125809892D01*
X152946289Y-125735872D01*
X152962500Y-125587500D01*
X154462500Y-125587500D01*
X154463556Y-125633571D01*
X154522199Y-125796197D01*
X154712500Y-125837500D01*
X154758572Y-125836444D01*
X154921198Y-125777801D01*
X154962500Y-125587500D01*
X154961445Y-125541428D01*
X154902802Y-125378802D01*
X154712500Y-125337500D01*
X154666429Y-125338555D01*
X154503803Y-125397198D01*
X154462500Y-125587500D01*
X152962500Y-125587500D01*
X152963556Y-125541428D01*
X153022199Y-125378802D01*
X153212500Y-125337500D01*
X153258572Y-125336444D01*
X153421198Y-125277801D01*
X153462500Y-125087500D01*
X153467237Y-124987169D01*
X153517716Y-124886970D01*
X153665756Y-124845605D01*
X153962500Y-124837500D01*
X154462500Y-124837500D01*
X154462500Y-124337500D01*
X154460132Y-124136838D01*
X154453918Y-124087500D01*
X155462500Y-124087500D01*
X155463556Y-124133571D01*
X155522199Y-124296197D01*
X155712500Y-124337500D01*
X155758572Y-124336444D01*
X155921198Y-124277801D01*
X155962500Y-124087500D01*
X155961445Y-124041428D01*
X155902802Y-123878802D01*
X155712500Y-123837500D01*
X155666429Y-123838555D01*
X155503803Y-123897198D01*
X155462500Y-124087500D01*
X154453918Y-124087500D01*
X154434893Y-123936441D01*
X154360873Y-123853711D01*
X154212500Y-123837500D01*
X154166429Y-123838555D01*
X154003803Y-123897198D01*
X153962500Y-124087500D01*
X153957764Y-124187830D01*
X153907285Y-124288029D01*
X153759245Y-124329394D01*
X153462500Y-124337500D01*
X153261839Y-124335131D01*
X153061442Y-124309892D01*
X152978712Y-124235872D01*
X152962500Y-124087500D01*
X152961445Y-124041428D01*
X152902802Y-123878802D01*
X152712500Y-123837500D01*
X152666429Y-123838555D01*
X152503803Y-123897198D01*
X152462500Y-124087500D01*
X152461445Y-124133571D01*
X152402802Y-124296197D01*
X152212500Y-124337500D01*
X152166429Y-124338555D01*
X152003803Y-124397198D01*
X151962500Y-124587500D01*
X151963556Y-124633571D01*
X152022199Y-124796197D01*
X152212500Y-124837500D01*
X152258572Y-124838555D01*
X152421198Y-124897198D01*
X152462500Y-125087500D01*
X152461445Y-125133571D01*
X152402802Y-125296197D01*
X152212500Y-125337500D01*
X152166429Y-125336444D01*
X152003803Y-125277801D01*
X151962500Y-125087500D01*
X151961445Y-125041428D01*
X151902802Y-124878802D01*
X151712500Y-124837500D01*
X151666429Y-124838555D01*
X151503803Y-124897198D01*
X151462500Y-125087500D01*
X151461445Y-125133571D01*
X151402802Y-125296197D01*
X151212500Y-125337500D01*
X151112170Y-125332763D01*
X151011971Y-125282284D01*
X150970606Y-125134244D01*
X150962500Y-124837500D01*
X150960132Y-124636838D01*
X150934893Y-124436441D01*
X150860873Y-124353711D01*
X150712500Y-124337500D01*
X150666429Y-124336444D01*
X150503803Y-124277801D01*
X150462500Y-124087500D01*
X150467237Y-123987169D01*
X150517716Y-123886970D01*
X150665756Y-123845605D01*
X150962500Y-123837500D01*
X151163162Y-123835131D01*
X151363559Y-123809892D01*
X151446289Y-123735872D01*
X151462500Y-123587500D01*
X152962500Y-123587500D01*
X152967237Y-123687830D01*
X153017716Y-123788029D01*
X153165756Y-123829394D01*
X153462500Y-123837500D01*
X153663162Y-123835131D01*
X153863559Y-123809892D01*
X153946289Y-123735872D01*
X153962500Y-123587500D01*
X153963556Y-123541428D01*
X154022199Y-123378802D01*
X154212500Y-123337500D01*
X154258572Y-123338555D01*
X154421198Y-123397198D01*
X154462500Y-123587500D01*
X154463556Y-123633571D01*
X154522199Y-123796197D01*
X154712500Y-123837500D01*
X154812831Y-123832763D01*
X154913030Y-123782284D01*
X154954395Y-123634244D01*
X154962500Y-123337500D01*
X154962500Y-123087500D01*
X155462500Y-123087500D01*
X155465258Y-123175308D01*
X155499526Y-123267331D01*
X155607404Y-123315675D01*
X155831019Y-123334384D01*
X156212500Y-123337500D01*
X156475926Y-123338419D01*
X156751994Y-123349841D01*
X156897028Y-123385801D01*
X156953154Y-123460339D01*
X156962500Y-123587500D01*
X156963556Y-123633571D01*
X157022199Y-123796197D01*
X157212500Y-123837500D01*
X157258572Y-123836444D01*
X157421198Y-123777801D01*
X157462500Y-123587500D01*
X157461445Y-123541428D01*
X157402802Y-123378802D01*
X157212500Y-123337500D01*
X157166429Y-123336444D01*
X157003803Y-123277801D01*
X156962500Y-123087500D01*
X156959743Y-122999691D01*
X156925475Y-122907668D01*
X156817597Y-122859324D01*
X156593982Y-122840615D01*
X156212500Y-122837500D01*
X155949075Y-122838419D01*
X155673007Y-122849841D01*
X155527973Y-122885801D01*
X155471847Y-122960339D01*
X155462500Y-123087500D01*
X154962500Y-123087500D01*
X154962500Y-122837500D01*
X154462500Y-122837500D01*
X154261839Y-122839868D01*
X154061442Y-122865107D01*
X153978712Y-122939127D01*
X153962500Y-123087500D01*
X153957764Y-123187830D01*
X153907285Y-123288029D01*
X153759245Y-123329394D01*
X153462500Y-123337500D01*
X153261839Y-123339868D01*
X153061442Y-123365107D01*
X152978712Y-123439127D01*
X152962500Y-123587500D01*
X151462500Y-123587500D01*
X151461445Y-123541428D01*
X151402802Y-123378802D01*
X151212500Y-123337500D01*
X151166429Y-123336444D01*
X151003803Y-123277801D01*
X150962500Y-123087500D01*
X151962500Y-123087500D01*
X151963556Y-123133571D01*
X152022199Y-123296197D01*
X152212500Y-123337500D01*
X152258572Y-123336444D01*
X152421198Y-123277801D01*
X152462500Y-123087500D01*
X152461445Y-123041428D01*
X152402802Y-122878802D01*
X152212500Y-122837500D01*
X152166429Y-122838555D01*
X152003803Y-122897198D01*
X151962500Y-123087500D01*
X150962500Y-123087500D01*
X150961445Y-123041428D01*
X150902802Y-122878802D01*
X150712500Y-122837500D01*
X150666429Y-122836444D01*
X150503803Y-122777801D01*
X150462500Y-122587500D01*
X150465258Y-122499691D01*
X150499526Y-122407668D01*
X150607404Y-122359324D01*
X150831019Y-122340615D01*
X151212500Y-122337500D01*
X151475926Y-122336580D01*
X151751994Y-122325158D01*
X151897028Y-122289198D01*
X151953154Y-122214660D01*
X151962500Y-122087500D01*
X151957764Y-121987169D01*
X151907285Y-121886970D01*
X151759245Y-121845605D01*
X151462500Y-121837500D01*
X151261839Y-121835131D01*
X151061442Y-121809892D01*
X150978712Y-121735872D01*
X150962500Y-121587500D01*
X150961445Y-121541428D01*
X150902802Y-121378802D01*
X150712500Y-121337500D01*
X150666429Y-121336444D01*
X150503803Y-121277801D01*
X150462500Y-121087500D01*
X150463556Y-121041428D01*
X150522199Y-120878802D01*
X150712500Y-120837500D01*
X150758572Y-120836444D01*
X150921198Y-120777801D01*
X150962500Y-120587500D01*
X150961445Y-120541428D01*
X150902802Y-120378802D01*
X150712500Y-120337500D01*
X150666429Y-120336444D01*
X150503803Y-120277801D01*
X150462500Y-120087500D01*
X150463556Y-120041428D01*
X150522199Y-119878802D01*
X150712500Y-119837500D01*
X150812831Y-119832763D01*
X150913030Y-119782284D01*
X150954395Y-119634244D01*
X150962500Y-119337500D01*
X150960132Y-119136838D01*
X150934893Y-118936441D01*
X150860873Y-118853711D01*
X150712500Y-118837500D01*
X150666429Y-118838555D01*
X150503803Y-118897198D01*
X150462500Y-119087500D01*
X150461445Y-119133571D01*
X150402802Y-119296197D01*
X150212500Y-119337500D01*
X150166429Y-119336444D01*
X150003803Y-119277801D01*
X149962500Y-119087500D01*
X149963556Y-119041428D01*
X150022199Y-118878802D01*
X150212500Y-118837500D01*
X150258572Y-118836444D01*
X150421198Y-118777801D01*
X150462500Y-118587500D01*
X150461445Y-118541428D01*
X150402802Y-118378802D01*
X150212500Y-118337500D01*
X150112170Y-118332763D01*
X150011971Y-118282284D01*
X149970606Y-118134244D01*
X149962500Y-117837500D01*
X149962500Y-117337500D01*
X149462500Y-117337500D01*
X149261839Y-117335131D01*
X149061442Y-117309892D01*
X148978712Y-117235872D01*
X148962500Y-117087500D01*
X148963556Y-117041428D01*
X149022199Y-116878802D01*
X149212500Y-116837500D01*
X149258572Y-116836444D01*
X149421198Y-116777801D01*
X149462500Y-116587500D01*
X149467237Y-116487169D01*
X149517716Y-116386970D01*
X149665756Y-116345605D01*
X149962500Y-116337500D01*
X150462500Y-116337500D01*
X150462500Y-118337500D01*
X150712500Y-118337500D01*
X150758572Y-118338555D01*
X150921198Y-118397198D01*
X150962500Y-118587500D01*
X150963556Y-118633571D01*
X151022199Y-118796197D01*
X151212500Y-118837500D01*
X151300309Y-118840257D01*
X151392332Y-118874525D01*
X151440676Y-118982403D01*
X151459385Y-119206018D01*
X151462500Y-119587500D01*
X151463420Y-119850925D01*
X151474842Y-120126993D01*
X151510802Y-120272027D01*
X151585340Y-120328153D01*
X151712500Y-120337500D01*
X151758572Y-120336444D01*
X151921198Y-120277801D01*
X151962500Y-120087500D01*
X151963556Y-120041428D01*
X152022199Y-119878802D01*
X152212500Y-119837500D01*
X152258572Y-119836444D01*
X152421198Y-119777801D01*
X152462500Y-119587500D01*
X152461445Y-119541428D01*
X152402802Y-119378802D01*
X152212500Y-119337500D01*
X152166429Y-119336444D01*
X152003803Y-119277801D01*
X151962500Y-119087500D01*
X151963556Y-119041428D01*
X152022199Y-118878802D01*
X152212500Y-118837500D01*
X152258572Y-118838555D01*
X152421198Y-118897198D01*
X152462500Y-119087500D01*
X152463556Y-119133571D01*
X152522199Y-119296197D01*
X152712500Y-119337500D01*
X152758572Y-119336444D01*
X152921198Y-119277801D01*
X152962500Y-119087500D01*
X152963556Y-119041428D01*
X153022199Y-118878802D01*
X153212500Y-118837500D01*
X153258572Y-118838555D01*
X153421198Y-118897198D01*
X153462500Y-119087500D01*
X153461445Y-119133571D01*
X153402802Y-119296197D01*
X153212500Y-119337500D01*
X153166429Y-119338555D01*
X153003803Y-119397198D01*
X152962500Y-119587500D01*
X152961445Y-119633571D01*
X152902802Y-119796197D01*
X152712500Y-119837500D01*
X152612170Y-119842236D01*
X152511971Y-119892715D01*
X152470606Y-120040755D01*
X152462500Y-120337500D01*
X152462500Y-120837500D01*
X151962500Y-120837500D01*
X151761839Y-120839868D01*
X151561442Y-120865107D01*
X151478712Y-120939127D01*
X151462500Y-121087500D01*
X151463556Y-121133571D01*
X151522199Y-121296197D01*
X151712500Y-121337500D01*
X151758572Y-121338555D01*
X151921198Y-121397198D01*
X151962500Y-121587500D01*
X151967237Y-121687830D01*
X152017716Y-121788029D01*
X152165756Y-121829394D01*
X152462500Y-121837500D01*
X152663162Y-121835131D01*
X152863559Y-121809892D01*
X152946289Y-121735872D01*
X152962500Y-121587500D01*
X152963556Y-121541428D01*
X153022199Y-121378802D01*
X153212500Y-121337500D01*
X153258572Y-121338555D01*
X153421198Y-121397198D01*
X153462500Y-121587500D01*
X153461445Y-121633571D01*
X153402802Y-121796197D01*
X153212500Y-121837500D01*
X153112170Y-121842236D01*
X153011971Y-121892715D01*
X152970606Y-122040755D01*
X152962500Y-122337500D01*
X152962500Y-122837500D01*
X153962500Y-122837500D01*
X153962500Y-122087500D01*
X154962500Y-122087500D01*
X154967237Y-122187830D01*
X155017716Y-122288029D01*
X155165756Y-122329394D01*
X155462500Y-122337500D01*
X155663162Y-122335131D01*
X155863559Y-122309892D01*
X155946289Y-122235872D01*
X155962500Y-122087500D01*
X155957764Y-121987169D01*
X155907285Y-121886970D01*
X155759245Y-121845605D01*
X155462500Y-121837500D01*
X155261839Y-121839868D01*
X155061442Y-121865107D01*
X154978712Y-121939127D01*
X154962500Y-122087500D01*
X153962500Y-122087500D01*
X153962500Y-121837500D01*
X154462500Y-121837500D01*
X154663162Y-121835131D01*
X154863559Y-121809892D01*
X154946289Y-121735872D01*
X154962500Y-121587500D01*
X154967237Y-121487169D01*
X155017716Y-121386970D01*
X155165756Y-121345605D01*
X155462500Y-121337500D01*
X155663162Y-121339868D01*
X155863559Y-121365107D01*
X155946289Y-121439127D01*
X155962500Y-121587500D01*
X155967237Y-121687830D01*
X156017716Y-121788029D01*
X156165756Y-121829394D01*
X156462500Y-121837500D01*
X156663162Y-121835131D01*
X156863559Y-121809892D01*
X156946289Y-121735872D01*
X156962500Y-121587500D01*
X156963556Y-121541428D01*
X157022199Y-121378802D01*
X157212500Y-121337500D01*
X157258572Y-121338555D01*
X157421198Y-121397198D01*
X157462500Y-121587500D01*
X157461445Y-121633571D01*
X157402802Y-121796197D01*
X157212500Y-121837500D01*
X157166429Y-121838555D01*
X157003803Y-121897198D01*
X156962500Y-122087500D01*
X156967237Y-122187830D01*
X157017716Y-122288029D01*
X157165756Y-122329394D01*
X157462500Y-122337500D01*
X157962500Y-122337500D01*
X157962500Y-123087500D01*
X157961581Y-123350925D01*
X157951793Y-123587500D01*
X157950159Y-123626993D01*
X157914199Y-123772027D01*
G37*
%LPC*%
D13*
X164462500Y-92037500D03*
X159462500Y-92037500D03*
X130062500Y-82037500D03*
X135062500Y-82037500D03*
X159462500Y-72037500D03*
X164462500Y-72037500D03*
X159462500Y-102037500D03*
X164462500Y-102037500D03*
X130062500Y-102037500D03*
X135062500Y-102037500D03*
X164462500Y-82037500D03*
X159462500Y-82037500D03*
D14*
X147262500Y-103037500D03*
D13*
X130062500Y-92037500D03*
X135062500Y-92037500D03*
X135062500Y-72037500D03*
X130062500Y-72037500D03*
M02*
