M48
; FORMAT={-:-/ absolute / metric / decimal}
; #@! TF.GenerationSoftware,Kicad,Pcbnew,6.0.10+dfsg-1~bpo11+1
; #@! TF.FileFunction,Plated,1,2,PTH
FMAT,2
METRIC
; #@! TA.AperFunction,Plated,PTH,ViaDrill
T1C0.300
; #@! TA.AperFunction,Plated,PTH,ComponentDrill
T2C3.200
%
G90
G05
T1
X81.0Y-92.975
X81.0Y-104.975
X81.0Y-107.975
X81.0Y-119.975
X81.0Y-122.975
X81.0Y-134.975
X81.0Y-137.975
X81.0Y-149.975
X82.0Y-92.975
X82.0Y-104.975
X82.0Y-107.975
X82.0Y-119.975
X82.0Y-122.975
X82.0Y-134.975
X82.0Y-137.975
X82.0Y-149.975
X83.0Y-92.975
X83.0Y-104.975
X83.0Y-107.975
X83.0Y-119.975
X83.0Y-122.975
X83.0Y-134.975
X83.0Y-137.975
X83.0Y-149.975
X86.412Y-92.562
X87.412Y-92.562
X88.412Y-92.562
X89.412Y-92.562
X90.5Y-92.562
X90.5Y-101.475
X90.5Y-116.475
X90.5Y-131.475
X90.5Y-146.475
X92.0Y-97.475
X92.5Y-123.975
X93.0Y-93.975
X93.0Y-125.475
X94.0Y-93.975
X94.0Y-98.975
X95.0Y-101.475
X95.0Y-119.475
X95.5Y-93.975
X96.0Y-103.975
X96.0Y-118.475
X98.0Y-142.975
X98.5Y-92.975
X99.5Y-92.975
X100.5Y-92.975
X101.5Y-92.975
X102.5Y-92.975
X103.5Y-92.975
X104.5Y-92.975
X105.5Y-92.975
X106.25Y-129.725
X106.25Y-130.725
X106.25Y-131.725
X106.5Y-92.975
X107.0Y-142.975
X109.5Y-93.975
X109.5Y-95.475
X109.5Y-96.475
X110.0Y-106.475
X110.0Y-114.975
X111.0Y-93.975
X111.0Y-95.475
X111.0Y-96.475
X111.0Y-103.975
X111.0Y-115.975
X112.0Y-93.975
X112.0Y-95.475
X112.0Y-96.475
X112.0Y-108.975
X112.0Y-116.975
X114.5Y-92.562
X114.5Y-96.475
X114.5Y-111.475
X114.5Y-126.475
X114.5Y-141.475
X115.412Y-92.562
X116.412Y-92.562
X117.412Y-92.562
X118.412Y-92.562
X122.0Y-92.975
X122.0Y-104.975
X122.0Y-107.975
X122.0Y-119.975
X122.0Y-122.975
X122.0Y-134.975
X122.0Y-137.975
X122.0Y-149.975
X123.0Y-92.975
X123.0Y-104.975
X123.0Y-107.975
X123.0Y-119.975
X123.0Y-122.975
X123.0Y-134.975
X123.0Y-137.975
X123.0Y-149.975
X124.0Y-92.975
X124.0Y-104.975
X124.0Y-107.975
X124.0Y-119.975
X124.0Y-122.975
X124.0Y-134.975
X124.0Y-137.975
X124.0Y-149.975
T2
X102.5Y-147.475
T0
M30
