%TF.GenerationSoftware,KiCad,Pcbnew,6.0.10+dfsg-1~bpo11+1*%
%TF.ProjectId,project,70726f6a-6563-4742-9e6b-696361645f70,rev?*%
%TF.SameCoordinates,Original*%
%TF.FileFunction,Drillmap*%
%TF.FilePolarity,Positive*%
%FSLAX45Y45*%
G04 Gerber Fmt 4.5, Leading zero omitted, Abs format (unit mm)*
%MOMM*%
%LPD*%
G01*
G04 APERTURE LIST*
%ADD10C,0.100000*%
%ADD11C,0.200000*%
G04 APERTURE END LIST*
D10*
X8000000Y-9197500D02*
X8000000Y-15097500D01*
X8050000Y-15147500D02*
X12450000Y-15147500D01*
X8000000Y-15097500D02*
G75*
G03*
X8050000Y-15147500I50000J0D01*
G01*
X12500000Y-9197500D02*
G75*
G03*
X12450000Y-9147500I-50000J0D01*
G01*
X8050000Y-9147500D02*
X12450000Y-9147500D01*
X12500000Y-15097500D02*
X12500000Y-9197500D01*
X8050000Y-9147500D02*
G75*
G03*
X8000000Y-9197500I0J-50000D01*
G01*
X12450000Y-15147500D02*
G75*
G03*
X12500000Y-15097500I0J50000D01*
G01*
D11*
X8252619Y-15462976D02*
X8252619Y-15262976D01*
X8300238Y-15262976D01*
X8328809Y-15272500D01*
X8347857Y-15291548D01*
X8357381Y-15310595D01*
X8366905Y-15348690D01*
X8366905Y-15377262D01*
X8357381Y-15415357D01*
X8347857Y-15434405D01*
X8328809Y-15453452D01*
X8300238Y-15462976D01*
X8252619Y-15462976D01*
X8452619Y-15462976D02*
X8452619Y-15329643D01*
X8452619Y-15367738D02*
X8462143Y-15348690D01*
X8471667Y-15339167D01*
X8490714Y-15329643D01*
X8509762Y-15329643D01*
X8576429Y-15462976D02*
X8576429Y-15329643D01*
X8576429Y-15262976D02*
X8566905Y-15272500D01*
X8576429Y-15282024D01*
X8585952Y-15272500D01*
X8576429Y-15262976D01*
X8576429Y-15282024D01*
X8700238Y-15462976D02*
X8681190Y-15453452D01*
X8671667Y-15434405D01*
X8671667Y-15262976D01*
X8805000Y-15462976D02*
X8785952Y-15453452D01*
X8776429Y-15434405D01*
X8776429Y-15262976D01*
X9033571Y-15462976D02*
X9033571Y-15262976D01*
X9100238Y-15405833D01*
X9166905Y-15262976D01*
X9166905Y-15462976D01*
X9347857Y-15462976D02*
X9347857Y-15358214D01*
X9338333Y-15339167D01*
X9319286Y-15329643D01*
X9281190Y-15329643D01*
X9262143Y-15339167D01*
X9347857Y-15453452D02*
X9328810Y-15462976D01*
X9281190Y-15462976D01*
X9262143Y-15453452D01*
X9252619Y-15434405D01*
X9252619Y-15415357D01*
X9262143Y-15396309D01*
X9281190Y-15386786D01*
X9328810Y-15386786D01*
X9347857Y-15377262D01*
X9443095Y-15329643D02*
X9443095Y-15529643D01*
X9443095Y-15339167D02*
X9462143Y-15329643D01*
X9500238Y-15329643D01*
X9519286Y-15339167D01*
X9528810Y-15348690D01*
X9538333Y-15367738D01*
X9538333Y-15424881D01*
X9528810Y-15443928D01*
X9519286Y-15453452D01*
X9500238Y-15462976D01*
X9462143Y-15462976D01*
X9443095Y-15453452D01*
X9624048Y-15443928D02*
X9633571Y-15453452D01*
X9624048Y-15462976D01*
X9614524Y-15453452D01*
X9624048Y-15443928D01*
X9624048Y-15462976D01*
X9624048Y-15339167D02*
X9633571Y-15348690D01*
X9624048Y-15358214D01*
X9614524Y-15348690D01*
X9624048Y-15339167D01*
X9624048Y-15358214D01*
M02*
