M48
; FORMAT={-:-/ absolute / metric / decimal}
; #@! TF.GenerationSoftware,Kicad,Pcbnew,6.0.10+dfsg-1~bpo11+1
; #@! TF.FileFunction,Plated,1,2,PTH
FMAT,2
METRIC
; #@! TA.AperFunction,Plated,PTH,ViaDrill
T1C0.300
; #@! TA.AperFunction,Plated,PTH,ComponentDrill
T2C1.300
; #@! TA.AperFunction,Plated,PTH,ComponentDrill
T3C3.200
%
G90
G05
T1
X128.762Y-75.537
X128.762Y-85.537
X128.762Y-95.537
X128.762Y-105.537
X129.004Y-100.263
X129.262Y-90.537
X130.262Y-111.125
X130.762Y-80.537
X132.262Y-80.737
X132.762Y-90.737
X132.762Y-100.737
X134.262Y-115.537
X134.262Y-124.537
X134.292Y-113.008
X134.762Y-130.537
X135.262Y-130.037
X135.762Y-130.537
X137.762Y-117.037
X137.762Y-127.037
X137.762Y-128.037
X138.762Y-110.037
X138.762Y-127.037
X138.762Y-128.037
X139.762Y-127.037
X139.762Y-128.037
X141.762Y-116.037
X143.262Y-69.537
X143.262Y-70.537
X143.262Y-71.537
X143.262Y-72.537
X143.262Y-73.537
X143.262Y-74.537
X143.262Y-118.537
X143.762Y-70.037
X143.762Y-71.037
X143.762Y-72.037
X143.762Y-73.037
X143.762Y-74.037
X144.262Y-81.037
X144.762Y-80.537
X145.262Y-81.037
X156.762Y-111.537
X156.762Y-114.537
X157.463Y-110.738
X158.616Y-103.214
X159.618Y-108.393
X159.963Y-93.537
X160.262Y-111.125
X160.262Y-115.537
X160.262Y-124.537
X160.758Y-83.533
X161.262Y-109.537
X162.262Y-73.338
X162.262Y-111.037
X164.012Y-73.415
X164.792Y-83.508
X165.262Y-93.537
X165.521Y-103.812
X165.762Y-68.537
X165.762Y-78.537
X165.762Y-88.537
X165.762Y-98.537
T2
X130.062Y-72.037
X130.062Y-82.037
X130.062Y-92.037
X130.062Y-102.037
X135.062Y-72.037
X135.062Y-82.037
X135.062Y-92.037
X135.062Y-102.037
X159.463Y-72.037
X159.463Y-82.037
X159.463Y-92.037
X159.463Y-102.037
X164.463Y-72.037
X164.463Y-82.037
X164.463Y-92.037
X164.463Y-102.037
T3
X147.262Y-103.037
T0
M30
