G04 #@! TF.GenerationSoftware,KiCad,Pcbnew,6.0.10+dfsg-1~bpo11+1*
G04 #@! TF.ProjectId,project,70726f6a-6563-4742-9e6b-696361645f70,rev?*
G04 #@! TF.SameCoordinates,Original*
G04 #@! TF.FileFunction,Copper,L2,Bot*
G04 #@! TF.FilePolarity,Positive*
%FSLAX46Y46*%
G04 Gerber Fmt 4.6, Leading zero omitted, Abs format (unit mm)*
%MOMM*%
%LPD*%
G01*
G04 APERTURE LIST*
G04 #@! TA.AperFunction,Profile*
%ADD10C,0.100000*%
G04 #@! TD*
G04 #@! TA.AperFunction,ComponentPad*
%ADD11C,5.600000*%
G04 #@! TD*
G04 #@! TA.AperFunction,ComponentPad*
%ADD12C,1.700000*%
G04 #@! TD*
G04 #@! TA.AperFunction,ComponentPad*
%ADD13C,2.200000*%
G04 #@! TD*
G04 #@! TA.AperFunction,ViaPad*
%ADD14C,0.700000*%
G04 #@! TD*
G04 #@! TA.AperFunction,Conductor*
%ADD15C,1.000000*%
G04 #@! TD*
G04 #@! TA.AperFunction,Conductor*
%ADD16C,0.300000*%
G04 #@! TD*
G04 #@! TA.AperFunction,Conductor*
%ADD17C,0.400000*%
G04 #@! TD*
G04 #@! TA.AperFunction,Conductor*
%ADD18C,0.500000*%
G04 #@! TD*
G04 APERTURE END LIST*
D10*
X167262500Y-129537500D02*
X167262500Y-69537500D01*
X164762500Y-67037500D02*
X129762500Y-67037500D01*
X164762500Y-132037500D02*
G75*
G03*
X167262500Y-129537500I0J2500000D01*
G01*
X127262500Y-129537500D02*
G75*
G03*
X129762500Y-132037500I2500000J0D01*
G01*
X167262500Y-69537500D02*
G75*
G03*
X164762500Y-67037500I-2500000J0D01*
G01*
X164762500Y-132037500D02*
X129762500Y-132037500D01*
X127262500Y-69537500D02*
X127262500Y-129537500D01*
X129762500Y-67037500D02*
G75*
G03*
X127262500Y-69537500I0J-2500000D01*
G01*
D11*
X163762500Y-128537500D03*
D12*
X164462500Y-92037500D03*
X159462500Y-92037500D03*
X135062500Y-82037500D03*
X130062500Y-82037500D03*
X164462500Y-72037500D03*
X159462500Y-72037500D03*
D11*
X130762500Y-128537500D03*
D12*
X159462500Y-102037500D03*
X164462500Y-102037500D03*
X130062500Y-102037500D03*
X135062500Y-102037500D03*
X164462500Y-82037500D03*
X159462500Y-82037500D03*
D11*
X147262500Y-103037500D03*
D12*
X135062500Y-92037500D03*
X130062500Y-92037500D03*
X130062500Y-72037500D03*
X135062500Y-72037500D03*
D13*
X143262500Y-71005500D03*
X145802500Y-71005500D03*
X148342500Y-71005500D03*
X150882500Y-71005500D03*
D14*
X128662500Y-96237500D03*
X137762500Y-127037500D03*
X154662500Y-96037500D03*
X138662500Y-79037500D03*
X155462500Y-96037500D03*
X138762500Y-128037500D03*
X137762500Y-128037500D03*
X138662500Y-89037500D03*
X156262500Y-96037500D03*
X155862500Y-75037500D03*
X161062500Y-123637500D03*
X165862500Y-77837500D03*
X160062500Y-118037500D03*
X135662500Y-128237500D03*
X128662500Y-76237500D03*
X138662500Y-69837500D03*
X138762500Y-127037500D03*
X138662500Y-97037500D03*
X150662500Y-77037500D03*
X165862500Y-87837500D03*
X128662500Y-86237500D03*
X145862500Y-82037500D03*
X155862500Y-85037500D03*
X145862500Y-80037500D03*
X128662500Y-106237500D03*
X145662500Y-77037500D03*
X139762500Y-127037500D03*
X164462500Y-68437500D03*
X133462500Y-115437500D03*
X165862500Y-97837500D03*
X145662500Y-75037500D03*
X150662500Y-75037500D03*
X133462500Y-124637500D03*
X139762500Y-128037500D03*
X134862500Y-128237500D03*
X153862500Y-102437500D03*
X138762500Y-110037500D03*
X141762500Y-116837500D03*
X158413000Y-109862451D03*
X160662000Y-109837500D03*
X131662500Y-114237500D03*
X136962500Y-116337500D03*
X156462500Y-110837500D03*
X161812000Y-112637500D03*
X143713000Y-98837500D03*
X148862500Y-98837500D03*
X130762500Y-80537500D03*
X132262000Y-80737000D03*
X132762500Y-90737000D03*
X129262500Y-90537500D03*
X162262500Y-73338000D03*
X164012000Y-73415216D03*
X164792477Y-83507523D03*
X160758331Y-83532915D03*
X165262500Y-93537500D03*
X159963000Y-93537500D03*
X132762500Y-100737000D03*
X129513000Y-97837500D03*
X165062500Y-106237500D03*
X158615993Y-103214141D03*
D15*
X141762500Y-116837500D02*
X141662500Y-116837500D01*
X138762500Y-113937500D02*
X138762500Y-110037500D01*
X141662500Y-116837500D02*
X138762500Y-113937500D01*
D16*
X158413000Y-109862451D02*
X158437951Y-109837500D01*
X158437951Y-109837500D02*
X160662000Y-109837500D01*
X134862500Y-114237500D02*
X131662500Y-114237500D01*
X136962500Y-116337500D02*
X134862500Y-114237500D01*
D17*
X161812000Y-112637500D02*
X157662500Y-112637500D01*
X157662500Y-112637500D02*
X156462500Y-111437500D01*
X156462500Y-111437500D02*
X156462500Y-110837500D01*
D18*
X143713000Y-98837500D02*
X148862500Y-98837500D01*
D16*
X130962000Y-80737000D02*
X130762500Y-80537500D01*
X132262000Y-80737000D02*
X130962000Y-80737000D01*
X132762500Y-90737000D02*
X129462000Y-90737000D01*
X129462000Y-90737000D02*
X129262500Y-90537500D01*
D17*
X163934784Y-73338000D02*
X162262500Y-73338000D01*
X164012000Y-73415216D02*
X163934784Y-73338000D01*
X160758331Y-83532915D02*
X160783723Y-83507523D01*
X160783723Y-83507523D02*
X164792477Y-83507523D01*
X159963000Y-93537500D02*
X165262500Y-93537500D01*
D16*
X132196931Y-100521431D02*
X132546931Y-100521431D01*
X132546931Y-100521431D02*
X132762500Y-100737000D01*
X129513000Y-97837500D02*
X132196931Y-100521431D01*
D17*
X158955421Y-103553569D02*
X158615993Y-103214141D01*
X162378569Y-103553569D02*
X158955421Y-103553569D01*
X165062500Y-106237500D02*
X162378569Y-103553569D01*
G04 #@! TA.AperFunction,Conductor*
G36*
X164733143Y-67539500D02*
G01*
X164747450Y-67541728D01*
X164747453Y-67541728D01*
X164756323Y-67543109D01*
X164765225Y-67541945D01*
X164765228Y-67541945D01*
X164772160Y-67541038D01*
X164796739Y-67540244D01*
X165015245Y-67554566D01*
X165031585Y-67556717D01*
X165271909Y-67604520D01*
X165287830Y-67608786D01*
X165519857Y-67687549D01*
X165535083Y-67693856D01*
X165754842Y-67802229D01*
X165769116Y-67810470D01*
X165972853Y-67946603D01*
X165985928Y-67956636D01*
X166170158Y-68118201D01*
X166181799Y-68129842D01*
X166343364Y-68314072D01*
X166353397Y-68327147D01*
X166489530Y-68530884D01*
X166497771Y-68545158D01*
X166606144Y-68764917D01*
X166612451Y-68780143D01*
X166691214Y-69012170D01*
X166695480Y-69028091D01*
X166743283Y-69268415D01*
X166745434Y-69284755D01*
X166759292Y-69496175D01*
X166758329Y-69517802D01*
X166758272Y-69522453D01*
X166756891Y-69531323D01*
X166758055Y-69540225D01*
X166758055Y-69540228D01*
X166760936Y-69562256D01*
X166762000Y-69578593D01*
X166762000Y-129488759D01*
X166760500Y-129508143D01*
X166756891Y-129531323D01*
X166758055Y-129540225D01*
X166758055Y-129540228D01*
X166758962Y-129547160D01*
X166759756Y-129571739D01*
X166745434Y-129790245D01*
X166743283Y-129806585D01*
X166695480Y-130046909D01*
X166691214Y-130062830D01*
X166612451Y-130294857D01*
X166606144Y-130310083D01*
X166497771Y-130529842D01*
X166489530Y-130544116D01*
X166353397Y-130747853D01*
X166343364Y-130760928D01*
X166181799Y-130945158D01*
X166170158Y-130956799D01*
X166075503Y-131039809D01*
X165985928Y-131118364D01*
X165972853Y-131128397D01*
X165769116Y-131264530D01*
X165754842Y-131272771D01*
X165535083Y-131381144D01*
X165519857Y-131387451D01*
X165287830Y-131466214D01*
X165271909Y-131470480D01*
X165031585Y-131518283D01*
X165015245Y-131520434D01*
X164869229Y-131530005D01*
X164803824Y-131534292D01*
X164782198Y-131533329D01*
X164777547Y-131533272D01*
X164768677Y-131531891D01*
X164759775Y-131533055D01*
X164759772Y-131533055D01*
X164737744Y-131535936D01*
X164721407Y-131537000D01*
X129811241Y-131537000D01*
X129791857Y-131535500D01*
X129777550Y-131533272D01*
X129777547Y-131533272D01*
X129768677Y-131531891D01*
X129759775Y-131533055D01*
X129759772Y-131533055D01*
X129752840Y-131533962D01*
X129728261Y-131534756D01*
X129509755Y-131520434D01*
X129493415Y-131518283D01*
X129253091Y-131470480D01*
X129237170Y-131466214D01*
X129005143Y-131387451D01*
X128989917Y-131381144D01*
X128770158Y-131272771D01*
X128755884Y-131264530D01*
X128552147Y-131128397D01*
X128539072Y-131118364D01*
X128449497Y-131039809D01*
X128354842Y-130956799D01*
X128343201Y-130945158D01*
X128181636Y-130760928D01*
X128171603Y-130747853D01*
X128035470Y-130544116D01*
X128027229Y-130529842D01*
X127918856Y-130310083D01*
X127912549Y-130294857D01*
X127833786Y-130062830D01*
X127829520Y-130046909D01*
X127818417Y-129991091D01*
X141432422Y-129991091D01*
X141432779Y-129997907D01*
X141432779Y-129997911D01*
X141435772Y-130055009D01*
X141441821Y-130170421D01*
X141489508Y-130343549D01*
X141573260Y-130502398D01*
X141689168Y-130639558D01*
X141694591Y-130643705D01*
X141694593Y-130643706D01*
X141826405Y-130744484D01*
X141826409Y-130744487D01*
X141831826Y-130748628D01*
X141838006Y-130751510D01*
X141838008Y-130751511D01*
X141988400Y-130821640D01*
X141988403Y-130821641D01*
X141994577Y-130824520D01*
X142001225Y-130826006D01*
X142001228Y-130826007D01*
X142164790Y-130862567D01*
X142164791Y-130862567D01*
X142169828Y-130863693D01*
X142175319Y-130864000D01*
X142307366Y-130864000D01*
X142441025Y-130849480D01*
X142523751Y-130821640D01*
X142604757Y-130794379D01*
X142604759Y-130794378D01*
X142611222Y-130792203D01*
X142765148Y-130699714D01*
X142824375Y-130643706D01*
X142890665Y-130581019D01*
X142890667Y-130581017D01*
X142895623Y-130576330D01*
X142996560Y-130427806D01*
X143063248Y-130261073D01*
X143092578Y-130083909D01*
X143091474Y-130062830D01*
X143083536Y-129911392D01*
X143083179Y-129904579D01*
X143035492Y-129731451D01*
X142951740Y-129572602D01*
X142835832Y-129435442D01*
X142830407Y-129431294D01*
X142698595Y-129330516D01*
X142698591Y-129330513D01*
X142693174Y-129326372D01*
X142686994Y-129323490D01*
X142686992Y-129323489D01*
X142536600Y-129253360D01*
X142536597Y-129253359D01*
X142530423Y-129250480D01*
X142523775Y-129248994D01*
X142523772Y-129248993D01*
X142360210Y-129212433D01*
X142360209Y-129212433D01*
X142355172Y-129211307D01*
X142349681Y-129211000D01*
X142217634Y-129211000D01*
X142083975Y-129225520D01*
X142014226Y-129248993D01*
X141920243Y-129280621D01*
X141920241Y-129280622D01*
X141913778Y-129282797D01*
X141759852Y-129375286D01*
X141754892Y-129379977D01*
X141754890Y-129379978D01*
X141635810Y-129492587D01*
X141629377Y-129498670D01*
X141528440Y-129647194D01*
X141461752Y-129813927D01*
X141432422Y-129991091D01*
X127818417Y-129991091D01*
X127781717Y-129806585D01*
X127779566Y-129790245D01*
X127765944Y-129582421D01*
X127767103Y-129559532D01*
X127766753Y-129559501D01*
X127767187Y-129554661D01*
X127767996Y-129549854D01*
X127768147Y-129537500D01*
X127764273Y-129510449D01*
X127763000Y-129492587D01*
X127763000Y-114237500D01*
X130807315Y-114237500D01*
X130808005Y-114244065D01*
X130818010Y-114339251D01*
X130826003Y-114415303D01*
X130881250Y-114585335D01*
X130884553Y-114591057D01*
X130884554Y-114591058D01*
X130938608Y-114684682D01*
X130970641Y-114740165D01*
X131090270Y-114873026D01*
X131095609Y-114876905D01*
X131161675Y-114924905D01*
X131234907Y-114978112D01*
X131240935Y-114980796D01*
X131240937Y-114980797D01*
X131368295Y-115037500D01*
X131398233Y-115050829D01*
X131485671Y-115069414D01*
X131566652Y-115086628D01*
X131566656Y-115086628D01*
X131573109Y-115088000D01*
X131751891Y-115088000D01*
X131758344Y-115086628D01*
X131758348Y-115086628D01*
X131839329Y-115069414D01*
X131926767Y-115050829D01*
X131956705Y-115037500D01*
X132084065Y-114980796D01*
X132084066Y-114980795D01*
X132090093Y-114978112D01*
X132180999Y-114912064D01*
X132247867Y-114888206D01*
X132255061Y-114888000D01*
X134540864Y-114888000D01*
X134608985Y-114908002D01*
X134629959Y-114924905D01*
X136083370Y-116378316D01*
X136117396Y-116440628D01*
X136119585Y-116454238D01*
X136126003Y-116515303D01*
X136181250Y-116685335D01*
X136270641Y-116840165D01*
X136390270Y-116973026D01*
X136534907Y-117078112D01*
X136540935Y-117080796D01*
X136540937Y-117080797D01*
X136692202Y-117148144D01*
X136698233Y-117150829D01*
X136785671Y-117169414D01*
X136866652Y-117186628D01*
X136866656Y-117186628D01*
X136873109Y-117188000D01*
X137051891Y-117188000D01*
X137058344Y-117186628D01*
X137058348Y-117186628D01*
X137139329Y-117169414D01*
X137226767Y-117150829D01*
X137232798Y-117148144D01*
X137384063Y-117080797D01*
X137384065Y-117080796D01*
X137390093Y-117078112D01*
X137534730Y-116973026D01*
X137654359Y-116840165D01*
X137743750Y-116685335D01*
X137798997Y-116515303D01*
X137817685Y-116337500D01*
X137798997Y-116159697D01*
X137743750Y-115989665D01*
X137654359Y-115834835D01*
X137534730Y-115701974D01*
X137390093Y-115596888D01*
X137384065Y-115594204D01*
X137384063Y-115594203D01*
X137232798Y-115526856D01*
X137232797Y-115526856D01*
X137226767Y-115524171D01*
X137063067Y-115489376D01*
X137000170Y-115455224D01*
X135556099Y-114011153D01*
X137759540Y-114011153D01*
X137760648Y-114017438D01*
X137760649Y-114017448D01*
X137770016Y-114070566D01*
X137771285Y-114079708D01*
X137777380Y-114139716D01*
X137785991Y-114167193D01*
X137789839Y-114182981D01*
X137793727Y-114205035D01*
X137793729Y-114205041D01*
X137794836Y-114211321D01*
X137797186Y-114217256D01*
X137817038Y-114267398D01*
X137820120Y-114276101D01*
X137838162Y-114333672D01*
X137841255Y-114339251D01*
X137852115Y-114358843D01*
X137859067Y-114373549D01*
X137869660Y-114400305D01*
X137873157Y-114405649D01*
X137902686Y-114450774D01*
X137907454Y-114458678D01*
X137936703Y-114511444D01*
X137940855Y-114516288D01*
X137955433Y-114533297D01*
X137965196Y-114546300D01*
X137980955Y-114570382D01*
X137985417Y-114575338D01*
X138024329Y-114614250D01*
X138030902Y-114621348D01*
X138068977Y-114665771D01*
X138074014Y-114669678D01*
X138074016Y-114669680D01*
X138093357Y-114684682D01*
X138105226Y-114695147D01*
X140943611Y-117533532D01*
X140946063Y-117536053D01*
X141005381Y-117598780D01*
X141010611Y-117602442D01*
X141010612Y-117602443D01*
X141054792Y-117633378D01*
X141062157Y-117638948D01*
X141103956Y-117673039D01*
X141103960Y-117673042D01*
X141108903Y-117677073D01*
X141134413Y-117690410D01*
X141148300Y-117698853D01*
X141171879Y-117715363D01*
X141227240Y-117739320D01*
X141235572Y-117743295D01*
X141283373Y-117768284D01*
X141283376Y-117768285D01*
X141289030Y-117771241D01*
X141295157Y-117772998D01*
X141295160Y-117772999D01*
X141308858Y-117776926D01*
X141316701Y-117779175D01*
X141332005Y-117784655D01*
X141358419Y-117796086D01*
X141401781Y-117805145D01*
X141417467Y-117808422D01*
X141426430Y-117810640D01*
X141440460Y-117814663D01*
X141484413Y-117827266D01*
X141513112Y-117829474D01*
X141529205Y-117831765D01*
X141557380Y-117837651D01*
X141562219Y-117837905D01*
X141562222Y-117837905D01*
X141562371Y-117837913D01*
X141562387Y-117837913D01*
X141564039Y-117838000D01*
X141619064Y-117838000D01*
X141628731Y-117838371D01*
X141680710Y-117842371D01*
X141680714Y-117842371D01*
X141687070Y-117842860D01*
X141717672Y-117838994D01*
X141733465Y-117838000D01*
X141813300Y-117838000D01*
X141874674Y-117831766D01*
X141958368Y-117823265D01*
X141958370Y-117823265D01*
X141964716Y-117822620D01*
X142158672Y-117761838D01*
X142336444Y-117663297D01*
X142490771Y-117531023D01*
X142615348Y-117370419D01*
X142705087Y-117188045D01*
X142714781Y-117150829D01*
X142754712Y-116997534D01*
X142754712Y-116997531D01*
X142756322Y-116991352D01*
X142766959Y-116788374D01*
X142736565Y-116587403D01*
X142666381Y-116396648D01*
X142655015Y-116378316D01*
X142562637Y-116229324D01*
X142562634Y-116229320D01*
X142559274Y-116223901D01*
X142419619Y-116076220D01*
X142253121Y-115959637D01*
X142180754Y-115928321D01*
X142141700Y-115901779D01*
X139799905Y-113559985D01*
X139787627Y-113537500D01*
X141262500Y-113537500D01*
X142762500Y-115037500D01*
X151762500Y-115037500D01*
X153262500Y-113537500D01*
X153262500Y-110837500D01*
X155607315Y-110837500D01*
X155626003Y-111015303D01*
X155681250Y-111185335D01*
X155684553Y-111191057D01*
X155684554Y-111191058D01*
X155696901Y-111212443D01*
X155731405Y-111272205D01*
X155745119Y-111295959D01*
X155762000Y-111358959D01*
X155762000Y-111408859D01*
X155761708Y-111417429D01*
X155757822Y-111474430D01*
X155759127Y-111481906D01*
X155759127Y-111481909D01*
X155768678Y-111536632D01*
X155769641Y-111543158D01*
X155777224Y-111605820D01*
X155779909Y-111612927D01*
X155780718Y-111616220D01*
X155784677Y-111630691D01*
X155785666Y-111633967D01*
X155786973Y-111641454D01*
X155790028Y-111648413D01*
X155790028Y-111648414D01*
X155812347Y-111699260D01*
X155814839Y-111705366D01*
X155837155Y-111764423D01*
X155841454Y-111770678D01*
X155843035Y-111773703D01*
X155850325Y-111786799D01*
X155852066Y-111789743D01*
X155855121Y-111796702D01*
X155859746Y-111802730D01*
X155859747Y-111802731D01*
X155893542Y-111846773D01*
X155897419Y-111852109D01*
X155928881Y-111897886D01*
X155928886Y-111897892D01*
X155933188Y-111904151D01*
X155938862Y-111909206D01*
X155979157Y-111945108D01*
X155984433Y-111950089D01*
X157146911Y-113112567D01*
X157152764Y-113118832D01*
X157190331Y-113161896D01*
X157196542Y-113166261D01*
X157196545Y-113166264D01*
X157241993Y-113198205D01*
X157247288Y-113202138D01*
X157296957Y-113241083D01*
X157303884Y-113244211D01*
X157306815Y-113245986D01*
X157319818Y-113253403D01*
X157322832Y-113255019D01*
X157329047Y-113259387D01*
X157336123Y-113262146D01*
X157336127Y-113262148D01*
X157387864Y-113282319D01*
X157393945Y-113284875D01*
X157451484Y-113310855D01*
X157458950Y-113312239D01*
X157462199Y-113313257D01*
X157476664Y-113317377D01*
X157479937Y-113318217D01*
X157487013Y-113320976D01*
X157531683Y-113326856D01*
X157549606Y-113329216D01*
X157556123Y-113330248D01*
X157597535Y-113337923D01*
X157618192Y-113341752D01*
X157625772Y-113341315D01*
X157625773Y-113341315D01*
X157679644Y-113338209D01*
X157686896Y-113338000D01*
X161288258Y-113338000D01*
X161356379Y-113358002D01*
X161362319Y-113362064D01*
X161384407Y-113378112D01*
X161390435Y-113380796D01*
X161390437Y-113380797D01*
X161493888Y-113426856D01*
X161547733Y-113450829D01*
X161635171Y-113469415D01*
X161716152Y-113486628D01*
X161716156Y-113486628D01*
X161722609Y-113488000D01*
X161901391Y-113488000D01*
X161907844Y-113486628D01*
X161907848Y-113486628D01*
X161988829Y-113469414D01*
X162076267Y-113450829D01*
X162130112Y-113426856D01*
X162233563Y-113380797D01*
X162233565Y-113380796D01*
X162239593Y-113378112D01*
X162305472Y-113330248D01*
X162378891Y-113276905D01*
X162384230Y-113273026D01*
X162451600Y-113198205D01*
X162499440Y-113145073D01*
X162499441Y-113145072D01*
X162503859Y-113140165D01*
X162593250Y-112985335D01*
X162648497Y-112815303D01*
X162667185Y-112637500D01*
X162648497Y-112459697D01*
X162593250Y-112289665D01*
X162503859Y-112134835D01*
X162384230Y-112001974D01*
X162309280Y-111947519D01*
X162244935Y-111900769D01*
X162244933Y-111900768D01*
X162239593Y-111896888D01*
X162233565Y-111894204D01*
X162233563Y-111894203D01*
X162082298Y-111826856D01*
X162082297Y-111826856D01*
X162076267Y-111824171D01*
X161975400Y-111802731D01*
X161907848Y-111788372D01*
X161907844Y-111788372D01*
X161901391Y-111787000D01*
X161722609Y-111787000D01*
X161716156Y-111788372D01*
X161716152Y-111788372D01*
X161648600Y-111802731D01*
X161547733Y-111824171D01*
X161541703Y-111826856D01*
X161541702Y-111826856D01*
X161390438Y-111894203D01*
X161390436Y-111894204D01*
X161384408Y-111896888D01*
X161379067Y-111900768D01*
X161379066Y-111900769D01*
X161362320Y-111912936D01*
X161295453Y-111936794D01*
X161288259Y-111937000D01*
X158004847Y-111937000D01*
X157936726Y-111916998D01*
X157915752Y-111900095D01*
X157287862Y-111272205D01*
X157253836Y-111209893D01*
X157257124Y-111144174D01*
X157296957Y-111021582D01*
X157296957Y-111021580D01*
X157298997Y-111015303D01*
X157317685Y-110837500D01*
X157298997Y-110659697D01*
X157296562Y-110652201D01*
X157245792Y-110495950D01*
X157243750Y-110489665D01*
X157234144Y-110473026D01*
X157157662Y-110340556D01*
X157154359Y-110334835D01*
X157149940Y-110329927D01*
X157039145Y-110206877D01*
X157039143Y-110206876D01*
X157034730Y-110201974D01*
X156890093Y-110096888D01*
X156884065Y-110094204D01*
X156884063Y-110094203D01*
X156732798Y-110026856D01*
X156732797Y-110026856D01*
X156726767Y-110024171D01*
X156639329Y-110005585D01*
X156558348Y-109988372D01*
X156558344Y-109988372D01*
X156551891Y-109987000D01*
X156373109Y-109987000D01*
X156366656Y-109988372D01*
X156366652Y-109988372D01*
X156285671Y-110005586D01*
X156198233Y-110024171D01*
X156192203Y-110026856D01*
X156192202Y-110026856D01*
X156040938Y-110094203D01*
X156040936Y-110094204D01*
X156034908Y-110096888D01*
X155890270Y-110201974D01*
X155885857Y-110206876D01*
X155885855Y-110206877D01*
X155775060Y-110329927D01*
X155770641Y-110334835D01*
X155767338Y-110340556D01*
X155690857Y-110473026D01*
X155681250Y-110489665D01*
X155679208Y-110495950D01*
X155628439Y-110652201D01*
X155626003Y-110659697D01*
X155607315Y-110837500D01*
X153262500Y-110837500D01*
X153262500Y-109862451D01*
X157557815Y-109862451D01*
X157558505Y-109869016D01*
X157573881Y-110015303D01*
X157576503Y-110040254D01*
X157631750Y-110210286D01*
X157721141Y-110365116D01*
X157725559Y-110370023D01*
X157725560Y-110370024D01*
X157831787Y-110488000D01*
X157840770Y-110497977D01*
X157846109Y-110501856D01*
X157945728Y-110574234D01*
X157985407Y-110603063D01*
X157991435Y-110605747D01*
X157991437Y-110605748D01*
X158142702Y-110673095D01*
X158148733Y-110675780D01*
X158206224Y-110688000D01*
X158317152Y-110711579D01*
X158317156Y-110711579D01*
X158323609Y-110712951D01*
X158502391Y-110712951D01*
X158508844Y-110711579D01*
X158508848Y-110711579D01*
X158619776Y-110688000D01*
X158677267Y-110675780D01*
X158683298Y-110673095D01*
X158834563Y-110605748D01*
X158834565Y-110605747D01*
X158840593Y-110603063D01*
X158880273Y-110574234D01*
X158965841Y-110512064D01*
X159032708Y-110488206D01*
X159039902Y-110488000D01*
X160069439Y-110488000D01*
X160137560Y-110508002D01*
X160143498Y-110512062D01*
X160234407Y-110578112D01*
X160240434Y-110580795D01*
X160240435Y-110580796D01*
X160391702Y-110648144D01*
X160397733Y-110650829D01*
X160470335Y-110666261D01*
X160566152Y-110686628D01*
X160566156Y-110686628D01*
X160572609Y-110688000D01*
X160751391Y-110688000D01*
X160757844Y-110686628D01*
X160757848Y-110686628D01*
X160853665Y-110666261D01*
X160926267Y-110650829D01*
X160932298Y-110648144D01*
X161083563Y-110580797D01*
X161083565Y-110580796D01*
X161089593Y-110578112D01*
X161234230Y-110473026D01*
X161353859Y-110340165D01*
X161364122Y-110322388D01*
X161439946Y-110191058D01*
X161439947Y-110191057D01*
X161443250Y-110185335D01*
X161495616Y-110024171D01*
X161496457Y-110021582D01*
X161496457Y-110021580D01*
X161498497Y-110015303D01*
X161501838Y-109983521D01*
X161516495Y-109844065D01*
X161517185Y-109837500D01*
X161501809Y-109691212D01*
X161499187Y-109666261D01*
X161499187Y-109666260D01*
X161498497Y-109659697D01*
X161443250Y-109489665D01*
X161425377Y-109458707D01*
X161357162Y-109340556D01*
X161353859Y-109334835D01*
X161330803Y-109309229D01*
X161238645Y-109206877D01*
X161238643Y-109206876D01*
X161234230Y-109201974D01*
X161180499Y-109162936D01*
X161094935Y-109100769D01*
X161094933Y-109100768D01*
X161089593Y-109096888D01*
X161083565Y-109094204D01*
X161083563Y-109094203D01*
X160932298Y-109026856D01*
X160932297Y-109026856D01*
X160926267Y-109024171D01*
X160838829Y-109005585D01*
X160757848Y-108988372D01*
X160757844Y-108988372D01*
X160751391Y-108987000D01*
X160572609Y-108987000D01*
X160566156Y-108988372D01*
X160566152Y-108988372D01*
X160485171Y-109005585D01*
X160397733Y-109024171D01*
X160391703Y-109026856D01*
X160391702Y-109026856D01*
X160240438Y-109094203D01*
X160240436Y-109094204D01*
X160234408Y-109096888D01*
X160229067Y-109100768D01*
X160229066Y-109100769D01*
X160143501Y-109162936D01*
X160076633Y-109186794D01*
X160069440Y-109187000D01*
X158971219Y-109187000D01*
X158903098Y-109166998D01*
X158897158Y-109162936D01*
X158845935Y-109125720D01*
X158845934Y-109125719D01*
X158840593Y-109121839D01*
X158834565Y-109119155D01*
X158834563Y-109119154D01*
X158683298Y-109051807D01*
X158683297Y-109051807D01*
X158677267Y-109049122D01*
X158559882Y-109024171D01*
X158508848Y-109013323D01*
X158508844Y-109013323D01*
X158502391Y-109011951D01*
X158323609Y-109011951D01*
X158317156Y-109013323D01*
X158317152Y-109013323D01*
X158266118Y-109024171D01*
X158148733Y-109049122D01*
X158142703Y-109051807D01*
X158142702Y-109051807D01*
X157991438Y-109119154D01*
X157991436Y-109119155D01*
X157985408Y-109121839D01*
X157840770Y-109226925D01*
X157836357Y-109231827D01*
X157836355Y-109231828D01*
X157766663Y-109309229D01*
X157721141Y-109359786D01*
X157717838Y-109365507D01*
X157649460Y-109483942D01*
X157631750Y-109514616D01*
X157629708Y-109520901D01*
X157590579Y-109641328D01*
X157576503Y-109684648D01*
X157557815Y-109862451D01*
X153262500Y-109862451D01*
X153262500Y-106537500D01*
X152762500Y-106037500D01*
X141762500Y-106037500D01*
X141262500Y-106537500D01*
X141262500Y-113537500D01*
X139787627Y-113537500D01*
X139765880Y-113497673D01*
X139763000Y-113470890D01*
X139763000Y-109986700D01*
X139751046Y-109869016D01*
X139748265Y-109841632D01*
X139748265Y-109841630D01*
X139747620Y-109835284D01*
X139686838Y-109641328D01*
X139588297Y-109463556D01*
X139456023Y-109309229D01*
X139295419Y-109184652D01*
X139113045Y-109094913D01*
X139106867Y-109093304D01*
X139106865Y-109093303D01*
X138922534Y-109045288D01*
X138922531Y-109045288D01*
X138916352Y-109043678D01*
X138835172Y-109039424D01*
X138719756Y-109033375D01*
X138719752Y-109033375D01*
X138713374Y-109033041D01*
X138512403Y-109063435D01*
X138321648Y-109133619D01*
X138316228Y-109136979D01*
X138316227Y-109136980D01*
X138154324Y-109237363D01*
X138154320Y-109237366D01*
X138148901Y-109240726D01*
X138144263Y-109245112D01*
X138022999Y-109359786D01*
X138001220Y-109380381D01*
X137884637Y-109546879D01*
X137803914Y-109733419D01*
X137762349Y-109932380D01*
X137762000Y-109939039D01*
X137762000Y-113921330D01*
X137761951Y-113924849D01*
X137759540Y-114011153D01*
X135556099Y-114011153D01*
X135379748Y-113834802D01*
X135371907Y-113826185D01*
X135367702Y-113819560D01*
X135316683Y-113771650D01*
X135313842Y-113768896D01*
X135293535Y-113748589D01*
X135290404Y-113746160D01*
X135290398Y-113746155D01*
X135290123Y-113745942D01*
X135281110Y-113738245D01*
X135247893Y-113707052D01*
X135238571Y-113701927D01*
X135229434Y-113696904D01*
X135212910Y-113686050D01*
X135202527Y-113677996D01*
X135202526Y-113677995D01*
X135196264Y-113673138D01*
X135154452Y-113655045D01*
X135143807Y-113649830D01*
X135103868Y-113627873D01*
X135096189Y-113625902D01*
X135096188Y-113625901D01*
X135083459Y-113622633D01*
X135064750Y-113616227D01*
X135052700Y-113611012D01*
X135052695Y-113611010D01*
X135045426Y-113607865D01*
X135000430Y-113600738D01*
X134988810Y-113598331D01*
X134952360Y-113588972D01*
X134952355Y-113588971D01*
X134944677Y-113587000D01*
X134923616Y-113587000D01*
X134903904Y-113585449D01*
X134902598Y-113585242D01*
X134883095Y-113582153D01*
X134875204Y-113582899D01*
X134837735Y-113586441D01*
X134825877Y-113587000D01*
X132255061Y-113587000D01*
X132186940Y-113566998D01*
X132180999Y-113562936D01*
X132176938Y-113559985D01*
X132090093Y-113496888D01*
X132084063Y-113494203D01*
X131932798Y-113426856D01*
X131932797Y-113426856D01*
X131926767Y-113424171D01*
X131839329Y-113405586D01*
X131758348Y-113388372D01*
X131758344Y-113388372D01*
X131751891Y-113387000D01*
X131573109Y-113387000D01*
X131566656Y-113388372D01*
X131566652Y-113388372D01*
X131485671Y-113405586D01*
X131398233Y-113424171D01*
X131392203Y-113426856D01*
X131392202Y-113426856D01*
X131240938Y-113494203D01*
X131240936Y-113494204D01*
X131234908Y-113496888D01*
X131229567Y-113500768D01*
X131229566Y-113500769D01*
X131168646Y-113545030D01*
X131090270Y-113601974D01*
X131085857Y-113606876D01*
X131085855Y-113606877D01*
X130995657Y-113707052D01*
X130970641Y-113734835D01*
X130881250Y-113889665D01*
X130879208Y-113895950D01*
X130839731Y-114017448D01*
X130826003Y-114059697D01*
X130825313Y-114066260D01*
X130825313Y-114066261D01*
X130817593Y-114139716D01*
X130807315Y-114237500D01*
X127763000Y-114237500D01*
X127763000Y-102037500D01*
X128706841Y-102037500D01*
X128727437Y-102272908D01*
X128728861Y-102278222D01*
X128728861Y-102278223D01*
X128778973Y-102465244D01*
X128788597Y-102501163D01*
X128790919Y-102506143D01*
X128790920Y-102506145D01*
X128885578Y-102709137D01*
X128888465Y-102715329D01*
X129024005Y-102908901D01*
X129191099Y-103075995D01*
X129195607Y-103079152D01*
X129195610Y-103079154D01*
X129379016Y-103207576D01*
X129384670Y-103211535D01*
X129389652Y-103213858D01*
X129389657Y-103213861D01*
X129593855Y-103309080D01*
X129598837Y-103311403D01*
X129604145Y-103312825D01*
X129604147Y-103312826D01*
X129821777Y-103371139D01*
X129827092Y-103372563D01*
X130062500Y-103393159D01*
X130297908Y-103372563D01*
X130303223Y-103371139D01*
X130520853Y-103312826D01*
X130520855Y-103312825D01*
X130526163Y-103311403D01*
X130531145Y-103309080D01*
X130735343Y-103213861D01*
X130735348Y-103213858D01*
X130740330Y-103211535D01*
X130745984Y-103207576D01*
X130929390Y-103079154D01*
X130929393Y-103079152D01*
X130933901Y-103075995D01*
X131100995Y-102908901D01*
X131236535Y-102715329D01*
X131239423Y-102709137D01*
X131334080Y-102506145D01*
X131334081Y-102506143D01*
X131336403Y-102501163D01*
X131346028Y-102465244D01*
X131396139Y-102278223D01*
X131396139Y-102278222D01*
X131397563Y-102272908D01*
X131418159Y-102037500D01*
X133706841Y-102037500D01*
X133727437Y-102272908D01*
X133728861Y-102278222D01*
X133728861Y-102278223D01*
X133778973Y-102465244D01*
X133788597Y-102501163D01*
X133790919Y-102506143D01*
X133790920Y-102506145D01*
X133885578Y-102709137D01*
X133888465Y-102715329D01*
X134024005Y-102908901D01*
X134191099Y-103075995D01*
X134195607Y-103079152D01*
X134195610Y-103079154D01*
X134379016Y-103207576D01*
X134384670Y-103211535D01*
X134389652Y-103213858D01*
X134389657Y-103213861D01*
X134593855Y-103309080D01*
X134598837Y-103311403D01*
X134604145Y-103312825D01*
X134604147Y-103312826D01*
X134821777Y-103371139D01*
X134827092Y-103372563D01*
X135062500Y-103393159D01*
X135297908Y-103372563D01*
X135303223Y-103371139D01*
X135520853Y-103312826D01*
X135520855Y-103312825D01*
X135526163Y-103311403D01*
X135531145Y-103309080D01*
X135734743Y-103214141D01*
X157760808Y-103214141D01*
X157779496Y-103391944D01*
X157834743Y-103561976D01*
X157924134Y-103716806D01*
X158043763Y-103849667D01*
X158188400Y-103954753D01*
X158194428Y-103957437D01*
X158194430Y-103957438D01*
X158345695Y-104024785D01*
X158351726Y-104027470D01*
X158358181Y-104028842D01*
X158358184Y-104028843D01*
X158419247Y-104041822D01*
X158477361Y-104071433D01*
X158478260Y-104072242D01*
X158483252Y-104077965D01*
X158534894Y-104114259D01*
X158540179Y-104118185D01*
X158583897Y-104152464D01*
X158583901Y-104152466D01*
X158589878Y-104157153D01*
X158596801Y-104160279D01*
X158599749Y-104162064D01*
X158612709Y-104169456D01*
X158615755Y-104171089D01*
X158621968Y-104175456D01*
X158680787Y-104198389D01*
X158686866Y-104200944D01*
X158744405Y-104226924D01*
X158751876Y-104228309D01*
X158755144Y-104229333D01*
X158769585Y-104233446D01*
X158772858Y-104234286D01*
X158779934Y-104237045D01*
X158824604Y-104242925D01*
X158842527Y-104245285D01*
X158849044Y-104246317D01*
X158890456Y-104253992D01*
X158911113Y-104257821D01*
X158918693Y-104257384D01*
X158918694Y-104257384D01*
X158972565Y-104254278D01*
X158979817Y-104254069D01*
X162036223Y-104254069D01*
X162104344Y-104274071D01*
X162125318Y-104290974D01*
X164194125Y-106359782D01*
X164224532Y-106415781D01*
X164226003Y-106415303D01*
X164281250Y-106585335D01*
X164370641Y-106740165D01*
X164490270Y-106873026D01*
X164634907Y-106978112D01*
X164640935Y-106980796D01*
X164640937Y-106980797D01*
X164792202Y-107048144D01*
X164798233Y-107050829D01*
X164885671Y-107069415D01*
X164966652Y-107086628D01*
X164966656Y-107086628D01*
X164973109Y-107088000D01*
X165151891Y-107088000D01*
X165158344Y-107086628D01*
X165158348Y-107086628D01*
X165239329Y-107069414D01*
X165326767Y-107050829D01*
X165332798Y-107048144D01*
X165484063Y-106980797D01*
X165484065Y-106980796D01*
X165490093Y-106978112D01*
X165634730Y-106873026D01*
X165754359Y-106740165D01*
X165843750Y-106585335D01*
X165898997Y-106415303D01*
X165917685Y-106237500D01*
X165898997Y-106059697D01*
X165894232Y-106045030D01*
X165845792Y-105895950D01*
X165843750Y-105889665D01*
X165754359Y-105734835D01*
X165634730Y-105601974D01*
X165490093Y-105496888D01*
X165484065Y-105494204D01*
X165484063Y-105494203D01*
X165332798Y-105426856D01*
X165332797Y-105426856D01*
X165326767Y-105424171D01*
X165252865Y-105408462D01*
X165189968Y-105374311D01*
X162894151Y-103078494D01*
X162888297Y-103072228D01*
X162855734Y-103034900D01*
X162850738Y-103029173D01*
X162799096Y-102992879D01*
X162793811Y-102988953D01*
X162750093Y-102954674D01*
X162750089Y-102954672D01*
X162744112Y-102949985D01*
X162737189Y-102946859D01*
X162734241Y-102945074D01*
X162721281Y-102937682D01*
X162718235Y-102936049D01*
X162712022Y-102931682D01*
X162653202Y-102908749D01*
X162647123Y-102906193D01*
X162589585Y-102880214D01*
X162582114Y-102878829D01*
X162578846Y-102877805D01*
X162564405Y-102873692D01*
X162561132Y-102872852D01*
X162554056Y-102870093D01*
X162509386Y-102864213D01*
X162491463Y-102861853D01*
X162484946Y-102860821D01*
X162430344Y-102850701D01*
X162422877Y-102849317D01*
X162415297Y-102849754D01*
X162415296Y-102849754D01*
X162361425Y-102852860D01*
X162354173Y-102853069D01*
X160770087Y-102853069D01*
X160701966Y-102833067D01*
X160655473Y-102779411D01*
X160645369Y-102709137D01*
X160655892Y-102673819D01*
X160734080Y-102506145D01*
X160734081Y-102506143D01*
X160736403Y-102501163D01*
X160746028Y-102465244D01*
X160796139Y-102278223D01*
X160796139Y-102278222D01*
X160797563Y-102272908D01*
X160818159Y-102037500D01*
X163106841Y-102037500D01*
X163127437Y-102272908D01*
X163128861Y-102278222D01*
X163128861Y-102278223D01*
X163178973Y-102465244D01*
X163188597Y-102501163D01*
X163190919Y-102506143D01*
X163190920Y-102506145D01*
X163285578Y-102709137D01*
X163288465Y-102715329D01*
X163424005Y-102908901D01*
X163591099Y-103075995D01*
X163595607Y-103079152D01*
X163595610Y-103079154D01*
X163779016Y-103207576D01*
X163784670Y-103211535D01*
X163789652Y-103213858D01*
X163789657Y-103213861D01*
X163993855Y-103309080D01*
X163998837Y-103311403D01*
X164004145Y-103312825D01*
X164004147Y-103312826D01*
X164221777Y-103371139D01*
X164227092Y-103372563D01*
X164462500Y-103393159D01*
X164697908Y-103372563D01*
X164703223Y-103371139D01*
X164920853Y-103312826D01*
X164920855Y-103312825D01*
X164926163Y-103311403D01*
X164931145Y-103309080D01*
X165135343Y-103213861D01*
X165135348Y-103213858D01*
X165140330Y-103211535D01*
X165145984Y-103207576D01*
X165329390Y-103079154D01*
X165329393Y-103079152D01*
X165333901Y-103075995D01*
X165500995Y-102908901D01*
X165636535Y-102715329D01*
X165639423Y-102709137D01*
X165734080Y-102506145D01*
X165734081Y-102506143D01*
X165736403Y-102501163D01*
X165746028Y-102465244D01*
X165796139Y-102278223D01*
X165796139Y-102278222D01*
X165797563Y-102272908D01*
X165818159Y-102037500D01*
X165797563Y-101802092D01*
X165740064Y-101587500D01*
X165737826Y-101579147D01*
X165737825Y-101579145D01*
X165736403Y-101573837D01*
X165691532Y-101477612D01*
X165638858Y-101364652D01*
X165638856Y-101364649D01*
X165636535Y-101359671D01*
X165500995Y-101166099D01*
X165333901Y-100999005D01*
X165329393Y-100995848D01*
X165329390Y-100995846D01*
X165144839Y-100866622D01*
X165144836Y-100866620D01*
X165140330Y-100863465D01*
X165135348Y-100861142D01*
X165135343Y-100861139D01*
X164931145Y-100765920D01*
X164931144Y-100765919D01*
X164926163Y-100763597D01*
X164920855Y-100762175D01*
X164920853Y-100762174D01*
X164703223Y-100703861D01*
X164703222Y-100703861D01*
X164697908Y-100702437D01*
X164462500Y-100681841D01*
X164227092Y-100702437D01*
X164221778Y-100703861D01*
X164221777Y-100703861D01*
X164004147Y-100762174D01*
X164004145Y-100762175D01*
X163998837Y-100763597D01*
X163993857Y-100765919D01*
X163993855Y-100765920D01*
X163789652Y-100861142D01*
X163789649Y-100861144D01*
X163784671Y-100863465D01*
X163591099Y-100999005D01*
X163424005Y-101166099D01*
X163288465Y-101359671D01*
X163286144Y-101364649D01*
X163286142Y-101364652D01*
X163233468Y-101477612D01*
X163188597Y-101573837D01*
X163187175Y-101579145D01*
X163187174Y-101579147D01*
X163184936Y-101587500D01*
X163127437Y-101802092D01*
X163106841Y-102037500D01*
X160818159Y-102037500D01*
X160797563Y-101802092D01*
X160740064Y-101587500D01*
X160737826Y-101579147D01*
X160737825Y-101579145D01*
X160736403Y-101573837D01*
X160691532Y-101477612D01*
X160638858Y-101364652D01*
X160638856Y-101364649D01*
X160636535Y-101359671D01*
X160500995Y-101166099D01*
X160333901Y-100999005D01*
X160329393Y-100995848D01*
X160329390Y-100995846D01*
X160144839Y-100866622D01*
X160144836Y-100866620D01*
X160140330Y-100863465D01*
X160135348Y-100861142D01*
X160135343Y-100861139D01*
X159931145Y-100765920D01*
X159931144Y-100765919D01*
X159926163Y-100763597D01*
X159920855Y-100762175D01*
X159920853Y-100762174D01*
X159703223Y-100703861D01*
X159703222Y-100703861D01*
X159697908Y-100702437D01*
X159462500Y-100681841D01*
X159227092Y-100702437D01*
X159221778Y-100703861D01*
X159221777Y-100703861D01*
X159004147Y-100762174D01*
X159004145Y-100762175D01*
X158998837Y-100763597D01*
X158993857Y-100765919D01*
X158993855Y-100765920D01*
X158789652Y-100861142D01*
X158789649Y-100861144D01*
X158784671Y-100863465D01*
X158591099Y-100999005D01*
X158424005Y-101166099D01*
X158288465Y-101359671D01*
X158286144Y-101364649D01*
X158286142Y-101364652D01*
X158233468Y-101477612D01*
X158188597Y-101573837D01*
X158187175Y-101579145D01*
X158187174Y-101579147D01*
X158184936Y-101587500D01*
X158127437Y-101802092D01*
X158106841Y-102037500D01*
X158127437Y-102272908D01*
X158128861Y-102278223D01*
X158128862Y-102278226D01*
X158159954Y-102394268D01*
X158158264Y-102465244D01*
X158118469Y-102524040D01*
X158112308Y-102528814D01*
X158043763Y-102578615D01*
X158039350Y-102583517D01*
X158039348Y-102583518D01*
X157928553Y-102706568D01*
X157924134Y-102711476D01*
X157920831Y-102717197D01*
X157843753Y-102850701D01*
X157834743Y-102866306D01*
X157779496Y-103036338D01*
X157760808Y-103214141D01*
X135734743Y-103214141D01*
X135735343Y-103213861D01*
X135735348Y-103213858D01*
X135740330Y-103211535D01*
X135745984Y-103207576D01*
X135929390Y-103079154D01*
X135929393Y-103079152D01*
X135933901Y-103075995D01*
X136100995Y-102908901D01*
X136236535Y-102715329D01*
X136239423Y-102709137D01*
X136334080Y-102506145D01*
X136334081Y-102506143D01*
X136336403Y-102501163D01*
X136346028Y-102465244D01*
X136396139Y-102278223D01*
X136396139Y-102278222D01*
X136397563Y-102272908D01*
X136418159Y-102037500D01*
X136397563Y-101802092D01*
X136340064Y-101587500D01*
X136337826Y-101579147D01*
X136337825Y-101579145D01*
X136336403Y-101573837D01*
X136291532Y-101477612D01*
X136238858Y-101364652D01*
X136238856Y-101364649D01*
X136236535Y-101359671D01*
X136100995Y-101166099D01*
X135933901Y-100999005D01*
X135929393Y-100995848D01*
X135929390Y-100995846D01*
X135744839Y-100866622D01*
X135744836Y-100866620D01*
X135740330Y-100863465D01*
X135735348Y-100861142D01*
X135735343Y-100861139D01*
X135531145Y-100765920D01*
X135531144Y-100765919D01*
X135526163Y-100763597D01*
X135520855Y-100762175D01*
X135520853Y-100762174D01*
X135303223Y-100703861D01*
X135303222Y-100703861D01*
X135297908Y-100702437D01*
X135062500Y-100681841D01*
X134827092Y-100702437D01*
X134821778Y-100703861D01*
X134821777Y-100703861D01*
X134604147Y-100762174D01*
X134604145Y-100762175D01*
X134598837Y-100763597D01*
X134593857Y-100765919D01*
X134593855Y-100765920D01*
X134389652Y-100861142D01*
X134389649Y-100861144D01*
X134384671Y-100863465D01*
X134191099Y-100999005D01*
X134024005Y-101166099D01*
X133888465Y-101359671D01*
X133886144Y-101364649D01*
X133886142Y-101364652D01*
X133833468Y-101477612D01*
X133788597Y-101573837D01*
X133787175Y-101579145D01*
X133787174Y-101579147D01*
X133784936Y-101587500D01*
X133727437Y-101802092D01*
X133706841Y-102037500D01*
X131418159Y-102037500D01*
X131397563Y-101802092D01*
X131340064Y-101587500D01*
X131337826Y-101579147D01*
X131337825Y-101579145D01*
X131336403Y-101573837D01*
X131291532Y-101477612D01*
X131238858Y-101364652D01*
X131238856Y-101364649D01*
X131236535Y-101359671D01*
X131100995Y-101166099D01*
X130933901Y-100999005D01*
X130929393Y-100995848D01*
X130929390Y-100995846D01*
X130744839Y-100866622D01*
X130744836Y-100866620D01*
X130740330Y-100863465D01*
X130735348Y-100861142D01*
X130735343Y-100861139D01*
X130531145Y-100765920D01*
X130531144Y-100765919D01*
X130526163Y-100763597D01*
X130520855Y-100762175D01*
X130520853Y-100762174D01*
X130303223Y-100703861D01*
X130303222Y-100703861D01*
X130297908Y-100702437D01*
X130062500Y-100681841D01*
X129827092Y-100702437D01*
X129821778Y-100703861D01*
X129821777Y-100703861D01*
X129604147Y-100762174D01*
X129604145Y-100762175D01*
X129598837Y-100763597D01*
X129593857Y-100765919D01*
X129593855Y-100765920D01*
X129389652Y-100861142D01*
X129389649Y-100861144D01*
X129384671Y-100863465D01*
X129191099Y-100999005D01*
X129024005Y-101166099D01*
X128888465Y-101359671D01*
X128886144Y-101364649D01*
X128886142Y-101364652D01*
X128833468Y-101477612D01*
X128788597Y-101573837D01*
X128787175Y-101579145D01*
X128787174Y-101579147D01*
X128784936Y-101587500D01*
X128727437Y-101802092D01*
X128706841Y-102037500D01*
X127763000Y-102037500D01*
X127763000Y-97837500D01*
X128657815Y-97837500D01*
X128658505Y-97844065D01*
X128660562Y-97863631D01*
X128676503Y-98015303D01*
X128678543Y-98021580D01*
X128678543Y-98021582D01*
X128699799Y-98087000D01*
X128731750Y-98185335D01*
X128735053Y-98191057D01*
X128735054Y-98191058D01*
X128744187Y-98206877D01*
X128821141Y-98340165D01*
X128940770Y-98473026D01*
X129085407Y-98578112D01*
X129091435Y-98580796D01*
X129091437Y-98580797D01*
X129242702Y-98648144D01*
X129248733Y-98650829D01*
X129412433Y-98685624D01*
X129475330Y-98719776D01*
X131679683Y-100924129D01*
X131687524Y-100932746D01*
X131691729Y-100939371D01*
X131697508Y-100944798D01*
X131697509Y-100944799D01*
X131742747Y-100987280D01*
X131745589Y-100990035D01*
X131765897Y-101010343D01*
X131769034Y-101012776D01*
X131769303Y-101012985D01*
X131778333Y-101020697D01*
X131811538Y-101051879D01*
X131830001Y-101062030D01*
X131846521Y-101072881D01*
X131863168Y-101085794D01*
X131904977Y-101103886D01*
X131915637Y-101109108D01*
X131955563Y-101131058D01*
X131963242Y-101133030D01*
X131963243Y-101133030D01*
X131965755Y-101133675D01*
X131967507Y-101134718D01*
X131970611Y-101135947D01*
X131970413Y-101136448D01*
X132026760Y-101169992D01*
X132043534Y-101192713D01*
X132070641Y-101239665D01*
X132190270Y-101372526D01*
X132334907Y-101477612D01*
X132340935Y-101480296D01*
X132340937Y-101480297D01*
X132492202Y-101547644D01*
X132498233Y-101550329D01*
X132585391Y-101568855D01*
X132666652Y-101586128D01*
X132666656Y-101586128D01*
X132673109Y-101587500D01*
X132851891Y-101587500D01*
X132858344Y-101586128D01*
X132858348Y-101586128D01*
X132939609Y-101568855D01*
X133026767Y-101550329D01*
X133032798Y-101547644D01*
X133184063Y-101480297D01*
X133184065Y-101480296D01*
X133190093Y-101477612D01*
X133334730Y-101372526D01*
X133454359Y-101239665D01*
X133543750Y-101084835D01*
X133593114Y-100932910D01*
X133596957Y-100921082D01*
X133596957Y-100921080D01*
X133598997Y-100914803D01*
X133617685Y-100737000D01*
X133598997Y-100559197D01*
X133543750Y-100389165D01*
X133454359Y-100234335D01*
X133334730Y-100101474D01*
X133190093Y-99996388D01*
X133184065Y-99993704D01*
X133184063Y-99993703D01*
X133032798Y-99926356D01*
X133032797Y-99926356D01*
X133026767Y-99923671D01*
X132939329Y-99905086D01*
X132858348Y-99887872D01*
X132858344Y-99887872D01*
X132851891Y-99886500D01*
X132706341Y-99886500D01*
X132686657Y-99884953D01*
X132684893Y-99884674D01*
X132673241Y-99882262D01*
X132636791Y-99872903D01*
X132636786Y-99872902D01*
X132629108Y-99870931D01*
X132608047Y-99870931D01*
X132588335Y-99869380D01*
X132587029Y-99869173D01*
X132567526Y-99866084D01*
X132529712Y-99869659D01*
X132460012Y-99856157D01*
X132428759Y-99833313D01*
X131432946Y-98837500D01*
X142857815Y-98837500D01*
X142876503Y-99015303D01*
X142931750Y-99185335D01*
X143021141Y-99340165D01*
X143140770Y-99473026D01*
X143285407Y-99578112D01*
X143291435Y-99580796D01*
X143291437Y-99580797D01*
X143332082Y-99598893D01*
X143448733Y-99650829D01*
X143536171Y-99669414D01*
X143617152Y-99686628D01*
X143617156Y-99686628D01*
X143623609Y-99688000D01*
X143802391Y-99688000D01*
X143808844Y-99686628D01*
X143808848Y-99686628D01*
X143889829Y-99669415D01*
X143977267Y-99650829D01*
X144093918Y-99598893D01*
X144145167Y-99588000D01*
X148430333Y-99588000D01*
X148481582Y-99598893D01*
X148598233Y-99650829D01*
X148685671Y-99669414D01*
X148766652Y-99686628D01*
X148766656Y-99686628D01*
X148773109Y-99688000D01*
X148951891Y-99688000D01*
X148958344Y-99686628D01*
X148958348Y-99686628D01*
X149039329Y-99669415D01*
X149126767Y-99650829D01*
X149243418Y-99598893D01*
X149284063Y-99580797D01*
X149284065Y-99580796D01*
X149290093Y-99578112D01*
X149434730Y-99473026D01*
X149554359Y-99340165D01*
X149643750Y-99185335D01*
X149698997Y-99015303D01*
X149717685Y-98837500D01*
X149698997Y-98659697D01*
X149696562Y-98652201D01*
X149645792Y-98495950D01*
X149643750Y-98489665D01*
X149634144Y-98473026D01*
X149557662Y-98340556D01*
X149554359Y-98334835D01*
X149434730Y-98201974D01*
X149290093Y-98096888D01*
X149284065Y-98094204D01*
X149284063Y-98094203D01*
X149132798Y-98026856D01*
X149132797Y-98026856D01*
X149126767Y-98024171D01*
X149039329Y-98005585D01*
X148958348Y-97988372D01*
X148958344Y-97988372D01*
X148951891Y-97987000D01*
X148773109Y-97987000D01*
X148766656Y-97988372D01*
X148766652Y-97988372D01*
X148685671Y-98005585D01*
X148598233Y-98024171D01*
X148592203Y-98026856D01*
X148592202Y-98026856D01*
X148481583Y-98076107D01*
X148430334Y-98087000D01*
X144145167Y-98087000D01*
X144093918Y-98076107D01*
X143983298Y-98026856D01*
X143983297Y-98026856D01*
X143977267Y-98024171D01*
X143889829Y-98005585D01*
X143808848Y-97988372D01*
X143808844Y-97988372D01*
X143802391Y-97987000D01*
X143623609Y-97987000D01*
X143617156Y-97988372D01*
X143617152Y-97988372D01*
X143536171Y-98005585D01*
X143448733Y-98024171D01*
X143442703Y-98026856D01*
X143442702Y-98026856D01*
X143291438Y-98094203D01*
X143291436Y-98094204D01*
X143285408Y-98096888D01*
X143140770Y-98201974D01*
X143021141Y-98334835D01*
X143017838Y-98340556D01*
X142941357Y-98473026D01*
X142931750Y-98489665D01*
X142929708Y-98495950D01*
X142878939Y-98652201D01*
X142876503Y-98659697D01*
X142857815Y-98837500D01*
X131432946Y-98837500D01*
X130392130Y-97796684D01*
X130358104Y-97734372D01*
X130355915Y-97720760D01*
X130350187Y-97666261D01*
X130350187Y-97666260D01*
X130349497Y-97659697D01*
X130342954Y-97639558D01*
X130296292Y-97495950D01*
X130294250Y-97489665D01*
X130204859Y-97334835D01*
X130085230Y-97201974D01*
X130050854Y-97176998D01*
X129945935Y-97100769D01*
X129945933Y-97100768D01*
X129940593Y-97096888D01*
X129934565Y-97094204D01*
X129934563Y-97094203D01*
X129783298Y-97026856D01*
X129783297Y-97026856D01*
X129777267Y-97024171D01*
X129689829Y-97005586D01*
X129621639Y-96991091D01*
X158932422Y-96991091D01*
X158932779Y-96997907D01*
X158932779Y-96997911D01*
X158936929Y-97077089D01*
X158941821Y-97170421D01*
X158989508Y-97343549D01*
X159073260Y-97502398D01*
X159189168Y-97639558D01*
X159194591Y-97643705D01*
X159194593Y-97643706D01*
X159326405Y-97744484D01*
X159326409Y-97744487D01*
X159331826Y-97748628D01*
X159338006Y-97751510D01*
X159338008Y-97751511D01*
X159488400Y-97821640D01*
X159488403Y-97821641D01*
X159494577Y-97824520D01*
X159501225Y-97826006D01*
X159501228Y-97826007D01*
X159664790Y-97862567D01*
X159664791Y-97862567D01*
X159669828Y-97863693D01*
X159675319Y-97864000D01*
X159807366Y-97864000D01*
X159941025Y-97849480D01*
X160023751Y-97821640D01*
X160104757Y-97794379D01*
X160104759Y-97794378D01*
X160111222Y-97792203D01*
X160265148Y-97699714D01*
X160324375Y-97643706D01*
X160390665Y-97581019D01*
X160390667Y-97581017D01*
X160395623Y-97576330D01*
X160496560Y-97427806D01*
X160563248Y-97261073D01*
X160572221Y-97206877D01*
X160591463Y-97090646D01*
X160591463Y-97090643D01*
X160592578Y-97083909D01*
X160583179Y-96904579D01*
X160535492Y-96731451D01*
X160451740Y-96572602D01*
X160335832Y-96435442D01*
X160330407Y-96431294D01*
X160198595Y-96330516D01*
X160198591Y-96330513D01*
X160193174Y-96326372D01*
X160186994Y-96323490D01*
X160186992Y-96323489D01*
X160036600Y-96253360D01*
X160036597Y-96253359D01*
X160030423Y-96250480D01*
X160023775Y-96248994D01*
X160023772Y-96248993D01*
X159860210Y-96212433D01*
X159860209Y-96212433D01*
X159855172Y-96211307D01*
X159849681Y-96211000D01*
X159717634Y-96211000D01*
X159583975Y-96225520D01*
X159514226Y-96248993D01*
X159420243Y-96280621D01*
X159420241Y-96280622D01*
X159413778Y-96282797D01*
X159259852Y-96375286D01*
X159254892Y-96379977D01*
X159254890Y-96379978D01*
X159196239Y-96435442D01*
X159129377Y-96498670D01*
X159028440Y-96647194D01*
X158961752Y-96813927D01*
X158932422Y-96991091D01*
X129621639Y-96991091D01*
X129608848Y-96988372D01*
X129608844Y-96988372D01*
X129602391Y-96987000D01*
X129423609Y-96987000D01*
X129417156Y-96988372D01*
X129417152Y-96988372D01*
X129336171Y-97005586D01*
X129248733Y-97024171D01*
X129242703Y-97026856D01*
X129242702Y-97026856D01*
X129091438Y-97094203D01*
X129091436Y-97094204D01*
X129085408Y-97096888D01*
X128940770Y-97201974D01*
X128821141Y-97334835D01*
X128731750Y-97489665D01*
X128729708Y-97495950D01*
X128683047Y-97639558D01*
X128676503Y-97659697D01*
X128657815Y-97837500D01*
X127763000Y-97837500D01*
X127763000Y-90537500D01*
X128407315Y-90537500D01*
X128408005Y-90544065D01*
X128408936Y-90552918D01*
X128426003Y-90715303D01*
X128428043Y-90721580D01*
X128428043Y-90721582D01*
X128457793Y-90813141D01*
X128481250Y-90885335D01*
X128484553Y-90891057D01*
X128484554Y-90891058D01*
X128545053Y-90995846D01*
X128570641Y-91040165D01*
X128575059Y-91045072D01*
X128575060Y-91045073D01*
X128680526Y-91162204D01*
X128690270Y-91173026D01*
X128819291Y-91266766D01*
X128862643Y-91322988D01*
X128868718Y-91393724D01*
X128859423Y-91421951D01*
X128835278Y-91473731D01*
X128788597Y-91573837D01*
X128787175Y-91579145D01*
X128787174Y-91579147D01*
X128784936Y-91587500D01*
X128727437Y-91802092D01*
X128706841Y-92037500D01*
X128727437Y-92272908D01*
X128788597Y-92501163D01*
X128790919Y-92506143D01*
X128790920Y-92506145D01*
X128872586Y-92681276D01*
X128888465Y-92715329D01*
X129024005Y-92908901D01*
X129191099Y-93075995D01*
X129195607Y-93079152D01*
X129195610Y-93079154D01*
X129345263Y-93183942D01*
X129384670Y-93211535D01*
X129389652Y-93213858D01*
X129389657Y-93213861D01*
X129593855Y-93309080D01*
X129598837Y-93311403D01*
X129604145Y-93312825D01*
X129604147Y-93312826D01*
X129803572Y-93366261D01*
X129827092Y-93372563D01*
X130062500Y-93393159D01*
X130297908Y-93372563D01*
X130321428Y-93366261D01*
X130520853Y-93312826D01*
X130520855Y-93312825D01*
X130526163Y-93311403D01*
X130531145Y-93309080D01*
X130735343Y-93213861D01*
X130735348Y-93213858D01*
X130740330Y-93211535D01*
X130779737Y-93183942D01*
X130929390Y-93079154D01*
X130929393Y-93079152D01*
X130933901Y-93075995D01*
X131100995Y-92908901D01*
X131236535Y-92715329D01*
X131252415Y-92681276D01*
X131334080Y-92506145D01*
X131334081Y-92506143D01*
X131336403Y-92501163D01*
X131397563Y-92272908D01*
X131418159Y-92037500D01*
X133706841Y-92037500D01*
X133727437Y-92272908D01*
X133788597Y-92501163D01*
X133790919Y-92506143D01*
X133790920Y-92506145D01*
X133872586Y-92681276D01*
X133888465Y-92715329D01*
X134024005Y-92908901D01*
X134191099Y-93075995D01*
X134195607Y-93079152D01*
X134195610Y-93079154D01*
X134345263Y-93183942D01*
X134384670Y-93211535D01*
X134389652Y-93213858D01*
X134389657Y-93213861D01*
X134593855Y-93309080D01*
X134598837Y-93311403D01*
X134604145Y-93312825D01*
X134604147Y-93312826D01*
X134803572Y-93366261D01*
X134827092Y-93372563D01*
X135062500Y-93393159D01*
X135297908Y-93372563D01*
X135321428Y-93366261D01*
X135520853Y-93312826D01*
X135520855Y-93312825D01*
X135526163Y-93311403D01*
X135531145Y-93309080D01*
X135735343Y-93213861D01*
X135735348Y-93213858D01*
X135740330Y-93211535D01*
X135779737Y-93183942D01*
X135929390Y-93079154D01*
X135929393Y-93079152D01*
X135933901Y-93075995D01*
X136100995Y-92908901D01*
X136236535Y-92715329D01*
X136252415Y-92681276D01*
X136334080Y-92506145D01*
X136334081Y-92506143D01*
X136336403Y-92501163D01*
X136397563Y-92272908D01*
X136418159Y-92037500D01*
X158106841Y-92037500D01*
X158127437Y-92272908D01*
X158188597Y-92501163D01*
X158190919Y-92506143D01*
X158190920Y-92506145D01*
X158272586Y-92681276D01*
X158288465Y-92715329D01*
X158424005Y-92908901D01*
X158591099Y-93075995D01*
X158595607Y-93079152D01*
X158595610Y-93079154D01*
X158745263Y-93183942D01*
X158784670Y-93211535D01*
X158789652Y-93213858D01*
X158789657Y-93213861D01*
X158993855Y-93309080D01*
X158998837Y-93311403D01*
X159004145Y-93312825D01*
X159004147Y-93312826D01*
X159023995Y-93318144D01*
X159084618Y-93355096D01*
X159115639Y-93418956D01*
X159116694Y-93453022D01*
X159107815Y-93537500D01*
X159126503Y-93715303D01*
X159181750Y-93885335D01*
X159271141Y-94040165D01*
X159390770Y-94173026D01*
X159396109Y-94176905D01*
X159480482Y-94238206D01*
X159535407Y-94278112D01*
X159541435Y-94280796D01*
X159541437Y-94280797D01*
X159692702Y-94348144D01*
X159698733Y-94350829D01*
X159786171Y-94369415D01*
X159867152Y-94386628D01*
X159867156Y-94386628D01*
X159873609Y-94388000D01*
X160052391Y-94388000D01*
X160058844Y-94386628D01*
X160058848Y-94386628D01*
X160139829Y-94369414D01*
X160227267Y-94350829D01*
X160233298Y-94348144D01*
X160384563Y-94280797D01*
X160384565Y-94280796D01*
X160390593Y-94278112D01*
X160412681Y-94262064D01*
X160479548Y-94238206D01*
X160486742Y-94238000D01*
X164738758Y-94238000D01*
X164806879Y-94258002D01*
X164812819Y-94262064D01*
X164834907Y-94278112D01*
X164840935Y-94280796D01*
X164840937Y-94280797D01*
X164992202Y-94348144D01*
X164998233Y-94350829D01*
X165085671Y-94369415D01*
X165166652Y-94386628D01*
X165166656Y-94386628D01*
X165173109Y-94388000D01*
X165351891Y-94388000D01*
X165358344Y-94386628D01*
X165358348Y-94386628D01*
X165439329Y-94369414D01*
X165526767Y-94350829D01*
X165532798Y-94348144D01*
X165684063Y-94280797D01*
X165684065Y-94280796D01*
X165690093Y-94278112D01*
X165745019Y-94238206D01*
X165829391Y-94176905D01*
X165834730Y-94173026D01*
X165954359Y-94040165D01*
X166043750Y-93885335D01*
X166098997Y-93715303D01*
X166117685Y-93537500D01*
X166098997Y-93359697D01*
X166082551Y-93309080D01*
X166045792Y-93195950D01*
X166043750Y-93189665D01*
X165954359Y-93034835D01*
X165949940Y-93029927D01*
X165839145Y-92906877D01*
X165839143Y-92906876D01*
X165834730Y-92901974D01*
X165705709Y-92808234D01*
X165662357Y-92752012D01*
X165656282Y-92681276D01*
X165665577Y-92653049D01*
X165734080Y-92506145D01*
X165734081Y-92506143D01*
X165736403Y-92501163D01*
X165797563Y-92272908D01*
X165818159Y-92037500D01*
X165797563Y-91802092D01*
X165740064Y-91587500D01*
X165737826Y-91579147D01*
X165737825Y-91579145D01*
X165736403Y-91573837D01*
X165689724Y-91473734D01*
X165638858Y-91364652D01*
X165638856Y-91364649D01*
X165636535Y-91359671D01*
X165500995Y-91166099D01*
X165333901Y-90999005D01*
X165329393Y-90995848D01*
X165329390Y-90995846D01*
X165144839Y-90866622D01*
X165144836Y-90866620D01*
X165140330Y-90863465D01*
X165135348Y-90861142D01*
X165135343Y-90861139D01*
X164931145Y-90765920D01*
X164931144Y-90765919D01*
X164926163Y-90763597D01*
X164920855Y-90762175D01*
X164920853Y-90762174D01*
X164703223Y-90703861D01*
X164703222Y-90703861D01*
X164697908Y-90702437D01*
X164462500Y-90681841D01*
X164227092Y-90702437D01*
X164221778Y-90703861D01*
X164221777Y-90703861D01*
X164004147Y-90762174D01*
X164004145Y-90762175D01*
X163998837Y-90763597D01*
X163993857Y-90765919D01*
X163993855Y-90765920D01*
X163789652Y-90861142D01*
X163789649Y-90861144D01*
X163784671Y-90863465D01*
X163591099Y-90999005D01*
X163424005Y-91166099D01*
X163288465Y-91359671D01*
X163286144Y-91364649D01*
X163286142Y-91364652D01*
X163235276Y-91473734D01*
X163188597Y-91573837D01*
X163187175Y-91579145D01*
X163187174Y-91579147D01*
X163184936Y-91587500D01*
X163127437Y-91802092D01*
X163106841Y-92037500D01*
X163127437Y-92272908D01*
X163188597Y-92501163D01*
X163190919Y-92506143D01*
X163190920Y-92506145D01*
X163261615Y-92657750D01*
X163272276Y-92727942D01*
X163243296Y-92792754D01*
X163183876Y-92831611D01*
X163147420Y-92837000D01*
X160777580Y-92837000D01*
X160709459Y-92816998D01*
X160662966Y-92763342D01*
X160652862Y-92693068D01*
X160663385Y-92657750D01*
X160734080Y-92506145D01*
X160734081Y-92506143D01*
X160736403Y-92501163D01*
X160797563Y-92272908D01*
X160818159Y-92037500D01*
X160797563Y-91802092D01*
X160740064Y-91587500D01*
X160737826Y-91579147D01*
X160737825Y-91579145D01*
X160736403Y-91573837D01*
X160689724Y-91473734D01*
X160638858Y-91364652D01*
X160638856Y-91364649D01*
X160636535Y-91359671D01*
X160500995Y-91166099D01*
X160333901Y-90999005D01*
X160329393Y-90995848D01*
X160329390Y-90995846D01*
X160144839Y-90866622D01*
X160144836Y-90866620D01*
X160140330Y-90863465D01*
X160135348Y-90861142D01*
X160135343Y-90861139D01*
X159931145Y-90765920D01*
X159931144Y-90765919D01*
X159926163Y-90763597D01*
X159920855Y-90762175D01*
X159920853Y-90762174D01*
X159703223Y-90703861D01*
X159703222Y-90703861D01*
X159697908Y-90702437D01*
X159462500Y-90681841D01*
X159227092Y-90702437D01*
X159221778Y-90703861D01*
X159221777Y-90703861D01*
X159004147Y-90762174D01*
X159004145Y-90762175D01*
X158998837Y-90763597D01*
X158993857Y-90765919D01*
X158993855Y-90765920D01*
X158789652Y-90861142D01*
X158789649Y-90861144D01*
X158784671Y-90863465D01*
X158591099Y-90999005D01*
X158424005Y-91166099D01*
X158288465Y-91359671D01*
X158286144Y-91364649D01*
X158286142Y-91364652D01*
X158235276Y-91473734D01*
X158188597Y-91573837D01*
X158187175Y-91579145D01*
X158187174Y-91579147D01*
X158184936Y-91587500D01*
X158127437Y-91802092D01*
X158106841Y-92037500D01*
X136418159Y-92037500D01*
X136397563Y-91802092D01*
X136340064Y-91587500D01*
X136337826Y-91579147D01*
X136337825Y-91579145D01*
X136336403Y-91573837D01*
X136289724Y-91473734D01*
X136238858Y-91364652D01*
X136238856Y-91364649D01*
X136236535Y-91359671D01*
X136100995Y-91166099D01*
X135933901Y-90999005D01*
X135929393Y-90995848D01*
X135929390Y-90995846D01*
X135744839Y-90866622D01*
X135744836Y-90866620D01*
X135740330Y-90863465D01*
X135735348Y-90861142D01*
X135735343Y-90861139D01*
X135531145Y-90765920D01*
X135531144Y-90765919D01*
X135526163Y-90763597D01*
X135520855Y-90762175D01*
X135520853Y-90762174D01*
X135303223Y-90703861D01*
X135303222Y-90703861D01*
X135297908Y-90702437D01*
X135062500Y-90681841D01*
X134827092Y-90702437D01*
X134821778Y-90703861D01*
X134821777Y-90703861D01*
X134604147Y-90762174D01*
X134604145Y-90762175D01*
X134598837Y-90763597D01*
X134593857Y-90765919D01*
X134593855Y-90765920D01*
X134389652Y-90861142D01*
X134389649Y-90861144D01*
X134384671Y-90863465D01*
X134191099Y-90999005D01*
X134024005Y-91166099D01*
X133888465Y-91359671D01*
X133886144Y-91364649D01*
X133886142Y-91364652D01*
X133835276Y-91473734D01*
X133788597Y-91573837D01*
X133787175Y-91579145D01*
X133787174Y-91579147D01*
X133784936Y-91587500D01*
X133727437Y-91802092D01*
X133706841Y-92037500D01*
X131418159Y-92037500D01*
X131397563Y-91802092D01*
X131340064Y-91587500D01*
X131337826Y-91579147D01*
X131337825Y-91579145D01*
X131336403Y-91573837D01*
X131333100Y-91566754D01*
X131332946Y-91565740D01*
X131332197Y-91563682D01*
X131332610Y-91563532D01*
X131322437Y-91496562D01*
X131351414Y-91431749D01*
X131410833Y-91392890D01*
X131447293Y-91387500D01*
X132169939Y-91387500D01*
X132238060Y-91407502D01*
X132243998Y-91411562D01*
X132334907Y-91477612D01*
X132340934Y-91480295D01*
X132340935Y-91480296D01*
X132492202Y-91547644D01*
X132498233Y-91550329D01*
X132575507Y-91566754D01*
X132666652Y-91586128D01*
X132666656Y-91586128D01*
X132673109Y-91587500D01*
X132851891Y-91587500D01*
X132858344Y-91586128D01*
X132858348Y-91586128D01*
X132949493Y-91566754D01*
X133026767Y-91550329D01*
X133032798Y-91547644D01*
X133184063Y-91480297D01*
X133184065Y-91480296D01*
X133190093Y-91477612D01*
X133253218Y-91431749D01*
X133329391Y-91376405D01*
X133334730Y-91372526D01*
X133379335Y-91322988D01*
X133449940Y-91244573D01*
X133449941Y-91244572D01*
X133454359Y-91239665D01*
X133543750Y-91084835D01*
X133598997Y-90914803D01*
X133617685Y-90737000D01*
X133616995Y-90730435D01*
X133599687Y-90565761D01*
X133599687Y-90565760D01*
X133598997Y-90559197D01*
X133543750Y-90389165D01*
X133530527Y-90366261D01*
X133457662Y-90240056D01*
X133454359Y-90234335D01*
X133334730Y-90101474D01*
X133280999Y-90062436D01*
X133195435Y-90000269D01*
X133195433Y-90000268D01*
X133190093Y-89996388D01*
X133184065Y-89993704D01*
X133184063Y-89993703D01*
X133032798Y-89926356D01*
X133032797Y-89926356D01*
X133026767Y-89923671D01*
X132924691Y-89901974D01*
X132858348Y-89887872D01*
X132858344Y-89887872D01*
X132851891Y-89886500D01*
X132673109Y-89886500D01*
X132666656Y-89887872D01*
X132666652Y-89887872D01*
X132600309Y-89901974D01*
X132498233Y-89923671D01*
X132492203Y-89926356D01*
X132492202Y-89926356D01*
X132340938Y-89993703D01*
X132340936Y-89993704D01*
X132334908Y-89996388D01*
X132329567Y-90000268D01*
X132329566Y-90000269D01*
X132244001Y-90062436D01*
X132177133Y-90086294D01*
X132169940Y-90086500D01*
X130055243Y-90086500D01*
X129987122Y-90066498D01*
X129955273Y-90036417D01*
X129954359Y-90034835D01*
X129917324Y-89993703D01*
X129839145Y-89906877D01*
X129839143Y-89906876D01*
X129834730Y-89901974D01*
X129690093Y-89796888D01*
X129684065Y-89794204D01*
X129684063Y-89794203D01*
X129532798Y-89726856D01*
X129532797Y-89726856D01*
X129526767Y-89724171D01*
X129439329Y-89705585D01*
X129358348Y-89688372D01*
X129358344Y-89688372D01*
X129351891Y-89687000D01*
X129173109Y-89687000D01*
X129166656Y-89688372D01*
X129166652Y-89688372D01*
X129085671Y-89705585D01*
X128998233Y-89724171D01*
X128992203Y-89726856D01*
X128992202Y-89726856D01*
X128840938Y-89794203D01*
X128840936Y-89794204D01*
X128834908Y-89796888D01*
X128690270Y-89901974D01*
X128685857Y-89906876D01*
X128685855Y-89906877D01*
X128605259Y-89996388D01*
X128570641Y-90034835D01*
X128567338Y-90040556D01*
X128534407Y-90097595D01*
X128481250Y-90189665D01*
X128426003Y-90359697D01*
X128407315Y-90537500D01*
X127763000Y-90537500D01*
X127763000Y-82037500D01*
X128706841Y-82037500D01*
X128727437Y-82272908D01*
X128788597Y-82501163D01*
X128790919Y-82506143D01*
X128790920Y-82506145D01*
X128880368Y-82697964D01*
X128888465Y-82715329D01*
X129024005Y-82908901D01*
X129191099Y-83075995D01*
X129195607Y-83079152D01*
X129195610Y-83079154D01*
X129380161Y-83208378D01*
X129384670Y-83211535D01*
X129389652Y-83213858D01*
X129389657Y-83213861D01*
X129587201Y-83305977D01*
X129598837Y-83311403D01*
X129604145Y-83312825D01*
X129604147Y-83312826D01*
X129821777Y-83371139D01*
X129827092Y-83372563D01*
X130062500Y-83393159D01*
X130297908Y-83372563D01*
X130303223Y-83371139D01*
X130520853Y-83312826D01*
X130520855Y-83312825D01*
X130526163Y-83311403D01*
X130537799Y-83305977D01*
X130735343Y-83213861D01*
X130735348Y-83213858D01*
X130740330Y-83211535D01*
X130744839Y-83208378D01*
X130929390Y-83079154D01*
X130929393Y-83079152D01*
X130933901Y-83075995D01*
X131100995Y-82908901D01*
X131236535Y-82715329D01*
X131244633Y-82697964D01*
X131334080Y-82506145D01*
X131334081Y-82506143D01*
X131336403Y-82501163D01*
X131397563Y-82272908D01*
X131418159Y-82037500D01*
X133706841Y-82037500D01*
X133727437Y-82272908D01*
X133788597Y-82501163D01*
X133790919Y-82506143D01*
X133790920Y-82506145D01*
X133880368Y-82697964D01*
X133888465Y-82715329D01*
X134024005Y-82908901D01*
X134191099Y-83075995D01*
X134195607Y-83079152D01*
X134195610Y-83079154D01*
X134380161Y-83208378D01*
X134384670Y-83211535D01*
X134389652Y-83213858D01*
X134389657Y-83213861D01*
X134587201Y-83305977D01*
X134598837Y-83311403D01*
X134604145Y-83312825D01*
X134604147Y-83312826D01*
X134821777Y-83371139D01*
X134827092Y-83372563D01*
X135062500Y-83393159D01*
X135297908Y-83372563D01*
X135303223Y-83371139D01*
X135520853Y-83312826D01*
X135520855Y-83312825D01*
X135526163Y-83311403D01*
X135537799Y-83305977D01*
X135735343Y-83213861D01*
X135735348Y-83213858D01*
X135740330Y-83211535D01*
X135744839Y-83208378D01*
X135929390Y-83079154D01*
X135929393Y-83079152D01*
X135933901Y-83075995D01*
X136100995Y-82908901D01*
X136236535Y-82715329D01*
X136244633Y-82697964D01*
X136334080Y-82506145D01*
X136334081Y-82506143D01*
X136336403Y-82501163D01*
X136397563Y-82272908D01*
X136418159Y-82037500D01*
X158106841Y-82037500D01*
X158127437Y-82272908D01*
X158188597Y-82501163D01*
X158190919Y-82506143D01*
X158190920Y-82506145D01*
X158280368Y-82697964D01*
X158288465Y-82715329D01*
X158424005Y-82908901D01*
X158591099Y-83075995D01*
X158595607Y-83079152D01*
X158595610Y-83079154D01*
X158780161Y-83208378D01*
X158784670Y-83211535D01*
X158789652Y-83213858D01*
X158789657Y-83213861D01*
X158987201Y-83305977D01*
X158998837Y-83311403D01*
X159004145Y-83312825D01*
X159004147Y-83312826D01*
X159221777Y-83371139D01*
X159227092Y-83372563D01*
X159462500Y-83393159D01*
X159697908Y-83372563D01*
X159749351Y-83358779D01*
X159820328Y-83360469D01*
X159879123Y-83400263D01*
X159907071Y-83465528D01*
X159907272Y-83493656D01*
X159903146Y-83532915D01*
X159921834Y-83710718D01*
X159977081Y-83880750D01*
X160066472Y-84035580D01*
X160070890Y-84040487D01*
X160070891Y-84040488D01*
X160166731Y-84146928D01*
X160186101Y-84168441D01*
X160191440Y-84172320D01*
X160290448Y-84244254D01*
X160330738Y-84273527D01*
X160336766Y-84276211D01*
X160336768Y-84276212D01*
X160488033Y-84343559D01*
X160494064Y-84346244D01*
X160581502Y-84364830D01*
X160662483Y-84382043D01*
X160662487Y-84382043D01*
X160668940Y-84383415D01*
X160847722Y-84383415D01*
X160854175Y-84382043D01*
X160854179Y-84382043D01*
X160935160Y-84364830D01*
X161022598Y-84346244D01*
X161028629Y-84343559D01*
X161179894Y-84276212D01*
X161179896Y-84276211D01*
X161185924Y-84273527D01*
X161217178Y-84250820D01*
X161242961Y-84232087D01*
X161309829Y-84208229D01*
X161317022Y-84208023D01*
X164268735Y-84208023D01*
X164336856Y-84228025D01*
X164342796Y-84232087D01*
X164364884Y-84248135D01*
X164370912Y-84250819D01*
X164370914Y-84250820D01*
X164427946Y-84276212D01*
X164528210Y-84320852D01*
X164615648Y-84339437D01*
X164696629Y-84356651D01*
X164696633Y-84356651D01*
X164703086Y-84358023D01*
X164881868Y-84358023D01*
X164888321Y-84356651D01*
X164888325Y-84356651D01*
X164969306Y-84339438D01*
X165056744Y-84320852D01*
X165157008Y-84276212D01*
X165214040Y-84250820D01*
X165214042Y-84250819D01*
X165220070Y-84248135D01*
X165274996Y-84208229D01*
X165359368Y-84146928D01*
X165364707Y-84143049D01*
X165484336Y-84010188D01*
X165573727Y-83855358D01*
X165597184Y-83783164D01*
X165626934Y-83691605D01*
X165626934Y-83691603D01*
X165628974Y-83685326D01*
X165647662Y-83507523D01*
X165628974Y-83329720D01*
X165623023Y-83311403D01*
X165575769Y-83165973D01*
X165573727Y-83159688D01*
X165501634Y-83034820D01*
X165484897Y-82965827D01*
X165507540Y-82899554D01*
X165636535Y-82715329D01*
X165644633Y-82697964D01*
X165734080Y-82506145D01*
X165734081Y-82506143D01*
X165736403Y-82501163D01*
X165797563Y-82272908D01*
X165818159Y-82037500D01*
X165797563Y-81802092D01*
X165740064Y-81587500D01*
X165737826Y-81579147D01*
X165737825Y-81579145D01*
X165736403Y-81573837D01*
X165689724Y-81473734D01*
X165638858Y-81364652D01*
X165638856Y-81364649D01*
X165636535Y-81359671D01*
X165500995Y-81166099D01*
X165333901Y-80999005D01*
X165329393Y-80995848D01*
X165329390Y-80995846D01*
X165144839Y-80866622D01*
X165144836Y-80866620D01*
X165140330Y-80863465D01*
X165135348Y-80861142D01*
X165135343Y-80861139D01*
X164931145Y-80765920D01*
X164931144Y-80765919D01*
X164926163Y-80763597D01*
X164920855Y-80762175D01*
X164920853Y-80762174D01*
X164703223Y-80703861D01*
X164703222Y-80703861D01*
X164697908Y-80702437D01*
X164462500Y-80681841D01*
X164227092Y-80702437D01*
X164221778Y-80703861D01*
X164221777Y-80703861D01*
X164004147Y-80762174D01*
X164004145Y-80762175D01*
X163998837Y-80763597D01*
X163993857Y-80765919D01*
X163993855Y-80765920D01*
X163789652Y-80861142D01*
X163789649Y-80861144D01*
X163784671Y-80863465D01*
X163591099Y-80999005D01*
X163424005Y-81166099D01*
X163288465Y-81359671D01*
X163286144Y-81364649D01*
X163286142Y-81364652D01*
X163235276Y-81473734D01*
X163188597Y-81573837D01*
X163187175Y-81579145D01*
X163187174Y-81579147D01*
X163184936Y-81587500D01*
X163127437Y-81802092D01*
X163106841Y-82037500D01*
X163127437Y-82272908D01*
X163188597Y-82501163D01*
X163190919Y-82506143D01*
X163190920Y-82506145D01*
X163247637Y-82627773D01*
X163258298Y-82697964D01*
X163229318Y-82762777D01*
X163169899Y-82801634D01*
X163133442Y-82807023D01*
X161243802Y-82807023D01*
X161186237Y-82791599D01*
X161185924Y-82792303D01*
X161119608Y-82762777D01*
X161028629Y-82722271D01*
X161028628Y-82722271D01*
X161022598Y-82719586D01*
X160911893Y-82696055D01*
X160854178Y-82683787D01*
X160854176Y-82683787D01*
X160847722Y-82682415D01*
X160841119Y-82682415D01*
X160836407Y-82681920D01*
X160770750Y-82654909D01*
X160730118Y-82596689D01*
X160727413Y-82525744D01*
X160732506Y-82511430D01*
X160732197Y-82511318D01*
X160734080Y-82506145D01*
X160736403Y-82501163D01*
X160797563Y-82272908D01*
X160818159Y-82037500D01*
X160797563Y-81802092D01*
X160740064Y-81587500D01*
X160737826Y-81579147D01*
X160737825Y-81579145D01*
X160736403Y-81573837D01*
X160689724Y-81473734D01*
X160638858Y-81364652D01*
X160638856Y-81364649D01*
X160636535Y-81359671D01*
X160500995Y-81166099D01*
X160333901Y-80999005D01*
X160329393Y-80995848D01*
X160329390Y-80995846D01*
X160144839Y-80866622D01*
X160144836Y-80866620D01*
X160140330Y-80863465D01*
X160135348Y-80861142D01*
X160135343Y-80861139D01*
X159931145Y-80765920D01*
X159931144Y-80765919D01*
X159926163Y-80763597D01*
X159920855Y-80762175D01*
X159920853Y-80762174D01*
X159703223Y-80703861D01*
X159703222Y-80703861D01*
X159697908Y-80702437D01*
X159462500Y-80681841D01*
X159227092Y-80702437D01*
X159221778Y-80703861D01*
X159221777Y-80703861D01*
X159004147Y-80762174D01*
X159004145Y-80762175D01*
X158998837Y-80763597D01*
X158993857Y-80765919D01*
X158993855Y-80765920D01*
X158789652Y-80861142D01*
X158789649Y-80861144D01*
X158784671Y-80863465D01*
X158591099Y-80999005D01*
X158424005Y-81166099D01*
X158288465Y-81359671D01*
X158286144Y-81364649D01*
X158286142Y-81364652D01*
X158235276Y-81473734D01*
X158188597Y-81573837D01*
X158187175Y-81579145D01*
X158187174Y-81579147D01*
X158184936Y-81587500D01*
X158127437Y-81802092D01*
X158106841Y-82037500D01*
X136418159Y-82037500D01*
X136397563Y-81802092D01*
X136340064Y-81587500D01*
X136337826Y-81579147D01*
X136337825Y-81579145D01*
X136336403Y-81573837D01*
X136289724Y-81473734D01*
X136238858Y-81364652D01*
X136238856Y-81364649D01*
X136236535Y-81359671D01*
X136100995Y-81166099D01*
X135933901Y-80999005D01*
X135929393Y-80995848D01*
X135929390Y-80995846D01*
X135744839Y-80866622D01*
X135744836Y-80866620D01*
X135740330Y-80863465D01*
X135735348Y-80861142D01*
X135735343Y-80861139D01*
X135531145Y-80765920D01*
X135531144Y-80765919D01*
X135526163Y-80763597D01*
X135520855Y-80762175D01*
X135520853Y-80762174D01*
X135303223Y-80703861D01*
X135303222Y-80703861D01*
X135297908Y-80702437D01*
X135062500Y-80681841D01*
X134827092Y-80702437D01*
X134821778Y-80703861D01*
X134821777Y-80703861D01*
X134604147Y-80762174D01*
X134604145Y-80762175D01*
X134598837Y-80763597D01*
X134593857Y-80765919D01*
X134593855Y-80765920D01*
X134389652Y-80861142D01*
X134389649Y-80861144D01*
X134384671Y-80863465D01*
X134191099Y-80999005D01*
X134024005Y-81166099D01*
X133888465Y-81359671D01*
X133886144Y-81364649D01*
X133886142Y-81364652D01*
X133835276Y-81473734D01*
X133788597Y-81573837D01*
X133787175Y-81579145D01*
X133787174Y-81579147D01*
X133784936Y-81587500D01*
X133727437Y-81802092D01*
X133706841Y-82037500D01*
X131418159Y-82037500D01*
X131397563Y-81802092D01*
X131340064Y-81587500D01*
X131337826Y-81579147D01*
X131337825Y-81579145D01*
X131336403Y-81573837D01*
X131333100Y-81566754D01*
X131332946Y-81565740D01*
X131332197Y-81563682D01*
X131332610Y-81563532D01*
X131322437Y-81496562D01*
X131351414Y-81431749D01*
X131410833Y-81392890D01*
X131447293Y-81387500D01*
X131669439Y-81387500D01*
X131737560Y-81407502D01*
X131743498Y-81411562D01*
X131834407Y-81477612D01*
X131840434Y-81480295D01*
X131840435Y-81480296D01*
X131991702Y-81547644D01*
X131997733Y-81550329D01*
X132075007Y-81566754D01*
X132166152Y-81586128D01*
X132166156Y-81586128D01*
X132172609Y-81587500D01*
X132351391Y-81587500D01*
X132357844Y-81586128D01*
X132357848Y-81586128D01*
X132448993Y-81566754D01*
X132526267Y-81550329D01*
X132532298Y-81547644D01*
X132683563Y-81480297D01*
X132683565Y-81480296D01*
X132689593Y-81477612D01*
X132752718Y-81431749D01*
X132828891Y-81376405D01*
X132834230Y-81372526D01*
X132953859Y-81239665D01*
X133043250Y-81084835D01*
X133098497Y-80914803D01*
X133117185Y-80737000D01*
X133098497Y-80559197D01*
X133043250Y-80389165D01*
X133030027Y-80366261D01*
X132957162Y-80240056D01*
X132953859Y-80234335D01*
X132834230Y-80101474D01*
X132780499Y-80062436D01*
X132694935Y-80000269D01*
X132694933Y-80000268D01*
X132689593Y-79996388D01*
X132683565Y-79993704D01*
X132683563Y-79993703D01*
X132532298Y-79926356D01*
X132532297Y-79926356D01*
X132526267Y-79923671D01*
X132424191Y-79901974D01*
X132357848Y-79887872D01*
X132357844Y-79887872D01*
X132351391Y-79886500D01*
X132172609Y-79886500D01*
X132166156Y-79887872D01*
X132166152Y-79887872D01*
X132099809Y-79901974D01*
X131997733Y-79923671D01*
X131991703Y-79926356D01*
X131991702Y-79926356D01*
X131840438Y-79993703D01*
X131840436Y-79993704D01*
X131834408Y-79996388D01*
X131829067Y-80000268D01*
X131829066Y-80000269D01*
X131743501Y-80062436D01*
X131676633Y-80086294D01*
X131669440Y-80086500D01*
X131555243Y-80086500D01*
X131487122Y-80066498D01*
X131455273Y-80036417D01*
X131454359Y-80034835D01*
X131417324Y-79993703D01*
X131339145Y-79906877D01*
X131339143Y-79906876D01*
X131334730Y-79901974D01*
X131190093Y-79796888D01*
X131184065Y-79794204D01*
X131184063Y-79794203D01*
X131032798Y-79726856D01*
X131032797Y-79726856D01*
X131026767Y-79724171D01*
X130939329Y-79705585D01*
X130858348Y-79688372D01*
X130858344Y-79688372D01*
X130851891Y-79687000D01*
X130673109Y-79687000D01*
X130666656Y-79688372D01*
X130666652Y-79688372D01*
X130585671Y-79705585D01*
X130498233Y-79724171D01*
X130492203Y-79726856D01*
X130492202Y-79726856D01*
X130340938Y-79794203D01*
X130340936Y-79794204D01*
X130334908Y-79796888D01*
X130190270Y-79901974D01*
X130185857Y-79906876D01*
X130185855Y-79906877D01*
X130105259Y-79996388D01*
X130070641Y-80034835D01*
X130067338Y-80040556D01*
X130034407Y-80097595D01*
X129981250Y-80189665D01*
X129926003Y-80359697D01*
X129907315Y-80537500D01*
X129910730Y-80569988D01*
X129897959Y-80639824D01*
X129849458Y-80691672D01*
X129818032Y-80704865D01*
X129731076Y-80728164D01*
X129604147Y-80762174D01*
X129604145Y-80762175D01*
X129598837Y-80763597D01*
X129593857Y-80765919D01*
X129593855Y-80765920D01*
X129389652Y-80861142D01*
X129389649Y-80861144D01*
X129384671Y-80863465D01*
X129191099Y-80999005D01*
X129024005Y-81166099D01*
X128888465Y-81359671D01*
X128886144Y-81364649D01*
X128886142Y-81364652D01*
X128835276Y-81473734D01*
X128788597Y-81573837D01*
X128787175Y-81579145D01*
X128787174Y-81579147D01*
X128784936Y-81587500D01*
X128727437Y-81802092D01*
X128706841Y-82037500D01*
X127763000Y-82037500D01*
X127763000Y-76991091D01*
X133432422Y-76991091D01*
X133441821Y-77170421D01*
X133489508Y-77343549D01*
X133573260Y-77502398D01*
X133689168Y-77639558D01*
X133694591Y-77643705D01*
X133694593Y-77643706D01*
X133826405Y-77744484D01*
X133826409Y-77744487D01*
X133831826Y-77748628D01*
X133838006Y-77751510D01*
X133838008Y-77751511D01*
X133988400Y-77821640D01*
X133988403Y-77821641D01*
X133994577Y-77824520D01*
X134001225Y-77826006D01*
X134001228Y-77826007D01*
X134164790Y-77862567D01*
X134164791Y-77862567D01*
X134169828Y-77863693D01*
X134175319Y-77864000D01*
X134307366Y-77864000D01*
X134441025Y-77849480D01*
X134523751Y-77821640D01*
X134604757Y-77794379D01*
X134604759Y-77794378D01*
X134611222Y-77792203D01*
X134765148Y-77699714D01*
X134824375Y-77643706D01*
X134890665Y-77581019D01*
X134890667Y-77581017D01*
X134895623Y-77576330D01*
X134996560Y-77427806D01*
X135063248Y-77261073D01*
X135092578Y-77083909D01*
X135083179Y-76904579D01*
X135035492Y-76731451D01*
X134951740Y-76572602D01*
X134835832Y-76435442D01*
X134830407Y-76431294D01*
X134698595Y-76330516D01*
X134698591Y-76330513D01*
X134693174Y-76326372D01*
X134686994Y-76323490D01*
X134686992Y-76323489D01*
X134536600Y-76253360D01*
X134536597Y-76253359D01*
X134530423Y-76250480D01*
X134523775Y-76248994D01*
X134523772Y-76248993D01*
X134360210Y-76212433D01*
X134360209Y-76212433D01*
X134355172Y-76211307D01*
X134349681Y-76211000D01*
X134217634Y-76211000D01*
X134083975Y-76225520D01*
X134014226Y-76248993D01*
X133920243Y-76280621D01*
X133920241Y-76280622D01*
X133913778Y-76282797D01*
X133759852Y-76375286D01*
X133754892Y-76379977D01*
X133754890Y-76379978D01*
X133696239Y-76435442D01*
X133629377Y-76498670D01*
X133528440Y-76647194D01*
X133461752Y-76813927D01*
X133432422Y-76991091D01*
X127763000Y-76991091D01*
X127763000Y-72037500D01*
X128706841Y-72037500D01*
X128727437Y-72272908D01*
X128728861Y-72278222D01*
X128728861Y-72278223D01*
X128785304Y-72488872D01*
X128788597Y-72501163D01*
X128790919Y-72506143D01*
X128790920Y-72506145D01*
X128882471Y-72702474D01*
X128888465Y-72715329D01*
X129024005Y-72908901D01*
X129191099Y-73075995D01*
X129195607Y-73079152D01*
X129195610Y-73079154D01*
X129320726Y-73166761D01*
X129384670Y-73211535D01*
X129389652Y-73213858D01*
X129389657Y-73213861D01*
X129593855Y-73309080D01*
X129598837Y-73311403D01*
X129604145Y-73312825D01*
X129604147Y-73312826D01*
X129821777Y-73371139D01*
X129827092Y-73372563D01*
X130062500Y-73393159D01*
X130297908Y-73372563D01*
X130303223Y-73371139D01*
X130520853Y-73312826D01*
X130520855Y-73312825D01*
X130526163Y-73311403D01*
X130531145Y-73309080D01*
X130735343Y-73213861D01*
X130735348Y-73213858D01*
X130740330Y-73211535D01*
X130804274Y-73166761D01*
X130929390Y-73079154D01*
X130929393Y-73079152D01*
X130933901Y-73075995D01*
X131100995Y-72908901D01*
X131236535Y-72715329D01*
X131242530Y-72702474D01*
X131334080Y-72506145D01*
X131334081Y-72506143D01*
X131336403Y-72501163D01*
X131339697Y-72488872D01*
X131396139Y-72278223D01*
X131396139Y-72278222D01*
X131397563Y-72272908D01*
X131418159Y-72037500D01*
X133706841Y-72037500D01*
X133727437Y-72272908D01*
X133728861Y-72278222D01*
X133728861Y-72278223D01*
X133785304Y-72488872D01*
X133788597Y-72501163D01*
X133790919Y-72506143D01*
X133790920Y-72506145D01*
X133882471Y-72702474D01*
X133888465Y-72715329D01*
X134024005Y-72908901D01*
X134191099Y-73075995D01*
X134195607Y-73079152D01*
X134195610Y-73079154D01*
X134320726Y-73166761D01*
X134384670Y-73211535D01*
X134389652Y-73213858D01*
X134389657Y-73213861D01*
X134593855Y-73309080D01*
X134598837Y-73311403D01*
X134604145Y-73312825D01*
X134604147Y-73312826D01*
X134821777Y-73371139D01*
X134827092Y-73372563D01*
X135062500Y-73393159D01*
X135297908Y-73372563D01*
X135303223Y-73371139D01*
X135520853Y-73312826D01*
X135520855Y-73312825D01*
X135526163Y-73311403D01*
X135531145Y-73309080D01*
X135735343Y-73213861D01*
X135735348Y-73213858D01*
X135740330Y-73211535D01*
X135804274Y-73166761D01*
X135929390Y-73079154D01*
X135929393Y-73079152D01*
X135933901Y-73075995D01*
X136100995Y-72908901D01*
X136236535Y-72715329D01*
X136242530Y-72702474D01*
X136334080Y-72506145D01*
X136334081Y-72506143D01*
X136336403Y-72501163D01*
X136339697Y-72488872D01*
X136396139Y-72278223D01*
X136396139Y-72278222D01*
X136397563Y-72272908D01*
X136418159Y-72037500D01*
X136397563Y-71802092D01*
X136336403Y-71573837D01*
X136302723Y-71501611D01*
X136238858Y-71364652D01*
X136238856Y-71364649D01*
X136236535Y-71359671D01*
X136100995Y-71166099D01*
X135940396Y-71005500D01*
X141657051Y-71005500D01*
X141676817Y-71256648D01*
X141735627Y-71501611D01*
X141832034Y-71734359D01*
X141963664Y-71949159D01*
X141966876Y-71952919D01*
X141966879Y-71952924D01*
X141992500Y-71982922D01*
X142127276Y-72140724D01*
X142131038Y-72143937D01*
X142315076Y-72301121D01*
X142315081Y-72301124D01*
X142318841Y-72304336D01*
X142533641Y-72435966D01*
X142538211Y-72437859D01*
X142538215Y-72437861D01*
X142761816Y-72530479D01*
X142766389Y-72532373D01*
X142839253Y-72549866D01*
X143006539Y-72590028D01*
X143006545Y-72590029D01*
X143011352Y-72591183D01*
X143262500Y-72610949D01*
X143513648Y-72591183D01*
X143518455Y-72590029D01*
X143518461Y-72590028D01*
X143685747Y-72549866D01*
X143758611Y-72532373D01*
X143763184Y-72530479D01*
X143986785Y-72437861D01*
X143986789Y-72437859D01*
X143991359Y-72435966D01*
X144206159Y-72304336D01*
X144209919Y-72301124D01*
X144209924Y-72301121D01*
X144393957Y-72143942D01*
X144393962Y-72143937D01*
X144397724Y-72140724D01*
X144436689Y-72095102D01*
X144496140Y-72056293D01*
X144567134Y-72055787D01*
X144628311Y-72095102D01*
X144667276Y-72140724D01*
X144671038Y-72143937D01*
X144671043Y-72143942D01*
X144855076Y-72301121D01*
X144855081Y-72301124D01*
X144858841Y-72304336D01*
X145073641Y-72435966D01*
X145078211Y-72437859D01*
X145078215Y-72437861D01*
X145301816Y-72530479D01*
X145306389Y-72532373D01*
X145379253Y-72549866D01*
X145546539Y-72590028D01*
X145546545Y-72590029D01*
X145551352Y-72591183D01*
X145802500Y-72610949D01*
X146053648Y-72591183D01*
X146058455Y-72590029D01*
X146058461Y-72590028D01*
X146225747Y-72549866D01*
X146298611Y-72532373D01*
X146303184Y-72530479D01*
X146526785Y-72437861D01*
X146526789Y-72437859D01*
X146531359Y-72435966D01*
X146746159Y-72304336D01*
X146749919Y-72301124D01*
X146749924Y-72301121D01*
X146933957Y-72143942D01*
X146933962Y-72143937D01*
X146937724Y-72140724D01*
X146976689Y-72095102D01*
X147036140Y-72056293D01*
X147107134Y-72055787D01*
X147168311Y-72095102D01*
X147207276Y-72140724D01*
X147211038Y-72143937D01*
X147211043Y-72143942D01*
X147395076Y-72301121D01*
X147395081Y-72301124D01*
X147398841Y-72304336D01*
X147613641Y-72435966D01*
X147618211Y-72437859D01*
X147618215Y-72437861D01*
X147841816Y-72530479D01*
X147846389Y-72532373D01*
X147919253Y-72549866D01*
X148086539Y-72590028D01*
X148086545Y-72590029D01*
X148091352Y-72591183D01*
X148342500Y-72610949D01*
X148593648Y-72591183D01*
X148598455Y-72590029D01*
X148598461Y-72590028D01*
X148765747Y-72549866D01*
X148838611Y-72532373D01*
X148843184Y-72530479D01*
X149066785Y-72437861D01*
X149066789Y-72437859D01*
X149071359Y-72435966D01*
X149286159Y-72304336D01*
X149289919Y-72301124D01*
X149289924Y-72301121D01*
X149473957Y-72143942D01*
X149473962Y-72143937D01*
X149477724Y-72140724D01*
X149516689Y-72095102D01*
X149576140Y-72056293D01*
X149647134Y-72055787D01*
X149708311Y-72095102D01*
X149747276Y-72140724D01*
X149751038Y-72143937D01*
X149751043Y-72143942D01*
X149935076Y-72301121D01*
X149935081Y-72301124D01*
X149938841Y-72304336D01*
X150153641Y-72435966D01*
X150158211Y-72437859D01*
X150158215Y-72437861D01*
X150381816Y-72530479D01*
X150386389Y-72532373D01*
X150459253Y-72549866D01*
X150626539Y-72590028D01*
X150626545Y-72590029D01*
X150631352Y-72591183D01*
X150882500Y-72610949D01*
X151133648Y-72591183D01*
X151138455Y-72590029D01*
X151138461Y-72590028D01*
X151305747Y-72549866D01*
X151378611Y-72532373D01*
X151383184Y-72530479D01*
X151606785Y-72437861D01*
X151606789Y-72437859D01*
X151611359Y-72435966D01*
X151826159Y-72304336D01*
X151829919Y-72301124D01*
X151829924Y-72301121D01*
X152013962Y-72143937D01*
X152017724Y-72140724D01*
X152105886Y-72037500D01*
X158106841Y-72037500D01*
X158127437Y-72272908D01*
X158128861Y-72278222D01*
X158128861Y-72278223D01*
X158185304Y-72488872D01*
X158188597Y-72501163D01*
X158190919Y-72506143D01*
X158190920Y-72506145D01*
X158282471Y-72702474D01*
X158288465Y-72715329D01*
X158424005Y-72908901D01*
X158591099Y-73075995D01*
X158595607Y-73079152D01*
X158595610Y-73079154D01*
X158720726Y-73166761D01*
X158784670Y-73211535D01*
X158789652Y-73213858D01*
X158789657Y-73213861D01*
X158993855Y-73309080D01*
X158998837Y-73311403D01*
X159004145Y-73312825D01*
X159004147Y-73312826D01*
X159221777Y-73371139D01*
X159227092Y-73372563D01*
X159462500Y-73393159D01*
X159697908Y-73372563D01*
X159703223Y-73371139D01*
X159826901Y-73338000D01*
X161407315Y-73338000D01*
X161426003Y-73515803D01*
X161481250Y-73685835D01*
X161570641Y-73840665D01*
X161575059Y-73845572D01*
X161575060Y-73845573D01*
X161635016Y-73912160D01*
X161690270Y-73973526D01*
X161695609Y-73977405D01*
X161801887Y-74054621D01*
X161834907Y-74078612D01*
X161840935Y-74081296D01*
X161840937Y-74081297D01*
X161992202Y-74148644D01*
X161998233Y-74151329D01*
X162085671Y-74169915D01*
X162166652Y-74187128D01*
X162166656Y-74187128D01*
X162173109Y-74188500D01*
X162351891Y-74188500D01*
X162358344Y-74187128D01*
X162358348Y-74187128D01*
X162439329Y-74169915D01*
X162526767Y-74151329D01*
X162532798Y-74148644D01*
X162684063Y-74081297D01*
X162684065Y-74081296D01*
X162690093Y-74078612D01*
X162712181Y-74062564D01*
X162779048Y-74038706D01*
X162786242Y-74038500D01*
X163381980Y-74038500D01*
X163450101Y-74058502D01*
X163456041Y-74062564D01*
X163579065Y-74151947D01*
X163584407Y-74155828D01*
X163590435Y-74158512D01*
X163590437Y-74158513D01*
X163741702Y-74225860D01*
X163747733Y-74228545D01*
X163835171Y-74247130D01*
X163916152Y-74264344D01*
X163916156Y-74264344D01*
X163922609Y-74265716D01*
X164101391Y-74265716D01*
X164107844Y-74264344D01*
X164107848Y-74264344D01*
X164188829Y-74247130D01*
X164276267Y-74228545D01*
X164282298Y-74225860D01*
X164433563Y-74158513D01*
X164433565Y-74158512D01*
X164439593Y-74155828D01*
X164445786Y-74151329D01*
X164578891Y-74054621D01*
X164584230Y-74050742D01*
X164595068Y-74038706D01*
X164699440Y-73922789D01*
X164699441Y-73922788D01*
X164703859Y-73917881D01*
X164793250Y-73763051D01*
X164848497Y-73593019D01*
X164867185Y-73415216D01*
X164867735Y-73415274D01*
X164886497Y-73351377D01*
X164939245Y-73305303D01*
X165135343Y-73213861D01*
X165135348Y-73213858D01*
X165140330Y-73211535D01*
X165204274Y-73166761D01*
X165329390Y-73079154D01*
X165329393Y-73079152D01*
X165333901Y-73075995D01*
X165500995Y-72908901D01*
X165636535Y-72715329D01*
X165642530Y-72702474D01*
X165734080Y-72506145D01*
X165734081Y-72506143D01*
X165736403Y-72501163D01*
X165739697Y-72488872D01*
X165796139Y-72278223D01*
X165796139Y-72278222D01*
X165797563Y-72272908D01*
X165818159Y-72037500D01*
X165797563Y-71802092D01*
X165736403Y-71573837D01*
X165702723Y-71501611D01*
X165638858Y-71364652D01*
X165638856Y-71364649D01*
X165636535Y-71359671D01*
X165500995Y-71166099D01*
X165333901Y-70999005D01*
X165329393Y-70995848D01*
X165329390Y-70995846D01*
X165144839Y-70866622D01*
X165144836Y-70866620D01*
X165140330Y-70863465D01*
X165135348Y-70861142D01*
X165135343Y-70861139D01*
X164931145Y-70765920D01*
X164931144Y-70765919D01*
X164926163Y-70763597D01*
X164920855Y-70762175D01*
X164920853Y-70762174D01*
X164703223Y-70703861D01*
X164703222Y-70703861D01*
X164697908Y-70702437D01*
X164462500Y-70681841D01*
X164227092Y-70702437D01*
X164221778Y-70703861D01*
X164221777Y-70703861D01*
X164004147Y-70762174D01*
X164004145Y-70762175D01*
X163998837Y-70763597D01*
X163993857Y-70765919D01*
X163993855Y-70765920D01*
X163789652Y-70861142D01*
X163789649Y-70861144D01*
X163784671Y-70863465D01*
X163591099Y-70999005D01*
X163424005Y-71166099D01*
X163288465Y-71359671D01*
X163286144Y-71364649D01*
X163286142Y-71364652D01*
X163222277Y-71501611D01*
X163188597Y-71573837D01*
X163127437Y-71802092D01*
X163106841Y-72037500D01*
X163127437Y-72272908D01*
X163128861Y-72278222D01*
X163128861Y-72278223D01*
X163135858Y-72304336D01*
X163171636Y-72437861D01*
X163182629Y-72478889D01*
X163180939Y-72549866D01*
X163141145Y-72608661D01*
X163075880Y-72636609D01*
X163060922Y-72637500D01*
X162786242Y-72637500D01*
X162718121Y-72617498D01*
X162712181Y-72613436D01*
X162695435Y-72601269D01*
X162695434Y-72601268D01*
X162690093Y-72597388D01*
X162684065Y-72594704D01*
X162684063Y-72594703D01*
X162532798Y-72527356D01*
X162532797Y-72527356D01*
X162526767Y-72524671D01*
X162439329Y-72506086D01*
X162358348Y-72488872D01*
X162358344Y-72488872D01*
X162351891Y-72487500D01*
X162173109Y-72487500D01*
X162166656Y-72488872D01*
X162166652Y-72488872D01*
X162085671Y-72506086D01*
X161998233Y-72524671D01*
X161992203Y-72527356D01*
X161992202Y-72527356D01*
X161840938Y-72594703D01*
X161840936Y-72594704D01*
X161834908Y-72597388D01*
X161690270Y-72702474D01*
X161570641Y-72835335D01*
X161481250Y-72990165D01*
X161426003Y-73160197D01*
X161407315Y-73338000D01*
X159826901Y-73338000D01*
X159920853Y-73312826D01*
X159920855Y-73312825D01*
X159926163Y-73311403D01*
X159931145Y-73309080D01*
X160135343Y-73213861D01*
X160135348Y-73213858D01*
X160140330Y-73211535D01*
X160204274Y-73166761D01*
X160329390Y-73079154D01*
X160329393Y-73079152D01*
X160333901Y-73075995D01*
X160500995Y-72908901D01*
X160636535Y-72715329D01*
X160642530Y-72702474D01*
X160734080Y-72506145D01*
X160734081Y-72506143D01*
X160736403Y-72501163D01*
X160739697Y-72488872D01*
X160796139Y-72278223D01*
X160796139Y-72278222D01*
X160797563Y-72272908D01*
X160818159Y-72037500D01*
X160797563Y-71802092D01*
X160736403Y-71573837D01*
X160702723Y-71501611D01*
X160638858Y-71364652D01*
X160638856Y-71364649D01*
X160636535Y-71359671D01*
X160500995Y-71166099D01*
X160333901Y-70999005D01*
X160329393Y-70995848D01*
X160329390Y-70995846D01*
X160144839Y-70866622D01*
X160144836Y-70866620D01*
X160140330Y-70863465D01*
X160135348Y-70861142D01*
X160135343Y-70861139D01*
X159931145Y-70765920D01*
X159931144Y-70765919D01*
X159926163Y-70763597D01*
X159920855Y-70762175D01*
X159920853Y-70762174D01*
X159703223Y-70703861D01*
X159703222Y-70703861D01*
X159697908Y-70702437D01*
X159462500Y-70681841D01*
X159227092Y-70702437D01*
X159221778Y-70703861D01*
X159221777Y-70703861D01*
X159004147Y-70762174D01*
X159004145Y-70762175D01*
X158998837Y-70763597D01*
X158993857Y-70765919D01*
X158993855Y-70765920D01*
X158789652Y-70861142D01*
X158789649Y-70861144D01*
X158784671Y-70863465D01*
X158591099Y-70999005D01*
X158424005Y-71166099D01*
X158288465Y-71359671D01*
X158286144Y-71364649D01*
X158286142Y-71364652D01*
X158222277Y-71501611D01*
X158188597Y-71573837D01*
X158127437Y-71802092D01*
X158106841Y-72037500D01*
X152105886Y-72037500D01*
X152152500Y-71982922D01*
X152178121Y-71952924D01*
X152178124Y-71952919D01*
X152181336Y-71949159D01*
X152312966Y-71734359D01*
X152409373Y-71501611D01*
X152468183Y-71256648D01*
X152487949Y-71005500D01*
X152468183Y-70754352D01*
X152456062Y-70703861D01*
X152410528Y-70514201D01*
X152409373Y-70509389D01*
X152312966Y-70276641D01*
X152181336Y-70061841D01*
X152178124Y-70058081D01*
X152178121Y-70058076D01*
X152020937Y-69874038D01*
X152017724Y-69870276D01*
X151999552Y-69854756D01*
X151829924Y-69709879D01*
X151829919Y-69709876D01*
X151826159Y-69706664D01*
X151611359Y-69575034D01*
X151606789Y-69573141D01*
X151606785Y-69573139D01*
X151383184Y-69480521D01*
X151383182Y-69480520D01*
X151378611Y-69478627D01*
X151294211Y-69458365D01*
X151138461Y-69420972D01*
X151138455Y-69420971D01*
X151133648Y-69419817D01*
X150882500Y-69400051D01*
X150631352Y-69419817D01*
X150626545Y-69420971D01*
X150626539Y-69420972D01*
X150470789Y-69458365D01*
X150386389Y-69478627D01*
X150381818Y-69480520D01*
X150381816Y-69480521D01*
X150158215Y-69573139D01*
X150158211Y-69573141D01*
X150153641Y-69575034D01*
X149938841Y-69706664D01*
X149935081Y-69709876D01*
X149935076Y-69709879D01*
X149751043Y-69867058D01*
X149751038Y-69867063D01*
X149747276Y-69870276D01*
X149744063Y-69874038D01*
X149744061Y-69874040D01*
X149708311Y-69915898D01*
X149648860Y-69954707D01*
X149577866Y-69955213D01*
X149516689Y-69915898D01*
X149480939Y-69874040D01*
X149480937Y-69874038D01*
X149477724Y-69870276D01*
X149473962Y-69867063D01*
X149473957Y-69867058D01*
X149289924Y-69709879D01*
X149289919Y-69709876D01*
X149286159Y-69706664D01*
X149071359Y-69575034D01*
X149066789Y-69573141D01*
X149066785Y-69573139D01*
X148843184Y-69480521D01*
X148843182Y-69480520D01*
X148838611Y-69478627D01*
X148754211Y-69458365D01*
X148598461Y-69420972D01*
X148598455Y-69420971D01*
X148593648Y-69419817D01*
X148342500Y-69400051D01*
X148091352Y-69419817D01*
X148086545Y-69420971D01*
X148086539Y-69420972D01*
X147930789Y-69458365D01*
X147846389Y-69478627D01*
X147841818Y-69480520D01*
X147841816Y-69480521D01*
X147618215Y-69573139D01*
X147618211Y-69573141D01*
X147613641Y-69575034D01*
X147398841Y-69706664D01*
X147395081Y-69709876D01*
X147395076Y-69709879D01*
X147211043Y-69867058D01*
X147211038Y-69867063D01*
X147207276Y-69870276D01*
X147204063Y-69874038D01*
X147204061Y-69874040D01*
X147168311Y-69915898D01*
X147108860Y-69954707D01*
X147037866Y-69955213D01*
X146976689Y-69915898D01*
X146940939Y-69874040D01*
X146940937Y-69874038D01*
X146937724Y-69870276D01*
X146933962Y-69867063D01*
X146933957Y-69867058D01*
X146749924Y-69709879D01*
X146749919Y-69709876D01*
X146746159Y-69706664D01*
X146531359Y-69575034D01*
X146526789Y-69573141D01*
X146526785Y-69573139D01*
X146303184Y-69480521D01*
X146303182Y-69480520D01*
X146298611Y-69478627D01*
X146214211Y-69458365D01*
X146058461Y-69420972D01*
X146058455Y-69420971D01*
X146053648Y-69419817D01*
X145802500Y-69400051D01*
X145551352Y-69419817D01*
X145546545Y-69420971D01*
X145546539Y-69420972D01*
X145390789Y-69458365D01*
X145306389Y-69478627D01*
X145301818Y-69480520D01*
X145301816Y-69480521D01*
X145078215Y-69573139D01*
X145078211Y-69573141D01*
X145073641Y-69575034D01*
X144858841Y-69706664D01*
X144855081Y-69709876D01*
X144855076Y-69709879D01*
X144671043Y-69867058D01*
X144671038Y-69867063D01*
X144667276Y-69870276D01*
X144664063Y-69874038D01*
X144664061Y-69874040D01*
X144628311Y-69915898D01*
X144568860Y-69954707D01*
X144497866Y-69955213D01*
X144436689Y-69915898D01*
X144400939Y-69874040D01*
X144400937Y-69874038D01*
X144397724Y-69870276D01*
X144393962Y-69867063D01*
X144393957Y-69867058D01*
X144209924Y-69709879D01*
X144209919Y-69709876D01*
X144206159Y-69706664D01*
X143991359Y-69575034D01*
X143986789Y-69573141D01*
X143986785Y-69573139D01*
X143763184Y-69480521D01*
X143763182Y-69480520D01*
X143758611Y-69478627D01*
X143674211Y-69458365D01*
X143518461Y-69420972D01*
X143518455Y-69420971D01*
X143513648Y-69419817D01*
X143262500Y-69400051D01*
X143011352Y-69419817D01*
X143006545Y-69420971D01*
X143006539Y-69420972D01*
X142850789Y-69458365D01*
X142766389Y-69478627D01*
X142761818Y-69480520D01*
X142761816Y-69480521D01*
X142538215Y-69573139D01*
X142538211Y-69573141D01*
X142533641Y-69575034D01*
X142318841Y-69706664D01*
X142315081Y-69709876D01*
X142315076Y-69709879D01*
X142145448Y-69854756D01*
X142127276Y-69870276D01*
X142124063Y-69874038D01*
X141966879Y-70058076D01*
X141966876Y-70058081D01*
X141963664Y-70061841D01*
X141832034Y-70276641D01*
X141735627Y-70509389D01*
X141734472Y-70514201D01*
X141688939Y-70703861D01*
X141676817Y-70754352D01*
X141657051Y-71005500D01*
X135940396Y-71005500D01*
X135933901Y-70999005D01*
X135929393Y-70995848D01*
X135929390Y-70995846D01*
X135744839Y-70866622D01*
X135744836Y-70866620D01*
X135740330Y-70863465D01*
X135735348Y-70861142D01*
X135735343Y-70861139D01*
X135531145Y-70765920D01*
X135531144Y-70765919D01*
X135526163Y-70763597D01*
X135520855Y-70762175D01*
X135520853Y-70762174D01*
X135303223Y-70703861D01*
X135303222Y-70703861D01*
X135297908Y-70702437D01*
X135062500Y-70681841D01*
X134827092Y-70702437D01*
X134821778Y-70703861D01*
X134821777Y-70703861D01*
X134604147Y-70762174D01*
X134604145Y-70762175D01*
X134598837Y-70763597D01*
X134593857Y-70765919D01*
X134593855Y-70765920D01*
X134389652Y-70861142D01*
X134389649Y-70861144D01*
X134384671Y-70863465D01*
X134191099Y-70999005D01*
X134024005Y-71166099D01*
X133888465Y-71359671D01*
X133886144Y-71364649D01*
X133886142Y-71364652D01*
X133822277Y-71501611D01*
X133788597Y-71573837D01*
X133727437Y-71802092D01*
X133706841Y-72037500D01*
X131418159Y-72037500D01*
X131397563Y-71802092D01*
X131336403Y-71573837D01*
X131302723Y-71501611D01*
X131238858Y-71364652D01*
X131238856Y-71364649D01*
X131236535Y-71359671D01*
X131100995Y-71166099D01*
X130933901Y-70999005D01*
X130929393Y-70995848D01*
X130929390Y-70995846D01*
X130744839Y-70866622D01*
X130744836Y-70866620D01*
X130740330Y-70863465D01*
X130735348Y-70861142D01*
X130735343Y-70861139D01*
X130531145Y-70765920D01*
X130531144Y-70765919D01*
X130526163Y-70763597D01*
X130520855Y-70762175D01*
X130520853Y-70762174D01*
X130303223Y-70703861D01*
X130303222Y-70703861D01*
X130297908Y-70702437D01*
X130062500Y-70681841D01*
X129827092Y-70702437D01*
X129821778Y-70703861D01*
X129821777Y-70703861D01*
X129604147Y-70762174D01*
X129604145Y-70762175D01*
X129598837Y-70763597D01*
X129593857Y-70765919D01*
X129593855Y-70765920D01*
X129389652Y-70861142D01*
X129389649Y-70861144D01*
X129384671Y-70863465D01*
X129191099Y-70999005D01*
X129024005Y-71166099D01*
X128888465Y-71359671D01*
X128886144Y-71364649D01*
X128886142Y-71364652D01*
X128822277Y-71501611D01*
X128788597Y-71573837D01*
X128727437Y-71802092D01*
X128706841Y-72037500D01*
X127763000Y-72037500D01*
X127763000Y-69590076D01*
X127764746Y-69569171D01*
X127767189Y-69554648D01*
X127767996Y-69549854D01*
X127768147Y-69537500D01*
X127766477Y-69525838D01*
X127765475Y-69499741D01*
X127779566Y-69284755D01*
X127781717Y-69268415D01*
X127829520Y-69028091D01*
X127833786Y-69012170D01*
X127912549Y-68780143D01*
X127918856Y-68764917D01*
X128027229Y-68545158D01*
X128035470Y-68530884D01*
X128171603Y-68327147D01*
X128181636Y-68314072D01*
X128343201Y-68129842D01*
X128354842Y-68118201D01*
X128539072Y-67956636D01*
X128552147Y-67946603D01*
X128755884Y-67810470D01*
X128770158Y-67802229D01*
X128989917Y-67693856D01*
X129005143Y-67687549D01*
X129237170Y-67608786D01*
X129253091Y-67604520D01*
X129493415Y-67556717D01*
X129509755Y-67554566D01*
X129655771Y-67544995D01*
X129721176Y-67540708D01*
X129742802Y-67541671D01*
X129747453Y-67541728D01*
X129756323Y-67543109D01*
X129765225Y-67541945D01*
X129765228Y-67541945D01*
X129787256Y-67539064D01*
X129803593Y-67538000D01*
X164713759Y-67538000D01*
X164733143Y-67539500D01*
G37*
G04 #@! TD.AperFunction*
M02*
