G04 #@! TF.GenerationSoftware,KiCad,Pcbnew,6.0.10+dfsg-1~bpo11+1*
G04 #@! TF.ProjectId,project,70726f6a-6563-4742-9e6b-696361645f70,rev?*
G04 #@! TF.SameCoordinates,Original*
G04 #@! TF.FileFunction,Legend,Top*
G04 #@! TF.FilePolarity,Positive*
%FSLAX46Y46*%
G04 Gerber Fmt 4.6, Leading zero omitted, Abs format (unit mm)*
%MOMM*%
%LPD*%
G01*
G04 APERTURE LIST*
G04 #@! TA.AperFunction,Profile*
%ADD10C,0.100000*%
G04 #@! TD*
%ADD11C,0.150000*%
%ADD12C,0.120000*%
%ADD13C,0.010000*%
%ADD14C,0.152400*%
%ADD15R,4.495800X1.295400*%
%ADD16R,3.911600X1.803400*%
%ADD17R,1.550000X1.300000*%
%ADD18C,5.600000*%
%ADD19R,1.700000X6.000000*%
%ADD20O,1.700000X6.000000*%
G04 APERTURE END LIST*
D10*
X80000000Y-91975000D02*
X80000000Y-150975000D01*
X80500000Y-151475000D02*
X124500000Y-151475000D01*
X80000000Y-150975000D02*
G75*
G03*
X80500000Y-151475000I500000J0D01*
G01*
X125000000Y-91975000D02*
G75*
G03*
X124500000Y-91475000I-500000J0D01*
G01*
X80500000Y-91475000D02*
X124500000Y-91475000D01*
X125000000Y-150975000D02*
X125000000Y-91975000D01*
X80500000Y-91475000D02*
G75*
G03*
X80000000Y-91975000I0J-500000D01*
G01*
X124500000Y-151475000D02*
G75*
G03*
X125000000Y-150975000I0J500000D01*
G01*
D11*
X108338095Y-100379761D02*
X107766666Y-100379761D01*
X107652380Y-100341666D01*
X107576190Y-100265476D01*
X107538095Y-100151190D01*
X107538095Y-100075000D01*
X107538095Y-101141666D02*
X107538095Y-100760714D01*
X108338095Y-100760714D01*
X107614285Y-101865476D02*
X107576190Y-101827380D01*
X107538095Y-101713095D01*
X107538095Y-101636904D01*
X107576190Y-101522619D01*
X107652380Y-101446428D01*
X107728571Y-101408333D01*
X107880952Y-101370238D01*
X107995238Y-101370238D01*
X108147619Y-101408333D01*
X108223809Y-101446428D01*
X108300000Y-101522619D01*
X108338095Y-101636904D01*
X108338095Y-101713095D01*
X108300000Y-101827380D01*
X108261904Y-101865476D01*
X108338095Y-102436904D02*
X107766666Y-102436904D01*
X107652380Y-102398809D01*
X107576190Y-102322619D01*
X107538095Y-102208333D01*
X107538095Y-102132142D01*
X107538095Y-103198809D02*
X107538095Y-102817857D01*
X108338095Y-102817857D01*
X107614285Y-103922619D02*
X107576190Y-103884523D01*
X107538095Y-103770238D01*
X107538095Y-103694047D01*
X107576190Y-103579761D01*
X107652380Y-103503571D01*
X107728571Y-103465476D01*
X107880952Y-103427380D01*
X107995238Y-103427380D01*
X108147619Y-103465476D01*
X108223809Y-103503571D01*
X108300000Y-103579761D01*
X108338095Y-103694047D01*
X108338095Y-103770238D01*
X108300000Y-103884523D01*
X108261904Y-103922619D01*
X108338095Y-104494047D02*
X107766666Y-104494047D01*
X107652380Y-104455952D01*
X107576190Y-104379761D01*
X107538095Y-104265476D01*
X107538095Y-104189285D01*
X107538095Y-105255952D02*
X107538095Y-104875000D01*
X108338095Y-104875000D01*
X107614285Y-105979761D02*
X107576190Y-105941666D01*
X107538095Y-105827380D01*
X107538095Y-105751190D01*
X107576190Y-105636904D01*
X107652380Y-105560714D01*
X107728571Y-105522619D01*
X107880952Y-105484523D01*
X107995238Y-105484523D01*
X108147619Y-105522619D01*
X108223809Y-105560714D01*
X108300000Y-105636904D01*
X108338095Y-105751190D01*
X108338095Y-105827380D01*
X108300000Y-105941666D01*
X108261904Y-105979761D01*
X108338095Y-106551190D02*
X107766666Y-106551190D01*
X107652380Y-106513095D01*
X107576190Y-106436904D01*
X107538095Y-106322619D01*
X107538095Y-106246428D01*
X107538095Y-107313095D02*
X107538095Y-106932142D01*
X108338095Y-106932142D01*
X107614285Y-108036904D02*
X107576190Y-107998809D01*
X107538095Y-107884523D01*
X107538095Y-107808333D01*
X107576190Y-107694047D01*
X107652380Y-107617857D01*
X107728571Y-107579761D01*
X107880952Y-107541666D01*
X107995238Y-107541666D01*
X108147619Y-107579761D01*
X108223809Y-107617857D01*
X108300000Y-107694047D01*
X108338095Y-107808333D01*
X108338095Y-107884523D01*
X108300000Y-107998809D01*
X108261904Y-108036904D01*
X104866666Y-125080714D02*
X104828571Y-125118809D01*
X104714285Y-125156904D01*
X104638095Y-125156904D01*
X104523809Y-125118809D01*
X104447619Y-125042619D01*
X104409523Y-124966428D01*
X104371428Y-124814047D01*
X104371428Y-124699761D01*
X104409523Y-124547380D01*
X104447619Y-124471190D01*
X104523809Y-124395000D01*
X104638095Y-124356904D01*
X104714285Y-124356904D01*
X104828571Y-124395000D01*
X104866666Y-124433095D01*
X105628571Y-125156904D02*
X105171428Y-125156904D01*
X105400000Y-125156904D02*
X105400000Y-124356904D01*
X105323809Y-124471190D01*
X105247619Y-124547380D01*
X105171428Y-124585476D01*
X91438095Y-103141666D02*
X91819047Y-102875000D01*
X91438095Y-102684523D02*
X92238095Y-102684523D01*
X92238095Y-102989285D01*
X92200000Y-103065476D01*
X92161904Y-103103571D01*
X92085714Y-103141666D01*
X91971428Y-103141666D01*
X91895238Y-103103571D01*
X91857142Y-103065476D01*
X91819047Y-102989285D01*
X91819047Y-102684523D01*
X92238095Y-103408333D02*
X92238095Y-103903571D01*
X91933333Y-103636904D01*
X91933333Y-103751190D01*
X91895238Y-103827380D01*
X91857142Y-103865476D01*
X91780952Y-103903571D01*
X91590476Y-103903571D01*
X91514285Y-103865476D01*
X91476190Y-103827380D01*
X91438095Y-103751190D01*
X91438095Y-103522619D01*
X91476190Y-103446428D01*
X91514285Y-103408333D01*
X91638095Y-134341666D02*
X92019047Y-134075000D01*
X91638095Y-133884523D02*
X92438095Y-133884523D01*
X92438095Y-134189285D01*
X92400000Y-134265476D01*
X92361904Y-134303571D01*
X92285714Y-134341666D01*
X92171428Y-134341666D01*
X92095238Y-134303571D01*
X92057142Y-134265476D01*
X92019047Y-134189285D01*
X92019047Y-133884523D01*
X92438095Y-134608333D02*
X92438095Y-135141666D01*
X91638095Y-134798809D01*
X101640476Y-115536904D02*
X101640476Y-116184523D01*
X101678571Y-116260714D01*
X101716666Y-116298809D01*
X101792857Y-116336904D01*
X101945238Y-116336904D01*
X102021428Y-116298809D01*
X102059523Y-116260714D01*
X102097619Y-116184523D01*
X102097619Y-115536904D01*
X102897619Y-116336904D02*
X102440476Y-116336904D01*
X102669047Y-116336904D02*
X102669047Y-115536904D01*
X102592857Y-115651190D01*
X102516666Y-115727380D01*
X102440476Y-115765476D01*
X112638095Y-122960714D02*
X113019047Y-122694047D01*
X112638095Y-122503571D02*
X113438095Y-122503571D01*
X113438095Y-122808333D01*
X113400000Y-122884523D01*
X113361904Y-122922619D01*
X113285714Y-122960714D01*
X113171428Y-122960714D01*
X113095238Y-122922619D01*
X113057142Y-122884523D01*
X113019047Y-122808333D01*
X113019047Y-122503571D01*
X112638095Y-123722619D02*
X112638095Y-123265476D01*
X112638095Y-123494047D02*
X113438095Y-123494047D01*
X113323809Y-123417857D01*
X113247619Y-123341666D01*
X113209523Y-123265476D01*
X113438095Y-123989285D02*
X113438095Y-124484523D01*
X113133333Y-124217857D01*
X113133333Y-124332142D01*
X113095238Y-124408333D01*
X113057142Y-124446428D01*
X112980952Y-124484523D01*
X112790476Y-124484523D01*
X112714285Y-124446428D01*
X112676190Y-124408333D01*
X112638095Y-124332142D01*
X112638095Y-124103571D01*
X112676190Y-124027380D01*
X112714285Y-123989285D01*
X116640476Y-104286904D02*
X117097619Y-104286904D01*
X116869047Y-105086904D02*
X116869047Y-104286904D01*
X117478571Y-104629761D02*
X117402380Y-104591666D01*
X117364285Y-104553571D01*
X117326190Y-104477380D01*
X117326190Y-104439285D01*
X117364285Y-104363095D01*
X117402380Y-104325000D01*
X117478571Y-104286904D01*
X117630952Y-104286904D01*
X117707142Y-104325000D01*
X117745238Y-104363095D01*
X117783333Y-104439285D01*
X117783333Y-104477380D01*
X117745238Y-104553571D01*
X117707142Y-104591666D01*
X117630952Y-104629761D01*
X117478571Y-104629761D01*
X117402380Y-104667857D01*
X117364285Y-104705952D01*
X117326190Y-104782142D01*
X117326190Y-104934523D01*
X117364285Y-105010714D01*
X117402380Y-105048809D01*
X117478571Y-105086904D01*
X117630952Y-105086904D01*
X117707142Y-105048809D01*
X117745238Y-105010714D01*
X117783333Y-104934523D01*
X117783333Y-104782142D01*
X117745238Y-104705952D01*
X117707142Y-104667857D01*
X117630952Y-104629761D01*
X116640476Y-149286904D02*
X117097619Y-149286904D01*
X116869047Y-150086904D02*
X116869047Y-149286904D01*
X117745238Y-149286904D02*
X117364285Y-149286904D01*
X117326190Y-149667857D01*
X117364285Y-149629761D01*
X117440476Y-149591666D01*
X117630952Y-149591666D01*
X117707142Y-149629761D01*
X117745238Y-149667857D01*
X117783333Y-149744047D01*
X117783333Y-149934523D01*
X117745238Y-150010714D01*
X117707142Y-150048809D01*
X117630952Y-150086904D01*
X117440476Y-150086904D01*
X117364285Y-150048809D01*
X117326190Y-150010714D01*
X112488095Y-148960714D02*
X112869047Y-148694047D01*
X112488095Y-148503571D02*
X113288095Y-148503571D01*
X113288095Y-148808333D01*
X113250000Y-148884523D01*
X113211904Y-148922619D01*
X113135714Y-148960714D01*
X113021428Y-148960714D01*
X112945238Y-148922619D01*
X112907142Y-148884523D01*
X112869047Y-148808333D01*
X112869047Y-148503571D01*
X112488095Y-149722619D02*
X112488095Y-149265476D01*
X112488095Y-149494047D02*
X113288095Y-149494047D01*
X113173809Y-149417857D01*
X113097619Y-149341666D01*
X113059523Y-149265476D01*
X113288095Y-150217857D02*
X113288095Y-150294047D01*
X113250000Y-150370238D01*
X113211904Y-150408333D01*
X113135714Y-150446428D01*
X112983333Y-150484523D01*
X112792857Y-150484523D01*
X112640476Y-150446428D01*
X112564285Y-150408333D01*
X112526190Y-150370238D01*
X112488095Y-150294047D01*
X112488095Y-150217857D01*
X112526190Y-150141666D01*
X112564285Y-150103571D01*
X112640476Y-150065476D01*
X112792857Y-150027380D01*
X112983333Y-150027380D01*
X113135714Y-150065476D01*
X113211904Y-150103571D01*
X113250000Y-150141666D01*
X113288095Y-150217857D01*
X116640476Y-119286904D02*
X117097619Y-119286904D01*
X116869047Y-120086904D02*
X116869047Y-119286904D01*
X117288095Y-119286904D02*
X117821428Y-119286904D01*
X117478571Y-120086904D01*
X112738095Y-103860714D02*
X113119047Y-103594047D01*
X112738095Y-103403571D02*
X113538095Y-103403571D01*
X113538095Y-103708333D01*
X113500000Y-103784523D01*
X113461904Y-103822619D01*
X113385714Y-103860714D01*
X113271428Y-103860714D01*
X113195238Y-103822619D01*
X113157142Y-103784523D01*
X113119047Y-103708333D01*
X113119047Y-103403571D01*
X112738095Y-104622619D02*
X112738095Y-104165476D01*
X112738095Y-104394047D02*
X113538095Y-104394047D01*
X113423809Y-104317857D01*
X113347619Y-104241666D01*
X113309523Y-104165476D01*
X113538095Y-105308333D02*
X113538095Y-105155952D01*
X113500000Y-105079761D01*
X113461904Y-105041666D01*
X113347619Y-104965476D01*
X113195238Y-104927380D01*
X112890476Y-104927380D01*
X112814285Y-104965476D01*
X112776190Y-105003571D01*
X112738095Y-105079761D01*
X112738095Y-105232142D01*
X112776190Y-105308333D01*
X112814285Y-105346428D01*
X112890476Y-105384523D01*
X113080952Y-105384523D01*
X113157142Y-105346428D01*
X113195238Y-105308333D01*
X113233333Y-105232142D01*
X113233333Y-105079761D01*
X113195238Y-105003571D01*
X113157142Y-104965476D01*
X113080952Y-104927380D01*
X94238095Y-122884523D02*
X95038095Y-122884523D01*
X95038095Y-123075000D01*
X95000000Y-123189285D01*
X94923809Y-123265476D01*
X94847619Y-123303571D01*
X94695238Y-123341666D01*
X94580952Y-123341666D01*
X94428571Y-123303571D01*
X94352380Y-123265476D01*
X94276190Y-123189285D01*
X94238095Y-123075000D01*
X94238095Y-122884523D01*
X94238095Y-124103571D02*
X94238095Y-123646428D01*
X94238095Y-123875000D02*
X95038095Y-123875000D01*
X94923809Y-123798809D01*
X94847619Y-123722619D01*
X94809523Y-123646428D01*
X112488095Y-133960714D02*
X112869047Y-133694047D01*
X112488095Y-133503571D02*
X113288095Y-133503571D01*
X113288095Y-133808333D01*
X113250000Y-133884523D01*
X113211904Y-133922619D01*
X113135714Y-133960714D01*
X113021428Y-133960714D01*
X112945238Y-133922619D01*
X112907142Y-133884523D01*
X112869047Y-133808333D01*
X112869047Y-133503571D01*
X112488095Y-134722619D02*
X112488095Y-134265476D01*
X112488095Y-134494047D02*
X113288095Y-134494047D01*
X113173809Y-134417857D01*
X113097619Y-134341666D01*
X113059523Y-134265476D01*
X113211904Y-135027380D02*
X113250000Y-135065476D01*
X113288095Y-135141666D01*
X113288095Y-135332142D01*
X113250000Y-135408333D01*
X113211904Y-135446428D01*
X113135714Y-135484523D01*
X113059523Y-135484523D01*
X112945238Y-135446428D01*
X112488095Y-134989285D01*
X112488095Y-135484523D01*
X94288095Y-117341666D02*
X94669047Y-117075000D01*
X94288095Y-116884523D02*
X95088095Y-116884523D01*
X95088095Y-117189285D01*
X95050000Y-117265476D01*
X95011904Y-117303571D01*
X94935714Y-117341666D01*
X94821428Y-117341666D01*
X94745238Y-117303571D01*
X94707142Y-117265476D01*
X94669047Y-117189285D01*
X94669047Y-116884523D01*
X94288095Y-118103571D02*
X94288095Y-117646428D01*
X94288095Y-117875000D02*
X95088095Y-117875000D01*
X94973809Y-117798809D01*
X94897619Y-117722619D01*
X94859523Y-117646428D01*
X98203333Y-145298809D02*
X98317619Y-145336904D01*
X98508095Y-145336904D01*
X98584285Y-145298809D01*
X98622380Y-145260714D01*
X98660476Y-145184523D01*
X98660476Y-145108333D01*
X98622380Y-145032142D01*
X98584285Y-144994047D01*
X98508095Y-144955952D01*
X98355714Y-144917857D01*
X98279523Y-144879761D01*
X98241428Y-144841666D01*
X98203333Y-144765476D01*
X98203333Y-144689285D01*
X98241428Y-144613095D01*
X98279523Y-144575000D01*
X98355714Y-144536904D01*
X98546190Y-144536904D01*
X98660476Y-144575000D01*
X98927142Y-144536904D02*
X99117619Y-145336904D01*
X99270000Y-144765476D01*
X99422380Y-145336904D01*
X99612857Y-144536904D01*
X100336666Y-145336904D02*
X99879523Y-145336904D01*
X100108095Y-145336904D02*
X100108095Y-144536904D01*
X100031904Y-144651190D01*
X99955714Y-144727380D01*
X99879523Y-144765476D01*
X87140476Y-149286904D02*
X87597619Y-149286904D01*
X87369047Y-150086904D02*
X87369047Y-149286904D01*
X88207142Y-149553571D02*
X88207142Y-150086904D01*
X88016666Y-149248809D02*
X87826190Y-149820238D01*
X88321428Y-149820238D01*
X91438095Y-94641666D02*
X91819047Y-94375000D01*
X91438095Y-94184523D02*
X92238095Y-94184523D01*
X92238095Y-94489285D01*
X92200000Y-94565476D01*
X92161904Y-94603571D01*
X92085714Y-94641666D01*
X91971428Y-94641666D01*
X91895238Y-94603571D01*
X91857142Y-94565476D01*
X91819047Y-94489285D01*
X91819047Y-94184523D01*
X92161904Y-94946428D02*
X92200000Y-94984523D01*
X92238095Y-95060714D01*
X92238095Y-95251190D01*
X92200000Y-95327380D01*
X92161904Y-95365476D01*
X92085714Y-95403571D01*
X92009523Y-95403571D01*
X91895238Y-95365476D01*
X91438095Y-94908333D01*
X91438095Y-95403571D01*
X116640476Y-134286904D02*
X117097619Y-134286904D01*
X116869047Y-135086904D02*
X116869047Y-134286904D01*
X117707142Y-134286904D02*
X117554761Y-134286904D01*
X117478571Y-134325000D01*
X117440476Y-134363095D01*
X117364285Y-134477380D01*
X117326190Y-134629761D01*
X117326190Y-134934523D01*
X117364285Y-135010714D01*
X117402380Y-135048809D01*
X117478571Y-135086904D01*
X117630952Y-135086904D01*
X117707142Y-135048809D01*
X117745238Y-135010714D01*
X117783333Y-134934523D01*
X117783333Y-134744047D01*
X117745238Y-134667857D01*
X117707142Y-134629761D01*
X117630952Y-134591666D01*
X117478571Y-134591666D01*
X117402380Y-134629761D01*
X117364285Y-134667857D01*
X117326190Y-134744047D01*
X87140476Y-119286904D02*
X87597619Y-119286904D01*
X87369047Y-120086904D02*
X87369047Y-119286904D01*
X87826190Y-119363095D02*
X87864285Y-119325000D01*
X87940476Y-119286904D01*
X88130952Y-119286904D01*
X88207142Y-119325000D01*
X88245238Y-119363095D01*
X88283333Y-119439285D01*
X88283333Y-119515476D01*
X88245238Y-119629761D01*
X87788095Y-120086904D01*
X88283333Y-120086904D01*
X91388095Y-118341666D02*
X91769047Y-118075000D01*
X91388095Y-117884523D02*
X92188095Y-117884523D01*
X92188095Y-118189285D01*
X92150000Y-118265476D01*
X92111904Y-118303571D01*
X92035714Y-118341666D01*
X91921428Y-118341666D01*
X91845238Y-118303571D01*
X91807142Y-118265476D01*
X91769047Y-118189285D01*
X91769047Y-117884523D01*
X92188095Y-119065476D02*
X92188095Y-118684523D01*
X91807142Y-118646428D01*
X91845238Y-118684523D01*
X91883333Y-118760714D01*
X91883333Y-118951190D01*
X91845238Y-119027380D01*
X91807142Y-119065476D01*
X91730952Y-119103571D01*
X91540476Y-119103571D01*
X91464285Y-119065476D01*
X91426190Y-119027380D01*
X91388095Y-118951190D01*
X91388095Y-118760714D01*
X91426190Y-118684523D01*
X91464285Y-118646428D01*
X112738095Y-107960714D02*
X113119047Y-107694047D01*
X112738095Y-107503571D02*
X113538095Y-107503571D01*
X113538095Y-107808333D01*
X113500000Y-107884523D01*
X113461904Y-107922619D01*
X113385714Y-107960714D01*
X113271428Y-107960714D01*
X113195238Y-107922619D01*
X113157142Y-107884523D01*
X113119047Y-107808333D01*
X113119047Y-107503571D01*
X112738095Y-108722619D02*
X112738095Y-108265476D01*
X112738095Y-108494047D02*
X113538095Y-108494047D01*
X113423809Y-108417857D01*
X113347619Y-108341666D01*
X113309523Y-108265476D01*
X113538095Y-109446428D02*
X113538095Y-109065476D01*
X113157142Y-109027380D01*
X113195238Y-109065476D01*
X113233333Y-109141666D01*
X113233333Y-109332142D01*
X113195238Y-109408333D01*
X113157142Y-109446428D01*
X113080952Y-109484523D01*
X112890476Y-109484523D01*
X112814285Y-109446428D01*
X112776190Y-109408333D01*
X112738095Y-109332142D01*
X112738095Y-109141666D01*
X112776190Y-109065476D01*
X112814285Y-109027380D01*
X112488095Y-118960714D02*
X112869047Y-118694047D01*
X112488095Y-118503571D02*
X113288095Y-118503571D01*
X113288095Y-118808333D01*
X113250000Y-118884523D01*
X113211904Y-118922619D01*
X113135714Y-118960714D01*
X113021428Y-118960714D01*
X112945238Y-118922619D01*
X112907142Y-118884523D01*
X112869047Y-118808333D01*
X112869047Y-118503571D01*
X112488095Y-119722619D02*
X112488095Y-119265476D01*
X112488095Y-119494047D02*
X113288095Y-119494047D01*
X113173809Y-119417857D01*
X113097619Y-119341666D01*
X113059523Y-119265476D01*
X113021428Y-120408333D02*
X112488095Y-120408333D01*
X113326190Y-120217857D02*
X112754761Y-120027380D01*
X112754761Y-120522619D01*
X91438095Y-107241666D02*
X91819047Y-106975000D01*
X91438095Y-106784523D02*
X92238095Y-106784523D01*
X92238095Y-107089285D01*
X92200000Y-107165476D01*
X92161904Y-107203571D01*
X92085714Y-107241666D01*
X91971428Y-107241666D01*
X91895238Y-107203571D01*
X91857142Y-107165476D01*
X91819047Y-107089285D01*
X91819047Y-106784523D01*
X91971428Y-107927380D02*
X91438095Y-107927380D01*
X92276190Y-107736904D02*
X91704761Y-107546428D01*
X91704761Y-108041666D01*
X91388095Y-124841666D02*
X91769047Y-124575000D01*
X91388095Y-124384523D02*
X92188095Y-124384523D01*
X92188095Y-124689285D01*
X92150000Y-124765476D01*
X92111904Y-124803571D01*
X92035714Y-124841666D01*
X91921428Y-124841666D01*
X91845238Y-124803571D01*
X91807142Y-124765476D01*
X91769047Y-124689285D01*
X91769047Y-124384523D01*
X92188095Y-125527380D02*
X92188095Y-125375000D01*
X92150000Y-125298809D01*
X92111904Y-125260714D01*
X91997619Y-125184523D01*
X91845238Y-125146428D01*
X91540476Y-125146428D01*
X91464285Y-125184523D01*
X91426190Y-125222619D01*
X91388095Y-125298809D01*
X91388095Y-125451190D01*
X91426190Y-125527380D01*
X91464285Y-125565476D01*
X91540476Y-125603571D01*
X91730952Y-125603571D01*
X91807142Y-125565476D01*
X91845238Y-125527380D01*
X91883333Y-125451190D01*
X91883333Y-125298809D01*
X91845238Y-125222619D01*
X91807142Y-125184523D01*
X91730952Y-125146428D01*
X97733333Y-135536904D02*
X97733333Y-136108333D01*
X97695238Y-136222619D01*
X97619047Y-136298809D01*
X97504761Y-136336904D01*
X97428571Y-136336904D01*
X98533333Y-136336904D02*
X98076190Y-136336904D01*
X98304761Y-136336904D02*
X98304761Y-135536904D01*
X98228571Y-135651190D01*
X98152380Y-135727380D01*
X98076190Y-135765476D01*
X87140476Y-134286904D02*
X87597619Y-134286904D01*
X87369047Y-135086904D02*
X87369047Y-134286904D01*
X87788095Y-134286904D02*
X88283333Y-134286904D01*
X88016666Y-134591666D01*
X88130952Y-134591666D01*
X88207142Y-134629761D01*
X88245238Y-134667857D01*
X88283333Y-134744047D01*
X88283333Y-134934523D01*
X88245238Y-135010714D01*
X88207142Y-135048809D01*
X88130952Y-135086904D01*
X87902380Y-135086904D01*
X87826190Y-135048809D01*
X87788095Y-135010714D01*
X91638095Y-149341666D02*
X92019047Y-149075000D01*
X91638095Y-148884523D02*
X92438095Y-148884523D01*
X92438095Y-149189285D01*
X92400000Y-149265476D01*
X92361904Y-149303571D01*
X92285714Y-149341666D01*
X92171428Y-149341666D01*
X92095238Y-149303571D01*
X92057142Y-149265476D01*
X92019047Y-149189285D01*
X92019047Y-148884523D01*
X91638095Y-149722619D02*
X91638095Y-149875000D01*
X91676190Y-149951190D01*
X91714285Y-149989285D01*
X91828571Y-150065476D01*
X91980952Y-150103571D01*
X92285714Y-150103571D01*
X92361904Y-150065476D01*
X92400000Y-150027380D01*
X92438095Y-149951190D01*
X92438095Y-149798809D01*
X92400000Y-149722619D01*
X92361904Y-149684523D01*
X92285714Y-149646428D01*
X92095238Y-149646428D01*
X92019047Y-149684523D01*
X91980952Y-149722619D01*
X91942857Y-149798809D01*
X91942857Y-149951190D01*
X91980952Y-150027380D01*
X92019047Y-150065476D01*
X92095238Y-150103571D01*
X87140476Y-104286904D02*
X87597619Y-104286904D01*
X87369047Y-105086904D02*
X87369047Y-104286904D01*
X88283333Y-105086904D02*
X87826190Y-105086904D01*
X88054761Y-105086904D02*
X88054761Y-104286904D01*
X87978571Y-104401190D01*
X87902380Y-104477380D01*
X87826190Y-104515476D01*
X91788095Y-138341666D02*
X92169047Y-138075000D01*
X91788095Y-137884523D02*
X92588095Y-137884523D01*
X92588095Y-138189285D01*
X92550000Y-138265476D01*
X92511904Y-138303571D01*
X92435714Y-138341666D01*
X92321428Y-138341666D01*
X92245238Y-138303571D01*
X92207142Y-138265476D01*
X92169047Y-138189285D01*
X92169047Y-137884523D01*
X92245238Y-138798809D02*
X92283333Y-138722619D01*
X92321428Y-138684523D01*
X92397619Y-138646428D01*
X92435714Y-138646428D01*
X92511904Y-138684523D01*
X92550000Y-138722619D01*
X92588095Y-138798809D01*
X92588095Y-138951190D01*
X92550000Y-139027380D01*
X92511904Y-139065476D01*
X92435714Y-139103571D01*
X92397619Y-139103571D01*
X92321428Y-139065476D01*
X92283333Y-139027380D01*
X92245238Y-138951190D01*
X92245238Y-138798809D01*
X92207142Y-138722619D01*
X92169047Y-138684523D01*
X92092857Y-138646428D01*
X91940476Y-138646428D01*
X91864285Y-138684523D01*
X91826190Y-138722619D01*
X91788095Y-138798809D01*
X91788095Y-138951190D01*
X91826190Y-139027380D01*
X91864285Y-139065476D01*
X91940476Y-139103571D01*
X92092857Y-139103571D01*
X92169047Y-139065476D01*
X92207142Y-139027380D01*
X92245238Y-138951190D01*
X112738095Y-92960714D02*
X113119047Y-92694047D01*
X112738095Y-92503571D02*
X113538095Y-92503571D01*
X113538095Y-92808333D01*
X113500000Y-92884523D01*
X113461904Y-92922619D01*
X113385714Y-92960714D01*
X113271428Y-92960714D01*
X113195238Y-92922619D01*
X113157142Y-92884523D01*
X113119047Y-92808333D01*
X113119047Y-92503571D01*
X112738095Y-93722619D02*
X112738095Y-93265476D01*
X112738095Y-93494047D02*
X113538095Y-93494047D01*
X113423809Y-93417857D01*
X113347619Y-93341666D01*
X113309523Y-93265476D01*
X113538095Y-93989285D02*
X113538095Y-94522619D01*
X112738095Y-94179761D01*
X112638095Y-137960714D02*
X113019047Y-137694047D01*
X112638095Y-137503571D02*
X113438095Y-137503571D01*
X113438095Y-137808333D01*
X113400000Y-137884523D01*
X113361904Y-137922619D01*
X113285714Y-137960714D01*
X113171428Y-137960714D01*
X113095238Y-137922619D01*
X113057142Y-137884523D01*
X113019047Y-137808333D01*
X113019047Y-137503571D01*
X112638095Y-138722619D02*
X112638095Y-138265476D01*
X112638095Y-138494047D02*
X113438095Y-138494047D01*
X113323809Y-138417857D01*
X113247619Y-138341666D01*
X113209523Y-138265476D01*
X112638095Y-139484523D02*
X112638095Y-139027380D01*
X112638095Y-139255952D02*
X113438095Y-139255952D01*
X113323809Y-139179761D01*
X113247619Y-139103571D01*
X113209523Y-139027380D01*
D12*
X104738748Y-125740000D02*
X105261252Y-125740000D01*
X104738748Y-127210000D02*
X105261252Y-127210000D01*
X89765000Y-104702064D02*
X89765000Y-104247936D01*
X91235000Y-104702064D02*
X91235000Y-104247936D01*
G36*
X98755814Y-118943931D02*
G01*
X98839635Y-119388555D01*
X99148920Y-119516053D01*
X99458206Y-119643551D01*
X99829246Y-119391246D01*
X99933157Y-119320996D01*
X100027087Y-119258272D01*
X100106652Y-119205938D01*
X100167470Y-119166857D01*
X100205157Y-119143893D01*
X100215421Y-119138942D01*
X100233910Y-119151676D01*
X100273420Y-119186882D01*
X100329522Y-119240062D01*
X100397787Y-119306718D01*
X100473786Y-119382354D01*
X100553092Y-119462472D01*
X100631275Y-119542574D01*
X100703907Y-119618164D01*
X100766559Y-119684745D01*
X100814803Y-119737818D01*
X100844210Y-119772887D01*
X100851241Y-119784623D01*
X100841123Y-119806260D01*
X100812759Y-119853662D01*
X100769129Y-119922193D01*
X100713218Y-120007215D01*
X100648006Y-120104093D01*
X100610219Y-120159350D01*
X100541343Y-120260248D01*
X100480140Y-120351299D01*
X100429578Y-120427970D01*
X100392628Y-120485728D01*
X100372258Y-120520043D01*
X100369197Y-120527254D01*
X100376136Y-120547748D01*
X100395051Y-120595513D01*
X100423087Y-120663832D01*
X100457391Y-120745989D01*
X100495109Y-120835270D01*
X100533387Y-120924958D01*
X100569370Y-121008338D01*
X100600206Y-121078694D01*
X100623039Y-121129310D01*
X100635017Y-121153471D01*
X100635724Y-121154422D01*
X100654531Y-121159036D01*
X100704618Y-121169328D01*
X100780793Y-121184287D01*
X100877865Y-121202901D01*
X100990643Y-121224159D01*
X101056442Y-121236418D01*
X101176950Y-121259362D01*
X101285797Y-121281195D01*
X101377476Y-121300722D01*
X101446481Y-121316748D01*
X101487304Y-121328079D01*
X101495511Y-121331674D01*
X101503548Y-121356006D01*
X101510033Y-121410959D01*
X101514970Y-121490108D01*
X101518364Y-121587026D01*
X101520218Y-121695287D01*
X101520538Y-121808465D01*
X101519327Y-121920135D01*
X101516590Y-122023868D01*
X101512331Y-122113241D01*
X101506555Y-122181826D01*
X101499267Y-122223197D01*
X101494895Y-122231810D01*
X101468764Y-122242133D01*
X101413393Y-122256892D01*
X101336107Y-122274352D01*
X101244230Y-122292780D01*
X101212158Y-122298741D01*
X101057524Y-122327066D01*
X100935375Y-122349876D01*
X100841673Y-122368080D01*
X100772384Y-122382583D01*
X100723471Y-122394292D01*
X100690897Y-122404115D01*
X100670628Y-122412956D01*
X100658626Y-122421724D01*
X100656947Y-122423457D01*
X100640184Y-122451371D01*
X100614614Y-122505695D01*
X100582788Y-122579777D01*
X100547260Y-122666965D01*
X100510583Y-122760608D01*
X100475311Y-122854052D01*
X100443996Y-122940647D01*
X100419193Y-123013740D01*
X100403454Y-123066678D01*
X100399332Y-123092811D01*
X100399676Y-123093726D01*
X100413641Y-123115086D01*
X100445322Y-123162084D01*
X100491391Y-123229827D01*
X100548518Y-123313423D01*
X100613373Y-123407982D01*
X100631843Y-123434854D01*
X100697699Y-123532275D01*
X100755650Y-123621163D01*
X100802538Y-123696412D01*
X100835207Y-123752920D01*
X100850500Y-123785581D01*
X100851241Y-123789593D01*
X100838392Y-123810684D01*
X100802888Y-123852464D01*
X100749293Y-123910445D01*
X100682171Y-123980135D01*
X100606087Y-124057045D01*
X100525604Y-124136683D01*
X100445287Y-124214561D01*
X100369699Y-124286186D01*
X100303405Y-124347070D01*
X100250969Y-124392721D01*
X100216955Y-124418650D01*
X100207545Y-124422883D01*
X100185643Y-124412912D01*
X100140800Y-124386020D01*
X100080321Y-124346736D01*
X100033789Y-124315117D01*
X99949475Y-124257098D01*
X99849626Y-124188784D01*
X99749473Y-124120579D01*
X99695627Y-124084075D01*
X99513371Y-123960800D01*
X99360381Y-124043520D01*
X99290682Y-124079759D01*
X99231414Y-124107926D01*
X99191311Y-124123991D01*
X99181103Y-124126226D01*
X99168829Y-124109722D01*
X99144613Y-124063082D01*
X99110263Y-123990609D01*
X99067588Y-123896606D01*
X99018394Y-123785374D01*
X98964490Y-123661215D01*
X98907684Y-123528432D01*
X98849782Y-123391327D01*
X98792593Y-123254202D01*
X98737924Y-123121358D01*
X98687584Y-122997098D01*
X98643380Y-122885725D01*
X98607119Y-122791539D01*
X98580609Y-122718844D01*
X98565658Y-122671941D01*
X98563254Y-122655833D01*
X98582311Y-122635286D01*
X98624036Y-122601933D01*
X98679706Y-122562702D01*
X98684378Y-122559599D01*
X98828264Y-122444423D01*
X98944283Y-122310053D01*
X99031430Y-122160784D01*
X99088699Y-122000913D01*
X99115086Y-121834737D01*
X99109585Y-121666552D01*
X99071190Y-121500655D01*
X98998895Y-121341342D01*
X98977626Y-121306487D01*
X98866996Y-121165737D01*
X98736302Y-121052714D01*
X98590064Y-120968003D01*
X98432808Y-120912194D01*
X98269057Y-120885874D01*
X98103333Y-120889630D01*
X97940162Y-120924050D01*
X97784065Y-120989723D01*
X97639567Y-121087235D01*
X97594869Y-121126813D01*
X97481112Y-121250703D01*
X97398218Y-121381124D01*
X97341356Y-121527315D01*
X97309687Y-121672088D01*
X97301869Y-121834860D01*
X97327938Y-121998440D01*
X97385245Y-122157298D01*
X97471144Y-122305906D01*
X97582986Y-122438735D01*
X97718123Y-122550256D01*
X97735883Y-122562011D01*
X97792150Y-122600508D01*
X97834923Y-122633863D01*
X97855372Y-122655160D01*
X97855669Y-122655833D01*
X97851279Y-122678871D01*
X97833876Y-122731157D01*
X97805268Y-122808390D01*
X97767265Y-122906268D01*
X97721674Y-123020491D01*
X97670303Y-123146758D01*
X97614962Y-123280767D01*
X97557458Y-123418218D01*
X97499601Y-123554808D01*
X97443198Y-123686237D01*
X97390058Y-123808205D01*
X97341990Y-123916409D01*
X97300801Y-124006549D01*
X97268301Y-124074323D01*
X97246297Y-124115430D01*
X97237436Y-124126226D01*
X97210360Y-124117819D01*
X97159697Y-124095272D01*
X97094183Y-124062613D01*
X97058159Y-124043520D01*
X96905168Y-123960800D01*
X96722912Y-124084075D01*
X96629875Y-124147228D01*
X96528015Y-124216727D01*
X96432562Y-124282165D01*
X96384750Y-124315117D01*
X96317505Y-124360273D01*
X96260564Y-124396057D01*
X96221354Y-124417938D01*
X96208619Y-124422563D01*
X96190083Y-124410085D01*
X96149059Y-124375252D01*
X96089525Y-124321678D01*
X96015458Y-124252983D01*
X95930835Y-124172781D01*
X95877315Y-124121286D01*
X95783681Y-124029286D01*
X95702759Y-123946999D01*
X95637823Y-123877945D01*
X95592142Y-123825644D01*
X95568989Y-123793616D01*
X95566768Y-123787116D01*
X95577076Y-123762394D01*
X95605561Y-123712405D01*
X95649063Y-123642212D01*
X95704423Y-123556875D01*
X95768480Y-123461456D01*
X95786697Y-123434854D01*
X95853073Y-123338167D01*
X95912622Y-123251117D01*
X95962016Y-123178595D01*
X95997925Y-123125493D01*
X96017019Y-123096703D01*
X96018864Y-123093726D01*
X96016105Y-123070782D01*
X96001462Y-123020336D01*
X95977487Y-122949041D01*
X95946734Y-122863547D01*
X95911756Y-122770507D01*
X95875107Y-122676574D01*
X95839339Y-122588399D01*
X95807006Y-122512634D01*
X95780662Y-122455931D01*
X95762858Y-122424943D01*
X95761593Y-122423457D01*
X95750706Y-122414601D01*
X95732318Y-122405843D01*
X95702394Y-122396277D01*
X95656897Y-122384996D01*
X95591791Y-122371093D01*
X95503039Y-122353663D01*
X95386607Y-122331798D01*
X95238458Y-122304591D01*
X95206382Y-122298741D01*
X95111314Y-122280374D01*
X95028435Y-122262405D01*
X94965070Y-122246569D01*
X94928542Y-122234600D01*
X94923644Y-122231810D01*
X94915573Y-122207072D01*
X94909013Y-122151790D01*
X94903967Y-122072389D01*
X94900441Y-121975296D01*
X94898439Y-121866938D01*
X94897964Y-121753740D01*
X94899023Y-121642128D01*
X94901618Y-121538529D01*
X94905754Y-121449368D01*
X94911437Y-121381072D01*
X94918669Y-121340066D01*
X94923029Y-121331674D01*
X94947302Y-121323208D01*
X95002574Y-121309435D01*
X95083338Y-121291550D01*
X95184088Y-121270748D01*
X95299317Y-121248223D01*
X95362098Y-121236418D01*
X95481213Y-121214151D01*
X95587435Y-121193979D01*
X95675573Y-121176915D01*
X95740434Y-121163969D01*
X95776826Y-121156155D01*
X95782816Y-121154422D01*
X95792939Y-121134890D01*
X95814338Y-121087843D01*
X95844161Y-121020003D01*
X95879555Y-120938091D01*
X95917668Y-120848828D01*
X95955647Y-120758935D01*
X95990640Y-120675135D01*
X96019794Y-120604147D01*
X96040257Y-120552694D01*
X96049177Y-120527497D01*
X96049343Y-120526396D01*
X96039231Y-120506519D01*
X96010883Y-120460777D01*
X95967277Y-120393717D01*
X95911394Y-120309884D01*
X95846213Y-120213826D01*
X95808321Y-120158650D01*
X95739275Y-120057481D01*
X95677950Y-119965630D01*
X95627337Y-119887744D01*
X95590429Y-119828469D01*
X95570218Y-119792451D01*
X95567299Y-119784377D01*
X95579847Y-119765584D01*
X95614537Y-119725457D01*
X95666937Y-119668493D01*
X95732616Y-119599185D01*
X95807144Y-119522031D01*
X95886087Y-119441525D01*
X95965017Y-119362163D01*
X96039500Y-119288440D01*
X96105106Y-119224852D01*
X96157404Y-119175894D01*
X96191961Y-119146061D01*
X96203522Y-119138942D01*
X96222346Y-119148953D01*
X96267369Y-119177078D01*
X96334213Y-119220454D01*
X96418501Y-119276218D01*
X96515856Y-119341506D01*
X96589293Y-119391246D01*
X96960333Y-119643551D01*
X97578905Y-119388555D01*
X97662725Y-118943931D01*
X97746546Y-118499307D01*
X98671994Y-118499307D01*
X98755814Y-118943931D01*
G37*
D13*
X98755814Y-118943931D02*
X98839635Y-119388555D01*
X99148920Y-119516053D01*
X99458206Y-119643551D01*
X99829246Y-119391246D01*
X99933157Y-119320996D01*
X100027087Y-119258272D01*
X100106652Y-119205938D01*
X100167470Y-119166857D01*
X100205157Y-119143893D01*
X100215421Y-119138942D01*
X100233910Y-119151676D01*
X100273420Y-119186882D01*
X100329522Y-119240062D01*
X100397787Y-119306718D01*
X100473786Y-119382354D01*
X100553092Y-119462472D01*
X100631275Y-119542574D01*
X100703907Y-119618164D01*
X100766559Y-119684745D01*
X100814803Y-119737818D01*
X100844210Y-119772887D01*
X100851241Y-119784623D01*
X100841123Y-119806260D01*
X100812759Y-119853662D01*
X100769129Y-119922193D01*
X100713218Y-120007215D01*
X100648006Y-120104093D01*
X100610219Y-120159350D01*
X100541343Y-120260248D01*
X100480140Y-120351299D01*
X100429578Y-120427970D01*
X100392628Y-120485728D01*
X100372258Y-120520043D01*
X100369197Y-120527254D01*
X100376136Y-120547748D01*
X100395051Y-120595513D01*
X100423087Y-120663832D01*
X100457391Y-120745989D01*
X100495109Y-120835270D01*
X100533387Y-120924958D01*
X100569370Y-121008338D01*
X100600206Y-121078694D01*
X100623039Y-121129310D01*
X100635017Y-121153471D01*
X100635724Y-121154422D01*
X100654531Y-121159036D01*
X100704618Y-121169328D01*
X100780793Y-121184287D01*
X100877865Y-121202901D01*
X100990643Y-121224159D01*
X101056442Y-121236418D01*
X101176950Y-121259362D01*
X101285797Y-121281195D01*
X101377476Y-121300722D01*
X101446481Y-121316748D01*
X101487304Y-121328079D01*
X101495511Y-121331674D01*
X101503548Y-121356006D01*
X101510033Y-121410959D01*
X101514970Y-121490108D01*
X101518364Y-121587026D01*
X101520218Y-121695287D01*
X101520538Y-121808465D01*
X101519327Y-121920135D01*
X101516590Y-122023868D01*
X101512331Y-122113241D01*
X101506555Y-122181826D01*
X101499267Y-122223197D01*
X101494895Y-122231810D01*
X101468764Y-122242133D01*
X101413393Y-122256892D01*
X101336107Y-122274352D01*
X101244230Y-122292780D01*
X101212158Y-122298741D01*
X101057524Y-122327066D01*
X100935375Y-122349876D01*
X100841673Y-122368080D01*
X100772384Y-122382583D01*
X100723471Y-122394292D01*
X100690897Y-122404115D01*
X100670628Y-122412956D01*
X100658626Y-122421724D01*
X100656947Y-122423457D01*
X100640184Y-122451371D01*
X100614614Y-122505695D01*
X100582788Y-122579777D01*
X100547260Y-122666965D01*
X100510583Y-122760608D01*
X100475311Y-122854052D01*
X100443996Y-122940647D01*
X100419193Y-123013740D01*
X100403454Y-123066678D01*
X100399332Y-123092811D01*
X100399676Y-123093726D01*
X100413641Y-123115086D01*
X100445322Y-123162084D01*
X100491391Y-123229827D01*
X100548518Y-123313423D01*
X100613373Y-123407982D01*
X100631843Y-123434854D01*
X100697699Y-123532275D01*
X100755650Y-123621163D01*
X100802538Y-123696412D01*
X100835207Y-123752920D01*
X100850500Y-123785581D01*
X100851241Y-123789593D01*
X100838392Y-123810684D01*
X100802888Y-123852464D01*
X100749293Y-123910445D01*
X100682171Y-123980135D01*
X100606087Y-124057045D01*
X100525604Y-124136683D01*
X100445287Y-124214561D01*
X100369699Y-124286186D01*
X100303405Y-124347070D01*
X100250969Y-124392721D01*
X100216955Y-124418650D01*
X100207545Y-124422883D01*
X100185643Y-124412912D01*
X100140800Y-124386020D01*
X100080321Y-124346736D01*
X100033789Y-124315117D01*
X99949475Y-124257098D01*
X99849626Y-124188784D01*
X99749473Y-124120579D01*
X99695627Y-124084075D01*
X99513371Y-123960800D01*
X99360381Y-124043520D01*
X99290682Y-124079759D01*
X99231414Y-124107926D01*
X99191311Y-124123991D01*
X99181103Y-124126226D01*
X99168829Y-124109722D01*
X99144613Y-124063082D01*
X99110263Y-123990609D01*
X99067588Y-123896606D01*
X99018394Y-123785374D01*
X98964490Y-123661215D01*
X98907684Y-123528432D01*
X98849782Y-123391327D01*
X98792593Y-123254202D01*
X98737924Y-123121358D01*
X98687584Y-122997098D01*
X98643380Y-122885725D01*
X98607119Y-122791539D01*
X98580609Y-122718844D01*
X98565658Y-122671941D01*
X98563254Y-122655833D01*
X98582311Y-122635286D01*
X98624036Y-122601933D01*
X98679706Y-122562702D01*
X98684378Y-122559599D01*
X98828264Y-122444423D01*
X98944283Y-122310053D01*
X99031430Y-122160784D01*
X99088699Y-122000913D01*
X99115086Y-121834737D01*
X99109585Y-121666552D01*
X99071190Y-121500655D01*
X98998895Y-121341342D01*
X98977626Y-121306487D01*
X98866996Y-121165737D01*
X98736302Y-121052714D01*
X98590064Y-120968003D01*
X98432808Y-120912194D01*
X98269057Y-120885874D01*
X98103333Y-120889630D01*
X97940162Y-120924050D01*
X97784065Y-120989723D01*
X97639567Y-121087235D01*
X97594869Y-121126813D01*
X97481112Y-121250703D01*
X97398218Y-121381124D01*
X97341356Y-121527315D01*
X97309687Y-121672088D01*
X97301869Y-121834860D01*
X97327938Y-121998440D01*
X97385245Y-122157298D01*
X97471144Y-122305906D01*
X97582986Y-122438735D01*
X97718123Y-122550256D01*
X97735883Y-122562011D01*
X97792150Y-122600508D01*
X97834923Y-122633863D01*
X97855372Y-122655160D01*
X97855669Y-122655833D01*
X97851279Y-122678871D01*
X97833876Y-122731157D01*
X97805268Y-122808390D01*
X97767265Y-122906268D01*
X97721674Y-123020491D01*
X97670303Y-123146758D01*
X97614962Y-123280767D01*
X97557458Y-123418218D01*
X97499601Y-123554808D01*
X97443198Y-123686237D01*
X97390058Y-123808205D01*
X97341990Y-123916409D01*
X97300801Y-124006549D01*
X97268301Y-124074323D01*
X97246297Y-124115430D01*
X97237436Y-124126226D01*
X97210360Y-124117819D01*
X97159697Y-124095272D01*
X97094183Y-124062613D01*
X97058159Y-124043520D01*
X96905168Y-123960800D01*
X96722912Y-124084075D01*
X96629875Y-124147228D01*
X96528015Y-124216727D01*
X96432562Y-124282165D01*
X96384750Y-124315117D01*
X96317505Y-124360273D01*
X96260564Y-124396057D01*
X96221354Y-124417938D01*
X96208619Y-124422563D01*
X96190083Y-124410085D01*
X96149059Y-124375252D01*
X96089525Y-124321678D01*
X96015458Y-124252983D01*
X95930835Y-124172781D01*
X95877315Y-124121286D01*
X95783681Y-124029286D01*
X95702759Y-123946999D01*
X95637823Y-123877945D01*
X95592142Y-123825644D01*
X95568989Y-123793616D01*
X95566768Y-123787116D01*
X95577076Y-123762394D01*
X95605561Y-123712405D01*
X95649063Y-123642212D01*
X95704423Y-123556875D01*
X95768480Y-123461456D01*
X95786697Y-123434854D01*
X95853073Y-123338167D01*
X95912622Y-123251117D01*
X95962016Y-123178595D01*
X95997925Y-123125493D01*
X96017019Y-123096703D01*
X96018864Y-123093726D01*
X96016105Y-123070782D01*
X96001462Y-123020336D01*
X95977487Y-122949041D01*
X95946734Y-122863547D01*
X95911756Y-122770507D01*
X95875107Y-122676574D01*
X95839339Y-122588399D01*
X95807006Y-122512634D01*
X95780662Y-122455931D01*
X95762858Y-122424943D01*
X95761593Y-122423457D01*
X95750706Y-122414601D01*
X95732318Y-122405843D01*
X95702394Y-122396277D01*
X95656897Y-122384996D01*
X95591791Y-122371093D01*
X95503039Y-122353663D01*
X95386607Y-122331798D01*
X95238458Y-122304591D01*
X95206382Y-122298741D01*
X95111314Y-122280374D01*
X95028435Y-122262405D01*
X94965070Y-122246569D01*
X94928542Y-122234600D01*
X94923644Y-122231810D01*
X94915573Y-122207072D01*
X94909013Y-122151790D01*
X94903967Y-122072389D01*
X94900441Y-121975296D01*
X94898439Y-121866938D01*
X94897964Y-121753740D01*
X94899023Y-121642128D01*
X94901618Y-121538529D01*
X94905754Y-121449368D01*
X94911437Y-121381072D01*
X94918669Y-121340066D01*
X94923029Y-121331674D01*
X94947302Y-121323208D01*
X95002574Y-121309435D01*
X95083338Y-121291550D01*
X95184088Y-121270748D01*
X95299317Y-121248223D01*
X95362098Y-121236418D01*
X95481213Y-121214151D01*
X95587435Y-121193979D01*
X95675573Y-121176915D01*
X95740434Y-121163969D01*
X95776826Y-121156155D01*
X95782816Y-121154422D01*
X95792939Y-121134890D01*
X95814338Y-121087843D01*
X95844161Y-121020003D01*
X95879555Y-120938091D01*
X95917668Y-120848828D01*
X95955647Y-120758935D01*
X95990640Y-120675135D01*
X96019794Y-120604147D01*
X96040257Y-120552694D01*
X96049177Y-120527497D01*
X96049343Y-120526396D01*
X96039231Y-120506519D01*
X96010883Y-120460777D01*
X95967277Y-120393717D01*
X95911394Y-120309884D01*
X95846213Y-120213826D01*
X95808321Y-120158650D01*
X95739275Y-120057481D01*
X95677950Y-119965630D01*
X95627337Y-119887744D01*
X95590429Y-119828469D01*
X95570218Y-119792451D01*
X95567299Y-119784377D01*
X95579847Y-119765584D01*
X95614537Y-119725457D01*
X95666937Y-119668493D01*
X95732616Y-119599185D01*
X95807144Y-119522031D01*
X95886087Y-119441525D01*
X95965017Y-119362163D01*
X96039500Y-119288440D01*
X96105106Y-119224852D01*
X96157404Y-119175894D01*
X96191961Y-119146061D01*
X96203522Y-119138942D01*
X96222346Y-119148953D01*
X96267369Y-119177078D01*
X96334213Y-119220454D01*
X96418501Y-119276218D01*
X96515856Y-119341506D01*
X96589293Y-119391246D01*
X96960333Y-119643551D01*
X97578905Y-119388555D01*
X97662725Y-118943931D01*
X97746546Y-118499307D01*
X98671994Y-118499307D01*
X98755814Y-118943931D01*
D12*
X89765000Y-134702064D02*
X89765000Y-134247936D01*
X91235000Y-134702064D02*
X91235000Y-134247936D01*
G36*
X101960000Y-120495975D02*
G01*
X101534038Y-120264138D01*
X101557833Y-119292271D01*
X101581629Y-118320404D01*
X102384533Y-117879212D01*
X103222999Y-118335562D01*
X104076855Y-117864568D01*
X104078787Y-117398901D01*
X104080720Y-116933235D01*
X104505371Y-116708510D01*
X104930023Y-116483786D01*
X106196172Y-117174177D01*
X107462320Y-117864568D01*
X107464141Y-118376863D01*
X107465962Y-118889159D01*
X107080596Y-119076384D01*
X106869821Y-119194668D01*
X106749479Y-119293802D01*
X106737839Y-119332552D01*
X106835499Y-119406931D01*
X107030854Y-119512629D01*
X107123205Y-119556057D01*
X107465962Y-119710619D01*
X107465250Y-120692593D01*
X107464537Y-121674568D01*
X107038027Y-121900283D01*
X106611517Y-122125999D01*
X106255573Y-121922470D01*
X106034866Y-121803009D01*
X105875957Y-121729268D01*
X105836129Y-121717921D01*
X105800509Y-121793704D01*
X105777093Y-121989457D01*
X105771794Y-122161401D01*
X105770960Y-122605901D01*
X104988628Y-123029235D01*
X104651536Y-123206617D01*
X104361023Y-123350256D01*
X104154478Y-123442186D01*
X104079295Y-123466215D01*
X103956131Y-123432404D01*
X103723526Y-123330320D01*
X103418256Y-123177099D01*
X103170793Y-123042881D01*
X102389292Y-122605901D01*
X102386515Y-121039568D01*
X102978629Y-121039568D01*
X103504605Y-121039568D01*
X103443828Y-120256401D01*
X103422828Y-119923567D01*
X103416306Y-119672329D01*
X103424621Y-119536601D01*
X103436051Y-119523835D01*
X103487373Y-119623871D01*
X103573138Y-119840230D01*
X103675706Y-120128112D01*
X103686116Y-120158835D01*
X103825886Y-120522380D01*
X103949648Y-120720415D01*
X104066232Y-120754933D01*
X104184470Y-120627926D01*
X104313194Y-120341385D01*
X104327202Y-120303433D01*
X104469101Y-119922707D01*
X104563883Y-119701385D01*
X104618378Y-119638358D01*
X104639415Y-119732519D01*
X104633824Y-119982762D01*
X104617315Y-120256401D01*
X104565454Y-121039568D01*
X105095295Y-121039568D01*
X105095295Y-118753568D01*
X104813868Y-118753568D01*
X104671422Y-118760645D01*
X104574169Y-118804034D01*
X104497076Y-118916972D01*
X104415109Y-119132696D01*
X104331655Y-119393797D01*
X104230317Y-119699041D01*
X104141307Y-119935420D01*
X104080621Y-120061258D01*
X104071970Y-120070428D01*
X104019776Y-120013393D01*
X103931158Y-119829878D01*
X103822013Y-119554451D01*
X103777529Y-119430199D01*
X103660213Y-119101559D01*
X103572965Y-118901424D01*
X103491442Y-118797947D01*
X103391298Y-118759280D01*
X103260308Y-118753568D01*
X102978629Y-118753568D01*
X102978629Y-121039568D01*
X102386515Y-121039568D01*
X102385962Y-120727813D01*
X101960000Y-120495975D01*
G37*
X111390000Y-112525000D02*
X111390000Y-115065000D01*
X111390000Y-115065000D02*
X93610000Y-115065000D01*
X111390000Y-91570000D02*
X111390000Y-92205000D01*
X106310000Y-114430000D02*
X98690000Y-114430000D01*
X101230000Y-113795000D02*
X102500000Y-113795000D01*
X105040000Y-113795000D02*
X105040000Y-113160000D01*
X101230000Y-113160000D02*
X101230000Y-113795000D01*
X93610000Y-91570000D02*
X97420000Y-91570000D01*
X97420000Y-91570000D02*
X97420000Y-90300000D01*
X102500000Y-113795000D02*
X102500000Y-113160000D01*
X103770000Y-113795000D02*
X105040000Y-113795000D01*
X99960000Y-114430000D02*
X99960000Y-113160000D01*
X97420000Y-90300000D02*
X107580000Y-90300000D01*
X98690000Y-114430000D02*
X98690000Y-112525000D01*
X106310000Y-112525000D02*
X106310000Y-114430000D01*
X107580000Y-91570000D02*
X111390000Y-91570000D01*
X102500000Y-113160000D02*
X103770000Y-113160000D01*
X103770000Y-113160000D02*
X103770000Y-113795000D01*
X99960000Y-113160000D02*
X101230000Y-113160000D01*
X107580000Y-90300000D02*
X107580000Y-91570000D01*
X93610000Y-91570000D02*
X93610000Y-92205000D01*
X98690000Y-112525000D02*
X106310000Y-112525000D01*
X93610000Y-115065000D02*
X93610000Y-112525000D01*
X115235000Y-123247936D02*
X115235000Y-123702064D01*
X113765000Y-123247936D02*
X113765000Y-123702064D01*
D14*
X116372500Y-102531000D02*
X113896000Y-102531000D01*
X116372500Y-97455440D02*
X116372500Y-97994560D01*
X116372500Y-102531000D02*
X116372500Y-105350400D01*
X124627500Y-103440561D02*
X124627500Y-94509439D01*
X116372500Y-99955440D02*
X116372500Y-100494560D01*
X116372500Y-105350400D02*
X120451959Y-105350400D01*
X116372500Y-92599600D02*
X116372500Y-95494560D01*
X120451959Y-92599600D02*
X116372500Y-92599600D01*
X116372500Y-147531000D02*
X116372500Y-150350400D01*
X124627500Y-148440561D02*
X124627500Y-139509439D01*
X116372500Y-142455440D02*
X116372500Y-142994560D01*
X116372500Y-137599600D02*
X116372500Y-140494560D01*
X116372500Y-147531000D02*
X113896000Y-147531000D01*
X120451959Y-137599600D02*
X116372500Y-137599600D01*
X116372500Y-150350400D02*
X120451959Y-150350400D01*
X116372500Y-144955440D02*
X116372500Y-145494560D01*
D12*
X115235000Y-149702064D02*
X115235000Y-149247936D01*
X113765000Y-149702064D02*
X113765000Y-149247936D01*
D14*
X116372500Y-114955440D02*
X116372500Y-115494560D01*
X120451959Y-107599600D02*
X116372500Y-107599600D01*
X116372500Y-120350400D02*
X120451959Y-120350400D01*
X116372500Y-112455440D02*
X116372500Y-112994560D01*
X116372500Y-117531000D02*
X113896000Y-117531000D01*
X124627500Y-118440561D02*
X124627500Y-109509439D01*
X116372500Y-107599600D02*
X116372500Y-110494560D01*
X116372500Y-117531000D02*
X116372500Y-120350400D01*
D12*
X113765000Y-104614564D02*
X113765000Y-104160436D01*
X115235000Y-104614564D02*
X115235000Y-104160436D01*
X93960000Y-122475000D02*
X93960000Y-119615000D01*
X92040000Y-119615000D02*
X92040000Y-122475000D01*
X93960000Y-119615000D02*
X92040000Y-119615000D01*
X115235000Y-134702064D02*
X115235000Y-134247936D01*
X113765000Y-134702064D02*
X113765000Y-134247936D01*
X92265000Y-117247936D02*
X92265000Y-117702064D01*
X93735000Y-117247936D02*
X93735000Y-117702064D01*
X99270000Y-137275000D02*
X99270000Y-137245000D01*
X99270000Y-143705000D02*
X99270000Y-143675000D01*
X105730000Y-137245000D02*
X105730000Y-137275000D01*
X105730000Y-143705000D02*
X105730000Y-143675000D01*
X99270000Y-139175000D02*
X99270000Y-141775000D01*
X99270000Y-137245000D02*
X105730000Y-137245000D01*
X99270000Y-143705000D02*
X105730000Y-143705000D01*
X105730000Y-139175000D02*
X105730000Y-141775000D01*
G36*
X94971425Y-134731800D02*
G01*
X95245269Y-134900869D01*
X95504825Y-135079463D01*
X95738187Y-135255675D01*
X94699962Y-135255675D01*
X94699962Y-134588925D01*
X94971425Y-134731800D01*
G37*
G36*
X94032617Y-142021997D02*
G01*
X94230856Y-141866025D01*
X94434321Y-141794588D01*
X94692290Y-141751725D01*
X95004762Y-141737438D01*
X95314590Y-141751725D01*
X95570971Y-141794588D01*
X95773906Y-141866025D01*
X95972145Y-142021997D01*
X96038225Y-142232738D01*
X95972145Y-142446455D01*
X95773906Y-142601831D01*
X95570971Y-142671946D01*
X95314590Y-142714015D01*
X95004762Y-142728038D01*
X94692290Y-142714015D01*
X94434321Y-142671946D01*
X94230856Y-142601831D01*
X94032617Y-142446455D01*
X93968010Y-142237500D01*
X94738062Y-142237500D01*
X94830931Y-142425619D01*
X95052387Y-142499438D01*
X95276225Y-142425619D01*
X95371475Y-142237500D01*
X95276225Y-142042238D01*
X95052387Y-141970800D01*
X94830931Y-142042238D01*
X94738062Y-142237500D01*
X93968010Y-142237500D01*
X93966537Y-142232738D01*
X94032617Y-142021997D01*
G37*
G36*
X94032617Y-130115747D02*
G01*
X94230856Y-129959775D01*
X94434321Y-129888338D01*
X94692290Y-129845475D01*
X95004762Y-129831188D01*
X95314590Y-129845475D01*
X95570971Y-129888338D01*
X95773906Y-129959775D01*
X95972145Y-130115747D01*
X96038225Y-130326488D01*
X95972145Y-130540205D01*
X95773906Y-130695581D01*
X95570971Y-130765696D01*
X95314590Y-130807765D01*
X95004762Y-130821788D01*
X94692290Y-130807765D01*
X94434321Y-130765696D01*
X94230856Y-130695581D01*
X94032617Y-130540205D01*
X93968010Y-130331250D01*
X94738062Y-130331250D01*
X94830931Y-130519369D01*
X95052387Y-130593188D01*
X95276225Y-130519369D01*
X95371475Y-130331250D01*
X95276225Y-130135988D01*
X95052387Y-130064550D01*
X94830931Y-130135988D01*
X94738062Y-130331250D01*
X93968010Y-130331250D01*
X93966537Y-130326488D01*
X94032617Y-130115747D01*
G37*
G36*
X93102021Y-126581472D02*
G01*
X93212143Y-126218449D01*
X93390971Y-125883885D01*
X93631633Y-125590637D01*
X93924881Y-125349974D01*
X94259445Y-125171146D01*
X94622469Y-125061024D01*
X95000000Y-125023841D01*
X95377531Y-125061024D01*
X95740555Y-125171146D01*
X96075119Y-125349974D01*
X96368367Y-125590637D01*
X96609029Y-125883885D01*
X96787857Y-126218449D01*
X96897979Y-126581472D01*
X96935163Y-126959003D01*
X96935162Y-126959003D01*
X96935162Y-147990997D01*
X96897979Y-148368528D01*
X96787857Y-148731552D01*
X96609029Y-149066116D01*
X96368366Y-149359363D01*
X96075119Y-149600026D01*
X95740555Y-149778854D01*
X95377531Y-149888976D01*
X95000000Y-149926159D01*
X94622469Y-149888976D01*
X94259445Y-149778854D01*
X93924881Y-149600026D01*
X93631634Y-149359363D01*
X93390971Y-149066116D01*
X93212143Y-148731552D01*
X93102021Y-148368528D01*
X93064838Y-147990997D01*
X93064837Y-147990997D01*
X93064837Y-147990600D01*
X93523625Y-147990600D01*
X94009400Y-147990600D01*
X94009400Y-147404813D01*
X96471612Y-147404813D01*
X96471612Y-147004763D01*
X96285875Y-146799975D01*
X96114425Y-146547563D01*
X95966787Y-146280863D01*
X95857250Y-146033213D01*
X95371475Y-146223713D01*
X95488156Y-146514225D01*
X95657225Y-146819025D01*
X94009400Y-146819025D01*
X94009400Y-146199900D01*
X93523625Y-146199900D01*
X93523625Y-147990600D01*
X93064837Y-147990600D01*
X93064837Y-144618750D01*
X93471237Y-144618750D01*
X93580775Y-144914025D01*
X93899862Y-145042613D01*
X94209425Y-144914025D01*
X94318962Y-144618750D01*
X94290387Y-144456825D01*
X94209425Y-144321094D01*
X94078456Y-144225844D01*
X93899862Y-144190125D01*
X93716506Y-144225844D01*
X93583156Y-144321094D01*
X93499812Y-144456825D01*
X93471237Y-144618750D01*
X93064837Y-144618750D01*
X93064837Y-142232738D01*
X93461712Y-142232738D01*
X93504046Y-142539654D01*
X93631046Y-142793654D01*
X93842712Y-142994738D01*
X94058216Y-143109335D01*
X94323725Y-143191191D01*
X94639241Y-143240304D01*
X95004762Y-143256675D01*
X95368052Y-143240304D01*
X95681633Y-143191191D01*
X95945505Y-143109335D01*
X96159669Y-142994738D01*
X96370012Y-142793654D01*
X96496219Y-142539654D01*
X96538287Y-142232738D01*
X96495954Y-141930583D01*
X96368954Y-141678171D01*
X96157287Y-141475500D01*
X95942380Y-141358819D01*
X95678656Y-141275475D01*
X95366117Y-141225469D01*
X95004762Y-141208800D01*
X94639241Y-141225171D01*
X94323725Y-141274285D01*
X94058216Y-141356140D01*
X93842712Y-141470738D01*
X93631046Y-141671821D01*
X93504046Y-141925821D01*
X93461712Y-142232738D01*
X93064837Y-142232738D01*
X93064837Y-140075325D01*
X93523625Y-140075325D01*
X93822340Y-140221375D01*
X94153333Y-140373775D01*
X94516606Y-140532525D01*
X94807863Y-140651290D01*
X95112514Y-140764697D01*
X95430560Y-140872746D01*
X95762000Y-140975438D01*
X95762000Y-140380125D01*
X95575072Y-140330714D01*
X95376237Y-140268206D01*
X95170855Y-140197960D01*
X94964281Y-140125331D01*
X94760089Y-140050917D01*
X94561850Y-139975313D01*
X94204662Y-139837200D01*
X94561850Y-139706231D01*
X94760089Y-139637770D01*
X94964281Y-139570500D01*
X95170855Y-139505611D01*
X95376237Y-139444294D01*
X95575072Y-139388930D01*
X95762000Y-139341900D01*
X95762000Y-138727538D01*
X95430560Y-138828890D01*
X95112514Y-138932920D01*
X94807863Y-139039630D01*
X94516606Y-139149019D01*
X94153333Y-139295863D01*
X93822340Y-139441119D01*
X93523625Y-139584788D01*
X93523625Y-140075325D01*
X93064837Y-140075325D01*
X93064837Y-135841463D01*
X93523625Y-135841463D01*
X94218950Y-135841463D01*
X94218950Y-136160550D01*
X94699962Y-136160550D01*
X94699962Y-135841463D01*
X96471612Y-135841463D01*
X96471612Y-135317588D01*
X96268611Y-135127088D01*
X96040606Y-134936588D01*
X95798314Y-134750850D01*
X95552450Y-134574638D01*
X95307777Y-134410331D01*
X95069056Y-134260313D01*
X94845814Y-134130535D01*
X94647575Y-134026950D01*
X94218950Y-134026950D01*
X94218950Y-135255675D01*
X93523625Y-135255675D01*
X93523625Y-135841463D01*
X93064837Y-135841463D01*
X93064837Y-133717388D01*
X93523625Y-133717388D01*
X94009400Y-133717388D01*
X94009400Y-132450563D01*
X94166563Y-132500569D01*
X94335631Y-132622013D01*
X94497556Y-132774413D01*
X94633287Y-132917288D01*
X94871413Y-133160175D01*
X95128587Y-133374488D01*
X95402431Y-133526888D01*
X95695325Y-133584038D01*
X96064419Y-133507838D01*
X96328738Y-133303050D01*
X96485900Y-133007775D01*
X96538287Y-132660113D01*
X96514475Y-132411867D01*
X96443037Y-132162431D01*
X96321594Y-131927283D01*
X96147762Y-131721900D01*
X95738187Y-132012413D01*
X95962025Y-132312450D01*
X96028700Y-132602963D01*
X95931069Y-132879188D01*
X95652462Y-132988725D01*
X95400050Y-132900619D01*
X95142875Y-132676781D01*
X95006548Y-132536288D01*
X94864269Y-132386269D01*
X94713059Y-132236250D01*
X94549944Y-132095756D01*
X94373136Y-131971931D01*
X94180850Y-131871919D01*
X93971300Y-131805839D01*
X93742700Y-131783813D01*
X93642687Y-131781431D01*
X93523625Y-131793338D01*
X93523625Y-133717388D01*
X93064837Y-133717388D01*
X93064837Y-130326488D01*
X93461712Y-130326488D01*
X93504046Y-130633404D01*
X93631046Y-130887404D01*
X93842712Y-131088488D01*
X94058216Y-131203085D01*
X94323725Y-131284941D01*
X94639241Y-131334054D01*
X95004762Y-131350425D01*
X95368052Y-131334054D01*
X95681633Y-131284941D01*
X95945505Y-131203085D01*
X96159669Y-131088488D01*
X96370012Y-130887404D01*
X96496219Y-130633404D01*
X96538287Y-130326488D01*
X96495954Y-130024333D01*
X96368954Y-129771921D01*
X96157287Y-129569250D01*
X95942380Y-129452569D01*
X95678656Y-129369225D01*
X95366117Y-129319219D01*
X95004762Y-129302550D01*
X94639241Y-129318921D01*
X94323725Y-129368035D01*
X94058216Y-129449890D01*
X93842712Y-129564488D01*
X93631046Y-129765571D01*
X93504046Y-130019571D01*
X93461712Y-130326488D01*
X93064837Y-130326488D01*
X93064837Y-128954888D01*
X93523625Y-128954888D01*
X94009400Y-128954888D01*
X94009400Y-127688063D01*
X94166563Y-127738069D01*
X94335631Y-127859513D01*
X94497556Y-128011913D01*
X94633287Y-128154788D01*
X94871413Y-128397675D01*
X95128587Y-128611988D01*
X95402431Y-128764388D01*
X95695325Y-128821538D01*
X96064419Y-128745338D01*
X96328738Y-128540550D01*
X96485900Y-128245275D01*
X96538287Y-127897613D01*
X96514475Y-127649367D01*
X96443037Y-127399931D01*
X96321594Y-127164783D01*
X96147762Y-126959400D01*
X95738187Y-127249913D01*
X95962025Y-127549950D01*
X96028700Y-127840463D01*
X95931069Y-128116688D01*
X95652462Y-128226225D01*
X95400050Y-128138119D01*
X95142875Y-127914281D01*
X95006548Y-127773788D01*
X94864269Y-127623769D01*
X94713059Y-127473750D01*
X94549944Y-127333256D01*
X94373136Y-127209431D01*
X94180850Y-127109419D01*
X93971300Y-127043339D01*
X93742700Y-127021313D01*
X93642687Y-127018931D01*
X93523625Y-127030838D01*
X93523625Y-128954888D01*
X93064837Y-128954888D01*
X93064837Y-126959003D01*
X93102021Y-126581472D01*
G37*
D14*
X80372500Y-139509439D02*
X80372500Y-148440561D01*
X88627500Y-145494560D02*
X88627500Y-144955440D01*
X88627500Y-140419000D02*
X88627500Y-137599600D01*
X88627500Y-137599600D02*
X84548041Y-137599600D01*
X88627500Y-142994560D02*
X88627500Y-142455440D01*
X88627500Y-150350400D02*
X88627500Y-147455440D01*
X84548041Y-150350400D02*
X88627500Y-150350400D01*
X88627500Y-140419000D02*
X91104000Y-140419000D01*
D12*
X89765000Y-93247936D02*
X89765000Y-93702064D01*
X91235000Y-93247936D02*
X91235000Y-93702064D01*
D14*
X124627500Y-133440561D02*
X124627500Y-124509439D01*
X116372500Y-129955440D02*
X116372500Y-130494560D01*
X116372500Y-135350400D02*
X120451959Y-135350400D01*
X120451959Y-122599600D02*
X116372500Y-122599600D01*
X116372500Y-122599600D02*
X116372500Y-125494560D01*
X116372500Y-132531000D02*
X116372500Y-135350400D01*
X116372500Y-127455440D02*
X116372500Y-127994560D01*
X116372500Y-132531000D02*
X113896000Y-132531000D01*
X80372500Y-109509439D02*
X80372500Y-118440561D01*
X88627500Y-115494560D02*
X88627500Y-114955440D01*
X88627500Y-110419000D02*
X91104000Y-110419000D01*
X84548041Y-120350400D02*
X88627500Y-120350400D01*
X88627500Y-110419000D02*
X88627500Y-107599600D01*
X88627500Y-120350400D02*
X88627500Y-117455440D01*
X88627500Y-107599600D02*
X84548041Y-107599600D01*
X88627500Y-112994560D02*
X88627500Y-112455440D01*
D12*
X91235000Y-119702064D02*
X91235000Y-119247936D01*
X89765000Y-119702064D02*
X89765000Y-119247936D01*
X113765000Y-108247936D02*
X113765000Y-108702064D01*
X115235000Y-108247936D02*
X115235000Y-108702064D01*
X113765000Y-119702064D02*
X113765000Y-119247936D01*
X115235000Y-119702064D02*
X115235000Y-119247936D01*
X89765000Y-108247936D02*
X89765000Y-108702064D01*
X91235000Y-108247936D02*
X91235000Y-108702064D01*
X91235000Y-123247936D02*
X91235000Y-123702064D01*
X89765000Y-123247936D02*
X89765000Y-123702064D01*
X107520000Y-128629500D02*
X97360000Y-128629500D01*
X97360000Y-128629500D02*
X97360000Y-135233500D01*
X97360000Y-135233500D02*
X107520000Y-135233500D01*
X107520000Y-135233500D02*
X107520000Y-128629500D01*
D14*
X84548041Y-135350400D02*
X88627500Y-135350400D01*
X80372500Y-124509439D02*
X80372500Y-133440561D01*
X88627500Y-125419000D02*
X88627500Y-122599600D01*
X88627500Y-130494560D02*
X88627500Y-129955440D01*
X88627500Y-135350400D02*
X88627500Y-132455440D01*
X88627500Y-125419000D02*
X91104000Y-125419000D01*
X88627500Y-127994560D02*
X88627500Y-127455440D01*
X88627500Y-122599600D02*
X84548041Y-122599600D01*
G36*
X110204787Y-147114080D02*
G01*
X110397669Y-147126581D01*
X110723900Y-147193256D01*
X110945356Y-147333750D01*
X111026319Y-147576637D01*
X110945356Y-147819525D01*
X110726281Y-147960019D01*
X110400050Y-148026694D01*
X110205383Y-148039195D01*
X109997619Y-148043362D01*
X109790450Y-148039195D01*
X109597569Y-148026694D01*
X109271337Y-147960019D01*
X109049881Y-147817144D01*
X108968919Y-147576637D01*
X109049881Y-147333750D01*
X109268956Y-147193256D01*
X109595187Y-147126581D01*
X109789855Y-147114080D01*
X109997619Y-147109912D01*
X110204787Y-147114080D01*
G37*
G36*
X108099686Y-119932932D02*
G01*
X108209943Y-119569462D01*
X108388991Y-119234486D01*
X108629950Y-118940878D01*
X108923558Y-118699919D01*
X109258534Y-118520871D01*
X109622004Y-118410614D01*
X110000000Y-118373384D01*
X110377996Y-118410614D01*
X110741466Y-118520871D01*
X111076442Y-118699919D01*
X111370050Y-118940878D01*
X111611009Y-119234486D01*
X111790057Y-119569462D01*
X111900314Y-119932932D01*
X111937544Y-120310928D01*
X111937544Y-148639072D01*
X111900314Y-149017068D01*
X111790057Y-149380538D01*
X111611009Y-149715514D01*
X111370050Y-150009122D01*
X111076442Y-150250081D01*
X110741466Y-150429129D01*
X110377996Y-150539386D01*
X110000000Y-150576616D01*
X109622004Y-150539386D01*
X109258534Y-150429129D01*
X108923558Y-150250081D01*
X108629950Y-150009122D01*
X108388991Y-149715514D01*
X108209943Y-149380538D01*
X108099686Y-149017068D01*
X108062456Y-148639072D01*
X108062456Y-147581400D01*
X108459331Y-147581400D01*
X108502458Y-147892550D01*
X108631840Y-148152900D01*
X108847475Y-148362450D01*
X109064913Y-148483298D01*
X109329083Y-148569619D01*
X109639985Y-148621411D01*
X109997619Y-148638675D01*
X110355253Y-148621709D01*
X110666155Y-148570809D01*
X110930325Y-148485977D01*
X111147762Y-148367212D01*
X111363398Y-148158721D01*
X111492779Y-147895196D01*
X111535906Y-147576637D01*
X111492779Y-147267604D01*
X111363398Y-147007254D01*
X111147762Y-146795587D01*
X110930325Y-146672655D01*
X110666155Y-146584847D01*
X110355253Y-146532162D01*
X109997619Y-146514600D01*
X109639985Y-146531715D01*
X109329083Y-146583061D01*
X109064913Y-146668637D01*
X108847475Y-146788444D01*
X108631840Y-146998258D01*
X108502458Y-147262577D01*
X108459331Y-147581400D01*
X108062456Y-147581400D01*
X108062456Y-146333625D01*
X108521244Y-146333625D01*
X108833187Y-146197894D01*
X109161800Y-146033587D01*
X109476125Y-145857375D01*
X109749969Y-145685925D01*
X109884509Y-145894284D01*
X110069056Y-146033587D01*
X110290512Y-146112169D01*
X110535781Y-146138362D01*
X110767358Y-146118717D01*
X110966787Y-146059781D01*
X111269206Y-145833562D01*
X111372791Y-145671637D01*
X111445419Y-145481137D01*
X111488281Y-145264444D01*
X111502569Y-145023937D01*
X111497806Y-144857250D01*
X111485900Y-144657225D01*
X111462087Y-144450056D01*
X111426369Y-144261937D01*
X108521244Y-144261937D01*
X108521244Y-144847725D01*
X109607094Y-144847725D01*
X109607094Y-145152525D01*
X109337417Y-145313855D01*
X109071312Y-145464469D01*
X108801636Y-145600795D01*
X108521244Y-145719262D01*
X108521244Y-146333625D01*
X108062456Y-146333625D01*
X108062456Y-142466475D01*
X108521244Y-142466475D01*
X109516606Y-142466475D01*
X109516606Y-142676025D01*
X109542800Y-143028185D01*
X109621381Y-143322667D01*
X109752350Y-143559469D01*
X109942056Y-143732771D01*
X110196850Y-143836752D01*
X110516731Y-143871412D01*
X110833437Y-143837017D01*
X111085056Y-143733829D01*
X111271587Y-143561850D01*
X111399910Y-143327429D01*
X111476904Y-143036917D01*
X111502569Y-142690312D01*
X111497806Y-142504575D01*
X111485900Y-142290262D01*
X111464469Y-142073569D01*
X111431131Y-141880687D01*
X108521244Y-141880687D01*
X108521244Y-142466475D01*
X108062456Y-142466475D01*
X108062456Y-141085350D01*
X109454694Y-141085350D01*
X110030956Y-141085350D01*
X110030956Y-139780425D01*
X109454694Y-139780425D01*
X109454694Y-141085350D01*
X108062456Y-141085350D01*
X108062456Y-138037350D01*
X108459331Y-138037350D01*
X108478381Y-138300478D01*
X108535531Y-138518362D01*
X108728412Y-138835069D01*
X108992731Y-139011281D01*
X109283244Y-139066050D01*
X109497556Y-139038070D01*
X109692819Y-138954131D01*
X109871413Y-138802327D01*
X110035719Y-138570750D01*
X110185142Y-138756487D01*
X110366712Y-138885075D01*
X110566142Y-138960084D01*
X110769144Y-138985087D01*
X111085850Y-138922580D01*
X111331119Y-138735056D01*
X111488281Y-138441567D01*
X111540669Y-138061162D01*
X111520428Y-137815894D01*
X111459706Y-137613487D01*
X111254919Y-137322975D01*
X110976312Y-137163431D01*
X110678656Y-137113425D01*
X110335756Y-137189625D01*
X110178594Y-137299163D01*
X110030956Y-137475375D01*
X109867245Y-137281303D01*
X109680912Y-137146762D01*
X109476720Y-137068181D01*
X109259431Y-137041987D01*
X108923675Y-137113425D01*
X108671262Y-137315831D01*
X108514100Y-137630156D01*
X108473023Y-137823633D01*
X108459331Y-138037350D01*
X108062456Y-138037350D01*
X108062456Y-136584787D01*
X108521244Y-136584787D01*
X108859381Y-136616339D01*
X109216569Y-136644319D01*
X109586258Y-136668727D01*
X109961900Y-136689562D01*
X110341709Y-136707422D01*
X110723900Y-136722900D01*
X111101923Y-136737187D01*
X111469231Y-136751475D01*
X111469231Y-136208550D01*
X111182886Y-136209741D01*
X110885825Y-136213312D01*
X110585192Y-136218075D01*
X110288131Y-136222837D01*
X109995833Y-136227600D01*
X109709487Y-136232362D01*
X109435048Y-136235934D01*
X109178469Y-136237125D01*
X109559469Y-136129969D01*
X109907131Y-136029956D01*
X110202406Y-135946612D01*
X110426244Y-135889462D01*
X110426244Y-135460837D01*
X110192881Y-135394162D01*
X109869031Y-135301294D01*
X109511844Y-135196519D01*
X109178469Y-135098887D01*
X109435048Y-135100078D01*
X109709487Y-135103650D01*
X109996428Y-135108412D01*
X110290512Y-135113175D01*
X110588764Y-135117937D01*
X110888206Y-135122700D01*
X111183481Y-135127462D01*
X111469231Y-135132225D01*
X111469231Y-134589300D01*
X111105495Y-134600016D01*
X110728662Y-134613112D01*
X110346472Y-134629186D01*
X109966662Y-134648831D01*
X109590425Y-134672048D01*
X109218950Y-134698837D01*
X108859977Y-134729794D01*
X108521244Y-134765512D01*
X108521244Y-135251287D01*
X108834378Y-135351300D01*
X109173706Y-135460837D01*
X109513034Y-135572756D01*
X109826169Y-135679912D01*
X109504105Y-135784687D01*
X109166562Y-135889462D01*
X108832592Y-135994237D01*
X108521244Y-136099012D01*
X108521244Y-136584787D01*
X108062456Y-136584787D01*
X108062456Y-134284500D01*
X108521244Y-134284500D01*
X109007019Y-134284500D01*
X109007019Y-133698712D01*
X111469231Y-133698712D01*
X111469231Y-133298662D01*
X111283494Y-133093875D01*
X111112044Y-132841462D01*
X110964406Y-132574762D01*
X110854869Y-132327112D01*
X110369094Y-132517612D01*
X110485775Y-132808125D01*
X110654844Y-133112925D01*
X109007019Y-133112925D01*
X109007019Y-132493800D01*
X108521244Y-132493800D01*
X108521244Y-134284500D01*
X108062456Y-134284500D01*
X108062456Y-131560350D01*
X109454694Y-131560350D01*
X110030956Y-131560350D01*
X110030956Y-130255425D01*
X109454694Y-130255425D01*
X109454694Y-131560350D01*
X108062456Y-131560350D01*
X108062456Y-128178975D01*
X108521244Y-128178975D01*
X109516606Y-128178975D01*
X109516606Y-128388525D01*
X109542800Y-128740685D01*
X109621381Y-129035167D01*
X109752350Y-129271969D01*
X109942056Y-129445271D01*
X110196850Y-129549252D01*
X110516731Y-129583912D01*
X110833437Y-129549517D01*
X111085056Y-129446329D01*
X111271587Y-129274350D01*
X111399910Y-129039929D01*
X111476904Y-128749417D01*
X111502569Y-128402812D01*
X111497806Y-128217075D01*
X111485900Y-128002762D01*
X111464469Y-127786069D01*
X111431131Y-127593187D01*
X108521244Y-127593187D01*
X108521244Y-128178975D01*
X108062456Y-128178975D01*
X108062456Y-127226475D01*
X108521244Y-127226475D01*
X108898077Y-127215759D01*
X109266575Y-127202662D01*
X109629716Y-127186589D01*
X109990475Y-127166944D01*
X110351830Y-127143131D01*
X110716756Y-127114556D01*
X111088231Y-127083005D01*
X111469231Y-127050262D01*
X111469231Y-126564487D01*
X111216819Y-126478762D01*
X110890587Y-126373987D01*
X110528637Y-126254925D01*
X110164306Y-126135862D01*
X110507206Y-126026325D01*
X110873919Y-125912025D01*
X111212056Y-125804869D01*
X111469231Y-125721525D01*
X111469231Y-125235750D01*
X111146572Y-125204198D01*
X110797719Y-125176219D01*
X110429816Y-125151811D01*
X110050006Y-125130975D01*
X109663053Y-125112520D01*
X109273719Y-125095256D01*
X108890337Y-125079183D01*
X108521244Y-125064300D01*
X108521244Y-125602462D01*
X110812006Y-125578650D01*
X109564231Y-125926312D01*
X109564231Y-126354937D01*
X110812006Y-126716887D01*
X108521244Y-126688312D01*
X108521244Y-127226475D01*
X108062456Y-127226475D01*
X108062456Y-124764262D01*
X108521244Y-124764262D01*
X109007019Y-124764262D01*
X109007019Y-123459337D01*
X109835694Y-123459337D01*
X109835694Y-124502325D01*
X110321469Y-124502325D01*
X110321469Y-123459337D01*
X110983456Y-123459337D01*
X110983456Y-124659487D01*
X111469231Y-124659487D01*
X111469231Y-122873550D01*
X108521244Y-122873550D01*
X108521244Y-124764262D01*
X108062456Y-124764262D01*
X108062456Y-121678162D01*
X108521244Y-121678162D01*
X110983456Y-121678162D01*
X110983456Y-122454450D01*
X111469231Y-122454450D01*
X111469231Y-120311325D01*
X110983456Y-120311325D01*
X110983456Y-121087612D01*
X108521244Y-121087612D01*
X108521244Y-121678162D01*
X108062456Y-121678162D01*
X108062456Y-120310928D01*
X108099686Y-119932932D01*
G37*
G36*
X109590425Y-137661112D02*
G01*
X109835694Y-137865900D01*
X109709487Y-138161175D01*
X109590425Y-138363581D01*
X109459456Y-138477881D01*
X109292769Y-138513600D01*
X109047500Y-138387394D01*
X108945106Y-138046875D01*
X109042737Y-137725406D01*
X109330869Y-137589675D01*
X109590425Y-137661112D01*
G37*
G36*
X110990600Y-128324231D02*
G01*
X110992981Y-128469487D01*
X110966192Y-128679633D01*
X110885825Y-128843344D01*
X110741164Y-128948714D01*
X110521494Y-128983837D01*
X110289917Y-128948119D01*
X110138112Y-128840962D01*
X110054173Y-128663559D01*
X110026194Y-128417100D01*
X110026194Y-128178975D01*
X110978694Y-128178975D01*
X110990600Y-128324231D01*
G37*
G36*
X110990600Y-142611731D02*
G01*
X110992981Y-142756987D01*
X110966192Y-142967133D01*
X110885825Y-143130844D01*
X110741164Y-143236214D01*
X110521494Y-143271337D01*
X110289917Y-143235619D01*
X110138112Y-143128462D01*
X110054173Y-142951059D01*
X110026194Y-142704600D01*
X110026194Y-142466475D01*
X110978694Y-142466475D01*
X110990600Y-142611731D01*
G37*
G36*
X110969169Y-137782556D02*
G01*
X111054894Y-138051637D01*
X110971550Y-138320719D01*
X110721519Y-138432637D01*
X110466725Y-138370725D01*
X110226219Y-138161175D01*
X110338137Y-137926622D01*
X110445294Y-137775412D01*
X110716756Y-137665875D01*
X110969169Y-137782556D01*
G37*
G36*
X110990600Y-144942975D02*
G01*
X110992981Y-145023937D01*
X110965597Y-145234678D01*
X110883444Y-145400175D01*
X110742950Y-145507331D01*
X110540544Y-145543050D01*
X110209550Y-145409700D01*
X110122039Y-145234678D01*
X110092869Y-144976312D01*
X110092869Y-144847725D01*
X110978694Y-144847725D01*
X110990600Y-144942975D01*
G37*
D12*
X91235000Y-149702064D02*
X91235000Y-149247936D01*
X89765000Y-149702064D02*
X89765000Y-149247936D01*
D14*
X80372500Y-94509439D02*
X80372500Y-103440561D01*
X84548041Y-105350400D02*
X88627500Y-105350400D01*
X88627500Y-97994560D02*
X88627500Y-97455440D01*
X88627500Y-105350400D02*
X88627500Y-102455440D01*
X88627500Y-95419000D02*
X88627500Y-92599600D01*
X88627500Y-92599600D02*
X84548041Y-92599600D01*
X88627500Y-95419000D02*
X91104000Y-95419000D01*
X88627500Y-100494560D02*
X88627500Y-99955440D01*
D12*
X89765000Y-138247936D02*
X89765000Y-138702064D01*
X91235000Y-138247936D02*
X91235000Y-138702064D01*
X113765000Y-93247936D02*
X113765000Y-93702064D01*
X115235000Y-93247936D02*
X115235000Y-93702064D01*
X115235000Y-138247936D02*
X115235000Y-138702064D01*
X113765000Y-138247936D02*
X113765000Y-138702064D01*
%LPC*%
G36*
G01*
X103375000Y-126950000D02*
X103375000Y-126000000D01*
G75*
G02*
X103625000Y-125750000I250000J0D01*
G01*
X104300000Y-125750000D01*
G75*
G02*
X104550000Y-126000000I0J-250000D01*
G01*
X104550000Y-126950000D01*
G75*
G02*
X104300000Y-127200000I-250000J0D01*
G01*
X103625000Y-127200000D01*
G75*
G02*
X103375000Y-126950000I0J250000D01*
G01*
G37*
G36*
G01*
X105450000Y-126950000D02*
X105450000Y-126000000D01*
G75*
G02*
X105700000Y-125750000I250000J0D01*
G01*
X106375000Y-125750000D01*
G75*
G02*
X106625000Y-126000000I0J-250000D01*
G01*
X106625000Y-126950000D01*
G75*
G02*
X106375000Y-127200000I-250000J0D01*
G01*
X105700000Y-127200000D01*
G75*
G02*
X105450000Y-126950000I0J250000D01*
G01*
G37*
G36*
G01*
X90950000Y-105900000D02*
X90050000Y-105900000D01*
G75*
G02*
X89800000Y-105650000I0J250000D01*
G01*
X89800000Y-105125000D01*
G75*
G02*
X90050000Y-104875000I250000J0D01*
G01*
X90950000Y-104875000D01*
G75*
G02*
X91200000Y-105125000I0J-250000D01*
G01*
X91200000Y-105650000D01*
G75*
G02*
X90950000Y-105900000I-250000J0D01*
G01*
G37*
G36*
G01*
X90950000Y-104075000D02*
X90050000Y-104075000D01*
G75*
G02*
X89800000Y-103825000I0J250000D01*
G01*
X89800000Y-103300000D01*
G75*
G02*
X90050000Y-103050000I250000J0D01*
G01*
X90950000Y-103050000D01*
G75*
G02*
X91200000Y-103300000I0J-250000D01*
G01*
X91200000Y-103825000D01*
G75*
G02*
X90950000Y-104075000I-250000J0D01*
G01*
G37*
G36*
G01*
X90950000Y-135900000D02*
X90050000Y-135900000D01*
G75*
G02*
X89800000Y-135650000I0J250000D01*
G01*
X89800000Y-135125000D01*
G75*
G02*
X90050000Y-134875000I250000J0D01*
G01*
X90950000Y-134875000D01*
G75*
G02*
X91200000Y-135125000I0J-250000D01*
G01*
X91200000Y-135650000D01*
G75*
G02*
X90950000Y-135900000I-250000J0D01*
G01*
G37*
G36*
G01*
X90950000Y-134075000D02*
X90050000Y-134075000D01*
G75*
G02*
X89800000Y-133825000I0J250000D01*
G01*
X89800000Y-133300000D01*
G75*
G02*
X90050000Y-133050000I250000J0D01*
G01*
X90950000Y-133050000D01*
G75*
G02*
X91200000Y-133300000I0J-250000D01*
G01*
X91200000Y-133825000D01*
G75*
G02*
X90950000Y-134075000I-250000J0D01*
G01*
G37*
G36*
G01*
X92495000Y-93975000D02*
X92495000Y-92975000D01*
G75*
G02*
X92995000Y-92475000I500000J0D01*
G01*
X95495000Y-92475000D01*
G75*
G02*
X95995000Y-92975000I0J-500000D01*
G01*
X95995000Y-93975000D01*
G75*
G02*
X95495000Y-94475000I-500000J0D01*
G01*
X92995000Y-94475000D01*
G75*
G02*
X92495000Y-93975000I0J500000D01*
G01*
G37*
G36*
G01*
X92495000Y-96515000D02*
X92495000Y-95515000D01*
G75*
G02*
X92995000Y-95015000I500000J0D01*
G01*
X95495000Y-95015000D01*
G75*
G02*
X95995000Y-95515000I0J-500000D01*
G01*
X95995000Y-96515000D01*
G75*
G02*
X95495000Y-97015000I-500000J0D01*
G01*
X92995000Y-97015000D01*
G75*
G02*
X92495000Y-96515000I0J500000D01*
G01*
G37*
G36*
G01*
X92495000Y-99055000D02*
X92495000Y-98055000D01*
G75*
G02*
X92995000Y-97555000I500000J0D01*
G01*
X95495000Y-97555000D01*
G75*
G02*
X95995000Y-98055000I0J-500000D01*
G01*
X95995000Y-99055000D01*
G75*
G02*
X95495000Y-99555000I-500000J0D01*
G01*
X92995000Y-99555000D01*
G75*
G02*
X92495000Y-99055000I0J500000D01*
G01*
G37*
G36*
G01*
X92495000Y-101595000D02*
X92495000Y-100595000D01*
G75*
G02*
X92995000Y-100095000I500000J0D01*
G01*
X95495000Y-100095000D01*
G75*
G02*
X95995000Y-100595000I0J-500000D01*
G01*
X95995000Y-101595000D01*
G75*
G02*
X95495000Y-102095000I-500000J0D01*
G01*
X92995000Y-102095000D01*
G75*
G02*
X92495000Y-101595000I0J500000D01*
G01*
G37*
G36*
G01*
X92495000Y-104135000D02*
X92495000Y-103135000D01*
G75*
G02*
X92995000Y-102635000I500000J0D01*
G01*
X95495000Y-102635000D01*
G75*
G02*
X95995000Y-103135000I0J-500000D01*
G01*
X95995000Y-104135000D01*
G75*
G02*
X95495000Y-104635000I-500000J0D01*
G01*
X92995000Y-104635000D01*
G75*
G02*
X92495000Y-104135000I0J500000D01*
G01*
G37*
G36*
G01*
X92495000Y-106675000D02*
X92495000Y-105675000D01*
G75*
G02*
X92995000Y-105175000I500000J0D01*
G01*
X95495000Y-105175000D01*
G75*
G02*
X95995000Y-105675000I0J-500000D01*
G01*
X95995000Y-106675000D01*
G75*
G02*
X95495000Y-107175000I-500000J0D01*
G01*
X92995000Y-107175000D01*
G75*
G02*
X92495000Y-106675000I0J500000D01*
G01*
G37*
G36*
G01*
X92495000Y-109215000D02*
X92495000Y-108215000D01*
G75*
G02*
X92995000Y-107715000I500000J0D01*
G01*
X95495000Y-107715000D01*
G75*
G02*
X95995000Y-108215000I0J-500000D01*
G01*
X95995000Y-109215000D01*
G75*
G02*
X95495000Y-109715000I-500000J0D01*
G01*
X92995000Y-109715000D01*
G75*
G02*
X92495000Y-109215000I0J500000D01*
G01*
G37*
G36*
G01*
X92495000Y-111755000D02*
X92495000Y-110755000D01*
G75*
G02*
X92995000Y-110255000I500000J0D01*
G01*
X95495000Y-110255000D01*
G75*
G02*
X95995000Y-110755000I0J-500000D01*
G01*
X95995000Y-111755000D01*
G75*
G02*
X95495000Y-112255000I-500000J0D01*
G01*
X92995000Y-112255000D01*
G75*
G02*
X92495000Y-111755000I0J500000D01*
G01*
G37*
G36*
G01*
X109005000Y-111755000D02*
X109005000Y-110755000D01*
G75*
G02*
X109505000Y-110255000I500000J0D01*
G01*
X112005000Y-110255000D01*
G75*
G02*
X112505000Y-110755000I0J-500000D01*
G01*
X112505000Y-111755000D01*
G75*
G02*
X112005000Y-112255000I-500000J0D01*
G01*
X109505000Y-112255000D01*
G75*
G02*
X109005000Y-111755000I0J500000D01*
G01*
G37*
G36*
G01*
X109005000Y-109215000D02*
X109005000Y-108215000D01*
G75*
G02*
X109505000Y-107715000I500000J0D01*
G01*
X112005000Y-107715000D01*
G75*
G02*
X112505000Y-108215000I0J-500000D01*
G01*
X112505000Y-109215000D01*
G75*
G02*
X112005000Y-109715000I-500000J0D01*
G01*
X109505000Y-109715000D01*
G75*
G02*
X109005000Y-109215000I0J500000D01*
G01*
G37*
G36*
G01*
X109005000Y-106675000D02*
X109005000Y-105675000D01*
G75*
G02*
X109505000Y-105175000I500000J0D01*
G01*
X112005000Y-105175000D01*
G75*
G02*
X112505000Y-105675000I0J-500000D01*
G01*
X112505000Y-106675000D01*
G75*
G02*
X112005000Y-107175000I-500000J0D01*
G01*
X109505000Y-107175000D01*
G75*
G02*
X109005000Y-106675000I0J500000D01*
G01*
G37*
G36*
G01*
X109005000Y-104135000D02*
X109005000Y-103135000D01*
G75*
G02*
X109505000Y-102635000I500000J0D01*
G01*
X112005000Y-102635000D01*
G75*
G02*
X112505000Y-103135000I0J-500000D01*
G01*
X112505000Y-104135000D01*
G75*
G02*
X112005000Y-104635000I-500000J0D01*
G01*
X109505000Y-104635000D01*
G75*
G02*
X109005000Y-104135000I0J500000D01*
G01*
G37*
G36*
G01*
X109005000Y-101595000D02*
X109005000Y-100595000D01*
G75*
G02*
X109505000Y-100095000I500000J0D01*
G01*
X112005000Y-100095000D01*
G75*
G02*
X112505000Y-100595000I0J-500000D01*
G01*
X112505000Y-101595000D01*
G75*
G02*
X112005000Y-102095000I-500000J0D01*
G01*
X109505000Y-102095000D01*
G75*
G02*
X109005000Y-101595000I0J500000D01*
G01*
G37*
G36*
G01*
X109005000Y-99055000D02*
X109005000Y-98055000D01*
G75*
G02*
X109505000Y-97555000I500000J0D01*
G01*
X112005000Y-97555000D01*
G75*
G02*
X112505000Y-98055000I0J-500000D01*
G01*
X112505000Y-99055000D01*
G75*
G02*
X112005000Y-99555000I-500000J0D01*
G01*
X109505000Y-99555000D01*
G75*
G02*
X109005000Y-99055000I0J500000D01*
G01*
G37*
G36*
G01*
X109005000Y-96515000D02*
X109005000Y-95515000D01*
G75*
G02*
X109505000Y-95015000I500000J0D01*
G01*
X112005000Y-95015000D01*
G75*
G02*
X112505000Y-95515000I0J-500000D01*
G01*
X112505000Y-96515000D01*
G75*
G02*
X112005000Y-97015000I-500000J0D01*
G01*
X109505000Y-97015000D01*
G75*
G02*
X109005000Y-96515000I0J500000D01*
G01*
G37*
G36*
G01*
X109005000Y-93975000D02*
X109005000Y-92975000D01*
G75*
G02*
X109505000Y-92475000I500000J0D01*
G01*
X112005000Y-92475000D01*
G75*
G02*
X112505000Y-92975000I0J-500000D01*
G01*
X112505000Y-93975000D01*
G75*
G02*
X112005000Y-94475000I-500000J0D01*
G01*
X109505000Y-94475000D01*
G75*
G02*
X109005000Y-93975000I0J500000D01*
G01*
G37*
G36*
G01*
X114050000Y-122050000D02*
X114950000Y-122050000D01*
G75*
G02*
X115200000Y-122300000I0J-250000D01*
G01*
X115200000Y-122825000D01*
G75*
G02*
X114950000Y-123075000I-250000J0D01*
G01*
X114050000Y-123075000D01*
G75*
G02*
X113800000Y-122825000I0J250000D01*
G01*
X113800000Y-122300000D01*
G75*
G02*
X114050000Y-122050000I250000J0D01*
G01*
G37*
G36*
G01*
X114050000Y-123875000D02*
X114950000Y-123875000D01*
G75*
G02*
X115200000Y-124125000I0J-250000D01*
G01*
X115200000Y-124650000D01*
G75*
G02*
X114950000Y-124900000I-250000J0D01*
G01*
X114050000Y-124900000D01*
G75*
G02*
X113800000Y-124650000I0J250000D01*
G01*
X113800000Y-124125000D01*
G75*
G02*
X114050000Y-123875000I250000J0D01*
G01*
G37*
D15*
X115950499Y-101475000D03*
X115950499Y-98975000D03*
X115950499Y-96475000D03*
D16*
X122740499Y-104675001D03*
X122740499Y-93274999D03*
D15*
X115950499Y-146475000D03*
X115950499Y-143975000D03*
X115950499Y-141475000D03*
D16*
X122740499Y-138274999D03*
X122740499Y-149675001D03*
G36*
G01*
X114950000Y-150900000D02*
X114050000Y-150900000D01*
G75*
G02*
X113800000Y-150650000I0J250000D01*
G01*
X113800000Y-150125000D01*
G75*
G02*
X114050000Y-149875000I250000J0D01*
G01*
X114950000Y-149875000D01*
G75*
G02*
X115200000Y-150125000I0J-250000D01*
G01*
X115200000Y-150650000D01*
G75*
G02*
X114950000Y-150900000I-250000J0D01*
G01*
G37*
G36*
G01*
X114950000Y-149075000D02*
X114050000Y-149075000D01*
G75*
G02*
X113800000Y-148825000I0J250000D01*
G01*
X113800000Y-148300000D01*
G75*
G02*
X114050000Y-148050000I250000J0D01*
G01*
X114950000Y-148050000D01*
G75*
G02*
X115200000Y-148300000I0J-250000D01*
G01*
X115200000Y-148825000D01*
G75*
G02*
X114950000Y-149075000I-250000J0D01*
G01*
G37*
D15*
X115950499Y-116475000D03*
X115950499Y-113975000D03*
X115950499Y-111475000D03*
D16*
X122740499Y-108274999D03*
X122740499Y-119675001D03*
G36*
G01*
X114950000Y-105812500D02*
X114050000Y-105812500D01*
G75*
G02*
X113800000Y-105562500I0J250000D01*
G01*
X113800000Y-105037500D01*
G75*
G02*
X114050000Y-104787500I250000J0D01*
G01*
X114950000Y-104787500D01*
G75*
G02*
X115200000Y-105037500I0J-250000D01*
G01*
X115200000Y-105562500D01*
G75*
G02*
X114950000Y-105812500I-250000J0D01*
G01*
G37*
G36*
G01*
X114950000Y-103987500D02*
X114050000Y-103987500D01*
G75*
G02*
X113800000Y-103737500I0J250000D01*
G01*
X113800000Y-103212500D01*
G75*
G02*
X114050000Y-102962500I250000J0D01*
G01*
X114950000Y-102962500D01*
G75*
G02*
X115200000Y-103212500I0J-250000D01*
G01*
X115200000Y-103737500D01*
G75*
G02*
X114950000Y-103987500I-250000J0D01*
G01*
G37*
G36*
G01*
X92550000Y-119875000D02*
X93450000Y-119875000D01*
G75*
G02*
X93700000Y-120125000I0J-250000D01*
G01*
X93700000Y-120775000D01*
G75*
G02*
X93450000Y-121025000I-250000J0D01*
G01*
X92550000Y-121025000D01*
G75*
G02*
X92300000Y-120775000I0J250000D01*
G01*
X92300000Y-120125000D01*
G75*
G02*
X92550000Y-119875000I250000J0D01*
G01*
G37*
G36*
G01*
X92550000Y-121925000D02*
X93450000Y-121925000D01*
G75*
G02*
X93700000Y-122175000I0J-250000D01*
G01*
X93700000Y-122825000D01*
G75*
G02*
X93450000Y-123075000I-250000J0D01*
G01*
X92550000Y-123075000D01*
G75*
G02*
X92300000Y-122825000I0J250000D01*
G01*
X92300000Y-122175000D01*
G75*
G02*
X92550000Y-121925000I250000J0D01*
G01*
G37*
G36*
G01*
X114950000Y-135900000D02*
X114050000Y-135900000D01*
G75*
G02*
X113800000Y-135650000I0J250000D01*
G01*
X113800000Y-135125000D01*
G75*
G02*
X114050000Y-134875000I250000J0D01*
G01*
X114950000Y-134875000D01*
G75*
G02*
X115200000Y-135125000I0J-250000D01*
G01*
X115200000Y-135650000D01*
G75*
G02*
X114950000Y-135900000I-250000J0D01*
G01*
G37*
G36*
G01*
X114950000Y-134075000D02*
X114050000Y-134075000D01*
G75*
G02*
X113800000Y-133825000I0J250000D01*
G01*
X113800000Y-133300000D01*
G75*
G02*
X114050000Y-133050000I250000J0D01*
G01*
X114950000Y-133050000D01*
G75*
G02*
X115200000Y-133300000I0J-250000D01*
G01*
X115200000Y-133825000D01*
G75*
G02*
X114950000Y-134075000I-250000J0D01*
G01*
G37*
G36*
G01*
X92550000Y-116050000D02*
X93450000Y-116050000D01*
G75*
G02*
X93700000Y-116300000I0J-250000D01*
G01*
X93700000Y-116825000D01*
G75*
G02*
X93450000Y-117075000I-250000J0D01*
G01*
X92550000Y-117075000D01*
G75*
G02*
X92300000Y-116825000I0J250000D01*
G01*
X92300000Y-116300000D01*
G75*
G02*
X92550000Y-116050000I250000J0D01*
G01*
G37*
G36*
G01*
X92550000Y-117875000D02*
X93450000Y-117875000D01*
G75*
G02*
X93700000Y-118125000I0J-250000D01*
G01*
X93700000Y-118650000D01*
G75*
G02*
X93450000Y-118900000I-250000J0D01*
G01*
X92550000Y-118900000D01*
G75*
G02*
X92300000Y-118650000I0J250000D01*
G01*
X92300000Y-118125000D01*
G75*
G02*
X92550000Y-117875000I250000J0D01*
G01*
G37*
D17*
X106480000Y-138225000D03*
X98520000Y-138225000D03*
X106480000Y-142725000D03*
X98520000Y-142725000D03*
D15*
X89049501Y-141475000D03*
X89049501Y-143975000D03*
X89049501Y-146475000D03*
D16*
X82259501Y-138274999D03*
X82259501Y-149675001D03*
G36*
G01*
X90050000Y-92050000D02*
X90950000Y-92050000D01*
G75*
G02*
X91200000Y-92300000I0J-250000D01*
G01*
X91200000Y-92825000D01*
G75*
G02*
X90950000Y-93075000I-250000J0D01*
G01*
X90050000Y-93075000D01*
G75*
G02*
X89800000Y-92825000I0J250000D01*
G01*
X89800000Y-92300000D01*
G75*
G02*
X90050000Y-92050000I250000J0D01*
G01*
G37*
G36*
G01*
X90050000Y-93875000D02*
X90950000Y-93875000D01*
G75*
G02*
X91200000Y-94125000I0J-250000D01*
G01*
X91200000Y-94650000D01*
G75*
G02*
X90950000Y-94900000I-250000J0D01*
G01*
X90050000Y-94900000D01*
G75*
G02*
X89800000Y-94650000I0J250000D01*
G01*
X89800000Y-94125000D01*
G75*
G02*
X90050000Y-93875000I250000J0D01*
G01*
G37*
D18*
X102500000Y-147475000D03*
D15*
X115950499Y-131475000D03*
X115950499Y-128975000D03*
X115950499Y-126475000D03*
D16*
X122740499Y-123274999D03*
X122740499Y-134675001D03*
D15*
X89049501Y-111475000D03*
X89049501Y-113975000D03*
X89049501Y-116475000D03*
D16*
X82259501Y-108274999D03*
X82259501Y-119675001D03*
G36*
G01*
X90950000Y-120900000D02*
X90050000Y-120900000D01*
G75*
G02*
X89800000Y-120650000I0J250000D01*
G01*
X89800000Y-120125000D01*
G75*
G02*
X90050000Y-119875000I250000J0D01*
G01*
X90950000Y-119875000D01*
G75*
G02*
X91200000Y-120125000I0J-250000D01*
G01*
X91200000Y-120650000D01*
G75*
G02*
X90950000Y-120900000I-250000J0D01*
G01*
G37*
G36*
G01*
X90950000Y-119075000D02*
X90050000Y-119075000D01*
G75*
G02*
X89800000Y-118825000I0J250000D01*
G01*
X89800000Y-118300000D01*
G75*
G02*
X90050000Y-118050000I250000J0D01*
G01*
X90950000Y-118050000D01*
G75*
G02*
X91200000Y-118300000I0J-250000D01*
G01*
X91200000Y-118825000D01*
G75*
G02*
X90950000Y-119075000I-250000J0D01*
G01*
G37*
G36*
G01*
X114050000Y-107050000D02*
X114950000Y-107050000D01*
G75*
G02*
X115200000Y-107300000I0J-250000D01*
G01*
X115200000Y-107825000D01*
G75*
G02*
X114950000Y-108075000I-250000J0D01*
G01*
X114050000Y-108075000D01*
G75*
G02*
X113800000Y-107825000I0J250000D01*
G01*
X113800000Y-107300000D01*
G75*
G02*
X114050000Y-107050000I250000J0D01*
G01*
G37*
G36*
G01*
X114050000Y-108875000D02*
X114950000Y-108875000D01*
G75*
G02*
X115200000Y-109125000I0J-250000D01*
G01*
X115200000Y-109650000D01*
G75*
G02*
X114950000Y-109900000I-250000J0D01*
G01*
X114050000Y-109900000D01*
G75*
G02*
X113800000Y-109650000I0J250000D01*
G01*
X113800000Y-109125000D01*
G75*
G02*
X114050000Y-108875000I250000J0D01*
G01*
G37*
G36*
G01*
X114950000Y-120900000D02*
X114050000Y-120900000D01*
G75*
G02*
X113800000Y-120650000I0J250000D01*
G01*
X113800000Y-120125000D01*
G75*
G02*
X114050000Y-119875000I250000J0D01*
G01*
X114950000Y-119875000D01*
G75*
G02*
X115200000Y-120125000I0J-250000D01*
G01*
X115200000Y-120650000D01*
G75*
G02*
X114950000Y-120900000I-250000J0D01*
G01*
G37*
G36*
G01*
X114950000Y-119075000D02*
X114050000Y-119075000D01*
G75*
G02*
X113800000Y-118825000I0J250000D01*
G01*
X113800000Y-118300000D01*
G75*
G02*
X114050000Y-118050000I250000J0D01*
G01*
X114950000Y-118050000D01*
G75*
G02*
X115200000Y-118300000I0J-250000D01*
G01*
X115200000Y-118825000D01*
G75*
G02*
X114950000Y-119075000I-250000J0D01*
G01*
G37*
G36*
G01*
X90050000Y-107050000D02*
X90950000Y-107050000D01*
G75*
G02*
X91200000Y-107300000I0J-250000D01*
G01*
X91200000Y-107825000D01*
G75*
G02*
X90950000Y-108075000I-250000J0D01*
G01*
X90050000Y-108075000D01*
G75*
G02*
X89800000Y-107825000I0J250000D01*
G01*
X89800000Y-107300000D01*
G75*
G02*
X90050000Y-107050000I250000J0D01*
G01*
G37*
G36*
G01*
X90050000Y-108875000D02*
X90950000Y-108875000D01*
G75*
G02*
X91200000Y-109125000I0J-250000D01*
G01*
X91200000Y-109650000D01*
G75*
G02*
X90950000Y-109900000I-250000J0D01*
G01*
X90050000Y-109900000D01*
G75*
G02*
X89800000Y-109650000I0J250000D01*
G01*
X89800000Y-109125000D01*
G75*
G02*
X90050000Y-108875000I250000J0D01*
G01*
G37*
G36*
G01*
X90050000Y-122050000D02*
X90950000Y-122050000D01*
G75*
G02*
X91200000Y-122300000I0J-250000D01*
G01*
X91200000Y-122825000D01*
G75*
G02*
X90950000Y-123075000I-250000J0D01*
G01*
X90050000Y-123075000D01*
G75*
G02*
X89800000Y-122825000I0J250000D01*
G01*
X89800000Y-122300000D01*
G75*
G02*
X90050000Y-122050000I250000J0D01*
G01*
G37*
G36*
G01*
X90050000Y-123875000D02*
X90950000Y-123875000D01*
G75*
G02*
X91200000Y-124125000I0J-250000D01*
G01*
X91200000Y-124650000D01*
G75*
G02*
X90950000Y-124900000I-250000J0D01*
G01*
X90050000Y-124900000D01*
G75*
G02*
X89800000Y-124650000I0J250000D01*
G01*
X89800000Y-124125000D01*
G75*
G02*
X90050000Y-123875000I250000J0D01*
G01*
G37*
D19*
X106250000Y-131931500D03*
D20*
X103710000Y-131931500D03*
X101170000Y-131931500D03*
X98630000Y-131931500D03*
D15*
X89049501Y-126475000D03*
X89049501Y-128975000D03*
X89049501Y-131475000D03*
D16*
X82259501Y-134675001D03*
X82259501Y-123274999D03*
G36*
G01*
X90950000Y-150900000D02*
X90050000Y-150900000D01*
G75*
G02*
X89800000Y-150650000I0J250000D01*
G01*
X89800000Y-150125000D01*
G75*
G02*
X90050000Y-149875000I250000J0D01*
G01*
X90950000Y-149875000D01*
G75*
G02*
X91200000Y-150125000I0J-250000D01*
G01*
X91200000Y-150650000D01*
G75*
G02*
X90950000Y-150900000I-250000J0D01*
G01*
G37*
G36*
G01*
X90950000Y-149075000D02*
X90050000Y-149075000D01*
G75*
G02*
X89800000Y-148825000I0J250000D01*
G01*
X89800000Y-148300000D01*
G75*
G02*
X90050000Y-148050000I250000J0D01*
G01*
X90950000Y-148050000D01*
G75*
G02*
X91200000Y-148300000I0J-250000D01*
G01*
X91200000Y-148825000D01*
G75*
G02*
X90950000Y-149075000I-250000J0D01*
G01*
G37*
D15*
X89049501Y-96475000D03*
X89049501Y-98975000D03*
X89049501Y-101475000D03*
D16*
X82259501Y-93274999D03*
X82259501Y-104675001D03*
G36*
G01*
X90050000Y-137050000D02*
X90950000Y-137050000D01*
G75*
G02*
X91200000Y-137300000I0J-250000D01*
G01*
X91200000Y-137825000D01*
G75*
G02*
X90950000Y-138075000I-250000J0D01*
G01*
X90050000Y-138075000D01*
G75*
G02*
X89800000Y-137825000I0J250000D01*
G01*
X89800000Y-137300000D01*
G75*
G02*
X90050000Y-137050000I250000J0D01*
G01*
G37*
G36*
G01*
X90050000Y-138875000D02*
X90950000Y-138875000D01*
G75*
G02*
X91200000Y-139125000I0J-250000D01*
G01*
X91200000Y-139650000D01*
G75*
G02*
X90950000Y-139900000I-250000J0D01*
G01*
X90050000Y-139900000D01*
G75*
G02*
X89800000Y-139650000I0J250000D01*
G01*
X89800000Y-139125000D01*
G75*
G02*
X90050000Y-138875000I250000J0D01*
G01*
G37*
G36*
G01*
X114050000Y-92050000D02*
X114950000Y-92050000D01*
G75*
G02*
X115200000Y-92300000I0J-250000D01*
G01*
X115200000Y-92825000D01*
G75*
G02*
X114950000Y-93075000I-250000J0D01*
G01*
X114050000Y-93075000D01*
G75*
G02*
X113800000Y-92825000I0J250000D01*
G01*
X113800000Y-92300000D01*
G75*
G02*
X114050000Y-92050000I250000J0D01*
G01*
G37*
G36*
G01*
X114050000Y-93875000D02*
X114950000Y-93875000D01*
G75*
G02*
X115200000Y-94125000I0J-250000D01*
G01*
X115200000Y-94650000D01*
G75*
G02*
X114950000Y-94900000I-250000J0D01*
G01*
X114050000Y-94900000D01*
G75*
G02*
X113800000Y-94650000I0J250000D01*
G01*
X113800000Y-94125000D01*
G75*
G02*
X114050000Y-93875000I250000J0D01*
G01*
G37*
G36*
G01*
X114050000Y-137050000D02*
X114950000Y-137050000D01*
G75*
G02*
X115200000Y-137300000I0J-250000D01*
G01*
X115200000Y-137825000D01*
G75*
G02*
X114950000Y-138075000I-250000J0D01*
G01*
X114050000Y-138075000D01*
G75*
G02*
X113800000Y-137825000I0J250000D01*
G01*
X113800000Y-137300000D01*
G75*
G02*
X114050000Y-137050000I250000J0D01*
G01*
G37*
G36*
G01*
X114050000Y-138875000D02*
X114950000Y-138875000D01*
G75*
G02*
X115200000Y-139125000I0J-250000D01*
G01*
X115200000Y-139650000D01*
G75*
G02*
X114950000Y-139900000I-250000J0D01*
G01*
X114050000Y-139900000D01*
G75*
G02*
X113800000Y-139650000I0J250000D01*
G01*
X113800000Y-139125000D01*
G75*
G02*
X114050000Y-138875000I250000J0D01*
G01*
G37*
M02*
