G04 #@! TF.GenerationSoftware,KiCad,Pcbnew,6.0.10+dfsg-1~bpo11+1*
G04 #@! TF.ProjectId,project,70726f6a-6563-4742-9e6b-696361645f70,rev?*
G04 #@! TF.SameCoordinates,Original*
G04 #@! TF.FileFunction,Legend,Bot*
G04 #@! TF.FilePolarity,Positive*
%FSLAX46Y46*%
G04 Gerber Fmt 4.6, Leading zero omitted, Abs format (unit mm)*
%MOMM*%
%LPD*%
G01*
G04 APERTURE LIST*
%ADD10C,0.150000*%
G04 #@! TA.AperFunction,Profile*
%ADD11C,0.100000*%
G04 #@! TD*
%ADD12C,0.300000*%
%ADD13C,1.552000*%
%ADD14C,5.600000*%
%ADD15C,1.700000*%
%ADD16C,2.200000*%
G04 APERTURE END LIST*
D10*
X152262500Y-98537500D02*
X152262500Y-99037500D01*
X142762500Y-97037500D02*
X142762500Y-100537500D01*
X151762500Y-98037500D02*
X152262500Y-98537500D01*
X145762500Y-98037500D02*
X145762500Y-99537500D01*
X151262500Y-98037500D02*
X151762500Y-98037500D01*
X150762500Y-98537500D02*
X151262500Y-98037500D01*
X150262500Y-99537500D02*
X143262500Y-99537500D01*
X150262500Y-98037500D02*
X150262500Y-99537500D01*
X143262500Y-97037500D02*
X143262500Y-98037500D01*
X151262500Y-99537500D02*
X150762500Y-99037500D01*
X150262500Y-98037500D02*
X150762500Y-98537500D01*
X143262500Y-98037500D02*
X145262500Y-98037500D01*
X143262500Y-99537500D02*
X143262500Y-100537500D01*
X145262500Y-98037500D02*
X150262500Y-98037500D01*
X152262500Y-99037500D02*
X151762500Y-99537500D01*
X150762500Y-99037500D02*
X150262500Y-99537500D01*
X151762500Y-99537500D02*
X151262500Y-99537500D01*
X143262500Y-97037500D02*
X142762500Y-97037500D01*
X143262500Y-98037500D02*
X143262500Y-99537500D01*
X148262500Y-98037500D02*
X148262500Y-99537500D01*
X142762500Y-100537500D02*
X143262500Y-100537500D01*
D11*
X167262500Y-129537500D02*
X167262500Y-69537500D01*
X164762500Y-67037500D02*
X129762500Y-67037500D01*
X164762500Y-132037500D02*
G75*
G03*
X167262500Y-129537500I0J2500000D01*
G01*
X127262500Y-129537500D02*
G75*
G03*
X129762500Y-132037500I2500000J0D01*
G01*
X167262500Y-69537500D02*
G75*
G03*
X164762500Y-67037500I-2500000J0D01*
G01*
X164762500Y-132037500D02*
X129762500Y-132037500D01*
X127262500Y-69537500D02*
X127262500Y-129537500D01*
X129762500Y-67037500D02*
G75*
G03*
X127262500Y-69537500I0J-2500000D01*
G01*
D12*
X152206428Y-96699642D02*
X152206428Y-95842500D01*
X150706428Y-96271071D02*
X152206428Y-96271071D01*
X150706428Y-95342500D02*
X151706428Y-95342500D01*
X152206428Y-95342500D02*
X152135000Y-95413928D01*
X152063571Y-95342500D01*
X152135000Y-95271071D01*
X152206428Y-95342500D01*
X152063571Y-95342500D01*
X151706428Y-94628214D02*
X150206428Y-94628214D01*
X151635000Y-94628214D02*
X151706428Y-94485357D01*
X151706428Y-94199642D01*
X151635000Y-94056785D01*
X151563571Y-93985357D01*
X151420714Y-93913928D01*
X150992142Y-93913928D01*
X150849285Y-93985357D01*
X150777857Y-94056785D01*
X150706428Y-94199642D01*
X150706428Y-94485357D01*
X150777857Y-94628214D01*
X151277857Y-92128214D02*
X151277857Y-90985357D01*
X150706428Y-89128214D02*
X152206428Y-89128214D01*
X152206428Y-88771071D01*
X152135000Y-88556785D01*
X151992142Y-88413928D01*
X151849285Y-88342500D01*
X151563571Y-88271071D01*
X151349285Y-88271071D01*
X151063571Y-88342500D01*
X150920714Y-88413928D01*
X150777857Y-88556785D01*
X150706428Y-88771071D01*
X150706428Y-89128214D01*
X151135000Y-87699642D02*
X151135000Y-86985357D01*
X150706428Y-87842500D02*
X152206428Y-87342500D01*
X150706428Y-86842500D01*
X152206428Y-86556785D02*
X152206428Y-85699642D01*
X150706428Y-86128214D02*
X152206428Y-86128214D01*
X151135000Y-85271071D02*
X151135000Y-84556785D01*
X150706428Y-85413928D02*
X152206428Y-84913928D01*
X150706428Y-84413928D01*
X148291428Y-95628214D02*
X149005714Y-96128214D01*
X148291428Y-96485357D02*
X149791428Y-96485357D01*
X149791428Y-95913928D01*
X149720000Y-95771071D01*
X149648571Y-95699642D01*
X149505714Y-95628214D01*
X149291428Y-95628214D01*
X149148571Y-95699642D01*
X149077142Y-95771071D01*
X149005714Y-95913928D01*
X149005714Y-96485357D01*
X148291428Y-94985357D02*
X149291428Y-94985357D01*
X149791428Y-94985357D02*
X149720000Y-95056785D01*
X149648571Y-94985357D01*
X149720000Y-94913928D01*
X149791428Y-94985357D01*
X149648571Y-94985357D01*
X149291428Y-94271071D02*
X148291428Y-94271071D01*
X149148571Y-94271071D02*
X149220000Y-94199642D01*
X149291428Y-94056785D01*
X149291428Y-93842500D01*
X149220000Y-93699642D01*
X149077142Y-93628214D01*
X148291428Y-93628214D01*
X149291428Y-92271071D02*
X148077142Y-92271071D01*
X147934285Y-92342500D01*
X147862857Y-92413928D01*
X147791428Y-92556785D01*
X147791428Y-92771071D01*
X147862857Y-92913928D01*
X148362857Y-92271071D02*
X148291428Y-92413928D01*
X148291428Y-92699642D01*
X148362857Y-92842500D01*
X148434285Y-92913928D01*
X148577142Y-92985357D01*
X149005714Y-92985357D01*
X149148571Y-92913928D01*
X149220000Y-92842500D01*
X149291428Y-92699642D01*
X149291428Y-92413928D01*
X149220000Y-92271071D01*
X148291428Y-90771071D02*
X148291428Y-91628214D01*
X148291428Y-91199642D02*
X149791428Y-91199642D01*
X149577142Y-91342500D01*
X149434285Y-91485357D01*
X149362857Y-91628214D01*
X148862857Y-88985357D02*
X148862857Y-87842500D01*
X148291428Y-85985357D02*
X149791428Y-85985357D01*
X148291428Y-85128214D01*
X149791428Y-85128214D01*
X148434285Y-83556785D02*
X148362857Y-83628214D01*
X148291428Y-83842500D01*
X148291428Y-83985357D01*
X148362857Y-84199642D01*
X148505714Y-84342500D01*
X148648571Y-84413928D01*
X148934285Y-84485357D01*
X149148571Y-84485357D01*
X149434285Y-84413928D01*
X149577142Y-84342500D01*
X149720000Y-84199642D01*
X149791428Y-83985357D01*
X149791428Y-83842500D01*
X149720000Y-83628214D01*
X149648571Y-83556785D01*
X145876428Y-95628214D02*
X146590714Y-96128214D01*
X145876428Y-96485357D02*
X147376428Y-96485357D01*
X147376428Y-95913928D01*
X147305000Y-95771071D01*
X147233571Y-95699642D01*
X147090714Y-95628214D01*
X146876428Y-95628214D01*
X146733571Y-95699642D01*
X146662142Y-95771071D01*
X146590714Y-95913928D01*
X146590714Y-96485357D01*
X145876428Y-94985357D02*
X146876428Y-94985357D01*
X147376428Y-94985357D02*
X147305000Y-95056785D01*
X147233571Y-94985357D01*
X147305000Y-94913928D01*
X147376428Y-94985357D01*
X147233571Y-94985357D01*
X146876428Y-94271071D02*
X145876428Y-94271071D01*
X146733571Y-94271071D02*
X146805000Y-94199642D01*
X146876428Y-94056785D01*
X146876428Y-93842500D01*
X146805000Y-93699642D01*
X146662142Y-93628214D01*
X145876428Y-93628214D01*
X146876428Y-92271071D02*
X145662142Y-92271071D01*
X145519285Y-92342500D01*
X145447857Y-92413928D01*
X145376428Y-92556785D01*
X145376428Y-92771071D01*
X145447857Y-92913928D01*
X145947857Y-92271071D02*
X145876428Y-92413928D01*
X145876428Y-92699642D01*
X145947857Y-92842500D01*
X146019285Y-92913928D01*
X146162142Y-92985357D01*
X146590714Y-92985357D01*
X146733571Y-92913928D01*
X146805000Y-92842500D01*
X146876428Y-92699642D01*
X146876428Y-92413928D01*
X146805000Y-92271071D01*
X147233571Y-91628214D02*
X147305000Y-91556785D01*
X147376428Y-91413928D01*
X147376428Y-91056785D01*
X147305000Y-90913928D01*
X147233571Y-90842500D01*
X147090714Y-90771071D01*
X146947857Y-90771071D01*
X146733571Y-90842500D01*
X145876428Y-91699642D01*
X145876428Y-90771071D01*
X146447857Y-88985357D02*
X146447857Y-87842500D01*
X147305000Y-85199642D02*
X147376428Y-85342500D01*
X147376428Y-85556785D01*
X147305000Y-85771071D01*
X147162142Y-85913928D01*
X147019285Y-85985357D01*
X146733571Y-86056785D01*
X146519285Y-86056785D01*
X146233571Y-85985357D01*
X146090714Y-85913928D01*
X145947857Y-85771071D01*
X145876428Y-85556785D01*
X145876428Y-85413928D01*
X145947857Y-85199642D01*
X146019285Y-85128214D01*
X146519285Y-85128214D01*
X146519285Y-85413928D01*
X145876428Y-84485357D02*
X147376428Y-84485357D01*
X145876428Y-83628214D01*
X147376428Y-83628214D01*
X145876428Y-82913928D02*
X147376428Y-82913928D01*
X147376428Y-82556785D01*
X147305000Y-82342500D01*
X147162142Y-82199642D01*
X147019285Y-82128214D01*
X146733571Y-82056785D01*
X146519285Y-82056785D01*
X146233571Y-82128214D01*
X146090714Y-82199642D01*
X145947857Y-82342500D01*
X145876428Y-82556785D01*
X145876428Y-82913928D01*
X143532857Y-96556785D02*
X143461428Y-96342500D01*
X143461428Y-95985357D01*
X143532857Y-95842500D01*
X143604285Y-95771071D01*
X143747142Y-95699642D01*
X143890000Y-95699642D01*
X144032857Y-95771071D01*
X144104285Y-95842500D01*
X144175714Y-95985357D01*
X144247142Y-96271071D01*
X144318571Y-96413928D01*
X144390000Y-96485357D01*
X144532857Y-96556785D01*
X144675714Y-96556785D01*
X144818571Y-96485357D01*
X144890000Y-96413928D01*
X144961428Y-96271071D01*
X144961428Y-95913928D01*
X144890000Y-95699642D01*
X143461428Y-94842500D02*
X143532857Y-94985357D01*
X143675714Y-95056785D01*
X144961428Y-95056785D01*
X143532857Y-93699642D02*
X143461428Y-93842500D01*
X143461428Y-94128214D01*
X143532857Y-94271071D01*
X143675714Y-94342500D01*
X144247142Y-94342500D01*
X144390000Y-94271071D01*
X144461428Y-94128214D01*
X144461428Y-93842500D01*
X144390000Y-93699642D01*
X144247142Y-93628214D01*
X144104285Y-93628214D01*
X143961428Y-94342500D01*
X143532857Y-92413928D02*
X143461428Y-92556785D01*
X143461428Y-92842500D01*
X143532857Y-92985357D01*
X143675714Y-93056785D01*
X144247142Y-93056785D01*
X144390000Y-92985357D01*
X144461428Y-92842500D01*
X144461428Y-92556785D01*
X144390000Y-92413928D01*
X144247142Y-92342500D01*
X144104285Y-92342500D01*
X143961428Y-93056785D01*
X144461428Y-91842500D02*
X143461428Y-91485357D01*
X144461428Y-91128214D01*
X143532857Y-89985357D02*
X143461428Y-90128214D01*
X143461428Y-90413928D01*
X143532857Y-90556785D01*
X143675714Y-90628214D01*
X144247142Y-90628214D01*
X144390000Y-90556785D01*
X144461428Y-90413928D01*
X144461428Y-90128214D01*
X144390000Y-89985357D01*
X144247142Y-89913928D01*
X144104285Y-89913928D01*
X143961428Y-90628214D01*
X144032857Y-88128214D02*
X144032857Y-86985357D01*
X144961428Y-85342500D02*
X143461428Y-84842500D01*
X144961428Y-84342500D01*
X143604285Y-82985357D02*
X143532857Y-83056785D01*
X143461428Y-83271071D01*
X143461428Y-83413928D01*
X143532857Y-83628214D01*
X143675714Y-83771071D01*
X143818571Y-83842500D01*
X144104285Y-83913928D01*
X144318571Y-83913928D01*
X144604285Y-83842500D01*
X144747142Y-83771071D01*
X144890000Y-83628214D01*
X144961428Y-83413928D01*
X144961428Y-83271071D01*
X144890000Y-83056785D01*
X144818571Y-82985357D01*
X143604285Y-81485357D02*
X143532857Y-81556785D01*
X143461428Y-81771071D01*
X143461428Y-81913928D01*
X143532857Y-82128214D01*
X143675714Y-82271071D01*
X143818571Y-82342500D01*
X144104285Y-82413928D01*
X144318571Y-82413928D01*
X144604285Y-82342500D01*
X144747142Y-82271071D01*
X144890000Y-82128214D01*
X144961428Y-81913928D01*
X144961428Y-81771071D01*
X144890000Y-81556785D01*
X144818571Y-81485357D01*
D10*
X166262500Y-69180357D02*
X166262500Y-67980357D01*
X165748214Y-69180357D02*
X165748214Y-68551785D01*
X165805357Y-68437500D01*
X165919642Y-68380357D01*
X166091071Y-68380357D01*
X166205357Y-68437500D01*
X166262500Y-68494642D01*
X165348214Y-68380357D02*
X164891071Y-68380357D01*
X165176785Y-67980357D02*
X165176785Y-69008928D01*
X165119642Y-69123214D01*
X165005357Y-69180357D01*
X164891071Y-69180357D01*
X164662500Y-68380357D02*
X164205357Y-68380357D01*
X164491071Y-67980357D02*
X164491071Y-69008928D01*
X164433928Y-69123214D01*
X164319642Y-69180357D01*
X164205357Y-69180357D01*
X163805357Y-68380357D02*
X163805357Y-69580357D01*
X163805357Y-68437500D02*
X163691071Y-68380357D01*
X163462500Y-68380357D01*
X163348214Y-68437500D01*
X163291071Y-68494642D01*
X163233928Y-68608928D01*
X163233928Y-68951785D01*
X163291071Y-69066071D01*
X163348214Y-69123214D01*
X163462500Y-69180357D01*
X163691071Y-69180357D01*
X163805357Y-69123214D01*
X162719642Y-69066071D02*
X162662500Y-69123214D01*
X162719642Y-69180357D01*
X162776785Y-69123214D01*
X162719642Y-69066071D01*
X162719642Y-69180357D01*
X162719642Y-68437500D02*
X162662500Y-68494642D01*
X162719642Y-68551785D01*
X162776785Y-68494642D01*
X162719642Y-68437500D01*
X162719642Y-68551785D01*
X161291071Y-67923214D02*
X162319642Y-69466071D01*
X160033928Y-67923214D02*
X161062500Y-69466071D01*
X159805357Y-68380357D02*
X159348214Y-68380357D01*
X159633928Y-67980357D02*
X159633928Y-69008928D01*
X159576785Y-69123214D01*
X159462500Y-69180357D01*
X159348214Y-69180357D01*
X158491071Y-69123214D02*
X158605357Y-69180357D01*
X158833928Y-69180357D01*
X158948214Y-69123214D01*
X159005357Y-69008928D01*
X159005357Y-68551785D01*
X158948214Y-68437500D01*
X158833928Y-68380357D01*
X158605357Y-68380357D01*
X158491071Y-68437500D01*
X158433928Y-68551785D01*
X158433928Y-68666071D01*
X159005357Y-68780357D01*
X157919642Y-69180357D02*
X157919642Y-68380357D01*
X157919642Y-68494642D02*
X157862500Y-68437500D01*
X157748214Y-68380357D01*
X157576785Y-68380357D01*
X157462500Y-68437500D01*
X157405357Y-68551785D01*
X157405357Y-69180357D01*
X157405357Y-68551785D02*
X157348214Y-68437500D01*
X157233928Y-68380357D01*
X157062500Y-68380357D01*
X156948214Y-68437500D01*
X156891071Y-68551785D01*
X156891071Y-69180357D01*
X156319642Y-68380357D02*
X156319642Y-69580357D01*
X156319642Y-68437500D02*
X156205357Y-68380357D01*
X155976785Y-68380357D01*
X155862500Y-68437500D01*
X155805357Y-68494642D01*
X155748214Y-68608928D01*
X155748214Y-68951785D01*
X155805357Y-69066071D01*
X155862500Y-69123214D01*
X155976785Y-69180357D01*
X156205357Y-69180357D01*
X156319642Y-69123214D01*
X155233928Y-68723214D02*
X154319642Y-68723214D01*
X153119642Y-69180357D02*
X153805357Y-69180357D01*
X153462500Y-69180357D02*
X153462500Y-67980357D01*
X153576785Y-68151785D01*
X153691071Y-68266071D01*
X153805357Y-68323214D01*
X152719642Y-68380357D02*
X152491071Y-69180357D01*
X152262500Y-68608928D01*
X152033928Y-69180357D01*
X151805357Y-68380357D01*
X151176785Y-68494642D02*
X151291071Y-68437500D01*
X151348214Y-68380357D01*
X151405357Y-68266071D01*
X151405357Y-68208928D01*
X151348214Y-68094642D01*
X151291071Y-68037500D01*
X151176785Y-67980357D01*
X150948214Y-67980357D01*
X150833928Y-68037500D01*
X150776785Y-68094642D01*
X150719642Y-68208928D01*
X150719642Y-68266071D01*
X150776785Y-68380357D01*
X150833928Y-68437500D01*
X150948214Y-68494642D01*
X151176785Y-68494642D01*
X151291071Y-68551785D01*
X151348214Y-68608928D01*
X151405357Y-68723214D01*
X151405357Y-68951785D01*
X151348214Y-69066071D01*
X151291071Y-69123214D01*
X151176785Y-69180357D01*
X150948214Y-69180357D01*
X150833928Y-69123214D01*
X150776785Y-69066071D01*
X150719642Y-68951785D01*
X150719642Y-68723214D01*
X150776785Y-68608928D01*
X150833928Y-68551785D01*
X150948214Y-68494642D01*
X150205357Y-68723214D02*
X149291071Y-68723214D01*
X148719642Y-68380357D02*
X148719642Y-69580357D01*
X148719642Y-68437500D02*
X148605357Y-68380357D01*
X148376785Y-68380357D01*
X148262500Y-68437500D01*
X148205357Y-68494642D01*
X148148214Y-68608928D01*
X148148214Y-68951785D01*
X148205357Y-69066071D01*
X148262500Y-69123214D01*
X148376785Y-69180357D01*
X148605357Y-69180357D01*
X148719642Y-69123214D01*
X147633928Y-69180357D02*
X147633928Y-68380357D01*
X147633928Y-68608928D02*
X147576785Y-68494642D01*
X147519642Y-68437500D01*
X147405357Y-68380357D01*
X147291071Y-68380357D01*
X146719642Y-69180357D02*
X146833928Y-69123214D01*
X146891071Y-69066071D01*
X146948214Y-68951785D01*
X146948214Y-68608928D01*
X146891071Y-68494642D01*
X146833928Y-68437500D01*
X146719642Y-68380357D01*
X146548214Y-68380357D01*
X146433928Y-68437500D01*
X146376785Y-68494642D01*
X146319642Y-68608928D01*
X146319642Y-68951785D01*
X146376785Y-69066071D01*
X146433928Y-69123214D01*
X146548214Y-69180357D01*
X146719642Y-69180357D01*
X145805357Y-69066071D02*
X145748214Y-69123214D01*
X145805357Y-69180357D01*
X145862500Y-69123214D01*
X145805357Y-69066071D01*
X145805357Y-69180357D01*
X145233928Y-69180357D02*
X145233928Y-68380357D01*
X145233928Y-68494642D02*
X145176785Y-68437500D01*
X145062500Y-68380357D01*
X144891071Y-68380357D01*
X144776785Y-68437500D01*
X144719642Y-68551785D01*
X144719642Y-69180357D01*
X144719642Y-68551785D02*
X144662500Y-68437500D01*
X144548214Y-68380357D01*
X144376785Y-68380357D01*
X144262500Y-68437500D01*
X144205357Y-68551785D01*
X144205357Y-69180357D01*
X143119642Y-69180357D02*
X143119642Y-68551785D01*
X143176785Y-68437500D01*
X143291071Y-68380357D01*
X143519642Y-68380357D01*
X143633928Y-68437500D01*
X143119642Y-69123214D02*
X143233928Y-69180357D01*
X143519642Y-69180357D01*
X143633928Y-69123214D01*
X143691071Y-69008928D01*
X143691071Y-68894642D01*
X143633928Y-68780357D01*
X143519642Y-68723214D01*
X143233928Y-68723214D01*
X143119642Y-68666071D01*
X142548214Y-69180357D02*
X142548214Y-67980357D01*
X142433928Y-68723214D02*
X142091071Y-69180357D01*
X142091071Y-68380357D02*
X142548214Y-68837500D01*
X141119642Y-69123214D02*
X141233928Y-69180357D01*
X141462500Y-69180357D01*
X141576785Y-69123214D01*
X141633928Y-69008928D01*
X141633928Y-68551785D01*
X141576785Y-68437500D01*
X141462500Y-68380357D01*
X141233928Y-68380357D01*
X141119642Y-68437500D01*
X141062500Y-68551785D01*
X141062500Y-68666071D01*
X141633928Y-68780357D01*
X140548214Y-69180357D02*
X140548214Y-68380357D01*
X140548214Y-68608928D02*
X140491071Y-68494642D01*
X140433928Y-68437500D01*
X140319642Y-68380357D01*
X140205357Y-68380357D01*
X139862500Y-69123214D02*
X139748214Y-69180357D01*
X139519642Y-69180357D01*
X139405357Y-69123214D01*
X139348214Y-69008928D01*
X139348214Y-68951785D01*
X139405357Y-68837500D01*
X139519642Y-68780357D01*
X139691071Y-68780357D01*
X139805357Y-68723214D01*
X139862500Y-68608928D01*
X139862500Y-68551785D01*
X139805357Y-68437500D01*
X139691071Y-68380357D01*
X139519642Y-68380357D01*
X139405357Y-68437500D01*
X138833928Y-68380357D02*
X138833928Y-69580357D01*
X138833928Y-68437500D02*
X138719642Y-68380357D01*
X138491071Y-68380357D01*
X138376785Y-68437500D01*
X138319642Y-68494642D01*
X138262500Y-68608928D01*
X138262500Y-68951785D01*
X138319642Y-69066071D01*
X138376785Y-69123214D01*
X138491071Y-69180357D01*
X138719642Y-69180357D01*
X138833928Y-69123214D01*
X137233928Y-69180357D02*
X137233928Y-68551785D01*
X137291071Y-68437500D01*
X137405357Y-68380357D01*
X137633928Y-68380357D01*
X137748214Y-68437500D01*
X137233928Y-69123214D02*
X137348214Y-69180357D01*
X137633928Y-69180357D01*
X137748214Y-69123214D01*
X137805357Y-69008928D01*
X137805357Y-68894642D01*
X137748214Y-68780357D01*
X137633928Y-68723214D01*
X137348214Y-68723214D01*
X137233928Y-68666071D01*
X136148214Y-69123214D02*
X136262500Y-69180357D01*
X136491071Y-69180357D01*
X136605357Y-69123214D01*
X136662500Y-69066071D01*
X136719642Y-68951785D01*
X136719642Y-68608928D01*
X136662500Y-68494642D01*
X136605357Y-68437500D01*
X136491071Y-68380357D01*
X136262500Y-68380357D01*
X136148214Y-68437500D01*
X135176785Y-69123214D02*
X135291071Y-69180357D01*
X135519642Y-69180357D01*
X135633928Y-69123214D01*
X135691071Y-69008928D01*
X135691071Y-68551785D01*
X135633928Y-68437500D01*
X135519642Y-68380357D01*
X135291071Y-68380357D01*
X135176785Y-68437500D01*
X135119642Y-68551785D01*
X135119642Y-68666071D01*
X135691071Y-68780357D01*
X134605357Y-69066071D02*
X134548214Y-69123214D01*
X134605357Y-69180357D01*
X134662500Y-69123214D01*
X134605357Y-69066071D01*
X134605357Y-69180357D01*
X133862500Y-69180357D02*
X133976785Y-69123214D01*
X134033928Y-69008928D01*
X134033928Y-67980357D01*
X133576785Y-68380357D02*
X133119642Y-68380357D01*
X133405357Y-67980357D02*
X133405357Y-69008928D01*
X133348214Y-69123214D01*
X133233928Y-69180357D01*
X133119642Y-69180357D01*
X131862500Y-67923214D02*
X132891071Y-69466071D01*
X131576785Y-68380357D02*
X131291071Y-69180357D01*
X131005357Y-68380357D01*
X130033928Y-68380357D02*
X130033928Y-69180357D01*
X130319642Y-67923214D02*
X130605357Y-68780357D01*
X129862500Y-68780357D01*
X129405357Y-69066071D02*
X129348214Y-69123214D01*
X129405357Y-69180357D01*
X129462500Y-69123214D01*
X129405357Y-69066071D01*
X129405357Y-69180357D01*
X128605357Y-67980357D02*
X128491071Y-67980357D01*
X128376785Y-68037500D01*
X128319642Y-68094642D01*
X128262500Y-68208928D01*
X128205357Y-68437500D01*
X128205357Y-68723214D01*
X128262500Y-68951785D01*
X128319642Y-69066071D01*
X128376785Y-69123214D01*
X128491071Y-69180357D01*
X128605357Y-69180357D01*
X128719642Y-69123214D01*
X128776785Y-69066071D01*
X128833928Y-68951785D01*
X128891071Y-68723214D01*
X128891071Y-68437500D01*
X128833928Y-68208928D01*
X128776785Y-68094642D01*
X128719642Y-68037500D01*
X128605357Y-67980357D01*
G36*
X132781550Y-101361225D02*
G01*
X133019675Y-101707300D01*
X133245100Y-102072425D01*
X133435600Y-102434375D01*
X132546600Y-102434375D01*
X132546600Y-101050075D01*
X132781550Y-101361225D01*
G37*
G36*
X129795115Y-104484061D02*
G01*
X129327166Y-104342110D01*
X128895901Y-104111594D01*
X128517895Y-103801372D01*
X128207673Y-103423365D01*
X128021855Y-103075725D01*
X131340100Y-103075725D01*
X131765550Y-103075725D01*
X131765550Y-104002825D01*
X132546600Y-104002825D01*
X132546600Y-103075725D01*
X134184900Y-103075725D01*
X134184900Y-102504225D01*
X134046787Y-102239906D01*
X133873750Y-101942250D01*
X133673725Y-101623956D01*
X133454650Y-101297725D01*
X133219700Y-100969906D01*
X132972050Y-100646850D01*
X132718050Y-100342844D01*
X132464050Y-100072175D01*
X131765550Y-100072175D01*
X131765550Y-102434375D01*
X131340100Y-102434375D01*
X131340100Y-103075725D01*
X128021855Y-103075725D01*
X127977157Y-102992101D01*
X127835206Y-102524151D01*
X127787275Y-102037500D01*
X127835206Y-101550849D01*
X127977157Y-101082899D01*
X128207673Y-100651635D01*
X128517895Y-100273628D01*
X128895901Y-99963406D01*
X129327166Y-99732890D01*
X129795115Y-99590939D01*
X130281767Y-99543008D01*
X135243233Y-99543008D01*
X135729884Y-99590939D01*
X136197834Y-99732890D01*
X136629099Y-99963406D01*
X137007105Y-100273628D01*
X137317327Y-100651635D01*
X137547843Y-101082899D01*
X137689794Y-101550849D01*
X137737725Y-102037500D01*
X137689794Y-102524151D01*
X137547843Y-102992101D01*
X137317327Y-103423365D01*
X137007105Y-103801372D01*
X136629099Y-104111594D01*
X136197834Y-104342110D01*
X135729884Y-104484061D01*
X135243233Y-104531992D01*
X130281767Y-104531992D01*
X129795115Y-104484061D01*
G37*
G36*
X129912590Y-74484061D02*
G01*
X129444641Y-74342110D01*
X129013376Y-74111594D01*
X128880841Y-74002825D01*
X131457575Y-74002825D01*
X133845175Y-74002825D01*
X133845175Y-73355125D01*
X133019675Y-73355125D01*
X133019675Y-71158025D01*
X133426075Y-71383450D01*
X133813425Y-71539025D01*
X134067425Y-70891325D01*
X133737225Y-70745275D01*
X133381625Y-70548425D01*
X133045075Y-70319825D01*
X132772025Y-70072175D01*
X132238625Y-70072175D01*
X132238625Y-73355125D01*
X131457575Y-73355125D01*
X131457575Y-74002825D01*
X128880841Y-74002825D01*
X128635370Y-73801372D01*
X128325148Y-73423365D01*
X128094632Y-72992101D01*
X127952681Y-72524151D01*
X127904750Y-72037500D01*
X127952681Y-71550849D01*
X128094632Y-71082899D01*
X128325148Y-70651635D01*
X128635370Y-70273628D01*
X129013376Y-69963406D01*
X129444641Y-69732890D01*
X129912590Y-69590939D01*
X130399242Y-69543008D01*
X135125758Y-69543008D01*
X135612409Y-69590939D01*
X136080359Y-69732890D01*
X136511624Y-69963406D01*
X136889630Y-70273628D01*
X137199852Y-70651635D01*
X137430368Y-71082899D01*
X137572319Y-71550849D01*
X137620250Y-72037500D01*
X137572319Y-72524151D01*
X137430368Y-72992101D01*
X137199852Y-73423365D01*
X136889630Y-73801372D01*
X136511624Y-74111594D01*
X136080359Y-74342110D01*
X135612409Y-74484061D01*
X135125758Y-74531992D01*
X130399242Y-74531992D01*
X129912590Y-74484061D01*
G37*
G36*
X129899041Y-94568139D02*
G01*
X129415010Y-94421309D01*
X128968925Y-94182872D01*
X128577928Y-93861989D01*
X128257045Y-93470992D01*
X128018607Y-93024906D01*
X127961788Y-92837600D01*
X131460750Y-92837600D01*
X131549650Y-93339250D01*
X131822700Y-93736125D01*
X132032250Y-93885350D01*
X132292600Y-93996475D01*
X132605337Y-94065531D01*
X132972050Y-94088550D01*
X133280025Y-94066325D01*
X133591175Y-94012350D01*
X133867400Y-93942500D01*
X134064250Y-93872650D01*
X133911850Y-93218600D01*
X133534025Y-93351950D01*
X133279231Y-93404338D01*
X132978400Y-93421800D01*
X132637881Y-93378938D01*
X132416425Y-93250350D01*
X132254500Y-92824900D01*
X132316412Y-92560581D01*
X132502150Y-92389925D01*
X132783137Y-92297056D01*
X133130800Y-92266100D01*
X133372100Y-92266100D01*
X133372100Y-91618400D01*
X133080000Y-91618400D01*
X132838700Y-91593000D01*
X132622800Y-91510450D01*
X132467225Y-91358050D01*
X132406900Y-91116750D01*
X132537075Y-90777025D01*
X132895850Y-90653200D01*
X133337175Y-90726225D01*
X133715000Y-90907200D01*
X133994400Y-90335700D01*
X133540375Y-90103925D01*
X133239544Y-90015819D01*
X132902200Y-89986450D01*
X132593431Y-90007088D01*
X132327525Y-90069000D01*
X131924300Y-90300775D01*
X131689350Y-90653200D01*
X131613150Y-91091350D01*
X131746500Y-91542200D01*
X132102100Y-91872400D01*
X131831431Y-92029563D01*
X131629025Y-92247050D01*
X131502819Y-92518513D01*
X131460750Y-92837600D01*
X127961788Y-92837600D01*
X127871778Y-92540875D01*
X127822200Y-92037500D01*
X127871778Y-91534125D01*
X128018607Y-91050094D01*
X128257045Y-90604008D01*
X128577928Y-90213011D01*
X128968925Y-89892128D01*
X129415010Y-89653691D01*
X129899041Y-89506861D01*
X130402417Y-89457283D01*
X135122583Y-89457283D01*
X135625959Y-89506861D01*
X136109989Y-89653691D01*
X136556075Y-89892128D01*
X136947072Y-90213011D01*
X137267955Y-90604008D01*
X137506393Y-91050094D01*
X137653222Y-91534125D01*
X137702800Y-92037500D01*
X137653222Y-92540875D01*
X137506393Y-93024906D01*
X137267955Y-93470992D01*
X136947072Y-93861989D01*
X136556075Y-94182872D01*
X136109989Y-94421309D01*
X135625959Y-94568139D01*
X135122583Y-94617717D01*
X130402417Y-94617717D01*
X129899041Y-94568139D01*
G37*
G36*
X163693356Y-110044144D02*
G01*
X163896821Y-109974029D01*
X164154790Y-109931960D01*
X164467262Y-109917937D01*
X164777090Y-109931960D01*
X165033471Y-109974029D01*
X165236406Y-110044144D01*
X165434645Y-110199520D01*
X165500725Y-110413238D01*
X165434645Y-110623978D01*
X165236406Y-110779950D01*
X165033471Y-110851388D01*
X164777090Y-110894250D01*
X164467262Y-110908538D01*
X164154790Y-110894250D01*
X163896821Y-110851388D01*
X163693356Y-110779950D01*
X163495117Y-110623978D01*
X163429037Y-110413238D01*
X163430510Y-110408475D01*
X164200562Y-110408475D01*
X164293431Y-110603738D01*
X164514887Y-110675175D01*
X164738725Y-110603738D01*
X164833975Y-110408475D01*
X164738725Y-110220356D01*
X164514887Y-110146538D01*
X164293431Y-110220356D01*
X164200562Y-110408475D01*
X163430510Y-110408475D01*
X163495117Y-110199520D01*
X163693356Y-110044144D01*
G37*
G36*
X164967325Y-115185263D02*
G01*
X164707769Y-115363856D01*
X164433925Y-115532925D01*
X164162462Y-115675800D01*
X164162462Y-115009050D01*
X165200687Y-115009050D01*
X164967325Y-115185263D01*
G37*
G36*
X162527338Y-109388903D02*
G01*
X162564521Y-109011372D01*
X162674643Y-108648348D01*
X162853471Y-108313784D01*
X163094133Y-108020537D01*
X163387381Y-107779874D01*
X163721945Y-107601046D01*
X164084969Y-107490924D01*
X164462500Y-107453741D01*
X164840031Y-107490924D01*
X165203055Y-107601046D01*
X165537619Y-107779874D01*
X165830867Y-108020537D01*
X166071529Y-108313784D01*
X166250357Y-108648348D01*
X166360479Y-109011372D01*
X166397663Y-109388903D01*
X166397662Y-109388903D01*
X166397662Y-118686097D01*
X166397663Y-118686097D01*
X166360479Y-119063628D01*
X166250357Y-119426652D01*
X166071529Y-119761216D01*
X165830867Y-120054463D01*
X165537619Y-120295126D01*
X165203055Y-120473954D01*
X164840031Y-120584076D01*
X164462500Y-120621259D01*
X164084969Y-120584076D01*
X163721945Y-120473954D01*
X163387381Y-120295126D01*
X163094133Y-120054463D01*
X162853471Y-119761216D01*
X162674643Y-119426652D01*
X162564521Y-119063628D01*
X162527337Y-118686097D01*
X162527337Y-117861788D01*
X162986125Y-117861788D01*
X163336169Y-117979659D01*
X163729075Y-118104675D01*
X164005035Y-118188813D01*
X164280467Y-118269775D01*
X164555369Y-118347563D01*
X164824979Y-118421117D01*
X165084535Y-118489379D01*
X165334037Y-118552350D01*
X165667412Y-118630931D01*
X165934112Y-118685700D01*
X165934112Y-118066575D01*
X165687058Y-118030856D01*
X165403094Y-117980850D01*
X165095912Y-117920723D01*
X164779206Y-117854644D01*
X164460119Y-117783206D01*
X164145794Y-117707006D01*
X163849923Y-117629020D01*
X163586200Y-117552225D01*
X163846352Y-117476025D01*
X164141031Y-117399825D01*
X164455356Y-117326006D01*
X164774444Y-117256950D01*
X165091745Y-117192656D01*
X165400712Y-117133125D01*
X165686462Y-117080738D01*
X165934112Y-117037875D01*
X165934112Y-116423513D01*
X165631694Y-116487211D01*
X165295937Y-116564006D01*
X164934583Y-116653303D01*
X164555369Y-116754506D01*
X164295019Y-116828325D01*
X164031494Y-116906906D01*
X163764794Y-116990250D01*
X163499417Y-117077033D01*
X163239860Y-117165933D01*
X162986125Y-117256950D01*
X162986125Y-117861788D01*
X162527337Y-117861788D01*
X162527337Y-115009050D01*
X162986125Y-115009050D01*
X163681450Y-115009050D01*
X163681450Y-116237775D01*
X164110075Y-116237775D01*
X164308314Y-116134191D01*
X164531556Y-116004413D01*
X164770277Y-115854394D01*
X165014950Y-115690088D01*
X165260814Y-115513875D01*
X165503106Y-115328138D01*
X165731111Y-115137638D01*
X165934112Y-114947138D01*
X165934112Y-114423263D01*
X164162462Y-114423263D01*
X164162462Y-114104175D01*
X163681450Y-114104175D01*
X163681450Y-114423263D01*
X162986125Y-114423263D01*
X162986125Y-115009050D01*
X162527337Y-115009050D01*
X162527337Y-112789725D01*
X162933737Y-112789725D01*
X162962312Y-112951650D01*
X163045656Y-113087381D01*
X163179006Y-113182631D01*
X163362362Y-113218350D01*
X163540956Y-113182631D01*
X163671925Y-113087381D01*
X163752887Y-112951650D01*
X163781462Y-112789725D01*
X163671925Y-112494450D01*
X163362362Y-112365863D01*
X163043275Y-112494450D01*
X162933737Y-112789725D01*
X162527337Y-112789725D01*
X162527337Y-110413238D01*
X162924212Y-110413238D01*
X162966546Y-110720154D01*
X163093546Y-110974154D01*
X163305212Y-111175238D01*
X163520716Y-111289835D01*
X163786225Y-111371691D01*
X164101741Y-111420804D01*
X164467262Y-111437175D01*
X164828617Y-111420506D01*
X165141156Y-111370500D01*
X165404880Y-111287156D01*
X165619787Y-111170475D01*
X165831454Y-110967804D01*
X165958454Y-110715392D01*
X166000787Y-110413238D01*
X165958719Y-110106321D01*
X165832512Y-109852321D01*
X165622169Y-109651237D01*
X165408005Y-109536640D01*
X165144133Y-109454784D01*
X164830552Y-109405671D01*
X164467262Y-109389300D01*
X164101741Y-109405671D01*
X163786225Y-109454784D01*
X163520716Y-109536640D01*
X163305212Y-109651237D01*
X163093546Y-109852321D01*
X162966546Y-110106321D01*
X162924212Y-110413238D01*
X162527337Y-110413238D01*
X162527337Y-109388903D01*
X162527338Y-109388903D01*
G37*
G36*
X158934815Y-94484061D02*
G01*
X158466866Y-94342110D01*
X158035601Y-94111594D01*
X157657595Y-93801372D01*
X157347373Y-93423365D01*
X157116857Y-92992101D01*
X156974906Y-92524151D01*
X156926975Y-92037500D01*
X156974906Y-91550849D01*
X157116857Y-91082899D01*
X157341445Y-90662725D01*
X160479800Y-90662725D01*
X160659187Y-90899262D01*
X160854450Y-91215175D01*
X161052094Y-91594588D01*
X161238625Y-92021625D01*
X161408487Y-92487556D01*
X161556125Y-92983650D01*
X161666456Y-93494031D01*
X161724400Y-94002825D01*
X162518150Y-94002825D01*
X162475287Y-93584519D01*
X162384800Y-93142400D01*
X162258594Y-92690756D01*
X162108575Y-92243875D01*
X161939506Y-91811281D01*
X161756150Y-91402500D01*
X161570412Y-91033406D01*
X161394200Y-90719875D01*
X163045200Y-90719875D01*
X163045200Y-90072175D01*
X160479800Y-90072175D01*
X160479800Y-90662725D01*
X157341445Y-90662725D01*
X157347373Y-90651635D01*
X157657595Y-90273628D01*
X158035601Y-89963406D01*
X158466866Y-89732890D01*
X158934815Y-89590939D01*
X159421467Y-89543008D01*
X164103533Y-89543008D01*
X164590184Y-89590939D01*
X165058134Y-89732890D01*
X165489399Y-89963406D01*
X165867405Y-90273628D01*
X166177627Y-90651635D01*
X166408143Y-91082899D01*
X166550094Y-91550849D01*
X166598025Y-92037500D01*
X166550094Y-92524151D01*
X166408143Y-92992101D01*
X166177627Y-93423365D01*
X165867405Y-93801372D01*
X165489399Y-94111594D01*
X165058134Y-94342110D01*
X164590184Y-94484061D01*
X164103533Y-94531992D01*
X159421467Y-94531992D01*
X158934815Y-94484061D01*
G37*
G36*
X129878519Y-84527657D02*
G01*
X129402231Y-84383176D01*
X128963281Y-84148553D01*
X128839874Y-84047275D01*
X131432175Y-84047275D01*
X133997575Y-84047275D01*
X134013450Y-83888525D01*
X134010275Y-83755175D01*
X133980906Y-83450375D01*
X133892800Y-83170975D01*
X133759450Y-82914594D01*
X133594350Y-82678850D01*
X133407025Y-82461363D01*
X133207000Y-82259750D01*
X133006975Y-82070044D01*
X132819650Y-81888275D01*
X132521200Y-81545375D01*
X132403725Y-81208825D01*
X132549775Y-80837350D01*
X132918075Y-80707175D01*
X133305425Y-80796075D01*
X133705475Y-81094525D01*
X134092825Y-80548425D01*
X133818981Y-80316650D01*
X133505450Y-80154725D01*
X133172869Y-80059475D01*
X132841875Y-80027725D01*
X132378325Y-80097575D01*
X131984625Y-80307125D01*
X131711575Y-80659550D01*
X131609975Y-81151675D01*
X131686175Y-81542200D01*
X131889375Y-81907325D01*
X132175125Y-82250225D01*
X132498975Y-82567725D01*
X132689475Y-82748700D01*
X132892675Y-82964600D01*
X133054600Y-83190025D01*
X133121275Y-83399575D01*
X131432175Y-83399575D01*
X131432175Y-84047275D01*
X128839874Y-84047275D01*
X128578539Y-83832803D01*
X128262789Y-83448060D01*
X128028165Y-83009111D01*
X127883685Y-82532823D01*
X127834900Y-82037500D01*
X127883685Y-81542177D01*
X128028165Y-81065889D01*
X128262789Y-80626940D01*
X128578539Y-80242197D01*
X128963281Y-79926447D01*
X129402231Y-79691824D01*
X129878519Y-79547343D01*
X130373842Y-79498558D01*
X135151158Y-79498558D01*
X135646481Y-79547343D01*
X136122769Y-79691824D01*
X136561719Y-79926447D01*
X136946461Y-80242197D01*
X137262211Y-80626940D01*
X137496835Y-81065889D01*
X137641315Y-81542177D01*
X137690100Y-82037500D01*
X137641315Y-82532823D01*
X137496835Y-83009111D01*
X137262211Y-83448060D01*
X136946461Y-83832803D01*
X136561719Y-84148553D01*
X136122769Y-84383176D01*
X135646481Y-84527657D01*
X135151158Y-84576442D01*
X130373842Y-84576442D01*
X129878519Y-84527657D01*
G37*
G36*
X140967883Y-75473305D02*
G01*
X141162550Y-75485806D01*
X141488781Y-75552481D01*
X141707856Y-75692975D01*
X141788819Y-75935863D01*
X141707856Y-76178750D01*
X141486400Y-76319244D01*
X141160169Y-76385919D01*
X140967287Y-76398420D01*
X140760119Y-76402588D01*
X140552355Y-76398420D01*
X140357687Y-76385919D01*
X140031456Y-76319244D01*
X139812381Y-76178750D01*
X139731419Y-75935863D01*
X139812381Y-75695356D01*
X140033837Y-75552481D01*
X140360069Y-75485806D01*
X140552950Y-75473305D01*
X140760119Y-75469138D01*
X140967883Y-75473305D01*
G37*
G36*
X138862186Y-74495432D02*
G01*
X138972443Y-74131962D01*
X139151491Y-73796986D01*
X139392450Y-73503378D01*
X139686058Y-73262419D01*
X140021034Y-73083371D01*
X140384504Y-72973114D01*
X140762500Y-72935884D01*
X141140496Y-72973114D01*
X141503966Y-73083371D01*
X141838942Y-73262419D01*
X142132550Y-73503378D01*
X142373509Y-73796986D01*
X142552557Y-74131962D01*
X142662814Y-74495432D01*
X142700044Y-74873428D01*
X142700044Y-103201572D01*
X142662814Y-103579568D01*
X142552557Y-103943038D01*
X142373509Y-104278014D01*
X142132550Y-104571622D01*
X141838942Y-104812581D01*
X141503966Y-104991629D01*
X141140496Y-105101886D01*
X140762500Y-105139116D01*
X140384504Y-105101886D01*
X140021034Y-104991629D01*
X139686058Y-104812581D01*
X139392450Y-104571622D01*
X139151491Y-104278014D01*
X138972443Y-103943038D01*
X138862186Y-103579568D01*
X138824956Y-103201572D01*
X138824956Y-102424888D01*
X139283744Y-102424888D01*
X141745956Y-102424888D01*
X141745956Y-103201175D01*
X142231731Y-103201175D01*
X142231731Y-101058050D01*
X141745956Y-101058050D01*
X141745956Y-101834338D01*
X139283744Y-101834338D01*
X139283744Y-102424888D01*
X138824956Y-102424888D01*
X138824956Y-100638950D01*
X139283744Y-100638950D01*
X142231731Y-100638950D01*
X142231731Y-98853013D01*
X141745956Y-98853013D01*
X141745956Y-100053163D01*
X141083969Y-100053163D01*
X141083969Y-99010175D01*
X140598194Y-99010175D01*
X140598194Y-100053163D01*
X139769519Y-100053163D01*
X139769519Y-98748238D01*
X139283744Y-98748238D01*
X139283744Y-100638950D01*
X138824956Y-100638950D01*
X138824956Y-96824188D01*
X139283744Y-96824188D01*
X141574506Y-96795613D01*
X140326731Y-97157563D01*
X140326731Y-97586188D01*
X141574506Y-97933850D01*
X139283744Y-97910038D01*
X139283744Y-98448200D01*
X139652837Y-98433317D01*
X140036219Y-98417244D01*
X140425553Y-98399980D01*
X140812506Y-98381525D01*
X141192316Y-98360689D01*
X141560219Y-98336281D01*
X141909072Y-98308302D01*
X142231731Y-98276750D01*
X142231731Y-97790975D01*
X141974556Y-97707631D01*
X141636419Y-97600475D01*
X141269706Y-97486175D01*
X140926806Y-97376638D01*
X141291137Y-97257575D01*
X141653087Y-97138513D01*
X141979319Y-97033738D01*
X142231731Y-96948013D01*
X142231731Y-96462238D01*
X141850731Y-96429495D01*
X141479256Y-96397944D01*
X141114330Y-96369369D01*
X140752975Y-96345556D01*
X140392216Y-96325911D01*
X140029075Y-96309838D01*
X139660577Y-96296741D01*
X139283744Y-96286025D01*
X139283744Y-96824188D01*
X138824956Y-96824188D01*
X138824956Y-95919313D01*
X139283744Y-95919313D01*
X142193631Y-95919313D01*
X142226969Y-95726431D01*
X142248400Y-95509738D01*
X142260306Y-95295425D01*
X142265069Y-95109688D01*
X142239404Y-94763083D01*
X142162410Y-94472571D01*
X142034087Y-94238150D01*
X141847556Y-94066171D01*
X141595937Y-93962983D01*
X141279231Y-93928588D01*
X140959350Y-93963248D01*
X140704556Y-94067229D01*
X140514850Y-94240531D01*
X140383881Y-94477333D01*
X140305300Y-94771815D01*
X140279106Y-95123975D01*
X140279106Y-95333525D01*
X139283744Y-95333525D01*
X139283744Y-95919313D01*
X138824956Y-95919313D01*
X138824956Y-93257075D01*
X140217194Y-93257075D01*
X140793456Y-93257075D01*
X140793456Y-91952150D01*
X140217194Y-91952150D01*
X140217194Y-93257075D01*
X138824956Y-93257075D01*
X138824956Y-91018700D01*
X139283744Y-91018700D01*
X139769519Y-91018700D01*
X139769519Y-90399575D01*
X141417344Y-90399575D01*
X141248275Y-90704375D01*
X141131594Y-90994888D01*
X141617369Y-91185388D01*
X141726906Y-90937738D01*
X141874544Y-90671038D01*
X142045994Y-90418625D01*
X142231731Y-90213838D01*
X142231731Y-89813788D01*
X139769519Y-89813788D01*
X139769519Y-89228000D01*
X139283744Y-89228000D01*
X139283744Y-91018700D01*
X138824956Y-91018700D01*
X138824956Y-87413488D01*
X139283744Y-87413488D01*
X139595092Y-87518263D01*
X139929062Y-87623038D01*
X140266605Y-87727813D01*
X140588669Y-87832588D01*
X140275534Y-87939744D01*
X139936206Y-88051663D01*
X139596878Y-88161200D01*
X139283744Y-88261213D01*
X139283744Y-88746988D01*
X139622477Y-88782706D01*
X139981450Y-88813663D01*
X140352925Y-88840452D01*
X140729162Y-88863669D01*
X141108972Y-88883314D01*
X141491162Y-88899388D01*
X141867995Y-88912484D01*
X142231731Y-88923200D01*
X142231731Y-88380275D01*
X141945981Y-88385038D01*
X141650706Y-88389800D01*
X141351264Y-88394563D01*
X141053012Y-88399325D01*
X140758928Y-88404088D01*
X140471987Y-88408850D01*
X140197548Y-88412422D01*
X139940969Y-88413613D01*
X140274344Y-88315981D01*
X140631531Y-88211206D01*
X140955381Y-88118338D01*
X141188744Y-88051663D01*
X141188744Y-87623038D01*
X140964906Y-87565888D01*
X140669631Y-87482544D01*
X140321969Y-87382531D01*
X139940969Y-87275375D01*
X140197548Y-87276566D01*
X140471987Y-87280138D01*
X140758333Y-87284900D01*
X141050631Y-87289663D01*
X141347692Y-87294425D01*
X141648325Y-87299188D01*
X141945386Y-87302759D01*
X142231731Y-87303950D01*
X142231731Y-86761025D01*
X141864423Y-86775313D01*
X141486400Y-86789600D01*
X141104209Y-86805078D01*
X140724400Y-86822938D01*
X140348758Y-86843773D01*
X139979069Y-86868181D01*
X139621881Y-86896161D01*
X139283744Y-86927713D01*
X139283744Y-87413488D01*
X138824956Y-87413488D01*
X138824956Y-85475150D01*
X139221831Y-85475150D01*
X139235523Y-85688867D01*
X139276600Y-85882344D01*
X139433762Y-86196669D01*
X139686175Y-86399075D01*
X140021931Y-86470513D01*
X140239220Y-86444319D01*
X140443412Y-86365738D01*
X140629745Y-86231197D01*
X140793456Y-86037125D01*
X140941094Y-86213337D01*
X141098256Y-86322875D01*
X141441156Y-86399075D01*
X141738812Y-86349069D01*
X142017419Y-86189525D01*
X142222206Y-85899013D01*
X142282928Y-85696606D01*
X142303169Y-85451338D01*
X142250781Y-85070933D01*
X142093619Y-84777444D01*
X141848350Y-84589920D01*
X141531644Y-84527413D01*
X141328642Y-84552416D01*
X141129212Y-84627425D01*
X140947642Y-84756013D01*
X140798219Y-84941750D01*
X140633913Y-84710173D01*
X140455319Y-84558369D01*
X140260056Y-84474430D01*
X140045744Y-84446450D01*
X139755231Y-84501219D01*
X139490912Y-84677431D01*
X139298031Y-84994138D01*
X139240881Y-85212022D01*
X139221831Y-85475150D01*
X138824956Y-85475150D01*
X138824956Y-83732075D01*
X140217194Y-83732075D01*
X140793456Y-83732075D01*
X140793456Y-82427150D01*
X140217194Y-82427150D01*
X140217194Y-83732075D01*
X138824956Y-83732075D01*
X138824956Y-81631813D01*
X139283744Y-81631813D01*
X142193631Y-81631813D01*
X142226969Y-81438931D01*
X142248400Y-81222238D01*
X142260306Y-81007925D01*
X142265069Y-80822188D01*
X142239404Y-80475583D01*
X142162410Y-80185071D01*
X142034087Y-79950650D01*
X141847556Y-79778671D01*
X141595937Y-79675483D01*
X141279231Y-79641088D01*
X140959350Y-79675748D01*
X140704556Y-79779729D01*
X140514850Y-79953031D01*
X140383881Y-80189833D01*
X140305300Y-80484315D01*
X140279106Y-80836475D01*
X140279106Y-81046025D01*
X139283744Y-81046025D01*
X139283744Y-81631813D01*
X138824956Y-81631813D01*
X138824956Y-77793238D01*
X139283744Y-77793238D01*
X139564136Y-77911705D01*
X139833812Y-78048031D01*
X140099917Y-78198645D01*
X140369594Y-78359975D01*
X140369594Y-78664775D01*
X139283744Y-78664775D01*
X139283744Y-79250563D01*
X142188869Y-79250563D01*
X142224587Y-79062444D01*
X142248400Y-78855275D01*
X142260306Y-78655250D01*
X142265069Y-78488563D01*
X142250781Y-78248056D01*
X142207919Y-78031363D01*
X142135291Y-77840863D01*
X142031706Y-77678938D01*
X141729287Y-77452719D01*
X141529858Y-77393783D01*
X141298281Y-77374138D01*
X141053012Y-77400331D01*
X140831556Y-77478913D01*
X140647009Y-77618216D01*
X140512469Y-77826575D01*
X140238625Y-77655125D01*
X139924300Y-77478913D01*
X139595687Y-77314606D01*
X139283744Y-77178875D01*
X139283744Y-77793238D01*
X138824956Y-77793238D01*
X138824956Y-75931100D01*
X139221831Y-75931100D01*
X139264958Y-76249923D01*
X139394340Y-76514242D01*
X139609975Y-76724056D01*
X139827413Y-76843863D01*
X140091583Y-76929439D01*
X140402485Y-76980785D01*
X140760119Y-76997900D01*
X141117753Y-76980338D01*
X141428655Y-76927653D01*
X141692825Y-76839845D01*
X141910262Y-76716913D01*
X142125898Y-76505246D01*
X142255279Y-76244896D01*
X142298406Y-75935863D01*
X142255279Y-75617304D01*
X142125898Y-75353779D01*
X141910262Y-75145288D01*
X141692825Y-75026523D01*
X141428655Y-74941691D01*
X141117753Y-74890791D01*
X140760119Y-74873825D01*
X140402485Y-74891089D01*
X140091583Y-74942881D01*
X139827413Y-75029202D01*
X139609975Y-75150050D01*
X139394340Y-75359600D01*
X139264958Y-75619950D01*
X139221831Y-75931100D01*
X138824956Y-75931100D01*
X138824956Y-74873428D01*
X138862186Y-74495432D01*
G37*
G36*
X140221956Y-85034619D02*
G01*
X140352925Y-85148919D01*
X140471987Y-85351325D01*
X140598194Y-85646600D01*
X140352925Y-85851388D01*
X140093369Y-85922825D01*
X139805237Y-85787094D01*
X139707606Y-85465625D01*
X139810000Y-85125106D01*
X140055269Y-84998900D01*
X140221956Y-85034619D01*
G37*
G36*
X141503664Y-94563786D02*
G01*
X141648325Y-94669156D01*
X141728692Y-94832867D01*
X141755481Y-95043013D01*
X141753100Y-95188269D01*
X141741194Y-95333525D01*
X140788694Y-95333525D01*
X140788694Y-95095400D01*
X140816673Y-94848941D01*
X140900612Y-94671538D01*
X141052417Y-94564381D01*
X141283994Y-94528663D01*
X141503664Y-94563786D01*
G37*
G36*
X141503664Y-80276286D02*
G01*
X141648325Y-80381656D01*
X141728692Y-80545367D01*
X141755481Y-80755513D01*
X141753100Y-80900769D01*
X141741194Y-81046025D01*
X140788694Y-81046025D01*
X140788694Y-80807900D01*
X140816673Y-80561441D01*
X140900612Y-80384038D01*
X141052417Y-80276881D01*
X141283994Y-80241163D01*
X141503664Y-80276286D01*
G37*
G36*
X141734050Y-85191781D02*
G01*
X141817394Y-85460863D01*
X141731669Y-85729944D01*
X141479256Y-85846625D01*
X141207794Y-85737088D01*
X141100637Y-85585878D01*
X140988719Y-85351325D01*
X141229225Y-85141775D01*
X141484019Y-85079863D01*
X141734050Y-85191781D01*
G37*
G36*
X141505450Y-78005169D02*
G01*
X141645944Y-78112325D01*
X141728097Y-78277822D01*
X141755481Y-78488563D01*
X141753100Y-78569525D01*
X141741194Y-78664775D01*
X140855369Y-78664775D01*
X140855369Y-78536188D01*
X140884539Y-78277822D01*
X140972050Y-78102800D01*
X141303044Y-77969450D01*
X141505450Y-78005169D01*
G37*
G36*
X158901363Y-74524543D02*
G01*
X158425671Y-74380243D01*
X157987270Y-74145913D01*
X157603009Y-73830558D01*
X157287654Y-73446296D01*
X157053324Y-73007896D01*
X156982403Y-72774100D01*
X160454400Y-72774100D01*
X160549650Y-73278925D01*
X160841750Y-73682150D01*
X161062413Y-73834550D01*
X161330700Y-73948850D01*
X161646613Y-74020288D01*
X162010150Y-74044100D01*
X162321300Y-74025050D01*
X162626100Y-73977425D01*
X162889625Y-73910750D01*
X163070600Y-73840900D01*
X162911850Y-73193200D01*
X162556250Y-73320200D01*
X162313363Y-73363062D01*
X162016500Y-73377350D01*
X161638675Y-73326550D01*
X161403725Y-73196375D01*
X161286250Y-73015400D01*
X161254500Y-72805850D01*
X161308475Y-72504225D01*
X161524375Y-72269275D01*
X161984750Y-72116875D01*
X162329238Y-72076394D01*
X162765800Y-72062900D01*
X162708650Y-71535056D01*
X162664200Y-71018325D01*
X162630863Y-70515881D01*
X162607050Y-70030900D01*
X160600450Y-70030900D01*
X160600450Y-70678600D01*
X161953000Y-70678600D01*
X161984750Y-71104050D01*
X162016500Y-71466000D01*
X161536017Y-71530911D01*
X161144433Y-71657911D01*
X160841750Y-71847000D01*
X160626556Y-72096767D01*
X160497439Y-72405800D01*
X160454400Y-72774100D01*
X156982403Y-72774100D01*
X156909024Y-72532204D01*
X156860300Y-72037500D01*
X156909024Y-71542796D01*
X157053324Y-71067104D01*
X157287654Y-70628704D01*
X157603009Y-70244442D01*
X157987270Y-69929087D01*
X158425671Y-69694757D01*
X158901363Y-69550457D01*
X159396067Y-69501733D01*
X164128933Y-69501733D01*
X164623637Y-69550457D01*
X165099329Y-69694757D01*
X165537730Y-69929087D01*
X165921991Y-70244442D01*
X166237346Y-70628704D01*
X166471676Y-71067104D01*
X166615976Y-71542796D01*
X166664700Y-72037500D01*
X166615976Y-72532204D01*
X166471676Y-73007896D01*
X166237346Y-73446296D01*
X165921991Y-73830558D01*
X165537730Y-74145913D01*
X165099329Y-74380243D01*
X164623637Y-74524543D01*
X164128933Y-74573267D01*
X159396067Y-74573267D01*
X158901363Y-74524543D01*
G37*
G36*
X155962500Y-118837500D02*
G01*
X155962500Y-118337500D01*
X156462500Y-118337500D01*
X157962500Y-118337500D01*
X157962500Y-116837500D01*
X156462500Y-116837500D01*
X156462500Y-118337500D01*
X155962500Y-118337500D01*
X155962500Y-116337500D01*
X158462500Y-116337500D01*
X158462500Y-118837500D01*
X155962500Y-118837500D01*
G37*
G36*
X155962500Y-129837500D02*
G01*
X155962500Y-129337500D01*
X156462500Y-129337500D01*
X157962500Y-129337500D01*
X157962500Y-127837500D01*
X156462500Y-127837500D01*
X156462500Y-129337500D01*
X155962500Y-129337500D01*
X155962500Y-127337500D01*
X158462500Y-127337500D01*
X158462500Y-129837500D01*
X155962500Y-129837500D01*
G37*
G36*
X149860873Y-128821288D02*
G01*
X149712500Y-128837500D01*
X149612170Y-128842236D01*
X149511971Y-128892715D01*
X149470606Y-129040755D01*
X149462500Y-129337500D01*
X149460132Y-129538161D01*
X149434893Y-129738558D01*
X149360873Y-129821288D01*
X149212500Y-129837500D01*
X149112170Y-129832763D01*
X149011971Y-129782284D01*
X148970606Y-129634244D01*
X148962500Y-129337500D01*
X148960132Y-129136838D01*
X148934893Y-128936441D01*
X148860873Y-128853711D01*
X148712500Y-128837500D01*
X148612170Y-128842236D01*
X148511971Y-128892715D01*
X148470606Y-129040755D01*
X148462500Y-129337500D01*
X148460132Y-129538161D01*
X148434893Y-129738558D01*
X148360873Y-129821288D01*
X148212500Y-129837500D01*
X148166429Y-129836444D01*
X148003803Y-129777801D01*
X147962500Y-129587500D01*
X147961445Y-129541428D01*
X147902802Y-129378802D01*
X147712500Y-129337500D01*
X147612170Y-129332763D01*
X147511971Y-129282284D01*
X147470606Y-129134244D01*
X147462500Y-128837500D01*
X147464869Y-128636838D01*
X147490108Y-128436441D01*
X147564128Y-128353711D01*
X147712500Y-128337500D01*
X147758572Y-128338555D01*
X147921198Y-128397198D01*
X147962500Y-128587500D01*
X147963556Y-128633571D01*
X148022199Y-128796197D01*
X148212500Y-128837500D01*
X148258572Y-128836444D01*
X148421198Y-128777801D01*
X148462500Y-128587500D01*
X148962500Y-128587500D01*
X148963556Y-128633571D01*
X149022199Y-128796197D01*
X149212500Y-128837500D01*
X149258572Y-128836444D01*
X149421198Y-128777801D01*
X149462500Y-128587500D01*
X149461445Y-128541428D01*
X149402802Y-128378802D01*
X149212500Y-128337500D01*
X149166429Y-128338555D01*
X149003803Y-128397198D01*
X148962500Y-128587500D01*
X148462500Y-128587500D01*
X148463556Y-128541428D01*
X148522199Y-128378802D01*
X148712500Y-128337500D01*
X148812831Y-128332763D01*
X148913030Y-128282284D01*
X148954395Y-128134244D01*
X148962500Y-127837500D01*
X148964869Y-127636838D01*
X148990108Y-127436441D01*
X149064128Y-127353711D01*
X149212500Y-127337500D01*
X149258572Y-127338555D01*
X149421198Y-127397198D01*
X149462500Y-127587500D01*
X149463556Y-127633571D01*
X149522199Y-127796197D01*
X149712500Y-127837500D01*
X149812831Y-127842236D01*
X149913030Y-127892715D01*
X149954395Y-128040755D01*
X149962500Y-128337500D01*
X149960132Y-128538161D01*
X149953918Y-128587500D01*
X149934893Y-128738558D01*
X149860873Y-128821288D01*
G37*
G36*
X153663162Y-129339868D02*
G01*
X153863559Y-129365107D01*
X153946289Y-129439127D01*
X153962500Y-129587500D01*
X153957764Y-129687830D01*
X153907285Y-129788029D01*
X153759245Y-129829394D01*
X153462500Y-129837500D01*
X153261839Y-129835131D01*
X153061442Y-129809892D01*
X152978712Y-129735872D01*
X152962500Y-129587500D01*
X152967237Y-129487169D01*
X153017716Y-129386970D01*
X153165756Y-129345605D01*
X153462500Y-129337500D01*
X153663162Y-129339868D01*
G37*
G36*
X158163162Y-120339868D02*
G01*
X158363559Y-120365107D01*
X158446289Y-120439127D01*
X158462500Y-120587500D01*
X158457764Y-120687830D01*
X158407285Y-120788029D01*
X158259245Y-120829394D01*
X157962500Y-120837500D01*
X157761839Y-120835131D01*
X157561442Y-120809892D01*
X157478712Y-120735872D01*
X157462500Y-120587500D01*
X157467237Y-120487169D01*
X157517716Y-120386970D01*
X157665756Y-120345605D01*
X157962500Y-120337500D01*
X158163162Y-120339868D01*
G37*
G36*
X149902802Y-124296197D02*
G01*
X149712500Y-124337500D01*
X149612170Y-124342236D01*
X149511971Y-124392715D01*
X149470606Y-124540755D01*
X149462500Y-124837500D01*
X149464869Y-125038161D01*
X149490108Y-125238558D01*
X149564128Y-125321288D01*
X149712500Y-125337500D01*
X149758572Y-125336444D01*
X149921198Y-125277801D01*
X149962500Y-125087500D01*
X149963556Y-125041428D01*
X150022199Y-124878802D01*
X150212500Y-124837500D01*
X150258572Y-124838555D01*
X150421198Y-124897198D01*
X150462500Y-125087500D01*
X150461445Y-125133571D01*
X150402802Y-125296197D01*
X150212500Y-125337500D01*
X150124692Y-125340257D01*
X150032669Y-125374525D01*
X149984325Y-125482403D01*
X149965616Y-125706018D01*
X149962500Y-126087500D01*
X149963420Y-126350925D01*
X149974842Y-126626993D01*
X150010802Y-126772027D01*
X150085340Y-126828153D01*
X150212500Y-126837500D01*
X150258572Y-126838555D01*
X150421198Y-126897198D01*
X150462500Y-127087500D01*
X150461445Y-127133571D01*
X150402802Y-127296197D01*
X150212500Y-127337500D01*
X150166429Y-127336444D01*
X150003803Y-127277801D01*
X149962500Y-127087500D01*
X149957764Y-126987169D01*
X149907285Y-126886970D01*
X149759245Y-126845605D01*
X149462500Y-126837500D01*
X148962500Y-126837500D01*
X148962500Y-126337500D01*
X148960132Y-126136838D01*
X148934893Y-125936441D01*
X148860873Y-125853711D01*
X148712500Y-125837500D01*
X148666429Y-125836444D01*
X148503803Y-125777801D01*
X148462500Y-125587500D01*
X148461445Y-125541428D01*
X148402802Y-125378802D01*
X148212500Y-125337500D01*
X148462500Y-125337500D01*
X148712500Y-125337500D01*
X148812831Y-125332763D01*
X148913030Y-125282284D01*
X148954395Y-125134244D01*
X148962500Y-124837500D01*
X148964869Y-124636838D01*
X148990108Y-124436441D01*
X149064128Y-124353711D01*
X149212500Y-124337500D01*
X149258572Y-124336444D01*
X149421198Y-124277801D01*
X149462500Y-124087500D01*
X149461445Y-124041428D01*
X149402802Y-123878802D01*
X149212500Y-123837500D01*
X149166429Y-123836444D01*
X149003803Y-123777801D01*
X148962500Y-123587500D01*
X148961445Y-123541428D01*
X148902802Y-123378802D01*
X148712500Y-123337500D01*
X148462500Y-123337500D01*
X148462500Y-125337500D01*
X148212500Y-125337500D01*
X148166429Y-125338555D01*
X148003803Y-125397198D01*
X147962500Y-125587500D01*
X147957764Y-125687830D01*
X147907285Y-125788029D01*
X147759245Y-125829394D01*
X147462500Y-125837500D01*
X147261839Y-125835131D01*
X147061442Y-125809892D01*
X146978712Y-125735872D01*
X146962500Y-125587500D01*
X146963556Y-125541428D01*
X147022199Y-125378802D01*
X147212500Y-125337500D01*
X147258572Y-125336444D01*
X147421198Y-125277801D01*
X147462500Y-125087500D01*
X147459743Y-124999691D01*
X147425475Y-124907668D01*
X147317597Y-124859324D01*
X147093982Y-124840615D01*
X146712500Y-124837500D01*
X146449075Y-124836580D01*
X146173007Y-124825158D01*
X146027973Y-124789198D01*
X145971847Y-124714660D01*
X145962500Y-124587500D01*
X145961445Y-124541428D01*
X145902802Y-124378802D01*
X145712500Y-124337500D01*
X145666429Y-124338555D01*
X145503803Y-124397198D01*
X145462500Y-124587500D01*
X145461445Y-124633571D01*
X145402802Y-124796197D01*
X145212500Y-124837500D01*
X145166429Y-124836444D01*
X145003803Y-124777801D01*
X144962500Y-124587500D01*
X144963556Y-124541428D01*
X145022199Y-124378802D01*
X145212500Y-124337500D01*
X145300309Y-124334742D01*
X145392332Y-124300474D01*
X145440676Y-124192596D01*
X145459385Y-123968981D01*
X145462500Y-123587500D01*
X145962500Y-123587500D01*
X145963556Y-123633571D01*
X146022199Y-123796197D01*
X146212500Y-123837500D01*
X146258572Y-123836444D01*
X146421198Y-123777801D01*
X146462500Y-123587500D01*
X146463556Y-123541428D01*
X146522199Y-123378802D01*
X146712500Y-123337500D01*
X146758572Y-123336444D01*
X146921198Y-123277801D01*
X146962500Y-123087500D01*
X146961445Y-123041428D01*
X146902802Y-122878802D01*
X146712500Y-122837500D01*
X146666429Y-122838555D01*
X146503803Y-122897198D01*
X146462500Y-123087500D01*
X146461445Y-123133571D01*
X146402802Y-123296197D01*
X146212500Y-123337500D01*
X146166429Y-123338555D01*
X146003803Y-123397198D01*
X145962500Y-123587500D01*
X145462500Y-123587500D01*
X145461581Y-123324074D01*
X145450159Y-123048006D01*
X145414199Y-122902972D01*
X145339661Y-122846846D01*
X145212500Y-122837500D01*
X145166429Y-122836444D01*
X145003803Y-122777801D01*
X144962500Y-122587500D01*
X144963556Y-122541428D01*
X145022199Y-122378802D01*
X145212500Y-122337500D01*
X145312831Y-122332763D01*
X145413030Y-122282284D01*
X145454395Y-122134244D01*
X145462500Y-121837500D01*
X145464869Y-121636838D01*
X145490108Y-121436441D01*
X145564128Y-121353711D01*
X145712500Y-121337500D01*
X145758572Y-121336444D01*
X145921198Y-121277801D01*
X145962500Y-121087500D01*
X145963556Y-121041428D01*
X146022199Y-120878802D01*
X146212500Y-120837500D01*
X146258572Y-120838555D01*
X146421198Y-120897198D01*
X146462500Y-121087500D01*
X146461445Y-121133571D01*
X146402802Y-121296197D01*
X146212500Y-121337500D01*
X146112170Y-121342236D01*
X146011971Y-121392715D01*
X145970606Y-121540755D01*
X145962500Y-121837500D01*
X145960132Y-122038161D01*
X145934893Y-122238558D01*
X145860873Y-122321288D01*
X145712500Y-122337500D01*
X145666429Y-122338555D01*
X145503803Y-122397198D01*
X145462500Y-122587500D01*
X145467237Y-122687830D01*
X145517716Y-122788029D01*
X145665756Y-122829394D01*
X145962500Y-122837500D01*
X146462500Y-122837500D01*
X146462500Y-122337500D01*
X146464869Y-122136838D01*
X146490108Y-121936441D01*
X146564128Y-121853711D01*
X146712500Y-121837500D01*
X146758572Y-121836444D01*
X146921198Y-121777801D01*
X146962500Y-121587500D01*
X146967237Y-121487169D01*
X147017716Y-121386970D01*
X147165756Y-121345605D01*
X147462500Y-121337500D01*
X147962500Y-121337500D01*
X147962500Y-120837500D01*
X147964869Y-120636838D01*
X147990108Y-120436441D01*
X148064128Y-120353711D01*
X148212500Y-120337500D01*
X148300309Y-120340257D01*
X148392332Y-120374525D01*
X148440676Y-120482403D01*
X148459385Y-120706018D01*
X148462500Y-121087500D01*
X148462500Y-121837500D01*
X147962500Y-121837500D01*
X147761839Y-121839868D01*
X147561442Y-121865107D01*
X147478712Y-121939127D01*
X147462500Y-122087500D01*
X147461445Y-122133571D01*
X147402802Y-122296197D01*
X147212500Y-122337500D01*
X147166429Y-122338555D01*
X147003803Y-122397198D01*
X146962500Y-122587500D01*
X146963556Y-122633571D01*
X147022199Y-122796197D01*
X147212500Y-122837500D01*
X147258572Y-122838555D01*
X147421198Y-122897198D01*
X147462500Y-123087500D01*
X147461445Y-123133571D01*
X147402802Y-123296197D01*
X147212500Y-123337500D01*
X147112170Y-123342236D01*
X147011971Y-123392715D01*
X146970606Y-123540755D01*
X146962500Y-123837500D01*
X146964869Y-124038161D01*
X146990108Y-124238558D01*
X147064128Y-124321288D01*
X147212500Y-124337500D01*
X147258572Y-124338555D01*
X147421198Y-124397198D01*
X147462500Y-124587500D01*
X147463556Y-124633571D01*
X147522199Y-124796197D01*
X147712500Y-124837500D01*
X147800309Y-124834742D01*
X147892332Y-124800474D01*
X147940676Y-124692596D01*
X147959385Y-124468981D01*
X147962500Y-124087500D01*
X147963420Y-123824074D01*
X147974842Y-123548006D01*
X148010802Y-123402972D01*
X148085340Y-123346846D01*
X148212500Y-123337500D01*
X148258572Y-123336444D01*
X148421198Y-123277801D01*
X148462500Y-123087500D01*
X148461445Y-123041428D01*
X148402802Y-122878802D01*
X148212500Y-122837500D01*
X148166429Y-122836444D01*
X148003803Y-122777801D01*
X147962500Y-122587500D01*
X147965258Y-122499691D01*
X147999526Y-122407668D01*
X148107404Y-122359324D01*
X148331019Y-122340615D01*
X148712500Y-122337500D01*
X148975926Y-122336580D01*
X149251994Y-122325158D01*
X149397028Y-122289198D01*
X149453154Y-122214660D01*
X149462500Y-122087500D01*
X149461445Y-122041428D01*
X149402802Y-121878802D01*
X149212500Y-121837500D01*
X149124692Y-121834742D01*
X149032669Y-121800474D01*
X148984325Y-121692596D01*
X148965616Y-121468981D01*
X148962500Y-121087500D01*
X148963420Y-120824074D01*
X148974842Y-120548006D01*
X149010802Y-120402972D01*
X149085340Y-120346846D01*
X149212500Y-120337500D01*
X149258572Y-120336444D01*
X149421198Y-120277801D01*
X149462500Y-120087500D01*
X149463556Y-120041428D01*
X149522199Y-119878802D01*
X149712500Y-119837500D01*
X149758572Y-119838555D01*
X149921198Y-119897198D01*
X149962500Y-120087500D01*
X149961445Y-120133571D01*
X149902802Y-120296197D01*
X149712500Y-120337500D01*
X149612170Y-120342236D01*
X149511971Y-120392715D01*
X149470606Y-120540755D01*
X149462500Y-120837500D01*
X149464869Y-121038161D01*
X149490108Y-121238558D01*
X149564128Y-121321288D01*
X149712500Y-121337500D01*
X149812831Y-121342236D01*
X149913030Y-121392715D01*
X149954395Y-121540755D01*
X149962500Y-121837500D01*
X149960132Y-122038161D01*
X149934893Y-122238558D01*
X149860873Y-122321288D01*
X149712500Y-122337500D01*
X149624692Y-122340257D01*
X149532669Y-122374525D01*
X149484325Y-122482403D01*
X149465616Y-122706018D01*
X149462500Y-123087500D01*
X149463420Y-123350925D01*
X149474842Y-123626993D01*
X149510802Y-123772027D01*
X149585340Y-123828153D01*
X149712500Y-123837500D01*
X149758572Y-123838555D01*
X149921198Y-123897198D01*
X149962500Y-124087500D01*
X149961445Y-124133571D01*
X149902802Y-124296197D01*
G37*
G36*
X144962500Y-118837500D02*
G01*
X144962500Y-118337500D01*
X145462500Y-118337500D01*
X146962500Y-118337500D01*
X146962500Y-116837500D01*
X145462500Y-116837500D01*
X145462500Y-118337500D01*
X144962500Y-118337500D01*
X144962500Y-116337500D01*
X147462500Y-116337500D01*
X147462500Y-118837500D01*
X144962500Y-118837500D01*
G37*
G36*
X146962500Y-127837500D02*
G01*
X146962500Y-127087500D01*
X147462500Y-127087500D01*
X147463556Y-127133571D01*
X147522199Y-127296197D01*
X147712500Y-127337500D01*
X147758572Y-127336444D01*
X147921198Y-127277801D01*
X147962500Y-127087500D01*
X147961445Y-127041428D01*
X147902802Y-126878802D01*
X147712500Y-126837500D01*
X147666429Y-126838555D01*
X147503803Y-126897198D01*
X147462500Y-127087500D01*
X146962500Y-127087500D01*
X146962500Y-126337500D01*
X148462500Y-126337500D01*
X148462500Y-127837500D01*
X146962500Y-127837500D01*
G37*
G36*
X153907285Y-123288029D02*
G01*
X153759245Y-123329394D01*
X153462500Y-123337500D01*
X153261839Y-123339868D01*
X153061442Y-123365107D01*
X152978712Y-123439127D01*
X152962500Y-123587500D01*
X152962500Y-123837500D01*
X155462500Y-123837500D01*
X155462500Y-123587500D01*
X155457764Y-123487169D01*
X155407285Y-123386970D01*
X155259245Y-123345605D01*
X154962500Y-123337500D01*
X154761839Y-123335131D01*
X154561442Y-123309892D01*
X154478712Y-123235872D01*
X154462500Y-123087500D01*
X155462500Y-123087500D01*
X155463556Y-123133571D01*
X155522199Y-123296197D01*
X155712500Y-123337500D01*
X155758572Y-123336444D01*
X155921198Y-123277801D01*
X155962500Y-123087500D01*
X155961445Y-123041428D01*
X155902802Y-122878802D01*
X155712500Y-122837500D01*
X155666429Y-122838555D01*
X155503803Y-122897198D01*
X155462500Y-123087500D01*
X154462500Y-123087500D01*
X154463556Y-123041428D01*
X154522199Y-122878802D01*
X154712500Y-122837500D01*
X154812831Y-122832763D01*
X154913030Y-122782284D01*
X154954395Y-122634244D01*
X154962500Y-122337500D01*
X154960132Y-122136838D01*
X154934893Y-121936441D01*
X154860873Y-121853711D01*
X154712500Y-121837500D01*
X154666429Y-121838555D01*
X154503803Y-121897198D01*
X154462500Y-122087500D01*
X154461445Y-122133571D01*
X154402802Y-122296197D01*
X154212500Y-122337500D01*
X154166429Y-122336444D01*
X154003803Y-122277801D01*
X153962500Y-122087500D01*
X153963556Y-122041428D01*
X154022199Y-121878802D01*
X154212500Y-121837500D01*
X154258572Y-121836444D01*
X154421198Y-121777801D01*
X154462500Y-121587500D01*
X154962500Y-121587500D01*
X154963556Y-121633571D01*
X155022199Y-121796197D01*
X155212500Y-121837500D01*
X155258572Y-121836444D01*
X155421198Y-121777801D01*
X155462500Y-121587500D01*
X155461445Y-121541428D01*
X155402802Y-121378802D01*
X155212500Y-121337500D01*
X155166429Y-121338555D01*
X155003803Y-121397198D01*
X154962500Y-121587500D01*
X154462500Y-121587500D01*
X154461445Y-121541428D01*
X154402802Y-121378802D01*
X154212500Y-121337500D01*
X154166429Y-121336444D01*
X154003803Y-121277801D01*
X153962500Y-121087500D01*
X153963556Y-121041428D01*
X154022199Y-120878802D01*
X154212500Y-120837500D01*
X154258572Y-120836444D01*
X154421198Y-120777801D01*
X154462500Y-120587500D01*
X154463556Y-120541428D01*
X154522199Y-120378802D01*
X154712500Y-120337500D01*
X154758572Y-120338555D01*
X154921198Y-120397198D01*
X154962500Y-120587500D01*
X154963556Y-120633571D01*
X155022199Y-120796197D01*
X155212500Y-120837500D01*
X155258572Y-120836444D01*
X155421198Y-120777801D01*
X155462500Y-120587500D01*
X155465258Y-120499691D01*
X155499526Y-120407668D01*
X155607404Y-120359324D01*
X155831019Y-120340615D01*
X156212500Y-120337500D01*
X156962500Y-120337500D01*
X156962500Y-120837500D01*
X156964869Y-121038161D01*
X156990108Y-121238558D01*
X157064128Y-121321288D01*
X157212500Y-121337500D01*
X157258572Y-121338555D01*
X157421198Y-121397198D01*
X157462500Y-121587500D01*
X157463556Y-121633571D01*
X157522199Y-121796197D01*
X157712500Y-121837500D01*
X157758572Y-121836444D01*
X157921198Y-121777801D01*
X157962500Y-121587500D01*
X157963556Y-121541428D01*
X158022199Y-121378802D01*
X158212500Y-121337500D01*
X158258572Y-121338555D01*
X158421198Y-121397198D01*
X158462500Y-121587500D01*
X158461445Y-121633571D01*
X158402802Y-121796197D01*
X158212500Y-121837500D01*
X158166429Y-121838555D01*
X158003803Y-121897198D01*
X157962500Y-122087500D01*
X157957764Y-122187830D01*
X157907285Y-122288029D01*
X157759245Y-122329394D01*
X157462500Y-122337500D01*
X157261839Y-122335131D01*
X157061442Y-122309892D01*
X156978712Y-122235872D01*
X156962500Y-122087500D01*
X156961445Y-122041428D01*
X156902802Y-121878802D01*
X156712500Y-121837500D01*
X156612170Y-121832763D01*
X156511971Y-121782284D01*
X156470606Y-121634244D01*
X156462500Y-121337500D01*
X156462500Y-120837500D01*
X155962500Y-120837500D01*
X155761839Y-120839868D01*
X155561442Y-120865107D01*
X155478712Y-120939127D01*
X155462500Y-121087500D01*
X155463556Y-121133571D01*
X155522199Y-121296197D01*
X155712500Y-121337500D01*
X155758572Y-121338555D01*
X155921198Y-121397198D01*
X155962500Y-121587500D01*
X155961445Y-121633571D01*
X155902802Y-121796197D01*
X155712500Y-121837500D01*
X155666429Y-121838555D01*
X155503803Y-121897198D01*
X155462500Y-122087500D01*
X155467237Y-122187830D01*
X155517716Y-122288029D01*
X155665756Y-122329394D01*
X155962500Y-122337500D01*
X156163162Y-122339868D01*
X156363559Y-122365107D01*
X156446289Y-122439127D01*
X156462500Y-122587500D01*
X156463556Y-122633571D01*
X156522199Y-122796197D01*
X156712500Y-122837500D01*
X156758572Y-122838555D01*
X156921198Y-122897198D01*
X156962500Y-123087500D01*
X156961445Y-123133571D01*
X156902802Y-123296197D01*
X156712500Y-123337500D01*
X156666429Y-123338555D01*
X156503803Y-123397198D01*
X156462500Y-123587500D01*
X156457764Y-123687830D01*
X156407285Y-123788029D01*
X156259245Y-123829394D01*
X155962500Y-123837500D01*
X155761839Y-123839868D01*
X155561442Y-123865107D01*
X155478712Y-123939127D01*
X155462500Y-124087500D01*
X155463556Y-124133571D01*
X155522199Y-124296197D01*
X155712500Y-124337500D01*
X155758572Y-124338555D01*
X155921198Y-124397198D01*
X155962500Y-124587500D01*
X155959743Y-124675308D01*
X155925475Y-124767331D01*
X155817597Y-124815675D01*
X155593982Y-124834384D01*
X155212500Y-124837500D01*
X154949075Y-124838419D01*
X154673007Y-124849841D01*
X154527973Y-124885801D01*
X154471847Y-124960339D01*
X154462500Y-125087500D01*
X154461445Y-125133571D01*
X154402802Y-125296197D01*
X154212500Y-125337500D01*
X154112170Y-125342236D01*
X154011971Y-125392715D01*
X153970606Y-125540755D01*
X153962500Y-125837500D01*
X153964869Y-126038161D01*
X153990108Y-126238558D01*
X154064128Y-126321288D01*
X154212500Y-126337500D01*
X154258572Y-126338555D01*
X154421198Y-126397198D01*
X154462500Y-126587500D01*
X154461445Y-126633571D01*
X154402802Y-126796197D01*
X154212500Y-126837500D01*
X154166429Y-126836444D01*
X154003803Y-126777801D01*
X153962500Y-126587500D01*
X153961445Y-126541428D01*
X153902802Y-126378802D01*
X153712500Y-126337500D01*
X153666429Y-126336444D01*
X153503803Y-126277801D01*
X153462500Y-126087500D01*
X153461445Y-126041428D01*
X153402802Y-125878802D01*
X153212500Y-125837500D01*
X153112170Y-125842236D01*
X153011971Y-125892715D01*
X152970606Y-126040755D01*
X152962500Y-126337500D01*
X152964869Y-126538161D01*
X152990108Y-126738558D01*
X153064128Y-126821288D01*
X153212500Y-126837500D01*
X153258572Y-126838555D01*
X153421198Y-126897198D01*
X153462500Y-127087500D01*
X153463556Y-127133571D01*
X153522199Y-127296197D01*
X153712500Y-127337500D01*
X153758572Y-127338555D01*
X153921198Y-127397198D01*
X153962500Y-127587500D01*
X153961445Y-127633571D01*
X153902802Y-127796197D01*
X153712500Y-127837500D01*
X153666429Y-127838555D01*
X153503803Y-127897198D01*
X153462500Y-128087500D01*
X153461445Y-128133571D01*
X153402802Y-128296197D01*
X153212500Y-128337500D01*
X153166429Y-128336444D01*
X153003803Y-128277801D01*
X152962500Y-128087500D01*
X152961445Y-128041428D01*
X152902802Y-127878802D01*
X152712500Y-127837500D01*
X152666429Y-127838555D01*
X152503803Y-127897198D01*
X152462500Y-128087500D01*
X152461445Y-128133571D01*
X152402802Y-128296197D01*
X152212500Y-128337500D01*
X152166429Y-128338555D01*
X152003803Y-128397198D01*
X151962500Y-128587500D01*
X151963556Y-128633571D01*
X152022199Y-128796197D01*
X152212500Y-128837500D01*
X152258572Y-128838555D01*
X152421198Y-128897198D01*
X152462500Y-129087500D01*
X152461445Y-129133571D01*
X152402802Y-129296197D01*
X152212500Y-129337500D01*
X152166429Y-129336444D01*
X152003803Y-129277801D01*
X151962500Y-129087500D01*
X151961445Y-129041428D01*
X151902802Y-128878802D01*
X151712500Y-128837500D01*
X151666429Y-128838555D01*
X151503803Y-128897198D01*
X151462500Y-129087500D01*
X151457764Y-129187830D01*
X151407285Y-129288029D01*
X151259245Y-129329394D01*
X150962500Y-129337500D01*
X150462500Y-129337500D01*
X150462500Y-128337500D01*
X150962500Y-128337500D01*
X151163162Y-128335131D01*
X151363559Y-128309892D01*
X151446289Y-128235872D01*
X151462500Y-128087500D01*
X151461445Y-128041428D01*
X151402802Y-127878802D01*
X151212500Y-127837500D01*
X151124692Y-127834742D01*
X151032669Y-127800474D01*
X150984325Y-127692596D01*
X150975532Y-127587500D01*
X152962500Y-127587500D01*
X152963556Y-127633571D01*
X153022199Y-127796197D01*
X153212500Y-127837500D01*
X153258572Y-127836444D01*
X153421198Y-127777801D01*
X153462500Y-127587500D01*
X153461445Y-127541428D01*
X153402802Y-127378802D01*
X153212500Y-127337500D01*
X153166429Y-127338555D01*
X153003803Y-127397198D01*
X152962500Y-127587500D01*
X150975532Y-127587500D01*
X150965616Y-127468981D01*
X150962500Y-127087500D01*
X151962500Y-127087500D01*
X151963556Y-127133571D01*
X152022199Y-127296197D01*
X152212500Y-127337500D01*
X152258572Y-127336444D01*
X152421198Y-127277801D01*
X152462500Y-127087500D01*
X152461445Y-127041428D01*
X152402802Y-126878802D01*
X152212500Y-126837500D01*
X152166429Y-126838555D01*
X152003803Y-126897198D01*
X151962500Y-127087500D01*
X150962500Y-127087500D01*
X150963420Y-126824074D01*
X150974842Y-126548006D01*
X151010802Y-126402972D01*
X151085340Y-126346846D01*
X151212500Y-126337500D01*
X151258572Y-126338555D01*
X151421198Y-126397198D01*
X151462500Y-126587500D01*
X151463556Y-126633571D01*
X151522199Y-126796197D01*
X151712500Y-126837500D01*
X151812831Y-126832763D01*
X151913030Y-126782284D01*
X151954395Y-126634244D01*
X151962500Y-126337500D01*
X151962500Y-125837500D01*
X152462500Y-125837500D01*
X152663162Y-125835131D01*
X152863559Y-125809892D01*
X152946289Y-125735872D01*
X152962500Y-125587500D01*
X152963556Y-125541428D01*
X153022199Y-125378802D01*
X153212500Y-125337500D01*
X153312831Y-125332763D01*
X153413030Y-125282284D01*
X153454395Y-125134244D01*
X153462500Y-124837500D01*
X153460132Y-124636838D01*
X153434893Y-124436441D01*
X153360873Y-124353711D01*
X153212500Y-124337500D01*
X153166429Y-124336444D01*
X153003803Y-124277801D01*
X152962500Y-124087500D01*
X152961445Y-124041428D01*
X152902802Y-123878802D01*
X152712500Y-123837500D01*
X152666429Y-123838555D01*
X152503803Y-123897198D01*
X152462500Y-124087500D01*
X152461445Y-124133571D01*
X152402802Y-124296197D01*
X152212500Y-124337500D01*
X152166429Y-124338555D01*
X152003803Y-124397198D01*
X151962500Y-124587500D01*
X151963556Y-124633571D01*
X152022199Y-124796197D01*
X152212500Y-124837500D01*
X152258572Y-124838555D01*
X152421198Y-124897198D01*
X152462500Y-125087500D01*
X152461445Y-125133571D01*
X152402802Y-125296197D01*
X152212500Y-125337500D01*
X152166429Y-125336444D01*
X152003803Y-125277801D01*
X151962500Y-125087500D01*
X151961445Y-125041428D01*
X151902802Y-124878802D01*
X151712500Y-124837500D01*
X151666429Y-124838555D01*
X151503803Y-124897198D01*
X151462500Y-125087500D01*
X151461445Y-125133571D01*
X151402802Y-125296197D01*
X151212500Y-125337500D01*
X151112170Y-125332763D01*
X151011971Y-125282284D01*
X150970606Y-125134244D01*
X150962500Y-124837500D01*
X150960132Y-124636838D01*
X150934893Y-124436441D01*
X150860873Y-124353711D01*
X150712500Y-124337500D01*
X150666429Y-124336444D01*
X150503803Y-124277801D01*
X150462500Y-124087500D01*
X150467237Y-123987169D01*
X150517716Y-123886970D01*
X150665756Y-123845605D01*
X150962500Y-123837500D01*
X151163162Y-123835131D01*
X151363559Y-123809892D01*
X151446289Y-123735872D01*
X151462500Y-123587500D01*
X151461445Y-123541428D01*
X151402802Y-123378802D01*
X151212500Y-123337500D01*
X151166429Y-123336444D01*
X151003803Y-123277801D01*
X150962500Y-123087500D01*
X151962500Y-123087500D01*
X151963556Y-123133571D01*
X152022199Y-123296197D01*
X152212500Y-123337500D01*
X152258572Y-123336444D01*
X152421198Y-123277801D01*
X152462500Y-123087500D01*
X152461445Y-123041428D01*
X152402802Y-122878802D01*
X152212500Y-122837500D01*
X152166429Y-122838555D01*
X152003803Y-122897198D01*
X151962500Y-123087500D01*
X150962500Y-123087500D01*
X150961445Y-123041428D01*
X150902802Y-122878802D01*
X150712500Y-122837500D01*
X150666429Y-122836444D01*
X150503803Y-122777801D01*
X150462500Y-122587500D01*
X150465258Y-122499691D01*
X150499526Y-122407668D01*
X150607404Y-122359324D01*
X150831019Y-122340615D01*
X151212500Y-122337500D01*
X151475926Y-122336580D01*
X151751994Y-122325158D01*
X151897028Y-122289198D01*
X151953154Y-122214660D01*
X151962500Y-122087500D01*
X151957764Y-121987169D01*
X151907285Y-121886970D01*
X151759245Y-121845605D01*
X151462500Y-121837500D01*
X151261839Y-121835131D01*
X151061442Y-121809892D01*
X150978712Y-121735872D01*
X150962500Y-121587500D01*
X150961445Y-121541428D01*
X150902802Y-121378802D01*
X150712500Y-121337500D01*
X150666429Y-121336444D01*
X150503803Y-121277801D01*
X150462500Y-121087500D01*
X150463556Y-121041428D01*
X150522199Y-120878802D01*
X150712500Y-120837500D01*
X150758572Y-120836444D01*
X150921198Y-120777801D01*
X150962500Y-120587500D01*
X150961445Y-120541428D01*
X150902802Y-120378802D01*
X150712500Y-120337500D01*
X150666429Y-120336444D01*
X150503803Y-120277801D01*
X150462500Y-120087500D01*
X151462500Y-120087500D01*
X151463556Y-120133571D01*
X151522199Y-120296197D01*
X151712500Y-120337500D01*
X151758572Y-120336444D01*
X151921198Y-120277801D01*
X151962500Y-120087500D01*
X151963556Y-120041428D01*
X152022199Y-119878802D01*
X152212500Y-119837500D01*
X152258572Y-119836444D01*
X152421198Y-119777801D01*
X152462500Y-119587500D01*
X152461445Y-119541428D01*
X152402802Y-119378802D01*
X152212500Y-119337500D01*
X152166429Y-119338555D01*
X152003803Y-119397198D01*
X151962500Y-119587500D01*
X151961445Y-119633571D01*
X151902802Y-119796197D01*
X151712500Y-119837500D01*
X151666429Y-119838555D01*
X151503803Y-119897198D01*
X151462500Y-120087500D01*
X150462500Y-120087500D01*
X150463556Y-120041428D01*
X150522199Y-119878802D01*
X150712500Y-119837500D01*
X150812831Y-119832763D01*
X150913030Y-119782284D01*
X150954395Y-119634244D01*
X150962500Y-119337500D01*
X150960132Y-119136838D01*
X150934893Y-118936441D01*
X150860873Y-118853711D01*
X150712500Y-118837500D01*
X150666429Y-118838555D01*
X150503803Y-118897198D01*
X150462500Y-119087500D01*
X150461445Y-119133571D01*
X150402802Y-119296197D01*
X150212500Y-119337500D01*
X150166429Y-119336444D01*
X150003803Y-119277801D01*
X149962500Y-119087500D01*
X149963556Y-119041428D01*
X150022199Y-118878802D01*
X150212500Y-118837500D01*
X150258572Y-118836444D01*
X150421198Y-118777801D01*
X150462500Y-118587500D01*
X150461445Y-118541428D01*
X150402802Y-118378802D01*
X150212500Y-118337500D01*
X150112170Y-118332763D01*
X150011971Y-118282284D01*
X149970606Y-118134244D01*
X149962500Y-117837500D01*
X149962500Y-117337500D01*
X149462500Y-117337500D01*
X149261839Y-117335131D01*
X149061442Y-117309892D01*
X148978712Y-117235872D01*
X148962500Y-117087500D01*
X148963556Y-117041428D01*
X149022199Y-116878802D01*
X149212500Y-116837500D01*
X149258572Y-116836444D01*
X149421198Y-116777801D01*
X149462500Y-116587500D01*
X149465258Y-116499691D01*
X149499526Y-116407668D01*
X149607404Y-116359324D01*
X149831019Y-116340615D01*
X150212500Y-116337500D01*
X150475926Y-116338419D01*
X150751994Y-116349841D01*
X150897028Y-116385801D01*
X150953154Y-116460339D01*
X150962500Y-116587500D01*
X150963556Y-116633571D01*
X151022199Y-116796197D01*
X151212500Y-116837500D01*
X151258572Y-116838555D01*
X151421198Y-116897198D01*
X151462500Y-117087500D01*
X151457764Y-117187830D01*
X151407285Y-117288029D01*
X151259245Y-117329394D01*
X150962500Y-117337500D01*
X150462500Y-117337500D01*
X150462500Y-117837500D01*
X150464869Y-118038161D01*
X150490108Y-118238558D01*
X150564128Y-118321288D01*
X150712500Y-118337500D01*
X150758572Y-118338555D01*
X150921198Y-118397198D01*
X150962500Y-118587500D01*
X150963556Y-118633571D01*
X151022199Y-118796197D01*
X151212500Y-118837500D01*
X151258572Y-118838555D01*
X151421198Y-118897198D01*
X151462500Y-119087500D01*
X151463556Y-119133571D01*
X151522199Y-119296197D01*
X151712500Y-119337500D01*
X151758572Y-119336444D01*
X151921198Y-119277801D01*
X151962500Y-119087500D01*
X151963556Y-119041428D01*
X152022199Y-118878802D01*
X152212500Y-118837500D01*
X152258572Y-118838555D01*
X152421198Y-118897198D01*
X152462500Y-119087500D01*
X152463556Y-119133571D01*
X152522199Y-119296197D01*
X152712500Y-119337500D01*
X152758572Y-119336444D01*
X152921198Y-119277801D01*
X152962500Y-119087500D01*
X152963556Y-119041428D01*
X153022199Y-118878802D01*
X153212500Y-118837500D01*
X153258572Y-118838555D01*
X153421198Y-118897198D01*
X153462500Y-119087500D01*
X153461445Y-119133571D01*
X153402802Y-119296197D01*
X153212500Y-119337500D01*
X153166429Y-119338555D01*
X153003803Y-119397198D01*
X152962500Y-119587500D01*
X152961445Y-119633571D01*
X152902802Y-119796197D01*
X152712500Y-119837500D01*
X152612170Y-119842236D01*
X152511971Y-119892715D01*
X152470606Y-120040755D01*
X152462500Y-120337500D01*
X152462500Y-120837500D01*
X151962500Y-120837500D01*
X151761839Y-120839868D01*
X151561442Y-120865107D01*
X151478712Y-120939127D01*
X151462500Y-121087500D01*
X151463556Y-121133571D01*
X151522199Y-121296197D01*
X151712500Y-121337500D01*
X151758572Y-121338555D01*
X151921198Y-121397198D01*
X151962500Y-121587500D01*
X151967237Y-121687830D01*
X152017716Y-121788029D01*
X152165756Y-121829394D01*
X152462500Y-121837500D01*
X152663162Y-121835131D01*
X152863559Y-121809892D01*
X152946289Y-121735872D01*
X152962500Y-121587500D01*
X152963556Y-121541428D01*
X153022199Y-121378802D01*
X153212500Y-121337500D01*
X153258572Y-121338555D01*
X153421198Y-121397198D01*
X153462500Y-121587500D01*
X153461445Y-121633571D01*
X153402802Y-121796197D01*
X153212500Y-121837500D01*
X153112170Y-121842236D01*
X153011971Y-121892715D01*
X152970606Y-122040755D01*
X152962500Y-122337500D01*
X152962500Y-122837500D01*
X153462500Y-122837500D01*
X153663162Y-122839868D01*
X153863559Y-122865107D01*
X153946289Y-122939127D01*
X153962500Y-123087500D01*
X153957764Y-123187830D01*
X153907285Y-123288029D01*
G37*
G36*
X145258572Y-128838555D02*
G01*
X145421198Y-128897198D01*
X145462500Y-129087500D01*
X145461445Y-129133571D01*
X145402802Y-129296197D01*
X145212500Y-129337500D01*
X145166429Y-129336444D01*
X145003803Y-129277801D01*
X144962500Y-129087500D01*
X144963556Y-129041428D01*
X145022199Y-128878802D01*
X145212500Y-128837500D01*
X145258572Y-128838555D01*
G37*
G36*
X149258572Y-118838555D02*
G01*
X149421198Y-118897198D01*
X149462500Y-119087500D01*
X149461445Y-119133571D01*
X149402802Y-119296197D01*
X149212500Y-119337500D01*
X149166429Y-119336444D01*
X149003803Y-119277801D01*
X148962500Y-119087500D01*
X148963556Y-119041428D01*
X149022199Y-118878802D01*
X149212500Y-118837500D01*
X149258572Y-118838555D01*
G37*
G36*
X143962500Y-130837500D02*
G01*
X143962500Y-130087500D01*
X144462500Y-130087500D01*
X144467237Y-130187830D01*
X144517716Y-130288029D01*
X144665756Y-130329394D01*
X144962500Y-130337500D01*
X145462500Y-130337500D01*
X145462500Y-129837500D01*
X145464869Y-129636838D01*
X145490108Y-129436441D01*
X145564128Y-129353711D01*
X145712500Y-129337500D01*
X145758572Y-129336444D01*
X145921198Y-129277801D01*
X145962500Y-129087500D01*
X145961445Y-129041428D01*
X145902802Y-128878802D01*
X145712500Y-128837500D01*
X145612170Y-128832763D01*
X145511971Y-128782284D01*
X145470606Y-128634244D01*
X145462500Y-128337500D01*
X145460132Y-128136838D01*
X145434893Y-127936441D01*
X145360873Y-127853711D01*
X145212500Y-127837500D01*
X145166429Y-127836444D01*
X145003803Y-127777801D01*
X144962500Y-127587500D01*
X144963556Y-127541428D01*
X145022199Y-127378802D01*
X145212500Y-127337500D01*
X145258572Y-127336444D01*
X145421198Y-127277801D01*
X145462500Y-127087500D01*
X145463556Y-127041428D01*
X145522199Y-126878802D01*
X145712500Y-126837500D01*
X145758572Y-126838555D01*
X145921198Y-126897198D01*
X145962500Y-127087500D01*
X145963556Y-127133571D01*
X146022199Y-127296197D01*
X146212500Y-127337500D01*
X146258572Y-127338555D01*
X146421198Y-127397198D01*
X146462500Y-127587500D01*
X146461445Y-127633571D01*
X146402802Y-127796197D01*
X146212500Y-127837500D01*
X146166429Y-127838555D01*
X146003803Y-127897198D01*
X145962500Y-128087500D01*
X145963556Y-128133571D01*
X146022199Y-128296197D01*
X146212500Y-128337500D01*
X146312831Y-128342236D01*
X146413030Y-128392715D01*
X146454395Y-128540755D01*
X146462500Y-128837500D01*
X146462500Y-129337500D01*
X146962500Y-129337500D01*
X147163162Y-129339868D01*
X147363559Y-129365107D01*
X147446289Y-129439127D01*
X147462500Y-129587500D01*
X147457764Y-129687830D01*
X147407285Y-129788029D01*
X147259245Y-129829394D01*
X146962500Y-129837500D01*
X146761839Y-129839868D01*
X146561442Y-129865107D01*
X146478712Y-129939127D01*
X146462500Y-130087500D01*
X146462500Y-130337500D01*
X149462500Y-130337500D01*
X149462500Y-130087500D01*
X149463556Y-130041428D01*
X149522199Y-129878802D01*
X149712500Y-129837500D01*
X149758572Y-129838555D01*
X149921198Y-129897198D01*
X149962500Y-130087500D01*
X149967237Y-130187830D01*
X150017716Y-130288029D01*
X150165756Y-130329394D01*
X150462500Y-130337500D01*
X150663162Y-130335131D01*
X150863559Y-130309892D01*
X150946289Y-130235872D01*
X150962500Y-130087500D01*
X150963556Y-130041428D01*
X151022199Y-129878802D01*
X151212500Y-129837500D01*
X151258572Y-129838555D01*
X151421198Y-129897198D01*
X151462500Y-130087500D01*
X151463556Y-130133571D01*
X151522199Y-130296197D01*
X151712500Y-130337500D01*
X151758572Y-130336444D01*
X151921198Y-130277801D01*
X151962500Y-130087500D01*
X151967237Y-129987169D01*
X152017716Y-129886970D01*
X152165756Y-129845605D01*
X152462500Y-129837500D01*
X152663162Y-129839868D01*
X152863559Y-129865107D01*
X152946289Y-129939127D01*
X152962500Y-130087500D01*
X152967237Y-130187830D01*
X153017716Y-130288029D01*
X153165756Y-130329394D01*
X153462500Y-130337500D01*
X153663162Y-130335131D01*
X153863559Y-130309892D01*
X153946289Y-130235872D01*
X153962500Y-130087500D01*
X153963556Y-130041428D01*
X154022199Y-129878802D01*
X154212500Y-129837500D01*
X154258572Y-129838555D01*
X154421198Y-129897198D01*
X154462500Y-130087500D01*
X154463556Y-130133571D01*
X154522199Y-130296197D01*
X154712500Y-130337500D01*
X155462500Y-130337500D01*
X158962500Y-130337500D01*
X158962500Y-126837500D01*
X155462500Y-126837500D01*
X155462500Y-130337500D01*
X154712500Y-130337500D01*
X154800309Y-130334742D01*
X154892332Y-130300474D01*
X154940676Y-130192596D01*
X154959385Y-129968981D01*
X154962500Y-129587500D01*
X154961581Y-129324074D01*
X154950159Y-129048006D01*
X154914199Y-128902972D01*
X154839661Y-128846846D01*
X154712500Y-128837500D01*
X154666429Y-128838555D01*
X154503803Y-128897198D01*
X154462500Y-129087500D01*
X154461445Y-129133571D01*
X154402802Y-129296197D01*
X154212500Y-129337500D01*
X154166429Y-129336444D01*
X154003803Y-129277801D01*
X153962500Y-129087500D01*
X153961445Y-129041428D01*
X153902802Y-128878802D01*
X153712500Y-128837500D01*
X153666429Y-128836444D01*
X153503803Y-128777801D01*
X153462500Y-128587500D01*
X153465258Y-128499691D01*
X153499526Y-128407668D01*
X153607404Y-128359324D01*
X153831019Y-128340615D01*
X154212500Y-128337500D01*
X154962500Y-128337500D01*
X154962500Y-126337500D01*
X154712500Y-126337500D01*
X154666429Y-126336444D01*
X154503803Y-126277801D01*
X154462500Y-126087500D01*
X154463556Y-126041428D01*
X154522199Y-125878802D01*
X154712500Y-125837500D01*
X154758572Y-125836444D01*
X154921198Y-125777801D01*
X154962500Y-125587500D01*
X154967237Y-125487169D01*
X155017716Y-125386970D01*
X155165756Y-125345605D01*
X155462500Y-125337500D01*
X155663162Y-125339868D01*
X155863559Y-125365107D01*
X155946289Y-125439127D01*
X155962500Y-125587500D01*
X155961445Y-125633571D01*
X155902802Y-125796197D01*
X155712500Y-125837500D01*
X155666429Y-125838555D01*
X155503803Y-125897198D01*
X155462500Y-126087500D01*
X155463556Y-126133571D01*
X155522199Y-126296197D01*
X155712500Y-126337500D01*
X155758572Y-126336444D01*
X155921198Y-126277801D01*
X155962500Y-126087500D01*
X155963556Y-126041428D01*
X156022199Y-125878802D01*
X156212500Y-125837500D01*
X156258572Y-125836444D01*
X156421198Y-125777801D01*
X156462500Y-125587500D01*
X156461445Y-125541428D01*
X156402802Y-125378802D01*
X156212500Y-125337500D01*
X156166429Y-125336444D01*
X156003803Y-125277801D01*
X155962500Y-125087500D01*
X155967237Y-124987169D01*
X156017716Y-124886970D01*
X156165756Y-124845605D01*
X156462500Y-124837500D01*
X156962500Y-124837500D01*
X156962500Y-125337500D01*
X156964869Y-125538161D01*
X156990108Y-125738558D01*
X157064128Y-125821288D01*
X157212500Y-125837500D01*
X157312831Y-125832763D01*
X157413030Y-125782284D01*
X157454395Y-125634244D01*
X157455672Y-125587500D01*
X157962500Y-125587500D01*
X157963556Y-125633571D01*
X158022199Y-125796197D01*
X158212500Y-125837500D01*
X158258572Y-125838555D01*
X158421198Y-125897198D01*
X158462500Y-126087500D01*
X158463556Y-126133571D01*
X158522199Y-126296197D01*
X158712500Y-126337500D01*
X158758572Y-126336444D01*
X158921198Y-126277801D01*
X158962500Y-126087500D01*
X158961445Y-126041428D01*
X158902802Y-125878802D01*
X158712500Y-125837500D01*
X158666429Y-125836444D01*
X158503803Y-125777801D01*
X158462500Y-125587500D01*
X158463556Y-125541428D01*
X158522199Y-125378802D01*
X158712500Y-125337500D01*
X158758572Y-125336444D01*
X158921198Y-125277801D01*
X158962500Y-125087500D01*
X158961445Y-125041428D01*
X158902802Y-124878802D01*
X158712500Y-124837500D01*
X158666429Y-124838555D01*
X158503803Y-124897198D01*
X158462500Y-125087500D01*
X158461445Y-125133571D01*
X158402802Y-125296197D01*
X158212500Y-125337500D01*
X158166429Y-125338555D01*
X158003803Y-125397198D01*
X157962500Y-125587500D01*
X157455672Y-125587500D01*
X157462500Y-125337500D01*
X157460132Y-125136838D01*
X157434893Y-124936441D01*
X157360873Y-124853711D01*
X157212500Y-124837500D01*
X157124692Y-124834742D01*
X157032669Y-124800474D01*
X156984325Y-124692596D01*
X156965616Y-124468981D01*
X156962500Y-124087500D01*
X156963420Y-123824074D01*
X156974842Y-123548006D01*
X157010802Y-123402972D01*
X157085340Y-123346846D01*
X157212500Y-123337500D01*
X157258572Y-123336444D01*
X157421198Y-123277801D01*
X157462500Y-123087500D01*
X157463556Y-123041428D01*
X157522199Y-122878802D01*
X157712500Y-122837500D01*
X157812831Y-122842236D01*
X157913030Y-122892715D01*
X157954395Y-123040755D01*
X157962500Y-123337500D01*
X157960132Y-123538161D01*
X157934893Y-123738558D01*
X157860873Y-123821288D01*
X157712500Y-123837500D01*
X157666429Y-123838555D01*
X157503803Y-123897198D01*
X157462500Y-124087500D01*
X157465258Y-124175308D01*
X157499526Y-124267331D01*
X157607404Y-124315675D01*
X157831019Y-124334384D01*
X158212500Y-124337500D01*
X158475926Y-124336580D01*
X158751994Y-124325158D01*
X158897028Y-124289198D01*
X158953154Y-124214660D01*
X158962500Y-124087500D01*
X158961445Y-124041428D01*
X158902802Y-123878802D01*
X158712500Y-123837500D01*
X158462500Y-123837500D01*
X158462500Y-121837500D01*
X158962500Y-121837500D01*
X158962500Y-119837500D01*
X158212500Y-119837500D01*
X157949075Y-119838419D01*
X157673007Y-119849841D01*
X157527973Y-119885801D01*
X157471847Y-119960339D01*
X157462500Y-120087500D01*
X157461445Y-120133571D01*
X157402802Y-120296197D01*
X157212500Y-120337500D01*
X157166429Y-120336444D01*
X157003803Y-120277801D01*
X156962500Y-120087500D01*
X156962500Y-119837500D01*
X154962500Y-119837500D01*
X154962500Y-119337500D01*
X155462500Y-119337500D01*
X158962500Y-119337500D01*
X158962500Y-115837500D01*
X155462500Y-115837500D01*
X155462500Y-119337500D01*
X154962500Y-119337500D01*
X154960132Y-119136838D01*
X154934893Y-118936441D01*
X154860873Y-118853711D01*
X154712500Y-118837500D01*
X154624692Y-118840257D01*
X154532669Y-118874525D01*
X154484325Y-118982403D01*
X154465616Y-119206018D01*
X154462500Y-119587500D01*
X154461581Y-119850925D01*
X154450159Y-120126993D01*
X154414199Y-120272027D01*
X154339661Y-120328153D01*
X154212500Y-120337500D01*
X154166429Y-120338555D01*
X154003803Y-120397198D01*
X153962500Y-120587500D01*
X153961445Y-120633571D01*
X153902802Y-120796197D01*
X153712500Y-120837500D01*
X153666429Y-120836444D01*
X153503803Y-120777801D01*
X153462500Y-120587500D01*
X153461445Y-120541428D01*
X153402802Y-120378802D01*
X153212500Y-120337500D01*
X153166429Y-120336444D01*
X153003803Y-120277801D01*
X152962500Y-120087500D01*
X152963556Y-120041428D01*
X153022199Y-119878802D01*
X153212500Y-119837500D01*
X153258572Y-119836444D01*
X153421198Y-119777801D01*
X153462500Y-119587500D01*
X153463556Y-119541428D01*
X153522199Y-119378802D01*
X153712500Y-119337500D01*
X153812831Y-119332763D01*
X153913030Y-119282284D01*
X153954395Y-119134244D01*
X153962500Y-118837500D01*
X153964869Y-118636838D01*
X153990108Y-118436441D01*
X154064128Y-118353711D01*
X154212500Y-118337500D01*
X154312831Y-118332763D01*
X154413030Y-118282284D01*
X154454395Y-118134244D01*
X154462500Y-117837500D01*
X154464869Y-117636838D01*
X154490108Y-117436441D01*
X154564128Y-117353711D01*
X154712500Y-117337500D01*
X154758572Y-117336444D01*
X154921198Y-117277801D01*
X154962500Y-117087500D01*
X154961445Y-117041428D01*
X154902802Y-116878802D01*
X154712500Y-116837500D01*
X154666429Y-116836444D01*
X154503803Y-116777801D01*
X154462500Y-116587500D01*
X154461445Y-116541428D01*
X154402802Y-116378802D01*
X154212500Y-116337500D01*
X154166429Y-116336444D01*
X154003803Y-116277801D01*
X153962500Y-116087500D01*
X153961445Y-116041428D01*
X153902802Y-115878802D01*
X153712500Y-115837500D01*
X153666429Y-115838555D01*
X153503803Y-115897198D01*
X153462500Y-116087500D01*
X153463556Y-116133571D01*
X153522199Y-116296197D01*
X153712500Y-116337500D01*
X153758572Y-116338555D01*
X153921198Y-116397198D01*
X153962500Y-116587500D01*
X153963556Y-116633571D01*
X154022199Y-116796197D01*
X154212500Y-116837500D01*
X154258572Y-116838555D01*
X154421198Y-116897198D01*
X154462500Y-117087500D01*
X154461445Y-117133571D01*
X154402802Y-117296197D01*
X154212500Y-117337500D01*
X154112170Y-117342236D01*
X154011971Y-117392715D01*
X153970606Y-117540755D01*
X153962500Y-117837500D01*
X153962500Y-118337500D01*
X152962500Y-118337500D01*
X152962500Y-117837500D01*
X152964869Y-117636838D01*
X152990108Y-117436441D01*
X153064128Y-117353711D01*
X153212500Y-117337500D01*
X153258572Y-117336444D01*
X153421198Y-117277801D01*
X153462500Y-117087500D01*
X153461445Y-117041428D01*
X153402802Y-116878802D01*
X153212500Y-116837500D01*
X153166429Y-116838555D01*
X153003803Y-116897198D01*
X152962500Y-117087500D01*
X152961445Y-117133571D01*
X152902802Y-117296197D01*
X152712500Y-117337500D01*
X152612170Y-117342236D01*
X152511971Y-117392715D01*
X152470606Y-117540755D01*
X152462500Y-117837500D01*
X152460132Y-118038161D01*
X152434893Y-118238558D01*
X152360873Y-118321288D01*
X152212500Y-118337500D01*
X152166429Y-118338555D01*
X152003803Y-118397198D01*
X151962500Y-118587500D01*
X151961445Y-118633571D01*
X151902802Y-118796197D01*
X151712500Y-118837500D01*
X151624692Y-118834742D01*
X151532669Y-118800474D01*
X151484325Y-118692596D01*
X151465616Y-118468981D01*
X151462500Y-118087500D01*
X151463420Y-117824074D01*
X151474842Y-117548006D01*
X151510802Y-117402972D01*
X151585340Y-117346846D01*
X151712500Y-117337500D01*
X151812831Y-117332763D01*
X151913030Y-117282284D01*
X151954395Y-117134244D01*
X151962500Y-116837500D01*
X151964869Y-116636838D01*
X151990108Y-116436441D01*
X152064128Y-116353711D01*
X152212500Y-116337500D01*
X152258572Y-116336444D01*
X152421198Y-116277801D01*
X152462500Y-116087500D01*
X152462500Y-115837500D01*
X148962500Y-115837500D01*
X148962500Y-116087500D01*
X148961445Y-116133571D01*
X148902802Y-116296197D01*
X148712500Y-116337500D01*
X148612170Y-116342236D01*
X148511971Y-116392715D01*
X148470606Y-116540755D01*
X148462500Y-116837500D01*
X148464869Y-117038161D01*
X148490108Y-117238558D01*
X148564128Y-117321288D01*
X148712500Y-117337500D01*
X148812831Y-117342236D01*
X148913030Y-117392715D01*
X148954395Y-117540755D01*
X148962500Y-117837500D01*
X148960132Y-118038161D01*
X148934893Y-118238558D01*
X148860873Y-118321288D01*
X148712500Y-118337500D01*
X148624692Y-118340257D01*
X148532669Y-118374525D01*
X148484325Y-118482403D01*
X148465616Y-118706018D01*
X148462500Y-119087500D01*
X148462500Y-119837500D01*
X147962500Y-119837500D01*
X147761839Y-119839868D01*
X147561442Y-119865107D01*
X147478712Y-119939127D01*
X147462500Y-120087500D01*
X147461445Y-120133571D01*
X147402802Y-120296197D01*
X147212500Y-120337500D01*
X147166429Y-120338555D01*
X147003803Y-120397198D01*
X146962500Y-120587500D01*
X146961445Y-120633571D01*
X146902802Y-120796197D01*
X146712500Y-120837500D01*
X146666429Y-120836444D01*
X146503803Y-120777801D01*
X146462500Y-120587500D01*
X146461445Y-120541428D01*
X146402802Y-120378802D01*
X146212500Y-120337500D01*
X146166429Y-120336444D01*
X146003803Y-120277801D01*
X145962500Y-120087500D01*
X145961445Y-120041428D01*
X145902802Y-119878802D01*
X145712500Y-119837500D01*
X145666429Y-119838555D01*
X145503803Y-119897198D01*
X145462500Y-120087500D01*
X145463556Y-120133571D01*
X145522199Y-120296197D01*
X145712500Y-120337500D01*
X145758572Y-120338555D01*
X145921198Y-120397198D01*
X145962500Y-120587500D01*
X145957764Y-120687830D01*
X145907285Y-120788029D01*
X145759245Y-120829394D01*
X145462500Y-120837500D01*
X145261839Y-120835131D01*
X145061442Y-120809892D01*
X144978712Y-120735872D01*
X144962500Y-120587500D01*
X144961445Y-120541428D01*
X144902802Y-120378802D01*
X144712500Y-120337500D01*
X144612170Y-120342236D01*
X144511971Y-120392715D01*
X144470606Y-120540755D01*
X144462500Y-120837500D01*
X144464869Y-121038161D01*
X144490108Y-121238558D01*
X144564128Y-121321288D01*
X144712500Y-121337500D01*
X144758572Y-121338555D01*
X144921198Y-121397198D01*
X144962500Y-121587500D01*
X144961445Y-121633571D01*
X144902802Y-121796197D01*
X144712500Y-121837500D01*
X144624692Y-121840257D01*
X144532669Y-121874525D01*
X144484325Y-121982403D01*
X144465616Y-122206018D01*
X144462500Y-122587500D01*
X144463420Y-122850925D01*
X144474842Y-123126993D01*
X144510802Y-123272027D01*
X144585340Y-123328153D01*
X144712500Y-123337500D01*
X144758572Y-123338555D01*
X144921198Y-123397198D01*
X144962500Y-123587500D01*
X144961445Y-123633571D01*
X144902802Y-123796197D01*
X144712500Y-123837500D01*
X144624692Y-123840257D01*
X144532669Y-123874525D01*
X144484325Y-123982403D01*
X144465616Y-124206018D01*
X144462500Y-124587500D01*
X144463420Y-124850925D01*
X144474842Y-125126993D01*
X144510802Y-125272027D01*
X144585340Y-125328153D01*
X144712500Y-125337500D01*
X144758572Y-125338555D01*
X144921198Y-125397198D01*
X144962500Y-125587500D01*
X144963556Y-125633571D01*
X145022199Y-125796197D01*
X145212500Y-125837500D01*
X145312831Y-125832763D01*
X145413030Y-125782284D01*
X145454395Y-125634244D01*
X145462500Y-125337500D01*
X145464869Y-125136838D01*
X145490108Y-124936441D01*
X145564128Y-124853711D01*
X145712500Y-124837500D01*
X145812831Y-124842236D01*
X145913030Y-124892715D01*
X145954395Y-125040755D01*
X145962500Y-125337500D01*
X145964869Y-125538161D01*
X145990108Y-125738558D01*
X146064128Y-125821288D01*
X146212500Y-125837500D01*
X146312831Y-125842236D01*
X146413030Y-125892715D01*
X146454395Y-126040755D01*
X146462500Y-126337500D01*
X146460132Y-126538161D01*
X146434893Y-126738558D01*
X146360873Y-126821288D01*
X146212500Y-126837500D01*
X146166429Y-126836444D01*
X146003803Y-126777801D01*
X145962500Y-126587500D01*
X145959743Y-126499691D01*
X145925475Y-126407668D01*
X145817597Y-126359324D01*
X145593982Y-126340615D01*
X145212500Y-126337500D01*
X144462500Y-126337500D01*
X144462500Y-129337500D01*
X144712500Y-129337500D01*
X144758572Y-129338555D01*
X144921198Y-129397198D01*
X144962500Y-129587500D01*
X144961445Y-129633571D01*
X144902802Y-129796197D01*
X144712500Y-129837500D01*
X144666429Y-129838555D01*
X144503803Y-129897198D01*
X144462500Y-130087500D01*
X143962500Y-130087500D01*
X143962500Y-119337500D01*
X144462500Y-119337500D01*
X147962500Y-119337500D01*
X147962500Y-115837500D01*
X144462500Y-115837500D01*
X144462500Y-119337500D01*
X143962500Y-119337500D01*
X143962500Y-115337500D01*
X159462500Y-115337500D01*
X159462500Y-130837500D01*
X143962500Y-130837500D01*
G37*
G36*
X158908410Y-84536999D02*
G01*
X158430336Y-84391976D01*
X157989739Y-84156473D01*
X157603554Y-83839538D01*
X157286619Y-83453352D01*
X157051116Y-83012756D01*
X156961384Y-82716950D01*
X160463925Y-82716950D01*
X160536950Y-83180500D01*
X160762375Y-83612300D01*
X161149725Y-83932975D01*
X161406900Y-84025844D01*
X161708525Y-84056800D01*
X162113867Y-84011292D01*
X162449358Y-83874767D01*
X162715000Y-83647225D01*
X162907264Y-83323022D01*
X163022622Y-82896514D01*
X163061075Y-82367700D01*
X163019006Y-81829538D01*
X162892800Y-81358050D01*
X162688806Y-80954825D01*
X162413375Y-80621450D01*
X162070475Y-80359512D01*
X161664075Y-80170600D01*
X161202112Y-80056300D01*
X160692525Y-80018200D01*
X160648075Y-80684950D01*
X161143375Y-80735750D01*
X161587875Y-80884975D01*
X161940300Y-81154850D01*
X162159375Y-81567600D01*
X161924425Y-81488225D01*
X161721225Y-81459650D01*
X161404519Y-81485050D01*
X161140200Y-81561250D01*
X160749675Y-81834300D01*
X160530600Y-82234350D01*
X160463925Y-82716950D01*
X156961384Y-82716950D01*
X156906093Y-82534681D01*
X156857125Y-82037500D01*
X156906093Y-81540319D01*
X157051116Y-81062244D01*
X157286619Y-80621648D01*
X157603554Y-80235462D01*
X157989739Y-79918527D01*
X158430336Y-79683024D01*
X158908410Y-79538001D01*
X159405592Y-79489033D01*
X164119408Y-79489033D01*
X164616589Y-79538001D01*
X165094664Y-79683024D01*
X165535260Y-79918527D01*
X165921446Y-80235462D01*
X166238381Y-80621648D01*
X166473884Y-81062244D01*
X166618907Y-81540319D01*
X166667875Y-82037500D01*
X166618907Y-82534681D01*
X166473884Y-83012756D01*
X166238381Y-83453352D01*
X165921446Y-83839538D01*
X165535260Y-84156473D01*
X165094664Y-84391976D01*
X164616589Y-84536999D01*
X164119408Y-84585967D01*
X159405592Y-84585967D01*
X158908410Y-84536999D01*
G37*
G36*
X162070475Y-82132750D02*
G01*
X162280025Y-82202600D01*
X162289550Y-82316900D01*
X162292725Y-82437550D01*
X162267325Y-82789975D01*
X162178425Y-83091600D01*
X162003800Y-83304325D01*
X161727575Y-83383700D01*
X161498975Y-83320200D01*
X161343400Y-83161450D01*
X161254500Y-82951900D01*
X161225925Y-82729650D01*
X161359275Y-82269275D01*
X161541837Y-82147831D01*
X161822825Y-82107350D01*
X162070475Y-82132750D01*
G37*
G36*
X158850797Y-104571253D02*
G01*
X158366170Y-104424243D01*
X157919536Y-104185512D01*
X157528058Y-103864234D01*
X157206780Y-103472755D01*
X156968049Y-103026121D01*
X156958055Y-102993175D01*
X160413125Y-102993175D01*
X160486150Y-103380525D01*
X160721100Y-103732950D01*
X161143375Y-103990125D01*
X161433887Y-104066325D01*
X161784725Y-104091725D01*
X162069681Y-104073469D01*
X162327650Y-104018700D01*
X162746750Y-103809150D01*
X163016625Y-103472600D01*
X163111875Y-103024925D01*
X163076950Y-102735206D01*
X162972175Y-102462950D01*
X162792787Y-102214506D01*
X162534025Y-101996225D01*
X162768975Y-101799375D01*
X162915025Y-101589825D01*
X163016625Y-101132625D01*
X162949950Y-100735750D01*
X162737225Y-100364275D01*
X162349875Y-100091225D01*
X162080000Y-100010263D01*
X161752975Y-99983275D01*
X161245769Y-100053125D01*
X160854450Y-100262675D01*
X160604419Y-100589700D01*
X160521075Y-101011975D01*
X160554412Y-101282644D01*
X160654425Y-101548550D01*
X160825875Y-101790644D01*
X161073525Y-101989875D01*
X160764756Y-102208950D01*
X160562350Y-102447075D01*
X160450431Y-102707425D01*
X160413125Y-102993175D01*
X156958055Y-102993175D01*
X156821039Y-102541495D01*
X156771400Y-102037500D01*
X156821039Y-101533505D01*
X156968049Y-101048879D01*
X157206780Y-100602245D01*
X157528058Y-100210766D01*
X157919536Y-99889488D01*
X158366170Y-99650757D01*
X158850797Y-99503747D01*
X159354792Y-99454108D01*
X164170208Y-99454108D01*
X164674203Y-99503747D01*
X165158829Y-99650757D01*
X165605464Y-99889488D01*
X165996942Y-100210766D01*
X166318220Y-100602244D01*
X166556951Y-101048879D01*
X166703961Y-101533505D01*
X166753600Y-102037500D01*
X166703961Y-102541495D01*
X166556951Y-103026121D01*
X166318220Y-103472756D01*
X165996942Y-103864234D01*
X165605464Y-104185512D01*
X165158829Y-104424243D01*
X164674203Y-104571253D01*
X164170208Y-104620892D01*
X159354792Y-104620892D01*
X158850797Y-104571253D01*
G37*
G36*
X162124450Y-100745275D02*
G01*
X162280025Y-101081825D01*
X162133975Y-101443775D01*
X161932362Y-101586650D01*
X161619625Y-101735875D01*
X161340225Y-101415200D01*
X161257675Y-101075475D01*
X161406900Y-100742100D01*
X161765675Y-100630975D01*
X162124450Y-100745275D01*
G37*
G36*
X162286375Y-102583600D02*
G01*
X162381625Y-102929675D01*
X162200650Y-103313850D01*
X161772025Y-103444025D01*
X161318000Y-103307500D01*
X161149725Y-102980475D01*
X161197350Y-102758225D01*
X161349750Y-102583600D01*
X161619625Y-102424850D01*
X162013325Y-102256575D01*
X162286375Y-102583600D01*
G37*
%LPC*%
D13*
X134262500Y-77037500D03*
D14*
X163762500Y-128537500D03*
D15*
X164462500Y-92037500D03*
X159462500Y-92037500D03*
X135062500Y-82037500D03*
X130062500Y-82037500D03*
X164462500Y-72037500D03*
X159462500Y-72037500D03*
D14*
X130762500Y-128537500D03*
D13*
X142262500Y-130037500D03*
D15*
X159462500Y-102037500D03*
X164462500Y-102037500D03*
X130062500Y-102037500D03*
X135062500Y-102037500D03*
X164462500Y-82037500D03*
X159462500Y-82037500D03*
D14*
X147262500Y-103037500D03*
D15*
X135062500Y-92037500D03*
X130062500Y-92037500D03*
X130062500Y-72037500D03*
X135062500Y-72037500D03*
D16*
X143262500Y-71005500D03*
X145802500Y-71005500D03*
X148342500Y-71005500D03*
X150882500Y-71005500D03*
D13*
X159762500Y-97037500D03*
M02*
